<svg xmlns="http://www.w3.org/2000/svg" width="149.95" height="31.18" viewBox="0 0 149.95 31.18">
  <defs>
    <style>
      .a {
        fill: #67696c;
      }

      .b {
        fill: #193567;
      }

      .c {
        fill: #dd1e33;
      }

      .d {
        fill: #f49c1e;
      }
    </style>
  </defs>
  <title>Asset 3</title>
  <g>
    <polygon class="a" points="37.49 11.38 37.49 11.96 37.49 12.55 149.95 12.55 149.95 11.96 149.95 11.38 37.49 11.38"/>
    <path class="b" d="M40.58,8a6.81,6.81,0,0,0,1.74-.28V4.84H40.15v.85h1.14v1.4a2.94,2.94,0,0,1-.71.08,1.78,1.78,0,0,1-1.83-1.92,1.83,1.83,0,0,1,2-2,3.53,3.53,0,0,1,1.39.29l.07-.91a5.31,5.31,0,0,0-1.58-.22,2.67,2.67,0,0,0-3,2.88c0,1.82,1.21,2.69,3,2.69"/>
    <path class="b" d="M45.16,4.66a1,1,0,0,1,1,1.18c0,.66-.21,1.37-1,1.37s-1-.72-1-1.37a1.05,1.05,0,0,1,1-1.18m0,3.36A2,2,0,0,0,47.25,6a2.08,2.08,0,1,0-4.16,0A2,2,0,0,0,45.16,8"/>
    <polygon class="b" points="50.23 7.92 51.7 3.95 50.66 3.95 49.71 6.84 49.69 6.84 48.7 3.95 47.59 3.95 49.06 7.92 50.23 7.92"/>
    <path class="b" d="M53.95,4.61c.58,0,.81.43.84.93H53a.9.9,0,0,1,.92-.93M54.11,8a2.74,2.74,0,0,0,1.37-.32V6.86a2.7,2.7,0,0,1-1.32.4,1,1,0,0,1-1.13-1h2.75c0-1.39-.42-2.4-1.89-2.4A1.86,1.86,0,0,0,52,6,1.89,1.89,0,0,0,54.11,8"/>
    <path class="b" d="M57.62,6.46c0-.57,0-1.62.84-1.62a1.07,1.07,0,0,1,.46.08v-1a1.12,1.12,0,0,0-.32,0,1.22,1.22,0,0,0-1.09,1h0v-.9h-.92v4h1Z"/>
    <path class="b" d="M60.72,6c0-.51.16-1.32.91-1.32s.67.66.67,1.14V7.92h1V5.41c0-.89-.41-1.56-1.35-1.56a1.49,1.49,0,0,0-1.3.63h0V3.95h-1v4h1Z"/>
    <path class="b" d="M65.39,6c0-.52.08-1.34.77-1.34s.59.52.59.9V7.92h1V6c0-.52.08-1.34.77-1.34s.59.52.59.9V7.92h1V5.41c0-.89-.28-1.56-1.26-1.56a1.36,1.36,0,0,0-1.24.7,1.16,1.16,0,0,0-1.17-.7,1.4,1.4,0,0,0-1.18.65h0V3.95h-1v4h1Z"/>
    <path class="b" d="M72.86,4.61c.58,0,.81.43.84.93H71.94a.9.9,0,0,1,.92-.93M73,8a2.73,2.73,0,0,0,1.37-.32V6.86a2.69,2.69,0,0,1-1.32.4,1,1,0,0,1-1.13-1h2.75c0-1.39-.42-2.4-1.89-2.4A1.86,1.86,0,0,0,71,6,1.89,1.89,0,0,0,73,8"/>
    <path class="b" d="M76.51,6c0-.51.16-1.32.91-1.32s.67.66.67,1.14V7.92h1V5.41c0-.89-.41-1.56-1.35-1.56a1.48,1.48,0,0,0-1.3.63h0V3.95h-1v4h1Z"/>
    <path class="b" d="M80.5,6.73A1.17,1.17,0,0,0,81.76,8a2.71,2.71,0,0,0,.76-.09l0-.82a.92.92,0,0,1-.47.11c-.39,0-.49-.32-.49-.65V4.7h.92V3.95h-.92V2.82l-1,.33v.79h-.76V4.7h.76Z"/>
    <path class="b" d="M87.08,4.66a1,1,0,0,1,1,1.18c0,.66-.21,1.37-1,1.37s-1-.72-1-1.37a1.05,1.05,0,0,1,1-1.18m0,3.36A2,2,0,0,0,89.16,6,2.08,2.08,0,1,0,85,6,2,2,0,0,0,87.08,8"/>
    <path class="b" d="M90.33,7.92h1V4.7h.9V3.95h-.9V3.45c0-.31.11-.61.45-.61a.8.8,0,0,1,.45.14l.08-.86A3.6,3.6,0,0,0,91.59,2a1.21,1.21,0,0,0-1.26,1.35v.55h-.76V4.7h.76Z"/>
    <path class="b" d="M97.32,6.47c0,.49-.55.7-1,.7a2.6,2.6,0,0,1-1.22-.33l-.1,1A4.75,4.75,0,0,0,96.42,8c1.09,0,2-.45,2-1.63C98.45,4.58,96.09,5,96.09,4a.75.75,0,0,1,.85-.75,2.77,2.77,0,0,1,1.1.23l.1-.89a4.05,4.05,0,0,0-1.29-.19c-.95,0-1.88.44-1.88,1.64,0,1.78,2.36,1.36,2.36,2.38"/>
    <path class="b" d="M101.13,4.66a1,1,0,0,1,1,1.18c0,.66-.21,1.37-1,1.37s-1-.72-1-1.37a1.06,1.06,0,0,1,1-1.18m0,3.36A2,2,0,0,0,103.21,6a2.08,2.08,0,1,0-4.16,0A2,2,0,0,0,101.13,8"/>
    <path class="b" d="M105.35,8a1.66,1.66,0,0,0,1.3-.63h0v.54h1v-4h-1V5.89c0,.51-.16,1.32-.91,1.32S105,6.56,105,6.07V3.95h-1V6.45c0,.9.41,1.56,1.35,1.56"/>
    <path class="b" d="M109,6.73A1.17,1.17,0,0,0,110.28,8a2.72,2.72,0,0,0,.76-.09l0-.82a.93.93,0,0,1-.47.11c-.39,0-.49-.32-.49-.65V4.7H111V3.95h-.92V2.82l-1,.33v.79h-.76V4.7H109Z"/>
    <path class="b" d="M112.7,6c0-.51.16-1.32.91-1.32s.67.65.67,1.14V7.92h1V5.41c0-.89-.41-1.56-1.35-1.56a1.48,1.48,0,0,0-1.25.63h0V2.14h-1V7.92h1Z"/>
    <path class="b" d="M120.69,3.62h0l.78,2.22h-1.58ZM119.6,6.69h2.18l.46,1.23h1.2l-2.11-5.39h-1.22L118,7.92h1.12Z"/>
    <path class="b" d="M125.37,8a1.66,1.66,0,0,0,1.3-.63h0v.54h1v-4h-1V5.89c0,.51-.16,1.32-.91,1.32s-.67-.65-.67-1.14V3.95h-1V6.45c0,.9.41,1.56,1.35,1.56"/>
    <path class="b" d="M130.25,6.77c0,.39-.42.48-.68.48a2.27,2.27,0,0,1-1-.26l-.06.85a4.66,4.66,0,0,0,1.17.17c.84,0,1.67-.37,1.67-1.3,0-1.43-1.8-1-1.8-1.67,0-.34.33-.44.61-.44a2.54,2.54,0,0,1,.93.17l.07-.78A4.78,4.78,0,0,0,130,3.86c-.81,0-1.56.38-1.56,1.23,0,1.44,1.8.9,1.8,1.68"/>
    <path class="b" d="M132.45,6.73A1.17,1.17,0,0,0,133.7,8a2.71,2.71,0,0,0,.76-.09l0-.82a.92.92,0,0,1-.47.11c-.39,0-.49-.32-.49-.65V4.7h.92V3.95h-.92V2.82l-1,.33v.79h-.76V4.7h.76Z"/>
    <path class="b" d="M136.14,6.46c0-.57,0-1.62.84-1.62a1.08,1.08,0,0,1,.46.08v-1a1.13,1.13,0,0,0-.32,0,1.22,1.22,0,0,0-1.09,1h0v-.9h-.92v4h1Z"/>
    <path class="b" d="M139.94,6.09h.45a1.32,1.32,0,0,1-.22.82.87.87,0,0,1-.72.36c-.37,0-.66-.15-.66-.49,0-.61.69-.69,1.15-.69M139.2,8a1.42,1.42,0,0,0,1.23-.69h0a5,5,0,0,0,0,.6h.91c0-.31,0-.59,0-.89s0-.6,0-1V5.53c0-1.17-.5-1.67-1.71-1.67a3.56,3.56,0,0,0-1.38.3l0,.89a2.08,2.08,0,0,1,1.23-.43c.61,0,.89.22.89.86h-.57a3.15,3.15,0,0,0-1.33.23,1.17,1.17,0,0,0-.68,1.14A1.27,1.27,0,0,0,139.2,8"/>
    <rect class="b" x="142.35" y="2.14" width="1.04" height="5.79"/>
    <rect class="b" x="144.47" y="2.24" width="1.03" height="0.99"/>
    <rect class="b" x="144.47" y="3.95" width="1.03" height="3.97"/>
    <path class="b" d="M148.45,6.09h.45a1.32,1.32,0,0,1-.22.82.88.88,0,0,1-.73.36c-.37,0-.66-.15-.66-.49,0-.61.69-.69,1.15-.69M147.7,8a1.42,1.42,0,0,0,1.23-.69h0a4.84,4.84,0,0,0,0,.6h.91c0-.31,0-.59,0-.89s0-.6,0-1V5.53c0-1.17-.5-1.67-1.71-1.67a3.55,3.55,0,0,0-1.38.3l0,.89A2.08,2.08,0,0,1,148,4.61c.61,0,.89.22.89.86h-.57A3.15,3.15,0,0,0,147,5.7a1.17,1.17,0,0,0-.68,1.14A1.27,1.27,0,0,0,147.7,8"/>
    <path class="a" d="M15.81,23.85a8.32,8.32,0,1,1,8-8.62,8.32,8.32,0,0,1-8,8.62m8.26-8.63a8.57,8.57,0,1,0-8.24,8.87,8.56,8.56,0,0,0,8.24-8.87"/>
    <path class="a" d="M19,13.51a1.37,1.37,0,0,1-.44.13l0-.15a.84.84,0,0,1,.45-.25l0,0c0,.1,0,.17-.08.23m-.45.43c.08-.21.23-.35.39-.26a.35.35,0,0,1-.39.26m-.28,1.38c.12.11.3.2.3.39a.6.6,0,0,1-.52-.12c.07.14.16.24.15.37s-.18,0-.26,0l-.21-.15c0,.1.21.21,0,.28a.35.35,0,0,1-.35-.17.54.54,0,0,1-.06-.28c.13-.29.36-.55.5-.84s.11-.44.19-.65h.09v.22c.08-.05.15-.17.26-.1l0,.19c0,.1-.23.11-.14.22s.23-.16.37-.05c-.07.22-.17.25-.22.33a.47.47,0,0,1,.42.27c-.25.16-.38.07-.52.1m0-3.61c.16,0,.18.1.21.16s-.12.31-.11.51c.13-.07.11-.29.27-.25l0,.15a6.26,6.26,0,0,1-.29.56,2.19,2.19,0,0,1-.12-1.13m.54.64.08,0c0,.13-.08.18-.14.27l-.22.32c-.1,0-.07-.1,0-.15a1.79,1.79,0,0,1,.33-.49m.2.58-.46.47c-.13-.18,0-.26,0-.35a1.33,1.33,0,0,1,.36-.35l.09.23m-2.44,5.18a2.51,2.51,0,0,1-.38.89c0,.14,0,.15,0,.23a1.86,1.86,0,0,1-.35.74h.49a8,8,0,0,1,1,1c-.16.08-.22-.07-.3-.13-.28-.29-.57-.61-.83-.9h-.4c-.07.09-.16.29-.32.26a1.13,1.13,0,0,1-.27-.27,2.85,2.85,0,0,1-.36-.83c.09-.11.1,0,.15-.07a1.21,1.21,0,0,1-.16-.28,1,1,0,0,1-.13-.68l-.15,0c-.08-.1-.06-.27-.13-.37l0-.23c0-.1.07-.21.11-.31a1.72,1.72,0,0,0,.1-.36c0-.1,0-.21.09-.31a2.31,2.31,0,0,0,0-.79c.08-.16.32-.06.46-.15a.81.81,0,0,0,.58-.66c0-.12,0-.26.16-.3s.25.15.32.26l.07.2a1.41,1.41,0,0,1,0,.69,2.54,2.54,0,0,0,0,1.17.61.61,0,0,0,.09.25l.05.18c.19.21,0,.46,0,.71m.5,1.4a3.17,3.17,0,0,1,.43.43l-.3,0-.61.05L16.49,20h0a1.33,1.33,0,0,1-.3-.29c0-.18.12-.33.15-.49s.13.06.22.1.35.08.48.23m.35,1c-.24.12-.37-.18-.54-.26l.59-.06c.06.2,0,.28-.05.32m-.24.91a9.86,9.86,0,0,1-1-1.15c-.05-.09-.19-.16-.15-.28a2.4,2.4,0,0,1,.64.61c.18.24.39.4.55.64l-.06.18m-.28.1c-.19,0-.22-.17-.32-.27a4,4,0,0,1-.64-1.06,5.59,5.59,0,0,1,.77.91.49.49,0,0,1,.19.42m-.68-.12a7.18,7.18,0,0,1-.44-1.09c.11-.17.16.1.21.16.14.39.5.7.5,1.13-.24.06-.23-.08-.28-.2m-.47.2c-.34-.21-.11-.68-.17-1l.06-.25.1.09a4.68,4.68,0,0,1,.24,1.21c-.15.11-.15,0-.23-.05m-.28-.18c-.08.12-.2.2-.28.32-.17-.16-.08-.33-.06-.51s.19-.56.25-.84l.09,0c0,.33,0,.65,0,1m-.62.28c-.21,0-.26-.11-.21-.2s.13-.3.16-.45.3-.58.42-.86l.07,0a7.65,7.65,0,0,1-.24.92,1.4,1.4,0,0,0-.2.55m-.45-.21c-.17-.07-.13-.15-.1-.2a12.7,12.7,0,0,1,.78-1.12l0,0a3.94,3.94,0,0,1-.5.93,1.23,1.23,0,0,0-.22.36m-.2-.42c-.06.08-.09.23-.24.21s.1-.29.18-.4c.25-.28.55-.52.81-.79h0a2.52,2.52,0,0,1-.29.43c-.13.2-.39.32-.49.53m-.34-.1c-.11-.14,0-.19,0-.26a8.89,8.89,0,0,1,.95-.74h.05l-.13.18c-.21.26-.53.42-.72.68l-.15.12m0-.77a.52.52,0,0,1,.33,0c-.16.13-.24.41-.46.3a.24.24,0,0,1,.13-.33M13.6,20l0-.07c.28-.43.7-.45,1-.7.14,0,.14.2.19.3l0,.22a1.19,1.19,0,0,0-.25.19l-.14.07c-.27,0-.58,0-.82,0m.91-5.65.26,0,.21,0c.08-.22-.21-.34-.31-.49.13-.08.26,0,.36.1s.13.37,0,.52-.36-.08-.53-.13m.83-.12.15.08c-.1.18-.15.13-.19.11s0-.18,0-.19m2.9,6c0,.1-.1.14-.15.21a.45.45,0,0,1-.32,0l-.07-.18c.24-.15.45-.2.54-.06m.37-.09a1.23,1.23,0,0,1,.44,0v.18c-.18.2-.47.13-.74.13a.38.38,0,0,1,.31-.36m-5.4.31c-.14,0-.32.06-.44,0,0-.1.07-.23.2-.26s.24,0,.33,0a.23.23,0,0,1-.09.27m-.59-.05a.87.87,0,0,1-.69.05l0-.15c.12-.25.45-.11.66-.14l.13,0-.06.2m1.27-4.59c-.07.12-.17.25-.34.23l-.08-.18c-.08-.06-.14.07-.25,0-.16-.23,0-.29,0-.41-.13,0-.23.19-.39.14l-.08-.16a.41.41,0,0,1,.16-.28c-.14,0-.33.14-.44,0l.11-.18.27-.13c-.22-.14-.32-.24-.31-.36l.18-.06c.1,0,.18.15.3.14l0-.18c0-.09-.1-.16,0-.27s.17.12.25.11V14c.17.13.1.39.16.57s.28.37.42.57.23.42.14.65m-1.67-2a1.37,1.37,0,0,1,0-.24c.19,0,.26.09.32,0l-.35-.37c.16-.11.26,0,.36,0-.1-.18-.27-.24-.32-.37l.07-.19c.09,0,.07.1.16.11s-.24-.32-.07-.46l.15.14c.08.16.28.31.21.51a2.23,2.23,0,0,0,0,1,.36.36,0,0,1-.45-.09m.34-1.94c.13,0,.1.15.15.23,0,.27.1.38.06.51a2.16,2.16,0,0,1-.32-.53l.11-.21m.41-.49,0,0a2.44,2.44,0,0,0,0,.3,1.45,1.45,0,0,1-.13.67,5.88,5.88,0,0,0-.22-.68c.06-.12.13-.3.28-.32m9.48,3.53a3.51,3.51,0,0,0,.57-.32c0-.15-.23-.2-.33-.3s-.3-.11-.39-.23c.07-.22.32-.31.48-.51l-.2-.15c-.14-.08-.34,0-.48-.24a4.15,4.15,0,0,0,.47-.43c-.11-.15-.31-.16-.48-.17s-.3.13-.36,0a6.66,6.66,0,0,0,.45-.61,1.19,1.19,0,0,0-.75.11c-.13,0-.25.16-.39,0a2.46,2.46,0,0,1,.55-.5c.11-.09.28-.2.14-.39a3.46,3.46,0,0,0-1.35.65l-.22,0c0-.09.08-.17.15-.24A1.31,1.31,0,0,0,20.9,11c.05-.25.31-.38.23-.68a2.21,2.21,0,0,0-1.09.8.67.67,0,0,1-.29.26c-.07-.1,0-.21.08-.27a2,2,0,0,1,.44-.68c0-.15.14-.29.16-.46s0-.21-.16-.24a3,3,0,0,0-.86,1l-.16.11a.5.5,0,0,1,0-.43c0-.17.17-.3.2-.47a6.33,6.33,0,0,0,0-.83c-.36.21-.43.64-.63,1a4.66,4.66,0,0,1,0-.95c0-.18-.05-.41-.25-.48-.21.19-.16.51-.3.86-.09,0-.1-.21-.2-.15a28.52,28.52,0,0,0,.11,3.47,8.54,8.54,0,0,0-.35,1.4,2.17,2.17,0,0,1-.7,1.26c-.18-.08-.5.08-.57-.17a1.61,1.61,0,0,0-.43-.92,4,4,0,0,0-1.48-.72c-.1,0-.25,0-.31,0a1.11,1.11,0,0,1,.56.5c-.14,0-.27-.05-.41-.06s-.13-.06-.2,0a3.57,3.57,0,0,0,.57.4c.16.06.15.24.2.37a.57.57,0,0,1-.2.5c-.22.21-.36-.23-.59-.06L14,15.4c0-.32-.34-.47-.48-.77a2.09,2.09,0,0,0-.32-1,2.63,2.63,0,0,1-.07-1.6c.07-.44.15-.87.21-1.31a2.15,2.15,0,0,0,0-.39,2.45,2.45,0,0,0,0-.53c-.05-.11,0-.28-.08-.4s-.17.25-.34.23,0-.26-.05-.41a2.5,2.5,0,0,0-.08-.69h-.05a.8.8,0,0,0-.25.75,4.59,4.59,0,0,1,0,.94c0,.12.1.3-.08.32s0-.16-.1-.27a7.44,7.44,0,0,0-.22-.77c-.1-.15-.1-.36-.39-.44a1.06,1.06,0,0,0,0,.72,1.38,1.38,0,0,0,.11.51c.06.13.11.28-.12.3a4.05,4.05,0,0,0-.6-.83c-.11,0-.16-.19-.27-.16a1.16,1.16,0,0,0,.1.55,3.45,3.45,0,0,1,.38,1A4.76,4.76,0,0,0,10,10.39c0,.44.51.73.56,1.15A3.36,3.36,0,0,0,9.33,11a1.51,1.51,0,0,0,.43.83,3.82,3.82,0,0,0-.67-.07l-.19.06a4.29,4.29,0,0,1,.43.61c-.25.12-.58,0-.84.13a2,2,0,0,1,.29.58,1.1,1.1,0,0,0-.54.26c.1.18.27.27.39.43l0,.18a1.2,1.2,0,0,0-.46.49c.14.18.37.24.44.43-.14.18-.35.3-.43.52s.16.13.24.21.23,0,.3.16-.22.26-.22.43.2.11.29.14.42-.11.51.1a1.09,1.09,0,0,0-.15.49c.07.1.2.07.29.11s.28-.06.4,0v0l-.08.19c0,.12-.12.21-.05.31a3,3,0,0,0,.66,0c.16,0,.11.2.17.32s.28,0,.43,0,.14.21.23.33l.24,0c.25-.19.3.16.49.24s.16-.11.28-.09.17.16.25.24.2-.12.33-.18.25.13.37.21.2-.09.32-.12.23.07.36.05a.7.7,0,0,0,.18-.29c.1-.23,0-.55.24-.72l.19.76c.06.2-.09.4-.13.61a9.77,9.77,0,0,1-.83.78c-.21.24-.51.06-.79.14l0,0c-.25.19-.65,0-.89.19a.3.3,0,0,0-.08.31c.13.25.44.19.7.18s.25.16.39.09.23,0,.36,0,.21-.1.46-.05a2.64,2.64,0,0,0-.36.62c-.06.19.24.17.21.36s.34.09.35.31.21.07.31.09.13.17.24.25l.24,0c.11,0,.16.11.24.17l.27-.09c.17,0,.2.19.32.26s.22-.2.39-.22l.33.14c.1-.07.11-.21.21-.27l.26,0c.12,0,.12-.11.2-.16s.18,0,.28,0l.11-.22c0-.1.16-.1.27-.13s.19-.2.31-.27a.74.74,0,0,0-.21-.47c0-.13-.15-.24-.12-.43.11,0,.18.06.26.13a.33.33,0,0,0,.33-.11c.1-.07.16.06.23.11s.21,0,.29-.06.41,0,.54-.2l.07-.25c-.14-.25-.46-.2-.7-.22L18.38,20h0c-.23-.1-.54,0-.76-.12a7.84,7.84,0,0,1-1-1c-.19-.31.07-.63.08-1,0,0,.06-.12.24,0,.09.32.08.73.42.91.13,0,.18-.12.3-.13a.58.58,0,0,1,.23.2c.12,0,.17-.15.28-.18s.22.11.36.1a1.16,1.16,0,0,1,.2-.24c.14,0,.22.11.34.13s.11-.24.22-.32a.38.38,0,0,1,.3.06c.2.08.15-.17.25-.25s.37,0,.56,0l.11-.16c0-.34.39-.16.6-.23s0-.35.09-.48l.07-.06a3.26,3.26,0,0,0,.6,0c.1-.07,0-.15,0-.23s-.24-.27-.08-.38a2.64,2.64,0,0,0,.66-.1,1,1,0,0,0-.11-.29c-.05-.09-.17-.16-.19-.27s.27-.14.4-.21.23-.07.25-.19a4.19,4.19,0,0,0-.36-.33v-.17"/>
    <path class="a" d="M3.91,16.37l1.21.29L4,17.3ZM3.09,17.8c-.25,0-.16-.31-.27-.29l0,.08c0,.19.06.37.08.55s0,.37.06.55l.06.07c.1,0-.06-.21.2-.37l2.1-1.25c.59-.35.74-.37.74-.42s-.07,0-.29-.1-.29-.17-.37-.16l-.17.13s-.22-.05-1.7-.43a1.89,1.89,0,0,1-.72-.31c-.13-.11-.1-.3-.19-.29l0,.07c0,.17,0,.31.07.46,0,.31,0,.42.05.52l.06.07c.11,0,0-.38.43-.44a2.43,2.43,0,0,1,.66.1l.13,1-.58.34-.25.11"/>
    <path class="a" d="M5.5,22.13l1.29-.68c.36-.19.61-.13.74,0l.16.11v-.11L7.45,21l-.22-.43-.09-.06c-.06,0,0,.07,0,.19s-.06.42-.42.61L5.43,22a.78.78,0,0,1-1.18-.3.76.76,0,0,1,.31-1.11l1.78-.95c.28-.15.33.26.43.21v-.12c-.08-.14-.14-.24-.27-.49l-.25-.5-.11-.06c-.11.05.21.32-.07.47l-1.77.94c-.47.25-.65.8-.25,1.55a1,1,0,0,0,1.44.47"/>
    <path class="a" d="M9.15,24.38l.08,0s.24-.31.62-.86v-.08c-.07-.06-.12.1-.22,0s-.14-.36-.45-.63a1,1,0,0,0-1.33.08c-.75.9.81,1.7.19,2.43a.59.59,0,0,1-.9,0c-.47-.39-.27-1,0-1.5l0-.15H7.17l-.84,1v.07c.07.06.12-.11.26,0s.21.41.47.63a1,1,0,0,0,1.49-.07c.74-.88-.76-1.76-.19-2.43a.5.5,0,0,1,.76,0c.4.34.29.85.06,1.36l0,.13"/>
    <path class="a" d="M12.55,24.91a1.31,1.31,0,0,1,.73,1.1c0,.12,0,.19,0,.2l.05,0,0-.26.11-.79,0-.1-.07,0-.17,0-1.89-.65a.3.3,0,0,1-.15-.09l0-.05-.08.07-.39.69-.13.23,0,0,.15-.13A1.31,1.31,0,0,1,12,24.73l-.9,2.62c-.1.3-.48,0-.52.12l.09.1.58.19.58.21.13,0c0-.11-.44-.12-.34-.42Z"/>
    <path class="a" d="M16.07,26.88l-.13-1.51.27,0c.43,0,.71.14.76.68a.66.66,0,0,1-.69.83Zm.91.76.47.73.79-.06.09-.06c0-.12-.33.07-.56-.32l-.3-.51a.89.89,0,0,0-.93-.53h0c.66-.1,1.08-.44,1-.92s-.42-.81-1.32-.73l-.61.06-.56,0-.09.08c0,.12.38-.07.4.25l.22,2.53c0,.32-.37.2-.36.32l.11.06.55-.06.56,0,.1-.07c0-.12-.38.07-.41-.25L16.08,27h.07c.35,0,.45.07.83.65"/>
    <path class="a" d="M20.13,26.3,20,25.06l1,.83Zm1.43.66.09,0,.49-.25.5-.23,0-.08c0-.09-.19.13-.42-.07l-1.86-1.58c-.52-.44-.59-.59-.64-.56s0,.08,0,.31-.07.33,0,.4l.18.11s0,.23.15,1.75a1.89,1.89,0,0,1-.06.78c-.07.16-.25.19-.21.27l.08,0,.41-.21.47-.22,0-.08c-.05-.1-.34.17-.55-.26a2.38,2.38,0,0,1-.11-.66l.92-.45.51.44.18.2c.11.23-.24.25-.19.36"/>
    <path class="a" d="M24.13,25.21l.12,0,.37-.42,1.22-1.3-.65-.87-.09-.1H25l0,.12A1.35,1.35,0,0,1,25,24.24c-.16.17-.29.21-.49,0L22.7,22.6c-.23-.22.14-.39.05-.47l-.12,0-.37.41-.39.4,0,.12c.09.08.24-.3.47-.08l1.86,1.73c.23.22-.14.39-.05.48"/>
    <path class="a" d="M27,21.48l.1-.06c.07-.14.11-.26.23-.51s.18-.35.24-.5l0-.12c-.11-.05-.13.36-.42.22l-2.3-1.07c-.29-.14,0-.42-.1-.47l-.1.06c-.07.15-.11.26-.23.51l-.24.5,0,.12c.11.05.13-.36.42-.22L26.87,21c.29.13,0,.41.1.46"/>
    <path class="a" d="M27,17.56,25.92,17l1.22-.35Zm.88-1.14.26,0c.26,0,.08.33.2.35l.06-.07c0-.19,0-.37.06-.55s.06-.36.08-.55l0-.09c-.1,0,0,.22-.29.31l-2.34.7c-.66.19-.81.17-.82.23s.06,0,.26.17.24.24.31.25l.19-.09s.2.1,1.55.83a1.88,1.88,0,0,1,.63.48c.1.14,0,.32.11.33l.06-.05c0-.17,0-.31,0-.46,0-.31.06-.42.07-.51l0-.08c-.11,0,0,.38-.52.32a2.36,2.36,0,0,1-.61-.26l.12-1Z"/>
    <path class="a" d="M6.05,6.69A1,1,0,0,0,6,8c.86.8,1.77-.76,2.47-.1a.61.61,0,0,1,0,.92c-.43.46-1,.24-1.52-.1l-.15,0v.07l1,.89h.07c.06-.07-.11-.12,0-.27A4.16,4.16,0,0,0,8.55,9a1,1,0,0,0,0-1.52c-.84-.79-1.83.7-2.47.11a.51.51,0,0,1,0-.77c.37-.39.88-.27,1.38,0l.13,0V6.7S7.33,6.45,6.8,6H6.72c-.06.07.09.12,0,.22s-.38.12-.66.43"/>
    <path class="a" d="M10.23,3.82c.57-.25,1.19,0,1.63,1s.22,1.62-.34,1.88-1.19,0-1.63-1-.22-1.62.35-1.87m1.33,3a1.69,1.69,0,1,0-2.24-.85,1.69,1.69,0,0,0,2.24.85"/>
    <path class="a" d="M15.09,2.71,15,2.65l-.57,0h-.58l-.1.07c0,.12.39,0,.4.28l0,2c0,.54.43.94,1.31.92a1,1,0,0,0,1.11-1.07l0-1.46c0-.4.16-.6.34-.66s.18,0,.18-.09l-.11,0-.5,0H16l-.1.05c0,.07.06,0,.18.08s.36.24.37.65l0,1.47a.79.79,0,0,1-.84.92A.78.78,0,0,1,14.73,5l0-2c0-.32.39-.17.39-.29"/>
    <path class="a" d="M18.4,6.2l.09.11.59.23.58.25.14,0c0-.11-.45-.15-.33-.44l1-2.56a1.33,1.33,0,0,1,.7,1.15c0,.12,0,.19,0,.2l.05,0a1.77,1.77,0,0,0,.05-.26l.15-.78V4H21.4a.3.3,0,0,1-.17,0l-1.91-.77a.27.27,0,0,1-.14-.1l0-.06-.08.06-.43.67L18.48,4l0,.05.16-.12A1.34,1.34,0,0,1,20,3.55l-1,2.57c-.12.3-.5,0-.54.09"/>
    <path class="a" d="M21.66,7.52c-.22.23-.4-.15-.48-.07l0,.12.42.39.41.41.12,0c.08-.08-.31-.25-.09-.48L23,7l1,1-.9.94c-.22.23-.4-.15-.48-.07l0,.12.42.39.41.41.12,0c.08-.09-.31-.25-.09-.48l1.76-1.83c.22-.23.4.15.48.07l0-.12L25.26,7l-.41-.41-.12,0c-.08.09.31.25.09.48L24,7.86l-1-1,.78-.81c.22-.23.4.15.48.07l0-.12-.42-.39-.41-.41-.12,0c-.08.09.31.25.09.48Z"/>
    <path class="b" d="M15.07,1.48a14.13,14.13,0,0,1,14.32,11.1l1.44-.3A15.59,15.59,0,0,0,.3,12.54l1.44.27A14.13,14.13,0,0,1,15.07,1.48"/>
    <path class="c" d="M29.44,12.83a14.28,14.28,0,0,1,.26,2.24q0,.7,0,1.38l1.46.1q0-.48,0-1a15.74,15.74,0,0,0-.3-3.05Z"/>
    <path class="d" d="M29.51,17.95,31,18.2q.12-.68.17-1.39l-1.46-.1c0,.42-.08.83-.15,1.23"/>
    <path class="b" d="M16.11,29.7A14.13,14.13,0,0,1,1.76,18.45l-1.44.28a15.59,15.59,0,0,0,30.59-.27l-1.44-.26A14.13,14.13,0,0,1,16.11,29.7"/>
    <path class="d" d="M1.53,17l-1.46.13c0,.47.11.93.2,1.39l1.44-.28c-.07-.4-.13-.82-.17-1.23"/>
    <path class="c" d="M1.48,16.11a14.12,14.12,0,0,1,.21-3L.25,12.8A15.71,15.71,0,0,0,0,15.59c0,.41,0,.83,0,1.24l1.46-.13c0-.2,0-.39,0-.59"/>
    <path class="b" d="M38.91,21.22h.46q2.55.06,2.62-2.35a2.22,2.22,0,0,0-.66-1.78,2.53,2.53,0,0,0-1.61-.49h-.81Zm-.55-5.1h1.38a2.77,2.77,0,0,1,2.15.78,3,3,0,0,1,.64,2,2.54,2.54,0,0,1-.9,2.15,3.78,3.78,0,0,1-2.3.65h-1Z"/>
    <path class="b" d="M46.1,19.37a2,2,0,0,0-.23-1,.9.9,0,0,0-.81-.44,1.07,1.07,0,0,0-.87.45,1.56,1.56,0,0,0-.33,1Zm.25,2.2a3.47,3.47,0,0,1-1.18.22,1.68,1.68,0,0,1-1.43-.62,2.46,2.46,0,0,1-.42-1.52,2.43,2.43,0,0,1,.48-1.54A1.51,1.51,0,0,1,45,17.53a1.43,1.43,0,0,1,1.25.6,2.56,2.56,0,0,1,.38,1.42v.26H43.85a1.71,1.71,0,0,0,.34,1.1,1.18,1.18,0,0,0,1,.46,2,2,0,0,0,.62-.1,2.13,2.13,0,0,0,.52-.2Z"/>
    <path class="b" d="M50.4,19.66a4.59,4.59,0,0,0,0-.61,1.61,1.61,0,0,0-.2-.54.94.94,0,0,0-.37-.4,1.1,1.1,0,0,0-.6-.15,1,1,0,0,0-.56.15,1.23,1.23,0,0,0-.38.42,1.8,1.8,0,0,0-.2.54,2.56,2.56,0,0,0-.07.59,2.36,2.36,0,0,0,.27,1.13,1.15,1.15,0,0,0,.38.41.91.91,0,0,0,.56.17,1.08,1.08,0,0,0,1-.56,1.78,1.78,0,0,0,.2-.56,4.31,4.31,0,0,0,0-.58m-2.92-2H48l0,.74h0l.14-.24a1.42,1.42,0,0,1,.24-.27,1.53,1.53,0,0,1,.38-.24,1.51,1.51,0,0,1,.54-.09,1.47,1.47,0,0,1,1.3.6A2.75,2.75,0,0,1,51,19.66a2.6,2.6,0,0,1-.42,1.52,1.49,1.49,0,0,1-1.26.62A1.27,1.27,0,0,1,48,21h0v2.38h-.5Z"/>
    <path class="b" d="M54.19,19.65H54l-.66,0a2.46,2.46,0,0,0-.62.14,1,1,0,0,0-.45.3.76.76,0,0,0-.18.54.62.62,0,0,0,.26.56,1,1,0,0,0,.59.18,1.21,1.21,0,0,0,.7-.18,1,1,0,0,0,.36-.4,1.32,1.32,0,0,0,.14-.49c0-.17,0-.3,0-.41Zm0,1.4h0a1.22,1.22,0,0,1-.54.55,1.66,1.66,0,0,1-.76.2,1.64,1.64,0,0,1-.69-.14,1,1,0,0,1-.42-.3,1.24,1.24,0,0,1-.24-.71,1.22,1.22,0,0,1,.25-.81,1.33,1.33,0,0,1,.62-.42,3.29,3.29,0,0,1,.82-.18l.83,0h.1V19q0-1-.93-1a2.23,2.23,0,0,0-1.2.34v-.48a2.92,2.92,0,0,1,1.2-.29q1.45,0,1.43,1.52v1.8a6.24,6.24,0,0,0,0,.86h-.5Z"/>
    <path class="b" d="M55.82,18.54c0-.38,0-.68,0-.91h.5v.78h0a1.75,1.75,0,0,1,.41-.62.9.9,0,0,1,.64-.26,1.67,1.67,0,0,1,.35,0v.53a1.34,1.34,0,0,0-.37,0,.86.86,0,0,0-.49.14,1.05,1.05,0,0,0-.31.39,2.06,2.06,0,0,0-.16.52,3.12,3.12,0,0,0-.06.58v2h-.5Z"/>
    <path class="b" d="M60.16,18.06h-.93V20.7a.83.83,0,0,0,.13.47.45.45,0,0,0,.42.2,1,1,0,0,0,.46-.1l0,.42-.25.07a1.63,1.63,0,0,1-.37,0,1,1,0,0,1-.52-.11.75.75,0,0,1-.28-.3,1.52,1.52,0,0,1-.1-.43c0-.16,0-.33,0-.52V18.06h-.8v-.43h.8v-1l.5-.18v1.16h.93Z"/>
    <path class="b" d="M65.91,21.7V19a2.57,2.57,0,0,0,0-.42.9.9,0,0,0-.15-.32.64.64,0,0,0-.26-.22A1.06,1.06,0,0,0,65,18a1,1,0,0,0-.75.35A1.67,1.67,0,0,0,64,19.45V21.7h-.5V19a2.57,2.57,0,0,0,0-.42.9.9,0,0,0-.15-.32A.64.64,0,0,0,63,18a1.06,1.06,0,0,0-.42-.07,1,1,0,0,0-.75.35,1.67,1.67,0,0,0-.34,1.14V21.7H61V18.58c0-.32,0-.63,0-1h.49v.69h0a2,2,0,0,1,.15-.25,1,1,0,0,1,.22-.26,1.37,1.37,0,0,1,.36-.21,1.56,1.56,0,0,1,.54-.08l.31,0a1,1,0,0,1,.32.13.85.85,0,0,1,.28.26,1.14,1.14,0,0,1,.17.45h0a1.44,1.44,0,0,1,.49-.62,1.39,1.39,0,0,1,.82-.25,1.25,1.25,0,0,1,1,.38,1.42,1.42,0,0,1,.33,1V21.7Z"/>
    <path class="b" d="M70.06,19.37a2,2,0,0,0-.23-1A.9.9,0,0,0,69,18a1.07,1.07,0,0,0-.87.45,1.56,1.56,0,0,0-.33,1Zm.25,2.2a3.47,3.47,0,0,1-1.18.22,1.68,1.68,0,0,1-1.43-.62,2.46,2.46,0,0,1-.42-1.52,2.43,2.43,0,0,1,.48-1.54A1.51,1.51,0,0,1,69,17.53a1.43,1.43,0,0,1,1.25.6,2.56,2.56,0,0,1,.38,1.42v.26H67.82a1.71,1.71,0,0,0,.34,1.1,1.18,1.18,0,0,0,1,.46,2,2,0,0,0,.62-.1,2.13,2.13,0,0,0,.52-.2Z"/>
    <path class="b" d="M71.49,18.58q0-.47,0-1h.49v.73h0a2.68,2.68,0,0,1,.17-.29,1.24,1.24,0,0,1,.24-.26,1.1,1.1,0,0,1,.38-.2,1.76,1.76,0,0,1,.54-.07,1.28,1.28,0,0,1,1.08.45,1.87,1.87,0,0,1,.31,1.12V21.7h-.5V19.22a1.73,1.73,0,0,0-.22-.93A.87.87,0,0,0,73.2,18a1,1,0,0,0-.94.48,1.37,1.37,0,0,0-.2.47,2.25,2.25,0,0,0-.06.54V21.7h-.5Z"/>
    <path class="b" d="M77.62,18.06h-.93V20.7a.84.84,0,0,0,.13.47.45.45,0,0,0,.42.2,1,1,0,0,0,.46-.1l0,.42-.25.07a1.62,1.62,0,0,1-.37,0,1,1,0,0,1-.52-.11.76.76,0,0,1-.28-.3,1.52,1.52,0,0,1-.1-.43c0-.16,0-.33,0-.52V18.06h-.8v-.43h.8v-1l.5-.18v1.16h.93Z"/>
    <path class="b" d="M80.93,18.06H80.1v-.43h.82v-.3a6.35,6.35,0,0,1,0-.64,1.56,1.56,0,0,1,.12-.54.84.84,0,0,1,.33-.39,1.07,1.07,0,0,1,.6-.14h.26a.55.55,0,0,1,.21.07l0,.43A.93.93,0,0,0,82,16a.55.55,0,0,0-.38.11.64.64,0,0,0-.18.31,1.55,1.55,0,0,0,0,.39c0,.14,0,.28,0,.42v.35h.92v.43h-.92V21.7h-.5Z"/>
    <path class="b" d="M83.41,19.66a2,2,0,0,0,.35,1.2,1.14,1.14,0,0,0,1,.5,1.19,1.19,0,0,0,1-.5,2,2,0,0,0,.34-1.2,2.09,2.09,0,0,0-.34-1.22,1.2,1.2,0,0,0-1-.49,1.16,1.16,0,0,0-1,.49,2,2,0,0,0-.35,1.22m-.55,0a2.4,2.4,0,0,1,.46-1.49,1.7,1.7,0,0,1,1.44-.65,1.72,1.72,0,0,1,1.46.65,2.68,2.68,0,0,1,0,3,1.72,1.72,0,0,1-1.46.66,1.7,1.7,0,0,1-1.44-.66,2.41,2.41,0,0,1-.46-1.48"/>
    <path class="b" d="M87.54,18.54c0-.38,0-.68,0-.91H88v.78h0a1.76,1.76,0,0,1,.41-.62.9.9,0,0,1,.64-.26,1.67,1.67,0,0,1,.35,0v.53a1.34,1.34,0,0,0-.37,0,.86.86,0,0,0-.49.14,1.05,1.05,0,0,0-.31.39,2.06,2.06,0,0,0-.16.52,3.12,3.12,0,0,0-.06.58v2h-.5Z"/>
    <polygon class="b" points="92.32 16.12 95.06 16.12 95.06 16.6 92.87 16.6 92.87 18.59 94.94 18.59 94.94 19.07 92.87 19.07 92.87 21.22 95.15 21.22 95.15 21.7 92.32 21.7 92.32 16.12"/>
    <path class="b" d="M96.18,18.58q0-.47,0-1h.49v.73h0a2.67,2.67,0,0,1,.17-.29,1.24,1.24,0,0,1,.24-.26,1.1,1.1,0,0,1,.38-.2,1.76,1.76,0,0,1,.54-.07,1.28,1.28,0,0,1,1.08.45,1.87,1.87,0,0,1,.31,1.12V21.7h-.5V19.22a1.73,1.73,0,0,0-.22-.93A.87.87,0,0,0,97.9,18a1,1,0,0,0-.94.48,1.37,1.37,0,0,0-.2.47,2.25,2.25,0,0,0-.06.54V21.7h-.5Z"/>
    <polygon class="b" points="101.97 21.7 101.38 21.7 99.99 17.62 100.54 17.62 101.67 21.15 101.69 21.15 102.87 17.62 103.4 17.62 101.97 21.7"/>
    <path class="b" d="M104,17.62h.5V21.7H104Zm.51-1.09H104v-.67h.5Z"/>
    <path class="b" d="M105.72,18.54c0-.38,0-.68,0-.91h.5v.78h0a1.76,1.76,0,0,1,.41-.62.9.9,0,0,1,.64-.26,1.67,1.67,0,0,1,.35,0v.53a1.34,1.34,0,0,0-.37,0,.86.86,0,0,0-.49.14,1.05,1.05,0,0,0-.31.39,2.06,2.06,0,0,0-.16.52,3.12,3.12,0,0,0-.06.58v2h-.5Z"/>
    <path class="b" d="M108.54,19.66a2,2,0,0,0,.35,1.2,1.14,1.14,0,0,0,1,.5,1.19,1.19,0,0,0,1-.5,2,2,0,0,0,.34-1.2,2.09,2.09,0,0,0-.34-1.22,1.2,1.2,0,0,0-1-.49,1.16,1.16,0,0,0-1,.49,2,2,0,0,0-.35,1.22m-.55,0a2.4,2.4,0,0,1,.46-1.49,1.7,1.7,0,0,1,1.44-.65,1.72,1.72,0,0,1,1.46.65,2.68,2.68,0,0,1,0,3,1.72,1.72,0,0,1-1.46.66,1.7,1.7,0,0,1-1.44-.66,2.41,2.41,0,0,1-.46-1.48"/>
    <path class="b" d="M112.67,18.58q0-.47,0-1h.49v.73h0a2.69,2.69,0,0,1,.17-.29,1.21,1.21,0,0,1,.24-.26,1.09,1.09,0,0,1,.38-.2,1.76,1.76,0,0,1,.54-.07,1.28,1.28,0,0,1,1.08.45,1.87,1.87,0,0,1,.31,1.12V21.7h-.5V19.22a1.73,1.73,0,0,0-.22-.93.87.87,0,0,0-.75-.34,1,1,0,0,0-.94.48,1.35,1.35,0,0,0-.2.47,2.25,2.25,0,0,0-.06.54V21.7h-.5Z"/>
    <path class="b" d="M122,21.7V19a2.7,2.7,0,0,0,0-.42.89.89,0,0,0-.15-.32.64.64,0,0,0-.26-.22,1.06,1.06,0,0,0-.42-.07,1,1,0,0,0-.75.35,1.67,1.67,0,0,0-.34,1.14V21.7h-.5V19a2.69,2.69,0,0,0,0-.42.9.9,0,0,0-.15-.32.65.65,0,0,0-.26-.22,1.06,1.06,0,0,0-.42-.07,1,1,0,0,0-.75.35,1.67,1.67,0,0,0-.35,1.14V21.7H117V18.58c0-.32,0-.63,0-1h.49v.69h0a2.27,2.27,0,0,1,.15-.25,1,1,0,0,1,.23-.26,1.38,1.38,0,0,1,.36-.21,1.57,1.57,0,0,1,.54-.08l.31,0a1,1,0,0,1,.32.13.86.86,0,0,1,.28.26,1.14,1.14,0,0,1,.17.45h0a1.45,1.45,0,0,1,.49-.62,1.39,1.39,0,0,1,.82-.25,1.25,1.25,0,0,1,1,.38,1.42,1.42,0,0,1,.33,1V21.7Z"/>
    <path class="b" d="M126.11,19.37a2,2,0,0,0-.23-1,.9.9,0,0,0-.81-.44,1.07,1.07,0,0,0-.87.45,1.56,1.56,0,0,0-.33,1Zm.25,2.2a3.47,3.47,0,0,1-1.19.22,1.68,1.68,0,0,1-1.43-.62,2.45,2.45,0,0,1-.42-1.52,2.44,2.44,0,0,1,.48-1.54,1.52,1.52,0,0,1,1.24-.59,1.43,1.43,0,0,1,1.25.6,2.55,2.55,0,0,1,.38,1.42v.26h-2.79a1.7,1.7,0,0,0,.34,1.1,1.18,1.18,0,0,0,1,.46,2,2,0,0,0,.62-.1,2.13,2.13,0,0,0,.52-.2Z"/>
    <path class="b" d="M127.54,18.58q0-.47,0-1H128v.73h0a2.69,2.69,0,0,1,.17-.29,1.21,1.21,0,0,1,.24-.26,1.09,1.09,0,0,1,.38-.2,1.76,1.76,0,0,1,.54-.07,1.28,1.28,0,0,1,1.08.45,1.87,1.87,0,0,1,.31,1.12V21.7h-.51V19.22a1.73,1.73,0,0,0-.22-.93.87.87,0,0,0-.75-.34,1,1,0,0,0-.94.48,1.35,1.35,0,0,0-.2.47,2.25,2.25,0,0,0-.06.54V21.7h-.5Z"/>
    <path class="b" d="M133.67,18.06h-.93V20.7a.83.83,0,0,0,.13.47.45.45,0,0,0,.42.2,1,1,0,0,0,.46-.1l0,.42-.25.07a1.62,1.62,0,0,1-.37,0,1,1,0,0,1-.52-.11.76.76,0,0,1-.28-.3,1.49,1.49,0,0,1-.1-.43,4.93,4.93,0,0,1,0-.52V18.06h-.8v-.43h.8v-1l.5-.18v1.16h.93Z"/>
    <path class="b" d="M40.65,28.65H40.5l-.66,0a2.46,2.46,0,0,0-.62.14,1,1,0,0,0-.45.3.76.76,0,0,0-.18.54.62.62,0,0,0,.26.56,1,1,0,0,0,.59.18,1.21,1.21,0,0,0,.7-.18,1,1,0,0,0,.36-.4,1.32,1.32,0,0,0,.14-.49c0-.17,0-.3,0-.41Zm0,1.4h0a1.22,1.22,0,0,1-.54.55,1.66,1.66,0,0,1-.76.2,1.64,1.64,0,0,1-.69-.14,1,1,0,0,1-.42-.3,1.24,1.24,0,0,1-.24-.71,1.22,1.22,0,0,1,.25-.81,1.33,1.33,0,0,1,.62-.42,3.29,3.29,0,0,1,.82-.18l.83,0h.1V28q0-1-.93-1a2.23,2.23,0,0,0-1.2.34v-.48a2.92,2.92,0,0,1,1.2-.29q1.45,0,1.43,1.52v1.8a6.24,6.24,0,0,0,0,.86h-.5Z"/>
    <path class="b" d="M42.27,27.58q0-.47,0-1h.49v.73h0a2.68,2.68,0,0,1,.17-.29,1.24,1.24,0,0,1,.24-.26,1.1,1.1,0,0,1,.38-.2,1.76,1.76,0,0,1,.54-.07,1.28,1.28,0,0,1,1.08.45,1.87,1.87,0,0,1,.31,1.12V30.7H45V28.22a1.73,1.73,0,0,0-.22-.93A.87.87,0,0,0,44,27a1,1,0,0,0-.94.48,1.37,1.37,0,0,0-.2.47,2.25,2.25,0,0,0-.06.54V30.7h-.5Z"/>
    <path class="b" d="M47,28.66a3.17,3.17,0,0,0,.06.58,2.32,2.32,0,0,0,.19.56,1.19,1.19,0,0,0,.38.39,1,1,0,0,0,.58.17,1,1,0,0,0,.58-.17,1.17,1.17,0,0,0,.37-.41,2.42,2.42,0,0,0,.26-1.13,3.29,3.29,0,0,0-.06-.59,2,2,0,0,0-.21-.54,1.26,1.26,0,0,0-.37-.42,1.06,1.06,0,0,0-.58-.15,1,1,0,0,0-.58.15,1.07,1.07,0,0,0-.38.4,2.06,2.06,0,0,0-.19.54,3.37,3.37,0,0,0-.06.61m2.92,2h-.5v-.65h0a1.33,1.33,0,0,1-1.27.74,1.47,1.47,0,0,1-1.26-.62,2.57,2.57,0,0,1-.42-1.52,2.63,2.63,0,0,1,.39-1.54,1.67,1.67,0,0,1,1.82-.51,1.21,1.21,0,0,1,.38.22,1.11,1.11,0,0,1,.36.47h0V24.7h.5Z"/>
    <polygon class="b" points="58.38 30.7 57.73 30.7 56.31 25.74 56.3 25.74 54.86 30.7 54.19 30.7 52.59 25.12 53.14 25.12 54.54 30.08 54.55 30.08 55.98 25.12 56.65 25.12 58.06 30.08 58.07 30.08 59.47 25.12 60 25.12 58.38 30.7"/>
    <path class="b" d="M62.92,28.65h-.14l-.66,0a2.46,2.46,0,0,0-.62.14,1,1,0,0,0-.45.3.76.76,0,0,0-.18.54.62.62,0,0,0,.26.56,1,1,0,0,0,.59.18,1.21,1.21,0,0,0,.7-.18,1,1,0,0,0,.36-.4,1.32,1.32,0,0,0,.14-.49c0-.17,0-.3,0-.41ZM63,30h0a1.22,1.22,0,0,1-.54.55,1.66,1.66,0,0,1-.76.2,1.64,1.64,0,0,1-.69-.14,1,1,0,0,1-.42-.3,1.24,1.24,0,0,1-.24-.71,1.22,1.22,0,0,1,.25-.81,1.33,1.33,0,0,1,.62-.42,3.29,3.29,0,0,1,.82-.18l.83,0h.1V28q0-1-.93-1a2.23,2.23,0,0,0-1.2.34v-.48a2.92,2.92,0,0,1,1.2-.29q1.45,0,1.43,1.52v1.8a6.24,6.24,0,0,0,0,.86H63Z"/>
    <path class="b" d="M66.3,27.06h-.93V29.7a.83.83,0,0,0,.13.47.45.45,0,0,0,.42.2,1,1,0,0,0,.46-.1l0,.42-.25.07a1.62,1.62,0,0,1-.37,0,1,1,0,0,1-.52-.11.76.76,0,0,1-.28-.3,1.52,1.52,0,0,1-.1-.43c0-.16,0-.33,0-.52V27.06h-.8v-.43h.8v-1l.5-.18v1.16h.93Z"/>
    <path class="b" d="M69.62,28.37a2,2,0,0,0-.23-1,.9.9,0,0,0-.81-.44,1.07,1.07,0,0,0-.87.45,1.57,1.57,0,0,0-.33,1Zm.25,2.2a3.48,3.48,0,0,1-1.18.22,1.67,1.67,0,0,1-1.43-.62,2.82,2.82,0,0,1,.06-3.06,1.51,1.51,0,0,1,1.24-.59,1.43,1.43,0,0,1,1.25.6,2.56,2.56,0,0,1,.38,1.42v.26H67.38a1.71,1.71,0,0,0,.34,1.1,1.18,1.18,0,0,0,1,.46,2.05,2.05,0,0,0,.62-.1,2.15,2.15,0,0,0,.52-.2Z"/>
    <path class="b" d="M71,27.54c0-.38,0-.68,0-.91h.5v.78h0a1.76,1.76,0,0,1,.41-.62.9.9,0,0,1,.64-.26,1.67,1.67,0,0,1,.35,0v.53a1.34,1.34,0,0,0-.37,0,.86.86,0,0,0-.49.14,1.05,1.05,0,0,0-.31.39,2.06,2.06,0,0,0-.16.52,3.12,3.12,0,0,0-.06.58v2H71Z"/>
  </g>
</svg>
