<svg xmlns="http://www.w3.org/2000/svg" width="149.95" height="31.18" viewBox="0 0 149.95 31.18">
  <defs>
    <style>
      .a {
        fill: #fff;
      }
    </style>
  </defs>
  <title>Asset 5</title>
  <g>
    <path class="a" d="M40.58,8a6.81,6.81,0,0,0,1.74-.28V4.84H40.15v.85h1.14v1.4a2.94,2.94,0,0,1-.71.08,1.78,1.78,0,0,1-1.83-1.92,1.83,1.83,0,0,1,2-2,3.52,3.52,0,0,1,1.39.29l.07-.91a5.31,5.31,0,0,0-1.58-.22,2.67,2.67,0,0,0-3,2.88c0,1.82,1.21,2.69,3,2.69"/>
    <path class="a" d="M45.16,4.66a1,1,0,0,1,1,1.18c0,.66-.21,1.37-1,1.37s-1-.72-1-1.37a1.05,1.05,0,0,1,1-1.18m0,3.36A2,2,0,0,0,47.24,6a2.08,2.08,0,1,0-4.16,0A2,2,0,0,0,45.16,8"/>
    <polygon class="a" points="50.23 7.92 51.7 3.95 50.66 3.95 49.7 6.84 49.69 6.84 48.7 3.95 47.59 3.95 49.06 7.92 50.23 7.92"/>
    <path class="a" d="M53.95,4.61c.58,0,.81.43.84.93H53a.9.9,0,0,1,.92-.93M54.11,8a2.73,2.73,0,0,0,1.37-.32V6.86a2.69,2.69,0,0,1-1.32.4,1,1,0,0,1-1.13-1h2.75c0-1.39-.42-2.4-1.89-2.4A1.86,1.86,0,0,0,52,6,1.89,1.89,0,0,0,54.11,8"/>
    <path class="a" d="M57.62,6.46c0-.57,0-1.62.84-1.62a1.07,1.07,0,0,1,.46.08v-1a1.12,1.12,0,0,0-.32,0,1.22,1.22,0,0,0-1.09,1h0v-.9h-.92v4h1Z"/>
    <path class="a" d="M60.72,6c0-.51.16-1.32.91-1.32s.67.66.67,1.14V7.92h1V5.41c0-.9-.41-1.56-1.35-1.56a1.49,1.49,0,0,0-1.31.63h0V3.95h-1v4h1Z"/>
    <path class="a" d="M65.39,6c0-.52.09-1.33.77-1.33s.59.52.59.89V7.92h1V6c0-.52.08-1.33.77-1.33s.59.52.59.89V7.92h1V5.41c0-.89-.28-1.56-1.26-1.56a1.36,1.36,0,0,0-1.24.7,1.16,1.16,0,0,0-1.17-.7,1.4,1.4,0,0,0-1.18.65h0V3.95h-1v4h1Z"/>
    <path class="a" d="M72.86,4.61c.58,0,.81.43.84.93H71.94a.9.9,0,0,1,.92-.93M73,8a2.73,2.73,0,0,0,1.37-.32V6.86a2.69,2.69,0,0,1-1.32.4,1,1,0,0,1-1.13-1h2.75c0-1.39-.42-2.4-1.89-2.4A1.86,1.86,0,0,0,71,6,1.89,1.89,0,0,0,73,8"/>
    <path class="a" d="M76.51,6c0-.51.16-1.32.91-1.32s.67.66.67,1.14V7.92h1V5.41c0-.9-.41-1.56-1.35-1.56a1.48,1.48,0,0,0-1.3.63h0V3.95h-1v4h1Z"/>
    <path class="a" d="M80.5,6.73A1.17,1.17,0,0,0,81.76,8a2.72,2.72,0,0,0,.76-.09l0-.82a.93.93,0,0,1-.47.11c-.39,0-.49-.32-.49-.66V4.7h.92V3.95h-.92V2.82l-1,.33v.79h-.76V4.7h.76Z"/>
    <path class="a" d="M87.08,4.66a1,1,0,0,1,1,1.18c0,.66-.21,1.37-1,1.37s-1-.72-1-1.37a1.05,1.05,0,0,1,1-1.18m0,3.36A2,2,0,0,0,89.16,6,2.08,2.08,0,1,0,85,6,2,2,0,0,0,87.08,8"/>
    <path class="a" d="M90.33,7.92h1V4.7h.9V3.95h-.9V3.46c0-.31.11-.61.45-.61a.8.8,0,0,1,.45.14l.08-.86A3.61,3.61,0,0,0,91.59,2a1.21,1.21,0,0,0-1.26,1.35v.56h-.76V4.7h.76Z"/>
    <path class="a" d="M97.32,6.47c0,.49-.55.7-1,.7a2.6,2.6,0,0,1-1.22-.33l-.1,1A4.75,4.75,0,0,0,96.42,8c1.09,0,2-.45,2-1.63C98.45,4.58,96.09,5,96.09,4a.75.75,0,0,1,.85-.75,2.78,2.78,0,0,1,1.1.23l.1-.89a4.05,4.05,0,0,0-1.29-.19c-.95,0-1.88.44-1.88,1.64,0,1.78,2.36,1.36,2.36,2.38"/>
    <path class="a" d="M101.13,4.66a1,1,0,0,1,1,1.18c0,.66-.21,1.37-1,1.37s-1-.72-1-1.37a1.05,1.05,0,0,1,1-1.18m0,3.36A2,2,0,0,0,103.21,6a2.08,2.08,0,1,0-4.16,0A2,2,0,0,0,101.13,8"/>
    <path class="a" d="M105.35,8a1.66,1.66,0,0,0,1.3-.63h0v.54h1v-4h-1V5.89c0,.51-.16,1.32-.91,1.32S105,6.56,105,6.07V3.95h-1V6.46c0,.89.41,1.56,1.35,1.56"/>
    <path class="a" d="M109,6.73A1.17,1.17,0,0,0,110.28,8a2.7,2.7,0,0,0,.76-.09l0-.82a.93.93,0,0,1-.47.11c-.39,0-.49-.32-.49-.66V4.7H111V3.95h-.92V2.82l-1,.33v.79h-.76V4.7H109Z"/>
    <path class="a" d="M112.7,6c0-.51.16-1.32.91-1.32s.67.66.67,1.14V7.92h1V5.41c0-.9-.41-1.56-1.35-1.56a1.48,1.48,0,0,0-1.25.63h0V2.13h-1V7.92h1Z"/>
    <path class="a" d="M120.69,3.62h0l.78,2.22h-1.58ZM119.6,6.69h2.18l.46,1.23h1.19l-2.11-5.39h-1.22L118,7.92h1.12Z"/>
    <path class="a" d="M125.37,8a1.66,1.66,0,0,0,1.3-.63h0v.54h1v-4h-1V5.89c0,.51-.16,1.32-.91,1.32s-.67-.65-.67-1.14V3.95h-1V6.46c0,.89.41,1.56,1.35,1.56"/>
    <path class="a" d="M130.25,6.77c0,.39-.42.49-.68.49a2.27,2.27,0,0,1-1-.26l-.06.85a4.65,4.65,0,0,0,1.17.17c.84,0,1.67-.37,1.67-1.3,0-1.44-1.8-1-1.8-1.67,0-.34.33-.44.61-.44a2.53,2.53,0,0,1,.93.17l.07-.78A4.8,4.8,0,0,0,130,3.86c-.81,0-1.56.38-1.56,1.23,0,1.44,1.8.9,1.8,1.68"/>
    <path class="a" d="M132.45,6.73A1.17,1.17,0,0,0,133.7,8a2.7,2.7,0,0,0,.76-.09l0-.82a.92.92,0,0,1-.47.11c-.4,0-.49-.32-.49-.66V4.7h.92V3.95h-.92V2.82l-1,.33v.79h-.76V4.7h.76Z"/>
    <path class="a" d="M136.14,6.46c0-.57,0-1.62.84-1.62a1.08,1.08,0,0,1,.46.08v-1a1.14,1.14,0,0,0-.32,0,1.22,1.22,0,0,0-1.09,1h0v-.9h-.92v4h1Z"/>
    <path class="a" d="M139.94,6.08h.45a1.32,1.32,0,0,1-.22.82.88.88,0,0,1-.73.36c-.37,0-.66-.15-.66-.49,0-.61.69-.69,1.15-.69M139.19,8a1.42,1.42,0,0,0,1.23-.69h0a5,5,0,0,0,0,.6h.91c0-.31,0-.59,0-.89s0-.6,0-1V5.53c0-1.17-.5-1.67-1.71-1.67a3.57,3.57,0,0,0-1.38.3l0,.89a2.08,2.08,0,0,1,1.23-.43c.61,0,.89.22.89.86h-.57a3.15,3.15,0,0,0-1.33.23,1.17,1.17,0,0,0-.68,1.14A1.27,1.27,0,0,0,139.19,8"/>
    <rect class="a" x="142.35" y="2.13" width="1.04" height="5.79"/>
    <rect class="a" x="144.47" y="2.23" width="1.03" height="0.99"/>
    <rect class="a" x="144.47" y="3.95" width="1.03" height="3.97"/>
    <path class="a" d="M148.45,6.08h.45a1.33,1.33,0,0,1-.22.82.88.88,0,0,1-.73.36c-.37,0-.66-.15-.66-.49,0-.61.69-.69,1.15-.69M147.7,8a1.42,1.42,0,0,0,1.23-.69h0a4.84,4.84,0,0,0,0,.6h.91c0-.31,0-.59,0-.89s0-.6,0-1V5.53c0-1.17-.5-1.67-1.71-1.67a3.55,3.55,0,0,0-1.38.3l0,.89A2.08,2.08,0,0,1,148,4.61c.61,0,.89.22.89.86h-.57A3.15,3.15,0,0,0,147,5.7a1.17,1.17,0,0,0-.68,1.14A1.27,1.27,0,0,0,147.7,8"/>
    <path class="a" d="M15.07,1.48a14.13,14.13,0,0,1,14.32,11.1l1.44-.3A15.59,15.59,0,0,0,.3,12.54l1.44.27A14.13,14.13,0,0,1,15.07,1.48"/>
    <path class="a" d="M16.11,29.7A14.13,14.13,0,0,1,1.76,18.45l-1.44.28a15.59,15.59,0,0,0,30.59-.27l-1.44-.26A14.13,14.13,0,0,1,16.11,29.7"/>
    <polygon class="a" points="37.49 11.38 37.49 11.96 37.49 12.55 149.94 12.55 149.94 11.96 149.94 11.38 37.49 11.38"/>
    <path class="a" d="M15.81,23.86a8.32,8.32,0,1,1,8-8.62,8.32,8.32,0,0,1-8,8.62m8.26-8.63a8.57,8.57,0,1,0-8.24,8.87,8.56,8.56,0,0,0,8.24-8.87"/>
    <path class="a" d="M19,13.51a1.38,1.38,0,0,1-.44.13l0-.15a.84.84,0,0,1,.45-.25l0,0c0,.1,0,.17-.08.23m-.45.43c.08-.21.23-.36.39-.26a.35.35,0,0,1-.39.26m-.28,1.38c.12.11.3.2.29.39a.6.6,0,0,1-.52-.12c.07.14.16.24.15.37s-.18,0-.26,0l-.21-.15c0,.1.21.21,0,.28a.35.35,0,0,1-.35-.17.53.53,0,0,1-.06-.28c.13-.29.36-.55.5-.84s.11-.44.2-.65h.09v.22c.08-.05.15-.17.26-.1l0,.19c0,.1-.23.11-.15.22s.22-.16.37-.05c-.07.22-.17.25-.22.33a.47.47,0,0,1,.42.27c-.25.16-.38.07-.52.1m0-3.61c.16,0,.18.1.21.16s-.12.31-.11.51c.13-.07.11-.29.27-.25l0,.15c-.11.17-.15.39-.29.56a2.2,2.2,0,0,1-.12-1.13m.54.64.08,0c0,.13-.08.18-.14.27l-.22.32c-.11,0-.07-.1,0-.15a1.8,1.8,0,0,1,.33-.49m.2.58-.46.47c-.13-.17,0-.26,0-.35a1.33,1.33,0,0,1,.36-.35l.09.23m-2.44,5.18a2.51,2.51,0,0,1-.38.89c0,.14,0,.15,0,.23a1.84,1.84,0,0,1-.35.74h.5a8.08,8.08,0,0,1,1,1c-.16.08-.22-.07-.3-.13-.28-.29-.57-.61-.83-.9h-.4c-.07.09-.16.29-.32.26a1.14,1.14,0,0,1-.27-.27,2.82,2.82,0,0,1-.36-.83c.08-.11.1,0,.15-.07a1.2,1.2,0,0,1-.16-.28,1,1,0,0,1-.13-.68l-.15,0c-.08-.1-.06-.27-.13-.37l0-.23c0-.1.07-.21.11-.31a1.72,1.72,0,0,0,.09-.36c0-.1,0-.21.09-.31a2.26,2.26,0,0,0,0-.79c.08-.16.32-.06.46-.15a.81.81,0,0,0,.58-.66c0-.12,0-.26.16-.3s.25.15.32.26l.07.2a1.42,1.42,0,0,1,0,.69,2.54,2.54,0,0,0,0,1.17.61.61,0,0,0,.09.25l.05.18c.19.21,0,.46,0,.71m.5,1.4a3.24,3.24,0,0,1,.43.43l-.3,0-.61.05L16.48,20h0a1.36,1.36,0,0,1-.3-.29c0-.18.12-.33.15-.49s.13.06.22.1.35.08.48.23m.35,1c-.24.12-.37-.18-.54-.26l.59-.06c.06.2,0,.28-.05.32m-.24.91a9.86,9.86,0,0,1-1-1.15c-.05-.09-.19-.16-.15-.28a2.4,2.4,0,0,1,.64.61c.18.24.39.4.55.64l-.06.18m-.6-.17a4,4,0,0,1-.64-1.06,5.58,5.58,0,0,1,.77.91.49.49,0,0,1,.19.42c-.19,0-.22-.17-.32-.27m-.37.15a7.18,7.18,0,0,1-.44-1.09c.11-.17.16.1.21.16.14.39.5.7.5,1.13-.24.06-.23-.08-.28-.2m-.47.2c-.34-.21-.11-.68-.16-1l.06-.25.1.09a4.68,4.68,0,0,1,.24,1.21c-.15.11-.15,0-.23-.06m-.28-.18c-.09.12-.2.2-.28.32-.17-.16-.08-.33-.06-.51s.19-.56.25-.84l.09,0c0,.33,0,.65,0,1m-.62.28c-.21,0-.26-.11-.21-.2s.13-.3.16-.46.3-.58.42-.86l.07,0a7.67,7.67,0,0,1-.24.92,1.4,1.4,0,0,0-.2.55m-.45-.21c-.17-.07-.13-.15-.1-.2a12.71,12.71,0,0,1,.78-1.12l0,0a3.92,3.92,0,0,1-.51.93,1.25,1.25,0,0,0-.22.36m-.43-.2c-.08-.16.1-.28.18-.4.25-.28.55-.52.81-.79h0a2.65,2.65,0,0,1-.29.43c-.14.2-.39.32-.5.53s-.09.23-.24.21m-.1-.32c-.11-.14,0-.19,0-.26a8.77,8.77,0,0,1,.95-.74h.05l-.14.19c-.21.26-.52.42-.72.68l-.15.12m0-.77a.52.52,0,0,1,.34,0c-.16.14-.24.41-.46.3a.24.24,0,0,1,.13-.33M13.6,20l0-.07c.28-.43.7-.45,1-.7.14,0,.14.2.19.3l0,.22a1.14,1.14,0,0,0-.25.19l-.14.07c-.27,0-.58,0-.82,0m.91-5.65.26,0,.21,0c.08-.22-.21-.34-.31-.49.12-.08.26,0,.36.1s.13.37,0,.52-.36-.08-.53-.14m.83-.12.14.08c-.1.18-.15.13-.19.11s0-.18,0-.19m2.9,6c0,.1-.1.15-.15.21a.45.45,0,0,1-.32,0l-.07-.18c.24-.15.45-.2.54-.06m.37-.09a1.23,1.23,0,0,1,.44,0v.18c-.18.2-.47.13-.74.13a.38.38,0,0,1,.31-.36m-5.4.31c-.14,0-.32.06-.44,0,0-.1.07-.23.2-.26s.24,0,.34,0a.23.23,0,0,1-.09.27m-.59-.05a.87.87,0,0,1-.69.05l0-.15c.12-.25.45-.11.66-.14l.13,0-.06.2m1.27-4.59c-.07.12-.17.25-.34.23l-.08-.18c-.08-.06-.14.07-.26,0-.16-.23,0-.29,0-.41-.13,0-.22.19-.39.14l-.08-.16a.41.41,0,0,1,.16-.28c-.14,0-.33.14-.44,0l.11-.18.27-.13c-.22-.14-.32-.24-.31-.36l.18-.06c.1,0,.18.15.3.14l0-.18c0-.09-.1-.16,0-.27s.17.12.25.11V14c.17.14.1.39.16.57s.29.37.42.58.23.41.14.65m-1.67-2a1.47,1.47,0,0,1,0-.24c.19,0,.26.09.32,0l-.35-.37c.16-.11.25,0,.36,0-.1-.18-.27-.23-.32-.37l.07-.19c.09,0,.07.1.16.11s-.24-.32-.07-.46l.15.14c.08.16.28.31.21.51a2.21,2.21,0,0,0,0,1,.36.36,0,0,1-.45-.09m.34-1.94c.13,0,.09.15.15.22,0,.27.1.38.06.51a2.16,2.16,0,0,1-.32-.53l.11-.21m.4-.49,0,0a2.44,2.44,0,0,0,0,.29,1.46,1.46,0,0,1-.13.67,6.07,6.07,0,0,0-.22-.68c.06-.12.13-.3.28-.32m9.48,3.53a3.46,3.46,0,0,0,.57-.32c0-.15-.23-.2-.33-.3s-.3-.11-.39-.23c.07-.22.32-.31.48-.51l-.2-.15c-.14-.09-.34,0-.48-.24a4.14,4.14,0,0,0,.47-.43c-.11-.15-.31-.16-.48-.17s-.3.13-.36,0a6.65,6.65,0,0,0,.45-.61,1.19,1.19,0,0,0-.75.1c-.13,0-.25.16-.38,0a2.47,2.47,0,0,1,.55-.5c.11-.09.27-.2.14-.39a3.46,3.46,0,0,0-1.35.65l-.22,0,.15-.24A1.31,1.31,0,0,0,20.9,11c.05-.25.31-.38.23-.68a2.22,2.22,0,0,0-1.09.8.67.67,0,0,1-.29.26c-.07-.1,0-.21.08-.27a2,2,0,0,1,.44-.68c0-.15.14-.29.16-.45s0-.21-.16-.24a3,3,0,0,0-.86,1l-.16.11a.5.5,0,0,1,0-.43c0-.17.17-.3.2-.47a6,6,0,0,0,0-.83c-.36.21-.43.65-.63,1a4.66,4.66,0,0,1,0-.95c0-.18-.05-.41-.25-.48-.21.19-.16.51-.3.86-.09,0-.1-.21-.2-.15a28.71,28.71,0,0,0,.11,3.46,8.64,8.64,0,0,0-.35,1.4,2.17,2.17,0,0,1-.7,1.26c-.18-.08-.5.08-.57-.17a1.61,1.61,0,0,0-.43-.92,4,4,0,0,0-1.48-.72c-.1,0-.25,0-.31,0a1.11,1.11,0,0,1,.56.51c-.14,0-.27-.05-.41-.06s-.13-.06-.2,0a3.54,3.54,0,0,0,.57.4c.16.06.15.24.19.36a.57.57,0,0,1-.2.5c-.22.21-.36-.23-.59-.06L14,15.4c-.05-.32-.34-.48-.48-.77a2.1,2.1,0,0,0-.32-1,2.63,2.63,0,0,1-.07-1.6c.07-.44.15-.87.21-1.31a2.24,2.24,0,0,0,0-.39,2.52,2.52,0,0,0,0-.53c-.06-.11,0-.28-.08-.39s-.17.25-.34.23,0-.26-.05-.41a2.5,2.5,0,0,0-.08-.69h-.05a.8.8,0,0,0-.26.75,4.66,4.66,0,0,1,0,.94c0,.12.1.3-.08.32s0-.16-.1-.27a7.19,7.19,0,0,0-.22-.77c-.09-.15-.1-.36-.39-.44a1.06,1.06,0,0,0,0,.72,1.38,1.38,0,0,0,.11.51c.06.13.11.28-.12.3a4,4,0,0,0-.6-.83c-.1,0-.16-.19-.27-.16a1.16,1.16,0,0,0,.1.55,3.51,3.51,0,0,1,.38,1A4.77,4.77,0,0,0,10,10.39c0,.44.51.73.56,1.15A3.36,3.36,0,0,0,9.33,11a1.52,1.52,0,0,0,.43.83,3.83,3.83,0,0,0-.67-.07l-.19.06a4.37,4.37,0,0,1,.43.61c-.25.13-.58,0-.84.13a2,2,0,0,1,.29.58,1.09,1.09,0,0,0-.54.27c.1.18.27.27.39.43l0,.18a1.21,1.21,0,0,0-.46.49c.13.18.37.24.44.43-.14.18-.35.29-.43.52s.16.13.24.21.23,0,.3.15-.22.26-.22.43.2.11.29.14.42-.11.5.1a1.08,1.08,0,0,0-.15.49c.07.1.2.07.29.1s.28-.06.4,0v0l-.08.19c0,.12-.12.21-.05.31a3,3,0,0,0,.67,0c.16,0,.11.2.17.31s.28,0,.43,0,.14.21.23.33l.24,0c.25-.19.3.16.48.24s.16-.11.28-.09.17.16.25.24.2-.12.33-.18.25.13.37.21.2-.09.32-.12.23.07.36.05a.7.7,0,0,0,.18-.29c.09-.23,0-.55.24-.72l.19.76c.06.2-.09.4-.13.61a9.94,9.94,0,0,1-.83.78c-.21.24-.51.06-.79.14l0,0c-.25.19-.65,0-.89.19a.3.3,0,0,0-.08.31c.13.25.44.19.7.18s.25.16.39.09.23,0,.36,0,.21-.1.46-.05a2.61,2.61,0,0,0-.36.62c-.06.19.24.17.21.36s.34.09.35.31.21.07.31.09.13.17.24.25l.24,0c.12,0,.16.11.24.17l.27-.09c.17,0,.2.18.32.26s.22-.2.39-.22l.33.14c.1-.07.11-.21.21-.26l.26,0c.12,0,.12-.11.2-.16s.18,0,.28,0l.11-.22c0-.1.16-.1.27-.13s.18-.2.31-.27a.74.74,0,0,0-.21-.47c0-.13-.15-.24-.12-.43.11,0,.18.06.26.13a.33.33,0,0,0,.33-.11c.1-.07.16.06.24.11s.21,0,.29-.06.41,0,.54-.2l.07-.25c-.14-.25-.45-.2-.7-.22L18.38,20h0c-.23-.1-.54,0-.76-.12a7.83,7.83,0,0,1-1-1c-.19-.31.07-.63.08-1,0,0,.06-.12.24,0,.09.32.08.73.42.91.13,0,.18-.12.3-.13a.59.59,0,0,1,.23.2c.12,0,.17-.15.28-.18s.22.11.36.1a1.23,1.23,0,0,1,.2-.24c.14,0,.22.11.34.13s.11-.23.22-.32a.38.38,0,0,1,.3.06c.2.08.15-.17.25-.25s.37,0,.56,0l.11-.16c0-.34.39-.16.6-.23s0-.35.09-.47l.07-.06a3.26,3.26,0,0,0,.6,0c.1-.07,0-.15,0-.23s-.24-.27-.08-.38a2.64,2.64,0,0,0,.66-.1,1,1,0,0,0-.11-.29c-.05-.09-.17-.16-.19-.28s.27-.14.4-.21.23-.07.25-.19a4,4,0,0,0-.36-.33v-.17"/>
    <path class="a" d="M3.91,16.37l1.21.29L4,17.3ZM3.09,17.8c-.25,0-.16-.31-.27-.29l0,.08c0,.19.06.36.08.55s0,.37.06.55l.07.07c.1,0-.06-.21.2-.37l2.1-1.25c.59-.35.74-.37.74-.42s-.07,0-.29-.1-.29-.17-.36-.16l-.17.13s-.22-.05-1.7-.43a1.89,1.89,0,0,1-.72-.31c-.13-.11-.1-.3-.19-.29l0,.07c0,.17,0,.31.07.46,0,.31,0,.42.05.52l.06.07c.11,0,0-.38.43-.44a2.47,2.47,0,0,1,.66.1l.12,1-.58.34-.25.11"/>
    <path class="a" d="M5.5,22.13l1.29-.68c.36-.19.61-.13.74,0l.16.11v-.11L7.45,21l-.22-.43-.09-.06c-.06,0,0,.07,0,.19s-.06.42-.42.61L5.43,22a.78.78,0,0,1-1.18-.31.76.76,0,0,1,.31-1.11l1.78-.95c.28-.15.33.26.43.2v-.12l-.27-.49-.25-.5-.11-.06c-.1.05.21.32-.07.47l-1.77.94c-.48.25-.65.8-.25,1.55a1,1,0,0,0,1.44.47"/>
    <path class="a" d="M9.15,24.38l.08,0s.23-.31.62-.86v-.08c-.07-.06-.12.1-.22,0s-.14-.36-.45-.63a1,1,0,0,0-1.33.08c-.75.9.81,1.7.19,2.43a.59.59,0,0,1-.9,0c-.46-.39-.27-1,0-1.5l0-.15-.07,0-.84,1v.07c.07.06.12-.11.26,0a4,4,0,0,0,.47.63,1,1,0,0,0,1.49-.07c.74-.88-.76-1.76-.19-2.43a.5.5,0,0,1,.76,0c.4.34.29.85.06,1.36l0,.13"/>
    <path class="a" d="M13.28,26c0,.12,0,.19,0,.19l.05,0a1.79,1.79,0,0,0,0-.26l.11-.79,0-.1-.07,0-.17,0-1.89-.65a.28.28,0,0,1-.15-.09l0-.06-.08.07-.39.69-.13.23,0,0,.15-.13A1.31,1.31,0,0,1,12,24.73l-.9,2.62c-.1.3-.48,0-.52.12l.09.1.58.19.58.21.13,0c0-.11-.44-.12-.34-.42l.9-2.61a1.3,1.3,0,0,1,.73,1.1"/>
    <path class="a" d="M16.07,26.88l-.13-1.51.27,0c.44,0,.71.14.76.68a.66.66,0,0,1-.69.83Zm.91.76.47.73.79-.06.09-.06c0-.12-.33.07-.56-.32l-.3-.51a.89.89,0,0,0-.93-.53h0c.66-.11,1.08-.44,1-.92s-.42-.81-1.32-.73l-.61.06-.55,0-.1.08c0,.12.38-.07.4.25l.22,2.53c0,.32-.37.2-.36.32l.11.06.55-.06.56,0,.1-.08c0-.12-.38.07-.41-.25L16.08,27h.07c.35,0,.45.07.82.65"/>
    <path class="a" d="M20.13,26.3,20,25.06l1,.83Zm1.43.66.09,0,.49-.25.5-.23,0-.08c0-.09-.18.13-.42-.07l-1.86-1.58c-.52-.44-.59-.59-.64-.56s0,.08,0,.31-.07.34,0,.4l.18.11s0,.23.15,1.75a1.89,1.89,0,0,1-.06.78c-.07.16-.25.19-.21.27l.08,0,.42-.21.47-.22,0-.08c-.05-.1-.34.17-.55-.26a2.42,2.42,0,0,1-.12-.66l.92-.45.51.44.18.2c.11.23-.24.25-.19.35"/>
    <path class="a" d="M24.13,25.21l.12,0,.37-.42,1.22-1.3-.65-.87-.09-.1H25l0,.12A1.34,1.34,0,0,1,25,24.24c-.16.17-.29.21-.49,0L22.7,22.6c-.23-.22.14-.39.05-.47l-.12,0-.37.41-.39.4,0,.12c.09.08.24-.3.47-.08l1.86,1.73c.23.22-.14.39-.05.47"/>
    <path class="a" d="M27,21.48l.1-.06c.07-.15.11-.26.23-.51l.24-.5,0-.12c-.11-.05-.13.36-.42.23l-2.3-1.07c-.29-.13,0-.42-.1-.47l-.1.06c-.07.15-.11.26-.23.51s-.18.36-.24.5l0,.12c.11,0,.13-.36.42-.23L26.87,21c.29.13,0,.42.1.47"/>
    <path class="a" d="M27,17.56,25.92,17l1.22-.35Zm.88-1.14.27,0c.25,0,.08.33.2.35l.07-.07c0-.19,0-.37.06-.55s.05-.36.08-.55l0-.08c-.1,0,0,.22-.29.31l-2.34.7c-.66.19-.81.17-.82.23s.06,0,.26.17.24.24.31.25l.19-.09s.2.1,1.55.83a1.89,1.89,0,0,1,.63.48c.1.14,0,.31.11.33l.06-.05c0-.17,0-.31,0-.46,0-.31.06-.42.07-.52l0-.08c-.11,0,0,.38-.52.32a2.36,2.36,0,0,1-.62-.26l.13-1Z"/>
    <path class="a" d="M6.05,6.69A1,1,0,0,0,6,8c.85.8,1.77-.76,2.47-.1a.61.61,0,0,1,0,.92c-.43.46-1,.23-1.52-.1l-.15,0v.07l1,.89h.07c.06-.07-.11-.13,0-.27A4.16,4.16,0,0,0,8.55,9a1,1,0,0,0,0-1.52c-.84-.79-1.83.7-2.47.11a.51.51,0,0,1,0-.77c.37-.39.88-.27,1.38,0l.13,0V6.7S7.33,6.45,6.8,6H6.72c-.06.07.09.12,0,.22s-.37.12-.66.43"/>
    <path class="a" d="M10.23,3.82c.57-.25,1.19,0,1.62,1s.22,1.62-.35,1.88-1.19,0-1.63-1-.22-1.62.35-1.87m1.33,3a1.69,1.69,0,1,0-2.24-.85,1.69,1.69,0,0,0,2.24.85"/>
    <path class="a" d="M15.09,2.71,15,2.65l-.57,0h-.58l-.1.07c0,.12.39,0,.4.28l0,2c0,.54.43.94,1.31.92a1,1,0,0,0,1.11-1.08l0-1.46c0-.4.17-.6.35-.66s.18,0,.18-.09l-.1,0-.5,0H16l-.1.05c0,.07.06,0,.18.08s.36.24.37.65l0,1.47a.79.79,0,0,1-.83.92A.78.78,0,0,1,14.73,5l0-2c0-.32.39-.17.39-.29"/>
    <path class="a" d="M18.39,6.2l.09.11.59.23.58.25.14,0c0-.11-.45-.15-.33-.44l1-2.56a1.34,1.34,0,0,1,.7,1.15c0,.12,0,.19,0,.2l.05,0a1.89,1.89,0,0,0,.05-.26l.15-.78V4H21.4a.3.3,0,0,1-.17,0l-1.91-.77a.27.27,0,0,1-.14-.1l0-.06-.08.07-.43.67L18.48,4l0,.05.16-.12A1.34,1.34,0,0,1,20,3.55l-1,2.57c-.12.3-.5,0-.54.09"/>
    <path class="a" d="M21.66,7.52c-.22.23-.4-.15-.48-.07l0,.12.42.39.41.41.12,0c.08-.08-.31-.25-.09-.48L23,7l1,1-.9.94c-.22.23-.4-.15-.48-.07l0,.12.42.39.41.41.12,0c.08-.08-.31-.25-.08-.48l1.76-1.83c.22-.23.4.15.48.07l0-.12L25.26,7l-.41-.41-.12,0c-.08.09.31.25.09.48L24,7.85l-1-1,.78-.81c.22-.23.4.15.48.07l0-.12-.42-.39-.41-.41-.12,0c-.08.09.31.25.08.48Z"/>
    <path class="a" d="M29.44,12.83a14,14,0,0,1,.26,2.24c0,.46,0,.92,0,1.38l1.46.1q0-.48,0-1a15.74,15.74,0,0,0-.3-3.05Z"/>
    <path class="a" d="M1.48,16.11a14.12,14.12,0,0,1,.21-3L.25,12.8A15.71,15.71,0,0,0,0,15.59c0,.41,0,.83,0,1.24l1.46-.13c0-.2,0-.39,0-.59"/>
    <path class="a" d="M29.51,17.95,31,18.2c.08-.46.13-.92.17-1.39l-1.46-.1c0,.42-.08.83-.15,1.23"/>
    <path class="a" d="M1.53,17l-1.46.13c0,.47.11.93.2,1.39l1.44-.28q-.11-.61-.17-1.23"/>
    <path class="a" d="M39.36,21.07h.46q2.55.06,2.61-2.35a2.21,2.21,0,0,0-.66-1.78,2.53,2.53,0,0,0-1.61-.49h-.81ZM38.81,16H40.2a2.76,2.76,0,0,1,2.15.78,3,3,0,0,1,.64,2,2.54,2.54,0,0,1-.9,2.15,3.78,3.78,0,0,1-2.3.65h-1Z"/>
    <path class="a" d="M46.55,19.22a2,2,0,0,0-.23-1,.9.9,0,0,0-.81-.44,1.07,1.07,0,0,0-.87.45,1.56,1.56,0,0,0-.33,1Zm.25,2.2a3.47,3.47,0,0,1-1.18.22A1.68,1.68,0,0,1,44.18,21a2.45,2.45,0,0,1-.42-1.52A2.43,2.43,0,0,1,44.24,18a1.51,1.51,0,0,1,1.24-.59,1.43,1.43,0,0,1,1.25.6,2.55,2.55,0,0,1,.38,1.42v.26H44.31a1.7,1.7,0,0,0,.34,1.1,1.18,1.18,0,0,0,1,.46,2,2,0,0,0,.62-.1,2.13,2.13,0,0,0,.52-.2Z"/>
    <path class="a" d="M50.85,19.51a4.76,4.76,0,0,0,0-.61,1.63,1.63,0,0,0-.2-.54.94.94,0,0,0-.37-.4,1.11,1.11,0,0,0-.6-.15,1,1,0,0,0-.56.15,1.24,1.24,0,0,0-.38.42,1.82,1.82,0,0,0-.2.54,2.51,2.51,0,0,0-.07.59,2.37,2.37,0,0,0,.27,1.13,1.16,1.16,0,0,0,.38.41.91.91,0,0,0,.56.17,1.08,1.08,0,0,0,1-.56,1.81,1.81,0,0,0,.2-.56,4.47,4.47,0,0,0,0-.58m-2.92-2h.5l0,.74h0l.14-.24a1.42,1.42,0,0,1,.24-.27,1.53,1.53,0,0,1,.38-.24,1.51,1.51,0,0,1,.54-.09A1.47,1.47,0,0,1,51,18a2.75,2.75,0,0,1,.38,1.54A2.61,2.61,0,0,1,51,21a1.49,1.49,0,0,1-1.27.62,1.27,1.27,0,0,1-1.27-.79h0v2.38h-.5Z"/>
    <path class="a" d="M54.65,19.5H54.5l-.66,0a2.48,2.48,0,0,0-.62.14,1,1,0,0,0-.45.3.76.76,0,0,0-.18.54.62.62,0,0,0,.26.56,1,1,0,0,0,.59.18,1.21,1.21,0,0,0,.7-.18,1,1,0,0,0,.36-.4,1.3,1.3,0,0,0,.14-.49c0-.17,0-.3,0-.41Zm0,1.4h0a1.22,1.22,0,0,1-.54.55,1.66,1.66,0,0,1-1.45.06,1,1,0,0,1-.42-.3A1.25,1.25,0,0,1,52,20.5a1.23,1.23,0,0,1,.25-.81,1.33,1.33,0,0,1,.62-.42,3.28,3.28,0,0,1,.82-.18l.83,0h.1v-.21q0-1-.93-1a2.23,2.23,0,0,0-1.2.34v-.48a2.93,2.93,0,0,1,1.2-.29q1.45,0,1.43,1.52v1.8a6.24,6.24,0,0,0,0,.86h-.5Z"/>
    <path class="a" d="M56.27,18.39c0-.38,0-.68,0-.91h.5v.78h0a1.77,1.77,0,0,1,.41-.62.9.9,0,0,1,.64-.26,1.68,1.68,0,0,1,.35,0V18a1.34,1.34,0,0,0-.37,0,.86.86,0,0,0-.49.14,1,1,0,0,0-.31.39,2,2,0,0,0-.16.52,3,3,0,0,0-.06.58v2h-.51Z"/>
    <path class="a" d="M60.61,17.91h-.93v2.64a.83.83,0,0,0,.13.47.45.45,0,0,0,.42.2,1,1,0,0,0,.46-.1l0,.42-.25.07a1.62,1.62,0,0,1-.37,0,1,1,0,0,1-.52-.11.75.75,0,0,1-.28-.3,1.52,1.52,0,0,1-.1-.43,5,5,0,0,1,0-.52V17.91h-.8v-.43h.8v-1l.5-.18v1.16h.93Z"/>
    <path class="a" d="M66.37,21.55V18.84a2.57,2.57,0,0,0,0-.42.86.86,0,0,0-.15-.32.63.63,0,0,0-.26-.22,1.06,1.06,0,0,0-.42-.07,1,1,0,0,0-.75.35,1.67,1.67,0,0,0-.34,1.14v2.26h-.5V18.84a2.57,2.57,0,0,0,0-.42.92.92,0,0,0-.15-.32.65.65,0,0,0-.26-.22,1.06,1.06,0,0,0-.42-.07,1,1,0,0,0-.75.35,1.67,1.67,0,0,0-.34,1.14v2.26h-.5V18.43c0-.32,0-.63,0-1h.49v.69h0a2,2,0,0,1,.15-.25,1,1,0,0,1,.22-.26,1.39,1.39,0,0,1,.36-.21,1.56,1.56,0,0,1,.54-.08l.31,0a1,1,0,0,1,.32.13.86.86,0,0,1,.28.26,1.14,1.14,0,0,1,.17.45h0a1.44,1.44,0,0,1,.49-.62,1.39,1.39,0,0,1,.82-.25,1.25,1.25,0,0,1,1,.38,1.42,1.42,0,0,1,.33,1v2.81Z"/>
    <path class="a" d="M70.51,19.22a2,2,0,0,0-.23-1,.9.9,0,0,0-.81-.44,1.07,1.07,0,0,0-.87.45,1.56,1.56,0,0,0-.33,1Zm.25,2.2a3.47,3.47,0,0,1-1.18.22A1.67,1.67,0,0,1,68.14,21a2.44,2.44,0,0,1-.42-1.52A2.43,2.43,0,0,1,68.2,18a1.51,1.51,0,0,1,1.24-.59,1.43,1.43,0,0,1,1.25.6,2.55,2.55,0,0,1,.38,1.42v.26H68.27a1.71,1.71,0,0,0,.34,1.1,1.18,1.18,0,0,0,1,.46,2,2,0,0,0,.62-.1,2.11,2.11,0,0,0,.52-.2Z"/>
    <path class="a" d="M71.94,18.43q0-.47,0-1h.49v.73h0a2.52,2.52,0,0,1,.17-.29,1.24,1.24,0,0,1,.24-.26,1.09,1.09,0,0,1,.38-.2,1.76,1.76,0,0,1,.54-.07,1.28,1.28,0,0,1,1.08.45,1.88,1.88,0,0,1,.31,1.12v2.61h-.5V19.07a1.73,1.73,0,0,0-.22-.93.88.88,0,0,0-.75-.34,1,1,0,0,0-.94.48,1.37,1.37,0,0,0-.2.47,2.25,2.25,0,0,0-.06.54v2.26h-.51Z"/>
    <path class="a" d="M78.07,17.91h-.93v2.64a.84.84,0,0,0,.13.47.45.45,0,0,0,.42.2,1,1,0,0,0,.47-.1l0,.42-.25.07a1.61,1.61,0,0,1-.37,0,1,1,0,0,1-.52-.11.76.76,0,0,1-.28-.3,1.52,1.52,0,0,1-.1-.43c0-.16,0-.33,0-.52V17.91h-.8v-.43h.8v-1l.5-.18v1.16h.93Z"/>
    <path class="a" d="M81.38,17.91h-.82v-.43h.82v-.3c0-.22,0-.43,0-.64a1.58,1.58,0,0,1,.12-.54.84.84,0,0,1,.33-.39,1.07,1.07,0,0,1,.6-.14h.26a.55.55,0,0,1,.21.07l0,.43a.93.93,0,0,0-.4-.08.55.55,0,0,0-.38.11.63.63,0,0,0-.18.31,1.46,1.46,0,0,0,0,.39c0,.14,0,.28,0,.42v.35h.92v.43h-.92v3.65h-.5Z"/>
    <path class="a" d="M83.86,19.51a2,2,0,0,0,.35,1.2,1.14,1.14,0,0,0,1,.5,1.18,1.18,0,0,0,1-.5,2,2,0,0,0,.34-1.2,2.09,2.09,0,0,0-.34-1.22,1.2,1.2,0,0,0-1-.49,1.16,1.16,0,0,0-1,.49,2,2,0,0,0-.35,1.22m-.55,0A2.4,2.4,0,0,1,83.78,18a1.7,1.7,0,0,1,1.44-.65,1.72,1.72,0,0,1,1.46.65,2.68,2.68,0,0,1,0,3,1.72,1.72,0,0,1-1.46.66A1.7,1.7,0,0,1,83.78,21a2.41,2.41,0,0,1-.47-1.48"/>
    <path class="a" d="M88,18.39c0-.38,0-.68,0-.91h.5v.78h0a1.77,1.77,0,0,1,.41-.62.9.9,0,0,1,.64-.26,1.68,1.68,0,0,1,.35,0V18a1.35,1.35,0,0,0-.37,0A.86.86,0,0,0,89,18a1.05,1.05,0,0,0-.31.39,2,2,0,0,0-.16.52,3,3,0,0,0-.06.58v2H88Z"/>
    <polygon class="a" points="92.77 15.97 95.51 15.97 95.51 16.45 93.33 16.45 93.33 18.44 95.4 18.44 95.4 18.92 93.33 18.92 93.33 21.07 95.61 21.07 95.61 21.55 92.77 21.55 92.77 15.97"/>
    <path class="a" d="M96.64,18.43c0-.31,0-.63,0-1h.49v.73h0a2.38,2.38,0,0,1,.17-.29,1.19,1.19,0,0,1,.24-.26,1.09,1.09,0,0,1,.38-.2,1.76,1.76,0,0,1,.54-.07,1.28,1.28,0,0,1,1.08.45,1.87,1.87,0,0,1,.31,1.12v2.61h-.5V19.07a1.74,1.74,0,0,0-.22-.93.88.88,0,0,0-.75-.34,1,1,0,0,0-.95.48,1.37,1.37,0,0,0-.2.47,2.25,2.25,0,0,0-.06.54v2.26h-.5Z"/>
    <polygon class="a" points="102.42 21.55 101.83 21.55 100.44 17.47 101 17.47 102.13 21 102.14 21 103.33 17.47 103.85 17.47 102.42 21.55"/>
    <path class="a" d="M104.48,17.47h.5v4.08h-.5Zm.5-1.09h-.5v-.67h.5Z"/>
    <path class="a" d="M106.17,18.39c0-.38,0-.68,0-.91h.5v.78h0a1.77,1.77,0,0,1,.41-.62.9.9,0,0,1,.64-.26,1.68,1.68,0,0,1,.35,0V18a1.35,1.35,0,0,0-.37,0,.86.86,0,0,0-.49.14,1.05,1.05,0,0,0-.31.39,2,2,0,0,0-.16.52,3,3,0,0,0-.06.58v2h-.5Z"/>
    <path class="a" d="M109,19.51a2,2,0,0,0,.35,1.2,1.14,1.14,0,0,0,1,.5,1.19,1.19,0,0,0,1-.5,2,2,0,0,0,.34-1.2,2.09,2.09,0,0,0-.34-1.22,1.2,1.2,0,0,0-1-.49,1.16,1.16,0,0,0-1,.49,2,2,0,0,0-.35,1.22m-.55,0a2.41,2.41,0,0,1,.47-1.49,1.7,1.7,0,0,1,1.44-.65,1.73,1.73,0,0,1,1.46.65,2.69,2.69,0,0,1,0,3,1.72,1.72,0,0,1-1.46.66,1.7,1.7,0,0,1-1.44-.66,2.41,2.41,0,0,1-.47-1.48"/>
    <path class="a" d="M113.13,18.43q0-.47,0-1h.49v.73h0a2.69,2.69,0,0,1,.17-.29,1.21,1.21,0,0,1,.24-.26,1.09,1.09,0,0,1,.38-.2,1.76,1.76,0,0,1,.54-.07,1.28,1.28,0,0,1,1.08.45,1.87,1.87,0,0,1,.31,1.12v2.61h-.51V19.07a1.73,1.73,0,0,0-.22-.93.87.87,0,0,0-.75-.34,1,1,0,0,0-.94.48,1.35,1.35,0,0,0-.2.47,2.25,2.25,0,0,0-.06.54v2.26h-.5Z"/>
    <path class="a" d="M122.42,21.55V18.84a2.7,2.7,0,0,0,0-.42.89.89,0,0,0-.15-.32.64.64,0,0,0-.26-.22,1.06,1.06,0,0,0-.42-.07,1,1,0,0,0-.75.35,1.67,1.67,0,0,0-.34,1.14v2.26H120V18.84a2.7,2.7,0,0,0,0-.42.9.9,0,0,0-.15-.32.65.65,0,0,0-.26-.22,1.06,1.06,0,0,0-.42-.07,1,1,0,0,0-.75.35A1.67,1.67,0,0,0,118,19.3v2.26h-.5V18.43c0-.32,0-.63,0-1h.49v.69h0a2.26,2.26,0,0,1,.15-.25,1,1,0,0,1,.23-.26,1.38,1.38,0,0,1,.36-.21,1.57,1.57,0,0,1,.54-.08l.31,0a1,1,0,0,1,.32.13.86.86,0,0,1,.28.26,1.14,1.14,0,0,1,.17.45h0a1.45,1.45,0,0,1,.49-.62,1.39,1.39,0,0,1,.82-.25,1.25,1.25,0,0,1,1,.38,1.42,1.42,0,0,1,.33,1v2.81Z"/>
    <path class="a" d="M126.57,19.22a2,2,0,0,0-.23-1,.9.9,0,0,0-.81-.44,1.07,1.07,0,0,0-.87.45,1.56,1.56,0,0,0-.33,1Zm.25,2.2a3.47,3.47,0,0,1-1.18.22A1.68,1.68,0,0,1,124.2,21a2.45,2.45,0,0,1-.42-1.52,2.44,2.44,0,0,1,.48-1.54,1.52,1.52,0,0,1,1.24-.59,1.43,1.43,0,0,1,1.25.6,2.55,2.55,0,0,1,.38,1.42v.26h-2.79a1.7,1.7,0,0,0,.34,1.1,1.18,1.18,0,0,0,1,.46,2,2,0,0,0,.62-.1,2.13,2.13,0,0,0,.52-.2Z"/>
    <path class="a" d="M128,18.43q0-.47,0-1h.49v.73h0a2.68,2.68,0,0,1,.17-.29,1.21,1.21,0,0,1,.24-.26,1.09,1.09,0,0,1,.38-.2,1.76,1.76,0,0,1,.54-.07,1.28,1.28,0,0,1,1.08.45,1.87,1.87,0,0,1,.31,1.12v2.61h-.5V19.07a1.73,1.73,0,0,0-.22-.93.87.87,0,0,0-.75-.34,1,1,0,0,0-.94.48,1.35,1.35,0,0,0-.2.47,2.25,2.25,0,0,0-.06.54v2.26H128Z"/>
    <path class="a" d="M134.13,17.91h-.93v2.64a.83.83,0,0,0,.13.47.45.45,0,0,0,.42.2,1,1,0,0,0,.46-.1l0,.42-.25.07a1.62,1.62,0,0,1-.37,0,1,1,0,0,1-.52-.11.76.76,0,0,1-.28-.3,1.49,1.49,0,0,1-.1-.43,5,5,0,0,1,0-.52V17.91h-.8v-.43h.8v-1l.5-.18v1.16h.93Z"/>
    <path class="a" d="M41.1,28.5H41l-.66,0a2.48,2.48,0,0,0-.62.14,1,1,0,0,0-.45.3.76.76,0,0,0-.18.54.62.62,0,0,0,.26.56,1,1,0,0,0,.59.18,1.2,1.2,0,0,0,.69-.18,1,1,0,0,0,.36-.4,1.31,1.31,0,0,0,.14-.49c0-.17,0-.3,0-.41Zm0,1.4h0a1.22,1.22,0,0,1-.54.55,1.66,1.66,0,0,1-.76.2,1.63,1.63,0,0,1-.69-.14,1,1,0,0,1-.42-.3,1.3,1.3,0,0,1,0-1.52,1.33,1.33,0,0,1,.62-.42,3.31,3.31,0,0,1,.82-.18l.83,0h.1v-.21q0-1-.93-1a2.23,2.23,0,0,0-1.2.34v-.48a2.93,2.93,0,0,1,1.2-.29q1.45,0,1.43,1.52v1.8a6.07,6.07,0,0,0,0,.86h-.5Z"/>
    <path class="a" d="M42.73,27.43q0-.47,0-1h.49v.73h0a2.86,2.86,0,0,1,.17-.29,1.24,1.24,0,0,1,.24-.26,1.09,1.09,0,0,1,.38-.2,1.75,1.75,0,0,1,.53-.07,1.28,1.28,0,0,1,1.08.45,1.87,1.87,0,0,1,.31,1.12v2.61h-.5V28.07a1.73,1.73,0,0,0-.22-.93.87.87,0,0,0-.75-.34,1,1,0,0,0-.94.48,1.37,1.37,0,0,0-.2.47,2.25,2.25,0,0,0-.06.54v2.26h-.51Z"/>
    <path class="a" d="M47.4,28.51a3.08,3.08,0,0,0,.06.58,2.24,2.24,0,0,0,.19.56A1.2,1.2,0,0,0,48,30a1,1,0,0,0,.58.17,1,1,0,0,0,.58-.17,1.16,1.16,0,0,0,.37-.41,2.42,2.42,0,0,0,.26-1.13,3.3,3.3,0,0,0-.06-.59,2,2,0,0,0-.21-.54,1.25,1.25,0,0,0-.37-.42,1.05,1.05,0,0,0-.58-.15A1,1,0,0,0,48,27a1.08,1.08,0,0,0-.37.4,2,2,0,0,0-.19.54,3.28,3.28,0,0,0-.06.61m2.92,2h-.5v-.65h0a1.33,1.33,0,0,1-1.27.74A1.47,1.47,0,0,1,47.28,30a2.58,2.58,0,0,1-.42-1.52A2.62,2.62,0,0,1,47.25,27a1.67,1.67,0,0,1,1.82-.51,1.2,1.2,0,0,1,.38.22,1.11,1.11,0,0,1,.36.47h0V24.55h.5Z"/>
    <polygon class="a" points="58.84 30.55 58.18 30.55 56.77 25.59 56.75 25.59 55.31 30.55 54.65 30.55 53.05 24.97 53.6 24.97 54.99 29.93 55.01 29.93 56.44 24.97 57.1 24.97 58.51 29.93 58.52 29.93 59.93 24.97 60.45 24.97 58.84 30.55"/>
    <path class="a" d="M63.37,28.5h-.15l-.66,0a2.48,2.48,0,0,0-.62.14,1,1,0,0,0-.45.3.76.76,0,0,0-.18.54.62.62,0,0,0,.26.56,1,1,0,0,0,.59.18,1.21,1.21,0,0,0,.7-.18,1,1,0,0,0,.36-.4,1.3,1.3,0,0,0,.14-.49c0-.17,0-.3,0-.41Zm0,1.4h0a1.22,1.22,0,0,1-.54.55,1.66,1.66,0,0,1-1.45.06,1,1,0,0,1-.42-.3,1.25,1.25,0,0,1-.24-.71,1.23,1.23,0,0,1,.25-.81,1.33,1.33,0,0,1,.62-.42,3.28,3.28,0,0,1,.82-.18l.83,0h.1v-.21q0-1-.93-1a2.23,2.23,0,0,0-1.2.34v-.48a2.93,2.93,0,0,1,1.2-.29q1.45,0,1.43,1.52v1.8a6.22,6.22,0,0,0,0,.86h-.5Z"/>
    <path class="a" d="M66.76,26.91h-.93v2.64A.83.83,0,0,0,66,30a.45.45,0,0,0,.42.2,1,1,0,0,0,.46-.1l0,.42-.25.07a1.62,1.62,0,0,1-.37,0,1,1,0,0,1-.52-.11.75.75,0,0,1-.28-.3,1.52,1.52,0,0,1-.1-.43c0-.16,0-.33,0-.52V26.91h-.8v-.43h.8v-1l.5-.18v1.16h.93Z"/>
    <path class="a" d="M70.07,28.22a2,2,0,0,0-.23-1,.9.9,0,0,0-.81-.44,1.07,1.07,0,0,0-.87.45,1.56,1.56,0,0,0-.33,1Zm.25,2.2a3.48,3.48,0,0,1-1.18.22A1.68,1.68,0,0,1,67.7,30,2.83,2.83,0,0,1,67.76,27,1.52,1.52,0,0,1,69,26.38a1.43,1.43,0,0,1,1.25.6,2.56,2.56,0,0,1,.38,1.42v.26H67.83a1.71,1.71,0,0,0,.34,1.1,1.18,1.18,0,0,0,1,.46,2.05,2.05,0,0,0,.63-.1,2.14,2.14,0,0,0,.52-.2Z"/>
    <path class="a" d="M71.5,27.39c0-.38,0-.68,0-.91H72v.78h0a1.77,1.77,0,0,1,.41-.62.9.9,0,0,1,.64-.26,1.68,1.68,0,0,1,.35,0V27a1.35,1.35,0,0,0-.37,0,.86.86,0,0,0-.49.14,1.05,1.05,0,0,0-.31.39,2,2,0,0,0-.16.52,3,3,0,0,0-.06.58v2h-.5Z"/>
  </g>
</svg>
