<?xml version="1.0" encoding="utf-8"?>
<!-- Generator: Adobe Illustrator 20.0.0, SVG Export Plug-In . SVG Version: 6.00 Build 0)  -->
<svg version="1.1" id="Layer_1" xmlns="http://www.w3.org/2000/svg" xmlns:xlink="http://www.w3.org/1999/xlink" x="0px" y="0px"
	 viewBox="0 0 214.5 44.6" style="enable-background:new 0 0 214.5 44.6;" xml:space="preserve">
<style type="text/css">
	.Arched_x0020_Green{fill:url(#SVGID_1_);stroke:#FFFFFF;stroke-width:0.25;stroke-miterlimit:1;}
	.st0{fill:none;}
	.st1{fill:#FFFFFF;}
	.st2{opacity:0.85;fill:#FFFFFF;}
	.st3{fill:#104480;}
	.st4{fill:#888688;}
	.st5{fill:#E40F43;}
	.st6{fill:#F9B006;}
	.st7{fill:#666666;}
	.st8{fill:#E30613;}
	.st9{fill:#EF7900;}
	.st10{fill:#FCBF00;}
	.st11{fill:#B51F1F;}
</style>
<linearGradient id="SVGID_1_" gradientUnits="userSpaceOnUse" x1="249.2197" y1="-0.8081" x2="249.9268" y2="-1.5152">
	<stop  offset="0" style="stop-color:#1DA238"/>
	<stop  offset="0.9831" style="stop-color:#24391D"/>
</linearGradient>
<g>
	<path class="st0" d="M23.4,27.4c0,0.2-0.2,0.4-0.2,0.7c0.1,0.2,0.3,0.3,0.4,0.4h0c0,0,0.1,0.1,0.1,0.1l0.9-0.1l0.4,0
		c-0.2-0.2-0.4-0.4-0.6-0.6c-0.2-0.2-0.5-0.2-0.7-0.3C23.6,27.5,23.5,27.3,23.4,27.4z"/>
	<path class="st0" d="M24.4,29.8c0.1,0.1,0.2,0.3,0.4,0.2c-0.4-0.5-1-1-1.5-1.5h0c0,0,0,0,0,0l-0.1,0l0,0C23.6,29,24,29.4,24.4,29.8
		z"/>
	<path class="st0" d="M24.1,29c0.2,0.1,0.4,0.6,0.8,0.4c0.1-0.1,0.2-0.2,0.1-0.5L24.1,29z"/>
	<path class="st0" d="M23.6,24.6c-0.1-0.1-0.1-0.2-0.1-0.4c-0.2-0.6-0.2-1.1-0.1-1.7c0.1-0.3,0-0.7,0-1c0-0.1-0.1-0.2-0.1-0.3
		c-0.1-0.2-0.2-0.4-0.5-0.4c-0.2,0.1-0.2,0.3-0.2,0.4c-0.1,0.4-0.4,0.8-0.8,0.9c-0.2,0.1-0.5,0-0.7,0.2c0.1,0.4,0,0.8-0.1,1.1
		c-0.1,0.1-0.1,0.3-0.1,0.4c0,0.2-0.1,0.3-0.1,0.5c-0.1,0.2-0.1,0.3-0.2,0.4c0,0.1,0,0.2,0,0.3c0.1,0.1,0.1,0.4,0.2,0.5
		c0.1,0.1,0.1-0.1,0.2,0c0,0.3,0,0.7,0.2,1c0,0.1,0.2,0.3,0.2,0.4c-0.1,0.1-0.1-0.1-0.2,0.1c0.1,0.4,0.3,0.8,0.5,1.2
		c0.1,0.1,0.2,0.3,0.4,0.4c0.2,0,0.4-0.2,0.5-0.4c0,0,0,0,0,0h0.6l-0.6,0c0.3-0.3,0.4-0.7,0.5-1.1c0-0.1-0.1-0.1,0-0.3
		c0.3-0.3,0.4-0.8,0.5-1.3c0-0.3,0.3-0.7,0-1C23.7,24.8,23.7,24.7,23.6,24.6z"/>
	<path class="st0" d="M26.5,18.6l0.3-0.5c0.1-0.1,0.3-0.2,0.2-0.4l-0.1-0.1c-0.2,0.2-0.4,0.4-0.5,0.7C26.4,18.4,26.3,18.5,26.5,18.6
		z"/>
	<path class="st0" d="M22.9,28.6c0,0.2,0.1,0.3,0.2,0.4c0.3,0.6,0.9,1,1.4,1.6c0.1-0.1,0.1-0.2,0.1-0.3c-0.2-0.3-0.5-0.6-0.8-0.9
		C23.6,29.1,23.4,28.9,22.9,28.6z"/>
	<path class="st0" d="M26.5,18.7c0,0.1-0.2,0.2,0,0.5l0.7-0.7c0-0.1,0-0.3-0.1-0.3C26.9,18.3,26.7,18.5,26.5,18.7z"/>
	<path class="st0" d="M22.8,28.9c0.2,0.5,0.6,1,0.9,1.5c0.1,0.1,0.2,0.4,0.5,0.4c0-0.2-0.1-0.4-0.3-0.6
		C23.5,29.7,23.2,29.2,22.8,28.9z"/>
	<path class="st0" d="M21.8,28.9c-0.2,0.4-0.4,0.8-0.6,1.2c0,0.2-0.2,0.4-0.2,0.7c-0.1,0.1,0,0.3,0.3,0.3c0-0.3,0.1-0.5,0.3-0.8
		C21.6,29.8,21.8,29.4,21.8,28.9L21.8,28.9z"/>
	<path class="st0" d="M74.2,27.9c0,0.8,0.5,1,1.2,1c1.7,0,1.7-1.5,1.7-2.1v-0.4h-0.2C75.7,26.5,74.2,26.6,74.2,27.9z"/>
	<path class="st0" d="M22.6,29.1c0.1,0.5,0.4,1,0.6,1.6c0.1,0.2,0,0.4,0.4,0.3c0-0.6-0.5-1-0.7-1.6C22.8,29.2,22.7,28.8,22.6,29.1z"
		/>
	<path class="st0" d="M22.4,29.1c-0.1,0.1,0,0.2-0.1,0.4c0.1,0.5-0.3,1.1,0.2,1.4c0.1,0.1,0.1,0.2,0.3,0.1c0-0.6-0.2-1.2-0.3-1.7
		L22.4,29.1z"/>
	<path class="st0" d="M21.6,30.4c0,0.3-0.2,0.5,0.1,0.7c0.1-0.2,0.3-0.3,0.4-0.5c0-0.5,0-1,0-1.4l-0.1,0
		C21.9,29.6,21.7,29.9,21.6,30.4z"/>
	<path class="st0" d="M63.9,24.1c-1.1,0-1.7,1.1-1.7,2h3.2C65.4,25.1,64.9,24.1,63.9,24.1z"/>
	<path class="st0" d="M56.2,22.1H55v6.6h0.6c2.3,0,3.7-0.9,3.7-3.4C59.4,22.9,57.9,22.1,56.2,22.1z"/>
	<path class="st0" d="M21.6,28.9L21.6,28.9c-0.5,0.5-0.8,1-1.2,1.5c-0.1,0.1-0.1,0.2,0.1,0.3c0.1-0.2,0.2-0.4,0.3-0.5
		C21.2,29.8,21.5,29.4,21.6,28.9z"/>
	<path class="st0" d="M16.5,9.6c0.8-0.4,1.1-1.3,0.5-2.7c-0.6-1.4-1.5-1.8-2.3-1.4c-0.8,0.4-1.1,1.3-0.5,2.7
		C14.8,9.5,15.7,9.9,16.5,9.6z"/>
	<path class="st0" d="M69.9,28.9c1.4,0,1.7-1.3,1.7-2.4c0-1.1-0.4-2.4-1.7-2.4c-1.3,0-1.7,1.4-1.7,2.4
		C68.2,27.6,68.6,28.9,69.9,28.9z"/>
	<path class="st0" d="M64.9,40.9c0,0.8,0.5,1,1.2,1c1.7,0,1.7-1.5,1.7-2.1v-0.4h-0.2C66.4,39.5,64.9,39.6,64.9,40.9z"/>
	<path class="st0" d="M26.7,17.6c0-0.1,0-0.2,0-0.2c-0.2,0-0.2,0.3-0.4,0.4c0-0.3,0.2-0.5,0.2-0.7c0-0.1-0.1-0.2-0.3-0.2
		c-0.1,0.5-0.1,1,0.2,1.6C26.5,18.1,26.5,17.8,26.7,17.6z"/>
	<path class="st0" d="M26.2,21.4c0.1-0.1,0.2-0.2,0.3-0.5C26.3,20.8,26.2,21,26,21c-0.1-0.2,0.2-0.2,0.2-0.3c0-0.1,0.1-0.2,0-0.3
		c-0.2-0.1-0.3,0.1-0.4,0.1c-0.1-0.1,0-0.2,0-0.3l-0.1,0c-0.1,0.3-0.1,0.6-0.3,0.9c-0.2,0.4-0.5,0.8-0.7,1.2c0,0.1,0,0.3,0.1,0.4
		c0.1,0.2,0.3,0.3,0.5,0.2c0.3-0.1-0.1-0.3-0.1-0.4c0.1,0,0.2,0.2,0.3,0.2c0.1,0,0.3,0.2,0.4,0c0-0.2-0.1-0.3-0.2-0.5
		c0.2,0.1,0.4,0.3,0.7,0.2c0-0.3-0.3-0.4-0.4-0.6c0.2,0,0.4,0.1,0.7-0.1C26.8,21.5,26.5,21.4,26.2,21.4z"/>
	<path class="st0" d="M26.5,19.9c0.2,0,0.4,0,0.6-0.4C26.8,19.4,26.6,19.6,26.5,19.9z"/>
	<polygon class="st0" points="7.4,23.8 5.6,23.4 5.8,24.7 	"/>
	<path class="st0" d="M21.8,10.3c-6.6,0.2-11.7,5.8-11.5,12.3c0.2,6.6,5.8,11.7,12.3,11.5c6.6-0.2,11.7-5.8,11.5-12.3
		C33.9,15.2,28.3,10.1,21.8,10.3z M32.3,22.4c-0.2,0.1-0.4,0.1-0.6,0.3c0,0.2,0.2,0.3,0.3,0.4c0.1,0.1,0.1,0.3,0.2,0.4
		c-0.4,0.1-0.7,0.1-0.9,0.1c-0.2,0.2,0.1,0.4,0.1,0.5c0,0.1,0.2,0.2,0,0.3c-0.3,0.1-0.6,0-0.9,0c0,0-0.1,0.1-0.1,0.1
		c-0.2,0.2,0,0.5-0.1,0.7c-0.3,0.1-0.8-0.2-0.9,0.3c0,0.1-0.1,0.2-0.2,0.2c-0.3,0-0.6-0.2-0.8,0c-0.1,0.1-0.1,0.5-0.4,0.4
		c-0.1-0.1-0.3-0.1-0.4-0.1c-0.2,0.1-0.2,0.4-0.3,0.5c-0.2,0-0.3-0.2-0.5-0.2c-0.1,0.1-0.2,0.2-0.3,0.3c-0.2,0-0.3-0.2-0.5-0.1
		c-0.1,0-0.2,0.3-0.4,0.3c-0.1-0.1-0.2-0.2-0.3-0.3c-0.2,0-0.2,0.2-0.4,0.2c-0.5-0.3-0.5-0.8-0.6-1.3c-0.3-0.1-0.3,0-0.3,0
		c0,0.5-0.4,0.9-0.1,1.4c0.3,0.5,0.9,1,1.4,1.5c0.3,0.2,0.7,0,1.1,0.2h0c0.1,0,0.1,0.1,0.2,0.1c0.4,0,0.8,0,1,0.3
		c0,0.1,0,0.3-0.1,0.4c-0.2,0.3-0.6,0.1-0.8,0.3c-0.1,0.1-0.3,0.2-0.4,0.1c-0.1-0.1-0.2-0.2-0.3-0.2c-0.1,0.1-0.3,0.2-0.5,0.2
		c-0.1-0.1-0.2-0.2-0.4-0.2c0,0.3,0.1,0.4,0.2,0.6c0.2,0.2,0.3,0.4,0.3,0.7c-0.2,0.1-0.4,0.2-0.4,0.4c-0.1,0-0.3,0-0.4,0.2
		c-0.1,0.1,0,0.2-0.2,0.3c-0.1,0-0.3,0-0.4,0C24,31.8,24,32,23.8,31.9c-0.1-0.1-0.2-0.1-0.4,0c-0.1,0.1-0.2,0.3-0.3,0.4l-0.5-0.2
		c-0.2,0-0.3,0.4-0.6,0.3C22,32.3,21.9,32,21.7,32l-0.4,0.1c-0.1-0.1-0.2-0.2-0.3-0.2c-0.1,0-0.2,0-0.3,0c-0.2-0.1-0.2-0.3-0.3-0.4
		c-0.1,0-0.4,0.1-0.4-0.1c0-0.3-0.4-0.2-0.5-0.4c0-0.3-0.4-0.2-0.3-0.5c0.1-0.3,0.3-0.6,0.5-0.9c-0.4-0.1-0.5,0.1-0.7,0.1
		c-0.2,0-0.4-0.3-0.5,0c-0.2,0.1-0.4-0.1-0.6-0.1c-0.4,0-0.8,0.1-1-0.3c-0.1-0.2,0-0.3,0.1-0.4c0.3-0.3,0.9,0,1.3-0.3c0,0,0,0,0,0
		c0.4-0.1,0.8,0.1,1.1-0.2c0.4-0.4,0.9-0.7,1.2-1.1c0.1-0.3,0.3-0.6,0.2-0.9l-0.3-1.1c-0.4,0.2-0.2,0.7-0.3,1c0,0.1-0.1,0.3-0.3,0.4
		c-0.2,0-0.3-0.2-0.5-0.1c-0.2,0-0.3,0.3-0.5,0.2c-0.2-0.1-0.3-0.4-0.5-0.3c-0.2,0.1-0.3,0.4-0.5,0.3c-0.1-0.1-0.2-0.3-0.4-0.3
		c-0.2,0-0.2,0.1-0.4,0.1c-0.3-0.1-0.3-0.6-0.7-0.3c-0.1,0-0.2,0.1-0.3,0C16,26,16,25.8,15.8,25.7c-0.2,0-0.4,0.1-0.6,0
		c-0.1-0.2,0-0.4-0.2-0.5c-0.3,0-0.6,0.1-1,0.1c-0.1-0.1,0.1-0.3,0.1-0.4c0-0.1,0.1-0.2,0.1-0.3c0,0,0,0,0-0.1
		c-0.2-0.2-0.4,0-0.6-0.1c-0.1-0.1-0.3,0-0.4-0.2c0-0.3,0.1-0.5,0.2-0.7c-0.1-0.3-0.5-0.1-0.7-0.1c-0.1-0.1-0.3-0.1-0.4-0.2
		c0-0.2,0.3-0.4,0.3-0.6c-0.1-0.2-0.3-0.1-0.4-0.2c-0.1-0.1-0.4-0.1-0.3-0.3c0.1-0.3,0.4-0.5,0.6-0.7c-0.1-0.3-0.4-0.4-0.6-0.6
		c0.2-0.4,0.4-0.5,0.7-0.7c0.1-0.1,0-0.2-0.1-0.3c-0.2-0.2-0.4-0.4-0.6-0.6c0.2-0.2,0.5-0.3,0.8-0.4c-0.1-0.4-0.3-0.6-0.4-0.8
		c0.4-0.2,0.8,0,1.2-0.2c-0.2-0.4-0.4-0.6-0.6-0.9c0-0.1,0.2,0,0.3-0.1c0.3,0,0.6,0.1,1,0.1c-0.3-0.4-0.6-0.7-0.6-1.2
		c0.7,0.1,1.2,0.5,1.7,0.8c-0.1-0.6-0.8-1-0.8-1.6c0.8,0.3,1.4,0.7,1.9,1.2C16,15.5,16,15,15.7,14.6c-0.1-0.2-0.1-0.5-0.1-0.8
		c0.2,0,0.2,0.2,0.4,0.2c0.3,0.4,0.6,0.7,0.9,1.2c0.3,0,0.2-0.2,0.2-0.4c-0.1-0.2-0.1-0.5-0.2-0.7c-0.1-0.4-0.1-0.7,0-1
		c0.4,0.1,0.4,0.4,0.6,0.6c0.1,0.3,0.2,0.7,0.3,1.1c0.1,0.1,0,0.3,0.1,0.4c0.3,0,0.1-0.3,0.1-0.5c0-0.4,0.1-0.9,0-1.3
		c-0.1-0.4,0.1-0.8,0.4-1.1l0.1,0c0.1,0.3,0.1,0.7,0.1,1c0.1,0.2,0,0.4,0.1,0.6c0.2,0,0.2-0.3,0.5-0.3c0.1,0.2,0,0.4,0.1,0.6
		c0,0.2,0,0.5,0,0.8c0,0.2,0,0.4,0,0.6c-0.1,0.6-0.2,1.2-0.3,1.9c-0.3,0.7-0.1,1.6,0.1,2.3c0.3,0.4,0.4,0.9,0.5,1.4
		c0.2,0.4,0.6,0.6,0.7,1.1c0.1,0.1,0.2,0.1,0.3,0.1c0.3-0.3,0.5,0.4,0.8,0.1c0.2-0.2,0.3-0.4,0.3-0.7c-0.1-0.2-0.1-0.4-0.3-0.5
		c-0.3-0.2-0.6-0.3-0.8-0.6c0.1-0.1,0.2,0,0.3,0c0.2,0,0.4,0.1,0.6,0.1c-0.2-0.4-0.5-0.6-0.8-0.7c0.1-0.1,0.3-0.1,0.4-0.1
		c0.8,0.2,1.5,0.5,2.1,1c0.3,0.4,0.6,0.8,0.6,1.3c0.1,0.4,0.6,0.1,0.8,0.2c0.5-0.6,1-1.1,1-1.8c0.1-0.7,0.3-1.4,0.5-2
		c-0.1-1.7-0.3-3.3-0.2-5c0.1-0.1,0.2,0.2,0.3,0.2c0.2-0.5,0.1-1,0.4-1.2c0.3,0.1,0.3,0.4,0.4,0.7c0,0.5,0,0.9,0,1.4
		c0.3-0.5,0.4-1.1,0.9-1.4c0.1,0.5,0,0.8,0,1.2c0,0.2-0.2,0.4-0.3,0.7c-0.1,0.2-0.1,0.4,0,0.6c0.1,0.1,0.2-0.1,0.2-0.2
		c0.3-0.5,0.7-1.1,1.2-1.5c0.3,0,0.2,0.2,0.2,0.3c0,0.2-0.2,0.4-0.2,0.7c-0.3,0.3-0.5,0.6-0.6,1c-0.1,0.1-0.2,0.2-0.1,0.4
		c0.2-0.1,0.3-0.2,0.4-0.4c0.4-0.6,1-0.9,1.6-1.1c0.1,0.4-0.3,0.6-0.3,1c-0.2,0.4-0.5,0.7-0.8,0.9c-0.1,0.1-0.2,0.2-0.2,0.3
		c0.1,0.1,0.2,0,0.3-0.1c0.6-0.4,1.2-0.8,1.9-0.9c0.2,0.3,0,0.4-0.2,0.6c-0.3,0.2-0.6,0.4-0.8,0.7c0.2,0.2,0.4,0,0.6,0
		c0.3-0.2,0.7-0.2,1.1-0.2c-0.2,0.4-0.5,0.6-0.6,0.9c0.1,0.2,0.3,0,0.5,0c0.2,0,0.5,0,0.7,0.3c-0.2,0.3-0.5,0.4-0.7,0.6
		c0.2,0.3,0.5,0.2,0.7,0.3c0.1,0.1,0.2,0.1,0.3,0.2c-0.2,0.3-0.6,0.4-0.7,0.7c0.1,0.2,0.4,0.2,0.6,0.3c0.2,0.1,0.4,0.2,0.5,0.4
		c-0.3,0.2-0.5,0.3-0.8,0.5c-0.1,0.1-0.1,0.2,0,0.2c0.2,0.2,0.4,0.3,0.5,0.5C32.6,22.3,32.4,22.3,32.3,22.4z"/>
	<path class="st0" d="M26.5,19.3c0,0.1-0.1,0.2,0,0.2c0.2,0,0.4-0.1,0.6-0.2c0.1-0.1,0.2-0.2,0.1-0.3l-0.1-0.1
		C26.9,18.9,26.7,19.1,26.5,19.3z"/>
	<path class="st0" d="M21.5,20c-0.2-0.1-0.3-0.3-0.5-0.1c0.2,0.2,0.6,0.4,0.4,0.7c-0.1,0-0.2,0-0.3,0c-0.1,0-0.3-0.1-0.4,0
		c0.2,0.1,0.5,0.4,0.8,0.2C21.7,20.5,21.6,20.3,21.5,20z"/>
	<path class="st0" d="M64.6,10.3c1.1,0,1.4-1,1.4-2c0-0.9-0.5-1.7-1.4-1.7c-1,0-1.4,0.8-1.4,1.7C63.2,9.3,63.5,10.3,64.6,10.3z"/>
	<path class="st0" d="M21,29.4c0.1-0.2,0.3-0.4,0.4-0.6l-0.1,0c-0.4,0.4-0.8,0.7-1.2,1.1c-0.1,0.2-0.4,0.3-0.3,0.6
		c0.2,0,0.2-0.2,0.3-0.3C20.5,29.8,20.8,29.6,21,29.4z"/>
	<path class="st0" d="M199.4,10.4c0.5,0,0.8-0.2,1-0.5c0.2-0.3,0.3-0.7,0.3-1.2h-0.6c-0.7,0-1.6,0.1-1.6,1
		C198.5,10.2,198.9,10.4,199.4,10.4z"/>
	<path class="st0" d="M24.3,37.2c-0.1-0.8-0.5-1-1.1-1l-0.4,0l0.2,2.2l0.3,0C24,38.3,24.4,38,24.3,37.2z"/>
	<polygon class="st0" points="28.8,37.6 30,37 28.6,35.8 	"/>
	<path class="st0" d="M104.2,6.6c-0.8,0-1.2,0.6-1.3,1.3h2.5C105.4,7.2,105,6.6,104.2,6.6z"/>
	<path class="st0" d="M144.6,10.3c1.1,0,1.4-1,1.4-2c0-0.9-0.5-1.7-1.4-1.7c-1,0-1.4,0.8-1.4,1.7C143.2,9.3,143.5,10.3,144.6,10.3z"
		/>
	<path class="st0" d="M211.6,10.4c0.5,0,0.8-0.2,1-0.5c0.2-0.3,0.3-0.7,0.3-1.2h-0.6c-0.7,0-1.6,0.1-1.6,1
		C210.6,10.2,211.1,10.4,211.6,10.4z"/>
	<polygon class="st0" points="172.6,5.2 172.6,5.2 171.5,8.4 173.7,8.4 	"/>
	<path class="st0" d="M18.7,16.8c0-0.2,0-0.3,0-0.4l-0.1-0.1c-0.2,0-0.3,0.3-0.4,0.5c0.1,0.3,0.2,0.6,0.3,1
		C18.7,17.5,18.7,17.1,18.7,16.8z"/>
	<path class="st0" d="M124.5,10.3c1.1,0,1.4-1,1.4-2c0-0.9-0.5-1.7-1.4-1.7c-1,0-1.4,0.8-1.4,1.7C123.1,9.3,123.4,10.3,124.5,10.3z"
		/>
	<polygon class="st0" points="38.7,25.1 38.8,23.8 37.1,24.3 	"/>
	<path class="st0" d="M76.1,37.1c-1.1,0-1.7,1.1-1.7,2h3.2C77.6,38.1,77.2,37.1,76.1,37.1z"/>
	<path class="st0" d="M22.2,20.5L22,20.4c-0.1,0-0.1,0.1-0.1,0.3C22,20.7,22,20.8,22.2,20.5z"/>
	<path class="st0" d="M20.7,28.6c0.1,0,0.1-0.1,0.2-0.1c0.1-0.1,0.2-0.2,0.4-0.3c0.1-0.1,0.1-0.2,0.1-0.3c-0.1-0.1-0.1-0.4-0.3-0.4
		c-0.5,0.4-1.1,0.4-1.5,1c0,0,0,0.1-0.1,0.1C19.8,28.7,20.3,28.6,20.7,28.6z"/>
	<path class="st0" d="M20,29.8c0.3-0.4,0.7-0.6,1-1c0.1-0.1,0.2-0.2,0.2-0.3l-0.1,0c-0.5,0.3-0.9,0.7-1.4,1.1
		c-0.1,0.1-0.2,0.2,0,0.4C19.9,30,20,29.9,20,29.8z"/>
	<path class="st0" d="M25.9,29.3c0.1-0.1,0.2-0.2,0.2-0.3c-0.1-0.2-0.4-0.1-0.8,0.1c0,0.1,0,0.2,0.1,0.3
		C25.6,29.4,25.8,29.3,25.9,29.3z"/>
	<path class="st0" d="M20.3,28.9c-0.1-0.1-0.4-0.1-0.5,0c-0.1,0.1-0.3,0.2-0.2,0.5C19.9,29.5,20,29.1,20.3,28.9z"/>
	<path class="st0" d="M19.1,20.9c-0.1-0.3,0-0.6-0.2-0.8c-0.1,0.1,0,0.3,0,0.4c-0.1,0-0.1-0.1-0.4-0.2c-0.1,0.1,0,0.3,0.1,0.4
		c0,0.1,0.2,0.2,0,0.3c-0.2,0-0.3-0.2-0.4-0.2c-0.1,0-0.2,0-0.3,0.1c0,0.2,0.1,0.3,0.4,0.5c-0.1,0.1-0.3,0.1-0.4,0.2
		c-0.1,0.1-0.2,0.1-0.2,0.3c0.2,0.2,0.4,0,0.6,0c-0.1,0.1-0.2,0.2-0.2,0.4c-0.1,0.1,0,0.2,0.1,0.2c0.2,0.1,0.4-0.2,0.6-0.2
		c-0.1,0.2-0.2,0.3,0,0.6c0.2,0,0.3-0.2,0.4-0.1c0,0.1,0,0.2,0.1,0.3c0.2,0,0.4-0.2,0.5-0.3c0.1-0.3-0.1-0.6-0.2-0.9
		C19.5,21.4,19.2,21.2,19.1,20.9z"/>
	<path class="st0" d="M18.2,19.9c-0.1-0.4-0.1-1,0.1-1.4c0.1-0.3-0.2-0.5-0.3-0.7l-0.2-0.2c-0.3,0.2,0.1,0.5,0.1,0.7
		c-0.1,0-0.1-0.2-0.2-0.2c-0.1,0-0.1,0.2-0.1,0.3c0.1,0.2,0.3,0.3,0.5,0.5c-0.1,0-0.3-0.1-0.5,0l0.5,0.5c-0.1,0.1-0.2-0.1-0.5,0
		c0,0.1,0,0.2,0,0.3C17.7,20,17.9,20.1,18.2,19.9z"/>
	<path class="st0" d="M27.3,29.2c0-0.1,0-0.2,0-0.3c-0.2-0.1-0.4-0.1-0.6-0.1c-0.2,0-0.4,0.2-0.4,0.5C26.6,29.4,27,29.5,27.3,29.2z"
		/>
	<path class="st0" d="M18.2,17.3c-0.1-0.1,0-0.3-0.2-0.3c-0.1,0.1-0.1,0.2-0.2,0.3c0.1,0.2,0.2,0.5,0.5,0.8
		C18.4,17.9,18.3,17.7,18.2,17.3z"/>
	<path class="st0" d="M17,29.1c0,0.1,0,0.2,0.1,0.2c0.3,0.1,0.7,0.1,1-0.1c0.1-0.1,0.1-0.2,0.1-0.3L18,28.9
		C17.7,28.9,17.2,28.7,17,29.1z"/>
	<path class="st0" d="M18.6,28.9c-0.2,0-0.2,0.2-0.3,0.4c0.2,0.2,0.4,0.1,0.6,0.1c0.1-0.1,0.2-0.2,0.1-0.4
		C18.9,28.8,18.7,28.9,18.6,28.9z"/>
	<path class="st0" d="M77.2,6.6c-0.8,0-1.2,0.6-1.3,1.3h2.5C78.3,7.2,78,6.6,77.2,6.6z"/>
	<path class="st0" d="M165.6,37.1c-1.3,0-1.9,1.1-1.9,2.4c0,1.3,0.7,2.4,1.9,2.4s1.9-1.1,1.9-2.4C167.6,38.2,166.9,37.1,165.6,37.1z
		"/>
	<path class="st0" d="M116.2,40.9c0,0.8,0.5,1,1.2,1c1.7,0,1.7-1.5,1.7-2.1v-0.4h-0.2C117.7,39.5,116.2,39.6,116.2,40.9z"/>
	<path class="st0" d="M176.6,24.1c-1.1,0-1.7,1.1-1.7,2h3.2C178.1,25.1,177.7,24.1,176.6,24.1z"/>
	<path class="st0" d="M100.9,37.1c-1.4,0-1.7,1.3-1.7,2.4c0,1.1,0.4,2.4,1.7,2.4c1.3,0,1.7-1.4,1.7-2.4
		C102.6,38.4,102.2,37.1,100.9,37.1z"/>
	<path class="st0" d="M187,37.1c-1.1,0-1.7,1.1-1.7,2h3.2C188.4,38.1,188,37.1,187,37.1z"/>
	<path class="st0" d="M155.3,37.1c-1.1,0-1.7,1.1-1.7,2h3.2C156.8,38.1,156.4,37.1,155.3,37.1z"/>
	<path class="st0" d="M98.7,24.1c-1.1,0-1.7,1.1-1.7,2h3.2C100.2,25.1,99.8,24.1,98.7,24.1z"/>
	<path class="st0" d="M135.8,40.9c0,0.8,0.5,1,1.2,1c1.7,0,1.7-1.5,1.7-2.1v-0.4h-0.2C137.3,39.5,135.8,39.6,135.8,40.9z"/>
	<path class="st0" d="M150.6,36.5c0-1.3-0.9-1.4-2-1.4h-0.8V38h0.8C149.5,38,150.6,37.6,150.6,36.5z"/>
	<path class="st0" d="M154.6,28.9c1.3,0,1.9-1.1,1.9-2.4c0-1.3-0.7-2.4-1.9-2.4c-1.3,0-1.9,1.1-1.9,2.4
		C152.7,27.8,153.4,28.9,154.6,28.9z"/>
	<path class="st0" d="M117.9,24.1c-1.3,0-1.9,1.1-1.9,2.4c0,1.3,0.7,2.4,1.9,2.4s1.9-1.1,1.9-2.4C119.8,25.2,119.2,24.1,117.9,24.1z
		"/>
	<path class="st0" d="M87.1,40.9c0,0.8,0.5,1,1.2,1c1.7,0,1.7-1.5,1.7-2.1v-0.4h-0.2C88.5,39.5,87.1,39.6,87.1,40.9z"/>
	<path class="st3" d="M60.2,25.4c0-2.3-1.1-4-4-4h-2v8h1.4C58.2,29.4,60.2,28.3,60.2,25.4z M55.7,28.7H55v-6.6h1.2
		c1.8,0,3.2,0.8,3.2,3.2C59.4,27.8,57.9,28.7,55.7,28.7z"/>
	<path class="st3" d="M65.7,28.5c-0.3,0.2-1.1,0.4-1.6,0.4c-1.3,0-1.9-1-1.9-2.2h4v-0.4c0-1.6-0.7-2.9-2.3-2.9c-1.5,0-2.5,1.3-2.5,3
		c0,1.7,0.7,3,2.6,3c0.5,0,1.2-0.1,1.7-0.3V28.5z M63.9,24.1c1.1,0,1.5,1,1.5,2h-3.2C62.2,25.1,62.8,24.1,63.9,24.1z"/>
	<path class="st3" d="M67.4,23.6v8.2h0.7v-3.4h0c0.4,0.8,0.9,1.1,1.8,1.1c1.6,0,2.4-1.3,2.4-3c0-1.8-0.7-3-2.4-3
		c-1.2,0-1.7,0.9-1.9,1.2h0l0-1.1H67.4z M69.9,24.1c1.4,0,1.7,1.3,1.7,2.4c0,1.1-0.4,2.4-1.7,2.4c-1.3,0-1.7-1.4-1.7-2.4
		C68.2,25.4,68.6,24.1,69.9,24.1z"/>
	<path class="st3" d="M77,25.9c-1.5,0-3.6,0.1-3.6,2c0,0.5,0.3,1.6,1.9,1.6c0.7,0,1.5-0.4,1.8-1.1h0v0.9h0.7
		c-0.1-0.4-0.1-0.8-0.1-1.2v-2.6c0-1.5-0.6-2.2-2-2.2c-0.5,0-1.3,0.2-1.7,0.4v0.7c0.5-0.3,1.1-0.5,1.7-0.5c1,0,1.3,0.5,1.3,1.5v0.3
		H77z M77.1,26.8c0,0.6,0,2.1-1.7,2.1c-0.7,0-1.2-0.3-1.2-1c0-1.3,1.5-1.4,2.7-1.4h0.2V26.8z"/>
	<path class="st3" d="M80.3,29.4v-2.9c0-1,0.3-2.3,1.4-2.3c0.2,0,0.4,0,0.5,0.1v-0.8c-0.1,0-0.3-0.1-0.5-0.1c-0.7,0-1.2,0.6-1.5,1.3
		h0v-1.1h-0.7c0,0.4,0,0.7,0,1.3v4.5H80.3z"/>
	<path class="st3" d="M85.3,28.9c-0.6,0-0.8-0.4-0.8-1v-3.8h1.3v-0.6h-1.3v-1.7l-0.7,0.3v1.4h-1.1v0.6h1.1v3.4c0,1.1,0,1.9,1.3,1.9
		c0.4,0,0.7-0.1,0.9-0.2l0-0.6C85.8,28.9,85.6,28.9,85.3,28.9z"/>
	<path class="st3" d="M94.2,25.5v3.9h0.7v-4c0-1.1-0.7-1.9-1.8-1.9c-0.9,0-1.6,0.5-1.9,1.2h0c-0.2-1-1-1.2-1.5-1.2
		c-1.2,0-1.6,0.7-1.8,1.1l0,0v-1h-0.7c0,0.5,0,0.9,0,1.4v4.4h0.7v-3.2c0-1.4,0.8-2.1,1.6-2.1c0.9,0,1.2,0.6,1.2,1.5v3.9h0.7v-3.2
		c0-1.4,0.8-2.1,1.6-2.1C93.9,24.1,94.2,24.7,94.2,25.5z"/>
	<path class="st3" d="M100.5,29.2v-0.7c-0.3,0.2-1.1,0.4-1.6,0.4c-1.3,0-1.9-1-1.9-2.2h4v-0.4c0-1.6-0.7-2.9-2.3-2.9
		c-1.5,0-2.5,1.3-2.5,3c0,1.7,0.7,3,2.6,3C99.4,29.5,100,29.4,100.5,29.2z M98.7,24.1c1.1,0,1.5,1,1.5,2H97
		C97,25.1,97.6,24.1,98.7,24.1z"/>
	<path class="st3" d="M104.9,23.5c-1.2,0-1.6,0.7-1.9,1.2h0v-1h-0.7c0,0.5,0,0.9,0,1.4v4.4h0.7v-3.2c0-1,0.4-2.1,1.7-2.1
		c1,0,1.4,0.7,1.4,1.8v3.5h0.7v-3.7C106.9,24.4,106.3,23.5,104.9,23.5z"/>
	<path class="st3" d="M109.1,22.2v1.4H108v0.6h1.1v3.4c0,1.1,0,1.9,1.3,1.9c0.4,0,0.7-0.1,0.9-0.2l0-0.6c-0.2,0.1-0.4,0.1-0.7,0.1
		c-0.6,0-0.8-0.4-0.8-1v-3.8h1.3v-0.6h-1.3v-1.7L109.1,22.2z"/>
	<path class="st3" d="M117.9,23.5c-1.9,0-2.7,1.5-2.7,3c0,1.6,0.8,3,2.7,3c1.9,0,2.7-1.5,2.7-3C120.6,24.9,119.8,23.5,117.9,23.5z
		 M117.9,28.9c-1.3,0-1.9-1.1-1.9-2.4c0-1.3,0.7-2.4,1.9-2.4s1.9,1.1,1.9,2.4C119.8,27.8,119.2,28.9,117.9,28.9z"/>
	<path class="st3" d="M122.5,23.2v0.4h-1.2v0.6h1.2v5.2h0.7v-5.2h1.3v-0.6h-1.3v-0.5c0-0.7-0.1-1.8,0.9-1.8c0.2,0,0.4,0,0.6,0.1
		l0-0.6c-0.1-0.1-0.4-0.1-0.7-0.1C122.5,20.7,122.5,22,122.5,23.2z"/>
	<polygon class="st3" points="132.9,22.1 132.9,21.4 129,21.4 129,29.4 133.1,29.4 133.1,28.7 129.8,28.7 129.8,25.7 132.8,25.7 
		132.8,25 129.8,25 129.8,22.1 	"/>
	<path class="st3" d="M135.4,29.4v-3.2c0-1,0.4-2.1,1.7-2.1c1,0,1.4,0.7,1.4,1.8v3.5h0.7v-3.7c0-1.3-0.5-2.2-2-2.2
		c-1.2,0-1.6,0.7-1.9,1.2h0v-1h-0.7c0,0.5,0,0.9,0,1.4v4.4H135.4z"/>
	<polygon class="st3" points="142.6,28.6 142.6,28.6 141,23.6 140.2,23.6 142.2,29.4 143,29.4 145,23.6 144.3,23.6 	"/>
	<rect x="146" y="21.1" class="st3" width="0.7" height="1"/>
	<rect x="146" y="23.6" class="st3" width="0.7" height="5.8"/>
	<path class="st3" d="M148.5,23.6c0,0.4,0,0.7,0,1.3v4.5h0.7v-2.9c0-1,0.3-2.3,1.4-2.3c0.2,0,0.4,0,0.5,0.1v-0.8
		c-0.1,0-0.3-0.1-0.5-0.1c-0.7,0-1.2,0.6-1.5,1.3h0v-1.1H148.5z"/>
	<path class="st3" d="M154.6,29.5c1.9,0,2.7-1.5,2.7-3c0-1.6-0.8-3-2.7-3c-1.9,0-2.7,1.5-2.7,3C151.9,28.1,152.7,29.5,154.6,29.5z
		 M154.6,24.1c1.3,0,1.9,1.1,1.9,2.4c0,1.3-0.7,2.4-1.9,2.4c-1.3,0-1.9-1.1-1.9-2.4C152.7,25.2,153.4,24.1,154.6,24.1z"/>
	<path class="st3" d="M163.2,29.4v-3.7c0-1.3-0.5-2.2-2-2.2c-1.2,0-1.6,0.7-1.9,1.2h0v-1h-0.7c0,0.5,0,0.9,0,1.4v4.4h0.7v-3.2
		c0-1,0.4-2.1,1.7-2.1c1,0,1.4,0.7,1.4,1.8v3.5H163.2z"/>
	<path class="st3" d="M170.8,24.1c0.9,0,1.2,0.6,1.2,1.5v3.9h0.7v-4c0-1.1-0.7-1.9-1.8-1.9c-0.9,0-1.6,0.5-1.9,1.2h0
		c-0.2-1-1-1.2-1.5-1.2c-1.2,0-1.6,0.7-1.8,1.1l0,0v-1H165c0,0.5,0,0.9,0,1.4v4.4h0.7v-3.2c0-1.4,0.8-2.1,1.6-2.1
		c0.9,0,1.2,0.6,1.2,1.5v3.9h0.7v-3.2C169.3,24.7,170,24.1,170.8,24.1z"/>
	<path class="st3" d="M176.5,23.5c-1.5,0-2.5,1.3-2.5,3c0,1.7,0.7,3,2.6,3c0.5,0,1.2-0.1,1.7-0.3v-0.7c-0.3,0.2-1.1,0.4-1.6,0.4
		c-1.3,0-1.9-1-1.9-2.2h4v-0.4C178.9,24.8,178.2,23.5,176.5,23.5z M174.9,26.1c0-1,0.6-2,1.7-2c1.1,0,1.5,1,1.5,2H174.9z"/>
	<path class="st3" d="M184.8,29.4v-3.7c0-1.3-0.5-2.2-2-2.2c-1.2,0-1.6,0.7-1.9,1.2h0v-1h-0.7c0,0.5,0,0.9,0,1.4v4.4h0.7v-3.2
		c0-1,0.4-2.1,1.7-2.1c1,0,1.4,0.7,1.4,1.8v3.5H184.8z"/>
	<path class="st3" d="M188.5,28.9c-0.6,0-0.8-0.4-0.8-1v-3.8h1.3v-0.6h-1.3v-1.7l-0.7,0.3v1.4h-1.1v0.6h1.1v3.4c0,1.1,0,1.9,1.3,1.9
		c0.4,0,0.7-0.1,0.9-0.2l0-0.6C189,28.9,188.8,28.9,188.5,28.9z"/>
	<polygon class="st3" points="191.7,28.4 190.7,28.4 190.1,30.9 190.8,30.9 	"/>
	<polygon class="st3" points="61.2,41.5 61.2,41.5 59.2,34.4 58.2,34.4 56.2,41.5 56.2,41.5 54.2,34.4 53.4,34.4 55.7,42.4 
		56.6,42.4 58.7,35.3 58.7,35.3 60.7,42.4 61.7,42.4 64,34.4 63.2,34.4 	"/>
	<path class="st3" d="M68.5,38.6c0-1.5-0.6-2.2-2-2.2c-0.5,0-1.3,0.2-1.7,0.4v0.7c0.5-0.3,1.1-0.5,1.7-0.5c1,0,1.3,0.5,1.3,1.5v0.3
		h-0.1c-1.5,0-3.6,0.1-3.6,2c0,0.5,0.3,1.6,1.9,1.6c0.7,0,1.5-0.4,1.8-1.1h0v0.9h0.7c-0.1-0.4-0.1-0.8-0.1-1.2V38.6z M67.8,39.8
		c0,0.6,0,2.1-1.7,2.1c-0.7,0-1.2-0.3-1.2-1c0-1.3,1.5-1.4,2.7-1.4h0.2V39.8z"/>
	<path class="st3" d="M72.2,41.9c-0.6,0-0.8-0.4-0.8-1v-3.8h1.3v-0.6h-1.3v-1.7l-0.7,0.3v1.4h-1.1v0.6h1.1v3.4c0,1.1,0,1.9,1.3,1.9
		c0.4,0,0.7-0.1,0.9-0.2l0-0.6C72.7,41.9,72.5,41.9,72.2,41.9z"/>
	<path class="st3" d="M76.1,36.5c-1.5,0-2.5,1.3-2.5,3c0,1.7,0.7,3,2.6,3c0.5,0,1.2-0.1,1.7-0.3v-0.7c-0.3,0.2-1.1,0.4-1.6,0.4
		c-1.3,0-1.9-1-1.9-2.2h4v-0.4C78.4,37.8,77.7,36.5,76.1,36.5z M74.4,39.1c0-1,0.6-2,1.7-2c1.1,0,1.5,1,1.5,2H74.4z"/>
	<path class="st3" d="M80.4,37.7L80.4,37.7l0-1.1h-0.7c0,0.4,0,0.7,0,1.3v4.5h0.7v-2.9c0-1,0.3-2.3,1.4-2.3c0.2,0,0.4,0,0.5,0.1
		v-0.8c-0.1,0-0.3-0.1-0.5-0.1C81.2,36.5,80.7,37.1,80.4,37.7z"/>
	<path class="st3" d="M90.7,38.6c0-1.5-0.6-2.2-2-2.2c-0.5,0-1.3,0.2-1.7,0.4v0.7c0.5-0.3,1.1-0.5,1.7-0.5c1,0,1.3,0.5,1.3,1.5v0.3
		h-0.1c-1.5,0-3.6,0.1-3.6,2c0,0.5,0.3,1.6,1.9,1.6c0.7,0,1.5-0.4,1.8-1.1h0v0.9h0.7c-0.1-0.4-0.1-0.8-0.1-1.2V38.6z M90,39.8
		c0,0.6,0,2.1-1.7,2.1c-0.7,0-1.2-0.3-1.2-1c0-1.3,1.5-1.4,2.7-1.4H90V39.8z"/>
	<path class="st3" d="M95,36.5c-1.2,0-1.6,0.7-1.9,1.2h0v-1h-0.7c0,0.5,0,0.9,0,1.4v4.4h0.7v-3.2c0-1,0.4-2.1,1.7-2.1
		c1,0,1.4,0.7,1.4,1.8v3.5h0.7v-3.7C96.9,37.4,96.4,36.5,95,36.5z"/>
	<path class="st3" d="M102.6,37.6L102.6,37.6c-0.1-0.3-0.7-1.1-1.8-1.1c-1.7,0-2.4,1.3-2.4,3c0,1.7,0.8,3,2.4,3
		c0.8,0,1.4-0.3,1.8-1.1h0v0.9h0.7v-8.5h-0.7V37.6z M100.9,41.9c-1.4,0-1.7-1.3-1.7-2.4c0-1.1,0.4-2.4,1.7-2.4
		c1.3,0,1.7,1.4,1.7,2.4C102.6,40.6,102.2,41.9,100.9,41.9z"/>
	<polygon class="st3" points="113.3,41.4 113.3,41.4 109.2,34.4 108.2,34.4 108.2,42.4 109,42.4 109,35.5 109,35.5 113,42.4 
		114.1,42.4 114.1,34.4 113.3,34.4 	"/>
	<path class="st3" d="M119.9,38.6c0-1.5-0.6-2.2-2-2.2c-0.5,0-1.3,0.2-1.7,0.4v0.7c0.5-0.3,1.1-0.5,1.7-0.5c1,0,1.3,0.5,1.3,1.5v0.3
		H119c-1.5,0-3.6,0.1-3.6,2c0,0.5,0.3,1.6,1.9,1.6c0.7,0,1.5-0.4,1.8-1.1h0v0.9h0.7c-0.1-0.4-0.1-0.8-0.1-1.2V38.6z M119.1,39.8
		c0,0.6,0,2.1-1.7,2.1c-0.7,0-1.2-0.3-1.2-1c0-1.3,1.5-1.4,2.7-1.4h0.2V39.8z"/>
	<path class="st3" d="M123.5,41.9c-0.6,0-0.8-0.4-0.8-1v-3.8h1.3v-0.6h-1.3v-1.7l-0.7,0.3v1.4h-1.1v0.6h1.1v3.4c0,1.1,0,1.9,1.3,1.9
		c0.4,0,0.7-0.1,0.9-0.2l0-0.6C124,41.9,123.8,41.9,123.5,41.9z"/>
	<path class="st3" d="M129.9,36.6h-0.7v3.2c0,1-0.4,2.1-1.7,2.1c-1,0-1.4-0.7-1.4-1.8v-3.5h-0.7v3.7c0,1.3,0.5,2.2,2,2.2
		c1.2,0,1.6-0.6,1.9-1.2h0v1h0.7c0-0.5,0-0.9,0-1.4V36.6z"/>
	<path class="st3" d="M132.4,37.7L132.4,37.7l0-1.1h-0.7c0,0.4,0,0.7,0,1.3v4.5h0.7v-2.9c0-1,0.3-2.3,1.4-2.3c0.2,0,0.4,0,0.5,0.1
		v-0.8c-0.1,0-0.3-0.1-0.5-0.1C133.1,36.5,132.7,37.1,132.4,37.7z"/>
	<path class="st3" d="M139.5,38.6c0-1.5-0.6-2.2-2-2.2c-0.5,0-1.3,0.2-1.7,0.4v0.7c0.5-0.3,1.1-0.5,1.7-0.5c1,0,1.3,0.5,1.3,1.5v0.3
		h-0.1c-1.5,0-3.6,0.1-3.6,2c0,0.5,0.3,1.6,1.9,1.6c0.7,0,1.5-0.4,1.8-1.1h0v0.9h0.7c-0.1-0.4-0.1-0.8-0.1-1.2V38.6z M138.8,39.8
		c0,0.6,0,2.1-1.7,2.1c-0.7,0-1.2-0.3-1.2-1c0-1.3,1.5-1.4,2.7-1.4h0.2V39.8z"/>
	<rect x="141.2" y="33.9" class="st3" width="0.7" height="8.5"/>
	<path class="st3" d="M149.6,38.4L149.6,38.4c1-0.1,1.8-0.8,1.8-1.9c0-1.5-0.9-2.1-2.3-2.1H147v8h0.8v-3.8h0.7c0.8,0,1.1,0,1.5,1.1
		l1.2,2.7h0.9l-1.4-3.1C150.4,38.8,150.3,38.4,149.6,38.4z M148.6,38h-0.8v-2.8h0.8c1.1,0,2,0.1,2,1.4C150.6,37.6,149.5,38,148.6,38
		z"/>
	<path class="st3" d="M155.2,36.5c-1.5,0-2.5,1.3-2.5,3c0,1.7,0.7,3,2.6,3c0.5,0,1.2-0.1,1.7-0.3v-0.7c-0.3,0.2-1.1,0.4-1.6,0.4
		c-1.3,0-1.9-1-1.9-2.2h4v-0.4C157.6,37.8,156.9,36.5,155.2,36.5z M153.6,39.1c0-1,0.6-2,1.7-2c1.1,0,1.5,1,1.5,2H153.6z"/>
	<path class="st3" d="M159.2,38c0-0.7,0.5-1,1.3-1c0.4,0,0.9,0.1,1.3,0.3l0.1-0.6c-0.5-0.2-1.1-0.3-1.4-0.3c-1,0-1.9,0.4-1.9,1.6
		c0,1.7,2.8,1.5,2.8,2.8c0,0.7-0.6,1-1.3,1c-0.6,0-1.1-0.1-1.5-0.4l-0.1,0.7c0.5,0.2,1.1,0.3,1.6,0.3c0.9,0,2-0.4,2-1.7
		C162.1,39,159.2,39.1,159.2,38z"/>
	<path class="st3" d="M165.6,36.5c-1.9,0-2.7,1.5-2.7,3c0,1.6,0.8,3,2.7,3s2.7-1.5,2.7-3C168.3,37.9,167.5,36.5,165.6,36.5z
		 M165.6,41.9c-1.3,0-1.9-1.1-1.9-2.4c0-1.3,0.7-2.4,1.9-2.4s1.9,1.1,1.9,2.4C167.6,40.8,166.9,41.9,165.6,41.9z"/>
	<path class="st3" d="M174.2,36.6h-0.7v3.2c0,1-0.4,2.1-1.7,2.1c-1,0-1.4-0.7-1.4-1.8v-3.5h-0.7v3.7c0,1.3,0.5,2.2,2,2.2
		c1.2,0,1.6-0.6,1.9-1.2h0v1h0.7c0-0.5,0-0.9,0-1.4V36.6z"/>
	<path class="st3" d="M176.7,37.7L176.7,37.7l0-1.1H176c0,0.4,0,0.7,0,1.3v4.5h0.7v-2.9c0-1,0.3-2.3,1.4-2.3c0.2,0,0.4,0,0.5,0.1
		v-0.8c-0.1,0-0.3-0.1-0.5-0.1C177.5,36.5,177,37.1,176.7,37.7z"/>
	<path class="st3" d="M182.4,37.1c0.4,0,0.9,0.1,1.2,0.3l0.1-0.7c-0.2-0.1-0.7-0.2-1.4-0.2c-1.7,0-2.9,1.3-2.9,3c0,1.6,0.9,3,2.8,3
		c0.5,0,1,0,1.5-0.2l-0.1-0.7c-0.4,0.2-0.9,0.3-1.3,0.3c-1.3,0-2.1-1.1-2.1-2.4C180.2,38.1,181,37.1,182.4,37.1z"/>
	<path class="st3" d="M186.9,36.5c-1.5,0-2.5,1.3-2.5,3c0,1.7,0.7,3,2.6,3c0.5,0,1.2-0.1,1.7-0.3v-0.7c-0.3,0.2-1.1,0.4-1.6,0.4
		c-1.3,0-1.9-1-1.9-2.2h4v-0.4C189.2,37.8,188.5,36.5,186.9,36.5z M185.2,39.1c0-1,0.6-2,1.7-2c1.1,0,1.5,1,1.5,2H185.2z"/>
	<path class="st3" d="M190.9,38c0-0.7,0.5-1,1.3-1c0.4,0,0.9,0.1,1.3,0.3l0.1-0.6c-0.5-0.2-1.1-0.3-1.4-0.3c-1,0-1.9,0.4-1.9,1.6
		c0,1.7,2.8,1.5,2.8,2.8c0,0.7-0.6,1-1.3,1c-0.6,0-1.1-0.1-1.5-0.4l-0.1,0.7c0.5,0.2,1.1,0.3,1.6,0.3c0.9,0,2-0.4,2-1.7
		C193.7,39,190.9,39.1,190.9,38z"/>
	<rect x="53.6" y="16.3" class="st4" width="160.8" height="1.7"/>
	<path class="st3" d="M58.1,11.5c0.8,0,1.7-0.2,2.5-0.4V6.9h-3.1v1.2h1.6v2c-0.3,0.1-0.6,0.1-1,0.1c-1.6,0-2.6-1.2-2.6-2.7
		c0-1.6,1-2.8,2.8-2.8c0.6,0,1.4,0.1,2,0.4l0.1-1.3c-0.7-0.2-1.4-0.3-2.3-0.3c-2.6,0-4.2,1.5-4.2,4.1C53.8,10.2,55.6,11.5,58.1,11.5
		z"/>
	<path class="st3" d="M64.6,11.5c1.9,0,3-1.3,3-2.9c0-1.9-1.3-3-3-3c-1.7,0-3,1.1-3,3C61.6,10.2,62.7,11.5,64.6,11.5z M64.6,6.7
		c1,0,1.4,0.8,1.4,1.7c0,0.9-0.3,2-1.4,2c-1.1,0-1.4-1-1.4-2C63.2,7.5,63.7,6.7,64.6,6.7z"/>
	<polygon class="st3" points="71.9,11.3 74,5.6 72.5,5.6 71.1,9.8 71.1,9.8 69.7,5.6 68.1,5.6 70.2,11.3 	"/>
	<path class="st3" d="M77.4,11.5c0.8,0,1.4-0.2,2-0.5V9.8c-0.6,0.3-1.2,0.6-1.9,0.6c-0.9,0-1.6-0.5-1.6-1.4h3.9c0-2-0.6-3.4-2.7-3.4
		c-1.8,0-2.6,1.4-2.6,3C74.4,10.4,75.5,11.5,77.4,11.5z M77.2,6.6c0.8,0,1.2,0.6,1.2,1.3h-2.5C75.9,7.2,76.3,6.6,77.2,6.6z"/>
	<path class="st3" d="M82.4,9.2c0-0.8,0-2.3,1.2-2.3c0.3,0,0.5,0,0.7,0.1V5.6c-0.2,0-0.3,0-0.5,0c-0.9,0-1.5,0.9-1.6,1.4h0V5.6h-1.3
		v5.7h1.5V9.2z"/>
	<path class="st3" d="M86.9,8.5c0-0.7,0.2-1.9,1.3-1.9c0.9,0,1,0.9,1,1.6v3h1.5V7.7c0-1.3-0.6-2.2-1.9-2.2c-0.8,0-1.4,0.3-1.9,0.9h0
		V5.6h-1.4v5.7h1.5V8.5z"/>
	<path class="st3" d="M93.5,8.6c0-0.7,0.1-1.9,1.1-1.9c0.8,0,0.8,0.8,0.8,1.3v3.4H97V8.6c0-0.7,0.1-1.9,1.1-1.9
		c0.8,0,0.8,0.8,0.8,1.3v3.4h1.5V7.7c0-1.3-0.4-2.2-1.8-2.2c-0.7,0-1.4,0.3-1.8,1c-0.3-0.7-0.9-1-1.7-1c-0.6,0-1.2,0.2-1.7,0.9h0
		V5.6h-1.4v5.7h1.5V8.6z"/>
	<path class="st3" d="M104.5,11.5c0.8,0,1.4-0.2,2-0.5V9.8c-0.6,0.3-1.2,0.6-1.9,0.6c-0.9,0-1.6-0.5-1.6-1.4h3.9
		c0-2-0.6-3.4-2.7-3.4c-1.8,0-2.6,1.4-2.6,3C101.5,10.4,102.6,11.5,104.5,11.5z M104.2,6.6c0.8,0,1.2,0.6,1.2,1.3h-2.5
		C103,7.2,103.4,6.6,104.2,6.6z"/>
	<path class="st3" d="M109.4,8.5c0-0.7,0.2-1.9,1.3-1.9c0.9,0,1,0.9,1,1.6v3h1.5V7.7c0-1.3-0.6-2.2-1.9-2.2c-0.8,0-1.4,0.3-1.9,0.9
		h0V5.6h-1.4v5.7h1.5V8.5z"/>
	<path class="st3" d="M115.1,9.6c0,1.1,0.6,1.8,1.8,1.8c0.4,0,0.8,0,1.1-0.1l0-1.2c-0.2,0.1-0.4,0.2-0.7,0.2c-0.6,0-0.7-0.5-0.7-0.9
		V6.7h1.3V5.6h-1.3V4l-1.5,0.5v1.1H114v1.1h1.1V9.6z"/>
	<path class="st3" d="M124.5,11.5c1.9,0,3-1.3,3-2.9c0-1.9-1.3-3-3-3c-1.7,0-3,1.1-3,3C121.6,10.2,122.7,11.5,124.5,11.5z
		 M124.5,6.7c1,0,1.4,0.8,1.4,1.7c0,0.9-0.3,2-1.4,2c-1.1,0-1.4-1-1.4-2C123.1,7.5,123.6,6.7,124.5,6.7z"/>
	<path class="st3" d="M129.2,11.3h1.5V6.7h1.3V5.6h-1.3V4.9c0-0.4,0.2-0.9,0.7-0.9c0.3,0,0.5,0.1,0.6,0.2l0.1-1.2
		c-0.3-0.1-0.7-0.1-1.1-0.1c-1.2,0-1.8,0.8-1.8,1.9v0.8h-1.1v1.1h1.1V11.3z"/>
	<path class="st3" d="M139.2,9.3c0,0.7-0.8,1-1.4,1c-0.6,0-1.2-0.2-1.7-0.5l-0.1,1.4c0.8,0.2,1.1,0.3,2,0.3c1.6,0,2.9-0.6,2.9-2.3
		c0-2.6-3.4-2-3.4-3.4c0-0.8,0.7-1.1,1.2-1.1c0.5,0,1.1,0.1,1.6,0.3l0.1-1.3c-0.6-0.2-1.2-0.3-1.8-0.3c-1.4,0-2.7,0.6-2.7,2.4
		C135.8,8.4,139.2,7.8,139.2,9.3z"/>
	<path class="st3" d="M144.6,11.5c1.9,0,3-1.3,3-2.9c0-1.9-1.3-3-3-3c-1.7,0-3,1.1-3,3C141.7,10.2,142.8,11.5,144.6,11.5z
		 M144.6,6.7c1,0,1.4,0.8,1.4,1.7c0,0.9-0.3,2-1.4,2c-1.1,0-1.4-1-1.4-2C143.2,7.5,143.7,6.7,144.6,6.7z"/>
	<path class="st3" d="M150.7,11.5c0.8,0,1.4-0.4,1.9-0.9h0v0.8h1.4V5.6h-1.5v2.8c0,0.7-0.2,1.9-1.3,1.9c-0.9,0-1-0.9-1-1.6v-3h-1.5
		v3.6C148.7,10.5,149.3,11.5,150.7,11.5z"/>
	<path class="st3" d="M155.9,9.6c0,1.1,0.6,1.8,1.8,1.8c0.4,0,0.8,0,1.1-0.1l0-1.2c-0.2,0.1-0.4,0.2-0.7,0.2c-0.6,0-0.7-0.5-0.7-0.9
		V6.7h1.3V5.6h-1.3V4l-1.5,0.5v1.1h-1.1v1.1h1.1V9.6z"/>
	<path class="st3" d="M161.2,8.5c0-0.7,0.2-1.9,1.3-1.9c0.9,0,1,0.9,1,1.6v3h1.5V7.7c0-1.3-0.6-2.2-1.9-2.2c-0.8,0-1.4,0.4-1.8,0.9
		h0V3.1h-1.5v8.3h1.5V8.5z"/>
	<path class="st3" d="M171,9.6h3.1l0.7,1.8h1.7l-3-7.7h-1.7l-3,7.7h1.6L171,9.6z M172.6,5.2L172.6,5.2l1.1,3.2h-2.3L172.6,5.2z"/>
	<path class="st3" d="M179.3,11.5c0.8,0,1.4-0.4,1.9-0.9h0v0.8h1.4V5.6h-1.5v2.8c0,0.7-0.2,1.9-1.3,1.9c-0.9,0-1-0.9-1-1.6v-3h-1.5
		v3.6C177.4,10.5,177.9,11.5,179.3,11.5z"/>
	<path class="st3" d="M186.3,9.7c0,0.6-0.6,0.7-1,0.7c-0.5,0-1-0.1-1.5-0.4l-0.1,1.2c0.5,0.1,1.1,0.2,1.7,0.2c1.2,0,2.4-0.5,2.4-1.9
		c0-2.1-2.6-1.5-2.6-2.4c0-0.5,0.5-0.6,0.9-0.6c0.5,0,0.9,0.1,1.3,0.2l0.1-1.1c-0.5-0.1-0.9-0.2-1.6-0.2c-1.2,0-2.2,0.5-2.2,1.8
		C183.7,9.3,186.3,8.6,186.3,9.7z"/>
	<path class="st3" d="M189.4,9.6c0,1.1,0.6,1.8,1.8,1.8c0.4,0,0.8,0,1.1-0.1l0-1.2c-0.2,0.1-0.4,0.2-0.7,0.2c-0.6,0-0.7-0.5-0.7-0.9
		V6.7h1.3V5.6h-1.3V4l-1.5,0.5v1.1h-1.1v1.1h1.1V9.6z"/>
	<path class="st3" d="M194.7,9.2c0-0.8,0-2.3,1.2-2.3c0.3,0,0.5,0,0.7,0.1V5.6c-0.2,0-0.3,0-0.5,0c-0.9,0-1.5,0.9-1.6,1.4h0V5.6
		h-1.3v5.7h1.5V9.2z"/>
	<path class="st3" d="M199.1,11.5c0.7,0,1.4-0.4,1.8-1h0c0,0.2,0,0.6,0.1,0.8h1.3c0-0.4-0.1-0.8-0.1-1.3c0-0.4,0-0.8,0-1.4V7.9
		c0-1.7-0.7-2.4-2.4-2.4c-0.6,0-1.4,0.2-2,0.4l0,1.3c0.5-0.4,1.1-0.6,1.8-0.6c0.9,0,1.3,0.3,1.3,1.2h-0.8c-0.6,0-1.3,0.1-1.9,0.3
		c-0.6,0.3-1,0.8-1,1.6C197.1,10.9,198.1,11.5,199.1,11.5z M200.1,8.7h0.6c0,0.4-0.1,0.8-0.3,1.2c-0.2,0.3-0.6,0.5-1,0.5
		c-0.5,0-0.9-0.2-0.9-0.7C198.5,8.8,199.5,8.7,200.1,8.7z"/>
	<rect x="203.6" y="3.1" class="st3" width="1.5" height="8.3"/>
	<rect x="206.6" y="5.6" class="st3" width="1.5" height="5.7"/>
	<rect x="206.6" y="3.2" class="st3" width="1.5" height="1.4"/>
	<path class="st3" d="M211.2,11.5c0.7,0,1.4-0.4,1.8-1h0c0,0.2,0,0.6,0.1,0.8h1.3c0-0.4-0.1-0.8-0.1-1.3c0-0.4,0-0.8,0-1.4V7.9
		c0-1.7-0.7-2.4-2.4-2.4c-0.6,0-1.4,0.2-2,0.4l0,1.3c0.5-0.4,1.1-0.6,1.8-0.6c0.9,0,1.3,0.3,1.3,1.2h-0.8c-0.6,0-1.3,0.1-1.9,0.3
		c-0.6,0.3-1,0.8-1,1.6C209.2,10.9,210.2,11.5,211.2,11.5z M212.3,8.7h0.6c0,0.4-0.1,0.8-0.3,1.2c-0.2,0.3-0.6,0.5-1,0.5
		c-0.5,0-0.9-0.2-0.9-0.7C210.6,8.8,211.6,8.7,212.3,8.7z"/>
	<path class="st4" d="M34.4,21.8C34.2,15,28.5,9.7,21.8,10C15,10.2,9.7,15.9,10,22.7c0.2,6.8,5.9,12,12.7,11.8
		C29.4,34.2,34.7,28.5,34.4,21.8z M22.6,34.1c-6.6,0.2-12.1-4.9-12.3-11.5c-0.2-6.6,4.9-12.1,11.5-12.3c6.6-0.2,12.1,4.9,12.3,11.5
		C34.3,28.3,29.2,33.9,22.6,34.1z"/>
	<path class="st4" d="M32.2,21.4c0.3-0.1,0.5-0.3,0.8-0.5c-0.1-0.2-0.3-0.3-0.5-0.4c-0.2-0.1-0.4-0.1-0.6-0.3
		c0.1-0.3,0.5-0.4,0.7-0.7c-0.1-0.1-0.2-0.2-0.3-0.2c-0.2-0.1-0.5-0.1-0.7-0.3c0.2-0.2,0.4-0.3,0.7-0.6c-0.2-0.2-0.4-0.2-0.7-0.3
		c-0.2,0-0.4,0.2-0.5,0c0.2-0.3,0.4-0.5,0.6-0.9c-0.3-0.1-0.8,0-1.1,0.2c-0.2,0.1-0.4,0.2-0.6,0c0.2-0.3,0.5-0.5,0.8-0.7
		c0.2-0.1,0.4-0.3,0.2-0.6c-0.7,0.1-1.3,0.5-1.9,0.9c-0.1,0-0.2,0.2-0.3,0.1c0-0.1,0.1-0.2,0.2-0.3c0.4-0.2,0.7-0.5,0.8-0.9
		c0.1-0.4,0.4-0.5,0.3-1c-0.6,0.2-1.2,0.6-1.6,1.1c-0.1,0.2-0.2,0.3-0.4,0.4c-0.1-0.1,0-0.3,0.1-0.4c0.2-0.4,0.3-0.7,0.6-1
		c0-0.2,0.2-0.4,0.2-0.7c0-0.1,0.1-0.3-0.2-0.3c-0.5,0.4-0.9,0.9-1.2,1.5c-0.1,0.1-0.1,0.2-0.2,0.2c-0.1-0.2-0.1-0.4,0-0.6
		c0.1-0.2,0.2-0.4,0.3-0.7c0-0.4,0-0.7,0-1.2c-0.5,0.3-0.6,0.9-0.9,1.4c-0.1-0.4-0.1-0.9,0-1.4c-0.1-0.3-0.1-0.6-0.4-0.7
		c-0.3,0.3-0.2,0.7-0.4,1.2c-0.1-0.1-0.1-0.3-0.3-0.2c-0.1,1.7,0.1,3.3,0.2,5c-0.2,0.7-0.4,1.3-0.5,2c0,0.7-0.5,1.2-1,1.8
		c-0.3-0.1-0.7,0.1-0.8-0.2c-0.1-0.5-0.3-0.9-0.6-1.3c-0.6-0.5-1.4-0.8-2.1-1c-0.1,0-0.4-0.1-0.4,0.1c0.3,0.1,0.6,0.3,0.8,0.7
		c-0.2,0-0.4-0.1-0.6-0.1c-0.1,0-0.2-0.1-0.3,0c0.2,0.2,0.5,0.4,0.8,0.6c0.2,0.1,0.2,0.3,0.3,0.5c0,0.3-0.1,0.5-0.3,0.7
		c-0.3,0.3-0.5-0.3-0.8-0.1c-0.1,0-0.3,0-0.3-0.1c-0.1-0.5-0.5-0.7-0.7-1.1c0-0.5-0.2-1-0.5-1.4c-0.2-0.7-0.4-1.6-0.1-2.3
		c0.1-0.6,0.2-1.2,0.3-1.9c0-0.2,0.1-0.4,0-0.6c0-0.3,0-0.5,0-0.8c-0.1-0.2,0-0.4-0.1-0.6c-0.2,0-0.2,0.4-0.5,0.3
		c-0.1-0.2,0-0.4-0.1-0.6c0-0.3,0-0.7-0.1-1l-0.1,0c-0.3,0.3-0.5,0.7-0.4,1.1c0.1,0.4,0,0.9,0,1.3c0,0.2,0.1,0.4-0.1,0.5
		c-0.1-0.1-0.1-0.2-0.1-0.4c-0.1-0.4-0.2-0.8-0.3-1.1c-0.1-0.2-0.1-0.5-0.6-0.6c-0.1,0.4-0.1,0.7,0,1c0,0.3,0.1,0.5,0.2,0.7
		c0.1,0.2,0.2,0.4-0.2,0.4c-0.2-0.4-0.5-0.8-0.9-1.2c-0.1,0-0.2-0.3-0.4-0.2c0,0.3,0,0.6,0.1,0.8C16,15,16,15.5,16.2,16
		c-0.5-0.5-1.1-0.8-1.9-1.2c0,0.6,0.7,1,0.8,1.6c-0.5-0.3-1-0.7-1.7-0.8c0,0.4,0.3,0.8,0.6,1.2c-0.3,0-0.6-0.1-1-0.1
		c-0.1,0-0.2,0-0.3,0.1c0.2,0.3,0.4,0.5,0.6,0.9c-0.4,0.2-0.8,0-1.2,0.2c0.1,0.2,0.3,0.4,0.4,0.8c-0.3,0-0.6,0.2-0.8,0.4
		c0.1,0.3,0.4,0.4,0.6,0.6c0.1,0.1,0.1,0.2,0.1,0.3c-0.2,0.2-0.5,0.3-0.7,0.7c0.2,0.2,0.5,0.3,0.6,0.6c-0.2,0.3-0.5,0.4-0.6,0.7
		c-0.1,0.2,0.2,0.2,0.3,0.3c0.1,0.1,0.3,0.1,0.4,0.2c0,0.2-0.3,0.4-0.3,0.6c0.1,0.1,0.3,0.2,0.4,0.2c0.3,0.1,0.6-0.2,0.7,0.1
		c-0.1,0.2-0.2,0.4-0.2,0.7c0.1,0.1,0.3,0.1,0.4,0.2c0.2,0,0.4-0.1,0.6,0.1c0,0,0,0,0,0.1c0,0.1-0.1,0.2-0.1,0.3
		c0,0.2-0.2,0.3-0.1,0.4c0.3,0.1,0.6,0,1-0.1c0.2,0.1,0.2,0.3,0.2,0.5c0.2,0.1,0.4,0,0.6,0c0.2,0.1,0.2,0.3,0.3,0.5
		c0.1,0.1,0.2,0,0.3,0c0.4-0.3,0.4,0.2,0.7,0.3c0.2,0,0.2-0.2,0.4-0.1c0.2,0,0.2,0.2,0.4,0.3c0.2,0.1,0.3-0.2,0.5-0.3
		c0.2-0.1,0.4,0.2,0.5,0.3c0.2,0.1,0.3-0.1,0.5-0.2c0.2-0.1,0.3,0.1,0.5,0.1c0.1-0.1,0.2-0.3,0.3-0.4c0.1-0.3-0.1-0.8,0.3-1l0.3,1.1
		c0.1,0.3-0.1,0.6-0.2,0.9c-0.3,0.4-0.8,0.7-1.2,1.1c-0.3,0.3-0.7,0.1-1.1,0.2c0,0,0,0,0,0c-0.4,0.3-0.9,0-1.3,0.3
		c-0.1,0.1-0.2,0.3-0.1,0.4c0.2,0.4,0.6,0.3,1,0.3c0.2,0,0.4,0.2,0.6,0.1c0.2-0.3,0.3,0,0.5,0c0.2,0,0.3-0.1,0.7-0.1
		c-0.2,0.3-0.4,0.6-0.5,0.9c-0.1,0.3,0.3,0.2,0.3,0.5c0,0.3,0.5,0.1,0.5,0.4c0.1,0.2,0.3,0.1,0.4,0.1c0.2,0,0.2,0.3,0.3,0.4
		c0.1,0,0.2,0,0.3,0c0.2,0,0.2,0.2,0.3,0.2l0.4-0.1c0.2,0,0.3,0.3,0.5,0.4c0.3,0.1,0.3-0.3,0.6-0.3l0.5,0.2c0.1-0.1,0.2-0.3,0.3-0.4
		c0.1,0,0.3,0,0.4,0c0.2,0,0.2-0.2,0.3-0.2c0.1,0,0.3,0,0.4,0c0.1-0.1,0.1-0.2,0.2-0.3c0.1-0.1,0.2-0.1,0.4-0.2
		c0-0.2,0.3-0.3,0.4-0.4c0-0.3-0.1-0.5-0.3-0.7C25.1,30,25,29.8,25,29.5c0.2,0,0.3,0.1,0.4,0.2c0.2,0,0.3,0,0.5-0.2
		c0.1-0.1,0.2,0.1,0.3,0.2c0.1,0.1,0.3,0,0.4-0.1c0.2-0.2,0.6,0,0.8-0.3c0.1-0.1,0.1-0.2,0.1-0.4c-0.2-0.4-0.7-0.3-1-0.3
		c-0.1-0.1-0.1-0.1-0.2-0.1h0c-0.3-0.1-0.8,0-1.1-0.2c-0.5-0.5-1-1-1.4-1.5c-0.3-0.4,0.1-0.9,0.1-1.4c0-0.1,0.1-0.2,0.3,0
		c0.1,0.5,0.1,1,0.6,1.3c0.2,0,0.3-0.2,0.4-0.2c0.1,0,0.2,0.2,0.3,0.3c0.2,0,0.2-0.2,0.4-0.3c0.2-0.1,0.3,0.2,0.5,0.1
		c0.1-0.1,0.2-0.2,0.3-0.3c0.2,0,0.3,0.2,0.5,0.2c0.2-0.1,0.2-0.3,0.3-0.5c0.2,0,0.3,0,0.4,0.1c0.3,0.1,0.2-0.2,0.4-0.4
		c0.2-0.3,0.5,0,0.8,0c0.1-0.1,0.1-0.1,0.2-0.2c0.1-0.5,0.6-0.2,0.9-0.3c0.1-0.2,0-0.5,0.1-0.7c0,0,0.1-0.1,0.1-0.1
		c0.3,0,0.6,0,0.9,0c0.1-0.1,0-0.2,0-0.3c0-0.2-0.3-0.4-0.1-0.5c0.3,0,0.6,0,0.9-0.1c0-0.2-0.1-0.3-0.2-0.4
		c-0.1-0.1-0.2-0.2-0.3-0.4c0.2-0.2,0.4-0.2,0.6-0.3c0.1-0.1,0.3-0.1,0.4-0.3c-0.1-0.2-0.3-0.3-0.5-0.5C32.1,21.6,32,21.4,32.2,21.4
		z M18.6,16.3L18.6,16.3c0.1,0.2,0.1,0.3,0.1,0.5c0,0.3,0,0.7-0.2,1c-0.1-0.3-0.2-0.7-0.3-1C18.3,16.6,18.4,16.3,18.6,16.3z M18,17
		c0.2,0,0.1,0.2,0.2,0.3c0,0.4,0.1,0.5,0.1,0.7c-0.3-0.3-0.3-0.5-0.5-0.8C17.9,17.2,17.9,17.1,18,17z M17.5,19.8c0-0.1,0-0.2,0-0.3
		c0.3,0,0.4,0.1,0.5,0L17.4,19c0.2-0.2,0.4,0,0.5,0c-0.1-0.3-0.4-0.3-0.5-0.5c0-0.1,0-0.2,0.1-0.3c0.1,0,0.1,0.1,0.2,0.2
		c0-0.2-0.3-0.5-0.1-0.7l0.2,0.2c0.1,0.2,0.4,0.4,0.3,0.7c-0.1,0.4-0.1,0.9-0.1,1.4C17.9,20.1,17.7,20,17.5,19.8z M19.9,22.6
		c-0.1,0.2-0.2,0.4-0.5,0.3c-0.1-0.1-0.1-0.2-0.1-0.3c-0.1-0.1-0.2,0.1-0.4,0.1c-0.2-0.3-0.1-0.4,0-0.6c-0.2,0-0.3,0.3-0.6,0.2
		c-0.1,0-0.2-0.1-0.1-0.2c0-0.1,0.1-0.3,0.2-0.4c-0.2,0-0.5,0.2-0.6,0c0-0.1,0.1-0.2,0.2-0.3c0.1,0,0.3-0.1,0.4-0.2
		C18.1,21.1,18,21,18,20.8c0-0.1,0.2-0.1,0.3-0.1c0.1,0,0.3,0.2,0.4,0.2c0.1-0.1-0.1-0.2,0-0.3c-0.1-0.1-0.1-0.2-0.1-0.4
		c0.2,0,0.2,0.2,0.4,0.2c0-0.1-0.1-0.3,0-0.4c0.2,0.2,0.1,0.6,0.2,0.8c0.1,0.3,0.4,0.5,0.6,0.8C19.8,22,20,22.3,19.9,22.6z
		 M18.1,29.2c-0.3,0.2-0.7,0.2-1,0.1C17,29.2,17,29.1,17,29.1c0.2-0.4,0.6-0.2,0.9-0.2l0.2,0.1C18.2,29,18.1,29.1,18.1,29.2z
		 M18.9,29.3c-0.2,0-0.5,0.1-0.6-0.1c0.1-0.1,0.1-0.3,0.3-0.4c0.1,0,0.3,0,0.5,0.1C19.1,29.1,19.1,29.2,18.9,29.3z M26.7,28.8
		c0.2,0,0.4,0,0.6,0.1c0,0.1,0,0.2,0,0.3c-0.3,0.3-0.7,0.2-1.1,0.2C26.3,29,26.4,28.9,26.7,28.8z M26.1,29c0,0.1-0.1,0.2-0.2,0.3
		c-0.1,0.1-0.3,0.1-0.5,0c-0.1-0.1-0.1-0.2-0.1-0.3C25.7,28.8,26,28.8,26.1,29z M22,20.4l0.2,0.1c-0.1,0.3-0.2,0.2-0.3,0.2
		C21.9,20.5,21.9,20.4,22,20.4z M20.8,20.6c0.1-0.1,0.2-0.1,0.4,0c0.1,0,0.2,0.1,0.3,0c0.1-0.3-0.3-0.5-0.4-0.7
		c0.2-0.1,0.4,0,0.5,0.1c0.1,0.3,0.2,0.5,0,0.8C21.3,21,21,20.6,20.8,20.6z M19.5,28.6C19.5,28.6,19.5,28.6,19.5,28.6
		c0.5-0.7,1.1-0.7,1.5-1.1c0.2,0,0.2,0.3,0.3,0.4c0,0.1,0,0.2-0.1,0.3c-0.1,0.1-0.2,0.2-0.4,0.3c-0.1,0-0.1,0.1-0.2,0.1
		C20.3,28.6,19.8,28.7,19.5,28.6z M19.8,28.9c0.1,0,0.3,0,0.5,0c-0.2,0.2-0.3,0.6-0.7,0.4C19.5,29.1,19.6,28.9,19.8,28.9z M19.8,30
		c-0.2-0.2-0.1-0.3,0-0.4c0.4-0.4,0.9-0.7,1.4-1.1l0.1,0c0,0.1-0.1,0.2-0.2,0.3c-0.3,0.4-0.8,0.6-1,1C20,29.9,19.9,30,19.8,30z
		 M20.3,30.1c-0.1,0.1-0.1,0.3-0.3,0.3c-0.1-0.2,0.1-0.4,0.3-0.6c0.4-0.4,0.8-0.7,1.2-1.1l0.1,0c-0.1,0.2-0.3,0.4-0.4,0.6
		C20.8,29.6,20.5,29.8,20.3,30.1z M20.6,30.7c-0.2-0.1-0.2-0.2-0.1-0.3c0.3-0.5,0.7-1.1,1.1-1.6l0.1,0.1c-0.1,0.5-0.5,0.9-0.7,1.3
		C20.8,30.4,20.7,30.5,20.6,30.7z M21.2,31c-0.3,0-0.4-0.2-0.3-0.3c0.1-0.2,0.2-0.4,0.2-0.7c0.2-0.4,0.4-0.8,0.6-1.2l0.1,0.1
		c0,0.5-0.2,0.9-0.3,1.3C21.4,30.5,21.3,30.8,21.2,31z M22.1,30.6c-0.1,0.2-0.3,0.3-0.4,0.5c-0.2-0.2-0.1-0.5-0.1-0.7
		c0.1-0.4,0.3-0.8,0.4-1.2l0.1,0C22.1,29.7,22.1,30.1,22.1,30.6z M22.5,30.9c-0.5-0.3-0.2-1-0.2-1.4c0-0.1,0-0.3,0.1-0.4l0.2,0.1
		c0.2,0.6,0.3,1.1,0.3,1.7C22.6,31.1,22.6,31,22.5,30.9z M23.2,30.6c-0.2-0.5-0.5-1-0.6-1.6c0.2-0.2,0.2,0.1,0.3,0.2
		c0.2,0.6,0.7,1,0.7,1.6C23.2,31,23.2,30.8,23.2,30.6z M24.2,30.8c-0.3,0-0.3-0.2-0.5-0.4c-0.4-0.5-0.7-1-0.9-1.5
		c0.5,0.3,0.7,0.9,1.1,1.3C24,30.3,24.2,30.6,24.2,30.8z M24.6,30.6c-0.5-0.6-1.1-1-1.4-1.6c-0.1-0.1-0.3-0.2-0.2-0.4
		c0.4,0.3,0.7,0.5,0.9,0.9c0.3,0.3,0.6,0.6,0.8,0.9C24.7,30.5,24.6,30.6,24.6,30.6z M24.9,29.3c-0.3,0.2-0.5-0.3-0.8-0.4l0.8-0.1
		C25.1,29.2,25,29.3,24.9,29.3z M24.4,27.9c0.2,0.2,0.4,0.4,0.6,0.6l-0.4,0l-0.9,0.1c0,0-0.1-0.1-0.1-0.1h0
		c-0.2-0.1-0.3-0.2-0.4-0.4c0-0.3,0.2-0.5,0.2-0.7c0.1-0.1,0.2,0.1,0.3,0.1C23.9,27.7,24.2,27.7,24.4,27.9z M23.7,25.9
		c-0.1,0.5-0.3,0.9-0.5,1.3c0,0.2,0,0.2,0,0.3c-0.1,0.4-0.2,0.8-0.5,1.1l0.6,0l0.1,0c0,0,0,0,0,0h0c0.5,0.4,1,0.9,1.5,1.5
		c-0.2,0.1-0.3-0.1-0.4-0.2c-0.4-0.4-0.8-0.9-1.2-1.3l0,0h-0.6c0,0,0,0,0,0c-0.1,0.1-0.2,0.4-0.5,0.4c-0.2-0.1-0.3-0.2-0.4-0.4
		c-0.3-0.3-0.4-0.8-0.5-1.2c0.1-0.2,0.1,0,0.2-0.1c-0.1-0.1-0.2-0.2-0.2-0.4c-0.2-0.3-0.2-0.6-0.2-1c-0.1-0.1-0.1,0.1-0.2,0
		c-0.1-0.1-0.1-0.4-0.2-0.5c0-0.1,0-0.2,0-0.3c0-0.1,0.1-0.3,0.2-0.4c0.1-0.2,0.1-0.3,0.1-0.5c0.1-0.1,0.1-0.3,0.1-0.4
		c0-0.4,0.2-0.7,0.1-1.1c0.1-0.2,0.5-0.1,0.7-0.2c0.4-0.1,0.8-0.5,0.8-0.9c0-0.2,0-0.4,0.2-0.4c0.2,0,0.4,0.2,0.5,0.4
		c0,0.1,0.1,0.2,0.1,0.3c0.1,0.3,0.1,0.7,0,1c-0.1,0.6-0.1,1.1,0.1,1.7c0,0.1,0.1,0.2,0.1,0.4c0,0.1,0.1,0.2,0.1,0.3
		C24,25.2,23.7,25.5,23.7,25.9z M27.2,18.5l-0.7,0.7c-0.2-0.2,0-0.4,0-0.5c0.1-0.2,0.3-0.4,0.5-0.5C27.2,18.2,27.1,18.4,27.2,18.5z
		 M26.9,17.7l0.1,0.1c0.1,0.2-0.1,0.3-0.2,0.4l-0.3,0.5c-0.1-0.1-0.1-0.1-0.1-0.2C26.5,18.1,26.7,17.9,26.9,17.7z M26.1,16.7
		c0.2,0,0.3,0.1,0.3,0.2c0,0.3-0.2,0.4-0.2,0.7c0.2-0.1,0.2-0.4,0.4-0.4c0.1,0.1,0,0.1,0,0.2c-0.2,0.2-0.2,0.6-0.4,0.8
		C26.1,17.7,26,17.2,26.1,16.7z M26.1,21.9c0.2,0.2,0.4,0.3,0.4,0.6c-0.4,0.1-0.6-0.1-0.7-0.2c0.1,0.2,0.2,0.3,0.2,0.5
		c-0.1,0.2-0.3,0-0.4,0c-0.1-0.1-0.2-0.2-0.3-0.2c0,0.1,0.3,0.3,0.1,0.4c-0.2,0-0.4-0.1-0.5-0.2c0-0.1-0.1-0.3-0.1-0.4
		c0.2-0.4,0.5-0.8,0.7-1.2c0.1-0.3,0.2-0.6,0.3-0.9l0.1,0c0,0.1-0.1,0.2,0,0.3c0.1-0.1,0.2-0.2,0.4-0.1c0.1,0.1,0,0.2,0,0.3
		c0,0.1-0.3,0.2-0.2,0.3c0.2,0,0.3-0.2,0.5-0.1c-0.1,0.3-0.2,0.4-0.3,0.5c0.2,0,0.5,0.1,0.6,0.4C26.5,22,26.3,21.9,26.1,21.9z
		 M26.5,19.9c0.1-0.3,0.3-0.5,0.6-0.4C26.9,19.9,26.7,20,26.5,19.9z M27.1,19.3c-0.2,0.1-0.4,0.1-0.6,0.2c-0.1-0.1,0-0.1,0-0.2
		c0.2-0.2,0.4-0.3,0.6-0.4l0.1,0.1C27.3,19.1,27.2,19.2,27.1,19.3z"/>
	<path class="st4" d="M4.5,25.5c-0.4,0-0.2-0.4-0.4-0.4C4,25,4,25.1,4,25.2c0,0.3,0.1,0.5,0.1,0.8c0,0.3,0.1,0.5,0.1,0.8
		c0,0.1,0,0.1,0.1,0.1c0.1,0-0.1-0.3,0.3-0.5l3-1.8C8.4,24,8.6,24,8.6,23.9c0-0.1-0.1,0-0.4-0.1c-0.4-0.1-0.4-0.2-0.5-0.2
		c-0.1,0-0.2,0.2-0.2,0.2c-0.1,0-0.3-0.1-2.4-0.6c-0.5-0.1-0.9-0.3-1-0.4c-0.2-0.2-0.1-0.4-0.3-0.4c-0.1,0-0.1,0-0.1,0.1
		c0,0.2,0.1,0.4,0.1,0.7c0.1,0.4,0.1,0.6,0.1,0.7c0,0.1,0,0.1,0.1,0.1c0.2,0-0.1-0.5,0.6-0.6c0.2,0,0.4,0,0.9,0.1l0.2,1.5l-0.8,0.5
		C4.7,25.4,4.5,25.4,4.5,25.5z M5.6,23.4l1.7,0.4l-1.6,0.9L5.6,23.4z"/>
	<path class="st4" d="M7.9,31.6l1.8-1c0.5-0.3,0.9-0.2,1.1,0c0.1,0.1,0.1,0.2,0.2,0.2c0.1,0,0-0.1,0-0.2c-0.1-0.2-0.2-0.4-0.3-0.6
		c-0.1-0.2-0.2-0.4-0.3-0.6c0-0.1-0.1-0.1-0.1-0.1c-0.1,0,0,0.1,0,0.3c0,0.3-0.1,0.6-0.6,0.9l-1.9,1c-0.7,0.4-1.3,0.3-1.7-0.4
		c-0.3-0.6-0.2-1.3,0.4-1.6l2.5-1.4c0.4-0.2,0.5,0.4,0.6,0.3c0.1,0,0.1-0.1,0-0.2c-0.1-0.2-0.2-0.3-0.4-0.7C9.2,27.2,9.1,27,9,26.8
		c0-0.1-0.1-0.1-0.2-0.1c-0.1,0.1,0.3,0.5-0.1,0.7l-2.5,1.3c-0.7,0.4-0.9,1.1-0.4,2.2C6.3,31.9,7.1,32.1,7.9,31.6z"/>
	<path class="st4" d="M13.1,34.9c0,0,0.1,0,0.1,0c0.1-0.1,0.3-0.4,0.9-1.2c0-0.1,0.1-0.1,0-0.1c-0.1-0.1-0.2,0.1-0.3,0
		c-0.2-0.2-0.2-0.5-0.6-0.9c-0.6-0.5-1.4-0.4-1.9,0.1c-1.1,1.3,1.2,2.4,0.3,3.5c-0.3,0.4-0.8,0.5-1.3,0.1c-0.7-0.6-0.4-1.4,0.1-2.2
		c0.1-0.1,0.1-0.2,0.1-0.2c0,0-0.1,0-0.1,0l-1.2,1.4c0,0.1,0,0.1,0,0.1c0.1,0.1,0.2-0.2,0.4,0c0.1,0.1,0.3,0.6,0.7,0.9
		c0.8,0.7,1.7,0.5,2.1-0.1c1.1-1.3-1.1-2.5-0.3-3.5c0.3-0.3,0.7-0.4,1.1,0c0.6,0.5,0.4,1.2,0.1,1.9C13.1,34.7,13.1,34.8,13.1,34.9z"
		/>
	<path class="st4" d="M18,35.6c0.6,0.2,1,1,1,1.6c0,0.2,0,0.3,0.1,0.3c0,0,0.1,0,0.1,0c0-0.1,0-0.2,0.1-0.4l0.2-1.1c0,0,0-0.1,0-0.1
		c0,0-0.1,0-0.1,0c0,0-0.1,0-0.2,0l-2.7-0.9c-0.1,0-0.2-0.1-0.2-0.1c0,0,0-0.1-0.1-0.1c-0.1,0-0.1,0.1-0.1,0.1l-0.6,1
		c-0.1,0.1-0.2,0.3-0.2,0.3c0,0,0,0.1,0,0.1c0,0,0.1-0.1,0.2-0.2c0.4-0.4,1.2-0.8,1.8-0.6L16,39.1c-0.1,0.4-0.7,0-0.7,0.2
		c0,0.1,0,0.1,0.1,0.1c0.3,0.1,0.5,0.1,0.8,0.3c0.4,0.1,0.5,0.2,0.8,0.3c0.1,0,0.2,0,0.2,0c0.1-0.2-0.6-0.2-0.5-0.6L18,35.6z"/>
	<path class="st4" d="M24.3,39.5l0.7,1c0.6,0,1-0.1,1.1-0.1c0.1,0,0.1,0,0.1-0.1c0-0.2-0.5,0.1-0.8-0.5L25,39.2
		c-0.4-0.7-0.7-0.7-1.3-0.8v0c0.9-0.2,1.5-0.6,1.5-1.3c-0.1-0.6-0.6-1.2-1.9-1c-0.3,0-0.5,0.1-0.9,0.1c-0.4,0-0.6,0-0.8,0.1
		c-0.1,0-0.1,0-0.1,0.1c0,0.2,0.5-0.1,0.6,0.4l0.3,3.6c0,0.5-0.5,0.3-0.5,0.5c0,0.1,0,0.1,0.2,0.1c0.2,0,0.4,0,0.8-0.1
		c0.4,0,0.6,0,0.8-0.1c0.1,0,0.1,0,0.1-0.1c0-0.2-0.5,0.1-0.6-0.4L23,38.6l0.1,0C23.6,38.5,23.8,38.7,24.3,39.5z M23,38.4l-0.2-2.2
		l0.4,0c0.6-0.1,1,0.2,1.1,1c0.1,0.8-0.3,1.1-1,1.2L23,38.4z"/>
	<path class="st4" d="M30.9,38.6c0,0.1,0.1,0.1,0.1,0c0.2-0.1,0.5-0.2,0.7-0.4c0.2-0.1,0.5-0.2,0.7-0.3c0.1,0,0.1-0.1,0.1-0.1
		c-0.1-0.1-0.3,0.2-0.6-0.1l-2.7-2.3c-0.7-0.6-0.8-0.8-0.9-0.8c-0.1,0,0,0.1,0,0.4c0,0.4-0.1,0.5-0.1,0.6c0,0.1,0.2,0.1,0.3,0.2
		c0,0,0,0.3,0.2,2.5c0,0.5,0,0.9-0.1,1.1c-0.1,0.2-0.4,0.3-0.3,0.4c0,0,0.1,0.1,0.1,0c0.2-0.1,0.4-0.2,0.6-0.3
		c0.4-0.2,0.6-0.3,0.7-0.3c0.1,0,0.1,0,0.1-0.1c-0.1-0.1-0.5,0.2-0.8-0.4c-0.1-0.2-0.1-0.4-0.2-0.9l1.3-0.6l0.7,0.6
		c0.1,0.1,0.2,0.2,0.3,0.3C31.3,38.4,30.8,38.4,30.9,38.6z M28.8,37.6l-0.2-1.8L30,37L28.8,37.6z"/>
	<path class="st4" d="M34.5,36c0.1,0.1,0.1,0,0.2,0c0.2-0.2,0.3-0.3,0.5-0.6c1-1.1,1.4-1.5,1.7-1.9l-0.9-1.2
		c-0.1-0.1-0.1-0.1-0.1-0.1c0,0-0.1,0-0.1,0c0,0,0,0.1,0,0.2c0.4,0.6,0.6,1.6-0.1,2.3c-0.2,0.2-0.4,0.3-0.7,0l-2.5-2.4
		c-0.3-0.3,0.2-0.6,0.1-0.7c-0.1-0.1-0.1,0-0.2,0c-0.2,0.2-0.3,0.3-0.5,0.6c-0.3,0.3-0.4,0.4-0.6,0.6c-0.1,0.1-0.1,0.1,0,0.2
		c0.1,0.1,0.3-0.4,0.7-0.1l2.7,2.5C34.9,35.7,34.4,35.9,34.5,36z"/>
	<path class="st4" d="M38.6,30.7c0.1,0,0.1,0,0.1-0.1c0.1-0.2,0.2-0.4,0.3-0.7c0.2-0.4,0.3-0.5,0.3-0.7c0-0.1,0-0.1,0-0.2
		c-0.2-0.1-0.2,0.5-0.6,0.3l-3.3-1.5c-0.4-0.2,0-0.6-0.1-0.7c-0.1,0-0.1,0-0.1,0.1c-0.1,0.2-0.2,0.4-0.3,0.7
		c-0.2,0.4-0.3,0.5-0.3,0.7c0,0.1,0,0.1,0,0.2c0.2,0.1,0.2-0.5,0.6-0.3l3.3,1.5C38.9,30.2,38.4,30.6,38.6,30.7z"/>
	<path class="st4" d="M39.9,23.5c0.1,0,0.3-0.1,0.4-0.1c0.4,0,0.1,0.5,0.3,0.5c0.1,0,0.1,0,0.1-0.1c0-0.3,0.1-0.5,0.1-0.8
		c0-0.3,0.1-0.5,0.1-0.8c0-0.1,0-0.1-0.1-0.1c-0.1,0,0,0.3-0.4,0.4l-3.3,1c-0.9,0.3-1.2,0.2-1.2,0.3c0,0.1,0.1,0.1,0.4,0.2
		c0.4,0.2,0.3,0.3,0.4,0.4c0.1,0,0.2-0.1,0.3-0.1c0.1,0,0.3,0.1,2.2,1.2c0.4,0.2,0.8,0.5,0.9,0.7c0.1,0.2,0,0.5,0.2,0.5
		c0.1,0,0.1,0,0.1-0.1c0-0.2,0-0.4,0.1-0.7c0.1-0.4,0.1-0.6,0.1-0.7c0-0.1,0-0.1-0.1-0.1c-0.2,0-0.1,0.5-0.7,0.5
		c-0.2,0-0.4-0.1-0.9-0.4l0.2-1.5L39.9,23.5z M38.7,25.1l-1.6-0.8l1.7-0.5L38.7,25.1z"/>
	<path class="st4" d="M8.7,9.6c-0.5,0.6-0.5,1.5,0,1.9c1.2,1.1,2.5-1.1,3.5-0.1c0.3,0.3,0.4,0.8,0,1.3c-0.6,0.7-1.5,0.3-2.2-0.2
		c-0.1-0.1-0.2-0.1-0.2-0.1c0,0,0,0.1,0,0.1l1.4,1.3c0,0,0.1,0,0.1,0c0.1-0.1-0.2-0.2,0-0.4c0.1-0.1,0.6-0.3,1-0.6
		c0.8-0.8,0.6-1.7,0-2.2c-1.2-1.1-2.6,1-3.5,0.2c-0.3-0.3-0.3-0.7,0-1.1c0.5-0.6,1.3-0.4,2,0c0.1,0,0.1,0.1,0.2,0c0,0,0-0.1,0-0.1
		c-0.1-0.1-0.4-0.4-1.2-0.9c-0.1,0-0.1-0.1-0.1,0c-0.1,0.1,0.1,0.2,0,0.3C9.5,9.1,9.1,9.1,8.7,9.6z"/>
	<path class="st4" d="M16.6,9.7c1-0.5,1.9-1.8,1.2-3.2c-0.6-1.4-2.2-1.7-3.2-1.2c-1,0.5-1.9,1.8-1.2,3.2C14,9.9,15.5,10.2,16.6,9.7z
		 M14.7,5.5c0.8-0.4,1.7,0,2.3,1.4c0.6,1.4,0.3,2.3-0.5,2.7c-0.8,0.4-1.7,0-2.3-1.4C13.6,6.7,13.9,5.8,14.7,5.5z"/>
	<path class="st4" d="M21.6,3.9c0-0.1,0-0.1-0.2-0.1c-0.2,0-0.4,0-0.8,0c-0.4,0-0.6,0-0.8,0c-0.1,0-0.1,0-0.1,0.1
		c0,0.2,0.6-0.1,0.6,0.4l0,2.9c0,0.8,0.6,1.3,1.9,1.3c1.1,0,1.6-0.6,1.6-1.5l0-2.1c0-0.6,0.2-0.9,0.5-0.9c0.2-0.1,0.3,0,0.3-0.1
		c0-0.1,0-0.1-0.2-0.1c-0.2,0-0.4,0-0.7,0c-0.3,0-0.5,0-0.7,0c-0.1,0-0.1,0-0.1,0.1c0,0.1,0.1,0.1,0.3,0.1c0.3,0.1,0.5,0.4,0.5,0.9
		l0,2.1c0,0.8-0.4,1.3-1.2,1.3c-0.7,0-1.2-0.4-1.3-1.1l0-2.9C21,3.8,21.6,4,21.6,3.9z"/>
	<path class="st4" d="M26.3,8.9c0,0.1,0,0.1,0.1,0.2c0.3,0.1,0.5,0.2,0.8,0.3c0.4,0.2,0.5,0.2,0.8,0.4c0.1,0,0.2,0.1,0.2,0
		c0.1-0.2-0.6-0.2-0.5-0.6l1.5-3.7c0.6,0.3,1,1,1,1.6c0,0.2,0,0.3,0,0.3c0,0,0.1,0,0.1,0c0-0.1,0.1-0.2,0.1-0.4l0.2-1.1
		c0,0,0-0.1,0-0.1c0,0-0.1,0-0.1,0c0,0-0.1,0-0.2,0l-2.7-1.1c-0.1-0.1-0.2-0.1-0.2-0.1c0,0,0-0.1-0.1-0.1c-0.1,0-0.1,0.1-0.1,0.1
		l-0.6,1c-0.1,0.1-0.2,0.2-0.2,0.3c0,0,0,0.1,0,0.1c0,0,0.1-0.1,0.2-0.2c0.5-0.4,1.2-0.7,1.9-0.5l-1.5,3.7
		C26.9,9.2,26.4,8.7,26.3,8.9z"/>
	<path class="st4" d="M31,10.8c-0.3,0.3-0.6-0.2-0.7-0.1c-0.1,0.1,0,0.1,0,0.2c0.2,0.2,0.3,0.3,0.6,0.6c0.3,0.3,0.4,0.4,0.6,0.6
		c0.1,0.1,0.1,0.1,0.2,0c0.1-0.1-0.4-0.4-0.1-0.7l1.3-1.3l1.4,1.4L33,12.7c-0.3,0.3-0.6-0.2-0.7-0.1c-0.1,0.1,0,0.1,0,0.2
		c0.2,0.2,0.3,0.3,0.6,0.6c0.3,0.3,0.4,0.4,0.6,0.6c0.1,0.1,0.1,0.1,0.2,0c0.1-0.1-0.4-0.4-0.1-0.7l2.5-2.6c0.3-0.3,0.6,0.2,0.7,0.1
		c0.1-0.1,0-0.1,0-0.2c-0.2-0.2-0.3-0.3-0.6-0.6c-0.3-0.3-0.4-0.4-0.6-0.6c-0.1-0.1-0.1-0.1-0.2,0c-0.1,0.1,0.4,0.4,0.1,0.7
		l-1.1,1.2L33,9.9l1.1-1.2c0.3-0.3,0.6,0.2,0.7,0.1c0.1-0.1,0-0.1,0-0.2c-0.2-0.2-0.3-0.3-0.6-0.6c-0.3-0.3-0.4-0.4-0.6-0.6
		c-0.1-0.1-0.1-0.1-0.2,0c-0.1,0.1,0.4,0.4,0.1,0.7L31,10.8z"/>
	<path class="st3" d="M21.6,2.1C31.5,1.7,40,8.6,42.1,18l2.1-0.4C41.9,7.5,33,0,22.3,0C11.5,0,2.5,7.7,0.5,17.9l2.1,0.4
		C4.3,9.4,12.1,2.5,21.6,2.1z"/>
	<path class="st5" d="M42.1,18.4c0.2,1,0.3,2.1,0.4,3.2c0,0.7,0,1.3,0,2l2.1,0.1c0-0.5,0-0.9,0-1.4c0-1.5-0.1-3-0.4-4.4L42.1,18.4z"
		/>
	<path class="st6" d="M42.2,25.7l2.1,0.4c0.1-0.7,0.2-1.3,0.2-2l-2.1-0.1C42.4,24.5,42.3,25.1,42.2,25.7z"/>
	<path class="st3" d="M23.1,42.5c-10,0.4-18.6-6.6-20.5-16.1l-2.1,0.4c2.1,10.2,11.1,17.8,21.8,17.8c10.9,0,20-7.8,21.9-18.2
		L42.2,26C40.5,35.1,32.7,42.1,23.1,42.5z"/>
	<path class="st6" d="M2.2,24.3l-2.1,0.2c0.1,0.7,0.2,1.3,0.3,2L2.5,26C2.4,25.4,2.3,24.8,2.2,24.3z"/>
	<path class="st5" d="M2.2,23c-0.1-1.5,0.1-2.9,0.3-4.3l-2.1-0.4c-0.2,1.3-0.4,2.6-0.4,4c0,0.6,0,1.2,0.1,1.8l2.1-0.2
		C2.2,23.6,2.2,23.3,2.2,23z"/>
</g>
</svg>
