<?xml version="1.0" encoding="utf-8"?>
<!-- Generator: Adobe Illustrator 21.0.0, SVG Export Plug-In . SVG Version: 6.00 Build 0)  -->
<svg version="1.1" id="Layer_1" xmlns="http://www.w3.org/2000/svg" xmlns:xlink="http://www.w3.org/1999/xlink" x="0px" y="0px"
	 viewBox="0 0 214.5 44.6" style="enable-background:new 0 0 214.5 44.6;" xml:space="preserve">
<style type="text/css">
	.st0{fill:none;}
	.st1{fill:#144380;}
	.st2{fill:#888688;}
	.st3{fill:#E40841;}
	.st4{fill:#F9B000;}
</style>
<title>dewnr-logotype</title>
<path class="st0" d="M21.8,28.9l-0.6,1.2c0,0.2-0.2,0.4-0.2,0.7c-0.1,0.1,0,0.3,0.3,0.3c0-0.3,0.1-0.6,0.3-0.8
	C21.8,29.9,21.8,29.4,21.8,28.9z"/>
<path class="st0" d="M21.1,29.4c0.1-0.2,0.3-0.4,0.4-0.6h-0.1c-0.4,0.4-0.8,0.7-1.2,1.1c-0.1,0.2-0.4,0.3-0.3,0.6
	c0.2,0,0.2-0.2,0.3-0.3C20.5,29.9,20.8,29.6,21.1,29.4z"/>
<path class="st0" d="M21.7,30.4c0,0.3-0.2,0.5,0.1,0.7c0.1-0.2,0.3-0.3,0.4-0.5v-1.4h-0.1C22,29.6,21.7,29.9,21.7,30.4z"/>
<path class="st0" d="M21.7,28.9L21.7,28.9c-0.4,0.5-0.8,1-1.2,1.5c-0.1,0.1-0.1,0.2,0.1,0.3c0.1-0.2,0.2-0.3,0.3-0.5
	C21.3,29.8,21.5,29.4,21.7,28.9z"/>
<path class="st0" d="M98.8,24.1c-1,0.1-1.8,1-1.7,2h3.2C100.2,25.1,99.8,24.1,98.8,24.1z"/>
<path class="st0" d="M87.1,40.9c0,0.8,0.5,1,1.2,1c1.7,0,1.7-1.5,1.7-2.1v-0.4h-0.2C88.6,39.5,87.1,39.6,87.1,40.9z"/>
<path class="st0" d="M22.8,28.9c0.3,0.5,0.6,1,0.9,1.5c0.1,0.1,0.2,0.4,0.5,0.4c0-0.2-0.1-0.4-0.3-0.6
	C23.5,29.7,23.3,29.2,22.8,28.9z"/>
<path class="st0" d="M26,29.3c0.1-0.1,0.2-0.2,0.2-0.3s-0.4-0.1-0.8,0.1c0,0.1,0,0.2,0.1,0.3C25.7,29.4,25.8,29.3,26,29.3z"/>
<path class="st0" d="M22.4,29.1c-0.1,0.1,0,0.2-0.1,0.4c0.1,0.5-0.3,1.1,0.2,1.4c0.1,0.1,0.1,0.2,0.3,0.1c0-0.6-0.1-1.1-0.3-1.7
	L22.4,29.1z"/>
<path class="st0" d="M116.3,40.9c0,0.8,0.5,1,1.2,1c1.7,0,1.7-1.5,1.7-2.1v-0.4H119C117.7,39.5,116.3,39.6,116.3,40.9z"/>
<path class="st0" d="M21.6,20c-0.2-0.1-0.3-0.3-0.5-0.1c0.2,0.2,0.6,0.4,0.4,0.7h-0.3c-0.1,0-0.3-0.1-0.4,0c0.2,0.1,0.5,0.4,0.8,0.2
	S21.6,20.3,21.6,20z"/>
<path class="st0" d="M101,37.1c-1.4,0-1.7,1.3-1.7,2.4s0.4,2.4,1.7,2.4s1.7-1.4,1.7-2.4S102.3,37.1,101,37.1z"/>
<path class="st0" d="M76.2,37.1c-1,0.1-1.8,1-1.7,2h3.2C77.7,38.1,77.2,37.1,76.2,37.1z"/>
<path class="st0" d="M118,24.1c-1.3,0-1.9,1.1-1.9,2.4s0.7,2.4,1.9,2.4s1.9-1.1,1.9-2.4S119.2,24.1,118,24.1z"/>
<path class="st0" d="M22.2,20.5L22,20.4c-0.1,0-0.1,0.1-0.1,0.3C22,20.7,22.1,20.8,22.2,20.5z"/>
<path class="st0" d="M20.1,29.8c0.3-0.4,0.7-0.6,1-1c0.1-0.1,0.2-0.2,0.2-0.3h-0.1c-0.5,0.3-1,0.7-1.4,1.1c-0.1,0.1-0.2,0.2,0,0.4
	C20,30,20,29.9,20.1,29.8z"/>
<path class="st0" d="M20.7,28.6c0.1,0,0.1-0.1,0.2-0.1c0.1-0.1,0.2-0.2,0.4-0.3c0.1-0.1,0.1-0.2,0.1-0.3c-0.1-0.1-0.1-0.4-0.3-0.4
	c-0.5,0.4-1.1,0.4-1.5,1c0,0.1,0,0.1-0.1,0.1l0,0C19.9,28.6,20.3,28.6,20.7,28.6z"/>
<path class="st0" d="M20.3,28.9c-0.2-0.1-0.3-0.1-0.5,0c-0.1,0.1-0.3,0.2-0.2,0.5C20,29.5,20.1,29.1,20.3,28.9z"/>
<path class="st0" d="M22.6,29.1c0.2,0.5,0.4,1.1,0.6,1.6c0.1,0.2,0,0.4,0.4,0.3c0-0.6-0.5-1-0.7-1.6C22.8,29.2,22.8,28.8,22.6,29.1z
	"/>
<path class="st0" d="M26.5,18.6l0.3-0.5c0.1-0.1,0.3-0.2,0.2-0.4l-0.1-0.1c-0.2,0.2-0.4,0.4-0.5,0.7C26.4,18.4,26.4,18.5,26.5,18.6z
	"/>
<path class="st0" d="M23.7,24.6c-0.1-0.1-0.1-0.2-0.1-0.4c-0.2-0.5-0.2-1.1-0.1-1.7c0.1-0.3,0.1-0.7,0-1c0-0.1-0.1-0.2-0.1-0.3
	s-0.2-0.4-0.5-0.4c-0.1,0.1-0.2,0.2-0.2,0.4c-0.1,0.4-0.4,0.8-0.8,0.9c-0.2,0.1-0.5,0-0.7,0.2c0.1,0.4,0,0.7-0.1,1.1
	C21,23.5,21,23.7,21,23.8c0,0.2-0.1,0.3-0.1,0.5s-0.1,0.3-0.2,0.4V25c0.1,0.1,0.1,0.4,0.2,0.5s0.1-0.1,0.2,0c0,0.3,0,0.7,0.2,1
	c0,0.1,0.2,0.3,0.2,0.4s-0.1-0.1-0.2,0.1c0.1,0.4,0.3,0.8,0.5,1.2c0.1,0.1,0.2,0.3,0.4,0.4c0.2,0,0.4-0.2,0.5-0.4l0,0
	c0.3-0.3,0.4-0.7,0.5-1.1c0-0.1-0.1-0.1,0-0.3c0.3-0.4,0.5-0.8,0.5-1.3C23.7,25.2,24,24.8,23.7,24.6C23.7,24.8,23.7,24.7,23.7,24.6z
	"/>
<path class="st0" d="M26.8,17.5v-0.2c-0.2,0-0.2,0.3-0.4,0.4c0-0.3,0.2-0.5,0.2-0.7s-0.1-0.2-0.3-0.2c-0.1,0.5-0.1,1.1,0.2,1.6
	C26.5,18.1,26.6,17.8,26.8,17.5z"/>
<path class="st0" d="M26.6,18.7c0,0.1-0.2,0.2,0,0.5l0.7-0.7c0-0.1,0-0.3-0.1-0.3C26.9,18.3,26.7,18.5,26.6,18.7z"/>
<path class="st0" d="M26.3,21.4c0.1-0.1,0.2-0.3,0.3-0.5c-0.2-0.1-0.3,0.1-0.5,0.1c-0.1-0.2,0.2-0.2,0.2-0.3s0.1-0.2,0-0.3
	s-0.3,0.1-0.4,0.1s0-0.2,0-0.3h-0.1c-0.1,0.3-0.2,0.6-0.3,0.9c-0.2,0.4-0.5,0.8-0.7,1.2c0,0.1,0,0.3,0.1,0.4
	c0.1,0.2,0.3,0.3,0.5,0.2c0,0,0,0,0,0c0.3-0.1-0.1-0.3-0.1-0.4s0.2,0.2,0.3,0.2s0.3,0.2,0.4,0s-0.1-0.3-0.2-0.5
	c0.2,0.1,0.4,0.3,0.7,0.2c0-0.3-0.3-0.4-0.4-0.6c0.2,0.1,0.5,0,0.7-0.1C26.8,21.5,26.5,21.4,26.3,21.4z"/>
<path class="st0" d="M26.6,19.9c0.2,0,0.4,0,0.6-0.4C26.9,19.4,26.7,19.6,26.6,19.9z"/>
<path class="st0" d="M21.8,10.3c-6.6,0.2-11.7,5.7-11.5,12.3c0.2,6.6,5.7,11.7,12.3,11.5c6.6-0.2,11.7-5.7,11.5-12.3c0,0,0,0,0,0
	C33.9,15.2,28.4,10.1,21.8,10.3z M32.4,22.4c-0.2,0.1-0.4,0.1-0.6,0.3c0,0.2,0.2,0.3,0.3,0.4s0.1,0.3,0.2,0.4
	c-0.3,0.1-0.6,0.1-0.9,0.1c-0.2,0.2,0.1,0.4,0.1,0.5s0.2,0.2,0,0.3c-0.3,0-0.6,0-0.9,0l-0.1,0.1c-0.2,0.2,0,0.5-0.1,0.7
	c-0.3,0.1-0.8-0.2-0.9,0.3c0,0.1-0.1,0.2-0.2,0.2c-0.3,0-0.6-0.2-0.8,0s-0.1,0.5-0.4,0.4C28,26,27.8,26,27.7,26
	c-0.2,0.1-0.2,0.4-0.3,0.5s-0.3-0.2-0.5-0.2l-0.3,0.3c-0.2,0-0.3-0.2-0.5-0.1s-0.2,0.3-0.4,0.3l-0.3-0.3c-0.2,0-0.2,0.2-0.4,0.2
	c-0.5-0.3-0.5-0.8-0.6-1.3c-0.3-0.1-0.3,0-0.3,0c0,0.5-0.4,0.9-0.1,1.4c0.4,0.5,0.9,1.1,1.4,1.5c0.3,0.2,0.7,0,1.1,0.2l0,0
	c0.1,0,0.1,0.1,0.2,0.1c0.4,0,0.8,0,1,0.3c0,0.1,0,0.3-0.1,0.4c-0.2,0.3-0.6,0.1-0.8,0.3s-0.3,0.2-0.4,0.1s-0.2-0.2-0.3-0.2
	c-0.1,0.1-0.3,0.2-0.5,0.2c-0.1-0.1-0.2-0.2-0.4-0.2c0,0.2,0.1,0.4,0.2,0.6c0.2,0.2,0.3,0.4,0.3,0.7c-0.2,0.1-0.4,0.2-0.4,0.4
	c-0.2,0-0.3,0.1-0.4,0.2c-0.1,0.1,0,0.2-0.2,0.3h-0.4c-0.2,0.1-0.2,0.3-0.4,0.2s-0.2-0.1-0.4,0s-0.2,0.3-0.3,0.4l-0.5-0.2
	c-0.2,0-0.3,0.4-0.6,0.3S21.9,32,21.6,32l-0.4,0.1c-0.1-0.1-0.2-0.2-0.3-0.2h-0.3c-0.2-0.1-0.2-0.3-0.3-0.4s-0.4,0.1-0.4-0.1
	s-0.4-0.2-0.5-0.4s-0.4-0.2-0.3-0.5c0.1-0.3,0.3-0.6,0.5-0.9c-0.4-0.1-0.5,0.1-0.7,0.1s-0.4-0.3-0.5,0c-0.2,0.1-0.4-0.1-0.6-0.1
	c-0.4,0-0.8,0.1-1-0.3c-0.1-0.2,0-0.3,0.1-0.4c0.3-0.3,0.9,0,1.3-0.3l0,0c0.4-0.1,0.8,0.1,1.1-0.2c0.4-0.3,0.8-0.7,1.2-1.1
	c0.1-0.3,0.3-0.6,0.2-0.9l-0.3-1.1c-0.4,0.2-0.2,0.7-0.3,1c0,0.2-0.1,0.3-0.3,0.4c-0.2,0-0.3-0.2-0.5-0.1s-0.3,0.3-0.5,0.2
	s-0.3-0.4-0.5-0.3s-0.3,0.4-0.5,0.3s-0.2-0.3-0.4-0.3s-0.2,0.1-0.4,0.1s-0.3-0.6-0.7-0.3c-0.1,0-0.2,0.1-0.3,0
	c-0.1-0.1-0.1-0.4-0.3-0.5s-0.4,0.1-0.6,0s0-0.4-0.2-0.5s-0.6,0.1-1,0.1c0-0.2,0.2-0.4,0.2-0.5s0.1-0.2,0.1-0.3v-0.1
	c-0.2-0.2-0.4,0-0.6-0.1s-0.3,0-0.4-0.2c0-0.2,0.1-0.5,0.2-0.7c-0.1-0.3-0.5-0.1-0.7-0.1s-0.3-0.1-0.4-0.2s0.3-0.4,0.3-0.6
	s-0.3-0.1-0.4-0.2s-0.4-0.1-0.3-0.3s0.4-0.5,0.6-0.7c-0.1-0.3-0.4-0.4-0.6-0.6c0.2-0.3,0.4-0.5,0.7-0.7c0.1-0.1,0-0.2-0.1-0.3
	l-0.6-0.6c0.2-0.2,0.5-0.3,0.8-0.4c-0.1-0.3-0.2-0.6-0.4-0.8c0.4-0.2,0.8,0,1.2-0.2c-0.2-0.3-0.4-0.6-0.6-0.9c0-0.1,0.2,0,0.3-0.1
	c0.3,0,0.6,0.1,1,0.1c-0.3-0.3-0.5-0.7-0.6-1.2c0.6,0.1,1.2,0.4,1.7,0.8c-0.1-0.6-0.8-1-0.8-1.6c0.7,0.3,1.4,0.7,1.9,1.2
	c-0.3-0.6-0.3-1.1-0.7-1.5c-0.1-0.3-0.1-0.5-0.1-0.8c0.2,0,0.2,0.2,0.4,0.2c0.3,0.4,0.6,0.8,0.9,1.2c0.3,0,0.2-0.2,0.2-0.4
	s-0.1-0.5-0.2-0.7c-0.1-0.3-0.1-0.7,0-1c0.4,0.1,0.4,0.4,0.6,0.6s0.2,0.7,0.3,1.1c0.1,0.1,0,0.3,0.1,0.4c0.3,0,0.1-0.3,0.1-0.5
	c0.1-0.4,0.1-0.9,0-1.3c-0.1-0.4,0.1-0.8,0.4-1.1h0.1c0.1,0.3,0.1,0.7,0.1,1c0.1,0.2,0,0.4,0.1,0.6c0.2,0,0.2-0.3,0.5-0.3
	c0.1,0.2,0,0.4,0.1,0.6v1.4c-0.1,0.6-0.2,1.2-0.3,1.9c-0.2,0.8-0.2,1.6,0.1,2.3c0.3,0.4,0.4,0.9,0.5,1.4c0.2,0.4,0.6,0.6,0.7,1.1
	c0.1,0.1,0.2,0.1,0.3,0.1c0.3-0.3,0.5,0.4,0.8,0.1c0.2-0.2,0.3-0.4,0.3-0.7c-0.1-0.2-0.1-0.4-0.3-0.5c-0.3-0.1-0.6-0.3-0.8-0.6
	c0.1-0.1,0.2,0,0.3,0s0.4,0.1,0.6,0.1c-0.2-0.3-0.4-0.6-0.8-0.7C20.8,20,21,20,21.1,20c0.8,0.2,1.5,0.5,2.1,1
	c0.3,0.4,0.5,0.8,0.6,1.3c0.1,0.4,0.6,0.1,0.8,0.2c0.5-0.6,1-1.1,1-1.8c0.1-0.7,0.3-1.3,0.5-2c-0.2-1.7-0.2-3.3-0.2-5
	c0.1-0.1,0.2,0.2,0.3,0.2c0.2-0.5,0.1-1,0.4-1.2c0.3,0.1,0.3,0.4,0.4,0.7v1.4c0.3-0.5,0.4-1.1,0.9-1.4c0.1,0.4,0.1,0.8,0,1.2
	c0,0.2-0.2,0.4-0.3,0.7c-0.1,0.2-0.1,0.4,0,0.6c0.1,0.1,0.2-0.1,0.2-0.2c0.3-0.6,0.7-1.1,1.2-1.5c0.3,0,0.2,0.2,0.2,0.3
	S29,14.9,29,15.2c-0.3,0.3-0.5,0.6-0.6,1c-0.1,0.1-0.2,0.2-0.1,0.4c0.2-0.1,0.3-0.2,0.4-0.4c0.4-0.5,1-0.9,1.6-1.1
	c0.1,0.4-0.3,0.6-0.3,1c-0.2,0.4-0.5,0.7-0.8,0.9c-0.1,0.1-0.2,0.2-0.2,0.3s0.2,0,0.3-0.1c0.6-0.4,1.2-0.7,1.9-0.9
	c0.2,0.3,0,0.4-0.2,0.6c-0.3,0.2-0.6,0.4-0.8,0.7c0.2,0.2,0.4,0,0.6,0c0.3-0.2,0.7-0.2,1.1-0.2c-0.2,0.4-0.5,0.6-0.6,0.9
	c0.1,0.2,0.3,0,0.5,0c0.3,0,0.5,0.1,0.7,0.3c-0.2,0.3-0.5,0.4-0.7,0.6c0.2,0.3,0.5,0.2,0.7,0.3s0.2,0.1,0.3,0.2
	c-0.2,0.3-0.6,0.4-0.7,0.7c0.1,0.2,0.4,0.2,0.6,0.3c0.2,0.1,0.4,0.2,0.5,0.4c-0.3,0.2-0.5,0.3-0.8,0.5c-0.1,0.1-0.1,0.2,0,0.2
	c0.2,0.2,0.4,0.3,0.5,0.5C32.7,22.3,32.5,22.3,32.4,22.4z"/>
<path class="st0" d="M16.6,9.6c0.8-0.4,1.1-1.3,0.5-2.7s-1.5-1.8-2.3-1.4s-1.1,1.3-0.5,2.7S15.7,9.9,16.6,9.6z"/>
<path class="st0" d="M26.6,19.3c0,0.1-0.1,0.2,0,0.2c0.2,0,0.4-0.1,0.6-0.2c0.1-0.1,0.2-0.2,0.1-0.3l-0.1-0.1
	C27,18.9,26.8,19.1,26.6,19.3z"/>
<path class="st0" d="M24.5,29.8c0.1,0.1,0.2,0.3,0.4,0.2c-0.5-0.5-1-1-1.5-1.5h-0.1C23.6,29,24,29.4,24.5,29.8z"/>
<path class="st0" d="M69.9,28.9c1.4,0,1.7-1.3,1.7-2.4s-0.4-2.4-1.7-2.4s-1.7,1.4-1.7,2.4S68.7,28.9,69.9,28.9z"/>
<path class="st0" d="M65,40.9c0,0.8,0.5,1,1.2,1c1.7,0,1.7-1.5,1.7-2.1v-0.4h-0.2C66.4,39.5,65,39.6,65,40.9z"/>
<path class="st0" d="M24.2,29c0.2,0.1,0.4,0.6,0.8,0.4c0.1-0.1,0.2-0.3,0.1-0.5L24.2,29z"/>
<path class="st0" d="M23,28.6c0,0.2,0.1,0.3,0.2,0.4c0.4,0.6,0.9,1.1,1.4,1.6c0.1-0.1,0.1-0.2,0.1-0.3c-0.2-0.3-0.5-0.6-0.8-0.9
	C23.6,29.1,23.3,28.8,23,28.6z"/>
<path class="st0" d="M63.9,24.1c-1,0.1-1.8,1-1.7,2h3.2C65.4,25.1,65,24.1,63.9,24.1z"/>
<path class="st0" d="M23.5,27.4c0,0.2-0.2,0.4-0.2,0.7s0.3,0.3,0.4,0.4l0,0l0.1,0.1l0.9-0.1h0.4l-0.6-0.6c-0.2-0.2-0.5-0.2-0.7-0.3
	S23.6,27.3,23.5,27.4z"/>
<path class="st0" d="M56.2,22.1h-1.1v6.6h0.6c2.3,0,3.7-0.9,3.7-3.4S58,22.1,56.2,22.1z"/>
<path class="st0" d="M74.3,27.9c0,0.8,0.5,1,1.2,1c1.7,0,1.7-1.5,1.7-2.1v-0.4H77C75.7,26.5,74.3,26.6,74.3,27.9z"/>
<polygon class="st0" points="7.4,23.8 5.7,23.4 5.9,24.7 "/>
<polygon class="st0" points="172.7,5.2 172.7,5.2 171.5,8.3 173.8,8.3 "/>
<path class="st0" d="M155.4,37.1c-1,0.1-1.8,1-1.7,2h3.2C156.8,38.1,156.4,37.1,155.4,37.1z"/>
<path class="st0" d="M144.7,10.3c1.1,0,1.4-1,1.4-2c0.1-0.8-0.5-1.6-1.3-1.7c0,0-0.1,0-0.1,0c-1,0-1.4,0.8-1.4,1.7
	S143.6,10.3,144.7,10.3z"/>
<path class="st0" d="M124.6,10.3c1.1,0,1.4-1,1.4-2c0.1-0.8-0.5-1.6-1.3-1.7c0,0-0.1,0-0.1,0c-1,0-1.4,0.8-1.4,1.7
	S123.5,10.3,124.6,10.3z"/>
<path class="st0" d="M154.7,28.9c1.3,0,1.9-1.1,1.9-2.4s-0.7-2.4-1.9-2.4s-1.9,1.1-1.9,2.4S153.4,28.9,154.7,28.9z"/>
<path class="st0" d="M211.6,10.4c0.4,0,0.8-0.2,1-0.5c0.2-0.4,0.3-0.8,0.3-1.2h-0.6c-0.7,0-1.6,0.1-1.6,1
	C210.7,10.2,211.1,10.4,211.6,10.4z"/>
<path class="st0" d="M27.3,29.2v-0.3c-0.2-0.1-0.4-0.1-0.6-0.1c-0.2,0-0.4,0.3-0.4,0.5C26.7,29.4,27.1,29.5,27.3,29.2z"/>
<path class="st0" d="M199.5,10.4c0.4,0,0.8-0.2,1-0.5c0.2-0.4,0.3-0.8,0.3-1.2h-0.6c-0.7,0-1.6,0.1-1.6,1
	C198.5,10.2,199,10.4,199.5,10.4z"/>
<path class="st0" d="M176.7,24.1c-1,0.1-1.8,1-1.7,2h3.2C178.1,25.1,177.7,24.1,176.7,24.1z"/>
<path class="st0" d="M104.3,6.6c-0.7,0-1.3,0.6-1.3,1.3h2.5C105.4,7.2,105.1,6.6,104.3,6.6z"/>
<path class="st0" d="M165.7,37.1c-1.3,0-1.9,1.1-1.9,2.4s0.7,2.4,1.9,2.4s1.9-1.1,1.9-2.4S166.9,37.1,165.7,37.1z"/>
<path class="st0" d="M18.2,19.9c-0.1-0.5-0.1-1,0.1-1.4c0.1-0.3-0.2-0.5-0.3-0.7l-0.2-0.2c-0.3,0.2,0.1,0.5,0.1,0.7
	c-0.1,0-0.1-0.2-0.2-0.2s-0.1,0.2-0.1,0.3s0.3,0.3,0.5,0.5c-0.1,0-0.3-0.1-0.5,0l0.5,0.5c-0.1,0.1-0.2-0.1-0.5,0v0.3
	C17.8,20,18,20.1,18.2,19.9z"/>
<path class="st0" d="M18.3,17.3c-0.1-0.1,0-0.3-0.2-0.3s-0.1,0.2-0.2,0.3c0.1,0.3,0.3,0.6,0.5,0.8C18.4,17.9,18.3,17.7,18.3,17.3z"
	/>
<path class="st0" d="M187,37.1c-1,0.1-1.8,1-1.7,2h3.2C188.5,38.1,188.1,37.1,187,37.1z"/>
<path class="st0" d="M18.7,16.8v-0.4l-0.1-0.1c-0.2,0-0.3,0.3-0.4,0.5c0.1,0.3,0.2,0.6,0.3,1C18.7,17.5,18.7,17.1,18.7,16.8z"/>
<path class="st0" d="M135.9,40.9c0,0.8,0.5,1,1.2,1c1.7,0,1.7-1.5,1.7-2.1v-0.4h-0.2C137.4,39.5,135.9,39.6,135.9,40.9z"/>
<path class="st0" d="M19.2,20.9c-0.1-0.3,0-0.6-0.2-0.8c-0.1,0.1,0,0.3,0,0.4s-0.1-0.1-0.4-0.2c-0.1,0.1,0,0.3,0.1,0.4
	s0.2,0.2,0,0.3s-0.3-0.2-0.4-0.2c-0.1,0-0.2,0-0.3,0.1c0,0.2,0.1,0.3,0.4,0.5c-0.1,0.1-0.3,0.1-0.4,0.2s-0.2,0.1-0.2,0.3
	c0.2,0.2,0.4,0,0.6,0c-0.1,0.1-0.2,0.2-0.2,0.4c-0.1,0.1,0,0.2,0.1,0.2s0.4-0.2,0.6-0.2c-0.1,0.2-0.2,0.3,0,0.6
	c0.2,0,0.3-0.2,0.4-0.1c0,0.1,0,0.2,0.1,0.3c0.2,0,0.4-0.1,0.5-0.3c0.1-0.3-0.1-0.6-0.2-0.9C19.6,21.4,19.2,21.2,19.2,20.9z"/>
<path class="st0" d="M18.7,28.8c-0.2,0-0.2,0.2-0.3,0.4c0.2,0.2,0.4,0.1,0.6,0.1s0.2-0.2,0.1-0.4S18.8,28.9,18.7,28.8z"/>
<path class="st0" d="M17.1,29.1c0,0.1,0,0.2,0.1,0.2c0.3,0.1,0.7,0.1,1-0.1c0.1-0.1,0.1-0.2,0.1-0.3h-0.2
	C17.7,28.9,17.3,28.7,17.1,29.1z"/>
<path class="st0" d="M64.7,10.3c1.1,0,1.4-1,1.4-2c0.1-0.8-0.5-1.6-1.3-1.7c0,0-0.1,0-0.1,0c-1,0-1.4,0.8-1.4,1.7
	S63.5,10.3,64.7,10.3z"/>
<path class="st0" d="M77.2,6.6c-0.7,0-1.3,0.6-1.3,1.3h2.5C78.4,7.2,78.1,6.6,77.2,6.6z"/>
<path class="st0" d="M150.7,36.5c0-1.3-0.9-1.4-2-1.4h-0.8V38h0.8C149.6,38,150.7,37.6,150.7,36.5z"/>
<polygon class="st0" points="28.9,37.6 30.1,37 28.7,35.8 "/>
<polygon class="st0" points="38.7,25.1 38.9,23.8 37.2,24.3 "/>
<path class="st0" d="M24.4,37.2c-0.1-0.8-0.5-1-1.1-1h-0.4l0.2,2.2h0.3C24.1,38.3,24.4,38,24.4,37.2z"/>
<path class="st1" d="M60.2,25.4c0-2.3-1.1-4-4-4h-2v8h1.4C58.3,29.4,60.2,28.3,60.2,25.4z M55.7,28.7h-0.6v-6.6h1.2
	c1.8,0,3.2,0.8,3.2,3.2S58,28.7,55.7,28.7z"/>
<path class="st1" d="M65.8,28.5c-0.5,0.2-1,0.4-1.6,0.4c-1.3,0-1.9-1-1.9-2.2h4v-0.4c0-1.6-0.7-2.9-2.3-2.9s-2.5,1.3-2.5,3
	s0.7,3,2.6,3c0.6,0,1.2-0.1,1.7-0.3V28.5z M63.9,24.1c1.1,0,1.5,1,1.5,2h-3.2C62.1,25.1,62.9,24.2,63.9,24.1z"/>
<path class="st1" d="M67.5,23.6v8.2h0.7v-3.4l0,0c0.3,0.7,1,1.2,1.8,1.1c1.6,0,2.4-1.3,2.4-3s-0.7-3-2.4-3c-0.8,0-1.5,0.5-1.9,1.2
	l0,0v-1.1H67.5z M69.9,24.1c1.4,0,1.7,1.3,1.7,2.4s-0.4,2.4-1.7,2.4s-1.7-1.4-1.7-2.4S68.7,24.1,69.9,24.1z"/>
<path class="st1" d="M77,25.9c-1.5,0-3.6,0.1-3.6,2c0,0.5,0.3,1.6,1.9,1.6c0.8,0,1.5-0.4,1.8-1.1l0,0v0.9h0.7
	c-0.1-0.4-0.1-0.8-0.1-1.2v-2.6c0-1.5-0.6-2.2-2-2.2c-0.6,0-1.2,0.2-1.7,0.4v0.7c0.5-0.3,1.1-0.5,1.7-0.5c1,0,1.3,0.5,1.3,1.5v0.3
	l0,0V25.9z M77.2,26.8c0,0.6,0,2.1-1.7,2.1c-0.7,0-1.2-0.3-1.2-1c0-1.3,1.5-1.4,2.7-1.4h0.2V26.8z"/>
<path class="st1" d="M80.3,29.4v-2.9c0-1,0.3-2.3,1.4-2.3c0.2,0,0.4,0,0.5,0.1v-0.8c-0.2,0-0.3-0.1-0.5-0.1c-0.7,0-1.2,0.6-1.5,1.3
	l0,0v-1.1h-0.7v5.8L80.3,29.4z"/>
<path class="st1" d="M85.4,28.9c-0.6,0-0.8-0.4-0.8-1v-3.8h1.3v-0.6h-1.3v-1.7l-0.7,0.3v1.4h-1.1v0.6h1.1v3.4c0,1.1,0,1.9,1.3,1.9
	c0.3,0,0.6-0.1,0.9-0.2v-0.6C85.9,28.8,85.7,28.9,85.4,28.9z"/>
<path class="st1" d="M94.2,25.5v3.9h0.7v-4c0.1-1-0.6-1.8-1.6-1.9c-0.1,0-0.1,0-0.2,0c-0.8,0-1.6,0.4-1.9,1.2l0,0
	c-0.1-0.7-0.8-1.2-1.5-1.2c-0.8-0.1-1.5,0.4-1.8,1.1l0,0v-1h-0.7v5.8h0.7v-3.2c0-1.4,0.8-2.1,1.6-2.1s1.2,0.6,1.2,1.5v3.9h0.7v-3.2
	c0-1.4,0.8-2.1,1.6-2.1S94.2,24.7,94.2,25.5z"/>
<path class="st1" d="M100.6,29.2v-0.7c-0.5,0.2-1,0.4-1.6,0.4c-1.3,0-1.9-1-1.9-2.2h4v-0.4c0-1.6-0.7-2.9-2.3-2.9s-2.5,1.3-2.5,3
	s0.7,3,2.6,3C99.5,29.5,100.1,29.4,100.6,29.2z M98.8,24.1c1.1,0,1.5,1,1.5,2h-3.2C97,25.1,97.7,24.2,98.8,24.1
	C98.8,24.1,98.8,24.1,98.8,24.1z"/>
<path class="st1" d="M105,23.5c-0.8,0-1.6,0.4-1.9,1.2l0,0v-1h-0.7v5.8h0.7v-3.2c0-1,0.4-2.1,1.7-2.1c1,0,1.4,0.7,1.4,1.8v3.5h0.7
	v-3.7C106.9,24.4,106.4,23.5,105,23.5z"/>
<path class="st1" d="M109.2,22.2v1.4h-1.1v0.6h1.1v3.4c0,1.1,0,1.9,1.3,1.9c0.3,0,0.6-0.1,0.9-0.2v-0.6c-0.2,0.1-0.5,0.1-0.7,0.1
	c-0.6,0-0.8-0.4-0.8-1V24h1.3v-0.6h-1.3v-1.7L109.2,22.2z"/>
<path class="st1" d="M118,23.5c-1.5,0-2.7,1.2-2.7,2.7c0,0.1,0,0.2,0,0.3c0,1.6,0.8,3,2.7,3c1.5,0,2.7-1.2,2.7-2.7
	c0-0.1,0-0.2,0-0.3C120.7,24.9,119.9,23.5,118,23.5z M118,28.9c-1.3,0-1.9-1.1-1.9-2.4s0.7-2.4,1.9-2.4s1.9,1.1,1.9,2.4
	S119.2,28.9,118,28.9z"/>
<path class="st1" d="M122.5,23.2v0.4h-1.2v0.6h1.2v5.2h0.7v-5.2h1.3v-0.6h-1.3v-0.5c0-0.7-0.1-1.8,0.9-1.8c0.2,0,0.4,0,0.6,0.1v-0.6
	c-0.1-0.1-0.4-0.1-0.7-0.1C122.6,20.7,122.5,21.9,122.5,23.2z"/>
<polygon class="st1" points="133,22.1 133,21.4 129.1,21.4 129.1,29.4 133.1,29.4 133.1,28.7 129.9,28.7 129.9,25.7 132.8,25.7 
	132.8,25 129.9,25 129.9,22.1 "/>
<path class="st1" d="M135.4,29.4v-3.2c0-1,0.4-2.1,1.7-2.1c1,0,1.4,0.7,1.4,1.8v3.5h0.7v-3.7c0-1.3-0.5-2.2-2-2.2
	c-0.8,0-1.6,0.4-1.9,1.2l0,0v-1h-0.7v5.8h0.8V29.4z"/>
<polygon class="st1" points="142.7,28.6 142.6,28.6 141,23.6 140.2,23.6 142.2,29.4 143.1,29.4 145.1,23.6 144.4,23.6 "/>
<rect x="146.1" y="23.6" class="st1" width="0.7" height="5.8"/>
<rect x="146.1" y="21.1" class="st1" width="0.7" height="1"/>
<path class="st1" d="M148.6,23.6v5.8h0.7v-2.9c0-1,0.3-2.3,1.4-2.3c0.2,0,0.4,0,0.5,0.1v-0.8c-0.2,0-0.3-0.1-0.5-0.1
	c-0.7,0-1.2,0.6-1.5,1.3l0,0v-1.1H148.6z"/>
<path class="st1" d="M154.7,29.5c1.5,0,2.7-1.2,2.7-2.7c0-0.1,0-0.2,0-0.3c0-1.6-0.8-3-2.7-3c-1.5,0-2.7,1.2-2.7,2.7
	c0,0.1,0,0.2,0,0.3C152,28.1,152.8,29.5,154.7,29.5z M154.7,24.1c1.3,0,1.9,1.1,1.9,2.4s-0.7,2.4-1.9,2.4s-1.9-1.1-1.9-2.4
	S153.4,24.1,154.7,24.1z"/>
<path class="st1" d="M163.3,29.4v-3.7c0-1.3-0.5-2.2-2-2.2c-0.8,0-1.6,0.4-1.9,1.2l0,0v-1h-0.7v5.8h0.7v-3.2c0-1,0.4-2.1,1.7-2.1
	c1,0,1.4,0.7,1.4,1.8v3.5L163.3,29.4L163.3,29.4z"/>
<path class="st1" d="M170.9,24.1c0.9,0,1.2,0.6,1.2,1.5v3.9h0.7v-4c0.1-1-0.6-1.8-1.6-1.9c-0.1,0-0.1,0-0.2,0
	c-0.8,0-1.6,0.4-1.9,1.2l0,0c-0.1-0.7-0.8-1.2-1.5-1.2c-0.8-0.1-1.5,0.4-1.8,1.1l0,0v-1h-0.7v5.8h0.7v-3.2c0-1.4,0.8-2.1,1.6-2.1
	s1.2,0.6,1.2,1.5v3.9h0.7v-3.2C169.3,24.7,170.1,24.1,170.9,24.1z"/>
<path class="st1" d="M176.6,23.5c-1.5,0-2.5,1.3-2.5,3s0.7,3,2.6,3c0.6,0,1.2-0.1,1.7-0.3v-0.7c-0.5,0.2-1,0.4-1.6,0.4
	c-1.3,0-1.9-1-1.9-2.2h4v-0.4C178.9,24.8,178.2,23.5,176.6,23.5z M174.9,26.1c-0.1-1,0.6-1.9,1.6-2c0,0,0,0,0.1,0c1.1,0,1.5,1,1.5,2
	H174.9z"/>
<path class="st1" d="M184.8,29.4v-3.7c0-1.3-0.5-2.2-2-2.2c-0.8,0-1.6,0.4-1.9,1.2l0,0v-1h-0.7v5.8h0.7v-3.2c0-1,0.4-2.1,1.7-2.1
	c1,0,1.4,0.7,1.4,1.8v3.5L184.8,29.4L184.8,29.4z"/>
<path class="st1" d="M188.6,28.9c-0.6,0-0.8-0.4-0.8-1v-3.8h1.3v-0.6h-1.3v-1.7l-0.7,0.3v1.4H186v0.6h1.1v3.4c0,1.1,0,1.9,1.3,1.9
	c0.3,0,0.6-0.1,0.9-0.2v-0.6C189.1,28.8,188.9,28.9,188.6,28.9z"/>
<polygon class="st1" points="191.8,28.4 190.8,28.4 190.1,30.9 190.9,30.9 "/>
<polygon class="st1" points="61.3,41.5 61.3,41.5 59.3,34.4 58.3,34.4 56.3,41.5 56.2,41.5 54.3,34.4 53.5,34.4 55.8,42.4 
	56.7,42.4 58.8,35.3 58.8,35.3 60.8,42.4 61.7,42.4 64,34.4 63.3,34.4 "/>
<path class="st1" d="M68.6,38.6c0-1.5-0.6-2.2-2-2.2c-0.6,0-1.2,0.2-1.7,0.4v0.7c0.5-0.3,1.1-0.5,1.7-0.5c1,0,1.3,0.5,1.3,1.5v0.3
	h-0.1c-1.5,0-3.6,0.1-3.6,2c0,0.5,0.3,1.6,1.9,1.6c0.8,0,1.5-0.4,1.8-1.1l0,0v0.9h0.7c-0.1-0.4-0.1-0.8-0.1-1.2L68.6,38.6L68.6,38.6
	z M67.9,39.8c0,0.6,0,2.1-1.7,2.1c-0.7,0-1.2-0.3-1.2-1c0-1.3,1.5-1.4,2.7-1.4h0.2V39.8z"/>
<path class="st1" d="M72.3,41.9c-0.6,0-0.8-0.4-0.8-1v-3.8h1.3v-0.6h-1.3v-1.7l-0.7,0.3v1.4h-1.1v0.6h1.1v3.4c0,1.1,0,1.9,1.3,1.9
	c0.3,0,0.6-0.1,0.9-0.2v-0.6C72.8,41.8,72.6,41.9,72.3,41.9z"/>
<path class="st1" d="M76.1,36.5c-1.5,0-2.5,1.3-2.5,3s0.7,3,2.6,3c0.6,0,1.2-0.1,1.7-0.3v-0.7c-0.5,0.2-1,0.4-1.6,0.4
	c-1.3,0-1.9-1-1.9-2.2h4v-0.4C78.4,37.8,77.8,36.5,76.1,36.5z M74.5,39.1c-0.1-1,0.6-1.9,1.6-2c0,0,0,0,0.1,0c1.1,0,1.5,1,1.5,2
	H74.5z"/>
<path class="st1" d="M80.5,37.7L80.5,37.7v-1.1h-0.7v5.8h0.7v-2.9c0-1,0.3-2.3,1.4-2.3c0.2,0,0.4,0,0.5,0.1v-0.8
	c-0.2,0-0.3-0.1-0.5-0.1C81.3,36.6,80.7,37.1,80.5,37.7z"/>
<path class="st1" d="M90.8,38.6c0-1.5-0.6-2.2-2-2.2c-0.6,0-1.2,0.2-1.7,0.4v0.7c0.5-0.3,1.1-0.5,1.7-0.5c1,0,1.3,0.5,1.3,1.5v0.3
	H90c-1.5,0-3.6,0.1-3.6,2c0,0.5,0.3,1.6,1.9,1.6c0.8,0,1.5-0.4,1.8-1.1l0,0v0.9h0.7c-0.1-0.4-0.1-0.8-0.1-1.2L90.8,38.6L90.8,38.6z
	 M90,39.8c0,0.6,0,2.1-1.7,2.1c-0.7,0-1.2-0.3-1.2-1c0-1.3,1.5-1.4,2.7-1.4H90V39.8z"/>
<path class="st1" d="M95,36.5c-0.8,0-1.6,0.4-1.9,1.2l0,0v-1h-0.7v5.8h0.7v-3.2c0-1,0.4-2.1,1.7-2.1c1,0,1.4,0.7,1.4,1.8v3.5h0.7
	v-3.7C97,37.4,96.5,36.5,95,36.5z"/>
<path class="st1" d="M102.7,37.6L102.7,37.6c-0.3-0.7-1-1.1-1.8-1.1c-1.7,0-2.4,1.3-2.4,3s0.8,3,2.4,3c0.8,0.1,1.5-0.4,1.8-1.1l0,0
	v0.9h0.7v-8.5h-0.7V37.6z M101,41.9c-1.4,0-1.7-1.3-1.7-2.4s0.4-2.4,1.7-2.4s1.7,1.4,1.7,2.4S102.3,41.9,101,41.9z"/>
<polygon class="st1" points="113.4,41.4 113.3,41.4 109.3,34.4 108.3,34.4 108.3,42.4 109.1,42.4 109.1,35.5 109.1,35.5 113.1,42.4 
	114.1,42.4 114.1,34.4 113.4,34.4 "/>
<path class="st1" d="M119.9,38.6c0-1.5-0.6-2.2-2-2.2c-0.6,0-1.2,0.2-1.7,0.4v0.7c0.5-0.3,1.1-0.5,1.7-0.5c1,0,1.3,0.5,1.3,1.5v0.3
	h-0.1c-1.5,0-3.6,0.1-3.6,2c0,0.5,0.3,1.6,1.9,1.6c0.8,0,1.5-0.4,1.8-1.1l0,0v0.9h0.7c-0.1-0.4-0.1-0.8-0.1-1.2L119.9,38.6
	L119.9,38.6z M119.2,39.8c0,0.6,0,2.1-1.7,2.1c-0.7,0-1.2-0.3-1.2-1c0-1.3,1.5-1.4,2.7-1.4h0.2V39.8z"/>
<path class="st1" d="M123.6,41.9c-0.6,0-0.8-0.4-0.8-1v-3.8h1.3v-0.6h-1.3v-1.7l-0.7,0.3v1.4H121v0.6h1.1v3.4c0,1.1,0,1.9,1.3,1.9
	c0.3,0,0.6-0.1,0.9-0.2v-0.6C124.1,41.8,123.9,41.9,123.6,41.9z"/>
<path class="st1" d="M130,36.6h-0.7v3.2c0,1-0.4,2.1-1.7,2.1c-1,0-1.4-0.7-1.4-1.8v-3.5h-0.7v3.7c0,1.3,0.5,2.2,2,2.2
	c0.8,0.1,1.6-0.4,1.9-1.2l0,0v1h0.7v-5.7H130z"/>
<path class="st1" d="M132.5,37.7L132.5,37.7v-1.1h-0.7v5.8h0.7v-2.9c0-1,0.3-2.3,1.4-2.3c0.2,0,0.4,0,0.5,0.1v-0.8
	c-0.2,0-0.3-0.1-0.5-0.1C133.2,36.5,132.7,37,132.5,37.7z"/>
<path class="st1" d="M139.5,38.6c0-1.5-0.6-2.2-2-2.2c-0.6,0-1.2,0.2-1.7,0.4v0.7c0.5-0.3,1.1-0.5,1.7-0.5c1,0,1.3,0.5,1.3,1.5v0.3
	h-0.1c-1.5,0-3.6,0.1-3.6,2c0,0.5,0.3,1.6,1.9,1.6c0.8,0,1.5-0.4,1.8-1.1l0,0v0.9h0.7c-0.1-0.4-0.1-0.8-0.1-1.2v-2.4H139.5z
	 M138.8,39.8c0,0.6,0,2.1-1.7,2.1c-0.7,0-1.2-0.3-1.2-1c0-1.3,1.5-1.4,2.7-1.4h0.2V39.8z"/>
<rect x="141.3" y="33.9" class="st1" width="0.7" height="8.5"/>
<path class="st1" d="M149.7,38.4L149.7,38.4c1,0,1.8-0.9,1.8-1.9c0-1.5-0.9-2.1-2.3-2.1h-2.1v8h0.8v-3.8h0.7c0.8,0,1.1,0,1.5,1.1
	l1.2,2.7h0.9l-1.4-3.1C150.5,38.8,150.3,38.4,149.7,38.4z M148.7,38h-0.8v-2.8h0.8c1.1,0,2,0.1,2,1.4C150.7,37.6,149.6,38,148.7,38z
	"/>
<path class="st1" d="M155.3,36.5c-1.5,0-2.5,1.3-2.5,3s0.7,3,2.6,3c0.6,0,1.2-0.1,1.7-0.3v-0.7c-0.5,0.2-1,0.4-1.6,0.4
	c-1.3,0-1.9-1-1.9-2.2h4v-0.4C157.6,37.8,157,36.5,155.3,36.5z M153.6,39.1c-0.1-1,0.6-1.9,1.6-2c0,0,0,0,0.1,0c1.1,0,1.5,1,1.5,2
	H153.6z"/>
<path class="st1" d="M159.3,38c0-0.7,0.5-1,1.3-1c0.5,0,0.9,0.1,1.3,0.3l0.1-0.6c-0.4-0.2-0.9-0.3-1.4-0.3c-1,0-1.9,0.4-1.9,1.6
	c0,1.7,2.8,1.5,2.8,2.8c0,0.7-0.6,1-1.3,1c-0.5,0-1.1-0.1-1.5-0.4l-0.1,0.7c0.5,0.2,1.1,0.3,1.6,0.3c0.9,0,2-0.4,2-1.7
	C162.1,39,159.3,39.1,159.3,38z"/>
<path class="st1" d="M165.7,36.5c-1.5,0-2.7,1.2-2.7,2.7c0,0.1,0,0.2,0,0.3c0,1.6,0.8,3,2.7,3c1.5,0,2.7-1.2,2.7-2.7
	c0-0.1,0-0.2,0-0.3C168.4,37.9,167.6,36.5,165.7,36.5z M165.7,41.9c-1.3,0-1.9-1.1-1.9-2.4s0.7-2.4,1.9-2.4s1.9,1.1,1.9,2.4
	S166.9,41.9,165.7,41.9z"/>
<path class="st1" d="M174.3,36.6h-0.7v3.2c0,1-0.4,2.1-1.7,2.1c-1,0-1.4-0.7-1.4-1.8v-3.5h-0.7v3.7c0,1.3,0.5,2.2,2,2.2
	c0.8,0.1,1.6-0.4,1.9-1.2l0,0v1h0.7v-5.7H174.3z"/>
<path class="st1" d="M176.8,37.7L176.8,37.7v-1.1h-0.7v5.8h0.7v-2.9c0-1,0.3-2.3,1.4-2.3c0.2,0,0.4,0,0.5,0.1v-0.8
	c-0.2,0-0.3-0.1-0.5-0.1C177.5,36.6,177,37.1,176.8,37.7z"/>
<path class="st1" d="M182.4,37.1c0.4,0,0.8,0.1,1.2,0.3l0.1-0.7c-0.4-0.2-0.9-0.2-1.4-0.2c-1.6,0-2.9,1.2-2.9,2.8c0,0.1,0,0.1,0,0.2
	c-0.1,1.5,0.9,2.8,2.4,3c0.1,0,0.2,0,0.4,0c0.5,0,1,0,1.5-0.2l-0.1-0.7c-0.4,0.2-0.8,0.3-1.3,0.3c-1.2,0-2.2-1.1-2.1-2.3
	c0,0,0-0.1,0-0.1c-0.1-1.2,0.7-2.3,1.9-2.4C182.2,37.1,182.3,37.1,182.4,37.1z"/>
<path class="st1" d="M187,36.5c-1.5,0-2.5,1.3-2.5,3s0.7,3,2.6,3c0.6,0,1.2-0.1,1.7-0.3v-0.7c-0.5,0.2-1,0.4-1.6,0.4
	c-1.3,0-1.9-1-1.9-2.2h4v-0.4C189.3,37.8,188.6,36.5,187,36.5z M185.3,39.1c-0.1-1,0.6-1.9,1.6-2c0,0,0,0,0.1,0c1.1,0,1.5,1,1.5,2
	H185.3z"/>
<path class="st1" d="M190.9,38c0-0.7,0.5-1,1.3-1c0.5,0,0.9,0.1,1.3,0.3l0.1-0.6c-0.4-0.2-0.9-0.3-1.4-0.3c-1,0-1.9,0.4-1.9,1.6
	c0,1.7,2.8,1.5,2.8,2.8c0,0.7-0.6,1-1.3,1c-0.5,0-1.1-0.1-1.5-0.4l-0.1,0.7c0.5,0.2,1.1,0.3,1.6,0.3c0.9,0,2-0.4,2-1.7
	C193.8,39,190.9,39.1,190.9,38z"/>
<rect x="53.7" y="16.3" class="st2" width="160.8" height="1.7"/>
<path class="st1" d="M58.1,11.5c0.8,0,1.7-0.2,2.5-0.4V6.9h-3.1v1.2h1.6v2c-0.3,0.1-0.7,0.1-1,0.1c-1.4,0-2.6-1.1-2.6-2.5
	c0-0.1,0-0.1,0-0.2c-0.1-1.4,1-2.7,2.4-2.8c0.1,0,0.2,0,0.4,0c0.7,0,1.4,0.1,2,0.4l0.1-1.3c-0.7-0.2-1.5-0.3-2.3-0.3
	c-2.6,0-4.2,1.5-4.2,4.1S55.6,11.5,58.1,11.5z"/>
<path class="st1" d="M64.7,11.5c1.5,0.1,2.9-1.1,3-2.6c0-0.1,0-0.2,0-0.3c0-1.7-1.3-3-3-3s-3,1.3-3,3c-0.1,1.6,1.2,2.9,2.7,2.9
	C64.5,11.5,64.6,11.5,64.7,11.5z M64.7,6.7c1,0,1.4,0.8,1.4,1.7s-0.3,2-1.4,2s-1.4-1-1.4-2c-0.2-0.8,0.3-1.5,1.1-1.7
	C64.5,6.7,64.6,6.7,64.7,6.7z"/>
<polygon class="st1" points="71.9,11.3 74,5.6 72.5,5.6 71.2,9.8 71.1,9.8 69.7,5.6 68.1,5.6 70.3,11.3 "/>
<path class="st1" d="M77.5,11.5c0.7,0,1.4-0.2,2-0.5V9.8c-0.6,0.3-1.2,0.6-1.9,0.6c-0.8,0.1-1.5-0.5-1.6-1.2c0-0.1,0-0.1,0-0.2h3.9
	c0-2-0.6-3.4-2.7-3.4c-1.8,0-2.6,1.4-2.6,3c-0.2,1.4,0.8,2.7,2.2,2.9C77.1,11.5,77.3,11.5,77.5,11.5z M77.2,6.6
	c0.7,0,1.2,0.5,1.2,1.2c0,0,0,0.1,0,0.1h-2.5C75.9,7.2,76.5,6.6,77.2,6.6z"/>
<path class="st1" d="M82.5,9.2c0-0.8,0-2.3,1.2-2.3c0.2,0,0.5,0,0.7,0.1V5.6h-0.5c-0.8,0.1-1.4,0.6-1.6,1.4l0,0V5.6H81v5.7h1.5V9.2z
	"/>
<path class="st1" d="M86.9,8.5c0-0.7,0.2-1.9,1.3-1.9c0.9,0,1,0.9,1,1.6v3h1.5V7.7c0-1.3-0.6-2.2-1.9-2.2c-0.7,0-1.4,0.3-1.9,0.9
	l0,0V5.6h-1.4v5.7H87L86.9,8.5L86.9,8.5z"/>
<path class="st1" d="M93.6,8.6c0-0.7,0.1-1.9,1.1-1.9c0.8,0,0.8,0.8,0.8,1.3v3.4H97V8.6c0-0.7,0.1-1.9,1.1-1.9
	c0.8,0,0.8,0.8,0.8,1.3v3.4h1.5V7.7c0-1.3-0.4-2.2-1.8-2.2c-0.7,0-1.4,0.4-1.8,1c-0.3-0.7-1-1.1-1.7-1c-0.7,0-1.3,0.3-1.7,0.9l0,0
	V5.6h-1.3v5.7h1.5V8.6z"/>
<path class="st1" d="M104.5,11.5c0.7,0,1.4-0.2,2-0.5V9.8c-0.6,0.3-1.2,0.6-1.9,0.6c-0.8,0.1-1.5-0.5-1.6-1.2c0-0.1,0-0.1,0-0.2h3.9
	c0-2-0.6-3.4-2.7-3.4c-1.8,0-2.6,1.4-2.6,3c-0.2,1.4,0.8,2.7,2.2,2.9C104.1,11.5,104.3,11.5,104.5,11.5z M104.3,6.6
	c0.7,0,1.2,0.5,1.2,1.2c0,0,0,0.1,0,0.1H103c-0.1-0.7,0.4-1.2,1.1-1.3C104.2,6.6,104.2,6.6,104.3,6.6z"/>
<path class="st1" d="M109.5,8.5c0-0.7,0.2-1.9,1.3-1.9c0.9,0,1,0.9,1,1.6v3h1.5V7.7c0-1.3-0.6-2.2-1.9-2.2c-0.7,0-1.4,0.3-1.9,0.9
	l0,0V5.6h-1.4v5.7h1.5L109.5,8.5L109.5,8.5z"/>
<path class="st1" d="M115.2,9.6c-0.1,0.9,0.5,1.7,1.4,1.8c0.1,0,0.2,0,0.4,0c0.4,0,0.7,0,1.1-0.1v-1.2c-0.2,0.1-0.5,0.2-0.7,0.2
	c-0.6,0-0.7-0.5-0.7-0.9V6.7h1.3V5.6h-1.3V4l-1.5,0.5v1.1h-1.1v1.1h1.1V9.6z"/>
<path class="st1" d="M124.6,11.5c1.5,0.1,2.9-1.1,3-2.6c0-0.1,0-0.2,0-0.3c0-1.7-1.3-3-3-3s-3,1.3-3,3c-0.1,1.6,1.2,2.9,2.7,2.9
	C124.4,11.5,124.5,11.5,124.6,11.5z M124.6,6.7c1,0,1.4,0.8,1.4,1.7s-0.3,2-1.4,2s-1.4-1-1.4-2S123.6,6.7,124.6,6.7z"/>
<path class="st1" d="M129.2,11.3h1.5V6.7h1.3V5.6h-1.3V4.9c0-0.4,0.2-0.9,0.7-0.9c0.2,0,0.4,0.1,0.6,0.2l0.1-1.2
	c-0.4-0.1-0.7-0.1-1.1-0.1c-0.9-0.1-1.8,0.7-1.8,1.6c0,0.1,0,0.2,0,0.3v0.8h-1.1v1.1h1.1C129.2,6.7,129.2,11.3,129.2,11.3z"/>
<path class="st1" d="M139.2,9.3c0,0.7-0.8,1-1.4,1c-0.6,0-1.2-0.2-1.7-0.5l-0.1,1.4c0.6,0.2,1.3,0.3,2,0.3c1.6,0,2.9-0.6,2.9-2.3
	c0-2.6-3.4-2-3.4-3.4c0-0.6,0.5-1.1,1.1-1.1c0,0,0,0,0.1,0c0.5,0,1.1,0.1,1.6,0.3l0.1-1.3c-0.6-0.2-1.2-0.3-1.8-0.3
	c-1.4,0-2.7,0.6-2.7,2.4C135.9,8.4,139.2,7.8,139.2,9.3z"/>
<path class="st1" d="M144.7,11.5c1.5,0.1,2.9-1.1,3-2.6c0-0.1,0-0.2,0-0.3c0-1.7-1.3-3-3-3s-3,1.3-3,3c-0.1,1.6,1.2,2.9,2.7,2.9
	C144.5,11.5,144.6,11.5,144.7,11.5z M144.7,6.7c1,0,1.4,0.8,1.4,1.7s-0.3,2-1.4,2s-1.4-1-1.4-2S143.7,6.7,144.7,6.7z"/>
<path class="st1" d="M150.7,11.5c0.7,0,1.4-0.4,1.9-0.9l0,0v0.8h1.4V5.6h-1.5v2.8c0,0.7-0.2,1.9-1.3,1.9c-0.9,0-1-0.9-1-1.6v-3h-1.5
	v3.6C148.8,10.5,149.4,11.5,150.7,11.5z"/>
<path class="st1" d="M156,9.6c-0.1,0.9,0.5,1.7,1.4,1.8c0.1,0,0.2,0,0.4,0c0.4,0,0.7,0,1.1-0.1v-1.2c-0.2,0.1-0.5,0.2-0.7,0.2
	c-0.6,0-0.7-0.5-0.7-0.9V6.7h1.3V5.6h-1.3V4L156,4.5v1.1h-1.1v1.1h1.1L156,9.6L156,9.6z"/>
<path class="st1" d="M161.2,8.5c0-0.7,0.2-1.9,1.3-1.9c0.9,0,1,0.9,1,1.6v3h1.5V7.7c0-1.3-0.6-2.2-1.9-2.2c-0.7,0-1.4,0.3-1.8,0.9
	l0,0V3.1h-1.5v8.3h1.5V8.5H161.2z"/>
<path class="st1" d="M171.1,9.6h3.1l0.7,1.8h1.7l-3-7.7h-1.7l-3,7.7h1.6L171.1,9.6z M172.7,5.2L172.7,5.2l1.1,3.2h-2.3L172.7,5.2z"
	/>
<path class="st1" d="M179.3,11.5c0.7,0,1.4-0.4,1.9-0.9l0,0v0.8h1.4V5.6h-1.5v2.8c0,0.7-0.2,1.9-1.3,1.9c-0.9,0-1-0.9-1-1.6v-3h-1.5
	v3.6C177.4,10.5,178,11.5,179.3,11.5z"/>
<path class="st1" d="M186.3,9.7c0,0.6-0.6,0.7-1,0.7c-0.5,0-1-0.1-1.5-0.4l-0.1,1.2c0.6,0.1,1.1,0.2,1.7,0.2c1.2,0,2.4-0.5,2.4-1.9
	c0-2.1-2.6-1.5-2.6-2.4c0-0.5,0.5-0.6,0.9-0.6c0.4,0,0.9,0.1,1.3,0.2l0.1-1.1c-0.5-0.1-1.1-0.2-1.6-0.2c-1.2,0-2.2,0.5-2.2,1.8
	C183.8,9.3,186.3,8.6,186.3,9.7z"/>
<path class="st1" d="M189.5,9.6c-0.1,0.9,0.5,1.7,1.4,1.8c0.1,0,0.2,0,0.4,0c0.4,0,0.7,0,1.1-0.1v-1.2c-0.2,0.1-0.5,0.2-0.7,0.2
	c-0.6,0-0.7-0.5-0.7-0.9V6.7h1.3V5.6H191V4l-1.5,0.5v1.1h-1.1v1.1h1.1L189.5,9.6L189.5,9.6z"/>
<path class="st1" d="M194.7,9.2c0-0.8,0-2.3,1.2-2.3c0.2,0,0.5,0,0.7,0.1V5.6h-0.5c-0.8,0.1-1.4,0.6-1.6,1.4l0,0V5.6h-1.3v5.7h1.5
	L194.7,9.2L194.7,9.2z"/>
<path class="st1" d="M199.1,11.5c0.7,0,1.4-0.4,1.8-1l0,0c0,0.3,0,0.5,0.1,0.8h1.3c0-0.4-0.1-0.8-0.1-1.3V7.9c0-1.7-0.7-2.4-2.4-2.4
	c-0.7,0-1.4,0.2-2,0.4v1.3c0.5-0.4,1.1-0.6,1.8-0.6c0.9,0,1.3,0.3,1.3,1.2h-0.8c-0.6,0-1.3,0.1-1.9,0.3c-0.6,0.3-1,0.9-1,1.6
	c-0.1,0.9,0.7,1.8,1.6,1.8C198.9,11.5,199,11.5,199.1,11.5z M200.2,8.7h0.6c0,0.4-0.1,0.8-0.3,1.2c-0.2,0.3-0.6,0.5-1,0.5
	c-0.5,0-0.9-0.2-0.9-0.7C198.5,8.8,199.5,8.7,200.2,8.7z"/>
<rect x="203.6" y="3.1" class="st1" width="1.5" height="8.3"/>
<rect x="206.7" y="5.6" class="st1" width="1.5" height="5.7"/>
<rect x="206.7" y="3.2" class="st1" width="1.5" height="1.4"/>
<path class="st1" d="M211.3,11.5c0.7,0,1.4-0.4,1.8-1l0,0c0,0.3,0,0.5,0.1,0.8h1.3c0-0.4-0.1-0.8-0.1-1.3V7.9c0-1.7-0.7-2.4-2.4-2.4
	c-0.7,0-1.4,0.2-2,0.4v1.3c0.5-0.4,1.1-0.6,1.8-0.6c0.9,0,1.3,0.3,1.3,1.2h-0.8c-0.6,0-1.3,0.1-1.9,0.3c-0.6,0.3-1,0.9-1,1.6
	c-0.1,0.9,0.7,1.8,1.6,1.8C211.1,11.5,211.2,11.5,211.3,11.5z M212.3,8.7h0.6c0,0.4-0.1,0.8-0.3,1.2c-0.2,0.3-0.6,0.5-1,0.5
	c-0.5,0-0.9-0.2-0.9-0.7C210.7,8.8,211.7,8.7,212.3,8.7z"/>
<path class="st2" d="M34.5,21.8C34.3,15,28.6,9.7,21.8,10C15,10.2,9.7,15.9,10,22.7c0.2,6.8,5.9,12.1,12.7,11.8c0,0,0,0,0,0
	c6.7-0.2,12-5.8,11.8-12.5C34.5,21.9,34.5,21.9,34.5,21.8z M22.7,34.1c-6.6,0.2-12.1-4.9-12.3-11.5c-0.2-6.6,4.9-12.1,11.5-12.3
	c6.6-0.2,12.1,4.9,12.3,11.5c0,0,0,0,0,0C34.4,28.4,29.3,33.9,22.7,34.1C22.7,34.1,22.7,34.1,22.7,34.1z"/>
<path class="st2" d="M32.2,21.4c0.3-0.1,0.6-0.3,0.8-0.5c-0.1-0.2-0.3-0.3-0.5-0.4c-0.2-0.1-0.4-0.1-0.6-0.3
	c0.1-0.3,0.5-0.4,0.7-0.7c-0.1-0.1-0.2-0.2-0.3-0.2s-0.5-0.1-0.7-0.3c0.2-0.2,0.4-0.3,0.7-0.6c-0.2-0.2-0.4-0.2-0.7-0.3
	s-0.4,0.2-0.5,0c0.2-0.3,0.4-0.6,0.6-0.9c-0.4-0.1-0.8,0-1.1,0.2c-0.2,0.1-0.4,0.2-0.6,0c0.2-0.3,0.5-0.5,0.8-0.7
	c0.2-0.1,0.4-0.3,0.2-0.6c-0.7,0.2-1.3,0.5-1.9,0.9c-0.1,0-0.2,0.2-0.3,0.1s0.1-0.2,0.2-0.3c0.4-0.2,0.7-0.5,0.8-0.9
	c0.1-0.4,0.4-0.5,0.3-1c-0.6,0.2-1.2,0.6-1.6,1.1c-0.1,0.2-0.2,0.3-0.4,0.4c-0.1-0.1,0-0.3,0.1-0.4c0.1-0.4,0.3-0.7,0.6-1
	c0-0.2,0.2-0.4,0.2-0.7c0-0.1,0.1-0.3-0.2-0.3c-0.5,0.4-0.9,0.9-1.2,1.5c-0.1,0.1-0.1,0.2-0.2,0.2c-0.1-0.2-0.1-0.4,0-0.6
	c0.1-0.2,0.2-0.5,0.3-0.7v-1.2c-0.5,0.3-0.6,0.9-0.9,1.4c-0.1-0.5-0.1-0.9,0-1.4c-0.1-0.3-0.1-0.6-0.4-0.7c-0.3,0.3-0.2,0.7-0.4,1.2
	c-0.1-0.1-0.1-0.3-0.3-0.2c0,1.7,0,3.3,0.2,5c-0.2,0.7-0.4,1.3-0.5,2c0,0.7-0.5,1.2-1,1.8c-0.3-0.1-0.7,0.1-0.8-0.2
	c-0.1-0.5-0.3-0.9-0.6-1.3c-0.6-0.5-1.3-0.8-2.1-1c-0.1,0-0.4-0.1-0.4,0.1c0.4,0.1,0.6,0.4,0.8,0.7c-0.2,0-0.4-0.1-0.6-0.1
	s-0.2-0.1-0.3,0c0.2,0.2,0.5,0.4,0.8,0.6c0.2,0.1,0.2,0.3,0.3,0.5c0,0.3-0.1,0.5-0.3,0.7c-0.3,0.3-0.5-0.3-0.8-0.1
	c-0.1,0-0.3,0-0.3-0.1c-0.1-0.5-0.5-0.7-0.7-1.1c0-0.5-0.2-1-0.5-1.4c-0.3-0.7-0.3-1.5-0.1-2.3c0.1-0.6,0.2-1.2,0.3-1.9
	c0-0.2,0.1-0.4,0-0.6V14c-0.1-0.2,0-0.4-0.1-0.6c-0.2,0-0.2,0.4-0.5,0.3c-0.1-0.2,0-0.4-0.1-0.6c0-0.3,0-0.7-0.1-1h-0.1
	c-0.3,0.3-0.5,0.7-0.4,1.1c0.1,0.4,0.1,0.9,0,1.3c0,0.2,0.1,0.4-0.1,0.5c-0.1-0.1-0.1-0.2-0.1-0.4c-0.1-0.4-0.2-0.8-0.3-1.1
	s-0.1-0.5-0.6-0.6c-0.1,0.3-0.1,0.7,0,1c0,0.2,0.1,0.5,0.2,0.7c0.1,0.2,0.2,0.4-0.2,0.4c-0.2-0.4-0.5-0.9-0.9-1.2
	c-0.1,0-0.2-0.3-0.4-0.2c0,0.3,0,0.5,0.1,0.8c0.4,0.5,0.7,1,0.8,1.6c-0.6-0.5-1.2-0.9-1.9-1.2c0,0.6,0.7,1,0.8,1.6
	c-0.5-0.4-1.1-0.7-1.7-0.8c0.1,0.5,0.3,0.9,0.6,1.2c-0.3,0-0.6-0.1-1-0.1c-0.1,0-0.2,0-0.3,0.1c0.2,0.3,0.4,0.6,0.6,0.9
	c-0.4,0.2-0.8,0-1.2,0.2c0.2,0.2,0.3,0.5,0.4,0.8c-0.3,0-0.6,0.2-0.8,0.4c0.1,0.3,0.4,0.4,0.6,0.6c0.1,0.1,0.1,0.2,0.1,0.3
	c-0.2,0.2-0.5,0.3-0.7,0.7c0.2,0.2,0.5,0.3,0.6,0.6c-0.2,0.3-0.5,0.4-0.6,0.7s0.2,0.2,0.3,0.3s0.3,0.1,0.4,0.2s-0.3,0.4-0.3,0.6
	c0.1,0.1,0.2,0.2,0.4,0.2c0.3,0.1,0.6-0.2,0.7,0.1c-0.1,0.2-0.2,0.5-0.2,0.7c0.1,0.1,0.3,0.1,0.4,0.2s0.4-0.1,0.6,0.1v0.1
	c0,0.1-0.1,0.2-0.1,0.3s-0.2,0.3-0.1,0.4c0.3,0.1,0.7,0,1-0.1c0.2,0.1,0.2,0.3,0.2,0.5c0.2,0.1,0.4,0,0.6,0s0.2,0.3,0.3,0.5
	s0.2,0,0.3,0c0.4-0.3,0.4,0.2,0.7,0.3s0.2-0.2,0.4-0.1s0.2,0.2,0.4,0.3s0.3-0.2,0.5-0.3s0.4,0.2,0.5,0.3s0.3-0.1,0.5-0.2
	s0.3,0.1,0.5,0.1s0.2-0.3,0.3-0.4c0.1-0.3-0.1-0.8,0.3-1l0.3,1.1c0.1,0.3-0.1,0.6-0.2,0.9c-0.4,0.4-0.8,0.8-1.2,1.1
	c-0.3,0.3-0.7,0.1-1.1,0.2l0,0c-0.4,0.3-0.9,0-1.3,0.3c-0.1,0.1-0.2,0.3-0.1,0.4c0.2,0.4,0.6,0.3,1,0.3c0.2,0,0.4,0.2,0.6,0.1
	c0.2-0.3,0.3,0,0.5,0c0.2,0,0.5-0.1,0.7-0.1c-0.2,0.3-0.4,0.6-0.5,0.9c-0.1,0.3,0.3,0.2,0.3,0.5s0.5,0.1,0.5,0.4s0.3,0.1,0.4,0.1
	s0.2,0.3,0.3,0.4h0.3c0.2,0,0.2,0.2,0.3,0.2l0.4-0.1c0.2,0,0.3,0.3,0.5,0.4s0.3-0.3,0.6-0.3l0.5,0.2c0.1-0.1,0.2-0.3,0.3-0.4h0.4
	c0.2,0,0.2-0.2,0.3-0.2h0.4c0.1-0.1,0.1-0.2,0.2-0.3s0.2-0.1,0.4-0.2c0-0.2,0.3-0.3,0.4-0.4c0-0.3-0.1-0.5-0.3-0.7
	c-0.1-0.2-0.2-0.4-0.2-0.6c0.2,0,0.3,0.1,0.4,0.2c0.2,0,0.4-0.1,0.5-0.2c0.1-0.1,0.2,0.1,0.3,0.2s0.3,0,0.4-0.1s0.6,0,0.8-0.3
	c0.1-0.1,0.1-0.2,0.1-0.4c-0.2-0.4-0.7-0.3-1-0.3c-0.1-0.1-0.1-0.1-0.2-0.1l0,0c-0.3-0.1-0.8,0-1.1-0.2c-0.5-0.5-1-1-1.4-1.5
	c-0.3-0.4,0.1-0.9,0.1-1.4c0-0.1,0.1-0.2,0.3,0c0.1,0.5,0.1,1,0.6,1.3c0.2,0,0.3-0.2,0.4-0.2s0.2,0.2,0.3,0.3s0.2-0.2,0.4-0.3
	s0.3,0.2,0.5,0.1l0.3-0.3c0.2,0,0.3,0.2,0.5,0.2s0.2-0.3,0.3-0.5c0.2,0,0.3,0,0.4,0.1c0.3,0.1,0.2-0.2,0.4-0.4s0.5,0,0.8,0l0.2-0.2
	c0.1-0.5,0.6-0.2,0.9-0.3c0.1-0.2,0-0.5,0.1-0.7l0.1-0.1h0.9c0.1-0.1,0-0.2,0-0.3s-0.3-0.4-0.1-0.5c0.3,0,0.6,0,0.9-0.1
	c0-0.2-0.1-0.3-0.2-0.4c-0.1-0.1-0.2-0.2-0.3-0.4c0.2-0.2,0.4-0.2,0.6-0.3s0.3-0.1,0.4-0.3C32.6,21.7,32.4,21.6,32.2,21.4
	C32.1,21.6,32.1,21.4,32.2,21.4z M18.7,16.3L18.7,16.3c0.1,0.2,0.1,0.3,0.1,0.5c0,0.3,0,0.7-0.2,1c-0.1-0.3-0.2-0.7-0.3-1
	S18.4,16.3,18.7,16.3z M18.1,17c0.2,0,0.1,0.2,0.2,0.3c0,0.2,0.1,0.5,0.1,0.7c-0.2-0.2-0.4-0.5-0.5-0.8C18,17.2,18,17.1,18.1,17z
	 M17.6,19.8v-0.3c0.3,0,0.4,0.1,0.5,0L17.5,19c0.2-0.2,0.4,0,0.5,0c-0.1-0.3-0.4-0.3-0.5-0.5c0-0.1,0-0.2,0.1-0.3
	c0.1,0,0.1,0.1,0.2,0.2c0-0.2-0.3-0.5-0.1-0.7l0.2,0.2c0.1,0.2,0.4,0.4,0.3,0.7c-0.1,0.5-0.1,0.9-0.1,1.4C18,20.1,17.8,20,17.6,19.8
	z M20,22.6c-0.1,0.2-0.2,0.4-0.5,0.3c-0.1-0.1-0.1-0.2-0.1-0.3c-0.1-0.1-0.2,0.1-0.4,0.1c-0.2-0.3-0.1-0.4,0-0.6
	c-0.2,0-0.3,0.3-0.6,0.2c-0.1,0-0.2-0.1-0.1-0.2c0-0.2,0.1-0.3,0.2-0.4c-0.2,0-0.5,0.2-0.6,0s0.1-0.2,0.2-0.3c0.2,0,0.3-0.1,0.4-0.2
	c-0.3-0.2-0.5-0.4-0.4-0.5s0.2-0.1,0.3-0.1s0.3,0.2,0.4,0.2s-0.1-0.2,0-0.3c-0.1-0.1-0.1-0.2-0.1-0.4c0.2,0,0.2,0.2,0.4,0.2
	c0-0.1-0.1-0.3,0-0.4c0.2,0.2,0.1,0.6,0.2,0.8s0.4,0.5,0.6,0.8C19.9,22,20.1,22.3,20,22.6z M18.2,29.2c-0.3,0.2-0.7,0.2-1,0.1
	c-0.1-0.1-0.1-0.1-0.1-0.2c0.2-0.4,0.6-0.2,0.9-0.2l0.2,0.1C18.3,29,18.2,29.1,18.2,29.2z M19,29.3c-0.2,0-0.5,0.1-0.6-0.1
	c0.1-0.1,0.1-0.3,0.3-0.4c0.2,0,0.3,0,0.5,0.1C19.2,29.1,19.1,29.2,19,29.3z M26.7,28.8c0.2,0,0.4,0,0.6,0.1v0.3
	c-0.3,0.3-0.7,0.2-1.1,0.2C26.2,29.1,26.4,28.9,26.7,28.8z M26.2,29c0,0.1-0.1,0.2-0.2,0.3c-0.2,0.1-0.3,0.1-0.5,0
	c-0.1-0.1-0.1-0.2-0.1-0.3C25.8,28.8,26.1,28.8,26.2,29z M22,20.4l0.2,0.1c-0.1,0.3-0.2,0.2-0.3,0.2C21.9,20.6,21.9,20.5,22,20.4z
	 M20.8,20.6c0.1-0.1,0.2-0.1,0.4,0s0.2,0.1,0.3,0c0.1-0.3-0.3-0.5-0.4-0.7c0.2-0.1,0.4,0,0.5,0.1c0.1,0.3,0.2,0.5,0,0.8
	S21.1,20.6,20.8,20.6z M19.5,28.6L19.5,28.6c0.5-0.7,1.1-0.7,1.5-1.1c0.2,0,0.2,0.3,0.3,0.4c0,0.1,0,0.2-0.1,0.3
	c-0.1,0.1-0.2,0.2-0.4,0.3c-0.1,0-0.1,0.1-0.2,0.1C20.2,28.7,19.9,28.7,19.5,28.6z M19.8,28.9h0.5c-0.2,0.2-0.3,0.6-0.7,0.4
	C19.6,29.1,19.7,28.9,19.8,28.9z M19.9,30c-0.2-0.2-0.1-0.3,0-0.4c0.4-0.4,0.9-0.8,1.4-1.1h0.1c0,0.1-0.1,0.2-0.2,0.3
	c-0.3,0.4-0.8,0.6-1,1C20,29.9,20,30,19.9,30z M20.4,30.1c-0.1,0.1-0.1,0.3-0.3,0.3c-0.1-0.2,0.1-0.4,0.3-0.6
	c0.4-0.4,0.8-0.7,1.2-1.1h0.1c-0.1,0.2-0.3,0.4-0.4,0.6C20.9,29.6,20.5,29.8,20.4,30.1z M20.7,30.7c-0.2-0.1-0.2-0.2-0.1-0.3
	c0.3-0.6,0.7-1.1,1.1-1.6l0.1,0.1c-0.2,0.5-0.4,0.9-0.7,1.3C20.8,30.4,20.7,30.5,20.7,30.7z M21.3,31c-0.3,0-0.4-0.2-0.3-0.3
	c0.1-0.2,0.2-0.5,0.2-0.7l0.6-1.2l0.1,0.1c0,0.4-0.1,0.9-0.3,1.3C21.4,30.4,21.3,30.7,21.3,31z M22.2,30.6c-0.1,0.2-0.3,0.3-0.4,0.5
	c-0.2-0.2-0.1-0.5-0.1-0.7c0.1-0.4,0.3-0.8,0.4-1.2h0.1V30.6z M22.6,30.9c-0.5-0.3-0.2-1-0.2-1.4c0-0.1,0-0.3,0.1-0.4l0.2,0.1
	c0.2,0.5,0.3,1.1,0.3,1.7C22.7,31.1,22.7,31,22.6,30.9z M23.2,30.6c-0.3-0.5-0.5-1-0.6-1.6c0.2-0.2,0.2,0.1,0.3,0.2
	c0.2,0.6,0.7,1,0.7,1.6C23.3,31,23.3,30.8,23.2,30.6z M24.2,30.8c-0.3,0-0.3-0.2-0.5-0.4c-0.4-0.5-0.7-1-0.9-1.5
	c0.5,0.3,0.7,0.9,1.1,1.3C24.1,30.3,24.3,30.6,24.2,30.8z M24.6,30.6c-0.5-0.5-1-1-1.4-1.6c-0.1-0.1-0.3-0.2-0.2-0.4
	c0.4,0.2,0.7,0.5,0.9,0.9c0.3,0.3,0.6,0.6,0.8,0.9C24.7,30.5,24.7,30.6,24.6,30.6z M25,29.3c-0.3,0.2-0.5-0.3-0.8-0.4l0.8-0.1
	C25.1,29.2,25,29.3,25,29.3z M24.5,27.9l0.6,0.6h-0.4l-0.9,0.1l-0.1-0.1l0,0c-0.2-0.1-0.3-0.2-0.4-0.4c0-0.3,0.2-0.5,0.2-0.7
	s0.2,0.1,0.3,0.1C24,27.7,24.3,27.7,24.5,27.9z M23.7,25.9c-0.1,0.5-0.3,0.9-0.5,1.3v0.3c-0.1,0.4-0.2,0.8-0.5,1.1h0.7
	c0.5,0.4,1.1,1,1.5,1.5c-0.2,0.1-0.3-0.1-0.4-0.2c-0.4-0.4-0.8-0.9-1.2-1.3h-0.6c-0.1,0.1-0.2,0.4-0.5,0.4c-0.2-0.1-0.3-0.2-0.4-0.4
	c-0.3-0.4-0.4-0.8-0.5-1.2c0.1-0.2,0.1,0,0.2-0.1c-0.1-0.1-0.2-0.2-0.2-0.4c-0.2-0.3-0.2-0.7-0.2-1c-0.1-0.1-0.1,0.1-0.2,0
	s-0.1-0.4-0.2-0.5v-0.3c0-0.2,0.1-0.3,0.2-0.4c0.1-0.2,0.1-0.3,0.1-0.5c0.1-0.1,0.1-0.3,0.1-0.4c0-0.4,0.2-0.7,0.1-1.1
	c0.1-0.2,0.5-0.1,0.7-0.2c0.4-0.1,0.7-0.5,0.8-0.9c0-0.2,0-0.4,0.2-0.4c0.2,0,0.4,0.2,0.5,0.4c0,0.1,0.1,0.2,0.1,0.3
	c0.1,0.3,0.1,0.7,0,1c-0.1,0.6-0.1,1.2,0.1,1.7c0,0.1,0.1,0.2,0.1,0.4s0.1,0.2,0.1,0.3C24,25.2,23.8,25.5,23.7,25.9z M27.2,18.5
	l-0.7,0.7c-0.2-0.2,0-0.4,0-0.5c0.1-0.2,0.3-0.4,0.5-0.5C27.2,18.2,27.2,18.4,27.2,18.5z M27,17.7l0.1,0.1c0.1,0.2-0.1,0.3-0.2,0.4
	l-0.3,0.5c-0.1-0.1-0.1-0.1-0.1-0.2C26.6,18.2,26.8,17.9,27,17.7z M26.2,16.7c0.2,0,0.3,0.1,0.3,0.2c0,0.3-0.2,0.4-0.2,0.7
	c0.2-0.1,0.2-0.4,0.4-0.4s0,0.1,0,0.2c-0.2,0.2-0.2,0.6-0.4,0.8C26.1,17.7,26.1,17.2,26.2,16.7z M26.2,21.9c0.2,0.2,0.4,0.3,0.4,0.6
	c-0.3,0.1-0.5,0-0.7-0.2c0.1,0.2,0.2,0.3,0.2,0.5s-0.3,0-0.4,0s-0.2-0.2-0.3-0.2s0.3,0.3,0.1,0.4c-0.2,0-0.4-0.1-0.5-0.2
	c0-0.1-0.1-0.3-0.1-0.4c0.2-0.4,0.5-0.8,0.7-1.2l0.3-0.9H26c0,0.1-0.1,0.2,0,0.3c0.1-0.1,0.2-0.2,0.4-0.1s0,0.2,0,0.3
	s-0.3,0.2-0.2,0.3s0.3-0.2,0.5-0.1c-0.1,0.2-0.2,0.4-0.3,0.5c0.3,0,0.5,0.2,0.6,0.4C26.7,22,26.5,22,26.2,21.9z M26.6,19.9
	c0.1-0.3,0.3-0.5,0.6-0.4C27,19.9,26.7,20,26.6,19.9z M27.2,19.3c-0.2,0.1-0.4,0.1-0.6,0.2c-0.1-0.1,0-0.1,0-0.2
	c0.2-0.2,0.4-0.3,0.6-0.4l0.1,0.1C27.4,19.1,27.2,19.2,27.2,19.3z"/>
<path class="st2" d="M4.5,25.5c-0.3,0-0.2-0.5-0.4-0.5v0.1c0,0.3,0.1,0.5,0.1,0.8s0.1,0.5,0.1,0.8c0,0.1,0,0.1,0.1,0.1
	s-0.1-0.3,0.3-0.5l3-1.8c0.8-0.5,1-0.5,1-0.6s-0.1,0-0.4-0.1s-0.4-0.2-0.5-0.2s-0.2,0.2-0.2,0.2s-0.3-0.1-2.4-0.6
	c-0.4-0.1-0.7-0.2-1-0.4c-0.2-0.2-0.1-0.4-0.3-0.4s-0.1,0-0.1,0.1s0.1,0.4,0.1,0.7C4,23.4,4,23.7,4,23.9C4,24,4,24,4.1,24
	c0.1,0-0.1-0.5,0.6-0.6c0.3,0,0.6,0,0.9,0.1L5.8,25L5,25.5C4.8,25.4,4.7,25.4,4.5,25.5z M5.7,23.4l1.7,0.4l-1.6,0.9L5.7,23.4z"/>
<path class="st2" d="M8,31.6l1.8-1c0.3-0.3,0.8-0.3,1.1,0c0.1,0.1,0.1,0.2,0.2,0.2s0-0.1,0-0.2L10.8,30l-0.3-0.6
	c0-0.1,0-0.1-0.1-0.1h0c-0.1,0,0,0.1,0,0.3c0,0.4-0.2,0.7-0.6,0.9l-1.9,1c-0.8,0.4-1.4,0.2-1.7-0.5c-0.3-0.5-0.2-1.2,0.4-1.6
	c0,0,0,0,0,0L9.1,28c0.4-0.2,0.5,0.4,0.6,0.3s0.1-0.1,0-0.2s-0.2-0.3-0.4-0.7c-0.1-0.2-0.3-0.5-0.4-0.7c0-0.1-0.1-0.1-0.2-0.1
	s0.3,0.5-0.1,0.7l-2.5,1.3c-0.7,0.4-0.9,1.1-0.4,2.2C6.4,31.9,7.1,32.1,8,31.6z"/>
<path class="st2" d="M13.2,34.9h0.1c0.1-0.1,0.3-0.4,0.9-1.2c0-0.1,0.1-0.1,0-0.1s-0.2,0.1-0.3,0s-0.2-0.5-0.6-0.9
	c-0.6-0.5-1.4-0.4-1.9,0.1c-1.1,1.3,1.2,2.4,0.3,3.5c-0.3,0.4-0.8,0.5-1.2,0.2c0,0-0.1-0.1-0.1-0.1c-0.7-0.6-0.4-1.4,0.1-2.2
	c0.1-0.1,0.1-0.1,0.1-0.2h-0.1l-1.2,1.4v0.1c0.1,0.1,0.2-0.2,0.4,0c0.2,0.3,0.4,0.6,0.7,0.9c0.5,0.6,1.3,0.6,1.9,0.1
	c0.1-0.1,0.1-0.1,0.2-0.2c1.1-1.3-1.1-2.5-0.3-3.5c0.2-0.3,0.7-0.3,1-0.1c0,0,0.1,0.1,0.1,0.1c0.6,0.5,0.4,1.2,0.1,1.9
	C13.2,34.7,13.1,34.8,13.2,34.9z"/>
<path class="st2" d="M18.1,35.6c0.6,0.3,1,0.9,1,1.6c0,0.2,0,0.3,0.1,0.3h0.1c0-0.1,0-0.3,0.1-0.4l0.2-1.1v-0.1h-0.3L16.6,35
	c-0.1,0-0.1,0-0.2-0.1c0-0.1,0-0.1-0.1-0.1c-0.1,0-0.1,0-0.1,0.1l0,0l-0.6,1c-0.1,0.1-0.1,0.2-0.2,0.3v0.1l0.2-0.2
	c0.5-0.5,1.1-0.7,1.8-0.6l-1.3,3.7c-0.1,0.4-0.7,0-0.7,0.2s0,0.1,0.1,0.1c0.3,0.1,0.6,0.2,0.8,0.3c0.3,0.1,0.5,0.2,0.8,0.3h0.2
	c0.1-0.2-0.6-0.2-0.5-0.6L18.1,35.6z"/>
<path class="st2" d="M24.4,39.5l0.7,1c0.4,0,0.7,0,1.1-0.1c0.1,0,0.1,0,0.1-0.1s-0.5,0.1-0.8-0.5l-0.4-0.6c-0.4-0.7-0.7-0.7-1.3-0.8
	l0,0c0.9-0.2,1.5-0.6,1.5-1.3s-0.6-1.2-1.9-1c-0.3,0-0.5,0.1-0.9,0.1c-0.3,0-0.5,0-0.8,0.1c-0.1,0-0.1,0-0.1,0.1s0.5-0.1,0.6,0.4
	l0.3,3.6c0,0.5-0.5,0.3-0.5,0.5s0,0.1,0.2,0.1c0.3,0,0.5,0,0.8-0.1c0.3,0,0.5,0,0.8-0.1c0.1,0,0.1,0,0.1-0.1s-0.5,0.1-0.6-0.4
	l-0.2-1.7h0.1C23.7,38.5,23.8,38.7,24.4,39.5z M23.1,38.4l-0.2-2.2h0.4c0.6-0.1,1,0.2,1.1,1s-0.3,1.1-1,1.2H23.1z"/>
<path class="st2" d="M30.9,38.6c0,0.1,0.1,0.1,0.1,0c0.3-0.1,0.5-0.2,0.7-0.4c0.2-0.1,0.5-0.2,0.7-0.3c0.1,0,0.1,0,0.1-0.1
	c-0.1-0.1-0.3,0.2-0.6-0.1l-2.7-2.3c-0.7-0.6-0.8-0.8-0.9-0.8s0,0.1,0,0.4c0,0.2,0,0.4-0.1,0.6c0,0.1,0.2,0.1,0.3,0.2s0,0.3,0.2,2.5
	c0,0.4,0,0.7-0.1,1.1c-0.1,0.2-0.4,0.3-0.3,0.4s0.1,0.1,0.1,0l0.6-0.3c0.2-0.1,0.5-0.2,0.7-0.3c0.1,0,0.1,0,0.1-0.1
	s-0.5,0.2-0.8-0.4c-0.1-0.3-0.2-0.6-0.2-0.9l1.3-0.6l0.7,0.6l0.3,0.3C31.4,38.4,30.9,38.4,30.9,38.6z M28.9,37.6l-0.2-1.8l1.4,1.2
	L28.9,37.6z"/>
<path class="st2" d="M34.6,36c0.1,0.1,0.1,0,0.2,0c0.2-0.2,0.4-0.4,0.5-0.6c1-1.1,1.4-1.5,1.7-1.9l-0.9-1.2L36,32.2h-0.1v0.2
	c0.5,0.7,0.5,1.7-0.1,2.3c-0.1,0.2-0.4,0.2-0.6,0.1c0,0-0.1-0.1-0.1-0.1l-2.5-2.4c-0.3-0.3,0.2-0.6,0.1-0.7s-0.1,0-0.2,0
	c-0.2,0.2-0.4,0.4-0.5,0.6l-0.6,0.6c-0.1,0.1-0.1,0.1,0,0.2s0.3-0.4,0.7-0.1l2.7,2.5C35,35.7,34.5,35.9,34.6,36z"/>
<path class="st2" d="M38.7,30.7c0.1,0,0.1,0,0.1-0.1c0.1-0.2,0.2-0.5,0.3-0.7c0.2-0.4,0.3-0.5,0.3-0.7V29c-0.2-0.1-0.2,0.5-0.6,0.3
	l-3.3-1.5c-0.4-0.2,0-0.6-0.1-0.7s-0.1,0-0.1,0.1c-0.1,0.2-0.2,0.5-0.3,0.7c-0.2,0.4-0.3,0.5-0.3,0.7v0.2c0.2,0.1,0.2-0.5,0.6-0.3
	l3.3,1.5C38.9,30.2,38.5,30.6,38.7,30.7z"/>
<path class="st2" d="M40,23.5c0.1,0,0.3-0.1,0.4-0.1c0.4,0,0.1,0.5,0.3,0.5s0.1,0,0.1-0.1c0-0.3,0.1-0.5,0.1-0.8s0.1-0.5,0.1-0.8
	c0-0.1,0-0.1-0.1-0.1s0,0.3-0.4,0.4l-3.3,1c-0.9,0.3-1.2,0.2-1.2,0.3s0.1,0.1,0.4,0.2s0.3,0.3,0.4,0.4s0.2-0.1,0.3-0.1
	c0.8,0.3,1.5,0.7,2.2,1.2c0.4,0.2,0.7,0.4,0.9,0.7c0.1,0.2,0,0.5,0.2,0.5s0.1,0,0.1-0.1c0-0.2,0-0.5,0.1-0.7
	c0.1-0.2,0.1-0.5,0.1-0.7c0-0.1,0-0.1-0.1-0.1s-0.1,0.5-0.7,0.5c-0.2,0-0.4-0.1-0.9-0.4l0.2-1.5L40,23.5z M38.7,25.1l-1.6-0.8
	l1.7-0.5L38.7,25.1z"/>
<path class="st2" d="M8.8,9.6c-0.5,0.5-0.5,1.4,0,1.9c1.2,1.1,2.5-1.1,3.5-0.1c0.4,0.4,0.4,0.9,0,1.3c-0.6,0.7-1.5,0.3-2.2-0.2
	c-0.1-0.1-0.1-0.1-0.2-0.1v0.1l1.4,1.3h0.1c0.1-0.1-0.2-0.2,0-0.4s0.6-0.3,1-0.6c0.6-0.5,0.7-1.4,0.2-2c-0.1-0.1-0.1-0.2-0.2-0.2
	c-1.2-1.1-2.6,1-3.5,0.2c-0.3-0.3-0.3-0.8,0-1.1c0.5-0.6,1.3-0.4,2,0c0.1,0,0.1,0.1,0.2,0V9.6C10.7,9.3,10.3,9,9.9,8.7
	c-0.1,0-0.1-0.1-0.1,0s0.1,0.2,0,0.3C9.4,9.1,9,9.3,8.8,9.6z"/>
<path class="st2" d="M16.6,9.7c1.2-0.6,1.8-2,1.2-3.2s-2-1.8-3.2-1.2s-1.8,2-1.2,3.2c0,0,0,0,0,0C13.9,9.7,15.3,10.3,16.6,9.7
	C16.6,9.7,16.6,9.7,16.6,9.7z M14.7,5.5c0.8-0.4,1.7,0,2.3,1.4s0.3,2.3-0.5,2.7s-1.7,0-2.3-1.4S13.9,5.8,14.7,5.5z"/>
<path class="st2" d="M21.7,3.9c0-0.1,0-0.1-0.2-0.1h-1.6c-0.1,0-0.1,0-0.1,0.1s0.6-0.1,0.6,0.4v2.9c0,0.8,0.6,1.3,1.9,1.3
	c0.8,0.1,1.5-0.4,1.6-1.2c0-0.1,0-0.2,0-0.3V4.9c0-0.6,0.2-0.9,0.5-0.9s0.3,0,0.3-0.1s0-0.1-0.2-0.1h-1.4c-0.1,0-0.1,0-0.1,0.1
	S23.1,4,23.3,4s0.5,0.4,0.5,0.9V7c0,0.8-0.4,1.3-1.2,1.3c-0.7,0-1.2-0.4-1.3-1.1V4.3C21.1,3.8,21.7,4,21.7,3.9z"/>
<path class="st2" d="M26.4,8.9c0,0.1,0,0.1,0.1,0.2c0.3,0.1,0.5,0.2,0.8,0.3c0.3,0.1,0.5,0.2,0.8,0.4c0.1,0,0.2,0.1,0.2,0
	s-0.6-0.2-0.5-0.6l1.5-3.7c0.6,0.3,1,0.9,1,1.6v0.3h0.1c0-0.1,0.1-0.2,0.1-0.4l0.2-1.1V5.8h-0.3l-2.7-1.1c-0.1-0.1-0.1-0.1-0.2-0.1
	c0-0.1,0-0.1-0.1-0.1s-0.1,0-0.1,0.1l-0.6,1c-0.1,0.1-0.2,0.2-0.2,0.3V6l0.2-0.2c0.5-0.5,1.2-0.6,1.9-0.5L27.1,9
	C27,9.2,26.5,8.7,26.4,8.9z"/>
<path class="st2" d="M31.1,10.8c-0.3,0.3-0.6-0.2-0.7-0.1s0,0.1,0,0.2l0.6,0.6l0.6,0.6c0.1,0.1,0.1,0.1,0.2,0s-0.4-0.4-0.1-0.7
	l1.3-1.3l1.4,1.4l-1.3,1.2c-0.3,0.3-0.6-0.2-0.7-0.1s0,0.1,0,0.2l0.6,0.6l0.6,0.6c0.1,0.1,0.1,0.1,0.2,0s-0.4-0.4-0.1-0.7l2.5-2.6
	c0.3-0.3,0.6,0.2,0.7,0.1s0-0.1,0-0.2L36.3,10l-0.6-0.6c-0.1-0.1-0.1-0.1-0.2,0s0.4,0.4,0.1,0.7l-1.1,1.2l-1.4-1.4l1.1-1.2
	c0.3-0.3,0.6,0.2,0.7,0.1s0-0.1,0-0.2L34.3,8l-0.6-0.6c-0.1-0.1-0.1-0.1-0.2,0s0.4,0.4,0.1,0.7L31.1,10.8z"/>
<path class="st1" d="M21.6,2.1C31.4,1.7,40.1,8.4,42.1,18l2.1-0.4C41.6,5.5,29.7-2.1,17.7,0.5C9,2.4,2.3,9.2,0.5,17.9l2.1,0.4
	C4.5,9.2,12.3,2.5,21.6,2.1z"/>
<path class="st3" d="M42.2,18.4c0.2,1.1,0.3,2.1,0.4,3.2v2l2.1,0.1v-1.4c0-1.5-0.1-3-0.4-4.4L42.2,18.4z"/>
<path class="st4" d="M42.3,25.7l2.1,0.4c0.1-0.7,0.2-1.3,0.2-2L42.5,24C42.5,24.6,42.4,25.1,42.3,25.7z"/>
<path class="st1" d="M23.1,42.5C13.3,42.8,4.6,36,2.6,26.4l-2.1,0.4c2.5,12,14.2,19.8,26.3,17.4c8.9-1.8,15.8-8.8,17.4-17.8l-2-0.4
	C40.4,35.3,32.5,42.1,23.1,42.5z"/>
<path class="st4" d="M2.3,24.2l-2.1,0.2c0.1,0.7,0.2,1.3,0.3,2l2-0.4C2.4,25.4,2.3,24.8,2.3,24.2z"/>
<path class="st3" d="M2.2,23c-0.1-1.4,0-2.9,0.3-4.3l-2.1-0.4C0.2,19.6,0,21,0,22.3c0,0.6,0,1.2,0.1,1.8l2.1-0.2V23z"/>
</svg>
