<svg id="Layer_1" data-name="Layer 1" xmlns="http://www.w3.org/2000/svg" viewBox="0 0 214.5 44.6"><defs><style>.cls-1{fill:#fff;}</style></defs><title>dewnr-logotype--reversed</title><path class="cls-1" d="M21.7,28.9l-.6,1.2c0,.2-.2.4-.2.7-.1.1,0,.3.3.3a1.33,1.33,0,0,1,.3-.8,3.4,3.4,0,0,0,.2-1.4Z" transform="translate(0.1)"/><path class="cls-1" d="M21,29.4c.1-.2.3-.4.4-.6h-.1c-.4.4-.8.7-1.2,1.1-.1.2-.4.3-.3.6.2,0,.2-.2.3-.3A5.74,5.74,0,0,1,21,29.4Z" transform="translate(0.1)"/><path class="cls-1" d="M21.6,30.4c0,.3-.2.5.1.7.1-.2.3-.3.4-.5V29.2H22C21.9,29.6,21.6,29.9,21.6,30.4Z" transform="translate(0.1)"/><path class="cls-1" d="M21.6,28.9h0a15.76,15.76,0,0,0-1.2,1.5c-.1.1-.1.2.1.3a2.19,2.19,0,0,1,.3-.5A3.53,3.53,0,0,0,21.6,28.9Z" transform="translate(0.1)"/><path class="cls-1" d="M98.7,24.1a1.88,1.88,0,0,0-1.7,2h3.2C100.1,25.1,99.7,24.1,98.7,24.1Z" transform="translate(0.1)"/><path class="cls-1" d="M87,40.9c0,.8.5,1,1.2,1,1.7,0,1.7-1.5,1.7-2.1v-.4h-.2C88.5,39.5,87,39.6,87,40.9Z" transform="translate(0.1)"/><path class="cls-1" d="M22.7,28.9a11.91,11.91,0,0,0,.9,1.5c.1.1.2.4.5.4a.86.86,0,0,0-.3-.6C23.4,29.7,23.2,29.2,22.7,28.9Z" transform="translate(0.1)"/><path class="cls-1" d="M25.9,29.3c.1-.1.2-.2.2-.3s-.4-.1-.8.1a.37.37,0,0,0,.1.3C25.6,29.4,25.7,29.3,25.9,29.3Z" transform="translate(0.1)"/><path class="cls-1" d="M22.3,29.1c-.1.1,0,.2-.1.4.1.5-.3,1.1.2,1.4.1.1.1.2.3.1a8.59,8.59,0,0,0-.3-1.7Z" transform="translate(0.1)"/><path class="cls-1" d="M116.2,40.9c0,.8.5,1,1.2,1,1.7,0,1.7-1.5,1.7-2.1v-.4h-.2C117.6,39.5,116.2,39.6,116.2,40.9Z" transform="translate(0.1)"/><path class="cls-1" d="M21.5,20c-.2-.1-.3-.3-.5-.1.2.2.6.4.4.7h-.3c-.1,0-.3-.1-.4,0,.2.1.5.4.8.2S21.5,20.3,21.5,20Z" transform="translate(0.1)"/><path class="cls-1" d="M100.9,37.1c-1.4,0-1.7,1.3-1.7,2.4s.4,2.4,1.7,2.4,1.7-1.4,1.7-2.4S102.2,37.1,100.9,37.1Z" transform="translate(0.1)"/><path class="cls-1" d="M76.1,37.1a1.88,1.88,0,0,0-1.7,2h3.2C77.6,38.1,77.1,37.1,76.1,37.1Z" transform="translate(0.1)"/><path class="cls-1" d="M117.9,24.1c-1.3,0-1.9,1.1-1.9,2.4s.7,2.4,1.9,2.4,1.9-1.1,1.9-2.4S119.1,24.1,117.9,24.1Z" transform="translate(0.1)"/><path class="cls-1" d="M22.1,20.5l-.2-.1c-.1,0-.1.1-.1.3C21.9,20.7,22,20.8,22.1,20.5Z" transform="translate(0.1)"/><path class="cls-1" d="M20,29.8c.3-.4.7-.6,1-1,.1-.1.2-.2.2-.3h-.1a13.44,13.44,0,0,0-1.4,1.1c-.1.1-.2.2,0,.4C19.9,30,19.9,29.9,20,29.8Z" transform="translate(0.1)"/><path class="cls-1" d="M20.6,28.6c.1,0,.1-.1.2-.1a1.38,1.38,0,0,1,.4-.3.37.37,0,0,0,.1-.3c-.1-.1-.1-.4-.3-.4-.5.4-1.1.4-1.5,1a.1.1,0,0,1-.1.1A4.82,4.82,0,0,0,20.6,28.6Z" transform="translate(0.1)"/><path class="cls-1" d="M20.2,28.9a.45.45,0,0,0-.5,0c-.1.1-.3.2-.2.5C19.9,29.5,20,29.1,20.2,28.9Z" transform="translate(0.1)"/><path class="cls-1" d="M22.5,29.1a16.59,16.59,0,0,0,.6,1.6c.1.2,0,.4.4.3,0-.6-.5-1-.7-1.6C22.7,29.2,22.7,28.8,22.5,29.1Z" transform="translate(0.1)"/><path class="cls-1" d="M26.4,18.6l.3-.5c.1-.1.3-.2.2-.4l-.1-.1a1.79,1.79,0,0,0-.5.7A.37.37,0,0,0,26.4,18.6Z" transform="translate(0.1)"/><path class="cls-1" d="M23.6,24.6c-.1-.1-.1-.2-.1-.4a3.28,3.28,0,0,1-.1-1.7,3.35,3.35,0,0,0,0-1c0-.1-.1-.2-.1-.3s-.2-.4-.5-.4a.4.4,0,0,0-.2.4,1.22,1.22,0,0,1-.8.9c-.2.1-.5,0-.7.2a2,2,0,0,1-.1,1.1.6.6,0,0,0-.1.4c0,.2-.1.3-.1.5s-.1.3-.2.4V25c.1.1.1.4.2.5s.1-.1.2,0a1.8,1.8,0,0,0,.2,1c0,.1.2.3.2.4s-.1-.1-.2.1a6.12,6.12,0,0,0,.5,1.2c.1.1.2.3.4.4a.66.66,0,0,0,.5-.4h0a2.22,2.22,0,0,0,.5-1.1c0-.1-.1-.1,0-.3a2.54,2.54,0,0,0,.5-1.3c0-.3.3-.7,0-1C23.6,24.8,23.6,24.7,23.6,24.6Z" transform="translate(0.1)"/><path class="cls-1" d="M26.7,17.5v-.2c-.2,0-.2.3-.4.4,0-.3.2-.5.2-.7s-.1-.2-.3-.2a2.32,2.32,0,0,0,.2,1.6A1.61,1.61,0,0,1,26.7,17.5Z" transform="translate(0.1)"/><path class="cls-1" d="M26.5,18.7c0,.1-.2.2,0,.5l.7-.7c0-.1,0-.3-.1-.3A1,1,0,0,0,26.5,18.7Z" transform="translate(0.1)"/><path class="cls-1" d="M26.2,21.4a1.07,1.07,0,0,0,.3-.5c-.2-.1-.3.1-.5.1-.1-.2.2-.2.2-.3s.1-.2,0-.3-.3.1-.4.1,0-.2,0-.3h-.1a3.18,3.18,0,0,1-.3.9c-.2.4-.5.8-.7,1.2a.6.6,0,0,0,.1.4.37.37,0,0,0,.5.2c.3-.1-.1-.3-.1-.4s.2.2.3.2.3.2.4,0-.1-.3-.2-.5c.2.1.4.3.7.2,0-.3-.3-.4-.4-.6a.93.93,0,0,0,.7-.1C26.7,21.5,26.4,21.4,26.2,21.4Z" transform="translate(0.1)"/><path class="cls-1" d="M26.5,19.9c.2,0,.4,0,.6-.4C26.8,19.4,26.6,19.6,26.5,19.9Z" transform="translate(0.1)"/><path class="cls-1" d="M21.7,10.3A11.91,11.91,0,1,0,34,21.8,11.93,11.93,0,0,0,21.7,10.3ZM32.3,22.4c-.2.1-.4.1-.6.3,0,.2.2.3.3.4s.1.3.2.4a3.44,3.44,0,0,1-.9.1c-.2.2.1.4.1.5s.2.2,0,.3a2.72,2.72,0,0,1-.9,0l-.1.1c-.2.2,0,.5-.1.7-.3.1-.8-.2-.9.3a.22.22,0,0,1-.2.2c-.3,0-.6-.2-.8,0s-.1.5-.4.4a.6.6,0,0,0-.4-.1c-.2.1-.2.4-.3.5s-.3-.2-.5-.2l-.3.3c-.2,0-.3-.2-.5-.1s-.2.3-.4.3l-.3-.3c-.2,0-.2.2-.4.2-.5-.3-.5-.8-.6-1.3-.3-.1-.3,0-.3,0,0,.5-.4.9-.1,1.4a9.6,9.6,0,0,0,1.4,1.5c.3.2.7,0,1.1.2h0c.1,0,.1.1.2.1.4,0,.8,0,1,.3a.6.6,0,0,1-.1.4c-.2.3-.6.1-.8.3s-.3.2-.4.1-.2-.2-.3-.2a.76.76,0,0,1-.5.2.52.52,0,0,0-.4-.2,1.07,1.07,0,0,0,.2.6.91.91,0,0,1,.3.7c-.2.1-.4.2-.4.4a.4.4,0,0,0-.4.2c-.1.1,0,.2-.2.3h-.4c-.2.1-.2.3-.4.2s-.2-.1-.4,0-.2.3-.3.4l-.5-.2c-.2,0-.3.4-.6.3s-.2-.4-.5-.4l-.4.1c-.1-.1-.2-.2-.3-.2h-.3c-.2-.1-.2-.3-.3-.4s-.4.1-.4-.1-.4-.2-.5-.4-.4-.2-.3-.5a4.05,4.05,0,0,1,.5-.9c-.4-.1-.5.1-.7.1s-.4-.3-.5,0c-.2.1-.4-.1-.6-.1-.4,0-.8.1-1-.3-.1-.2,0-.3.1-.4.3-.3.9,0,1.3-.3h0c.4-.1.8.1,1.1-.2a13.07,13.07,0,0,0,1.2-1.1c.1-.3.3-.6.2-.9l-.3-1.1c-.4.2-.2.7-.3,1a.54.54,0,0,1-.3.4c-.2,0-.3-.2-.5-.1s-.3.3-.5.2-.3-.4-.5-.3-.3.4-.5.3-.2-.3-.4-.3-.2.1-.4.1-.3-.6-.7-.3c-.1,0-.2.1-.3,0s-.1-.4-.3-.5-.4.1-.6,0,0-.4-.2-.5-.6.1-1,.1c0-.2.2-.4.2-.5s.1-.2.1-.3v-.1c-.2-.2-.4,0-.6-.1s-.3,0-.4-.2a1.45,1.45,0,0,1,.2-.7c-.1-.3-.5-.1-.7-.1s-.3-.1-.4-.2.3-.4.3-.6-.3-.1-.4-.2-.4-.1-.3-.3.4-.5.6-.7c-.1-.3-.4-.4-.6-.6a1.58,1.58,0,0,1,.7-.7c.1-.1,0-.2-.1-.3l-.6-.6a2,2,0,0,1,.8-.4,2.93,2.93,0,0,0-.4-.8c.4-.2.8,0,1.2-.2a7,7,0,0,0-.6-.9c0-.1.2,0,.3-.1.3,0,.6.1,1,.1a2,2,0,0,1-.6-1.2,4.47,4.47,0,0,1,1.7.8c-.1-.6-.8-1-.8-1.6a5.16,5.16,0,0,1,1.9,1.2c-.3-.6-.3-1.1-.7-1.5a2,2,0,0,1-.1-.8c.2,0,.2.2.4.2a12.49,12.49,0,0,1,.9,1.2c.3,0,.2-.2.2-.4s-.1-.5-.2-.7a1.7,1.7,0,0,1,0-1c.4.1.4.4.6.6s.2.7.3,1.1c.1.1,0,.3.1.4.3,0,.1-.3.1-.5a5.65,5.65,0,0,0,0-1.3,1.19,1.19,0,0,1,.4-1.1h.1a3.4,3.4,0,0,1,.1,1c.1.2,0,.4.1.6.2,0,.2-.3.5-.3.1.2,0,.4.1.6v1.4c-.1.6-.2,1.2-.3,1.9a3.63,3.63,0,0,0,.1,2.3,3.36,3.36,0,0,1,.5,1.4c.2.4.6.6.7,1.1a.37.37,0,0,0,.3.1c.3-.3.5.4.8.1a.91.91,0,0,0,.3-.7c-.1-.2-.1-.4-.3-.5a2.41,2.41,0,0,1-.8-.6c.1-.1.2,0,.3,0s.4.1.6.1a1.34,1.34,0,0,0-.8-.7A.6.6,0,0,1,21,20a5.12,5.12,0,0,1,2.1,1,2.23,2.23,0,0,1,.6,1.3c.1.4.6.1.8.2.5-.6,1-1.1,1-1.8a11.7,11.7,0,0,1,.5-2,41.8,41.8,0,0,1-.2-5c.1-.1.2.2.3.2.2-.5.1-1,.4-1.2.3.1.3.4.4.7v1.4c.3-.5.4-1.1.9-1.4a4.8,4.8,0,0,1,0,1.2c0,.2-.2.4-.3.7a.64.64,0,0,0,0,.6c.1.1.2-.1.2-.2a5.66,5.66,0,0,1,1.2-1.5c.3,0,.2.2.2.3s-.2.4-.2.7a2.07,2.07,0,0,0-.6,1c-.1.1-.2.2-.1.4a.78.78,0,0,0,.4-.4,2.92,2.92,0,0,1,1.6-1.1c.1.4-.3.6-.3,1a2.36,2.36,0,0,1-.8.9c-.1.1-.2.2-.2.3s.2,0,.3-.1a4.75,4.75,0,0,1,1.9-.9c.2.3,0,.4-.2.6a2.7,2.7,0,0,0-.8.7c.2.2.4,0,.6,0a2,2,0,0,1,1.1-.2c-.2.4-.5.6-.6.9.1.2.3,0,.5,0a.74.74,0,0,1,.7.3c-.2.3-.5.4-.7.6.2.3.5.2.7.3s.2.1.3.2c-.2.3-.6.4-.7.7.1.2.4.2.6.3a1,1,0,0,1,.5.4c-.3.2-.5.3-.8.5-.1.1-.1.2,0,.2.2.2.4.3.5.5A.75.75,0,0,0,32.3,22.4Z" transform="translate(0.1)"/><path class="cls-1" d="M16.5,9.6c.8-.4,1.1-1.3.5-2.7s-1.5-1.8-2.3-1.4-1.1,1.3-.5,2.7S15.6,9.9,16.5,9.6Z" transform="translate(0.1)"/><path class="cls-1" d="M26.5,19.3c0,.1-.1.2,0,.2a1.42,1.42,0,0,0,.6-.2c.1-.1.2-.2.1-.3l-.1-.1C26.9,18.9,26.7,19.1,26.5,19.3Z" transform="translate(0.1)"/><path class="cls-1" d="M24.4,29.8c.1.1.2.3.4.2a21.21,21.21,0,0,0-1.5-1.5h-.1A7.41,7.41,0,0,0,24.4,29.8Z" transform="translate(0.1)"/><path class="cls-1" d="M69.8,28.9c1.4,0,1.7-1.3,1.7-2.4s-.4-2.4-1.7-2.4-1.7,1.4-1.7,2.4S68.6,28.9,69.8,28.9Z" transform="translate(0.1)"/><path class="cls-1" d="M64.9,40.9c0,.8.5,1,1.2,1,1.7,0,1.7-1.5,1.7-2.1v-.4h-.2C66.3,39.5,64.9,39.6,64.9,40.9Z" transform="translate(0.1)"/><path class="cls-1" d="M24.1,29c.2.1.4.6.8.4a.4.4,0,0,0,.1-.5Z" transform="translate(0.1)"/><path class="cls-1" d="M22.9,28.6a.52.52,0,0,0,.2.4,10,10,0,0,0,1.4,1.6.37.37,0,0,0,.1-.3,6.47,6.47,0,0,0-.8-.9A3.63,3.63,0,0,0,22.9,28.6Z" transform="translate(0.1)"/><path class="cls-1" d="M63.8,24.1a1.88,1.88,0,0,0-1.7,2h3.2C65.3,25.1,64.9,24.1,63.8,24.1Z" transform="translate(0.1)"/><path class="cls-1" d="M23.4,27.4c0,.2-.2.4-.2.7s.3.3.4.4h0l.1.1.9-.1H25l-.6-.6c-.2-.2-.5-.2-.7-.3S23.5,27.3,23.4,27.4Z" transform="translate(0.1)"/><path class="cls-1" d="M56.1,22.1H55v6.6h.6c2.3,0,3.7-.9,3.7-3.4S57.9,22.1,56.1,22.1Z" transform="translate(0.1)"/><path class="cls-1" d="M74.2,27.9c0,.8.5,1,1.2,1,1.7,0,1.7-1.5,1.7-2.1v-.4h-.2C75.6,26.5,74.2,26.6,74.2,27.9Z" transform="translate(0.1)"/><polygon class="cls-1" points="7.4 23.8 5.7 23.4 5.9 24.7 7.4 23.8"/><polygon class="cls-1" points="172.7 5.2 172.7 5.2 171.5 8.3 173.8 8.3 172.7 5.2"/><path class="cls-1" d="M155.3,37.1a1.88,1.88,0,0,0-1.7,2h3.2C156.7,38.1,156.3,37.1,155.3,37.1Z" transform="translate(0.1)"/><path class="cls-1" d="M144.6,10.3c1.1,0,1.4-1,1.4-2a1.51,1.51,0,0,0-1.4-1.7c-1,0-1.4.8-1.4,1.7S143.5,10.3,144.6,10.3Z" transform="translate(0.1)"/><path class="cls-1" d="M124.5,10.3c1.1,0,1.4-1,1.4-2a1.51,1.51,0,0,0-1.4-1.7c-1,0-1.4.8-1.4,1.7S123.4,10.3,124.5,10.3Z" transform="translate(0.1)"/><path class="cls-1" d="M154.6,28.9c1.3,0,1.9-1.1,1.9-2.4s-.7-2.4-1.9-2.4-1.9,1.1-1.9,2.4S153.3,28.9,154.6,28.9Z" transform="translate(0.1)"/><path class="cls-1" d="M211.5,10.4a1.1,1.1,0,0,0,1-.5,2.13,2.13,0,0,0,.3-1.2h-.6c-.7,0-1.6.1-1.6,1C210.6,10.2,211,10.4,211.5,10.4Z" transform="translate(0.1)"/><path class="cls-1" d="M27.2,29.2v-.3a1.27,1.27,0,0,0-.6-.1.46.46,0,0,0-.4.5C26.6,29.4,27,29.5,27.2,29.2Z" transform="translate(0.1)"/><path class="cls-1" d="M199.4,10.4a1.1,1.1,0,0,0,1-.5,2.13,2.13,0,0,0,.3-1.2h-.6c-.7,0-1.6.1-1.6,1C198.4,10.2,198.9,10.4,199.4,10.4Z" transform="translate(0.1)"/><path class="cls-1" d="M176.6,24.1a1.88,1.88,0,0,0-1.7,2h3.2C178,25.1,177.6,24.1,176.6,24.1Z" transform="translate(0.1)"/><path class="cls-1" d="M104.2,6.6a1.32,1.32,0,0,0-1.3,1.3h2.5C105.3,7.2,105,6.6,104.2,6.6Z" transform="translate(0.1)"/><path class="cls-1" d="M165.6,37.1c-1.3,0-1.9,1.1-1.9,2.4s.7,2.4,1.9,2.4,1.9-1.1,1.9-2.4S166.8,37.1,165.6,37.1Z" transform="translate(0.1)"/><path class="cls-1" d="M18.1,19.9a2.25,2.25,0,0,1,.1-1.4c.1-.3-.2-.5-.3-.7l-.2-.2c-.3.2.1.5.1.7-.1,0-.1-.2-.2-.2s-.1.2-.1.3.3.3.5.5c-.1,0-.3-.1-.5,0l.5.5c-.1.1-.2-.1-.5,0v.3C17.7,20,17.9,20.1,18.1,19.9Z" transform="translate(0.1)"/><path class="cls-1" d="M18.2,17.3c-.1-.1,0-.3-.2-.3s-.1.2-.2.3a2.51,2.51,0,0,0,.5.8C18.3,17.9,18.2,17.7,18.2,17.3Z" transform="translate(0.1)"/><path class="cls-1" d="M186.9,37.1a1.88,1.88,0,0,0-1.7,2h3.2C188.4,38.1,188,37.1,186.9,37.1Z" transform="translate(0.1)"/><path class="cls-1" d="M18.6,16.8v-.4l-.1-.1c-.2,0-.3.3-.4.5.1.3.2.6.3,1A1.8,1.8,0,0,0,18.6,16.8Z" transform="translate(0.1)"/><path class="cls-1" d="M135.8,40.9c0,.8.5,1,1.2,1,1.7,0,1.7-1.5,1.7-2.1v-.4h-.2C137.3,39.5,135.8,39.6,135.8,40.9Z" transform="translate(0.1)"/><path class="cls-1" d="M19.1,20.9c-.1-.3,0-.6-.2-.8-.1.1,0,.3,0,.4s-.1-.1-.4-.2c-.1.1,0,.3.1.4s.2.2,0,.3-.3-.2-.4-.2a.37.37,0,0,0-.3.1c0,.2.1.3.4.5-.1.1-.3.1-.4.2s-.2.1-.2.3c.2.2.4,0,.6,0a.52.52,0,0,0-.2.4c-.1.1,0,.2.1.2s.4-.2.6-.2c-.1.2-.2.3,0,.6.2,0,.3-.2.4-.1a.37.37,0,0,0,.1.3.85.85,0,0,0,.5-.3c.1-.3-.1-.6-.2-.9C19.5,21.4,19.1,21.2,19.1,20.9Z" transform="translate(0.1)"/><path class="cls-1" d="M18.6,28.8c-.2,0-.2.2-.3.4.2.2.4.1.6.1s.2-.2.1-.4S18.7,28.9,18.6,28.8Z" transform="translate(0.1)"/><path class="cls-1" d="M17,29.1c0,.1,0,.2.1.2a1.18,1.18,0,0,0,1-.1.37.37,0,0,0,.1-.3H18C17.6,28.9,17.2,28.7,17,29.1Z" transform="translate(0.1)"/><path class="cls-1" d="M64.6,10.3c1.1,0,1.4-1,1.4-2a1.51,1.51,0,0,0-1.4-1.7c-1,0-1.4.8-1.4,1.7S63.4,10.3,64.6,10.3Z" transform="translate(0.1)"/><path class="cls-1" d="M77.1,6.6a1.32,1.32,0,0,0-1.3,1.3h2.5C78.3,7.2,78,6.6,77.1,6.6Z" transform="translate(0.1)"/><path class="cls-1" d="M150.6,36.5c0-1.3-.9-1.4-2-1.4h-.8V38h.8C149.5,38,150.6,37.6,150.6,36.5Z" transform="translate(0.1)"/><polygon class="cls-1" points="28.9 37.6 30.1 37 28.7 35.8 28.9 37.6"/><polygon class="cls-1" points="38.7 25.1 38.9 23.8 37.2 24.3 38.7 25.1"/><path class="cls-1" d="M24.3,37.2c-.1-.8-.5-1-1.1-1h-.4l.2,2.2h.3C24,38.3,24.3,38,24.3,37.2Z" transform="translate(0.1)"/><path class="cls-1" d="M60.1,25.4c0-2.3-1.1-4-4-4h-2v8h1.4C58.2,29.4,60.1,28.3,60.1,25.4Zm-4.5,3.3H55V22.1h1.2c1.8,0,3.2.8,3.2,3.2S57.9,28.7,55.6,28.7Z" transform="translate(0.1)"/><path class="cls-1" d="M65.7,28.5a3.77,3.77,0,0,1-1.6.4c-1.3,0-1.9-1-1.9-2.2h4v-.4c0-1.6-.7-2.9-2.3-2.9s-2.5,1.3-2.5,3,.7,3,2.6,3a5.08,5.08,0,0,0,1.7-.3Zm-1.9-4.4c1.1,0,1.5,1,1.5,2H62.1A1.89,1.89,0,0,1,63.8,24.1Z" transform="translate(0.1)"/><path class="cls-1" d="M67.4,23.6v8.2h.7V28.4h0a1.75,1.75,0,0,0,1.8,1.1c1.6,0,2.4-1.3,2.4-3s-.7-3-2.4-3A2.19,2.19,0,0,0,68,24.7h0V23.6Zm2.4.5c1.4,0,1.7,1.3,1.7,2.4s-.4,2.4-1.7,2.4-1.7-1.4-1.7-2.4S68.6,24.1,69.8,24.1Z" transform="translate(0.1)"/><path class="cls-1" d="M76.9,25.9c-1.5,0-3.6.1-3.6,2,0,.5.3,1.6,1.9,1.6A2,2,0,0,0,77,28.4h0v.9h.7a4.87,4.87,0,0,1-.1-1.2V25.5c0-1.5-.6-2.2-2-2.2a4.71,4.71,0,0,0-1.7.4v.7a3.37,3.37,0,0,1,1.7-.5c1,0,1.3.5,1.3,1.5v.3h0Zm.2.9c0,.6,0,2.1-1.7,2.1-.7,0-1.2-.3-1.2-1,0-1.3,1.5-1.4,2.7-1.4h.2Z" transform="translate(0.1)"/><path class="cls-1" d="M80.2,29.4V26.5c0-1,.3-2.3,1.4-2.3a.75.75,0,0,1,.5.1v-.8a4.33,4.33,0,0,0-.5-.1c-.7,0-1.2.6-1.5,1.3h0V23.6h-.7v5.8Z" transform="translate(0.1)"/><path class="cls-1" d="M85.3,28.9c-.6,0-.8-.4-.8-1V24.1h1.3v-.6H84.5V21.8l-.7.3v1.4H82.7v.6h1.1v3.4c0,1.1,0,1.9,1.3,1.9a2,2,0,0,0,.9-.2v-.6A.83.83,0,0,1,85.3,28.9Z" transform="translate(0.1)"/><path class="cls-1" d="M94.1,25.5v3.9h.7v-4A1.76,1.76,0,0,0,93,23.5a2,2,0,0,0-1.9,1.2h0a1.43,1.43,0,0,0-1.5-1.2,1.81,1.81,0,0,0-1.8,1.1h0v-1h-.7v5.8h.7V26.2c0-1.4.8-2.1,1.6-2.1s1.2.6,1.2,1.5v3.9h.7V26.3c0-1.4.8-2.1,1.6-2.1S94.1,24.7,94.1,25.5Z" transform="translate(0.1)"/><path class="cls-1" d="M100.5,29.2v-.7a3.77,3.77,0,0,1-1.6.4c-1.3,0-1.9-1-1.9-2.2h4v-.4c0-1.6-.7-2.9-2.3-2.9s-2.5,1.3-2.5,3,.7,3,2.6,3A3.33,3.33,0,0,0,100.5,29.2Zm-1.8-5.1c1.1,0,1.5,1,1.5,2H97A1.82,1.82,0,0,1,98.7,24.1Z" transform="translate(0.1)"/><path class="cls-1" d="M104.9,23.5a2,2,0,0,0-1.9,1.2h0v-1h-.7v5.8h.7V26.3c0-1,.4-2.1,1.7-2.1,1,0,1.4.7,1.4,1.8v3.5h.7V25.8C106.8,24.4,106.3,23.5,104.9,23.5Z" transform="translate(0.1)"/><path class="cls-1" d="M109.1,22.2v1.4H108v.6h1.1v3.4c0,1.1,0,1.9,1.3,1.9a2,2,0,0,0,.9-.2v-.6a1.48,1.48,0,0,1-.7.1c-.6,0-.8-.4-.8-1V24h1.3v-.6h-1.3V21.7Z" transform="translate(0.1)"/><path class="cls-1" d="M117.9,23.5a2.7,2.7,0,0,0-2.7,3c0,1.6.8,3,2.7,3a2.7,2.7,0,0,0,2.7-3C120.6,24.9,119.8,23.5,117.9,23.5Zm0,5.4c-1.3,0-1.9-1.1-1.9-2.4s.7-2.4,1.9-2.4,1.9,1.1,1.9,2.4S119.1,28.9,117.9,28.9Z" transform="translate(0.1)"/><path class="cls-1" d="M122.4,23.2v.4h-1.2v.6h1.2v5.2h.7V24.2h1.3v-.6h-1.3v-.5c0-.7-.1-1.8.9-1.8a1.27,1.27,0,0,1,.6.1v-.6c-.1-.1-.4-.1-.7-.1C122.5,20.7,122.4,21.9,122.4,23.2Z" transform="translate(0.1)"/><polygon class="cls-1" points="133 22.1 133 21.4 129.1 21.4 129.1 29.4 133.1 29.4 133.1 28.7 129.9 28.7 129.9 25.7 132.8 25.7 132.8 25 129.9 25 129.9 22.1 133 22.1"/><path class="cls-1" d="M135.3,29.4V26.2c0-1,.4-2.1,1.7-2.1,1,0,1.4.7,1.4,1.8v3.5h.7V25.7c0-1.3-.5-2.2-2-2.2a2,2,0,0,0-1.9,1.2h0v-1h-.7v5.8h.8Z" transform="translate(0.1)"/><polygon class="cls-1" points="142.7 28.6 142.6 28.6 141 23.6 140.2 23.6 142.2 29.4 143.1 29.4 145.1 23.6 144.4 23.6 142.7 28.6"/><rect class="cls-1" x="146.1" y="23.6" width="0.7" height="5.8"/><rect class="cls-1" x="146.1" y="21.1" width="0.7" height="1"/><path class="cls-1" d="M148.5,23.6v5.8h.7V26.5c0-1,.3-2.3,1.4-2.3a.75.75,0,0,1,.5.1v-.8a4.33,4.33,0,0,0-.5-.1c-.7,0-1.2.6-1.5,1.3h0V23.6Z" transform="translate(0.1)"/><path class="cls-1" d="M154.6,29.5a2.7,2.7,0,0,0,2.7-3c0-1.6-.8-3-2.7-3a2.7,2.7,0,0,0-2.7,3C151.9,28.1,152.7,29.5,154.6,29.5Zm0-5.4c1.3,0,1.9,1.1,1.9,2.4s-.7,2.4-1.9,2.4-1.9-1.1-1.9-2.4S153.3,24.1,154.6,24.1Z" transform="translate(0.1)"/><path class="cls-1" d="M163.2,29.4V25.7c0-1.3-.5-2.2-2-2.2a2,2,0,0,0-1.9,1.2h0v-1h-.7v5.8h.7V26.3c0-1,.4-2.1,1.7-2.1,1,0,1.4.7,1.4,1.8v3.5h.8Z" transform="translate(0.1)"/><path class="cls-1" d="M170.8,24.1c.9,0,1.2.6,1.2,1.5v3.9h.7v-4a1.76,1.76,0,0,0-1.8-1.9,2,2,0,0,0-1.9,1.2h0a1.43,1.43,0,0,0-1.5-1.2,1.81,1.81,0,0,0-1.8,1.1h0v-1H165v5.8h.7V26.3c0-1.4.8-2.1,1.6-2.1s1.2.6,1.2,1.5v3.9h.7V26.4C169.2,24.7,170,24.1,170.8,24.1Z" transform="translate(0.1)"/><path class="cls-1" d="M176.5,23.5c-1.5,0-2.5,1.3-2.5,3s.7,3,2.6,3a5.08,5.08,0,0,0,1.7-.3v-.7a3.77,3.77,0,0,1-1.6.4c-1.3,0-1.9-1-1.9-2.2h4v-.4C178.8,24.8,178.1,23.5,176.5,23.5Zm-1.7,2.6a1.82,1.82,0,0,1,1.7-2c1.1,0,1.5,1,1.5,2Z" transform="translate(0.1)"/><path class="cls-1" d="M184.7,29.4V25.7c0-1.3-.5-2.2-2-2.2a2,2,0,0,0-1.9,1.2h0v-1h-.7v5.8h.7V26.3c0-1,.4-2.1,1.7-2.1,1,0,1.4.7,1.4,1.8v3.5h.8Z" transform="translate(0.1)"/><path class="cls-1" d="M188.5,28.9c-.6,0-.8-.4-.8-1V24.1H189v-.6h-1.3V21.8l-.7.3v1.4h-1.1v.6H187v3.4c0,1.1,0,1.9,1.3,1.9a2,2,0,0,0,.9-.2v-.6A.74.74,0,0,1,188.5,28.9Z" transform="translate(0.1)"/><polygon class="cls-1" points="191.8 28.4 190.8 28.4 190.1 30.9 190.9 30.9 191.8 28.4"/><polygon class="cls-1" points="61.3 41.5 61.3 41.5 59.3 34.4 58.3 34.4 56.3 41.5 56.2 41.5 54.3 34.4 53.5 34.4 55.8 42.4 56.7 42.4 58.8 35.3 58.8 35.3 60.8 42.4 61.7 42.4 64 34.4 63.3 34.4 61.3 41.5"/><path class="cls-1" d="M68.5,38.6c0-1.5-.6-2.2-2-2.2a4.71,4.71,0,0,0-1.7.4v.7a3.37,3.37,0,0,1,1.7-.5c1,0,1.3.5,1.3,1.5v.3h-.1c-1.5,0-3.6.1-3.6,2,0,.5.3,1.6,1.9,1.6a2,2,0,0,0,1.8-1.1h0v.9h.7a4.87,4.87,0,0,1-.1-1.2V38.6Zm-.7,1.2c0,.6,0,2.1-1.7,2.1-.7,0-1.2-.3-1.2-1,0-1.3,1.5-1.4,2.7-1.4h.2Z" transform="translate(0.1)"/><path class="cls-1" d="M72.2,41.9c-.6,0-.8-.4-.8-1V37.1h1.3v-.6H71.4V34.8l-.7.3v1.4H69.6v.6h1.1v3.4c0,1.1,0,1.9,1.3,1.9a2,2,0,0,0,.9-.2v-.6A.83.83,0,0,1,72.2,41.9Z" transform="translate(0.1)"/><path class="cls-1" d="M76,36.5c-1.5,0-2.5,1.3-2.5,3s.7,3,2.6,3a5.08,5.08,0,0,0,1.7-.3v-.7a3.77,3.77,0,0,1-1.6.4c-1.3,0-1.9-1-1.9-2.2h4v-.4C78.3,37.8,77.7,36.5,76,36.5Zm-1.6,2.6a1.82,1.82,0,0,1,1.7-2c1.1,0,1.5,1,1.5,2Z" transform="translate(0.1)"/><path class="cls-1" d="M80.4,37.7h0V36.6h-.7v5.8h.7V39.5c0-1,.3-2.3,1.4-2.3a.75.75,0,0,1,.5.1v-.8a4.33,4.33,0,0,0-.5-.1A2.24,2.24,0,0,0,80.4,37.7Z" transform="translate(0.1)"/><path class="cls-1" d="M90.7,38.6c0-1.5-.6-2.2-2-2.2a4.71,4.71,0,0,0-1.7.4v.7a3.37,3.37,0,0,1,1.7-.5c1,0,1.3.5,1.3,1.5v.3h-.1c-1.5,0-3.6.1-3.6,2,0,.5.3,1.6,1.9,1.6A2,2,0,0,0,90,41.3h0v.9h.7a4.87,4.87,0,0,1-.1-1.2V38.6Zm-.8,1.2c0,.6,0,2.1-1.7,2.1-.7,0-1.2-.3-1.2-1,0-1.3,1.5-1.4,2.7-1.4h.2Z" transform="translate(0.1)"/><path class="cls-1" d="M94.9,36.5A2,2,0,0,0,93,37.7h0v-1h-.7v5.8H93V39.3c0-1,.4-2.1,1.7-2.1,1,0,1.4.7,1.4,1.8v3.5h.7V38.8C96.9,37.4,96.4,36.5,94.9,36.5Z" transform="translate(0.1)"/><path class="cls-1" d="M102.6,37.6h0a2,2,0,0,0-1.8-1.1c-1.7,0-2.4,1.3-2.4,3s.8,3,2.4,3a1.83,1.83,0,0,0,1.8-1.1h0v.9h.7V33.8h-.7Zm-1.7,4.3c-1.4,0-1.7-1.3-1.7-2.4s.4-2.4,1.7-2.4,1.7,1.4,1.7,2.4S102.2,41.9,100.9,41.9Z" transform="translate(0.1)"/><polygon class="cls-1" points="113.4 41.4 113.3 41.4 109.3 34.4 108.3 34.4 108.3 42.4 109.1 42.4 109.1 35.5 109.1 35.5 113.1 42.4 114.1 42.4 114.1 34.4 113.4 34.4 113.4 41.4"/><path class="cls-1" d="M119.8,38.6c0-1.5-.6-2.2-2-2.2a4.71,4.71,0,0,0-1.7.4v.7a3.37,3.37,0,0,1,1.7-.5c1,0,1.3.5,1.3,1.5v.3H119c-1.5,0-3.6.1-3.6,2,0,.5.3,1.6,1.9,1.6a2,2,0,0,0,1.8-1.1h0v.9h.7a4.87,4.87,0,0,1-.1-1.2V38.6Zm-.7,1.2c0,.6,0,2.1-1.7,2.1-.7,0-1.2-.3-1.2-1,0-1.3,1.5-1.4,2.7-1.4h.2Z" transform="translate(0.1)"/><path class="cls-1" d="M123.5,41.9c-.6,0-.8-.4-.8-1V37.1H124v-.6h-1.3V34.8l-.7.3v1.4h-1.1v.6H122v3.4c0,1.1,0,1.9,1.3,1.9a2,2,0,0,0,.9-.2v-.6A.74.74,0,0,1,123.5,41.9Z" transform="translate(0.1)"/><path class="cls-1" d="M129.9,36.6h-.7v3.2c0,1-.4,2.1-1.7,2.1-1,0-1.4-.7-1.4-1.8V36.6h-.7v3.7c0,1.3.5,2.2,2,2.2a1.86,1.86,0,0,0,1.9-1.2h0v1h.7V36.6Z" transform="translate(0.1)"/><path class="cls-1" d="M132.4,37.7h0V36.6h-.7v5.8h.7V39.5c0-1,.3-2.3,1.4-2.3a.75.75,0,0,1,.5.1v-.8a4.33,4.33,0,0,0-.5-.1A1.85,1.85,0,0,0,132.4,37.7Z" transform="translate(0.1)"/><path class="cls-1" d="M139.4,38.6c0-1.5-.6-2.2-2-2.2a4.71,4.71,0,0,0-1.7.4v.7a3.37,3.37,0,0,1,1.7-.5c1,0,1.3.5,1.3,1.5v.3h-.1c-1.5,0-3.6.1-3.6,2,0,.5.3,1.6,1.9,1.6a2,2,0,0,0,1.8-1.1h0v.9h.7a4.87,4.87,0,0,1-.1-1.2V38.6Zm-.7,1.2c0,.6,0,2.1-1.7,2.1-.7,0-1.2-.3-1.2-1,0-1.3,1.5-1.4,2.7-1.4h.2Z" transform="translate(0.1)"/><rect class="cls-1" x="141.3" y="33.9" width="0.7" height="8.5"/><path class="cls-1" d="M149.6,38.4h0a1.88,1.88,0,0,0,1.8-1.9c0-1.5-.9-2.1-2.3-2.1H147v8h.8V38.6h.7c.8,0,1.1,0,1.5,1.1l1.2,2.7h.9l-1.4-3.1C150.4,38.8,150.2,38.4,149.6,38.4Zm-1-.4h-.8V35.2h.8c1.1,0,2,.1,2,1.4C150.6,37.6,149.5,38,148.6,38Z" transform="translate(0.1)"/><path class="cls-1" d="M155.2,36.5c-1.5,0-2.5,1.3-2.5,3s.7,3,2.6,3a5.08,5.08,0,0,0,1.7-.3v-.7a3.77,3.77,0,0,1-1.6.4c-1.3,0-1.9-1-1.9-2.2h4v-.4C157.5,37.8,156.9,36.5,155.2,36.5Zm-1.7,2.6a1.82,1.82,0,0,1,1.7-2c1.1,0,1.5,1,1.5,2Z" transform="translate(0.1)"/><path class="cls-1" d="M159.2,38c0-.7.5-1,1.3-1a3.08,3.08,0,0,1,1.3.3l.1-.6a4.41,4.41,0,0,0-1.4-.3c-1,0-1.9.4-1.9,1.6,0,1.7,2.8,1.5,2.8,2.8,0,.7-.6,1-1.3,1a2.41,2.41,0,0,1-1.5-.4l-.1.7a4.53,4.53,0,0,0,1.6.3c.9,0,2-.4,2-1.7C162,39,159.2,39.1,159.2,38Z" transform="translate(0.1)"/><path class="cls-1" d="M165.6,36.5a2.7,2.7,0,0,0-2.7,3c0,1.6.8,3,2.7,3a2.7,2.7,0,0,0,2.7-3C168.3,37.9,167.5,36.5,165.6,36.5Zm0,5.4c-1.3,0-1.9-1.1-1.9-2.4s.7-2.4,1.9-2.4,1.9,1.1,1.9,2.4S166.8,41.9,165.6,41.9Z" transform="translate(0.1)"/><path class="cls-1" d="M174.2,36.6h-.7v3.2c0,1-.4,2.1-1.7,2.1-1,0-1.4-.7-1.4-1.8V36.6h-.7v3.7c0,1.3.5,2.2,2,2.2a1.86,1.86,0,0,0,1.9-1.2h0v1h.7V36.6Z" transform="translate(0.1)"/><path class="cls-1" d="M176.7,37.7h0V36.6H176v5.8h.7V39.5c0-1,.3-2.3,1.4-2.3a.75.75,0,0,1,.5.1v-.8a4.33,4.33,0,0,0-.5-.1A2,2,0,0,0,176.7,37.7Z" transform="translate(0.1)"/><path class="cls-1" d="M182.3,37.1a2.38,2.38,0,0,1,1.2.3l.1-.7a3.71,3.71,0,0,0-1.4-.2,2.86,2.86,0,0,0-2.9,3,2.73,2.73,0,0,0,2.8,3,3.89,3.89,0,0,0,1.5-.2l-.1-.7a3.08,3.08,0,0,1-1.3.3,2.19,2.19,0,0,1-2.1-2.4A2.16,2.16,0,0,1,182.3,37.1Z" transform="translate(0.1)"/><path class="cls-1" d="M186.9,36.5c-1.5,0-2.5,1.3-2.5,3s.7,3,2.6,3a5.08,5.08,0,0,0,1.7-.3v-.7a3.77,3.77,0,0,1-1.6.4c-1.3,0-1.9-1-1.9-2.2h4v-.4C189.2,37.8,188.5,36.5,186.9,36.5Zm-1.7,2.6a1.82,1.82,0,0,1,1.7-2c1.1,0,1.5,1,1.5,2Z" transform="translate(0.1)"/><path class="cls-1" d="M190.8,38c0-.7.5-1,1.3-1a3.08,3.08,0,0,1,1.3.3l.1-.6a4.41,4.41,0,0,0-1.4-.3c-1,0-1.9.4-1.9,1.6,0,1.7,2.8,1.5,2.8,2.8,0,.7-.6,1-1.3,1a2.41,2.41,0,0,1-1.5-.4l-.1.7a4.53,4.53,0,0,0,1.6.3c.9,0,2-.4,2-1.7C193.7,39,190.8,39.1,190.8,38Z" transform="translate(0.1)"/><rect class="cls-1" x="53.7" y="16.3" width="160.8" height="1.7"/><path class="cls-1" d="M58,11.5a10.86,10.86,0,0,0,2.5-.4V6.9H57.4V8.1H59v2a3.08,3.08,0,0,1-1,.1,2.55,2.55,0,0,1-2.6-2.7,2.62,2.62,0,0,1,2.8-2.8,4.77,4.77,0,0,1,2,.4l.1-1.3A8,8,0,0,0,58,3.5c-2.6,0-4.2,1.5-4.2,4.1S55.5,11.5,58,11.5Z" transform="translate(0.1)"/><path class="cls-1" d="M64.6,11.5a2.81,2.81,0,0,0,3-2.9,3,3,0,0,0-6,0A2.81,2.81,0,0,0,64.6,11.5Zm0-4.8c1,0,1.4.8,1.4,1.7s-.3,2-1.4,2-1.4-1-1.4-2A1.4,1.4,0,0,1,64.6,6.7Z" transform="translate(0.1)"/><polygon class="cls-1" points="71.9 11.3 74 5.6 72.5 5.6 71.2 9.8 71.1 9.8 69.7 5.6 68.1 5.6 70.3 11.3 71.9 11.3"/><path class="cls-1" d="M77.4,11.5a4.23,4.23,0,0,0,2-.5V9.8a4.24,4.24,0,0,1-1.9.6A1.42,1.42,0,0,1,75.9,9h3.9c0-2-.6-3.4-2.7-3.4-1.8,0-2.6,1.4-2.6,3A2.59,2.59,0,0,0,77.4,11.5Zm-.3-4.9a1.18,1.18,0,0,1,1.2,1.3H75.8A1.32,1.32,0,0,1,77.1,6.6Z" transform="translate(0.1)"/><path class="cls-1" d="M82.4,9.2c0-.8,0-2.3,1.2-2.3a1.48,1.48,0,0,1,.7.1V5.6h-.5A1.83,1.83,0,0,0,82.2,7h0V5.6H80.9v5.7h1.5Z" transform="translate(0.1)"/><path class="cls-1" d="M86.8,8.5c0-.7.2-1.9,1.3-1.9.9,0,1,.9,1,1.6v3h1.5V7.7c0-1.3-.6-2.2-1.9-2.2a2.32,2.32,0,0,0-1.9.9h0V5.6H85.4v5.7h1.5V8.5Z" transform="translate(0.1)"/><path class="cls-1" d="M93.5,8.6c0-.7.1-1.9,1.1-1.9.8,0,.8.8.8,1.3v3.4h1.5V8.6c0-.7.1-1.9,1.1-1.9.8,0,.8.8.8,1.3v3.4h1.5V7.7c0-1.3-.4-2.2-1.8-2.2a2,2,0,0,0-1.8,1,1.67,1.67,0,0,0-1.7-1,2,2,0,0,0-1.7.9h0V5.6H92v5.7h1.5Z" transform="translate(0.1)"/><path class="cls-1" d="M104.4,11.5a4.23,4.23,0,0,0,2-.5V9.8a4.24,4.24,0,0,1-1.9.6A1.42,1.42,0,0,1,102.9,9h3.9c0-2-.6-3.4-2.7-3.4-1.8,0-2.6,1.4-2.6,3A2.59,2.59,0,0,0,104.4,11.5Zm-.2-4.9a1.18,1.18,0,0,1,1.2,1.3h-2.5A1.21,1.21,0,0,1,104.2,6.6Z" transform="translate(0.1)"/><path class="cls-1" d="M109.4,8.5c0-.7.2-1.9,1.3-1.9.9,0,1,.9,1,1.6v3h1.5V7.7c0-1.3-.6-2.2-1.9-2.2a2.32,2.32,0,0,0-1.9.9h0V5.6H108v5.7h1.5V8.5Z" transform="translate(0.1)"/><path class="cls-1" d="M115.1,9.6a1.63,1.63,0,0,0,1.8,1.8,3.75,3.75,0,0,0,1.1-.1V10.1a1.45,1.45,0,0,1-.7.2c-.6,0-.7-.5-.7-.9V6.7h1.3V5.6h-1.3V4l-1.5.5V5.6H114V6.7h1.1Z" transform="translate(0.1)"/><path class="cls-1" d="M124.5,11.5a2.81,2.81,0,0,0,3-2.9,3,3,0,0,0-6,0A2.81,2.81,0,0,0,124.5,11.5Zm0-4.8c1,0,1.4.8,1.4,1.7s-.3,2-1.4,2-1.4-1-1.4-2S123.5,6.7,124.5,6.7Z" transform="translate(0.1)"/><path class="cls-1" d="M129.1,11.3h1.5V6.7h1.3V5.6h-1.3V4.9c0-.4.2-.9.7-.9a.85.85,0,0,1,.6.2L132,3a3.75,3.75,0,0,0-1.1-.1,1.71,1.71,0,0,0-1.8,1.9v.8H128V6.7h1.1v4.6Z" transform="translate(0.1)"/><path class="cls-1" d="M139.1,9.3c0,.7-.8,1-1.4,1a3.37,3.37,0,0,1-1.7-.5l-.1,1.4a6.45,6.45,0,0,0,2,.3c1.6,0,2.9-.6,2.9-2.3,0-2.6-3.4-2-3.4-3.4a1.12,1.12,0,0,1,1.2-1.1,4.53,4.53,0,0,1,1.6.3l.1-1.3a5.66,5.66,0,0,0-1.8-.3c-1.4,0-2.7.6-2.7,2.4C135.8,8.4,139.1,7.8,139.1,9.3Z" transform="translate(0.1)"/><path class="cls-1" d="M144.6,11.5a2.81,2.81,0,0,0,3-2.9,3,3,0,0,0-6,0A2.81,2.81,0,0,0,144.6,11.5Zm0-4.8c1,0,1.4.8,1.4,1.7s-.3,2-1.4,2-1.4-1-1.4-2S143.6,6.7,144.6,6.7Z" transform="translate(0.1)"/><path class="cls-1" d="M150.6,11.5a2.65,2.65,0,0,0,1.9-.9h0v.8h1.4V5.6h-1.5V8.4c0,.7-.2,1.9-1.3,1.9-.9,0-1-.9-1-1.6v-3h-1.5V9.3C148.7,10.5,149.3,11.5,150.6,11.5Z" transform="translate(0.1)"/><path class="cls-1" d="M155.9,9.6a1.63,1.63,0,0,0,1.8,1.8,3.75,3.75,0,0,0,1.1-.1V10.1a1.45,1.45,0,0,1-.7.2c-.6,0-.7-.5-.7-.9V6.7h1.3V5.6h-1.3V4l-1.5.5V5.6h-1.1V6.7h1.1V9.6Z" transform="translate(0.1)"/><path class="cls-1" d="M161.1,8.5c0-.7.2-1.9,1.3-1.9.9,0,1,.9,1,1.6v3h1.5V7.7c0-1.3-.6-2.2-1.9-2.2a2.27,2.27,0,0,0-1.8.9h0V3.1h-1.5v8.3h1.5V8.5Z" transform="translate(0.1)"/><path class="cls-1" d="M171,9.6h3.1l.7,1.8h1.7l-3-7.7h-1.7l-3,7.7h1.6Zm1.6-4.4h0l1.1,3.2h-2.3Z" transform="translate(0.1)"/><path class="cls-1" d="M179.2,11.5a2.65,2.65,0,0,0,1.9-.9h0v.8h1.4V5.6H181V8.4c0,.7-.2,1.9-1.3,1.9-.9,0-1-.9-1-1.6v-3h-1.5V9.3C177.3,10.5,177.9,11.5,179.2,11.5Z" transform="translate(0.1)"/><path class="cls-1" d="M186.2,9.7c0,.6-.6.7-1,.7a2.82,2.82,0,0,1-1.5-.4l-.1,1.2a8.81,8.81,0,0,0,1.7.2c1.2,0,2.4-.5,2.4-1.9,0-2.1-2.6-1.5-2.6-2.4,0-.5.5-.6.9-.6a5.07,5.07,0,0,1,1.3.2l.1-1.1a7,7,0,0,0-1.6-.2c-1.2,0-2.2.5-2.2,1.8C183.7,9.3,186.2,8.6,186.2,9.7Z" transform="translate(0.1)"/><path class="cls-1" d="M189.4,9.6a1.63,1.63,0,0,0,1.8,1.8,3.75,3.75,0,0,0,1.1-.1V10.1a1.45,1.45,0,0,1-.7.2c-.6,0-.7-.5-.7-.9V6.7h1.3V5.6h-1.3V4l-1.5.5V5.6h-1.1V6.7h1.1V9.6Z" transform="translate(0.1)"/><path class="cls-1" d="M194.6,9.2c0-.8,0-2.3,1.2-2.3a1.48,1.48,0,0,1,.7.1V5.6H196A1.83,1.83,0,0,0,194.4,7h0V5.6h-1.3v5.7h1.5V9.2Z" transform="translate(0.1)"/><path class="cls-1" d="M199,11.5a2.23,2.23,0,0,0,1.8-1h0a2.2,2.2,0,0,0,.1.8h1.3c0-.4-.1-.8-.1-1.3V7.9c0-1.7-.7-2.4-2.4-2.4a7.11,7.11,0,0,0-2,.4V7.2a2.79,2.79,0,0,1,1.8-.6c.9,0,1.3.3,1.3,1.2H200a6.28,6.28,0,0,0-1.9.3,1.68,1.68,0,0,0-1,1.6A1.71,1.71,0,0,0,199,11.5Zm1.1-2.8h.6a2.66,2.66,0,0,1-.3,1.2,1.23,1.23,0,0,1-1,.5c-.5,0-.9-.2-.9-.7C198.4,8.8,199.4,8.7,200.1,8.7Z" transform="translate(0.1)"/><rect class="cls-1" x="203.6" y="3.1" width="1.5" height="8.3"/><rect class="cls-1" x="206.7" y="5.6" width="1.5" height="5.7"/><rect class="cls-1" x="206.7" y="3.2" width="1.5" height="1.4"/><path class="cls-1" d="M211.2,11.5a2.23,2.23,0,0,0,1.8-1h0a2.2,2.2,0,0,0,.1.8h1.3c0-.4-.1-.8-.1-1.3V7.9c0-1.7-.7-2.4-2.4-2.4a7.11,7.11,0,0,0-2,.4V7.2a2.79,2.79,0,0,1,1.8-.6c.9,0,1.3.3,1.3,1.2h-.8a6.28,6.28,0,0,0-1.9.3,1.68,1.68,0,0,0-1,1.6A1.71,1.71,0,0,0,211.2,11.5Zm1-2.8h.6a2.66,2.66,0,0,1-.3,1.2,1.23,1.23,0,0,1-1,.5c-.5,0-.9-.2-.9-.7C210.6,8.8,211.6,8.7,212.2,8.7Z" transform="translate(0.1)"/><path class="cls-1" d="M34.4,21.8A12.26,12.26,0,1,0,22.6,34.5,12.15,12.15,0,0,0,34.4,21.8ZM22.6,34.1A11.91,11.91,0,1,1,34.1,21.8,11.87,11.87,0,0,1,22.6,34.1Z" transform="translate(0.1)"/><path class="cls-1" d="M32.1,21.4a3.51,3.51,0,0,0,.8-.5,1,1,0,0,0-.5-.4c-.2-.1-.4-.1-.6-.3.1-.3.5-.4.7-.7-.1-.1-.2-.2-.3-.2s-.5-.1-.7-.3c.2-.2.4-.3.7-.6-.2-.2-.4-.2-.7-.3s-.4.2-.5,0a7,7,0,0,0,.6-.9,1.47,1.47,0,0,0-1.1.2c-.2.1-.4.2-.6,0a2.7,2.7,0,0,1,.8-.7c.2-.1.4-.3.2-.6A4.75,4.75,0,0,0,29,17c-.1,0-.2.2-.3.1s.1-.2.2-.3a1.42,1.42,0,0,0,.8-.9c.1-.4.4-.5.3-1A3.55,3.55,0,0,0,28.4,16a.78.78,0,0,1-.4.4c-.1-.1,0-.3.1-.4a3.33,3.33,0,0,1,.6-1c0-.2.2-.4.2-.7,0-.1.1-.3-.2-.3a4.43,4.43,0,0,0-1.2,1.5c-.1.1-.1.2-.2.2a.64.64,0,0,1,0-.6,4.88,4.88,0,0,0,.3-.7V13.2c-.5.3-.6.9-.9,1.4a3.29,3.29,0,0,1,0-1.4c-.1-.3-.1-.6-.4-.7-.3.3-.2.7-.4,1.2-.1-.1-.1-.3-.3-.2a41.8,41.8,0,0,0,.2,5,14.62,14.62,0,0,0-.5,2c0,.7-.5,1.2-1,1.8-.3-.1-.7.1-.8-.2a3.1,3.1,0,0,0-.6-1.3,5.8,5.8,0,0,0-2.1-1c-.1,0-.4-.1-.4.1a1.34,1.34,0,0,1,.8.7c-.2,0-.4-.1-.6-.1s-.2-.1-.3,0a5.55,5.55,0,0,0,.8.6c.2.1.2.3.3.5a.91.91,0,0,1-.3.7c-.3.3-.5-.3-.8-.1-.1,0-.3,0-.3-.1-.1-.5-.5-.7-.7-1.1a2.39,2.39,0,0,0-.5-1.4,3.63,3.63,0,0,1-.1-2.3c.1-.6.2-1.2.3-1.9,0-.2.1-.4,0-.6V14c-.1-.2,0-.4-.1-.6-.2,0-.2.4-.5.3-.1-.2,0-.4-.1-.6a3.4,3.4,0,0,0-.1-1h-.1a1.19,1.19,0,0,0-.4,1.1,5.65,5.65,0,0,1,0,1.3c0,.2.1.4-.1.5-.1-.1-.1-.2-.1-.4-.1-.4-.2-.8-.3-1.1s-.1-.5-.6-.6a1.7,1.7,0,0,0,0,1,1.45,1.45,0,0,0,.2.7c.1.2.2.4-.2.4a4.7,4.7,0,0,0-.9-1.2c-.1,0-.2-.3-.4-.2a2,2,0,0,0,.1.8,3.42,3.42,0,0,1,.8,1.6,6.89,6.89,0,0,0-1.9-1.2c0,.6.7,1,.8,1.6a4.47,4.47,0,0,0-1.7-.8,2.27,2.27,0,0,0,.6,1.2c-.3,0-.6-.1-1-.1a.37.37,0,0,0-.3.1,7,7,0,0,1,.6.9c-.4.2-.8,0-1.2.2a2.93,2.93,0,0,1,.4.8,1.23,1.23,0,0,0-.8.4c.1.3.4.4.6.6a.37.37,0,0,1,.1.3c-.2.2-.5.3-.7.7.2.2.5.3.6.6-.2.3-.5.4-.6.7s.2.2.3.3.3.1.4.2-.3.4-.3.6a.76.76,0,0,0,.4.2c.3.1.6-.2.7.1a1.45,1.45,0,0,0-.2.7c.1.1.3.1.4.2s.4-.1.6.1v.1c0,.1-.1.2-.1.3s-.2.3-.1.4a1.8,1.8,0,0,0,1-.1c.2.1.2.3.2.5.2.1.4,0,.6,0s.2.3.3.5.2,0,.3,0c.4-.3.4.2.7.3s.2-.2.4-.1.2.2.4.3.3-.2.5-.3.4.2.5.3.3-.1.5-.2.3.1.5.1.2-.3.3-.4c.1-.3-.1-.8.3-1l.3,1.1c.1.3-.1.6-.2.9a13.07,13.07,0,0,1-1.2,1.1c-.3.3-.7.1-1.1.2h0c-.4.3-.9,0-1.3.3-.1.1-.2.3-.1.4.2.4.6.3,1,.3.2,0,.4.2.6.1.2-.3.3,0,.5,0a5.64,5.64,0,0,1,.7-.1,4.05,4.05,0,0,0-.5.9c-.1.3.3.2.3.5s.5.1.5.4.3.1.4.1.2.3.3.4h.3c.2,0,.2.2.3.2l.4-.1c.2,0,.3.3.5.4s.3-.3.6-.3l.5.2c.1-.1.2-.3.3-.4h.4c.2,0,.2-.2.3-.2h.4c.1-.1.1-.2.2-.3s.2-.1.4-.2c0-.2.3-.3.4-.4a.91.91,0,0,0-.3-.7,1.07,1.07,0,0,1-.2-.6.52.52,0,0,1,.4.2.55.55,0,0,0,.5-.2c.1-.1.2.1.3.2s.3,0,.4-.1.6,0,.8-.3c.1-.1.1-.2.1-.4-.2-.4-.7-.3-1-.3-.1-.1-.1-.1-.2-.1h0c-.3-.1-.8,0-1.1-.2a19.2,19.2,0,0,1-1.4-1.5c-.3-.4.1-.9.1-1.4,0-.1.1-.2.3,0,.1.5.1,1,.6,1.3.2,0,.3-.2.4-.2s.2.2.3.3.2-.2.4-.3.3.2.5.1l.3-.3c.2,0,.3.2.5.2s.2-.3.3-.5c.2,0,.3,0,.4.1.3.1.2-.2.4-.4s.5,0,.8,0l.2-.2c.1-.5.6-.2.9-.3.1-.2,0-.5.1-.7l.1-.1h.9c.1-.1,0-.2,0-.3s-.3-.4-.1-.5a2.77,2.77,0,0,0,.9-.1.52.52,0,0,0-.2-.4,1.38,1.38,0,0,1-.3-.4c.2-.2.4-.2.6-.3s.3-.1.4-.3c-.1-.2-.3-.3-.5-.5C32,21.6,32,21.4,32.1,21.4ZM18.6,16.3h0a.9.9,0,0,1,.1.5,1.8,1.8,0,0,1-.2,1c-.1-.3-.2-.7-.3-1S18.3,16.3,18.6,16.3ZM18,17c.2,0,.1.2.2.3a5.64,5.64,0,0,0,.1.7,3.51,3.51,0,0,1-.5-.8C17.9,17.2,17.9,17.1,18,17Zm-.5,2.8v-.3c.3,0,.4.1.5,0l-.6-.5c.2-.2.4,0,.5,0-.1-.3-.4-.3-.5-.5a.37.37,0,0,1,.1-.3c.1,0,.1.1.2.2,0-.2-.3-.5-.1-.7l.2.2c.1.2.4.4.3.7A6.15,6.15,0,0,0,18,20C17.9,20.1,17.7,20,17.5,19.8Zm2.4,2.8c-.1.2-.2.4-.5.3a.37.37,0,0,1-.1-.3c-.1-.1-.2.1-.4.1-.2-.3-.1-.4,0-.6-.2,0-.3.3-.6.2-.1,0-.2-.1-.1-.2a.76.76,0,0,1,.2-.4c-.2,0-.5.2-.6,0s.1-.2.2-.3a.76.76,0,0,0,.4-.2c-.3-.2-.5-.4-.4-.5s.2-.1.3-.1.3.2.4.2-.1-.2,0-.3c-.1-.1-.1-.2-.1-.4.2,0,.2.2.4.2,0-.1-.1-.3,0-.4.2.2.1.6.2.8s.4.5.6.8C19.8,22,20,22.3,19.9,22.6Zm-1.8,6.6a1.18,1.18,0,0,1-1,.1.31.31,0,0,1-.1-.2c.2-.4.6-.2.9-.2l.2.1C18.2,29,18.1,29.1,18.1,29.2Zm.8.1c-.2,0-.5.1-.6-.1.1-.1.1-.3.3-.4a1.09,1.09,0,0,1,.5.1A.52.52,0,0,1,18.9,29.3Zm7.7-.5a1.27,1.27,0,0,1,.6.1v.3c-.3.3-.7.2-1.1.2A.79.79,0,0,1,26.6,28.8Zm-.5.2c0,.1-.1.2-.2.3a.45.45,0,0,1-.5,0,.37.37,0,0,1-.1-.3C25.7,28.8,26,28.8,26.1,29Zm-4.2-8.6.2.1c-.1.3-.2.2-.3.2A.44.44,0,0,1,21.9,20.4Zm-1.2.2c.1-.1.2-.1.4,0s.2.1.3,0c.1-.3-.3-.5-.4-.7a.44.44,0,0,1,.5.1c.1.3.2.5,0,.8S21,20.6,20.7,20.6Zm-1.3,8h0c.5-.7,1.1-.7,1.5-1.1.2,0,.2.3.3.4a.37.37,0,0,1-.1.3,1.38,1.38,0,0,1-.4.3c-.1,0-.1.1-.2.1A4,4,0,0,1,19.4,28.6Zm.3.3h.5c-.2.2-.3.6-.7.4C19.5,29.1,19.6,28.9,19.7,28.9Zm.1,1.1c-.2-.2-.1-.3,0-.4a17.1,17.1,0,0,1,1.4-1.1h.1c0,.1-.1.2-.2.3-.3.4-.8.6-1,1C19.9,29.9,19.9,30,19.8,30Zm.5.1c-.1.1-.1.3-.3.3-.1-.2.1-.4.3-.6.4-.4.8-.7,1.2-1.1h.1c-.1.2-.3.4-.4.6C20.8,29.6,20.4,29.8,20.3,30.1Zm.3.6c-.2-.1-.2-.2-.1-.3a15.26,15.26,0,0,1,1.1-1.6l.1.1a5.39,5.39,0,0,1-.7,1.3C20.7,30.4,20.6,30.5,20.6,30.7Zm.6.3c-.3,0-.4-.2-.3-.3a1.45,1.45,0,0,0,.2-.7l.6-1.2.1.1a5,5,0,0,1-.3,1.3A1.6,1.6,0,0,0,21.2,31Zm.9-.4c-.1.2-.3.3-.4.5-.2-.2-.1-.5-.1-.7.1-.4.3-.8.4-1.2h.1Zm.4.3c-.5-.3-.2-1-.2-1.4a.6.6,0,0,1,.1-.4l.2.1a5.08,5.08,0,0,1,.3,1.7C22.6,31.1,22.6,31,22.5,30.9Zm.6-.3a7.58,7.58,0,0,1-.6-1.6c.2-.2.2.1.3.2.2.6.7,1,.7,1.6C23.2,31,23.2,30.8,23.1,30.6Zm1,.2c-.3,0-.3-.2-.5-.4a6,6,0,0,1-.9-1.5c.5.3.7.9,1.1,1.3C24,30.3,24.2,30.6,24.1,30.8Zm.4-.2A10,10,0,0,1,23.1,29c-.1-.1-.3-.2-.2-.4a2.58,2.58,0,0,1,.9.9,6.47,6.47,0,0,1,.8.9C24.6,30.5,24.6,30.6,24.5,30.6Zm.4-1.3c-.3.2-.5-.3-.8-.4l.8-.1C25,29.2,24.9,29.3,24.9,29.3Zm-.5-1.4.6.6h-.4l-.9.1-.1-.1h0a.78.78,0,0,1-.4-.4c0-.3.2-.5.2-.7s.2.1.3.1C23.9,27.7,24.2,27.7,24.4,27.9Zm-.8-2a5,5,0,0,1-.5,1.3v.3a2.22,2.22,0,0,1-.5,1.1h.7a10.61,10.61,0,0,1,1.5,1.5c-.2.1-.3-.1-.4-.2-.4-.4-.8-.9-1.2-1.3h-.6c-.1.1-.2.4-.5.4a.78.78,0,0,1-.4-.4,2.57,2.57,0,0,1-.5-1.2c.1-.2.1,0,.2-.1a.52.52,0,0,1-.2-.4,1.64,1.64,0,0,1-.2-1c-.1-.1-.1.1-.2,0s-.1-.4-.2-.5v-.3a.76.76,0,0,1,.2-.4.9.9,0,0,0,.1-.5.6.6,0,0,0,.1-.4c0-.4.2-.7.1-1.1.1-.2.5-.1.7-.2a1.06,1.06,0,0,0,.8-.9c0-.2,0-.4.2-.4a.66.66,0,0,1,.5.4c0,.1.1.2.1.3a1.7,1.7,0,0,1,0,1,3.28,3.28,0,0,0,.1,1.7c0,.1.1.2.1.4s.1.2.1.3C23.9,25.2,23.7,25.5,23.6,25.9Zm3.5-7.4-.7.7c-.2-.2,0-.4,0-.5a1.21,1.21,0,0,1,.5-.5C27.1,18.2,27.1,18.4,27.1,18.5Zm-.2-.8.1.1c.1.2-.1.3-.2.4l-.3.5c-.1-.1-.1-.1-.1-.2A1.58,1.58,0,0,1,26.9,17.7Zm-.8-1c.2,0,.3.1.3.2,0,.3-.2.4-.2.7.2-.1.2-.4.4-.4s0,.1,0,.2c-.2.2-.2.6-.4.8A2.57,2.57,0,0,1,26.1,16.7Zm0,5.2c.2.2.4.3.4.6a.66.66,0,0,1-.7-.2c.1.2.2.3.2.5s-.3,0-.4,0-.2-.2-.3-.2.3.3.1.4a.76.76,0,0,1-.5-.2c0-.1-.1-.3-.1-.4.2-.4.5-.8.7-1.2l.3-.9h.1c0,.1-.1.2,0,.3.1-.1.2-.2.4-.1s0,.2,0,.3-.3.2-.2.3.3-.2.5-.1a1.07,1.07,0,0,1-.3.5.62.62,0,0,1,.6.4A2,2,0,0,1,26.1,21.9Zm.4-2c.1-.3.3-.5.6-.4C26.9,19.9,26.6,20,26.5,19.9Zm.6-.6c-.2.1-.4.1-.6.2-.1-.1,0-.1,0-.2a2.09,2.09,0,0,1,.6-.4l.1.1C27.3,19.1,27.1,19.2,27.1,19.3Z" transform="translate(0.1)"/><path class="cls-1" d="M4.4,25.5c-.3,0-.2-.5-.4-.5v.1c0,.3.1.5.1.8s.1.5.1.8c0,.1,0,.1.1.1s-.1-.3.3-.5l3-1.8c.8-.5,1-.5,1-.6s-.1,0-.4-.1-.4-.2-.5-.2-.2.2-.2.2-.3-.1-2.4-.6a2.46,2.46,0,0,1-1-.4c-.2-.2-.1-.4-.3-.4s-.1,0-.1.1.1.4.1.7a2.64,2.64,0,0,1,.1.7c0,.1,0,.1.1.1s-.1-.5.6-.6a3.87,3.87,0,0,1,.9.1L5.7,25l-.8.5A.45.45,0,0,0,4.4,25.5Zm1.2-2.1,1.7.4-1.6.9Z" transform="translate(0.1)"/><path class="cls-1" d="M7.9,31.6l1.8-1a.87.87,0,0,1,1.1,0c.1.1.1.2.2.2s0-.1,0-.2l-.3-.6-.3-.6a.1.1,0,0,0-.1-.1c-.1,0,0,.1,0,.3a1,1,0,0,1-.6.9l-1.9,1c-.8.4-1.4.2-1.7-.5a1.14,1.14,0,0,1,.4-1.6L9,28c.4-.2.5.4.6.3s.1-.1,0-.2-.2-.3-.4-.7a5.74,5.74,0,0,1-.4-.7c0-.1-.1-.1-.2-.1s.3.5-.1.7L6,28.6c-.7.4-.9,1.1-.4,2.2C6.3,31.9,7,32.1,7.9,31.6Z" transform="translate(0.1)"/><path class="cls-1" d="M13.1,34.9h.1c.1-.1.3-.4.9-1.2,0-.1.1-.1,0-.1s-.2.1-.3,0-.2-.5-.6-.9a1.39,1.39,0,0,0-1.9.1c-1.1,1.3,1.2,2.4.3,3.5a.85.85,0,0,1-1.3.1c-.7-.6-.4-1.4.1-2.2a.31.31,0,0,0,.1-.2h-.1L9.2,35.4v.1c.1.1.2-.2.4,0a3.63,3.63,0,0,0,.7.9,1.35,1.35,0,0,0,2.1-.1c1.1-1.3-1.1-2.5-.3-3.5a.71.71,0,0,1,1.1,0c.6.5.4,1.2.1,1.9C13.1,34.7,13,34.8,13.1,34.9Z" transform="translate(0.1)"/><path class="cls-1" d="M18,35.6a1.78,1.78,0,0,1,1,1.6c0,.2,0,.3.1.3h.1a.76.76,0,0,1,.1-.4l.2-1.1v-.1h-.3L16.5,35a.35.35,0,0,1-.2-.1.1.1,0,0,0-.2,0l-.6,1a1.44,1.44,0,0,0-.2.3v.1l.2-.2a2,2,0,0,1,1.8-.6L16,39.2c-.1.4-.7,0-.7.2s0,.1.1.1a2.61,2.61,0,0,1,.8.3,6.89,6.89,0,0,1,.8.3h.2c.1-.2-.6-.2-.5-.6Z" transform="translate(0.1)"/><path class="cls-1" d="M24.3,39.5l.7,1a8,8,0,0,0,1.1-.1c.1,0,.1,0,.1-.1s-.5.1-.8-.5l-.4-.6c-.4-.7-.7-.7-1.3-.8h0c.9-.2,1.5-.6,1.5-1.3s-.6-1.2-1.9-1c-.3,0-.5.1-.9.1a1.72,1.72,0,0,0-.8.1c-.1,0-.1,0-.1.1s.5-.1.6.4l.3,3.6c0,.5-.5.3-.5.5s0,.1.2.1a2.81,2.81,0,0,0,.8-.1,1.72,1.72,0,0,0,.8-.1c.1,0,.1,0,.1-.1s-.5.1-.6-.4L23,38.6h.1C23.6,38.5,23.7,38.7,24.3,39.5ZM23,38.4l-.2-2.2h.4c.6-.1,1,.2,1.1,1s-.3,1.1-1,1.2Z" transform="translate(0.1)"/><path class="cls-1" d="M30.8,38.6c0,.1.1.1.1,0a2.51,2.51,0,0,0,.7-.4c.2-.1.5-.2.7-.3a.1.1,0,0,0,.1-.1c-.1-.1-.3.2-.6-.1l-2.7-2.3c-.7-.6-.8-.8-.9-.8s0,.1,0,.4a2.18,2.18,0,0,1-.1.6c0,.1.2.1.3.2s0,.3.2,2.5a3.11,3.11,0,0,1-.1,1.1c-.1.2-.4.3-.3.4s.1.1.1,0l.6-.3a2.6,2.6,0,0,1,.7-.3c.1,0,.1,0,.1-.1s-.5.2-.8-.4a4.12,4.12,0,0,1-.2-.9l1.3-.6.7.6.3.3C31.3,38.4,30.8,38.4,30.8,38.6Zm-2-1-.2-1.8L30,37Z" transform="translate(0.1)"/><path class="cls-1" d="M34.5,36c.1.1.1,0,.2,0a3.17,3.17,0,0,0,.5-.6c1-1.1,1.4-1.5,1.7-1.9L36,32.3l-.1-.1h-.1v.2a1.82,1.82,0,0,1-.1,2.3.42.42,0,0,1-.7,0l-2.5-2.4c-.3-.3.2-.6.1-.7s-.1,0-.2,0a3.17,3.17,0,0,0-.5.6l-.6.6c-.1.1-.1.1,0,.2s.3-.4.7-.1l2.7,2.5C34.9,35.7,34.4,35.9,34.5,36Z" transform="translate(0.1)"/><path class="cls-1" d="M38.6,30.7c.1,0,.1,0,.1-.1a4.88,4.88,0,0,0,.3-.7c.2-.4.3-.5.3-.7V29c-.2-.1-.2.5-.6.3l-3.3-1.5c-.4-.2,0-.6-.1-.7s-.1,0-.1.1a4.88,4.88,0,0,0-.3.7c-.2.4-.3.5-.3.7v.2c.2.1.2-.5.6-.3L38.5,30C38.8,30.2,38.4,30.6,38.6,30.7Z" transform="translate(0.1)"/><path class="cls-1" d="M39.9,23.5c.1,0,.3-.1.4-.1.4,0,.1.5.3.5s.1,0,.1-.1c0-.3.1-.5.1-.8s.1-.5.1-.8c0-.1,0-.1-.1-.1s0,.3-.4.4l-3.3,1c-.9.3-1.2.2-1.2.3s.1.1.4.2.3.3.4.4.2-.1.3-.1a12.2,12.2,0,0,1,2.2,1.2,2.33,2.33,0,0,1,.9.7c.1.2,0,.5.2.5s.1,0,.1-.1a2,2,0,0,1,.1-.7,2.64,2.64,0,0,0,.1-.7c0-.1,0-.1-.1-.1s-.1.5-.7.5c-.2,0-.4-.1-.9-.4l.2-1.5Zm-1.3,1.6L37,24.3l1.7-.5Z" transform="translate(0.1)"/><path class="cls-1" d="M8.7,9.6a1.39,1.39,0,0,0,0,1.9c1.2,1.1,2.5-1.1,3.5-.1a.93.93,0,0,1,0,1.3c-.6.7-1.5.3-2.2-.2a.31.31,0,0,0-.2-.1v.1l1.4,1.3h.1c.1-.1-.2-.2,0-.4s.6-.3,1-.6a1.41,1.41,0,0,0,0-2.2c-1.2-1.1-2.6,1-3.5.2a.78.78,0,0,1,0-1.1c.5-.6,1.3-.4,2,0,.1,0,.1.1.2,0V9.6a6.33,6.33,0,0,0-1.2-.9c-.1,0-.1-.1-.1,0s.1.2,0,.3A1.56,1.56,0,0,0,8.7,9.6Z" transform="translate(0.1)"/><path class="cls-1" d="M16.5,9.7a2.42,2.42,0,1,0-3.2-1.2A2.39,2.39,0,0,0,16.5,9.7ZM14.6,5.5c.8-.4,1.7,0,2.3,1.4s.3,2.3-.5,2.7-1.7,0-2.3-1.4S13.8,5.8,14.6,5.5Z" transform="translate(0.1)"/><path class="cls-1" d="M21.6,3.9c0-.1,0-.1-.2-.1H19.8c-.1,0-.1,0-.1.1s.6-.1.6.4V7.2c0,.8.6,1.3,1.9,1.3A1.4,1.4,0,0,0,23.8,7V4.9c0-.6.2-.9.5-.9s.3,0,.3-.1,0-.1-.2-.1H23c-.1,0-.1,0-.1.1s.1.1.3.1.5.4.5.9V7c0,.8-.4,1.3-1.2,1.3a1.22,1.22,0,0,1-1.3-1.1V4.3C21,3.8,21.6,4,21.6,3.9Z" transform="translate(0.1)"/><path class="cls-1" d="M26.3,8.9c0,.1,0,.1.1.2.3.1.5.2.8.3a5.94,5.94,0,0,1,.8.4c.1,0,.2.1.2,0s-.6-.2-.5-.6l1.5-3.7a1.9,1.9,0,0,1,1,1.6v.3h.1c0-.1.1-.2.1-.4l.2-1.1V5.8h-.3L27.6,4.7a.31.31,0,0,0-.2-.1.1.1,0,0,0-.2,0l-.6,1c-.1.1-.2.2-.2.3V6l.2-.2a2.16,2.16,0,0,1,1.9-.5L27,9C26.9,9.2,26.4,8.7,26.3,8.9Z" transform="translate(0.1)"/><path class="cls-1" d="M31,10.8c-.3.3-.6-.2-.7-.1s0,.1,0,.2l.6.6.6.6c.1.1.1.1.2,0s-.4-.4-.1-.7l1.3-1.3,1.4,1.4L33,12.7c-.3.3-.6-.2-.7-.1s0,.1,0,.2l.6.6.6.6c.1.1.1.1.2,0s-.4-.4-.1-.7l2.5-2.6c.3-.3.6.2.7.1s0-.1,0-.2l-.6-.6-.6-.6c-.1-.1-.1-.1-.2,0s.4.4.1.7l-1.1,1.2L33,9.9l1.1-1.2c.3-.3.6.2.7.1s0-.1,0-.2L34.2,8l-.6-.6c-.1-.1-.1-.1-.2,0s.4.4.1.7Z" transform="translate(0.1)"/><path class="cls-1" d="M21.5,2.1A20.11,20.11,0,0,1,42,18l2.1-.4a22.32,22.32,0,0,0-43.7.3l2.1.4A20.28,20.28,0,0,1,21.5,2.1Z" transform="translate(0.1)"/><path class="cls-1" d="M42.1,18.4a31.06,31.06,0,0,1,.4,3.2v2l2.1.1V22.3a21.19,21.19,0,0,0-.4-4.4Z" transform="translate(0.1)"/><path class="cls-1" d="M42.2,25.7l2.1.4a13.55,13.55,0,0,0,.2-2L42.4,24A11.14,11.14,0,0,1,42.2,25.7Z" transform="translate(0.1)"/><path class="cls-1" d="M23,42.5A20.28,20.28,0,0,1,2.5,26.4l-2.1.4a22.26,22.26,0,0,0,43.7-.4l-2-.4A20.28,20.28,0,0,1,23,42.5Z" transform="translate(0.1)"/><path class="cls-1" d="M2.2,24.2l-2.1.2c.1.7.2,1.3.3,2l2-.4A11,11,0,0,1,2.2,24.2Z" transform="translate(0.1)"/><path class="cls-1" d="M2.1,23a20.28,20.28,0,0,1,.3-4.3L.3,18.3a25.81,25.81,0,0,0-.4,4A10.87,10.87,0,0,0,0,24.1l2.1-.2Z" transform="translate(0.1)"/></svg>