<svg xmlns="http://www.w3.org/2000/svg" width="237" height="48" viewBox="0 0 237 48"><path fill-rule="evenodd" clip-rule="evenodd" d="M36.622 18.433c2.295 4.31 1.416 10.326-1.89 13.908-3.434 3.8-8.357 5.3-13.46 4.11-4.554-.88-8.723-5.22-9.63-9.582-1.268-5.333.94-10.417 5.446-13.51 3.784-2.69 9.895-2.935 13.934-.615 2.313 1.18 4.5 3.44 5.6 5.7m.345.213c2.25 4.58 1.15 10.626-2.452 14.248-3.46 3.55-8.43 4.954-13.4 3.738-4.853-1.024-9.18-5.71-9.846-10.476-.91-5.182 1.3-9.863 5.57-12.897 3.9-2.874 10.38-3.075 14.52-.584 2.36 1.28 4.545 3.63 5.6 5.973"/><path d="M10.074 28.91c.338.592.738 1.157 1.004 1.78-.237.098-.266-.255-.47-.307l-.314.058-2.924 1.6c-.342.25-.48.58-.5.95.03.586.352 1.19.944 1.416 1.306.105 2.296-.91 3.428-1.412.27-.166.45-.432.474-.73l-.064-.43h.127l.88 1.562-.068.057c-.28-.282-.654-.46-1.067-.335L8.66 34.58c-.53.093-1.14.03-1.514-.43-.518-.62-.888-1.347-.722-2.205.07-.37.44-.645.755-.828l2.76-1.5c.29-.202-.02-.49.03-.706h.094zm28.783.46c.017.276-.212.67.218.768l3.74 1.65c.306 0 .306-.49.572-.363-.292.61-.54 1.27-.882 1.836h-.095c0-.21.143-.44 0-.64l-3.902-1.78c-.296-.04-.353.37-.594.4.218-.65.527-1.26.848-1.86h.095zm-3.177 4.75c.047.23-.35.39-.157.67l3.08 2.79c.392.178.645-.29.85-.523.49-.638.316-1.708-.094-2.325.02-.056.08-.023.12-.03l1.1 1.47c-.9.94-1.78 1.86-2.73 2.724-.04.01-.05-.014-.07-.03.03-.213.282-.38.187-.61l-3.11-2.853c-.28-.188-.528.424-.665.094l1.386-1.378h.092z"/><path fill-rule="evenodd" clip-rule="evenodd" d="M15.39 35.68c.07.172.14.34.314.46l.284-.06v.182c-.322.428-.614.877-.974 1.287h-.097c.182-.66.637-1.59-.03-2.21-.19-.23-.456-.28-.725-.34-.322.022-.627.26-.755.55-.155 1.287 1.692 2.375.442 3.615-.33.306-.74.453-1.2.43-.82-.06-1.47-.744-1.86-1.407-.13-.157-.276-.097-.443-.064v-.153l1.353-1.5h.095c-.316.68-.865 1.494-.378 2.268.257.277.565.575.975.584.39.02.722-.24.91-.553.36-1.37-1.967-2.666-.19-3.827.81-.437 1.823-.066 2.265.73"/><path d="M18.254 37.367c1.138.383 2.247.85 3.457 1.07-.04.6-.14 1.18-.28 1.748-.15-.17-.08-.492-.19-.706-.13-.52-.53-1.11-1.1-1.26l-1.51 4.07c.05.3.43.284.57.492l-.06.06c-.73-.253-1.483-.467-2.203-.766v-.058c.22-.05.48.086.727 0 .62-1.315 1.044-2.7 1.57-4.05.024-.096-.093-.123-.154-.15-.85-.085-1.504.297-2.077.86-.144-.03 0-.15 0-.217l.88-1.345.38.246z"/><path fill-rule="evenodd" clip-rule="evenodd" d="M8.123 25.357c-.472.37-1.054.626-1.604.89l-.13-1.317 1.73.427zM4.505 24.01c1.158.726 2.58.817 3.87 1.226.394-.453.77.243 1.226.182l.07.06c-1.53.838-3.08 1.756-4.62 2.637-.27.108-.086.48-.314.522-.11-.63-.172-1.32-.22-1.93-.01-.054.086-.024.124-.032.094.152.04.46.315.46.47-.205.962-.423 1.35-.766l-.156-1.51c-.435-.13-.964-.407-1.418-.12-.275.12-.103.502-.38.55-.08-.568-.186-1.158-.186-1.72.23.015.2.3.347.43m21.58 14.985c.43.433.385 1.14.157 1.654-.314.406-.817.357-1.29.397-.07-.728-.13-1.49-.06-2.24.42.02.87-.058 1.197.19m1.067.12c.23.283.354.633.254 1.013-.22.588-.86.82-1.39.98.4.14.92.41 1.1.86.34.48.52 1.37 1.323 1.317v.094c-.47.02-.925.085-1.414.06-.525-.712-.77-1.624-1.574-2.145-.14-.053-.31-.024-.47-.03l-.062.093.093 1.81c.143.206.388.17.6.217.05.12-.09.168-.186.154l-1.89.056-.063-.058c.137-.22.507-.067.6-.37l-.155-4.08c-.104-.295-.466-.173-.63-.333l.092-.06c1.26.05 2.8-.456 3.78.424m5.503.64l-1.23.59c-.147-.548-.1-1.17-.155-1.75.47.352.956.766 1.383 1.162m2.862.83v.064c-.61.275-1.207.574-1.827.797-.06-.213.48-.285.28-.58l-1.1-.953c-.516.203-1.063.43-1.51.734.087.48.016 1.11.6 1.32h.437v.09c-.544.22-1.09.545-1.636.674.45-.346.504-.928.504-1.44l-.19-2.818c-.6-.187-.02-.8-.25-1.23l.06-.058 4.15 3.4h.475zm7.104-13.66c-.57-.16-1.074-.513-1.604-.767.53-.23 1.13-.414 1.73-.55l-.125 1.32zM45 23.676c-.013.612-.103 1.262-.16 1.9l-.093.028c-.117-.15-.007-.403-.22-.515-.553.06-1.093.21-1.54.46l-.163 1.5c.404.24.813.54 1.32.43.295-.065.28-.44.54-.496-.066.59-.032 1.213-.223 1.75-.094-.39-.387-.79-.787-1.01l-2.93-1.5c-.483.42-.743-.413-1.2-.43v-.09c1.73-.51 3.45-1.053 5.16-1.625.19-.09.07-.368.286-.397"/><path d="M26.968 4.218c-.076.19-.363.138-.507.307-.41.373-.28.963-.31 1.5-.09 1.01.48 2.68-.91 3.124-.77.22-1.71.13-2.36-.28-.38-.3-.51-.69-.53-1.14l-.094-3.123c-.12-.283-.51-.07-.6-.31.68-.113 1.465-.037 2.14-.06.03.27-.33.115-.47.246l-.127.185.094 3.43c.06.33.35.65.66.8.467.16 1.088.234 1.51-.06.396-.3.56-.738.537-1.23-.14-.972.19-2.14-.28-2.972-.165-.23-.49-.237-.63-.4l.22-.06c.558.1 1.11-.07 1.67.032m6.87 2.028h.223c-.08.597-.205 1.18-.376 1.747-.08-.26-.12-.598-.19-.89-.16-.442-.48-.955-.978-1.132-.628 1.326-1.148 2.69-1.7 4.046.065.283.38.336.57.52-.032.1-.204.068-.284.03-.635-.298-1.32-.506-1.952-.826.104-.14.38 0 .568 0 .32.038.34-.315.44-.492.44-1.224 1.02-2.39 1.45-3.612-.85-.34-1.64.188-2.29.67.26-.53.583-1.025.974-1.5l.41.275 3.14 1.166zm4.784 3.34c-.01.037.024.097-.03.12-.245-.006-.377-.36-.663-.184L36.654 10.8c.426.56.977.926 1.447 1.44h.09c.36-.62 1.832-1.097 1.066-1.87.08-.144.175.008.254.03l1.323 1.317-.065.1c-.234-.016-.385-.35-.658-.184l-3.02 3.004c-.063.236.225.337.22.55h-.158c-.465-.464-.99-.91-1.386-1.41.25-.13.557.46.82.03l1.382-1.35c-.416-.52-.966-.98-1.445-1.47h-.095l-1.51 1.5c-.163.248.432.49.096.617-.46-.444-.96-.934-1.418-1.38v-.09c.24-.03.482.414.755.124l2.957-2.91c.157-.293-.443-.52-.095-.645l1.415 1.38z"/><path fill-rule="evenodd" clip-rule="evenodd" d="M11.93 10.53v.12c-.67-.244-1.552-.72-2.235-.184-.292.213-.417.49-.47.8.03.29.25.525.5.702 1.267.215 2.275-1.18 3.555-.458.402.276.574.703.66 1.13.064.738-.408 1.305-1.006 1.72-.242.12-.526.23-.694.46-.02.098.043.16.064.243l-.064.06c-.57-.427-1.123-.964-1.634-1.47l.06-.06c.64.373 1.333.803 2.144.583.422-.202.81-.63.818-1.106-.024-.344-.25-.657-.568-.825C11.69 11.93 9.83 14.15 9 12c-.137-.62.05-1.26.568-1.685.29-.325 1.054-.27.912-.86h.095l1.354 1.074zm6.732-2.392c.225.576.274 1.464-.157 1.964-.33.343-.74.495-1.197.55-1.33-.078-1.942-1.518-2.262-2.543-.128-.58-.098-1.24.343-1.66.42-.38 1.03-.588 1.6-.37.852.34 1.36 1.27 1.663 2.05m.692-1.01c.4.71.337 1.73-.065 2.42-.465.765-1.297 1.32-2.2 1.38-.94.02-1.766-.286-2.364-1.01-.48-.65-.667-1.52-.436-2.33.298-.95 1.274-1.78 2.294-1.87 1.156-.085 2.24.41 2.77 1.41"/><path d="M1.674 15.454C5.212 6.417 14.187 0 24.707 0c10.525 0 19.51 6.427 23.04 15.468l-2.494.902c-3.15-8.052-11.17-13.76-20.546-13.76-9.37 0-17.373 5.714-20.526 13.76l-2.5-.916zm1.426 12.4c1.863 9.977 10.825 17.54 21.608 17.54 10.778 0 19.748-7.564 21.607-17.54l2.637.486C46.852 39.525 36.797 48 24.708 48 12.618 48 2.56 39.528.463 28.34l2.637-.487zM0 23.804h2.664v.655H0zm2.706-1.015l-.025.65-2.64-.11.03-.65zm.09-.97l-.054.64-2.632-.21.053-.647zm-2.563-.65l.08-.64 2.616.305-.08.644M.39 20.1l.104-.64 2.602.41-.105.636M.56 19.018l.134-.635 2.585.51-.13.636M.82 17.96l.158-.632 2.575.614-.16.632m-2.088-2.3l2.56.715-.187.62-2.558-.71m45.557 6.9h2.66v.655h-2.66zm2.603-1.123l.028.65-2.644.11-.027-.65zm-.048-.426l-.056-.643-2.633.206.053.645m2.514-1.28l-.082-.64-2.616.31.075.644m2.456-1.39l-.11-.64-2.6.41.108.638m2.44-1.487l-.13-.637-2.592.51.138.636m2.334-1.57l-.157-.632-2.576.614.163.634m2.084-2.3l-2.56.715.188.624 2.56-.715m11.11 1.504H237"/><path fill="none" stroke="#000" stroke-width="1.823" stroke-miterlimit="3.864" d="M59.33 18.405H237"/><path d="M66.61 5.505c-.662-.297-1.513-.438-2.195-.438-1.99 0-3.086 1.305-3.086 3.004 0 1.69 1.07 2.96 2.88 2.96.47 0 .83-.042 1.123-.113V8.75H63.53V7.44h3.44v4.462c-.903.24-1.84.428-2.758.428-2.755 0-4.666-1.343-4.666-4.144 0-2.836 1.776-4.43 4.664-4.43.987 0 1.768.13 2.502.347l-.11 1.4zm4.846.43c1.863 0 3.29 1.22 3.29 3.24 0 1.76-1.206 3.156-3.29 3.156-2.076 0-3.282-1.39-3.282-3.15 0-2.02 1.427-3.24 3.282-3.24m0 5.16c1.254 0 1.584-1.09 1.584-2.11 0-.94-.513-1.815-1.584-1.815-1.064 0-1.576.903-1.576 1.816 0 1.01.33 2.113 1.576 2.113M75.29 6.08h1.757l1.56 4.45h.02l1.514-4.453h1.64l-2.32 6.116h-1.84m10.14-.342c-.6.32-1.28.488-2.16.488-2.07 0-3.28-1.164-3.28-3.168 0-1.773.967-3.23 2.918-3.23 2.326 0 2.986 1.553 2.986 3.692h-4.34c.074.984.78 1.54 1.795 1.54.79 0 1.474-.283 2.083-.616v1.298zm-1.1-3.314c-.05-.77-.414-1.437-1.326-1.437-.915 0-1.38.615-1.453 1.436h2.78zm2.84-2.46h1.452v1.39h.02c.07-.57.74-1.532 1.712-1.532.16 0 .33 0 .5.047v1.6c-.148-.08-.44-.13-.73-.13-1.33 0-1.33 1.618-1.33 2.495v2.244H89.49V6.08zm4.903 0h1.55v.83h.024c.51-.7 1.205-.97 2.06-.97 1.488 0 2.136 1.02 2.136 2.396v3.86h-1.64V8.93c0-.75-.017-1.758-1.06-1.758-1.186 0-1.44 1.246-1.44 2.03v2.99H94.4V6.08zm7.38 0h1.53v.855h.022c.52-.75 1.26-.994 1.87-.994.88 0 1.5.32 1.85 1.08.38-.737 1.2-1.08 1.968-1.08 1.547 0 1.986 1.03 1.986 2.397v3.86h-1.635V8.55c0-.572 0-1.38-.937-1.38-1.087 0-1.22 1.26-1.22 2.056v2.966h-1.635V8.545c0-.572 0-1.38-.937-1.38-1.084 0-1.22 1.26-1.22 2.056v2.97h-1.635V6.078zm15.857 5.77c-.595.32-1.278.487-2.158.487-2.07 0-3.278-1.164-3.278-3.168 0-1.772.97-3.23 2.92-3.23 2.33 0 2.99 1.554 2.99 3.693h-4.342c.074.983.78 1.54 1.792 1.54.79 0 1.476-.284 2.083-.617v1.3zm-1.094-3.31c-.05-.77-.413-1.438-1.33-1.438s-1.38.616-1.45 1.437h2.78zm2.8-2.46h1.544v.83h.023c.51-.7 1.21-.97 2.06-.97 1.49 0 2.13 1.02 2.13 2.396v3.86h-1.635V8.93c0-.75-.013-1.758-1.06-1.758-1.185 0-1.438 1.246-1.438 2.03v2.99h-1.63V6.08zm7.94 1.163h-1.205V6.073h1.206v-1.22l1.634-.51v1.73h1.455V7.24h-1.45v2.85c0 .523.15 1.01.77 1.01.29 0 .57-.058.746-.165l.048 1.258c-.34.1-.72.15-1.21.15-1.275 0-1.984-.77-1.984-1.98V7.24zm10.394-1.306c1.866 0 3.292 1.222 3.292 3.24 0 1.76-1.21 3.157-3.293 3.157-2.074 0-3.278-1.39-3.278-3.15 0-2.02 1.42-3.24 3.27-3.24m0 5.16c1.255 0 1.586-1.09 1.586-2.11 0-.94-.513-1.816-1.587-1.816-1.06 0-1.57.903-1.57 1.816 0 1.01.33 2.113 1.57 2.113m5.13-3.86h-1.2v-1.17h1.207V5.22c0-1.224.707-2.077 2-2.077.413 0 .873.058 1.194.13l-.133 1.32c-.144-.087-.353-.218-.71-.218-.546 0-.714.463-.714.94v.76h1.427v1.162h-1.427v4.953h-1.633V7.238zm12.173-1.817c-.537-.223-1.13-.354-1.73-.354-.587 0-1.342.248-1.342 1.15 0 1.437 3.73.83 3.73 3.61 0 1.817-1.47 2.505-3.19 2.505-.928 0-1.345-.12-2.187-.32l.16-1.494c.587.31 1.26.51 1.925.51.652 0 1.516-.32 1.516-1.07 0-1.576-3.736-.924-3.736-3.666 0-1.856 1.477-2.53 2.975-2.53.734 0 1.416.095 2.04.297l-.16 1.365zm4.896.514c1.87 0 3.29 1.22 3.29 3.24 0 1.76-1.208 3.156-3.29 3.156-2.075 0-3.28-1.396-3.28-3.153 0-2.017 1.43-3.24 3.28-3.24m0 5.163c1.254 0 1.585-1.094 1.585-2.114 0-.94-.515-1.818-1.586-1.818-1.06 0-1.57.904-1.57 1.817 0 1.01.33 2.115 1.57 2.115m10.294 1.09h-1.544v-.83h-.02c-.5.594-1.21.974-2.06.974-1.49 0-2.13-1.02-2.13-2.4V6.08h1.63v3.26c0 .747.01 1.756 1.06 1.756 1.184 0 1.437-1.247 1.437-2.03v-2.99h1.63v6.114zm2.18-4.95h-1.206v-1.17h1.204v-1.22l1.638-.51v1.73h1.45V7.24h-1.45v2.85c0 .523.147 1.01.766 1.01.296 0 .58-.058.75-.165l.043 1.258c-.34.1-.716.147-1.2.147-1.28 0-1.99-.77-1.99-1.982V7.24zm4.166-3.953h1.64v3.62h.026c.415-.593 1.117-.973 1.97-.973 1.492 0 2.137 1.02 2.137 2.397v3.86h-1.635v-3.27c0-.75-.015-1.76-1.06-1.76-1.184 0-1.437 1.248-1.437 2.03v2.993h-1.634V3.283zm13.344.614h1.93l3.334 8.29h-1.883l-.732-1.9h-3.448l-.744 1.9h-1.764l3.314-8.29zm.94 1.667h-.025l-1.23 3.42h2.49l-1.238-3.42zm11.006 6.62h-1.55v-.83h-.02c-.505.594-1.213.974-2.063.974-1.486 0-2.134-1.02-2.134-2.398V6.08h1.635v3.26c0 .747.013 1.756 1.06 1.756 1.185 0 1.438-1.247 1.438-2.03v-2.99h1.634v6.114zm5.374-4.83c-.502-.166-.868-.26-1.47-.26-.435 0-.956.15-.956.675 0 .973 2.836.354 2.836 2.565 0 1.42-1.303 1.99-2.628 1.99-.627 0-1.26-.11-1.853-.26l.093-1.31c.516.25 1.05.403 1.61.403.417 0 1.075-.156 1.075-.75 0-1.197-2.842-.38-2.842-2.586 0-1.318 1.187-1.9 2.466-1.9.77 0 1.27.12 1.78.224l-.1 1.2zm2.177-.12h-1.204v-1.17h1.208v-1.22l1.638-.51v1.732h1.45v1.163h-1.45v2.85c0 .523.146 1.01.773 1.01.287 0 .57-.058.74-.165l.047 1.258c-.34.1-.718.15-1.206.15-1.282 0-1.986-.77-1.986-1.98V7.24zm4.2-1.163h1.457v1.39h.024c.073-.57.746-1.533 1.717-1.533.16 0 .33 0 .502.047v1.6c-.146-.08-.438-.13-.735-.13-1.325 0-1.325 1.617-1.325 2.494v2.244h-1.64v-6.11zm4.955.32c.63-.284 1.484-.46 2.178-.46 1.913 0 2.71.77 2.71 2.574v.784c0 .616.01 1.08.02 1.533.015.46.04.89.073 1.366h-1.437c-.06-.32-.06-.72-.07-.91h-.026c-.376.68-1.196 1.06-1.94 1.06-1.11 0-2.195-.655-2.195-1.817 0-.913.453-1.448 1.075-1.746.625-.296 1.427-.356 2.106-.356h.906c0-.983-.45-1.315-1.415-1.315-.69 0-1.39.26-1.935.662l-.047-1.367zm1.912 4.772c.5 0 .888-.213 1.144-.546.27-.344.34-.784.34-1.26h-.706c-.73 0-1.815.122-1.815 1.058 0 .53.45.75 1.036.75m4.576-7.88h1.634V12.2h-1.63zm3.354.156h1.634v1.52h-1.634V3.44zm0 2.637h1.634v6.11h-1.634v-6.12zm3.596.32c.63-.284 1.483-.46 2.18-.46 1.912 0 2.707.77 2.707 2.574v.78c0 .617.012 1.08.022 1.534.01.46.03.89.07 1.366h-1.44c-.06-.32-.06-.72-.073-.915h-.025c-.38.676-1.198 1.056-1.94 1.056-1.11 0-2.194-.655-2.194-1.82 0-.91.45-1.445 1.07-1.743.62-.296 1.424-.356 2.11-.356h.9c0-.983-.45-1.315-1.41-1.315-.697 0-1.39.26-1.94.663l-.05-1.367zm1.91 4.77c.5 0 .89-.21 1.148-.544.266-.344.34-.784.34-1.26h-.704c-.734 0-1.82.12-1.82 1.058 0 .526.456.75 1.037.75M59.975 23.08h2.177c3.154 0 4.4 1.765 4.4 4.267 0 3.103-2.13 4.294-5.038 4.294h-1.53v-8.56zm.868 7.825h.72c2.5 0 4.12-.983 4.12-3.608 0-2.616-1.593-3.482-3.56-3.482h-1.28v7.09zm11.83.542c-.55.218-1.27.34-1.86.34-2.13 0-2.92-1.4-2.92-3.275 0-1.914 1.085-3.275 2.71-3.275 1.812 0 2.556 1.422 2.556 3.102v.39h-4.4c0 1.32.73 2.39 2.12 2.39.575 0 1.42-.23 1.795-.47v.79zm-.39-3.38c0-1.09-.45-2.168-1.64-2.168-1.17 0-1.882 1.14-1.882 2.16h3.53zm2.31-2.684h.79l-.046 1.14h.024c.206-.342.698-1.287 2.057-1.287 1.886 0 2.642 1.376 2.642 3.276 0 1.85-.883 3.273-2.645 3.273-1.007 0-1.614-.404-2.006-1.214h-.025v3.65h-.79v-8.83zm2.698.517c-1.412 0-1.905 1.47-1.905 2.613 0 1.14.493 2.61 1.906 2.61 1.51 0 1.9-1.395 1.9-2.61 0-1.215-.39-2.613-1.9-2.613m8.076 4.735h-.03c-.35.747-1.246 1.15-2.04 1.15-1.826 0-2.12-1.2-2.12-1.768 0-2.093 2.29-2.194 3.96-2.194h.15v-.317c0-1.067-.39-1.605-1.46-1.605-.67 0-1.3.15-1.89.52v-.75c.49-.23 1.323-.43 1.89-.43 1.587 0 2.254.707 2.254 2.33v2.76c0 .508 0 .89.063 1.32h-.78v-1.01zm-.08-2.146h-.23c-1.37 0-3.01.13-3.01 1.5 0 .82.607 1.124 1.338 1.124 1.866 0 1.903-1.58 1.903-2.254v-.38zm2.686-1.71c0-.69 0-.94-.05-1.4h.794v1.2h.023c.29-.7.83-1.35 1.647-1.35.19 0 .418.036.558.073v.81c-.163-.047-.38-.073-.585-.073-1.256 0-1.597 1.374-1.597 2.504v3.09h-.79V26.78zm6.964-.74h-1.46v4.05c0 .563.21 1.03.854 1.03.3 0 .504-.06.728-.15l.05.64c-.19.08-.58.174-.97.174-1.408 0-1.46-.948-1.46-2.088V26.04h-1.26v-.662h1.26v-1.51l.797-.27v1.78h1.46v.662zm9.18 5.592v-4.16c0-.883-.34-1.58-1.36-1.58-.87 0-1.726.723-1.726 2.28v3.46h-.795v-4.16c0-.882-.34-1.58-1.36-1.58-.87 0-1.728.724-1.728 2.28v3.46h-.795v-4.78c0-.478 0-.972-.05-1.476h.77v1.056l.024.013c.252-.43.63-1.214 2.003-1.214.566 0 1.5.23 1.7 1.32h.023c.29-.73 1.045-1.32 2.05-1.32 1.3 0 2.03.88 2.03 2.094v4.305h-.794zm7.042-.194c-.554.22-1.274.34-1.863.34-2.13 0-2.924-1.4-2.924-3.275 0-1.914 1.083-3.275 2.705-3.275 1.82 0 2.56 1.424 2.56 3.104v.392h-4.394c0 1.32.727 2.39 2.117 2.39.576 0 1.42-.23 1.8-.466v.79zm-.392-3.38c0-1.09-.45-2.168-1.63-2.168-1.174 0-1.89 1.14-1.89 2.167h3.524zm2.384-1.207c0-.48 0-.973-.05-1.477h.77v1.12h.02c.267-.563.75-1.262 2.084-1.262 1.584 0 2.19 1.03 2.19 2.4v4.004h-.792v-3.8c0-1.18-.427-1.94-1.52-1.94-1.453 0-1.903 1.24-1.903 2.28v3.46h-.797v-4.78zm9.775-.813h-1.46v4.05c0 .564.21 1.03.855 1.03.3 0 .504-.06.728-.15l.053.64c-.193.08-.58.175-.974.175-1.407 0-1.46-.948-1.46-2.088V26.04h-1.26v-.664h1.26v-1.51l.795-.27v1.78h1.46v.66zm7.43-.81c2.08 0 3 1.57 3 3.276 0 1.704-.92 3.272-3 3.272s-3-1.57-3-3.276c0-1.71.92-3.278 3-3.278m0 5.886c1.39 0 2.128-1.163 2.128-2.61 0-1.45-.74-2.612-2.13-2.612-1.384 0-2.13 1.166-2.13 2.616 0 1.444.747 2.61 2.13 2.61m5.04-5.08h-1.295v-.662h1.295v-.454c0-1.31.05-2.637 1.7-2.637.248 0 .59.036.738.12l-.043.677c-.165-.086-.403-.137-.63-.137-1.083 0-.97 1.14-.97 1.89v.54h1.45v.663h-1.45v5.593h-.795v-5.59zm7.245-2.966h4.305v.734h-3.44v3.056h3.262v.733H143.5v3.3h3.596v.734h-4.46m6.207-4.78c0-.48 0-.973-.05-1.477h.77v1.12h.03c.263-.563.743-1.262 2.076-1.262 1.585 0 2.19 1.03 2.19 2.4v4.004h-.794v-3.8c0-1.18-.426-1.94-1.523-1.94-1.45 0-1.903 1.24-1.903 2.28v3.46h-.795v-4.78zm9.24 4.78h-.93l-2.185-6.257h.872l1.775 5.41h.024l1.865-5.41h.83m1.905-1.666h-.795v-1.03h.792v1.03zm-.795 1.67h.792v6.26h-.795v-6.25zm2.78 1.4c0-.685 0-.943-.05-1.4h.79v1.204h.03c.29-.7.83-1.35 1.647-1.35.19 0 .415.038.552.075v.81c-.16-.048-.373-.074-.573-.074-1.262 0-1.603 1.37-1.603 2.5v3.09h-.792v-4.85zm6.69-1.546c2.08 0 3 1.57 3 3.277 0 1.706-.92 3.274-3 3.274s-2.996-1.568-2.996-3.273.92-3.274 2.996-3.274m0 5.885c1.39 0 2.13-1.165 2.13-2.61 0-1.45-.74-2.614-2.13-2.614-1.382 0-2.123 1.164-2.123 2.614 0 1.445.74 2.61 2.126 2.61m4.5-4.265c0-.48 0-.974-.05-1.478h.764v1.12h.03c.26-.563.74-1.262 2.078-1.262 1.59 0 2.19 1.03 2.19 2.4v4.003h-.793v-3.8c0-1.18-.427-1.94-1.52-1.94-1.453 0-1.903 1.24-1.903 2.28v3.46h-.793v-4.78zm14.762 4.78v-4.16c0-.883-.346-1.58-1.366-1.58-.87 0-1.726.723-1.726 2.28v3.46h-.794v-4.16c0-.882-.337-1.58-1.36-1.58-.87 0-1.72.724-1.72 2.28v3.46h-.796v-4.78c0-.478 0-.972-.046-1.476h.764v1.054l.027.013c.253-.43.63-1.21 2.004-1.21.56 0 1.5.23 1.693 1.32h.028c.29-.73 1.048-1.32 2.056-1.32 1.298 0 2.03.88 2.03 2.092v4.306h-.792zm7.04-.194c-.56.22-1.277.34-1.868.34-2.13 0-2.923-1.4-2.923-3.273 0-1.916 1.084-3.277 2.71-3.277 1.815 0 2.558 1.42 2.558 3.1v.393H193.3c0 1.32.73 2.39 2.118 2.39.576 0 1.422-.23 1.8-.466v.79zm-.39-3.38c0-1.09-.45-2.166-1.64-2.166-1.17 0-1.89 1.14-1.89 2.167h3.523zm2.38-1.205c0-.48 0-.973-.05-1.477h.763v1.12h.03c.264-.563.745-1.262 2.08-1.262 1.586 0 2.19 1.03 2.19 2.4v4.004h-.792v-3.8c0-1.18-.433-1.94-1.524-1.94-1.45 0-1.906 1.24-1.906 2.28v3.46h-.79v-4.78zm9.77-.813h-1.458v4.05c0 .564.217 1.028.857 1.028.303 0 .504-.06.734-.145l.05.638c-.19.08-.58.176-.97.176-1.41 0-1.46-.95-1.46-2.09v-3.65h-1.26v-.662h1.26v-1.51l.794-.27v1.78h1.458v.66zm1.84 4.565h1.06l-.996 2.674h-.795M68.2 45.63h-1.034l-2.23-7.605h-.024l-2.268 7.605H61.6l-2.52-8.557h.894l2.166 7.6h.023l2.255-7.6h1.047l2.218 7.6h.02l2.21-7.6h.827m4.34 7.552h-.028c-.352.747-1.247 1.154-2.04 1.154-1.828 0-2.12-1.21-2.12-1.77 0-2.1 2.294-2.2 3.956-2.2h.154v-.32c0-1.07-.39-1.608-1.457-1.608-.674 0-1.302.15-1.892.515v-.747c.487-.236 1.32-.43 1.892-.43 1.583 0 2.25.698 2.25 2.327v2.76c0 .503 0 .89.06 1.315h-.775V44.62zm-.078-2.146h-.227c-1.373 0-3.01.13-3.01 1.5 0 .82.6 1.13 1.332 1.13 1.865 0 1.905-1.586 1.905-2.26v-.38zm5.453-2.44h-1.46v4.04c0 .562.215 1.03.858 1.03.3 0 .504-.06.73-.15l.052.637c-.19.074-.583.174-.972.174-1.41 0-1.46-.947-1.46-2.084v-3.65h-1.26v-.667h1.26v-1.51l.792-.27v1.78h1.46v.664zm5.732 5.39c-.554.22-1.27.34-1.863.34-2.128 0-2.923-1.4-2.923-3.277 0-1.914 1.09-3.274 2.72-3.274 1.81 0 2.555 1.42 2.555 3.1v.395h-4.4c0 1.32.73 2.39 2.116 2.39.578 0 1.425-.233 1.8-.468v.787zm-.39-3.377c0-1.09-.452-2.17-1.64-2.17-1.173 0-1.887 1.14-1.887 2.17h3.528zm2.383-1.29c0-.684 0-.94-.052-1.398h.792v1.202h.03c.285-.7.827-1.35 1.647-1.35.19 0 .413.037.553.074v.81c-.162-.044-.376-.07-.578-.07-1.26 0-1.6 1.376-1.6 2.5v3.09h-.792v-4.86zm11.386 3.854h-.026c-.355.747-1.248 1.154-2.04 1.154-1.827 0-2.117-1.206-2.117-1.77 0-2.097 2.29-2.195 3.953-2.195h.15v-.32c0-1.07-.388-1.607-1.46-1.607-.664 0-1.297.15-1.888.515v-.748c.493-.237 1.323-.43 1.89-.43 1.587 0 2.254.697 2.254 2.326v2.76c0 .504 0 .89.064 1.316h-.78v-1zm-.078-2.146h-.224c-1.373 0-3.013.13-3.013 1.505 0 .822.61 1.13 1.34 1.13 1.87 0 1.9-1.585 1.9-2.26v-.38zm2.685-1.63c0-.48 0-.973-.05-1.477h.77v1.116h.023c.266-.565.742-1.26 2.077-1.26 1.587 0 2.192 1.025 2.192 2.4v4h-.79v-3.8c0-1.176-.432-1.938-1.526-1.938-1.45 0-1.91 1.237-1.91 2.28v3.46h-.797v-4.78zm12.093 4.78h-.792v-.99h-.024c-.43.796-1.086 1.14-2.006 1.14-1.762 0-2.644-1.423-2.644-3.276 0-1.9.754-3.273 2.644-3.273 1.26 0 1.89.895 2.006 1.2h.024v-3.99h.792v9.2zm-2.694-.514c1.41 0 1.902-1.473 1.902-2.613 0-1.143-.49-2.613-1.902-2.613-1.512 0-1.902 1.398-1.902 2.613 0 1.212.39 2.612 1.902 2.612m8.084-8.047h1.096l4.472 7.53h.027v-7.53h.87v8.56h-1.17l-4.39-7.385h-.03v7.384h-.87m12.12-1.003h-.023c-.354.747-1.246 1.154-2.04 1.154-1.824 0-2.116-1.205-2.116-1.77 0-2.096 2.294-2.194 3.956-2.194h.15v-.32c0-1.068-.394-1.606-1.46-1.606-.67 0-1.3.15-1.894.518v-.746c.494-.236 1.327-.43 1.89-.43 1.59 0 2.25.698 2.25 2.327v2.76c0 .5 0 .886.07 1.313h-.784v-1zm-.073-2.146h-.226c-1.373 0-3.013.133-3.013 1.506 0 .823.608 1.13 1.336 1.13 1.868 0 1.905-1.584 1.905-2.26v-.38zm5.457-2.44h-1.46v4.046c0 .564.21 1.03.858 1.03.3 0 .5-.06.73-.147l.047.635c-.188.073-.577.173-.97.173-1.41 0-1.46-.95-1.46-2.087v-3.65h-1.26v-.666h1.26v-1.51l.796-.27v1.78h1.46v.666zm6.437 4.118c0 .482 0 .97.047 1.472h-.77v-1.11h-.02c-.265.566-.747 1.265-2.076 1.265-1.59 0-2.19-1.03-2.19-2.404v-4h.794v3.806c0 1.18.43 1.94 1.52 1.94 1.45 0 1.907-1.238 1.907-2.28V39.37h.796v4.785zm1.99-3.388c0-.683 0-.94-.052-1.397h.797v1.205h.027c.29-.7.83-1.348 1.65-1.348.19 0 .418.036.556.073v.81c-.164-.046-.38-.07-.577-.07-1.263 0-1.604 1.374-1.604 2.5v3.09h-.79v-4.86zm7.884 3.855h-.025c-.353.746-1.243 1.153-2.037 1.153-1.827 0-2.116-1.205-2.116-1.77 0-2.096 2.29-2.194 3.953-2.194h.15v-.32c0-1.067-.39-1.605-1.46-1.605-.67 0-1.298.15-1.89.517v-.747c.483-.236 1.325-.43 1.89-.43 1.586 0 2.253.698 2.253 2.327v2.76c0 .503 0 .89.06 1.315h-.78v-1zm-.075-2.147h-.225c-1.375 0-3.01.133-3.01 1.506 0 .824.6 1.13 1.336 1.13 1.866 0 1.9-1.583 1.9-2.258v-.38zm2.687-6.05h.792v9.2h-.795zm6.41.643h2.265c1.56 0 2.58.645 2.58 2.22 0 1.1-.863 1.835-1.946 1.972v.024c.703.085.85.452 1.13 1.027l1.498 3.312h-.954l-1.274-2.895c-.506-1.106-.878-1.142-1.71-1.142h-.72v4.034h-.87v-8.56zm.87 3.79h.916c1.02 0 2.193-.384 2.193-1.57 0-1.4-1.02-1.488-2.218-1.488h-.895v3.057zm10.325 4.573c-.552.217-1.27.342-1.864.342-2.125 0-2.92-1.4-2.92-3.28 0-1.913 1.085-3.273 2.71-3.273 1.81 0 2.555 1.42 2.555 3.1v.396h-4.39c0 1.32.728 2.39 2.115 2.39.58 0 1.425-.235 1.8-.47v.79zm-.386-3.376c0-1.09-.458-2.17-1.64-2.17-1.17 0-1.887 1.14-1.887 2.17h3.522zm1.884 2.665c.485.235 1.06.39 1.68.39.756 0 1.42-.4 1.42-1.115 0-1.485-3.08-1.253-3.08-3.066 0-1.24 1.03-1.705 2.09-1.705.337 0 1.02.07 1.585.28l-.08.673c-.414-.183-.98-.29-1.423-.29-.817 0-1.385.245-1.385 1.045 0 1.163 3.16 1.017 3.16 3.065 0 1.325-1.273 1.78-2.244 1.78-.615 0-1.232-.074-1.8-.295l.07-.76zm7.9-5.494c2.078 0 2.996 1.57 2.996 3.274s-.917 3.275-2.996 3.275c-2.078 0-3-1.574-3-3.28s.92-3.27 2.998-3.27m0 5.884c1.388 0 2.13-1.166 2.13-2.613 0-1.45-.743-2.61-2.13-2.61s-2.13 1.16-2.13 2.61c0 1.447.745 2.613 2.13 2.613m9.516-.96c0 .485 0 .97.05 1.475h-.766V44.5h-.022c-.264.564-.746 1.263-2.08 1.263-1.586 0-2.192-1.03-2.192-2.404v-4h.792v3.8c0 1.18.43 1.94 1.525 1.94 1.45 0 1.9-1.238 1.9-2.28v-3.46h.798v4.785zm1.99-3.385c0-.683 0-.94-.05-1.397h.794v1.206h.028c.29-.7.828-1.348 1.647-1.348.19 0 .414.036.55.073v.81c-.164-.048-.372-.07-.577-.07-1.26 0-1.6 1.372-1.6 2.5v3.09h-.792v-4.86zm8.364-.56c-.43-.187-.94-.32-1.37-.32-1.552 0-2.42 1.09-2.42 2.613 0 1.428.88 2.616 2.33 2.616.505 0 .97-.112 1.448-.285l.075.724c-.54.186-1.045.223-1.65.223-2.066 0-3.07-1.535-3.07-3.277 0-1.924 1.27-3.273 3.174-3.273.767 0 1.32.17 1.548.244l-.06.74zm5.72 5.226c-.555.22-1.27.345-1.864.345-2.128 0-2.92-1.4-2.92-3.277 0-1.91 1.085-3.27 2.71-3.27 1.81 0 2.554 1.42 2.554 3.1v.394h-4.395c0 1.32.727 2.39 2.114 2.39.58 0 1.423-.234 1.8-.47v.788zm-.39-3.373c0-1.09-.453-2.17-1.637-2.17-1.173 0-1.887 1.14-1.887 2.17h3.522zm1.893 2.662c.475.232 1.057.39 1.676.39.753 0 1.42-.405 1.42-1.118 0-1.485-3.08-1.253-3.08-3.066 0-1.24 1.027-1.707 2.085-1.707.34 0 1.02.07 1.59.28l-.077.67c-.42-.183-.986-.29-1.426-.29-.82 0-1.384.244-1.384 1.044 0 1.163 3.16 1.017 3.16 3.065 0 1.323-1.27 1.78-2.244 1.78-.616 0-1.23-.076-1.8-.297l.08-.76zM36.56 22.383c-.297-.313-.683-.537-1.068-.707l-.034-.094.69-.61v-.155c-.27-.27-.69-.225-1.003-.4.02-.04.046-.076.073-.11.204-.24.595-.364.65-.69-.197-.22-.486-.204-.754-.24-.182 0-.388.12-.534 0 .195-.354.628-.53.72-.92-.612-.237-1.233.16-1.792.246.168-.253.37-.455.628-.616.244-.22.734-.443.598-.796-.604 0-1.105.23-1.603.492-.36.12-.66.487-1 .55.258-.314.66-.506.95-.86.265-.283.22-.695.56-.948.027-.177.23-.345.067-.524-.85.21-1.605.83-2.17 1.504l-.063-.06c.244-.343.338-.743.69-1.043.19-.4.568-.88.286-1.318-.845.244-1.268 1.15-1.766 1.746-.092-.1-.073-.234-.092-.37.45-.56.433-1.33.5-2.05.01-.12-.1-.26-.215-.18-.5.36-.63.91-.85 1.41l-.064-.063V14.35c-.03-.327-.15-.734-.5-.825-.36.345-.22.887-.376 1.314-.142 0-.164-.16-.254-.248-.047-.045-.158-.045-.188.03-.104 1.81.04 3.484.16 5.24-.076.143-.14.29-.19.442-.4 1.16-.252 2.53-1.323 3.42-.276.204-.61-.01-.943.06-.18-.22-.165-.513-.25-.767-.436-1.173-1.73-1.48-2.74-1.87-.22-.026-.567-.1-.72.062.34.164.705.36.94.702l-.064.06c-.29-.1-.63-.183-.945-.15.19.51.82.573 1.13.98.05.367.1.81-.28 1.04-.26.167-.373-.166-.594-.18-.22-.02-.496.186-.66-.066-.08-.637-.99-.936-.787-1.686-.265-.512-.467-1.045-.575-1.617-.05-.258-.08-.53-.087-.806.195-1.583.972-3.206.41-4.84-.24.017-.27.296-.475.368l-.063-.06c.017-.49-.02-.958-.093-1.41l-.13-.245c-.28.146-.47.48-.53.794.153.735-.025 1.486-.036 2.24-.196-.348-.235-.753-.344-1.133-.2-.406-.276-1.02-.787-1.134-.34.483-.027 1.078-.03 1.625.06.306.405.573.186.92l-.722-.98c-.245-.26-.536-.65-.882-.64-.07.643.33 1.094.537 1.622.08.264.37.48.346.738-.742-.507-1.385-1.105-2.235-1.26-.075.684.696 1.104 1.04 1.655l-.06.063c-.426-.185-.84-.4-1.23-.644-.257-.053-.51-.305-.785-.123 0 .49.32.876.66 1.2-.426.054-.9-.24-1.32 0 .082.366.54.59.66.95-.4.206-.938.076-1.355.244.105.29.404.496.568.764l-.092.09c-.04 0-.082.006-.12.014-.272.04-.496.21-.73.357.04.364.51.57.69.915-.303.193-.642.454-.847.768.22.3.582.414.754.703-.228.302-.675.482-.694.894.22.242.584.255.85.455-.132.236-.39.453-.314.737.088.04.184.072.28.102.294.072.62.08.914.14-.105.245-.184.5-.22.764.234.3.747.17 1.07.245-.027.244-.2.51-.223.794.31.194.694.027 1.04.03.206-.046.23.18.25.308.067.43.507.076.79.187l.315.52c.176.012.33-.016.47-.095.258-.154.37.13.476.275.18.275.44 0 .66 0 .17.077.23.245.347.37.238.127.37-.157.537-.276.31-.165.43.305.69.366.3-.238.63-.315 1.006-.185.415-.344.37-.88.41-1.376.03-.084.06-.225.187-.22.173.7.628 1.47.095 2.146-.344.24-.64.618-.973.918-.4.368-.848.63-1.483.435-.47.405-1.334-.07-1.695.52-.076.2-.03.43.12.585.284.165.756.12 1.008.088.17.098.337.194.565.154.197-.3.41-.01.63.032.23.01.42-.27.63-.125-.21.34-.46.652-.536 1.043-.02.274.442.196.314.52.073.24.33.152.473.273.017.4.473.293.723.4.077.69.86-.094 1.01.55.162 0 .29-.11.437-.152.19.027.333.23.443.367.32.246.434-.157.66-.306l.57.22.375-.43c.445.314.6-.315 1.01-.186.28.033.25-.283.377-.43.49.07.42-.587.88-.582.03-.532-.462-.85-.597-1.314.187-.106.337.054.472.156.29.09.44-.146.662-.215.398.604.8-.23 1.317-.06.238-.08.458-.317.41-.585-.056-.124-.134-.283-.28-.307-.78.096-1.306-.412-2.11-.274l-.4-.37-.92-.853c-.68-.452-.42-1.24-.254-1.836.013-.095.115-.247.25-.185.306.413.134 1.07.628 1.44.15.085.314.11.44-.033.205-.18.424.056.536.217.164.024.264-.107.38-.214.232-.188.437.084.656.124.118-.09.21-.246.313-.37.19-.108.315.1.47.154.29.086.297-.34.5-.49.23-.006.393.14.63.125l.253-.43c.25-.283.562.023.88-.03l.406-.583.662-.03c.17-.184.163-.442.153-.703.332-.208.8-.1 1.167-.217.027-.28-.14-.57-.253-.824.305-.15.703-.08 1.036-.177l.034-.01c.11-.384-.3-.677-.377-.984l.973-.456c-.016-.34-.466-.46-.597-.734.29-.208.612-.33.913-.52l.028-.15zm-15.95-4.628c.018.46.13.92-.094 1.318.072-.436-.652-1.048.093-1.318m-.6.735c.19.25.16.64.25.95-.17-.25-.46-.623-.25-.95m-.478 2.88c-.078-.1-.108-.224-.093-.36.157-.065.3.26.472.06-.04-.296-.434-.396-.538-.673.23-.15.45.323.597 0-.006-.026-.02-.053-.04-.078-.157-.206-.563-.32-.427-.626l.315.156c.016-.254-.24-.44-.158-.677.21.13.337.41.5.616-.034.18-.07.356-.1.533-.064.418-.09.83.008 1.27-.21.01-.37-.11-.534-.214m2.077 3.28c-.133.01-.225-.084-.22-.212-.055-.105.117-.19-.03-.25-.164.107-.31.327-.533.213-.076-.21.125-.39.192-.58-.256-.03-.436.377-.76.186-.07-.264.16-.4.284-.583-.25-.14-.44.137-.69 0 .014-.223.4-.3.596-.46-.174-.114-.45-.265-.472-.52.293-.15.49.29.76.09.005-.226-.28-.427-.13-.64.11.043.188.16.283.246.2-.05.027-.245.036-.37.282.38.046 1.03.567 1.35.314.2.4.545.505.86.023.28-.135.527-.38.672m-1.947 6.83c-.276.02-.71.13-.882-.123.1-.45.732-.16 1.1-.245l.062.065c.006.144-.16.27-.28.3m1.1-.022c-.23-.026-.38.055-.57-.063.033-.108.095-.2.19-.277.156-.046.38-.046.534 0 .088.13 0 .325-.155.34m8.62-.402c.24.04.59-.097.72.128-.096.505-.756.18-1.135.28.027-.21.26-.3.413-.404m-1.104 0c.165.022.376-.055.504.06.007.146-.157.27-.284.308-.15.058-.36.033-.44-.093-.04-.165.103-.23.22-.275m1.824-10.38c-.14.21-.43.204-.66.275.08-.205.404-.424.66-.49.143.053 0 .144 0 .215m-.187.46c.015.29-.33.15-.47.273-.085-.17.21-.273.347-.335.042 0 .13-.005.122.063m.154-1.255c-.034.17-.175.31-.334.44-.12.09-.252.18-.354.26-.03-.087-.02-.18.015-.26.097-.225.365-.43.55-.624.1-.014.15.1.123.183m-.186-.738c-.037.29-.3.565-.502.824h-.037c.02-.297.29-.63.535-.827m-.85-1.01c.18.006.164.207.254.304-.075.256-.263.54-.13.798.175-.105.16-.4.377-.458-.028.33-.154.69-.376.98-.234-.47-.22-1.1-.123-1.625m-1.07 5.115c.416-.397.407-.97.66-1.437.055.136-.12.26.03.368.176-.014.176-.23.38-.18.155.322-.523.442-.222.672.178-.06.378-.25.57-.09-.01.254-.347.254-.413.46.277.012.538.113.693.336.046.124-.095.165-.19.15-.236.047-.48-.088-.66 0 .142.24.51.278.472.615-.323.12-.53-.205-.82-.242-.077.22.3.337.252.583-.29.09-.5-.2-.727-.31-.05.14.05.298.124.428-.227.106-.454-.058-.564-.248-.31-.437.276-.737.41-1.106m-3.68-1.192c.063.024.188-.057.188.06.01.062-.01.163-.095.123h-.093v-.18zm-.63.338c-.217-.013-.39-.13-.563-.242.217-.103.527.204.72-.034.045-.315-.28-.48-.47-.706.317-.015.55.217.537.523-.07.158.044.44-.22.46m-1.563 7.77c.01-.01.02-.014.037-.022.486.115 1.27-1.106 1.32.024v.01c-.335.68-1.218.59-1.92.545.04-.212.35-.403.564-.558m-.562 1.293c-.02-.156.145-.26.254-.34.123-.045.31-.045.44 0-.18.1-.36.55-.697.34m.252.7c.046-.424.604-.63.913-.943l.627-.43c-.4.516-.99.856-1.448 1.374h-.095zm.313.496h-.063c.196-.628.91-1.073 1.384-1.565-.18.59-1.03.96-1.32 1.57m.536.333c-.055.025-.09-.032-.126-.06.355-.642.77-1.32 1.29-1.84-.222.697-.843 1.244-1.165 1.9m.69.368c-.095.09-.21-.035-.25-.12.173-.774.63-1.432.944-2.145-.067.783-.466 1.51-.695 2.268m.565.035h-.09c-.04-.76.274-1.402.502-2.025.007.66.336 1.592-.413 2.024m.73-2.026h.09c.265.63.392 1.35.38 2.05-.93-.38-.356-1.39-.47-2.052m1.13 1.96c-.214-.73-.696-1.347-.82-2.11h.063c.27.647.793 1.2.944 1.897.033.108-.1.238-.19.215m.787-.216c-.374-.71-1.195-1.32-1.32-2.118l1.382 1.9c-.015.08.04.18-.063.22m.47-.22c-.54-.737-1.196-1.35-1.668-2.113h.095c.643.612 1.122 1.21 1.664 1.87.01.095 0 .19-.09.243m.32-.58c-.575-.43-1.064-1.01-1.544-1.53.577.4 1.04.93 1.544 1.44v.095zm.123-.85c-.296.11-.504-.186-.723-.34.226-.067.693-.145.88.064-.036.1-.05.205-.16.278m-.724-1.595c.124.098.242.197.362.3.174.155.344.32.485.5-.65-.06-1.555.31-1.95-.43l.026-.067.23-.67c.224.263.56.247.845.37m-.962-4.614c.05.63.22 1.243.49 1.765l-.122.767c-.42-.06-.12.43-.25.612-.09.36-.31.668-.504.98l.158.09c-.076.236-.162.475-.275.7-.16.335-.378.646-.7.893-.36-.213-.59-.54-.76-.893-.116-.257-.204-.528-.28-.79h.22c-.04-.306-.275-.612-.41-.92-.156-.236.206-.71-.19-.704l-.06.06c-.503-.888.127-1.678.328-2.562.044-.19.065-.386.05-.59.087-.2-.202-.554.19-.52.55.01 1.03-.27 1.32-.737.167-.244.04-.66.35-.795.43.187.59.656.595 1.1-.14.49-.183 1.018-.145 1.537v.01z"/></svg>
