<?xml version="1.0" encoding="utf-8"?>
<!-- Generator: Adobe Illustrator 20.0.0, SVG Export Plug-In . SVG Version: 6.00 Build 0)  -->
<svg version="1.1" id="Layer_1" xmlns="http://www.w3.org/2000/svg" xmlns:xlink="http://www.w3.org/1999/xlink" x="0px" y="0px"
	 viewBox="0 0 214.5 44.6" style="enable-background:new 0 0 214.5 44.6;" xml:space="preserve">
<style type="text/css">
	.Arched_x0020_Green{fill:url(#SVGID_1_);stroke:#FFFFFF;stroke-width:0.25;stroke-miterlimit:1;}
	.st0{fill:none;}
	.st1{fill:#FFFFFF;}
</style>
<linearGradient id="SVGID_1_" gradientUnits="userSpaceOnUse" x1="-11.7593" y1="58.5669" x2="-11.0522" y2="57.8598">
	<stop  offset="0" style="stop-color:#1DA238"/>
	<stop  offset="0.9831" style="stop-color:#24391D"/>
</linearGradient>
<g>
</g>
<g>
	<g>
		<path class="st0" d="M22.8,28L22.8,28c0.1-0.2,0.2-0.4,0.2-0.6l-0.1-0.1c0.2-0.3,0.4-0.6,0.5-0.9c0.1-0.2-0.2-0.6,0.2-0.6l0.1-0.7
			c-0.2-0.5-0.4-1-0.4-1.6c0,0,0-0.1,0-0.1h0l0,0c0-0.5,0-1,0.1-1.4c0-0.4-0.2-0.8-0.5-1c-0.3,0.1-0.2,0.5-0.3,0.7
			c-0.3,0.4-0.7,0.7-1.2,0.7c-0.4,0-0.1,0.3-0.2,0.5c0,0.2,0,0.4,0,0.5c-0.2,0.8-0.8,1.6-0.3,2.4l0.1-0.1c0.4,0,0,0.4,0.2,0.7
			c0.1,0.3,0.3,0.6,0.4,0.9h-0.2c0.1,0.2,0.1,0.5,0.3,0.7c0.2,0.3,0.4,0.6,0.7,0.8C22.5,28.6,22.7,28.3,22.8,28z"/>
		<path class="st0" d="M26.7,17.4c-0.2,0.1-0.2,0.3-0.3,0.4c-0.1-0.2,0-0.5,0.1-0.7c-0.1-0.1-0.1-0.3-0.2-0.3
			c-0.1,0.5-0.1,1.1,0.1,1.5C26.6,18.1,26.7,17.7,26.7,17.4z"/>
		<path class="st0" d="M22.5,29c0.1,0.7,0.5,1.3,0.7,2c0.1,0,0.2-0.1,0.2-0.2C23.3,30.1,22.8,29.6,22.5,29L22.5,29z"/>
		<path class="st0" d="M24,30.7c0.1,0,0-0.1,0.1-0.2l-1.3-1.8C22.9,29.5,23.7,30.1,24,30.7z"/>
		<path class="st0" d="M20.4,30.6c0,0,0.1,0.1,0.1,0.1c0.3-0.6,0.9-1.1,1.1-1.8C21,29.4,20.7,30,20.4,30.6z"/>
		<path class="st0" d="M21.5,31L21.5,31c0.8-0.4,0.5-1.3,0.5-1.9C21.8,29.7,21.5,30.3,21.5,31z"/>
		<path class="st0" d="M20.9,30.9c0,0.1,0.1,0.2,0.2,0.1c0.2-0.7,0.6-1.4,0.6-2.1C21.4,29.5,21,30.1,20.9,30.9z"/>
		<path class="st0" d="M22.3,29.1c0.1,0.6-0.4,1.5,0.4,1.9C22.7,30.4,22.6,29.7,22.3,29.1L22.3,29.1z"/>
		<path class="st0" d="M26.6,18.9c0,0.1,0,0.2,0,0.2c0.1-0.1,0.2-0.2,0.3-0.2c0.1-0.1,0.3-0.3,0.3-0.4c0-0.1,0-0.2-0.1-0.2
			C26.9,18.5,26.7,18.7,26.6,18.9z"/>
		<path class="st0" d="M23.2,28L23.2,28c0.3,0.8,1.2,0.4,1.7,0.5c-0.1-0.2-0.3-0.3-0.4-0.5c-0.1-0.1-0.2-0.2-0.3-0.3
			c-0.3-0.1-0.6-0.1-0.8-0.3L23.2,28z"/>
		<path class="st0" d="M23.6,36.2c-0.3-0.2-0.7-0.2-1.1-0.2c-0.1,0.7,0,1.4,0.1,2.1c0.4,0,0.9,0,1.2-0.4
			C23.9,37.3,24,36.6,23.6,36.2z"/>
		<path class="st0" d="M22.9,28.6c0.4,0.7,1,1.3,1.5,2c0.1,0,0.1-0.1,0.1-0.2C24,29.7,23.6,29.2,22.9,28.6L22.9,28.6z"/>
		<path class="st0" d="M23.3,28.6c0.4,0.5,0.9,1,1.4,1.4v-0.1C24.2,29.4,23.8,29,23.3,28.6z"/>
		<path class="st0" d="M24.2,28.9c0.2,0.1,0.4,0.4,0.7,0.3c0.1-0.1,0.1-0.2,0.1-0.3C24.8,28.8,24.4,28.8,24.2,28.9z"/>
		<path class="st0" d="M21.2,28.9c-0.4,0.5-1.1,0.9-1.3,1.5H20C20.2,29.8,21,29.4,21.2,28.9z"/>
		<path class="st0" d="M18.2,18.9c0-0.2,0.1-0.3,0.1-0.5c-0.1-0.2-0.3-0.4-0.5-0.6c-0.1,0.2,0.2,0.4,0.1,0.6l-0.3-0.1
			c-0.1,0.3,0.2,0.4,0.4,0.6C18.1,18.9,18.1,18.9,18.2,18.9c-0.2,0.4-0.4-0.1-0.6,0.1c0.1,0.3,0.4,0.3,0.5,0.6
			c-0.2,0.2-0.3-0.1-0.4-0.1c0,0.1,0,0.2,0.1,0.3c0.2,0.1,0.3,0.2,0.5,0.2C18.1,19.6,18.1,19.3,18.2,18.9z"/>
		<path class="st0" d="M19.4,21.5c-0.5-0.3-0.3-0.9-0.5-1.3c0,0.1,0.1,0.3,0,0.3c-0.1-0.1-0.2-0.2-0.3-0.2c-0.1,0.2,0.1,0.4,0.1,0.6
			c-0.2,0.2-0.4-0.2-0.7-0.1c0,0.2,0.3,0.4,0.4,0.5c-0.2,0.1-0.5,0.2-0.5,0.4c0.2,0.1,0.4-0.1,0.6,0c-0.1,0.2-0.3,0.3-0.3,0.5
			c0.3,0.2,0.5-0.2,0.7-0.2c-0.1,0.2-0.2,0.3-0.2,0.5c0.2,0.1,0.3-0.1,0.5-0.2c0.1,0.1,0,0.1,0,0.2c0,0.1,0.1,0.2,0.2,0.2
			c0.2-0.1,0.4-0.4,0.3-0.6C19.8,22,19.7,21.7,19.4,21.5z"/>
		<path class="st0" d="M17,29.1c0.2,0.2,0.5,0.1,0.8,0.1c0.1,0,0.3-0.1,0.3-0.3L18,28.9C17.7,29,17.1,28.7,17,29.1z"/>
		<path class="st0" d="M18.6,16.5c-0.7,0.2,0,0.8-0.1,1.2C18.8,17.3,18.7,16.9,18.6,16.5z"/>
		<path class="st0" d="M18.4,28.9c-0.1,0.1-0.1,0.2-0.2,0.3c0.2,0.1,0.3,0,0.5,0.1c0.1,0,0.2-0.2,0.1-0.3
			C18.8,28.9,18.6,28.9,18.4,28.9z"/>
		<path class="st0" d="M18.1,17.2c-0.2,0.3,0.1,0.6,0.2,0.9C18.3,17.8,18.3,17.4,18.1,17.2z"/>
		<path class="st0" d="M25.8,29.2c0.1,0,0.3-0.1,0.3-0.3c-0.1-0.1-0.3,0-0.5-0.1c-0.1,0-0.2,0.1-0.2,0.3
			C25.5,29.2,25.6,29.2,25.8,29.2z"/>
		<path class="st0" d="M21.2,28C21.2,28,21.2,28,21.2,28c0-1.1-0.8,0.1-1.2,0c0,0,0,0,0,0c-0.2,0.1-0.5,0.3-0.5,0.5
			C20.1,28.6,20.9,28.7,21.2,28z"/>
		<path class="st0" d="M27.2,29c-0.1-0.2-0.4-0.1-0.7-0.1c-0.1,0.1-0.3,0.2-0.4,0.4C26.6,29.1,27.1,29.4,27.2,29z"/>
		<path class="st0" d="M20.1,28.9c-0.1,0-0.3,0-0.4,0c-0.1,0.1-0.2,0.2-0.2,0.3C19.8,29.4,19.9,29,20.1,28.9z"/>
		<path class="st0" d="M21.6,20.4c0-0.3-0.2-0.5-0.5-0.5c0.2,0.2,0.5,0.4,0.4,0.7c-0.2,0.2-0.5-0.1-0.7,0c0.2,0.1,0.3,0.2,0.5,0.2
			C21.6,20.8,21.5,20.5,21.6,20.4z"/>
		<path class="st0" d="M21.1,28.6L20.5,29c-0.3,0.3-0.8,0.5-0.8,0.9h0.1C20.2,29.4,20.7,29.1,21.1,28.6z"/>
		<path class="st0" d="M22.1,20.5c0-0.1-0.1,0-0.2-0.1v0.2h0.1C22.1,20.7,22.1,20.6,22.1,20.5z"/>
		<path class="st0" d="M26.6,18.5c0.2-0.2,0.4-0.5,0.5-0.8C26.8,18,26.6,18.3,26.6,18.5L26.6,18.5z"/>
		<path class="st0" d="M26.2,21.4c0.1-0.2,0.4-0.2,0.4-0.4c-0.2-0.2-0.4,0-0.5,0.1c-0.3-0.2,0.3-0.3,0.2-0.6c-0.2,0-0.2,0.2-0.3,0.2
			c-0.1-0.1,0-0.2,0-0.3c-0.2,0.4-0.2,1-0.6,1.3c-0.1,0.3-0.7,0.6-0.4,1c0.1,0.2,0.3,0.3,0.5,0.2c-0.1-0.1-0.2-0.3-0.1-0.4
			c0.2,0.1,0.4,0.4,0.7,0.3c0-0.2-0.3-0.3-0.2-0.5c0.3,0,0.4,0.3,0.7,0.2c0-0.3-0.3-0.3-0.4-0.6c0.2-0.1,0.4,0,0.6,0
			c0.1,0,0.2,0,0.2-0.1C26.7,21.5,26.5,21.4,26.2,21.4z"/>
		<path class="st0" d="M7.3,23.5l-1.6-0.4l0.1,1.2C6.4,24.1,6.9,23.9,7.3,23.5z"/>
		<path class="st0" d="M38.6,25l0.1-1.2c-0.5,0.1-1.1,0.3-1.6,0.5C37.6,24.5,38,24.8,38.6,25z"/>
		<path class="st0" d="M27,19.6c-0.1,0.1-0.4,0.2-0.3,0.3c0.1-0.1,0.4,0,0.4-0.3C27.1,19.6,27,19.6,27,19.6z"/>
		<path class="st0" d="M16.7,9.4c0.4-0.5,0.3-1.3,0.1-1.8c-0.3-0.7-0.7-1.6-1.5-1.9c-0.5-0.2-1.1,0-1.5,0.3c-0.4,0.4-0.4,1-0.3,1.5
			c0.3,1,0.8,2.3,2,2.4C16.1,9.8,16.4,9.7,16.7,9.4z"/>
		<path class="st0" d="M26.6,19.5c0.2-0.1,0.5-0.1,0.6-0.3c0-0.1,0.1-0.1,0-0.2C27,19.1,26.7,19.3,26.6,19.5z"/>
		<path class="st0" d="M28.4,37.5l1.1-0.5c-0.4-0.4-0.8-0.8-1.3-1.1C28.3,36.4,28.3,37,28.4,37.5z"/>
		<path class="st0" d="M33.1,17.1c-1-2.1-3-4.2-5.1-5.3c-3.7-2.2-9.2-1.9-12.6,0.6c-4.1,2.9-6.1,7.6-4.9,12.5
			c0.8,4.1,4.6,8.1,8.7,8.9c4.6,1.1,9.1-0.3,12.2-3.8C34.4,26.7,35.2,21.1,33.1,17.1z M30.3,25.2l-0.6,0l-0.4,0.5
			c-0.3,0-0.6-0.2-0.8,0l-0.2,0.4c-0.2,0-0.4-0.1-0.6-0.1c-0.2,0.1-0.2,0.5-0.5,0.5c-0.1-0.1-0.3-0.2-0.4-0.1
			c-0.1,0.1-0.2,0.3-0.3,0.3c-0.2,0-0.4-0.3-0.6-0.1c-0.1,0.1-0.2,0.2-0.3,0.2c-0.1-0.1-0.3-0.4-0.5-0.2c-0.1,0.1-0.3,0.1-0.4,0
			c-0.4-0.3-0.3-1-0.6-1.3c-0.1-0.1-0.2,0.1-0.2,0.2c-0.1,0.6-0.4,1.3,0.2,1.7L25,28l0.4,0.3c0.7-0.1,1.2,0.3,1.9,0.3
			c0.1,0,0.2,0.2,0.3,0.3c0,0.2-0.2,0.5-0.4,0.5c-0.5-0.2-0.8,0.6-1.2,0.1c-0.2,0.1-0.3,0.3-0.6,0.2c-0.1-0.1-0.3-0.2-0.4-0.1
			c0.1,0.4,0.6,0.7,0.5,1.2c-0.4,0-0.4,0.6-0.8,0.5c-0.1,0.1-0.1,0.4-0.3,0.4c-0.4-0.1-0.5,0.5-0.9,0.2l-0.3,0.4l-0.5-0.2
			c-0.2,0.1-0.3,0.5-0.6,0.3c-0.1-0.1-0.2-0.3-0.4-0.3c-0.1,0-0.2,0.1-0.4,0.1c-0.1-0.6-0.8,0.1-0.9-0.5c-0.2-0.1-0.6,0-0.7-0.4
			c-0.1-0.1-0.4,0-0.4-0.3c0.1-0.3-0.3-0.2-0.3-0.5c0.1-0.4,0.3-0.7,0.5-1c-0.2-0.1-0.4,0.1-0.6,0.1c-0.2,0-0.4-0.3-0.6,0
			c-0.2,0-0.4-0.1-0.5-0.1c-0.2,0-0.7,0.1-0.9-0.1c-0.1-0.1-0.2-0.4-0.1-0.5c0.3-0.5,1.1-0.1,1.5-0.5c0.6,0.2,1-0.1,1.3-0.4
			c0.3-0.3,0.6-0.6,0.9-0.8c0.5-0.6,0.1-1.3-0.1-2c-0.1,0-0.1,0.1-0.2,0.2c0,0.5,0,1-0.4,1.3c-0.3-0.1-0.6,0-0.9,0.2
			c-0.2-0.1-0.3-0.5-0.6-0.3c-0.1,0.1-0.3,0.4-0.5,0.3c-0.1-0.1-0.2-0.3-0.3-0.3c-0.2,0-0.4,0.3-0.6,0c-0.1-0.1-0.2-0.4-0.4-0.3
			c-0.1,0.1-0.3,0.1-0.4,0.1l-0.3-0.5c-0.3-0.1-0.7,0.2-0.7-0.2c0-0.1,0-0.3-0.2-0.3c-0.3,0-0.7,0.1-0.9,0c0-0.3,0.2-0.5,0.2-0.7
			c-0.3-0.1-0.8,0.1-1-0.2c0-0.2,0.1-0.5,0.2-0.7c-0.3-0.1-0.6-0.1-0.8-0.1c-0.1,0-0.2-0.1-0.3-0.1c-0.1-0.3,0.2-0.5,0.3-0.7
			c-0.2-0.2-0.6-0.2-0.8-0.4c0-0.4,0.4-0.5,0.6-0.8c-0.2-0.3-0.5-0.4-0.7-0.7c0.2-0.3,0.5-0.5,0.8-0.7c-0.2-0.3-0.6-0.5-0.6-0.9
			c0.2-0.1,0.4-0.3,0.7-0.3c0,0,0.1,0,0.1,0l0.1-0.1c-0.1-0.2-0.4-0.4-0.5-0.7c0.4-0.2,0.9,0,1.2-0.2c-0.1-0.3-0.5-0.5-0.6-0.9
			c0.4-0.2,0.8,0,1.2,0c-0.3-0.3-0.6-0.7-0.6-1.1c0.2-0.2,0.5,0.1,0.7,0.1c0.4,0.2,0.7,0.4,1.1,0.6l0.1-0.1c-0.3-0.5-1-0.9-0.9-1.5
			c0.8,0.1,1.4,0.7,2,1.2c0-0.2-0.2-0.4-0.3-0.7c-0.2-0.5-0.5-0.9-0.5-1.5c0.3,0,0.6,0.4,0.8,0.6l0.7,0.9c0.2-0.3-0.1-0.6-0.2-0.9
			c0-0.5-0.3-1.1,0-1.5c0.5,0.1,0.5,0.7,0.7,1.1c0.1,0.4,0.1,0.7,0.3,1.1c0-0.7,0.2-1.4,0-2.1c0.1-0.3,0.2-0.6,0.5-0.7l0.1,0.2
			c0.1,0.4,0.1,0.9,0.1,1.3l0.1,0.1c0.2-0.1,0.2-0.3,0.4-0.3c0.5,1.5-0.2,3-0.4,4.5c0,0.3,0,0.5,0.1,0.7c0.1,0.5,0.3,1,0.5,1.5
			c-0.2,0.7,0.6,1,0.7,1.6c0.1,0.2,0.4,0,0.6,0.1c0.2,0,0.3,0.3,0.5,0.2c0.3-0.2,0.3-0.6,0.3-1c-0.3-0.4-0.9-0.4-1-0.9
			c0.3,0,0.6,0,0.9,0.1l0.1-0.1c-0.2-0.3-0.5-0.5-0.9-0.7c0.1-0.1,0.5-0.1,0.7-0.1c0.9,0.4,2.1,0.6,2.5,1.7c0.1,0.2,0.1,0.5,0.2,0.7
			c0.3-0.1,0.6,0.1,0.9-0.1c1-0.8,0.8-2.1,1.2-3.2c0-0.1,0.1-0.3,0.2-0.4c-0.1-1.6-0.2-3.2-0.1-4.9c0-0.1,0.1-0.1,0.2,0
			c0.1,0.1,0.1,0.2,0.2,0.2c0.1-0.4,0-0.9,0.3-1.2c0.3,0.1,0.4,0.5,0.5,0.8v1.1l0.1,0.1c0.2-0.5,0.3-1,0.8-1.3
			c0.1-0.1,0.2,0.1,0.2,0.2c-0.1,0.7,0,1.4-0.5,1.9c0,0.1,0,0.2,0.1,0.3c0.4-0.6,0.8-1.4,1.6-1.6c0.3,0.4-0.1,0.9-0.3,1.2
			c-0.3,0.3-0.4,0.6-0.6,1l0.1,0.1c0.5-0.6,1.2-1.2,2-1.4c0.1,0.2,0,0.3-0.1,0.5c-0.3,0.2-0.3,0.6-0.5,0.9c-0.3,0.3-0.6,0.5-0.9,0.8
			c0.3-0.1,0.6-0.4,0.9-0.5c0.4-0.2,0.9-0.5,1.4-0.5c0.1,0.3-0.3,0.5-0.5,0.7c-0.2,0.2-0.4,0.3-0.6,0.6c0.5-0.1,1.1-0.4,1.6-0.2
			c-0.1,0.4-0.5,0.5-0.7,0.9c0.1,0.1,0.3,0,0.5,0c0.2,0,0.5,0,0.7,0.2c0,0.3-0.4,0.4-0.6,0.6c0,0,0,0.1-0.1,0.1
			c0.3,0.2,0.7,0.1,0.9,0.4v0.1L32.1,20l0,0.1c0.3,0.2,0.7,0.4,1,0.7l0,0.1c-0.3,0.2-0.6,0.3-0.8,0.5c0.1,0.3,0.5,0.4,0.5,0.7
			l-0.9,0.4c0.1,0.3,0.4,0.5,0.4,0.8c0,0,0,0,0,0.1c0,0,0,0,0,0h0l0,0h0c-0.3,0.1-0.7,0-0.9,0.2c0.1,0.2,0.3,0.5,0.2,0.8
			c-0.3,0.1-0.8,0-1.1,0.2C30.4,24.8,30.4,25.1,30.3,25.2z"/>
	</g>
	<g>
		<path class="st0" d="M124.6,10.3c1.1,0,1.4-1,1.4-2c0-0.9-0.5-1.7-1.4-1.7c-1,0-1.4,0.8-1.4,1.7C123.2,9.3,123.5,10.3,124.6,10.3z
			"/>
		<path class="st0" d="M104.3,6.6c-0.8,0-1.2,0.6-1.3,1.3h2.5C105.4,7.2,105.1,6.6,104.3,6.6z"/>
		<path class="st0" d="M77.2,6.6c-0.8,0-1.2,0.6-1.3,1.3h2.5C78.4,7.2,78,6.6,77.2,6.6z"/>
		<path class="st0" d="M135.9,40.9c0,0.8,0.5,1,1.2,1c1.7,0,1.7-1.5,1.7-2.1v-0.4h-0.2C137.4,39.5,135.9,39.6,135.9,40.9z"/>
		<path class="st0" d="M150.6,36.5c0-1.3-0.9-1.4-2-1.4h-0.8v2.8h0.8C149.6,37.9,150.6,37.6,150.6,36.5z"/>
		<path class="st0" d="M144.7,10.3c1.1,0,1.4-1,1.4-2c0-0.9-0.5-1.7-1.4-1.7c-1,0-1.4,0.8-1.4,1.7C143.2,9.3,143.5,10.3,144.7,10.3z
			"/>
		<polygon class="st0" points="172.7,5.2 172.6,5.2 171.5,8.3 173.8,8.3 		"/>
		<path class="st0" d="M199.5,10.4c0.5,0,0.8-0.2,1-0.5c0.2-0.3,0.3-0.7,0.3-1.2h-0.6c-0.7,0-1.6,0.1-1.6,1
			C198.5,10.1,198.9,10.4,199.5,10.4z"/>
		<path class="st0" d="M64.7,10.3c1.1,0,1.4-1,1.4-2c0-0.9-0.5-1.7-1.4-1.7c-1,0-1.4,0.8-1.4,1.7C63.2,9.3,63.5,10.3,64.7,10.3z"/>
		<path class="st0" d="M63.9,24c-1.1,0-1.7,1.1-1.7,2h3.2C65.4,25,65,24,63.9,24z"/>
		<path class="st0" d="M101,37c-1.4,0-1.7,1.3-1.7,2.4c0,1.1,0.4,2.4,1.7,2.4c1.3,0,1.7-1.4,1.7-2.4C102.7,38.4,102.2,37,101,37z"/>
		<path class="st0" d="M74.2,27.9c0,0.8,0.5,1,1.2,1c1.7,0,1.7-1.5,1.7-2.1v-0.4H77C75.7,26.5,74.2,26.6,74.2,27.9z"/>
		<path class="st0" d="M87.1,40.9c0,0.8,0.5,1,1.2,1c1.7,0,1.7-1.5,1.7-2.1v-0.4h-0.2C88.6,39.5,87.1,39.6,87.1,40.9z"/>
		<path class="st0" d="M76.2,37c-1.1,0-1.7,1.1-1.7,2h3.2C77.6,38,77.2,37,76.2,37z"/>
		<path class="st0" d="M69.9,28.9c1.4,0,1.7-1.3,1.7-2.4c0-1.1-0.4-2.4-1.7-2.4c-1.3,0-1.7,1.4-1.7,2.4
			C68.2,27.5,68.6,28.9,69.9,28.9z"/>
		<path class="st0" d="M118,24c-1.3,0-1.9,1.1-1.9,2.4c0,1.3,0.7,2.4,1.9,2.4s1.9-1.1,1.9-2.4C119.9,25.1,119.2,24,118,24z"/>
		<path class="st0" d="M56.2,22.1H55v6.6h0.6c2.3,0,3.7-0.9,3.7-3.4C59.4,22.9,58,22.1,56.2,22.1z"/>
		<path class="st0" d="M64.9,40.9c0,0.8,0.5,1,1.2,1c1.7,0,1.7-1.5,1.7-2.1v-0.4h-0.2C66.4,39.5,64.9,39.6,64.9,40.9z"/>
		<path class="st0" d="M116.2,40.9c0,0.8,0.5,1,1.2,1c1.7,0,1.7-1.5,1.7-2.1v-0.4H119C117.7,39.5,116.2,39.6,116.2,40.9z"/>
		<path class="st0" d="M154.7,28.9c1.3,0,1.9-1.1,1.9-2.4c0-1.3-0.7-2.4-1.9-2.4c-1.3,0-1.9,1.1-1.9,2.4
			C152.7,27.8,153.4,28.9,154.7,28.9z"/>
		<path class="st0" d="M98.7,24c-1.1,0-1.7,1.1-1.7,2h3.2C100.2,25,99.8,24,98.7,24z"/>
		<path class="st0" d="M165.7,37c-1.3,0-1.9,1.1-1.9,2.4c0,1.3,0.7,2.4,1.9,2.4s1.9-1.1,1.9-2.4C167.6,38.1,166.9,37,165.7,37z"/>
		<path class="st0" d="M187,37c-1.1,0-1.7,1.1-1.7,2h3.2C188.5,38,188.1,37,187,37z"/>
		<path class="st0" d="M211.6,10.4c0.5,0,0.8-0.2,1-0.5c0.2-0.3,0.3-0.7,0.3-1.2h-0.6c-0.7,0-1.6,0.1-1.6,1
			C210.7,10.1,211.1,10.4,211.6,10.4z"/>
		<path class="st0" d="M176.6,24c-1.1,0-1.7,1.1-1.7,2h3.2C178.1,25,177.7,24,176.6,24z"/>
		<path class="st0" d="M155.3,37c-1.1,0-1.7,1.1-1.7,2h3.2C156.8,38,156.4,37,155.3,37z"/>
	</g>
	<g>
		<path class="st1" d="M33.4,17.3c-1-2.2-2.9-4.4-5.1-5.5c-3.8-2.3-9.6-2.1-13.1,0.5c-3.9,2.8-5.9,7.2-5,12c0.6,4.4,4.5,8.8,8.9,9.7
			c4.5,1.1,9-0.2,12.1-3.5C34.5,27.2,35.5,21.6,33.4,17.3z"/>
		<path class="st1" d="M7.8,32.1l2.6-1.4c0.4-0.1,0.7,0,1,0.3l0.1-0.1l-0.8-1.5h-0.1l0.1,0.4c0,0.3-0.2,0.5-0.4,0.7
			c-1,0.5-1.9,1.4-3.1,1.3c-0.5-0.2-0.8-0.8-0.9-1.3c0-0.3,0.1-0.7,0.5-0.9l2.6-1.5l0.3-0.1c0.2,0,0.2,0.4,0.4,0.3
			c-0.2-0.6-0.6-1.1-0.9-1.7H9c0,0.2,0.2,0.5,0,0.7l-2.5,1.4c-0.3,0.2-0.6,0.4-0.7,0.8c-0.1,0.8,0.2,1.5,0.7,2
			C6.8,32.1,7.4,32.2,7.8,32.1z"/>
		<path class="st1" d="M38.4,30.9c0.3-0.5,0.5-1.1,0.8-1.7c-0.2-0.1-0.2,0.3-0.5,0.3L35.3,28c-0.4-0.1-0.2-0.5-0.2-0.7h-0.1
			c-0.3,0.6-0.6,1.1-0.8,1.7c0.2,0,0.3-0.4,0.5-0.4l3.5,1.7C38.5,30.5,38.4,30.7,38.4,30.9L38.4,30.9z"/>
		<path class="st1" d="M34.2,36.1c0.9-0.8,1.7-1.7,2.5-2.5l-1-1.4c0,0-0.1,0-0.1,0c0.4,0.6,0.5,1.6,0.1,2.2
			c-0.2,0.2-0.4,0.6-0.8,0.5l-2.8-2.6c-0.2-0.3,0.2-0.4,0.1-0.6h-0.1L30.9,33c0.1,0.3,0.3-0.3,0.6-0.1l2.8,2.6
			C34.4,35.7,34.2,35.9,34.2,36.1C34.2,36.1,34.2,36.1,34.2,36.1z"/>
		<path class="st1" d="M13.6,34.9c0.3-0.4,0.6-0.8,0.9-1.2v-0.2l-0.3,0.1c-0.2-0.1-0.2-0.3-0.3-0.4c-0.4-0.7-1.3-1.1-2-0.7
			c-1.6,1.1,0.5,2.3,0.2,3.6c-0.2,0.3-0.5,0.5-0.8,0.5c-0.4,0-0.6-0.3-0.9-0.5c-0.4-0.7,0.1-1.5,0.3-2.1h-0.1
			c-0.4,0.4-0.8,0.9-1.2,1.4v0.1c0.1,0,0.3-0.1,0.4,0.1c0.3,0.6,0.9,1.3,1.7,1.3c0.4,0,0.8-0.1,1.1-0.4c1.1-1.2-0.5-2.2-0.4-3.4
			c0.1-0.3,0.4-0.5,0.7-0.5c0.2,0,0.5,0.1,0.7,0.3C14.1,33.4,13.7,34.3,13.6,34.9L13.6,34.9z"/>
		<path class="st1" d="M19.2,36.7c0.1,0.2,0,0.5,0.2,0.7c0.1-0.5,0.2-1.1,0.3-1.6c-1.1-0.2-2.1-0.6-3.1-1l-0.3-0.2l-0.8,1.3
			c0,0.1-0.1,0.2,0,0.2c0.5-0.5,1.1-0.9,1.9-0.8c0.1,0,0.2,0,0.1,0.1c-0.5,1.3-0.9,2.5-1.4,3.8c-0.2,0.1-0.5,0-0.7,0v0.1
			c0.6,0.3,1.3,0.5,2,0.7l0.1-0.1c-0.1-0.2-0.5-0.2-0.5-0.5l1.4-3.8C18.7,35.6,19.1,36.2,19.2,36.7z"/>
		<path class="st1" d="M4.2,24.8c0,0-0.1,0-0.1,0c0,0.6,0.1,1.2,0.2,1.8c0.2,0,0-0.4,0.3-0.5c1.4-0.8,2.8-1.7,4.2-2.4l-0.1-0.1
			c-0.4,0.1-0.8-0.6-1.1-0.2c-1.2-0.4-2.5-0.5-3.5-1.1c-0.1-0.1-0.1-0.4-0.3-0.4c0,0.5,0.1,1.1,0.2,1.6c0.2,0,0.1-0.4,0.3-0.5
			c0.4-0.3,0.9,0,1.3,0.1l0.1,1.4c-0.3,0.3-0.8,0.5-1.2,0.7C4.2,25.2,4.3,24.9,4.2,24.8z"/>
		<path class="st1" d="M23,38.3c0.7,0.5,0.9,1.3,1.4,2c0.4,0,0.9,0,1.3-0.1v-0.1c-0.7,0-0.9-0.8-1.2-1.2c-0.2-0.4-0.6-0.7-1-0.8
			c0.5-0.1,1.1-0.4,1.3-0.9c0.1-0.4,0-0.7-0.2-0.9c-0.9-0.8-2.3-0.4-3.4-0.4L21.1,36c0.1,0.1,0.5,0,0.6,0.3l0.1,3.8
			c-0.1,0.3-0.4,0.1-0.5,0.3l0.1,0.1l1.7-0.1c0.1,0,0.2,0,0.2-0.1c-0.2,0-0.4,0-0.5-0.2l-0.1-1.7l0.1-0.1
			C22.7,38.3,22.9,38.3,23,38.3z"/>
		<path class="st1" d="M30.5,38.5c0.6-0.2,1.1-0.5,1.6-0.7v-0.1h-0.4l-3.8-3.2l-0.1,0.1c0.2,0.4-0.3,1,0.2,1.1l0.2,2.6
			c0,0.5,0,1-0.5,1.3c0.5-0.1,1-0.4,1.5-0.6V39h-0.4c-0.5-0.2-0.5-0.8-0.5-1.2c0.4-0.3,0.9-0.5,1.4-0.7l1,0.9
			C30.9,38.2,30.4,38.3,30.5,38.5z"/>
		<path class="st1" d="M40.3,23.3c0.2,0.1,0.1,0.3,0.2,0.5l0.1,0c0.1-0.6,0.1-1.2,0.1-1.8c-0.2,0-0.1,0.3-0.3,0.4
			c-1.5,0.5-3.1,1-4.7,1.5v0.1c0.4,0,0.6,0.8,1.1,0.4l2.6,1.4c0.4,0.2,0.6,0.6,0.7,0.9c0.2-0.5,0.1-1.1,0.2-1.6
			c-0.2,0.1-0.2,0.4-0.5,0.5c-0.5,0.1-0.8-0.2-1.2-0.4l0.1-1.4C39.3,23.5,39.8,23.3,40.3,23.3z"/>
		<path class="st1" d="M21.5,3.9c-0.6,0-1.3,0-1.9,0.1c0.1,0.2,0.4,0,0.5,0.3l0.1,2.9c0,0.4,0.1,0.8,0.5,1.1
			c0.6,0.4,1.4,0.5,2.1,0.3c1.3-0.4,0.7-2,0.8-2.9c0-0.5-0.1-1,0.3-1.4c0.1-0.2,0.4-0.1,0.5-0.3c-0.5-0.1-1,0.1-1.5,0l-0.2,0.1
			c0.1,0.1,0.4,0.2,0.6,0.4c0.4,0.8,0.1,1.9,0.3,2.8c0,0.5-0.1,0.9-0.5,1.1c-0.4,0.3-0.9,0.2-1.4,0.1c-0.3-0.1-0.5-0.4-0.6-0.7
			L21,4.3l0.1-0.2C21.2,4.1,21.5,4.2,21.5,3.9z"/>
		<path class="st1" d="M26.9,9c-0.2,0-0.4-0.1-0.5,0c0.6,0.3,1.2,0.5,1.8,0.8c0.1,0,0.2,0.1,0.3,0c-0.2-0.2-0.5-0.2-0.5-0.5
			c0.5-1.3,1-2.5,1.5-3.8c0.4,0.2,0.7,0.6,0.9,1.1c0.1,0.3,0.1,0.6,0.2,0.8c0.2-0.5,0.3-1.1,0.3-1.6h-0.2l-2.8-1.1l-0.4-0.3
			c-0.4,0.4-0.6,0.9-0.9,1.4c0.6-0.4,1.3-0.9,2.1-0.6c-0.4,1.1-0.9,2.2-1.3,3.4C27.2,8.7,27.2,9.1,26.9,9z"/>
		<path class="st1" d="M31.1,10.9c-0.2,0.3-0.5-0.1-0.7-0.1v0.1c0.4,0.4,0.9,0.9,1.3,1.3c0.3-0.1-0.2-0.3-0.1-0.6l1.4-1.4H33
			c0.4,0.5,0.9,0.9,1.3,1.4l-1.3,1.3c-0.2,0.4-0.5-0.1-0.7,0c0.4,0.5,0.8,0.9,1.3,1.3h0.1c0-0.2-0.3-0.3-0.2-0.5l2.7-2.8
			c0.2-0.2,0.4,0.2,0.6,0.2l0.1-0.1l-1.2-1.2c-0.1,0-0.2-0.2-0.2,0c0.7,0.7-0.6,1.2-1,1.7h-0.1c-0.4-0.5-0.9-0.8-1.3-1.3l1.2-1.2
			C34.6,8.7,34.7,9,34.9,9c0,0,0-0.1,0-0.1l-1.3-1.3c-0.3,0.1,0.2,0.3,0.1,0.6L31.1,10.9z"/>
		<path class="st1" d="M8.7,9.6c-0.5,0.4-0.6,1-0.5,1.6c0.7,2,2.4-0.1,3.7,0.2c0.3,0.2,0.5,0.4,0.5,0.8c0,0.4-0.4,0.8-0.7,1
			c-0.7,0.2-1.4-0.2-1.9-0.5l-0.1,0.1c0.5,0.5,1,1,1.5,1.4l0.1-0.1c0-0.1-0.1-0.1-0.1-0.2c0.1-0.2,0.4-0.3,0.6-0.4
			c0.5-0.4,1-0.9,0.9-1.6c-0.1-0.4-0.2-0.8-0.6-1.1c-1.2-0.7-2.1,0.6-3.2,0.4c-0.2-0.2-0.4-0.4-0.5-0.7c0-0.3,0.2-0.5,0.4-0.7
			c0.6-0.5,1.4-0.1,2,0.2V9.8l-1.2-1H9.5C9.6,9.3,8.9,9.3,8.7,9.6z"/>
		<path class="st1" d="M17.4,8.9c0.4-0.6,0.4-1.6,0.1-2.2C17,5.7,16,5.2,15,5.3c-0.9,0.1-1.8,0.9-2.1,1.7c-0.2,0.8,0,1.6,0.4,2.2
			c0.5,0.7,1.3,1,2.1,0.9C16.3,10.1,17,9.6,17.4,8.9z"/>
		<path class="st1" d="M22.3,2.4c8.5,0,15.7,5.3,18.6,12.8l2.3-0.8C40,6,31.9,0,22.3,0C12.8,0,4.7,6,1.5,14.4l2.3,0.9
			C6.6,7.7,13.9,2.4,22.3,2.4z"/>
		<path class="st1" d="M22.3,42.2c-9.8,0-17.9-7-19.5-16.3l-2.4,0.5c1.9,10.4,11,18.3,21.9,18.3c10.9,0,20-7.9,21.9-18.3l-2.4-0.5
			C40.2,35.1,32.1,42.2,22.3,42.2z"/>
		<rect y="22.1" class="st1" width="2.4" height="0.6"/>
		
			<rect x="0.9" y="20.2" transform="matrix(3.931677e-02 -0.9992 0.9992 3.931677e-02 -20.2132 21.8162)" class="st1" width="0.6" height="2.4"/>
		
			<rect x="1" y="19.3" transform="matrix(7.950760e-02 -0.9968 0.9968 7.950760e-02 -19.1921 20.149)" class="st1" width="0.6" height="2.4"/>
		<polygon class="st1" points="2.6,19.4 0.3,19.1 0.2,19.7 2.6,20 		"/>
		
			<rect x="1.3" y="17.4" transform="matrix(0.1588 -0.9873 0.9873 0.1588 -16.9904 17.1758)" class="st1" width="0.6" height="2.4"/>
		<polygon class="st1" points="3,17.5 0.6,17.1 0.5,17.7 2.9,18.1 		"/>
		<rect x="1.7" y="15.5" transform="matrix(0.2366 -0.9716 0.9716 0.2366 -14.689 14.6476)" class="st1" width="0.6" height="2.4"/>
		<rect x="2" y="14.5" transform="matrix(0.2756 -0.9613 0.9613 0.2756 -13.495 13.5665)" class="st1" width="0.6" height="2.4"/>
		<rect x="42.2" y="22.1" class="st1" width="2.4" height="0.6"/>
		
			<rect x="42.2" y="21.1" transform="matrix(0.9992 -3.974926e-02 3.974926e-02 0.9992 -0.8171 1.7416)" class="st1" width="2.4" height="0.6"/>
		
			<rect x="42.1" y="20.2" transform="matrix(0.9969 -7.928316e-02 7.928316e-02 0.9969 -1.4863 3.4985)" class="st1" width="2.4" height="0.6"/>
		<polygon class="st1" points="42,20 44.4,19.7 44.3,19.1 42,19.4 		"/>
		<polygon class="st1" points="41.9,19 44.3,18.7 44.2,18.1 41.8,18.5 		"/>
		<polygon class="st1" points="41.8,18.1 44.1,17.7 44,17.1 41.7,17.5 		"/>
		<rect x="41.5" y="16.4" transform="matrix(0.9714 -0.2374 0.2374 0.9714 -2.7388 10.604)" class="st1" width="2.4" height="0.6"/>
		<polygon class="st1" points="41.3,16.4 43.6,15.7 43.4,15.1 41.1,15.8 		"/>
		<rect x="53.7" y="16.2" class="st1" width="160.8" height="1.7"/>
		<path class="st1" d="M58.1,11.4c0.8,0,1.7-0.2,2.5-0.4V6.9h-3.1v1.2h1.6v2c-0.3,0.1-0.6,0.1-1,0.1c-1.6,0-2.6-1.2-2.6-2.7
			c0-1.6,1-2.8,2.8-2.8c0.6,0,1.4,0.1,2,0.4l0.1-1.3c-0.7-0.2-1.4-0.3-2.3-0.3c-2.6,0-4.2,1.5-4.2,4.1
			C53.9,10.2,55.6,11.4,58.1,11.4z"/>
		<path class="st1" d="M64.7,11.4c1.9,0,3-1.3,3-2.9c0-1.9-1.3-3-3-3c-1.7,0-3,1.1-3,3C61.7,10.1,62.8,11.4,64.7,11.4z"/>
		<polygon class="st1" points="71.9,11.3 74,5.6 72.5,5.6 71.1,9.8 71.1,9.8 69.7,5.6 68.1,5.6 70.2,11.3 		"/>
		<path class="st1" d="M77.5,11.4c0.8,0,1.4-0.2,2-0.5V9.8c-0.6,0.3-1.2,0.6-1.9,0.6c-0.9,0-1.6-0.5-1.6-1.4h3.9
			c0-2-0.6-3.4-2.7-3.4c-1.8,0-2.6,1.4-2.6,3C74.5,10.4,75.6,11.4,77.5,11.4z"/>
		<path class="st1" d="M82.5,9.2c0-0.8,0-2.3,1.2-2.3c0.3,0,0.5,0,0.7,0.1V5.5c-0.2,0-0.3,0-0.5,0c-0.9,0-1.5,0.9-1.6,1.4h0V5.6H81
			v5.7h1.5V9.2z"/>
		<path class="st1" d="M86.9,8.5c0-0.7,0.2-1.9,1.3-1.9c0.9,0,1,0.9,1,1.6v3h1.5V7.7c0-1.3-0.6-2.2-1.9-2.2c-0.8,0-1.4,0.3-1.9,0.9
			h0V5.6h-1.4v5.7h1.5V8.5z"/>
		<path class="st1" d="M93.6,8.5c0-0.7,0.1-1.9,1.1-1.9c0.8,0,0.8,0.8,0.8,1.3v3.4H97V8.5c0-0.7,0.1-1.9,1.1-1.9
			C99,6.6,99,7.4,99,7.9v3.4h1.5V7.7c0-1.3-0.4-2.2-1.8-2.2c-0.7,0-1.4,0.3-1.8,1c-0.3-0.7-0.9-1-1.7-1c-0.6,0-1.2,0.2-1.7,0.9h0
			V5.6h-1.4v5.7h1.5V8.5z"/>
		<path class="st1" d="M104.5,11.4c0.8,0,1.4-0.2,2-0.5V9.8c-0.6,0.3-1.2,0.6-1.9,0.6c-0.9,0-1.6-0.5-1.6-1.4h3.9
			c0-2-0.6-3.4-2.7-3.4c-1.8,0-2.6,1.4-2.6,3C101.5,10.4,102.6,11.4,104.5,11.4z"/>
		<path class="st1" d="M109.5,8.5c0-0.7,0.2-1.9,1.3-1.9c0.9,0,1,0.9,1,1.6v3h1.5V7.7c0-1.3-0.6-2.2-1.9-2.2c-0.8,0-1.4,0.3-1.9,0.9
			h0V5.6H108v5.7h1.5V8.5z"/>
		<path class="st1" d="M115.2,9.6c0,1.1,0.6,1.8,1.8,1.8c0.4,0,0.8,0,1.1-0.1l0-1.2c-0.2,0.1-0.4,0.2-0.7,0.2
			c-0.6,0-0.7-0.5-0.7-0.9V6.7h1.3V5.6h-1.3V4l-1.5,0.5v1.1h-1.1v1.1h1.1V9.6z"/>
		<path class="st1" d="M124.6,11.4c1.9,0,3-1.3,3-2.9c0-1.9-1.3-3-3-3c-1.7,0-3,1.1-3,3C121.6,10.1,122.7,11.4,124.6,11.4z"/>
		<path class="st1" d="M129.2,11.3h1.5V6.7h1.3V5.6h-1.3V4.9c0-0.4,0.2-0.9,0.7-0.9c0.3,0,0.5,0.1,0.6,0.2l0.1-1.2
			c-0.3-0.1-0.7-0.1-1.1-0.1c-1.2,0-1.8,0.8-1.8,1.9v0.8h-1.1v1.1h1.1V11.3z"/>
		<path class="st1" d="M139.2,9.2c0,0.7-0.8,1-1.4,1c-0.6,0-1.2-0.2-1.7-0.5l-0.1,1.4c0.8,0.2,1.1,0.3,2,0.3c1.6,0,2.9-0.6,2.9-2.3
			c0-2.6-3.4-2-3.4-3.4c0-0.8,0.7-1.1,1.2-1.1c0.5,0,1.1,0.1,1.6,0.3l0.1-1.3c-0.6-0.2-1.2-0.3-1.8-0.3c-1.4,0-2.7,0.6-2.7,2.4
			C135.9,8.4,139.2,7.8,139.2,9.2z"/>
		<path class="st1" d="M144.7,11.4c1.9,0,3-1.3,3-2.9c0-1.9-1.3-3-3-3c-1.7,0-3,1.1-3,3C141.7,10.1,142.8,11.4,144.7,11.4z"/>
		<path class="st1" d="M150.7,11.4c0.8,0,1.4-0.4,1.9-0.9h0v0.8h1.4V5.6h-1.5v2.8c0,0.7-0.2,1.9-1.3,1.9c-0.9,0-1-0.9-1-1.6v-3h-1.5
			v3.6C148.8,10.5,149.4,11.4,150.7,11.4z"/>
		<path class="st1" d="M156,9.6c0,1.1,0.6,1.8,1.8,1.8c0.4,0,0.8,0,1.1-0.1l0-1.2c-0.2,0.1-0.4,0.2-0.7,0.2c-0.6,0-0.7-0.5-0.7-0.9
			V6.7h1.3V5.6h-1.3V4L156,4.5v1.1h-1.1v1.1h1.1V9.6z"/>
		<path class="st1" d="M161.2,8.5c0-0.7,0.2-1.9,1.3-1.9c0.9,0,1,0.9,1,1.6v3h1.5V7.7c0-1.3-0.6-2.2-1.9-2.2c-0.8,0-1.4,0.4-1.8,0.9
			h0V3h-1.5v8.3h1.5V8.5z"/>
		<polygon class="st1" points="171.1,9.5 174.2,9.5 174.9,11.3 176.6,11.3 173.6,3.6 171.8,3.6 168.8,11.3 170.4,11.3 		"/>
		<path class="st1" d="M179.3,11.4c0.8,0,1.4-0.4,1.9-0.9h0v0.8h1.4V5.6h-1.5v2.8c0,0.7-0.2,1.9-1.3,1.9c-0.9,0-1-0.9-1-1.6v-3h-1.5
			v3.6C177.4,10.5,178,11.4,179.3,11.4z"/>
		<path class="st1" d="M186.3,9.7c0,0.6-0.6,0.7-1,0.7c-0.5,0-1-0.1-1.5-0.4l-0.1,1.2c0.5,0.1,1.1,0.2,1.7,0.2
			c1.2,0,2.4-0.5,2.4-1.9c0-2.1-2.6-1.5-2.6-2.4c0-0.5,0.5-0.6,0.9-0.6c0.5,0,0.9,0.1,1.3,0.2l0.1-1.1c-0.5-0.1-0.9-0.2-1.6-0.2
			c-1.2,0-2.2,0.5-2.2,1.8C183.7,9.3,186.3,8.5,186.3,9.7z"/>
		<path class="st1" d="M189.4,9.6c0,1.1,0.6,1.8,1.8,1.8c0.4,0,0.8,0,1.1-0.1l0-1.2c-0.2,0.1-0.4,0.2-0.7,0.2
			c-0.6,0-0.7-0.5-0.7-0.9V6.7h1.3V5.6h-1.3V4l-1.5,0.5v1.1h-1.1v1.1h1.1V9.6z"/>
		<path class="st1" d="M194.7,9.2c0-0.8,0-2.3,1.2-2.3c0.3,0,0.5,0,0.7,0.1V5.5c-0.2,0-0.3,0-0.5,0c-0.9,0-1.5,0.9-1.6,1.4h0V5.6
			h-1.3v5.7h1.5V9.2z"/>
		<path class="st1" d="M199.1,11.4c0.7,0,1.4-0.4,1.8-1h0c0,0.2,0,0.6,0.1,0.8h1.3c0-0.4-0.1-0.8-0.1-1.3c0-0.4,0-0.8,0-1.4V7.9
			c0-1.7-0.7-2.4-2.4-2.4c-0.6,0-1.4,0.2-2,0.4l0,1.3c0.5-0.4,1.1-0.6,1.8-0.6c0.9,0,1.3,0.3,1.3,1.2H200c-0.6,0-1.3,0.1-1.9,0.3
			s-1,0.8-1,1.6C197.1,10.8,198.1,11.4,199.1,11.4z"/>
		<rect x="203.6" y="3" class="st1" width="1.5" height="8.3"/>
		<rect x="206.6" y="3.2" class="st1" width="1.5" height="1.4"/>
		<rect x="206.6" y="5.6" class="st1" width="1.5" height="5.7"/>
		<path class="st1" d="M211.3,11.4c0.7,0,1.4-0.4,1.8-1h0c0,0.2,0,0.6,0.1,0.8h1.3c0-0.4-0.1-0.8-0.1-1.3c0-0.4,0-0.8,0-1.4V7.9
			c0-1.7-0.7-2.4-2.4-2.4c-0.6,0-1.4,0.2-2,0.4l0,1.3c0.5-0.4,1.1-0.6,1.8-0.6c0.9,0,1.3,0.3,1.3,1.2h-0.8c-0.6,0-1.3,0.1-1.9,0.3
			s-1,0.8-1,1.6C209.3,10.8,210.3,11.4,211.3,11.4z"/>
		<path class="st1" d="M60.2,25.4c0-2.3-1.1-4-4-4h-2v8h1.4C58.3,29.4,60.2,28.3,60.2,25.4z"/>
		<path class="st1" d="M65.8,28.5c-0.3,0.2-1.1,0.4-1.6,0.4c-1.3,0-1.9-1-1.9-2.2h4v-0.4c0-1.6-0.7-2.9-2.3-2.9
			c-1.5,0-2.5,1.3-2.5,3c0,1.7,0.7,3,2.6,3c0.5,0,1.2-0.1,1.7-0.3V28.5z"/>
		<path class="st1" d="M67.5,23.6v8.2h0.7v-3.4h0c0.4,0.8,0.9,1.1,1.8,1.1c1.6,0,2.4-1.3,2.4-3c0-1.8-0.7-3-2.4-3
			c-1.2,0-1.7,0.9-1.9,1.2h0l0-1.1H67.5z"/>
		<path class="st1" d="M77,25.8c-1.5,0-3.6,0.1-3.6,2c0,0.5,0.3,1.6,1.9,1.6c0.7,0,1.5-0.4,1.8-1.1h0v0.9h0.7
			c-0.1-0.4-0.1-0.8-0.1-1.2v-2.6c0-1.5-0.6-2.2-2-2.2c-0.5,0-1.3,0.2-1.7,0.4v0.7c0.5-0.3,1.1-0.5,1.7-0.5c1,0,1.3,0.5,1.3,1.5v0.3
			H77z"/>
		<path class="st1" d="M80.3,29.4v-2.9c0-1,0.3-2.3,1.4-2.3c0.2,0,0.4,0,0.5,0.1v-0.8c-0.1,0-0.3-0.1-0.5-0.1
			c-0.7,0-1.2,0.6-1.5,1.3h0v-1.1h-0.7c0,0.4,0,0.7,0,1.3v4.5H80.3z"/>
		<path class="st1" d="M85.3,28.9c-0.6,0-0.8-0.4-0.8-1v-3.8h1.3v-0.6h-1.3v-1.7l-0.7,0.3v1.4h-1.1v0.6h1.1v3.4c0,1.1,0,1.9,1.3,1.9
			c0.4,0,0.7-0.1,0.9-0.2l0-0.6C85.8,28.8,85.6,28.9,85.3,28.9z"/>
		<path class="st1" d="M94.2,25.5v3.9h0.7v-4c0-1.1-0.7-1.9-1.8-1.9c-0.9,0-1.6,0.5-1.9,1.2h0c-0.2-1-1-1.2-1.5-1.2
			c-1.2,0-1.6,0.7-1.8,1.1l0,0v-1h-0.7c0,0.5,0,0.9,0,1.4v4.4h0.7v-3.2c0-1.4,0.8-2.1,1.6-2.1c0.9,0,1.2,0.6,1.2,1.5v3.9h0.7v-3.2
			c0-1.4,0.8-2.1,1.6-2.1C93.9,24,94.2,24.7,94.2,25.5z"/>
		<path class="st1" d="M100.6,29.2v-0.7c-0.3,0.2-1.1,0.4-1.6,0.4c-1.3,0-1.9-1-1.9-2.2h4v-0.4c0-1.6-0.7-2.9-2.3-2.9
			c-1.5,0-2.5,1.3-2.5,3c0,1.7,0.7,3,2.6,3C99.4,29.5,100.1,29.4,100.6,29.2z"/>
		<path class="st1" d="M104.9,23.4c-1.2,0-1.6,0.7-1.9,1.2h0v-1h-0.7c0,0.5,0,0.9,0,1.4v4.4h0.7v-3.2c0-1,0.4-2.1,1.7-2.1
			c1,0,1.4,0.7,1.4,1.8v3.5h0.7v-3.7C106.9,24.4,106.4,23.4,104.9,23.4z"/>
		<path class="st1" d="M109.2,22.2v1.4H108v0.6h1.1v3.4c0,1.1,0,1.9,1.3,1.9c0.4,0,0.7-0.1,0.9-0.2l0-0.6c-0.2,0.1-0.4,0.1-0.7,0.1
			c-0.6,0-0.8-0.4-0.8-1v-3.8h1.3v-0.6h-1.3v-1.7L109.2,22.2z"/>
		<path class="st1" d="M118,23.4c-1.9,0-2.7,1.5-2.7,3c0,1.6,0.8,3,2.7,3c1.9,0,2.7-1.5,2.7-3C120.7,24.9,119.8,23.4,118,23.4z"/>
		<path class="st1" d="M122.5,23.1v0.4h-1.2v0.6h1.2v5.2h0.7v-5.2h1.3v-0.6h-1.3v-0.5c0-0.7-0.1-1.8,0.9-1.8c0.2,0,0.4,0,0.6,0.1
			l0-0.6c-0.1-0.1-0.4-0.1-0.7-0.1C122.6,20.7,122.5,21.9,122.5,23.1z"/>
		<polygon class="st1" points="133,22.1 133,21.4 129.1,21.4 129.1,29.4 133.1,29.4 133.1,28.7 129.9,28.7 129.9,25.6 132.8,25.6 
			132.8,24.9 129.9,24.9 129.9,22.1 		"/>
		<path class="st1" d="M135.4,29.4v-3.2c0-1,0.4-2.1,1.7-2.1c1,0,1.4,0.7,1.4,1.8v3.5h0.7v-3.7c0-1.3-0.5-2.2-2-2.2
			c-1.2,0-1.6,0.7-1.9,1.2h0v-1h-0.7c0,0.5,0,0.9,0,1.4v4.4H135.4z"/>
		<polygon class="st1" points="142.6,28.6 142.6,28.6 141,23.6 140.2,23.6 142.2,29.4 143,29.4 145.1,23.6 144.3,23.6 		"/>
		<rect x="146.1" y="23.6" class="st1" width="0.7" height="5.8"/>
		<rect x="146.1" y="21.1" class="st1" width="0.7" height="1"/>
		<path class="st1" d="M148.6,23.6c0,0.4,0,0.7,0,1.3v4.5h0.7v-2.9c0-1,0.3-2.3,1.4-2.3c0.2,0,0.4,0,0.5,0.1v-0.8
			c-0.1,0-0.3-0.1-0.5-0.1c-0.7,0-1.2,0.6-1.5,1.3h0v-1.1H148.6z"/>
		<path class="st1" d="M154.7,29.5c1.9,0,2.7-1.5,2.7-3c0-1.6-0.8-3-2.7-3c-1.9,0-2.7,1.5-2.7,3C151.9,28.1,152.8,29.5,154.7,29.5z"
			/>
		<path class="st1" d="M163.3,29.4v-3.7c0-1.3-0.5-2.2-2-2.2c-1.2,0-1.6,0.7-1.9,1.2h0v-1h-0.7c0,0.5,0,0.9,0,1.4v4.4h0.7v-3.2
			c0-1,0.4-2.1,1.7-2.1c1,0,1.4,0.7,1.4,1.8v3.5H163.3z"/>
		<path class="st1" d="M170.9,24c0.9,0,1.2,0.6,1.2,1.5v3.9h0.7v-4c0-1.1-0.7-1.9-1.8-1.9c-0.9,0-1.6,0.5-1.9,1.2h0
			c-0.2-1-1-1.2-1.5-1.2c-1.2,0-1.6,0.7-1.8,1.1l0,0v-1H165c0,0.5,0,0.9,0,1.4v4.4h0.7v-3.2c0-1.4,0.8-2.1,1.6-2.1
			c0.9,0,1.2,0.6,1.2,1.5v3.9h0.7v-3.2C169.3,24.7,170.1,24,170.9,24z"/>
		<path class="st1" d="M176.6,23.4c-1.5,0-2.5,1.3-2.5,3c0,1.7,0.7,3,2.6,3c0.5,0,1.2-0.1,1.7-0.3v-0.7c-0.3,0.2-1.1,0.4-1.6,0.4
			c-1.3,0-1.9-1-1.9-2.2h4v-0.4C178.9,24.8,178.2,23.4,176.6,23.4z"/>
		<path class="st1" d="M184.8,29.4v-3.7c0-1.3-0.5-2.2-2-2.2c-1.2,0-1.6,0.7-1.9,1.2h0v-1h-0.7c0,0.5,0,0.9,0,1.4v4.4h0.7v-3.2
			c0-1,0.4-2.1,1.7-2.1c1,0,1.4,0.7,1.4,1.8v3.5H184.8z"/>
		<path class="st1" d="M188.6,28.9c-0.6,0-0.8-0.4-0.8-1v-3.8h1.3v-0.6h-1.3v-1.7l-0.7,0.3v1.4h-1.1v0.6h1.1v3.4
			c0,1.1,0,1.9,1.3,1.9c0.4,0,0.7-0.1,0.9-0.2l0-0.6C189,28.8,188.8,28.9,188.6,28.9z"/>
		<polygon class="st1" points="191.7,28.4 190.8,28.4 190.1,30.9 190.8,30.9 		"/>
		<polygon class="st1" points="61.3,41.5 61.2,41.5 59.2,34.4 58.3,34.4 56.2,41.5 56.2,41.5 54.3,34.4 53.5,34.4 55.7,42.4 
			56.7,42.4 58.7,35.3 58.8,35.3 60.8,42.4 61.7,42.4 64,34.4 63.3,34.4 		"/>
		<path class="st1" d="M68.6,38.6c0-1.5-0.6-2.2-2-2.2c-0.5,0-1.3,0.2-1.7,0.4v0.7c0.5-0.3,1.1-0.5,1.7-0.5c1,0,1.3,0.5,1.3,1.5v0.3
			h-0.1c-1.5,0-3.6,0.1-3.6,2c0,0.5,0.3,1.6,1.9,1.6c0.7,0,1.5-0.4,1.8-1.1h0v0.9h0.7c-0.1-0.4-0.1-0.8-0.1-1.2V38.6z"/>
		<path class="st1" d="M72.3,41.9c-0.6,0-0.8-0.4-0.8-1v-3.8h1.3v-0.6h-1.3v-1.7l-0.7,0.3v1.4h-1.1v0.6h1.1v3.4c0,1.1,0,1.9,1.3,1.9
			c0.4,0,0.7-0.1,0.9-0.2l0-0.6C72.7,41.8,72.5,41.9,72.3,41.9z"/>
		<path class="st1" d="M76.1,36.4c-1.5,0-2.5,1.3-2.5,3c0,1.7,0.7,3,2.6,3c0.5,0,1.2-0.1,1.7-0.3v-0.7c-0.3,0.2-1.1,0.4-1.6,0.4
			c-1.3,0-1.9-1-1.9-2.2h4v-0.4C78.4,37.8,77.7,36.4,76.1,36.4z"/>
		<path class="st1" d="M80.5,37.7L80.5,37.7l0-1.1h-0.7c0,0.4,0,0.7,0,1.3v4.5h0.7v-2.9c0-1,0.3-2.3,1.4-2.3c0.2,0,0.4,0,0.5,0.1
			v-0.8c-0.1,0-0.3-0.1-0.5-0.1C81.2,36.4,80.7,37,80.5,37.7z"/>
		<path class="st1" d="M90.7,38.6c0-1.5-0.6-2.2-2-2.2c-0.5,0-1.3,0.2-1.7,0.4v0.7c0.5-0.3,1.1-0.5,1.7-0.5c1,0,1.3,0.5,1.3,1.5v0.3
			h-0.1c-1.5,0-3.6,0.1-3.6,2c0,0.5,0.3,1.6,1.9,1.6c0.7,0,1.5-0.4,1.8-1.1h0v0.9h0.7c-0.1-0.4-0.1-0.8-0.1-1.2V38.6z"/>
		<path class="st1" d="M95,36.4c-1.2,0-1.6,0.7-1.9,1.2h0v-1h-0.7c0,0.5,0,0.9,0,1.4v4.4h0.7v-3.2c0-1,0.4-2.1,1.7-2.1
			c1,0,1.4,0.7,1.4,1.8v3.5H97v-3.7C97,37.4,96.4,36.4,95,36.4z"/>
		<path class="st1" d="M102.7,37.5L102.7,37.5c-0.1-0.3-0.7-1.1-1.8-1.1c-1.7,0-2.4,1.3-2.4,3c0,1.7,0.8,3,2.4,3
			c0.8,0,1.4-0.3,1.8-1.1h0v0.9h0.7v-8.5h-0.7V37.5z"/>
		<polygon class="st1" points="113.3,41.4 113.3,41.4 109.3,34.4 108.3,34.4 108.3,42.4 109.1,42.4 109.1,35.5 109.1,35.5 
			113.1,42.4 114.1,42.4 114.1,34.4 113.3,34.4 		"/>
		<path class="st1" d="M119.9,38.6c0-1.5-0.6-2.2-2-2.2c-0.5,0-1.3,0.2-1.7,0.4v0.7c0.5-0.3,1.1-0.5,1.7-0.5c1,0,1.3,0.5,1.3,1.5
			v0.3H119c-1.5,0-3.6,0.1-3.6,2c0,0.5,0.3,1.6,1.9,1.6c0.7,0,1.5-0.4,1.8-1.1h0v0.9h0.7c-0.1-0.4-0.1-0.8-0.1-1.2V38.6z"/>
		<path class="st1" d="M123.6,41.9c-0.6,0-0.8-0.4-0.8-1v-3.8h1.3v-0.6h-1.3v-1.7l-0.7,0.3v1.4h-1.1v0.6h1.1v3.4
			c0,1.1,0,1.9,1.3,1.9c0.4,0,0.7-0.1,0.9-0.2l0-0.6C124,41.8,123.8,41.9,123.6,41.9z"/>
		<path class="st1" d="M129.9,36.6h-0.7v3.2c0,1-0.4,2.1-1.7,2.1c-1,0-1.4-0.7-1.4-1.8v-3.5h-0.7v3.7c0,1.3,0.5,2.2,2,2.2
			c1.2,0,1.6-0.6,1.9-1.2h0v1h0.7c0-0.5,0-0.9,0-1.4V36.6z"/>
		<path class="st1" d="M132.4,37.7L132.4,37.7l0-1.1h-0.7c0,0.4,0,0.7,0,1.3v4.5h0.7v-2.9c0-1,0.3-2.3,1.4-2.3c0.2,0,0.4,0,0.5,0.1
			v-0.8c-0.1,0-0.3-0.1-0.5-0.1C133.2,36.4,132.7,37,132.4,37.7z"/>
		<path class="st1" d="M139.5,38.6c0-1.5-0.6-2.2-2-2.2c-0.5,0-1.3,0.2-1.7,0.4v0.7c0.5-0.3,1.1-0.5,1.7-0.5c1,0,1.3,0.5,1.3,1.5
			v0.3h-0.1c-1.5,0-3.6,0.1-3.6,2c0,0.5,0.3,1.6,1.9,1.6c0.7,0,1.5-0.4,1.8-1.1h0v0.9h0.7c-0.1-0.4-0.1-0.8-0.1-1.2V38.6z"/>
		<rect x="141.2" y="33.8" class="st1" width="0.7" height="8.5"/>
		<path class="st1" d="M149.7,38.3L149.7,38.3c1-0.1,1.8-0.8,1.8-1.9c0-1.5-0.9-2.1-2.3-2.1H147v8h0.8v-3.8h0.7c0.8,0,1.1,0,1.5,1.1
			l1.2,2.7h0.9l-1.4-3.1C150.4,38.8,150.3,38.4,149.7,38.3z"/>
		<path class="st1" d="M155.3,36.4c-1.5,0-2.5,1.3-2.5,3c0,1.7,0.7,3,2.6,3c0.5,0,1.2-0.1,1.7-0.3v-0.7c-0.3,0.2-1.1,0.4-1.6,0.4
			c-1.3,0-1.9-1-1.9-2.2h4v-0.4C157.6,37.8,156.9,36.4,155.3,36.4z"/>
		<path class="st1" d="M159.3,38c0-0.7,0.5-1,1.3-1c0.4,0,0.9,0.1,1.3,0.3l0.1-0.6c-0.5-0.2-1.1-0.3-1.4-0.3c-1,0-1.9,0.4-1.9,1.6
			c0,1.7,2.8,1.5,2.8,2.8c0,0.7-0.6,1-1.3,1c-0.6,0-1.1-0.1-1.5-0.4l-0.1,0.7c0.5,0.2,1.1,0.3,1.6,0.3c0.9,0,2-0.4,2-1.7
			C162.1,39,159.3,39.1,159.3,38z"/>
		<path class="st1" d="M165.7,36.4c-1.9,0-2.7,1.5-2.7,3c0,1.6,0.8,3,2.7,3s2.7-1.5,2.7-3C168.4,37.9,167.6,36.4,165.7,36.4z"/>
		<path class="st1" d="M174.3,36.6h-0.7v3.2c0,1-0.4,2.1-1.7,2.1c-1,0-1.4-0.7-1.4-1.8v-3.5h-0.7v3.7c0,1.3,0.5,2.2,2,2.2
			c1.2,0,1.6-0.6,1.9-1.2h0v1h0.7c0-0.5,0-0.9,0-1.4V36.6z"/>
		<path class="st1" d="M176.8,37.7L176.8,37.7l0-1.1H176c0,0.4,0,0.7,0,1.3v4.5h0.7v-2.9c0-1,0.3-2.3,1.4-2.3c0.2,0,0.4,0,0.5,0.1
			v-0.8c-0.1,0-0.3-0.1-0.5-0.1C177.5,36.4,177,37,176.8,37.7z"/>
		<path class="st1" d="M182.4,37c0.4,0,0.9,0.1,1.2,0.3l0.1-0.7c-0.2-0.1-0.7-0.2-1.4-0.2c-1.7,0-2.9,1.3-2.9,3c0,1.6,0.9,3,2.8,3
			c0.5,0,1,0,1.5-0.2l-0.1-0.7c-0.4,0.2-0.9,0.3-1.3,0.3c-1.3,0-2.1-1.1-2.1-2.4C180.2,38.1,181,37,182.4,37z"/>
		<path class="st1" d="M186.9,36.4c-1.5,0-2.5,1.3-2.5,3c0,1.7,0.7,3,2.6,3c0.5,0,1.2-0.1,1.7-0.3v-0.7c-0.3,0.2-1.1,0.4-1.6,0.4
			c-1.3,0-1.9-1-1.9-2.2h4v-0.4C189.3,37.8,188.6,36.4,186.9,36.4z"/>
		<path class="st1" d="M190.9,38c0-0.7,0.5-1,1.3-1c0.4,0,0.9,0.1,1.3,0.3l0.1-0.6c-0.5-0.2-1.1-0.3-1.4-0.3c-1,0-1.9,0.4-1.9,1.6
			c0,1.7,2.8,1.5,2.8,2.8c0,0.7-0.6,1-1.3,1c-0.6,0-1.1-0.1-1.5-0.4l-0.1,0.7c0.5,0.2,1.1,0.3,1.6,0.3c0.9,0,2-0.4,2-1.7
			C193.8,39,190.9,39.1,190.9,38z"/>
	</g>
</g>
</svg>
