<?xml version="1.0" encoding="utf-8"?>
<!-- Generator: Adobe Illustrator 20.0.0, SVG Export Plug-In . SVG Version: 6.00 Build 0)  -->
<svg version="1.1" id="Layer_1" xmlns="http://www.w3.org/2000/svg" xmlns:xlink="http://www.w3.org/1999/xlink" x="0px" y="0px"
	 viewBox="0 0 214.5 44.6" style="enable-background:new 0 0 214.5 44.6;" xml:space="preserve">
<style type="text/css">
	.st0{fill:none;}
	.st1{fill:#FFFFFF;}
</style>
<g>
	<path class="st0" d="M26.7,19.5c0.2-0.1,0.5-0.1,0.6-0.3c0-0.1,0.1-0.1,0-0.2C27,19.1,26.7,19.3,26.7,19.5z"/>
	<path class="st0" d="M104.3,6.6c-0.8,0-1.2,0.6-1.3,1.3h2.5C105.4,7.2,105.1,6.6,104.3,6.6z"/>
	<path class="st0" d="M98.8,24.1c-1.1,0-1.7,1.1-1.7,2h3.2C100.2,25.1,99.8,24.1,98.8,24.1z"/>
	<path class="st0" d="M87.1,40.9c0,0.8,0.5,1,1.2,1c1.7,0,1.7-1.5,1.7-2.1v-0.4h-0.2C88.6,39.5,87.1,39.6,87.1,40.9z"/>
	<path class="st0" d="M77.2,6.6c-0.8,0-1.2,0.6-1.3,1.3h2.5C78.4,7.2,78.1,6.6,77.2,6.6z"/>
	<path class="st0" d="M26.6,18.9c0,0.1,0,0.2,0,0.2c0.1-0.1,0.2-0.2,0.3-0.2c0.1-0.1,0.3-0.3,0.3-0.4s0-0.2-0.1-0.2
		C26.9,18.5,26.7,18.7,26.6,18.9z"/>
	<path class="st0" d="M211.6,10.4c0.5,0,0.8-0.2,1-0.5s0.3-0.7,0.3-1.2h-0.6c-0.7,0-1.6,0.1-1.6,1C210.7,10.2,211.1,10.4,211.6,10.4
		z"/>
	<path class="st0" d="M27.3,29c-0.1-0.2-0.4-0.1-0.7-0.1c-0.1,0.1-0.3,0.2-0.4,0.4C26.6,29.1,27.2,29.4,27.3,29z"/>
	<path class="st0" d="M20.9,30.9c0,0.1,0.1,0.2,0.2,0.1c0.2-0.7,0.6-1.4,0.6-2.1C21.4,29.5,21,30.2,20.9,30.9z"/>
	<path class="st0" d="M116.3,40.9c0,0.8,0.5,1,1.2,1c1.7,0,1.7-1.5,1.7-2.1v-0.4H119C117.7,39.5,116.3,39.6,116.3,40.9z"/>
	<path class="st0" d="M21.5,31L21.5,31c0.8-0.4,0.5-1.3,0.5-1.9C21.8,29.7,21.5,30.3,21.5,31z"/>
	<path class="st0" d="M118,24.1c-1.3,0-1.9,1.1-1.9,2.4s0.7,2.4,1.9,2.4s1.9-1.1,1.9-2.4C119.9,25.1,119.2,24.1,118,24.1z"/>
	<path class="st0" d="M101,37.1c-1.4,0-1.7,1.3-1.7,2.4c0,1.1,0.4,2.4,1.7,2.4c1.3,0,1.7-1.4,1.7-2.4
		C102.7,38.4,102.2,37.1,101,37.1z"/>
	<path class="st0" d="M22.8,28L22.8,28c0.1-0.2,0.2-0.4,0.2-0.6v-0.1c0.2-0.3,0.4-0.6,0.5-0.9c0.1-0.2-0.2-0.6,0.2-0.6l0.1-0.7
		c-0.2-0.5-0.4-1-0.4-1.6v-0.1l0,0l0,0c0-0.5,0-1,0.1-1.4c0-0.4-0.2-0.8-0.5-1c-0.3,0.1-0.2,0.5-0.3,0.7c-0.3,0.4-0.7,0.7-1.2,0.7
		c-0.4,0-0.1,0.3-0.2,0.5c0,0.2,0,0.4,0,0.5c-0.2,0.8-0.8,1.6-0.3,2.4l0.1-0.1c0.4,0,0,0.4,0.2,0.7c0.1,0.3,0.3,0.6,0.4,0.9h-0.2
		c0.1,0.2,0.1,0.5,0.3,0.7c0.2,0.3,0.4,0.6,0.7,0.8C22.5,28.6,22.7,28.3,22.8,28z"/>
	<path class="st0" d="M76.2,37.1c-1.1,0-1.7,1.1-1.7,2h3.2C77.6,38.1,77.2,37.1,76.2,37.1z"/>
	<path class="st0" d="M124.6,10.3c1.1,0,1.4-1,1.4-2c0-0.9-0.5-1.7-1.4-1.7c-1,0-1.4,0.8-1.4,1.7C123.2,9.3,123.5,10.3,124.6,10.3z"
		/>
	<path class="st0" d="M26.6,18.6c0.2-0.2,0.4-0.5,0.5-0.8C26.8,18,26.6,18.3,26.6,18.6L26.6,18.6z"/>
	<path class="st0" d="M26.2,21.4c0.1-0.2,0.4-0.2,0.4-0.4c-0.2-0.2-0.4,0-0.5,0.1c-0.3-0.2,0.3-0.3,0.2-0.6c-0.2,0-0.2,0.2-0.3,0.2
		c-0.1-0.1,0-0.2,0-0.3c-0.2,0.4-0.2,1-0.6,1.3c-0.1,0.3-0.7,0.6-0.4,1c0.1,0.2,0.3,0.3,0.5,0.2c-0.1-0.1-0.2-0.3-0.1-0.4
		c0.2,0.1,0.4,0.4,0.7,0.3c0-0.2-0.3-0.3-0.2-0.5c0.3,0,0.4,0.3,0.7,0.2c0-0.3-0.3-0.3-0.4-0.6c0.2-0.1,0.4,0,0.6,0
		c0.1,0,0.2,0,0.2-0.1C26.7,21.5,26.5,21.4,26.2,21.4z"/>
	<path class="st0" d="M23.6,36.2C23.3,36,22.9,36,22.5,36c-0.1,0.7,0,1.4,0.1,2.1c0.4,0,0.9,0,1.2-0.4C24,37.3,24,36.6,23.6,36.2z"
		/>
	<path class="st0" d="M17,29.1c0.2,0.2,0.5,0.1,0.8,0.1c0.1,0,0.3-0.1,0.3-0.3l-0.1,0C17.7,29,17.1,28.7,17,29.1z"/>
	<path class="st0" d="M26.7,17.4c-0.2,0.1-0.2,0.3-0.3,0.4c-0.1-0.2,0-0.5,0.1-0.7c-0.1-0.1-0.1-0.3-0.2-0.3
		c-0.1,0.5-0.1,1.1,0.1,1.5C26.6,18.1,26.7,17.7,26.7,17.4z"/>
	<path class="st0" d="M18.7,16.5c-0.7,0.2,0,0.8-0.1,1.2C18.8,17.4,18.7,16.9,18.7,16.5z"/>
	<path class="st0" d="M18.2,18.9c0-0.2,0.1-0.3,0.1-0.5c-0.1-0.2-0.3-0.4-0.5-0.6c-0.1,0.2,0.2,0.4,0.1,0.6l-0.3-0.1
		c-0.1,0.3,0.2,0.4,0.4,0.6C18.1,18.9,18.1,18.9,18.2,18.9c-0.2,0.4-0.4-0.1-0.6,0.1c0.1,0.3,0.4,0.3,0.5,0.6
		c-0.2,0.2-0.3-0.1-0.4-0.1c0,0.1,0,0.2,0.1,0.3c0.2,0.1,0.3,0.2,0.5,0.2C18.1,19.6,18.1,19.3,18.2,18.9z"/>
	<path class="st0" d="M28.4,37.5l1.1-0.5c-0.4-0.4-0.8-0.8-1.3-1.1C28.4,36.4,28.3,37,28.4,37.5z"/>
	<path class="st0" d="M18.1,17.2c-0.2,0.3,0.1,0.6,0.2,0.9C18.3,17.8,18.3,17.4,18.1,17.2z"/>
	<path class="st0" d="M56.2,22.1H55v6.6h0.6c2.3,0,3.7-0.9,3.7-3.4C59.4,22.9,58,22.1,56.2,22.1z"/>
	<path class="st0" d="M69.9,28.9c1.4,0,1.7-1.3,1.7-2.4s-0.4-2.4-1.7-2.4c-1.3,0-1.7,1.4-1.7,2.4C68.2,27.5,68.7,28.9,69.9,28.9z"/>
	<path class="st0" d="M38.6,25l0.1-1.2c-0.5,0.1-1.1,0.3-1.6,0.5C37.6,24.5,38.1,24.9,38.6,25z"/>
	<path class="st0" d="M18.5,28.9c-0.1,0.1-0.1,0.2-0.2,0.3c0.2,0.1,0.3,0,0.5,0.1c0.1,0,0.2-0.2,0.1-0.3
		C18.8,28.9,18.6,28.9,18.5,28.9z"/>
	<path class="st0" d="M74.2,27.9c0,0.8,0.5,1,1.2,1c1.7,0,1.7-1.5,1.7-2.1v-0.4H77C75.7,26.5,74.2,26.6,74.2,27.9z"/>
	<path class="st0" d="M64.7,10.3c1.1,0,1.4-1,1.4-2c0-0.9-0.5-1.7-1.4-1.7c-1,0-1.4,0.8-1.4,1.7C63.2,9.3,63.5,10.3,64.7,10.3z"/>
	<path class="st0" d="M27,19.6c-0.1,0.1-0.4,0.2-0.3,0.3c0.1-0.1,0.4,0,0.4-0.3H27z"/>
	<path class="st0" d="M63.9,24.1c-1.1,0-1.7,1.1-1.7,2h3.2C65.4,25.1,65,24.1,63.9,24.1z"/>
	<path class="st0" d="M64.9,40.9c0,0.8,0.5,1,1.2,1c1.7,0,1.7-1.5,1.7-2.1v-0.4h-0.2C66.4,39.5,64.9,39.6,64.9,40.9z"/>
	<path class="st0" d="M19.5,21.5c-0.5-0.3-0.3-0.9-0.5-1.3c0,0.1,0.1,0.3,0,0.3c-0.1-0.1-0.2-0.2-0.3-0.2c-0.1,0.2,0.1,0.4,0.1,0.6
		c-0.2,0.2-0.4-0.2-0.7-0.1c0,0.2,0.3,0.4,0.4,0.5c-0.2,0.1-0.5,0.2-0.5,0.4c0.2,0.1,0.4-0.1,0.6,0c-0.1,0.2-0.3,0.3-0.3,0.5
		c0.3,0.2,0.5-0.2,0.7-0.2c-0.1,0.2-0.2,0.3-0.2,0.5c0.2,0.1,0.3-0.1,0.5-0.2c0.1,0.1,0,0.1,0,0.2s0.1,0.2,0.2,0.2
		c0.2-0.1,0.4-0.4,0.3-0.6C19.8,22,19.7,21.7,19.5,21.5z"/>
	<path class="st0" d="M165.7,37.1c-1.3,0-1.9,1.1-1.9,2.4c0,1.3,0.7,2.4,1.9,2.4s1.9-1.1,1.9-2.4C167.6,38.1,166.9,37.1,165.7,37.1z
		"/>
	<path class="st0" d="M20.1,28.9c-0.1,0-0.3,0-0.4,0c-0.1,0.1-0.2,0.2-0.2,0.3C19.8,29.4,19.9,29,20.1,28.9z"/>
	<path class="st0" d="M21.1,28.6L20.5,29c-0.3,0.3-0.8,0.5-0.8,0.9h0.1C20.2,29.4,20.7,29.1,21.1,28.6z"/>
	<polygon class="st0" points="172.7,5.2 172.7,5.2 171.5,8.3 173.8,8.3 	"/>
	<path class="st0" d="M22.6,29c0.1,0.7,0.5,1.3,0.7,2c0.1,0,0.2-0.1,0.2-0.2C23.3,30.1,22.9,29.6,22.6,29L22.6,29z"/>
	<path class="st0" d="M144.7,10.3c1.1,0,1.4-1,1.4-2c0-0.9-0.5-1.7-1.4-1.7c-1,0-1.4,0.8-1.4,1.7C143.3,9.3,143.6,10.3,144.7,10.3z"
		/>
	<path class="st0" d="M155.3,37.1c-1.1,0-1.7,1.1-1.7,2h3.2C156.8,38.1,156.4,37.1,155.3,37.1z"/>
	<path class="st0" d="M20.4,30.6l0.1,0.1c0.3-0.6,0.9-1.1,1.1-1.8C21.1,29.4,20.7,30,20.4,30.6z"/>
	<path class="st0" d="M16.8,9.4c0.4-0.5,0.3-1.3,0.1-1.8c-0.3-0.7-0.7-1.6-1.5-1.9c-0.5-0.2-1.1,0-1.5,0.3c-0.4,0.4-0.4,1-0.3,1.5
		c0.3,1,0.8,2.3,2,2.4C16.1,9.9,16.5,9.7,16.8,9.4z"/>
	<path class="st0" d="M199.5,10.4c0.5,0,0.8-0.2,1-0.5s0.3-0.7,0.3-1.2h-0.6c-0.7,0-1.6,0.1-1.6,1C198.5,10.2,198.9,10.4,199.5,10.4
		z"/>
	<path class="st0" d="M25.8,29.2c0.1,0,0.3-0.1,0.3-0.3c-0.1-0.1-0.3,0-0.5-0.1c-0.1,0-0.2,0.1-0.2,0.3
		C25.5,29.2,25.7,29.2,25.8,29.2z"/>
	<path class="st0" d="M187,37.1c-1.1,0-1.7,1.1-1.7,2h3.2C188.5,38.1,188.1,37.1,187,37.1z"/>
	<path class="st0" d="M21.2,28L21.2,28c0-1.1-0.8,0.1-1.2,0l0,0c-0.2,0.1-0.5,0.3-0.5,0.5C20.1,28.6,20.9,28.7,21.2,28z"/>
	<path class="st0" d="M176.6,24.1c-1.1,0-1.7,1.1-1.7,2h3.2C178.1,25.1,177.7,24.1,176.6,24.1z"/>
	<path class="st0" d="M22.2,20.5c0-0.1-0.1,0-0.2-0.1v0.2h0.1C22.2,20.7,22.2,20.6,22.2,20.5z"/>
	<path class="st0" d="M21.6,20.4c0-0.3-0.2-0.5-0.5-0.5c0.2,0.2,0.5,0.4,0.4,0.7c-0.2,0.2-0.5-0.1-0.7,0c0.2,0.1,0.3,0.2,0.5,0.2
		C21.7,20.8,21.6,20.5,21.6,20.4z"/>
	<path class="st0" d="M21.2,28.9c-0.4,0.5-1.1,0.9-1.3,1.5H20C20.3,29.8,21,29.4,21.2,28.9z"/>
	<path class="st0" d="M24.2,28.9c0.2,0.1,0.4,0.4,0.7,0.3C25,29.1,25,29,25,28.9C24.8,28.8,24.4,28.8,24.2,28.9z"/>
	<path class="st0" d="M22.3,29.1c0.1,0.6-0.4,1.5,0.4,1.9C22.7,30.4,22.6,29.7,22.3,29.1L22.3,29.1z"/>
	<path class="st0" d="M23.2,28L23.2,28c0.3,0.8,1.2,0.4,1.7,0.5c-0.1-0.2-0.3-0.3-0.4-0.5c-0.1-0.1-0.2-0.2-0.3-0.3
		c-0.3-0.1-0.6-0.1-0.8-0.3L23.2,28z"/>
	<path class="st0" d="M135.9,40.9c0,0.8,0.5,1,1.2,1c1.7,0,1.7-1.5,1.7-2.1v-0.4h-0.2C137.4,39.5,135.9,39.6,135.9,40.9z"/>
	<path class="st0" d="M33.1,17.1c-1-2.1-3-4.2-5.1-5.3c-3.7-2.2-9.2-1.9-12.6,0.6c-4,2.9-6,7.6-4.9,12.6c0.8,4.1,4.6,8.1,8.7,8.9
		c4.6,1.1,9.1-0.3,12.2-3.8C34.4,26.7,35.2,21.1,33.1,17.1z M30.3,25.2h-0.6l-0.4,0.5c-0.3,0-0.6-0.2-0.8,0l-0.2,0.4
		c-0.2,0-0.4-0.1-0.6-0.1c-0.2,0.1-0.2,0.5-0.5,0.5c-0.1-0.1-0.3-0.2-0.4-0.1s-0.2,0.3-0.3,0.3c-0.2,0-0.4-0.3-0.6-0.1
		c-0.1,0.1-0.2,0.2-0.3,0.2c-0.1-0.1-0.3-0.4-0.5-0.2c-0.1,0.1-0.3,0.1-0.4,0c-0.4-0.3-0.3-1-0.6-1.3c-0.1-0.1-0.2,0.1-0.2,0.2
		c-0.1,0.6-0.4,1.3,0.2,1.7L25,28l0.4,0.3c0.7-0.1,1.2,0.3,1.9,0.3c0.1,0,0.2,0.2,0.3,0.3c0,0.2-0.2,0.5-0.4,0.5
		c-0.5-0.2-0.8,0.6-1.2,0.1c-0.2,0.1-0.3,0.3-0.6,0.2c-0.1-0.1-0.3-0.2-0.4-0.1c0.1,0.4,0.6,0.7,0.5,1.2c-0.4,0-0.4,0.6-0.8,0.5
		c-0.1,0.1-0.1,0.4-0.3,0.4c-0.4-0.1-0.5,0.5-0.9,0.2l-0.3,0.4l-0.5-0.2c-0.2,0.1-0.3,0.5-0.6,0.3c-0.1-0.1-0.2-0.3-0.4-0.3
		c-0.1,0-0.2,0.1-0.4,0.1c-0.1-0.6-0.8,0.1-0.9-0.5c-0.2-0.1-0.6,0-0.7-0.4c-0.1-0.1-0.4,0-0.4-0.3c0.1-0.3-0.3-0.2-0.3-0.5
		c0.1-0.4,0.3-0.7,0.5-1c-0.2-0.1-0.4,0.1-0.6,0.1s-0.4-0.3-0.6,0c-0.2,0-0.4-0.1-0.5-0.1c-0.2,0-0.7,0.1-0.9-0.1
		c-0.1-0.1-0.2-0.4-0.1-0.5c0.3-0.5,1.1-0.1,1.5-0.5c0.6,0.2,1-0.1,1.3-0.4s0.6-0.6,0.9-0.8c0.5-0.6,0.1-1.3-0.1-2
		c-0.1,0-0.1,0.1-0.2,0.2c0,0.5,0,1-0.4,1.3c-0.3-0.1-0.6,0-0.9,0.2c-0.2-0.1-0.3-0.5-0.6-0.3c-0.1,0.1-0.3,0.4-0.5,0.3
		c-0.1-0.1-0.2-0.3-0.3-0.3c-0.2,0-0.4,0.3-0.6,0c-0.1-0.1-0.2-0.4-0.4-0.3c-0.1,0.1-0.3,0.1-0.4,0.1l-0.3-0.5
		c-0.3-0.1-0.7,0.2-0.7-0.2c0-0.1,0-0.3-0.2-0.3c-0.3,0-0.7,0.1-0.9,0c0-0.3,0.2-0.5,0.2-0.7c-0.3-0.1-0.8,0.1-1-0.2
		c0-0.2,0.1-0.5,0.2-0.7c-0.3-0.1-0.6-0.1-0.8-0.1c-0.1,0-0.2-0.1-0.3-0.1c-0.1-0.3,0.2-0.5,0.3-0.7c-0.2-0.2-0.6-0.2-0.8-0.4
		c0-0.4,0.4-0.5,0.6-0.8c-0.2-0.3-0.5-0.4-0.7-0.7c0.2-0.3,0.5-0.5,0.8-0.7c-0.2-0.3-0.6-0.5-0.6-0.9c0.2-0.1,0.4-0.3,0.7-0.3h0.1
		l0.1-0.1c-0.1-0.2-0.4-0.4-0.5-0.7c0.4-0.2,0.9,0,1.2-0.2c-0.1-0.3-0.5-0.5-0.6-0.9c0.4-0.2,0.8,0,1.2,0c-0.3-0.3-0.6-0.7-0.6-1.1
		c0.2-0.2,0.5,0.1,0.7,0.1c0.4,0.2,0.7,0.4,1.1,0.6l0.1-0.1c-0.3-0.5-1-0.9-0.9-1.5c0.8,0.1,1.4,0.7,2,1.2c0-0.2-0.2-0.4-0.3-0.7
		c-0.2-0.5-0.5-0.9-0.5-1.5c0.3,0,0.6,0.4,0.8,0.6l0.7,0.9c0.2-0.3-0.1-0.6-0.2-0.9c0-0.5-0.3-1.1,0-1.5c0.5,0.1,0.5,0.7,0.7,1.1
		c0.1,0.4,0.1,0.7,0.3,1.1c0-0.7,0.2-1.4,0-2.1c0.1-0.3,0.2-0.6,0.5-0.7l0.1,0.2c0.1,0.4,0.1,0.9,0.1,1.3l0.1,0.1
		C19,14.2,19,14,19.2,14c0.5,1.5-0.2,3-0.4,4.5c0,0.3,0,0.5,0.1,0.7c0.1,0.5,0.3,1,0.5,1.5c-0.2,0.7,0.6,1,0.7,1.6
		c0.1,0.2,0.4,0,0.6,0.1c0.2,0,0.3,0.3,0.5,0.2c0.3-0.2,0.3-0.6,0.3-1c-0.3-0.4-0.9-0.4-1-0.9c0.3,0,0.6,0,0.9,0.1l0.1-0.1
		c-0.2-0.3-0.5-0.5-0.9-0.7c0.1-0.1,0.5-0.1,0.7-0.1c0.9,0.4,2.1,0.6,2.5,1.7c0.1,0.2,0.1,0.5,0.2,0.7c0.3-0.1,0.6,0.1,0.9-0.1
		c1-0.8,0.8-2.1,1.2-3.2c0-0.1,0.1-0.3,0.2-0.4c-0.1-1.6-0.2-3.2-0.1-4.9c0-0.1,0.1-0.1,0.2,0s0.1,0.2,0.2,0.2
		c0.1-0.4,0-0.9,0.3-1.2c0.3,0.1,0.4,0.5,0.5,0.8v1.1l0.1,0.1c0.2-0.5,0.3-1,0.8-1.3c0.1-0.1,0.2,0.1,0.2,0.2
		c-0.1,0.7,0,1.4-0.5,1.9c0,0.1,0,0.2,0.1,0.3c0.4-0.6,0.8-1.4,1.6-1.6c0.3,0.4-0.1,0.9-0.3,1.2c-0.3,0.3-0.4,0.6-0.6,1l0.1,0.1
		c0.5-0.6,1.2-1.2,2-1.4c0.1,0.2,0,0.3-0.1,0.5c-0.3,0.2-0.3,0.6-0.5,0.9c-0.3,0.3-0.6,0.5-0.9,0.8c0.3-0.1,0.6-0.4,0.9-0.5
		c0.4-0.2,0.9-0.5,1.4-0.5c0.1,0.3-0.3,0.5-0.5,0.7s-0.4,0.3-0.6,0.6c0.5-0.1,1.1-0.4,1.6-0.2c-0.1,0.4-0.5,0.5-0.7,0.9
		c0.1,0.1,0.3,0,0.5,0s0.5,0,0.7,0.2c0,0.3-0.4,0.4-0.6,0.6c0,0,0,0.1-0.1,0.1c0.3,0.2,0.7,0.1,0.9,0.4v0.1l-0.6,0.6v0.1
		c0.3,0.2,0.7,0.4,1,0.7v0.1c-0.3,0.2-0.6,0.3-0.8,0.5c0.1,0.3,0.5,0.4,0.5,0.7l-0.9,0.4c0.1,0.3,0.4,0.5,0.4,0.8c0,0,0,0,0,0.1l0,0
		l0,0l0,0l0,0c-0.3,0.1-0.7,0-0.9,0.2c0.1,0.2,0.3,0.5,0.2,0.8c-0.3,0.1-0.8,0-1.1,0.2C30.4,24.8,30.5,25.1,30.3,25.2z"/>
	<path class="st0" d="M22.9,28.6c0.4,0.7,1,1.3,1.5,2c0.1,0,0.1-0.1,0.1-0.2C24,29.7,23.6,29.2,22.9,28.6L22.9,28.6z"/>
	<path class="st0" d="M7.4,23.6l-1.6-0.4l0.1,1.2C6.4,24.1,6.9,23.9,7.4,23.6z"/>
	<path class="st0" d="M24,30.8c0.1,0,0-0.1,0.1-0.2l-1.3-1.8C22.9,29.5,23.7,30.1,24,30.8z"/>
	<path class="st0" d="M154.7,28.9c1.3,0,1.9-1.1,1.9-2.4s-0.7-2.4-1.9-2.4c-1.3,0-1.9,1.1-1.9,2.4S153.4,28.9,154.7,28.9z"/>
	<path class="st0" d="M23.3,28.6c0.4,0.5,0.9,1,1.4,1.4v-0.1C24.3,29.5,23.8,29,23.3,28.6z"/>
	<path class="st0" d="M150.7,36.5c0-1.3-0.9-1.4-2-1.4h-0.8V38h0.8C149.6,38,150.7,37.6,150.7,36.5z"/>
	<path class="st1" d="M33.5,17.3c-1-2.2-2.9-4.4-5.1-5.5c-3.8-2.3-9.6-2.1-13.1,0.5c-3.9,2.8-5.9,7.2-5,12c0.6,4.4,4.5,8.8,8.9,9.7
		c4.5,1.1,9-0.2,12.1-3.5C34.5,27.2,35.5,21.6,33.5,17.3z M19.3,33.9C15.1,33,11.4,29,10.5,25c-1.2-5,0.8-9.7,4.9-12.5
		c3.4-2.5,8.9-2.7,12.6-0.6c2.1,1.1,4.1,3.2,5.1,5.3c2.1,4,1.3,9.6-1.7,12.9C28.3,33.6,23.9,35,19.3,33.9z"/>
	<path class="st1" d="M7.8,32.1l2.6-1.4c0.4-0.1,0.7,0,1,0.3l0.1-0.1l-0.8-1.5h-0.1l0.1,0.4c0,0.3-0.2,0.5-0.4,0.7
		c-1,0.5-1.9,1.4-3.1,1.3c-0.5-0.2-0.8-0.8-0.9-1.3c0-0.3,0.1-0.7,0.5-0.9l2.6-1.5L9.7,28c0.2,0,0.2,0.4,0.4,0.3
		c-0.2-0.6-0.6-1.1-0.9-1.7H9c0,0.2,0.2,0.5,0,0.7l-2.5,1.4c-0.3,0.2-0.6,0.4-0.7,0.8c-0.1,0.8,0.2,1.5,0.7,2
		C6.8,32.2,7.4,32.2,7.8,32.1z"/>
	<path class="st1" d="M38.5,30.9c0.3-0.5,0.5-1.1,0.8-1.7c-0.2-0.1-0.2,0.3-0.5,0.3L35.4,28c-0.4-0.1-0.2-0.5-0.2-0.7h-0.1
		c-0.3,0.6-0.6,1.1-0.8,1.7c0.2,0,0.3-0.4,0.5-0.4l3.5,1.7C38.5,30.5,38.4,30.7,38.5,30.9L38.5,30.9z"/>
	<path class="st1" d="M34.3,36.1c0.9-0.8,1.7-1.7,2.5-2.5l-1-1.4h-0.1c0.4,0.6,0.5,1.6,0.1,2.2c-0.2,0.2-0.4,0.6-0.8,0.5l-2.8-2.6
		c-0.2-0.3,0.2-0.4,0.1-0.6h-0.1L30.9,33c0.1,0.3,0.3-0.3,0.6-0.1l2.8,2.6C34.4,35.8,34.2,35.9,34.3,36.1
		C34.2,36.1,34.2,36.1,34.3,36.1z"/>
	<path class="st1" d="M13.6,34.9c0.3-0.4,0.6-0.8,0.9-1.2v-0.2l-0.3,0.1c-0.2-0.1-0.2-0.3-0.3-0.4c-0.4-0.7-1.3-1.1-2-0.7
		c-1.6,1.1,0.5,2.3,0.2,3.6c-0.2,0.3-0.5,0.5-0.8,0.5c-0.4,0-0.6-0.3-0.9-0.5c-0.4-0.7,0.1-1.5,0.3-2.1h-0.1
		c-0.4,0.4-0.8,0.9-1.2,1.4v0.1c0.1,0,0.3-0.1,0.4,0.1c0.3,0.6,0.9,1.3,1.7,1.3c0.4,0,0.8-0.1,1.1-0.4c1.1-1.2-0.5-2.2-0.4-3.4
		c0.1-0.3,0.4-0.5,0.7-0.5c0.2,0,0.5,0.1,0.7,0.3C14.1,33.4,13.7,34.3,13.6,34.9L13.6,34.9z"/>
	<path class="st1" d="M19.2,36.7c0.1,0.2,0,0.5,0.2,0.7c0.1-0.5,0.2-1.1,0.3-1.6c-1.1-0.2-2.1-0.6-3.1-1l-0.3-0.2l-0.8,1.3
		c0,0.1-0.1,0.2,0,0.2c0.5-0.5,1.1-0.9,1.9-0.8c0.1,0,0.2,0,0.1,0.1c-0.5,1.3-0.9,2.5-1.4,3.8c-0.2,0.1-0.5,0-0.7,0v0.1
		c0.6,0.3,1.3,0.5,2,0.7l0.1-0.1c-0.1-0.2-0.5-0.2-0.5-0.5l1.4-3.8C18.7,35.7,19.1,36.2,19.2,36.7z"/>
	<path class="st1" d="M4.2,24.8L4.2,24.8c-0.1,0.6,0,1.2,0.1,1.8c0.2,0,0-0.4,0.3-0.5c1.4-0.8,2.8-1.7,4.2-2.4l-0.1-0.1
		c-0.4,0.1-0.8-0.6-1.1-0.2c-1.2-0.4-2.5-0.5-3.5-1.1C4,22.2,4,21.9,3.8,21.9c0,0.5,0.1,1.1,0.2,1.6c0.2,0,0.1-0.4,0.3-0.5
		c0.4-0.3,0.9,0,1.3,0.1l0.1,1.4c-0.3,0.3-0.8,0.5-1.2,0.7C4.2,25.2,4.3,24.9,4.2,24.8z M7.4,23.6c-0.4,0.3-1,0.6-1.5,0.8l-0.1-1.2
		L7.4,23.6z"/>
	<path class="st1" d="M23,38.4c0.7,0.5,0.9,1.3,1.4,2c0.4,0,0.9,0,1.3-0.1v-0.1c-0.7,0-0.9-0.8-1.2-1.2c-0.2-0.4-0.6-0.7-1-0.8
		c0.5-0.1,1.1-0.4,1.3-0.9c0.1-0.4,0-0.7-0.2-0.9c-0.9-0.8-2.3-0.4-3.4-0.4h-0.1c0.1,0.1,0.5,0,0.6,0.3l0.1,3.8
		c-0.1,0.3-0.4,0.1-0.5,0.3l0.1,0.1l1.7-0.1c0.1,0,0.2,0,0.2-0.1c-0.2,0-0.4,0-0.5-0.2l-0.1-1.7l0.1-0.1
		C22.8,38.3,22.9,38.3,23,38.4z M22.5,36c0.4,0,0.8-0.1,1.1,0.2c0.4,0.4,0.3,1.1,0.1,1.5c-0.3,0.4-0.7,0.3-1.2,0.4
		C22.5,37.4,22.5,36.7,22.5,36z"/>
	<path class="st1" d="M30.5,38.5c0.6-0.2,1.1-0.5,1.6-0.7v-0.1h-0.4L28,34.5l-0.1,0.1c0.2,0.4-0.3,1,0.2,1.1l0.2,2.6
		c0,0.5,0,1-0.5,1.3c0.5-0.1,1-0.4,1.5-0.6v0h-0.4c-0.5-0.2-0.5-0.8-0.5-1.2c0.4-0.3,0.9-0.5,1.4-0.7l1,0.9
		C30.9,38.2,30.4,38.3,30.5,38.5z M28.4,37.5c-0.1-0.5-0.1-1.1-0.1-1.6c0.4,0.3,0.9,0.7,1.3,1.1L28.4,37.5z"/>
	<path class="st1" d="M40.3,23.3c0.2,0.1,0.1,0.3,0.2,0.5h0.1c0.1-0.6,0.1-1.2,0.1-1.8c-0.2,0-0.1,0.3-0.3,0.4
		c-1.5,0.5-3.1,1-4.7,1.5V24c0.4,0,0.6,0.8,1.1,0.4l2.6,1.4c0.4,0.2,0.6,0.6,0.7,0.9c0.2-0.5,0.1-1.1,0.2-1.6
		c-0.2,0.1-0.2,0.4-0.5,0.5c-0.5,0.1-0.8-0.2-1.2-0.4l0.1-1.4C39.3,23.5,39.8,23.4,40.3,23.3z M38.6,25c-0.5-0.2-1-0.5-1.5-0.7
		c0.5-0.2,1-0.4,1.6-0.5L38.6,25z"/>
	<path class="st1" d="M21.5,4c-0.6,0-1.3,0-1.9,0.1c0.1,0.2,0.4,0,0.5,0.3l0.1,2.9c0,0.4,0.1,0.8,0.5,1.1c0.6,0.4,1.4,0.5,2.1,0.3
		c1.3-0.4,0.7-2,0.8-2.9c0-0.5-0.1-1,0.3-1.4c0.1-0.2,0.4-0.1,0.5-0.3c-0.5-0.1-1,0.1-1.5,0L22.7,4c0.1,0.1,0.4,0.2,0.6,0.4
		c0.4,0.8,0.1,1.9,0.3,2.8c0,0.5-0.1,0.9-0.5,1.1c-0.4,0.3-0.9,0.2-1.4,0.1c-0.3-0.1-0.5-0.4-0.6-0.7L21,4.4l0.1-0.2
		C21.2,4.1,21.6,4.2,21.5,4z"/>
	<path class="st1" d="M26.9,9c-0.2,0-0.4-0.1-0.5,0c0.6,0.3,1.2,0.5,1.8,0.8c0.1,0,0.2,0.1,0.3,0C28.3,9.6,28,9.6,28,9.3
		c0.5-1.3,1-2.5,1.5-3.8c0.4,0.2,0.7,0.6,0.9,1.1c0.1,0.3,0.1,0.6,0.2,0.8c0.2-0.5,0.3-1.1,0.3-1.6h-0.2l-2.8-1.1l-0.4-0.3
		c-0.4,0.4-0.6,0.9-0.9,1.4c0.6-0.4,1.3-0.9,2.1-0.6c-0.4,1.1-0.9,2.2-1.3,3.4C27.2,8.8,27.2,9.1,26.9,9z"/>
	<path class="st1" d="M31.1,10.9c-0.2,0.3-0.5-0.1-0.7-0.1v0.1c0.4,0.4,0.9,0.9,1.3,1.3c0.3-0.1-0.2-0.3-0.1-0.6l1.4-1.4h0.1
		c0.4,0.5,0.9,0.9,1.3,1.4l-1.3,1.3c-0.2,0.4-0.5-0.1-0.7,0c0.4,0.5,0.8,0.9,1.3,1.3h0.1c0-0.2-0.3-0.3-0.2-0.5l2.7-2.8
		c0.2-0.2,0.4,0.2,0.6,0.2L37,11l-1.2-1.2c-0.1,0-0.2-0.2-0.2,0c0.7,0.7-0.6,1.2-1,1.7h-0.1c-0.4-0.5-0.9-0.8-1.3-1.3L34.4,9
		c0.2-0.3,0.3,0,0.5,0V8.9l-1.3-1.3c-0.3,0.1,0.2,0.3,0.1,0.6L31.1,10.9z"/>
	<path class="st1" d="M8.7,9.6c-0.5,0.4-0.6,1-0.5,1.6c0.7,2,2.4-0.1,3.7,0.2c0.3,0.2,0.5,0.4,0.5,0.8c0,0.4-0.4,0.8-0.7,1
		c-0.7,0.2-1.4-0.2-1.9-0.5l-0.1,0.1c0.5,0.5,1,1,1.5,1.4l0.1-0.1c0-0.1-0.1-0.1-0.1-0.2c0.1-0.2,0.4-0.3,0.6-0.4
		c0.5-0.4,1-0.9,0.9-1.6c-0.1-0.4-0.2-0.8-0.6-1.1c-1.2-0.7-2.1,0.6-3.2,0.4c-0.2-0.2-0.4-0.4-0.5-0.7c0-0.3,0.2-0.5,0.4-0.7
		c0.6-0.5,1.4-0.1,2,0.2V9.8l-1.2-1H9.5C9.6,9.3,8.9,9.3,8.7,9.6z"/>
	<path class="st1" d="M17.5,8.9c0.4-0.6,0.4-1.6,0.1-2.2c-0.6-1-1.5-1.5-2.6-1.4c-0.9,0.1-1.8,0.9-2.1,1.7c-0.2,0.8,0,1.6,0.4,2.2
		c0.5,0.7,1.3,1,2.1,0.9C16.3,10.1,17,9.6,17.5,8.9z M13.6,7.5C13.5,7,13.5,6.4,13.9,6s0.9-0.5,1.5-0.3c0.8,0.3,1.2,1.2,1.5,1.9
		c0.2,0.5,0.2,1.4-0.1,1.8c-0.3,0.3-0.7,0.5-1.1,0.5C14.5,9.8,13.9,8.5,13.6,7.5z"/>
	<path class="st1" d="M22.4,2.4c8.5,0,15.7,5.3,18.6,12.8l2.3-0.8C40,6,31.9,0,22.4,0C12.8,0,4.7,6,1.5,14.4l2.3,0.9
		C6.7,7.7,13.9,2.4,22.4,2.4z"/>
	<path class="st1" d="M22.4,42.2c-9.8,0-17.9-7-19.5-16.3l-2.4,0.5c1.9,10.4,11,18.3,21.9,18.3s20-7.9,21.9-18.3l-2.4-0.5
		C40.2,35.1,32.1,42.2,22.4,42.2z"/>
	<path class="st1" d="M31.3,23.6c0.3-0.1,0.6-0.1,0.9-0.2l0,0l0,0l0,0l0,0c0,0,0,0,0-0.1c0-0.3-0.3-0.6-0.4-0.8l0.9-0.4
		c0-0.3-0.4-0.4-0.5-0.7c0.3-0.2,0.6-0.3,0.8-0.5v-0.1c-0.3-0.3-0.6-0.5-1-0.7V20l0.6-0.6v-0.1c-0.2-0.2-0.6-0.2-0.9-0.4
		c0,0,0-0.1,0.1-0.1c0.2-0.2,0.5-0.3,0.6-0.6C32.3,18,32,18,31.8,18s-0.3,0.1-0.5,0c0.2-0.3,0.6-0.5,0.7-0.9
		c-0.6-0.2-1.1,0.1-1.6,0.2c0.2-0.2,0.3-0.4,0.6-0.6c0.2-0.2,0.7-0.4,0.5-0.7c-0.5,0-1,0.2-1.4,0.5c-0.3,0.1-0.6,0.5-0.9,0.5
		c0.2-0.3,0.6-0.5,0.9-0.8c0.2-0.3,0.2-0.6,0.5-0.9c0-0.2,0.2-0.3,0.1-0.5c-0.8,0.2-1.5,0.8-2,1.4l-0.1-0.1c0.2-0.3,0.3-0.7,0.6-1
		c0.2-0.4,0.5-0.8,0.3-1.2c-0.8,0.2-1.1,1.1-1.6,1.6c-0.1-0.1-0.1-0.2-0.1-0.3c0.4-0.5,0.4-1.2,0.5-1.9c0-0.1-0.1-0.2-0.2-0.2
		c-0.4,0.3-0.6,0.8-0.8,1.3l-0.1-0.1v-1.1c0-0.3-0.1-0.7-0.5-0.8c-0.3,0.3-0.2,0.8-0.3,1.2c-0.1,0-0.1-0.1-0.2-0.2c0,0-0.1,0-0.2,0
		c-0.1,1.7,0,3.2,0.1,4.9c-0.1,0.1-0.1,0.3-0.2,0.4c-0.4,1.1-0.2,2.4-1.2,3.2c-0.2,0.2-0.6,0-0.9,0.1c-0.2-0.2-0.1-0.5-0.2-0.7
		c-0.4-1.1-1.6-1.4-2.5-1.7c-0.2,0-0.5-0.1-0.7,0.1c0.3,0.2,0.6,0.3,0.9,0.7l-0.1,0.1c-0.3-0.1-0.6-0.2-0.9-0.1
		c0.2,0.5,0.7,0.5,1,0.9c0,0.3,0.1,0.8-0.3,1c0,0-0.2-0.3-0.4-0.3c-0.2,0-0.4,0.2-0.6-0.1c-0.1-0.6-0.9-0.9-0.7-1.6
		c-0.2-0.5-0.4-1-0.5-1.5c0-0.2-0.1-0.5-0.1-0.7c0.2-1.5,0.9-3,0.4-4.5c-0.2,0-0.2,0.3-0.4,0.3l-0.1-0.1c0-0.5,0-0.9-0.1-1.3
		l-0.1-0.2c-0.3,0.1-0.4,0.4-0.5,0.7c0.1,0.7,0,1.4,0,2.1c-0.2-0.3-0.2-0.7-0.3-1.1c-0.2-0.4-0.2-0.9-0.7-1.1c-0.3,0.4,0,1,0,1.5
		c0.1,0.3,0.4,0.5,0.2,0.9l-0.7-0.9c-0.2-0.2-0.5-0.6-0.8-0.6c-0.1,0.6,0.3,1,0.5,1.5c0.1,0.2,0.3,0.4,0.3,0.7c-0.7-0.5-1.3-1-2-1.2
		c-0.1,0.6,0.6,1,0.9,1.5l-0.1,0.1c-0.4-0.2-0.8-0.4-1.1-0.6c-0.2,0-0.5-0.3-0.7-0.1c0,0.5,0.3,0.8,0.6,1.1c-0.4,0-0.8-0.2-1.2,0
		c0.1,0.3,0.5,0.5,0.6,0.9c-0.4,0.2-0.8,0.1-1.2,0.2c0.1,0.3,0.4,0.5,0.5,0.7l-0.1,0.1h-0.1c-0.2,0-0.4,0.2-0.7,0.3
		c0,0.3,0.5,0.5,0.6,0.9c-0.3,0.2-0.6,0.4-0.8,0.7c0.2,0.3,0.5,0.4,0.7,0.7c-0.2,0.3-0.6,0.4-0.6,0.8c0.2,0.2,0.5,0.2,0.8,0.4
		c-0.1,0.2-0.4,0.4-0.3,0.7c0.1,0,0.2,0.1,0.3,0.1c0.3,0.1,0.6,0.1,0.8,0.1c-0.1,0.2-0.2,0.5-0.2,0.7c0.2,0.3,0.7,0.2,1,0.2
		c0,0.2-0.2,0.5-0.2,0.7c0.3,0.2,0.6,0,0.9,0c0.2,0,0.2,0.2,0.2,0.3c0.1,0.4,0.5,0.1,0.7,0.2L16,26c0.2,0,0.3,0,0.4-0.1
		c0.2-0.1,0.3,0.1,0.4,0.3c0.2,0.3,0.4,0,0.6,0c0.1,0.1,0.2,0.2,0.3,0.3c0.2,0.1,0.3-0.1,0.5-0.3c0.3-0.1,0.4,0.3,0.6,0.3
		c0.3-0.2,0.6-0.3,0.9-0.2c0.4-0.3,0.3-0.8,0.4-1.3c0-0.1,0.1-0.2,0.2-0.2c0.2,0.6,0.6,1.4,0.1,2c-0.3,0.2-0.6,0.6-0.9,0.8
		c-0.4,0.3-0.8,0.6-1.3,0.4c-0.4,0.4-1.2-0.1-1.5,0.5c-0.1,0.2,0,0.4,0.1,0.5c0.3,0.2,0.7,0.1,0.9,0.1c0.2,0.1,0.3,0.2,0.5,0.1
		c0.2-0.3,0.4,0,0.6,0s0.4-0.3,0.6-0.1c-0.2,0.3-0.4,0.6-0.5,1c0,0.3,0.4,0.2,0.3,0.5c0.1,0.2,0.3,0.1,0.4,0.3
		c0,0.4,0.4,0.3,0.7,0.4c0.1,0.6,0.8-0.1,0.9,0.5c0.2,0,0.3-0.1,0.4-0.1c0.2,0,0.3,0.2,0.4,0.3c0.3,0.2,0.4-0.2,0.6-0.3l0.5,0.2
		l0.3-0.4c0.4,0.3,0.5-0.3,0.9-0.2c0.3,0,0.2-0.3,0.3-0.4c0.4,0.1,0.4-0.5,0.8-0.5c0-0.5-0.4-0.8-0.5-1.2c0.2-0.1,0.3,0,0.4,0.1
		c0.3,0.1,0.4-0.1,0.6-0.2c0.4,0.6,0.7-0.2,1.2-0.1c0.2-0.1,0.4-0.3,0.4-0.5c-0.1-0.1-0.1-0.3-0.3-0.3c-0.7,0.1-1.2-0.4-1.9-0.3
		L25,28l-0.8-0.8c-0.6-0.4-0.4-1.2-0.2-1.7c0-0.1,0.1-0.2,0.2-0.2c0.3,0.4,0.1,1,0.6,1.3c0.1,0.1,0.3,0.1,0.4,0
		c0.2-0.2,0.4,0,0.5,0.2c0.1,0,0.2-0.1,0.3-0.2c0.2-0.2,0.4,0.1,0.6,0.1c0.1-0.1,0.2-0.2,0.3-0.3c0.2-0.1,0.3,0.1,0.4,0.1
		c0.3,0.1,0.3-0.3,0.5-0.5c0.2,0,0.4,0.1,0.6,0.1l0.2-0.4c0.2-0.3,0.5,0,0.8,0l0.4-0.5h0.6c0.2-0.2,0.1-0.4,0.1-0.7
		c0.3-0.2,0.7-0.1,1.1-0.2C31.5,24.1,31.4,23.9,31.3,23.6z M18.7,16.5c0,0.4,0.1,0.9-0.1,1.2C18.6,17.3,18,16.8,18.7,16.5z
		 M18.1,17.2c0.2,0.2,0.1,0.6,0.2,0.9C18.2,17.8,17.9,17.5,18.1,17.2z M17.7,19.9c-0.1-0.1-0.1-0.2-0.1-0.3c0.1-0.1,0.3,0.2,0.4,0.1
		c0-0.3-0.4-0.4-0.5-0.6c0.2-0.1,0.4,0.3,0.5,0c0,0,0,0,0-0.1c-0.1-0.2-0.5-0.3-0.4-0.6l0.3,0.1c0-0.2-0.2-0.4-0.1-0.6
		c0.2,0.1,0.3,0.4,0.5,0.6c0,0.2-0.1,0.3-0.1,0.5c-0.1,0.4-0.1,0.8,0,1.2C18,20.1,17.8,20,17.7,19.9z M19.6,22.9
		c-0.1,0-0.2-0.1-0.2-0.2c-0.1-0.1,0.1-0.2,0-0.2c-0.2,0.1-0.3,0.3-0.5,0.2c-0.1-0.2,0.1-0.4,0.2-0.5c-0.2,0-0.4,0.3-0.7,0.2
		c-0.1-0.2,0.1-0.4,0.3-0.5c-0.2-0.1-0.4,0.1-0.6,0c0-0.2,0.4-0.3,0.5-0.4c-0.2-0.1-0.4-0.2-0.4-0.5c0.3-0.1,0.4,0.3,0.7,0.1
		c0-0.2-0.3-0.4-0.1-0.6c0.1,0,0.2,0.1,0.3,0.2c0.2-0.1,0-0.2,0-0.3c0.3,0.4,0,1,0.5,1.3c0.3,0.2,0.4,0.5,0.5,0.8
		C19.9,22.5,19.8,22.8,19.6,22.9z M17.8,29.2c-0.2,0-0.6,0.1-0.8-0.1c0.1-0.4,0.7-0.1,1-0.2l0.1,0.1C18.1,29.1,17.9,29.2,17.8,29.2z
		 M18.8,29.2c-0.2,0-0.3,0-0.5-0.1c0-0.1,0.1-0.2,0.2-0.3c0.1,0,0.3,0,0.5,0C19,29,18.9,29.2,18.8,29.2z M26.6,28.9
		c0.2,0,0.5-0.1,0.7,0.1c-0.1,0.5-0.7,0.2-1,0.3C26.2,29,26.5,28.9,26.6,28.9z M25.6,28.9c0.1,0,0.3,0,0.5,0.1
		c0,0.1-0.1,0.2-0.3,0.3c-0.1,0.1-0.3,0-0.4-0.1C25.4,28.9,25.5,28.9,25.6,28.9z M22,20.5c0.1,0,0.2,0,0.2,0.1s0,0.1-0.1,0.1H22
		V20.5z M21.4,20.8c-0.2,0-0.4-0.1-0.5-0.2c0.2-0.1,0.5,0.2,0.7,0c0-0.3-0.3-0.4-0.4-0.7c0.3,0,0.5,0.2,0.5,0.5
		C21.6,20.5,21.7,20.8,21.4,20.8z M20,28L20,28c0.5,0.1,1.2-1,1.2,0l0,0c-0.3,0.6-1.1,0.6-1.7,0.5C19.5,28.3,19.8,28.2,20,28z
		 M19.5,29.2c0-0.1,0.1-0.2,0.2-0.3c0.1,0,0.3,0,0.4,0C19.9,29,19.8,29.4,19.5,29.2z M19.7,29.9c0-0.4,0.5-0.6,0.8-0.9l0.6-0.4
		C20.7,29.1,20.2,29.4,19.7,29.9L19.7,29.9z M20,30.3L20,30.3c0.1-0.6,0.8-1,1.2-1.5C21,29.4,20.3,29.8,20,30.3z M20.5,30.6
		c0,0-0.1,0-0.1-0.1c0.3-0.6,0.7-1.2,1.2-1.7C21.3,29.5,20.8,30,20.5,30.6z M21.1,31c-0.1,0.1-0.2,0-0.2-0.1c0.2-0.7,0.6-1.3,0.9-2
		C21.7,29.6,21.3,30.3,21.1,31z M21.6,31L21.6,31c-0.1-0.7,0.2-1.3,0.4-1.9C22,29.7,22.3,30.6,21.6,31z M21.5,28
		c-0.1-0.2-0.2-0.5-0.3-0.7h0.2c0-0.3-0.2-0.6-0.4-0.9c-0.1-0.2,0.2-0.7-0.2-0.7l-0.1,0.1c-0.5-0.8,0.1-1.6,0.3-2.4
		c0-0.2,0.1-0.4,0-0.5c0.1-0.2-0.2-0.5,0.2-0.5c0.5,0,0.9-0.2,1.2-0.7c0.2-0.2,0-0.6,0.3-0.7c0.4,0.2,0.5,0.6,0.5,1
		c-0.1,0.5-0.2,0.9-0.1,1.4l0,0l0,0v0.1c0.1,0.6,0.2,1.1,0.4,1.6l-0.1,0.7c-0.4-0.1-0.1,0.4-0.2,0.6c-0.1,0.3-0.3,0.6-0.5,0.9
		l0.1,0.1c-0.1,0.2-0.1,0.4-0.2,0.6l0,0c-0.1,0.3-0.3,0.6-0.6,0.8C21.9,28.7,21.7,28.3,21.5,28z M22.3,29.1L22.3,29.1
		c0.3,0.6,0.4,1.3,0.4,1.9C21.9,30.7,22.4,29.7,22.3,29.1z M23.3,31c-0.2-0.7-0.6-1.2-0.7-2h0.1c0.2,0.6,0.7,1.1,0.9,1.8
		C23.5,30.9,23.4,31,23.3,31z M24,30.8c-0.3-0.7-1.1-1.2-1.2-2l1.3,1.8C24,30.6,24.1,30.7,24,30.8z M24.4,30.6
		c-0.5-0.7-1.1-1.3-1.5-2H23c0.6,0.6,1,1.1,1.5,1.7C24.5,30.4,24.5,30.5,24.4,30.6z M24.7,30c-0.5-0.4-1-0.9-1.4-1.4
		C23.8,29,24.3,29.5,24.7,30L24.7,30z M24.8,29.2c-0.3,0.1-0.5-0.2-0.7-0.3c0.2-0.1,0.6-0.1,0.8,0.1C24.9,29.1,24.9,29.2,24.8,29.2z
		 M24.2,27.7c0.1,0.1,0.2,0.2,0.3,0.3c0.2,0.1,0.3,0.3,0.4,0.5c-0.6,0-1.4,0.3-1.8-0.4V28l0.2-0.6C23.6,27.6,23.9,27.6,24.2,27.7z
		 M27.2,18.5c0,0.2-0.2,0.3-0.3,0.4c-0.1,0.1-0.2,0.2-0.3,0.2c0-0.1,0-0.2,0-0.2c0.1-0.2,0.3-0.4,0.5-0.6
		C27.2,18.3,27.2,18.4,27.2,18.5z M27.1,17.8c0,0.3-0.3,0.5-0.5,0.8l0,0C26.6,18.3,26.8,18,27.1,17.8z M26.3,16.8
		c0.2,0,0.1,0.2,0.2,0.3c-0.1,0.2-0.2,0.5-0.1,0.7c0.2-0.1,0.1-0.4,0.3-0.4c0,0.3-0.1,0.6-0.3,0.9C26.2,17.9,26.2,17.3,26.3,16.8z
		 M26.7,21.8c-0.2,0-0.4-0.1-0.6,0c0.1,0.2,0.5,0.3,0.4,0.6c-0.3,0.1-0.5-0.2-0.7-0.2c-0.1,0.2,0.3,0.3,0.2,0.5
		c-0.3,0.1-0.5-0.2-0.7-0.3c0,0.1,0,0.3,0.1,0.4c-0.2,0.1-0.4,0-0.5-0.2c-0.3-0.4,0.2-0.7,0.4-1c0.4-0.4,0.4-0.9,0.6-1.3
		c0.1,0.1-0.1,0.2,0,0.3c0.2,0,0.2-0.2,0.3-0.2c0.1,0.3-0.5,0.4-0.2,0.6c0.2-0.1,0.3-0.2,0.5-0.1c0,0.2-0.3,0.2-0.4,0.4
		c0.2,0,0.5,0.1,0.6,0.3C26.9,21.8,26.8,21.9,26.7,21.8z M26.7,19.9c-0.1-0.2,0.2-0.3,0.3-0.3c0,0,0.1,0,0.1,0.1
		C27.1,19.9,26.8,19.8,26.7,19.9z M27.3,19.2c-0.1,0.2-0.4,0.2-0.6,0.3c0.1-0.2,0.4-0.4,0.6-0.5C27.4,19.1,27.3,19.1,27.3,19.2z"/>
	<rect y="22.1" class="st1" width="2.4" height="0.6"/>
	
		<rect x="0.9" y="20.2" transform="matrix(3.931782e-02 -0.9992 0.9992 3.931782e-02 -20.189 21.7674)" class="st1" width="0.6" height="2.4"/>
	
		<rect x="1.1" y="19.3" transform="matrix(7.951031e-02 -0.9968 0.9968 7.951031e-02 -19.1995 20.2226)" class="st1" width="0.6" height="2.4"/>
	<polygon class="st1" points="2.7,19.4 0.3,19.1 0.2,19.7 2.6,20 	"/>
	<rect x="1.3" y="17.4" transform="matrix(0.1588 -0.9873 0.9873 0.1588 -16.9655 17.2338)" class="st1" width="0.6" height="2.4"/>
	<polygon class="st1" points="3,17.6 0.6,17.1 0.5,17.7 2.9,18.1 	"/>
	<rect x="1.7" y="15.5" transform="matrix(0.2366 -0.9716 0.9716 0.2366 -14.6683 14.687)" class="st1" width="0.6" height="2.4"/>
	<rect x="1.9" y="14.5" transform="matrix(0.2756 -0.9613 0.9613 0.2756 -13.4789 13.5231)" class="st1" width="0.6" height="2.4"/>
	<rect x="42.2" y="22.1" class="st1" width="2.4" height="0.6"/>
	
		<rect x="42.2" y="21.1" transform="matrix(0.9992 -3.974964e-02 3.974964e-02 0.9992 -0.8163 1.742)" class="st1" width="2.4" height="0.6"/>
	
		<rect x="42.1" y="20.2" transform="matrix(0.9969 -7.927938e-02 7.927938e-02 0.9969 -1.4892 3.4977)" class="st1" width="2.4" height="0.6"/>
	<polygon class="st1" points="42.1,20 44.4,19.7 44.4,19.1 42,19.4 	"/>
	<polygon class="st1" points="41.9,19.1 44.3,18.7 44.2,18.1 41.8,18.5 	"/>
	<polygon class="st1" points="41.8,18.1 44.1,17.7 44,17.1 41.7,17.6 	"/>
	<rect x="41.5" y="16.4" transform="matrix(0.9714 -0.2374 0.2374 0.9714 -2.742 10.615)" class="st1" width="2.4" height="0.6"/>
	<polygon class="st1" points="41.3,16.4 43.6,15.7 43.5,15.1 41.1,15.8 	"/>
	<rect x="53.7" y="16.3" class="st1" width="160.8" height="1.7"/>
	<path class="st1" d="M58.1,11.4c0.8,0,1.7-0.2,2.5-0.4V6.9h-3.1v1.2h1.6v2c-0.3,0.1-0.6,0.1-1,0.1c-1.6,0-2.6-1.2-2.6-2.7
		c0-1.6,1-2.8,2.8-2.8c0.6,0,1.4,0.1,2,0.4l0.1-1.3c-0.7-0.2-1.4-0.3-2.3-0.3c-2.6,0-4.2,1.5-4.2,4.1C53.9,10.2,55.6,11.4,58.1,11.4
		z"/>
	<path class="st1" d="M64.7,11.4c1.9,0,3-1.3,3-2.9c0-1.9-1.3-3-3-3c-1.7,0-3,1.1-3,3C61.7,10.1,62.8,11.4,64.7,11.4z M64.7,6.6
		c1,0,1.4,0.8,1.4,1.7s-0.3,2-1.4,2s-1.4-1-1.4-2C63.2,7.5,63.7,6.6,64.7,6.6z"/>
	<polygon class="st1" points="71.9,11.3 74,5.6 72.5,5.6 71.2,9.8 71.1,9.8 69.7,5.6 68.1,5.6 70.2,11.3 	"/>
	<path class="st1" d="M77.5,11.4c0.8,0,1.4-0.2,2-0.5V9.8c-0.6,0.3-1.2,0.6-1.9,0.6C76.7,10.4,76,9.9,76,9h3.9c0-2-0.6-3.4-2.7-3.4
		c-1.8,0-2.6,1.4-2.6,3C74.5,10.4,75.6,11.4,77.5,11.4z M77.2,6.6c0.8,0,1.2,0.6,1.2,1.3h-2.5C76,7.2,76.4,6.6,77.2,6.6z"/>
	<path class="st1" d="M82.5,9.2c0-0.8,0-2.3,1.2-2.3c0.3,0,0.5,0,0.7,0.1V5.5c-0.2,0-0.3,0-0.5,0c-0.9,0-1.5,0.9-1.6,1.4l0,0V5.6H81
		v5.7h1.5V9.2z"/>
	<path class="st1" d="M86.9,8.5c0-0.7,0.2-1.9,1.3-1.9c0.9,0,1,0.9,1,1.6v3h1.5V7.7c0-1.3-0.6-2.2-1.9-2.2c-0.8,0-1.4,0.3-1.9,0.9
		l0,0V5.6h-1.4v5.7H87L86.9,8.5L86.9,8.5z"/>
	<path class="st1" d="M93.6,8.6c0-0.7,0.1-1.9,1.1-1.9c0.8,0,0.8,0.8,0.8,1.3v3.4H97V8.6c0-0.7,0.1-1.9,1.1-1.9
		C99,6.6,99,7.4,99,7.9v3.4h1.5V7.7c0-1.3-0.4-2.2-1.8-2.2c-0.7,0-1.4,0.3-1.8,1c-0.3-0.7-0.9-1-1.7-1c-0.6,0-1.2,0.2-1.7,0.9l0,0
		V5.6h-1.4v5.7h1.5V8.6z"/>
	<path class="st1" d="M104.5,11.4c0.8,0,1.4-0.2,2-0.5V9.8c-0.6,0.3-1.2,0.6-1.9,0.6c-0.9,0-1.6-0.5-1.6-1.4h3.9
		c0-2-0.6-3.4-2.7-3.4c-1.8,0-2.6,1.4-2.6,3C101.5,10.4,102.6,11.4,104.5,11.4z M104.3,6.6c0.8,0,1.2,0.6,1.2,1.3H103
		C103,7.2,103.4,6.6,104.3,6.6z"/>
	<path class="st1" d="M109.5,8.5c0-0.7,0.2-1.9,1.3-1.9c0.9,0,1,0.9,1,1.6v3h1.5V7.7c0-1.3-0.6-2.2-1.9-2.2c-0.8,0-1.4,0.3-1.9,0.9
		l0,0V5.6H108v5.7h1.5V8.5z"/>
	<path class="st1" d="M115.2,9.6c0,1.1,0.6,1.8,1.8,1.8c0.4,0,0.8,0,1.1-0.1v-1.2c-0.2,0.1-0.4,0.2-0.7,0.2c-0.6,0-0.7-0.5-0.7-0.9
		V6.7h1.3V5.6h-1.3V4l-1.5,0.5v1.1h-1.1v1.1h1.1C115.2,6.7,115.2,9.6,115.2,9.6z"/>
	<path class="st1" d="M124.6,11.4c1.9,0,3-1.3,3-2.9c0-1.9-1.3-3-3-3s-3,1.1-3,3C121.6,10.1,122.7,11.4,124.6,11.4z M124.6,6.6
		c1,0,1.4,0.8,1.4,1.7s-0.3,2-1.4,2s-1.4-1-1.4-2C123.2,7.5,123.6,6.6,124.6,6.6z"/>
	<path class="st1" d="M129.2,11.3h1.5V6.7h1.3V5.6h-1.3V4.9c0-0.4,0.2-0.9,0.7-0.9c0.3,0,0.5,0.1,0.6,0.2l0.1-1.2
		c-0.3-0.1-0.7-0.1-1.1-0.1c-1.2,0-1.8,0.8-1.8,1.9v0.8h-1.1v1.1h1.1V11.3z"/>
	<path class="st1" d="M139.2,9.2c0,0.7-0.8,1-1.4,1c-0.6,0-1.2-0.2-1.7-0.5l-0.1,1.4c0.8,0.2,1.1,0.3,2,0.3c1.6,0,2.9-0.6,2.9-2.3
		c0-2.6-3.4-2-3.4-3.4c0-0.8,0.7-1.1,1.2-1.1s1.1,0.1,1.6,0.3l0.1-1.3c-0.6-0.2-1.2-0.3-1.8-0.3c-1.4,0-2.7,0.6-2.7,2.4
		C135.9,8.4,139.2,7.8,139.2,9.2z"/>
	<path class="st1" d="M144.7,11.4c1.9,0,3-1.3,3-2.9c0-1.9-1.3-3-3-3s-3,1.1-3,3C141.7,10.1,142.8,11.4,144.7,11.4z M144.7,6.6
		c1,0,1.4,0.8,1.4,1.7s-0.3,2-1.4,2c-1.1,0-1.4-1-1.4-2C143.3,7.5,143.7,6.6,144.7,6.6z"/>
	<path class="st1" d="M150.7,11.4c0.8,0,1.4-0.4,1.9-0.9l0,0v0.8h1.4V5.6h-1.5v2.8c0,0.7-0.2,1.9-1.3,1.9c-0.9,0-1-0.9-1-1.6v-3
		h-1.5v3.6C148.8,10.5,149.4,11.4,150.7,11.4z"/>
	<path class="st1" d="M156,9.6c0,1.1,0.6,1.8,1.8,1.8c0.4,0,0.8,0,1.1-0.1v-1.2c-0.2,0.1-0.4,0.2-0.7,0.2c-0.6,0-0.7-0.5-0.7-0.9
		V6.7h1.3V5.6h-1.3V4L156,4.5v1.1h-1.1v1.1h1.1V9.6z"/>
	<path class="st1" d="M161.2,8.5c0-0.7,0.2-1.9,1.3-1.9c0.9,0,1,0.9,1,1.6v3h1.5V7.7c0-1.3-0.6-2.2-1.9-2.2c-0.8,0-1.4,0.4-1.8,0.9
		l0,0V3h-1.5v8.3h1.5V8.5H161.2z"/>
	<path class="st1" d="M171.1,9.6h3.1l0.7,1.8h1.7l-3-7.7h-1.7l-3,7.7h1.6L171.1,9.6z M172.7,5.2L172.7,5.2l1.1,3.2h-2.3L172.7,5.2z"
		/>
	<path class="st1" d="M179.3,11.4c0.8,0,1.4-0.4,1.9-0.9l0,0v0.8h1.4V5.6h-1.5v2.8c0,0.7-0.2,1.9-1.3,1.9c-0.9,0-1-0.9-1-1.6v-3
		h-1.5v3.6C177.4,10.5,178,11.4,179.3,11.4z"/>
	<path class="st1" d="M186.3,9.7c0,0.6-0.6,0.7-1,0.7c-0.5,0-1-0.1-1.5-0.4l-0.1,1.2c0.5,0.1,1.1,0.2,1.7,0.2c1.2,0,2.4-0.5,2.4-1.9
		c0-2.1-2.6-1.5-2.6-2.4c0-0.5,0.5-0.6,0.9-0.6c0.5,0,0.9,0.1,1.3,0.2l0.1-1.1c-0.5-0.1-0.9-0.2-1.6-0.2c-1.2,0-2.2,0.5-2.2,1.8
		C183.8,9.3,186.3,8.6,186.3,9.7z"/>
	<path class="st1" d="M189.5,9.6c0,1.1,0.6,1.8,1.8,1.8c0.4,0,0.8,0,1.1-0.1v-1.2c-0.2,0.1-0.4,0.2-0.7,0.2c-0.6,0-0.7-0.5-0.7-0.9
		V6.7h1.3V5.6H191V4l-1.5,0.5v1.1h-1.1v1.1h1.1L189.5,9.6L189.5,9.6z"/>
	<path class="st1" d="M194.7,9.2c0-0.8,0-2.3,1.2-2.3c0.3,0,0.5,0,0.7,0.1V5.5c-0.2,0-0.3,0-0.5,0c-0.9,0-1.5,0.9-1.6,1.4l0,0V5.6
		h-1.3v5.7h1.5L194.7,9.2L194.7,9.2z"/>
	<path class="st1" d="M199.1,11.4c0.7,0,1.4-0.4,1.8-1l0,0c0,0.2,0,0.6,0.1,0.8h1.3c0-0.4-0.1-0.8-0.1-1.3c0-0.4,0-0.8,0-1.4V7.9
		c0-1.7-0.7-2.4-2.4-2.4c-0.6,0-1.4,0.2-2,0.4v1.3c0.5-0.4,1.1-0.6,1.8-0.6c0.9,0,1.3,0.3,1.3,1.2H200c-0.6,0-1.3,0.1-1.9,0.3
		c-0.6,0.2-1,0.8-1,1.6C197.1,10.8,198.1,11.4,199.1,11.4z M200.2,8.7h0.6c0,0.4-0.1,0.8-0.3,1.2c-0.2,0.3-0.6,0.5-1,0.5
		c-0.5,0-0.9-0.2-0.9-0.7C198.5,8.8,199.5,8.7,200.2,8.7z"/>
	<rect x="203.6" y="3" class="st1" width="1.5" height="8.3"/>
	<rect x="206.7" y="3.2" class="st1" width="1.5" height="1.4"/>
	<rect x="206.7" y="5.6" class="st1" width="1.5" height="5.7"/>
	<path class="st1" d="M211.3,11.4c0.7,0,1.4-0.4,1.8-1l0,0c0,0.2,0,0.6,0.1,0.8h1.3c0-0.4-0.1-0.8-0.1-1.3c0-0.4,0-0.8,0-1.4V7.9
		c0-1.7-0.7-2.4-2.4-2.4c-0.6,0-1.4,0.2-2,0.4v1.3c0.5-0.4,1.1-0.6,1.8-0.6c0.9,0,1.3,0.3,1.3,1.2h-0.8c-0.6,0-1.3,0.1-1.9,0.3
		c-0.6,0.2-1,0.8-1,1.6C209.3,10.8,210.3,11.4,211.3,11.4z M212.3,8.7h0.6c0,0.4-0.1,0.8-0.3,1.2c-0.2,0.3-0.6,0.5-1,0.5
		c-0.5,0-0.9-0.2-0.9-0.7C210.7,8.8,211.7,8.7,212.3,8.7z"/>
	<path class="st1" d="M60.2,25.4c0-2.3-1.1-4-4-4h-2v8h1.4C58.3,29.4,60.2,28.3,60.2,25.4z M55.7,28.7h-0.6v-6.6h1.2
		c1.8,0,3.2,0.8,3.2,3.2C59.4,27.8,58,28.7,55.7,28.7z"/>
	<path class="st1" d="M65.8,28.5c-0.3,0.2-1.1,0.4-1.6,0.4c-1.3,0-1.9-1-1.9-2.2h4v-0.4c0-1.6-0.7-2.9-2.3-2.9c-1.5,0-2.5,1.3-2.5,3
		s0.7,3,2.6,3c0.5,0,1.2-0.1,1.7-0.3C65.8,29.1,65.8,28.5,65.8,28.5z M63.9,24.1c1.1,0,1.5,1,1.5,2h-3.2
		C62.2,25.1,62.9,24.1,63.9,24.1z"/>
	<path class="st1" d="M67.5,23.6v8.2h0.7v-3.4l0,0c0.4,0.8,0.9,1.1,1.8,1.1c1.6,0,2.4-1.3,2.4-3c0-1.8-0.7-3-2.4-3
		c-1.2,0-1.7,0.9-1.9,1.2l0,0v-1.1H67.5z M69.9,24.1c1.4,0,1.7,1.3,1.7,2.4s-0.4,2.4-1.7,2.4c-1.3,0-1.7-1.4-1.7-2.4
		C68.2,25.4,68.7,24.1,69.9,24.1z"/>
	<path class="st1" d="M77,25.8c-1.5,0-3.6,0.1-3.6,2c0,0.5,0.3,1.6,1.9,1.6c0.7,0,1.5-0.4,1.8-1.1l0,0v0.9H78
		c-0.1-0.4-0.1-0.8-0.1-1.2v-2.6c0-1.5-0.6-2.2-2-2.2c-0.5,0-1.3,0.2-1.7,0.4v0.7c0.5-0.3,1.1-0.5,1.7-0.5c1,0,1.3,0.5,1.3,1.5v0.3
		H77V25.8z M77.2,26.8c0,0.6,0,2.1-1.7,2.1c-0.7,0-1.2-0.3-1.2-1c0-1.3,1.5-1.4,2.7-1.4h0.2V26.8z"/>
	<path class="st1" d="M80.3,29.4v-2.9c0-1,0.3-2.3,1.4-2.3c0.2,0,0.4,0,0.5,0.1v-0.8c-0.1,0-0.3-0.1-0.5-0.1c-0.7,0-1.2,0.6-1.5,1.3
		l0,0v-1.1h-0.7c0,0.4,0,0.7,0,1.3v4.5H80.3z"/>
	<path class="st1" d="M85.4,28.9c-0.6,0-0.8-0.4-0.8-1v-3.8h1.3v-0.6h-1.3v-1.7l-0.7,0.3v1.4h-1.1v0.6h1.1v3.4c0,1.1,0,1.9,1.3,1.9
		c0.4,0,0.7-0.1,0.9-0.2v-0.6C85.8,28.9,85.6,28.9,85.4,28.9z"/>
	<path class="st1" d="M94.2,25.5v3.9h0.7v-4c0-1.1-0.7-1.9-1.8-1.9c-0.9,0-1.6,0.5-1.9,1.2l0,0c-0.2-1-1-1.2-1.5-1.2
		c-1.2,0-1.6,0.7-1.8,1.1l0,0v-1h-0.7c0,0.5,0,0.9,0,1.4v4.4h0.7v-3.2c0-1.4,0.8-2.1,1.6-2.1c0.9,0,1.2,0.6,1.2,1.5v3.9h0.7v-3.2
		c0-1.4,0.8-2.1,1.6-2.1C93.9,24.1,94.2,24.7,94.2,25.5z"/>
	<path class="st1" d="M100.6,29.2v-0.7c-0.3,0.2-1.1,0.4-1.6,0.4c-1.3,0-1.9-1-1.9-2.2h4v-0.4c0-1.6-0.7-2.9-2.3-2.9
		c-1.5,0-2.5,1.3-2.5,3s0.7,3,2.6,3C99.4,29.5,100.1,29.4,100.6,29.2z M98.8,24.1c1.1,0,1.5,1,1.5,2H97C97,25.1,97.7,24.1,98.8,24.1
		z"/>
	<path class="st1" d="M104.9,23.4c-1.2,0-1.6,0.7-1.9,1.2l0,0v-1h-0.7c0,0.5,0,0.9,0,1.4v4.4h0.7v-3.2c0-1,0.4-2.1,1.7-2.1
		c1,0,1.4,0.7,1.4,1.8v3.5h0.7v-3.7C106.9,24.4,106.4,23.4,104.9,23.4z"/>
	<path class="st1" d="M109.2,22.2v1.4h-1.1v0.6h1.1v3.4c0,1.1,0,1.9,1.3,1.9c0.4,0,0.7-0.1,0.9-0.2v-0.6c-0.2,0.1-0.4,0.1-0.7,0.1
		c-0.6,0-0.8-0.4-0.8-1V24h1.3v-0.6h-1.3v-1.7L109.2,22.2z"/>
	<path class="st1" d="M118,23.4c-1.9,0-2.7,1.5-2.7,3c0,1.6,0.8,3,2.7,3c1.9,0,2.7-1.5,2.7-3S119.8,23.4,118,23.4z M118,28.9
		c-1.3,0-1.9-1.1-1.9-2.4s0.7-2.4,1.9-2.4s1.9,1.1,1.9,2.4S119.2,28.9,118,28.9z"/>
	<path class="st1" d="M122.5,23.2v0.4h-1.2v0.6h1.2v5.2h0.7v-5.2h1.3v-0.6h-1.3v-0.5c0-0.7-0.1-1.8,0.9-1.8c0.2,0,0.4,0,0.6,0.1
		v-0.6c-0.1-0.1-0.4-0.1-0.7-0.1C122.6,20.7,122.5,21.9,122.5,23.2z"/>
	<polygon class="st1" points="133,22.1 133,21.4 129.1,21.4 129.1,29.4 133.1,29.4 133.1,28.7 129.9,28.7 129.9,25.6 132.8,25.6 
		132.8,25 129.9,25 129.9,22.1 	"/>
	<path class="st1" d="M135.4,29.4v-3.2c0-1,0.4-2.1,1.7-2.1c1,0,1.4,0.7,1.4,1.8v3.5h0.7v-3.7c0-1.3-0.5-2.2-2-2.2
		c-1.2,0-1.6,0.7-1.9,1.2l0,0v-1h-0.7c0,0.5,0,0.9,0,1.4v4.4L135.4,29.4L135.4,29.4z"/>
	<polygon class="st1" points="142.7,28.6 142.6,28.6 141,23.6 140.2,23.6 142.2,29.4 143.1,29.4 145.1,23.6 144.3,23.6 	"/>
	<rect x="146.1" y="23.6" class="st1" width="0.7" height="5.8"/>
	<rect x="146.1" y="21.1" class="st1" width="0.7" height="1"/>
	<path class="st1" d="M148.6,23.6c0,0.4,0,0.7,0,1.3v4.5h0.7v-2.9c0-1,0.3-2.3,1.4-2.3c0.2,0,0.4,0,0.5,0.1v-0.8
		c-0.1,0-0.3-0.1-0.5-0.1c-0.7,0-1.2,0.6-1.5,1.3l0,0v-1.1H148.6z"/>
	<path class="st1" d="M154.7,29.5c1.9,0,2.7-1.5,2.7-3c0-1.6-0.8-3-2.7-3s-2.7,1.5-2.7,3C152,28.1,152.8,29.5,154.7,29.5z
		 M154.7,24.1c1.3,0,1.9,1.1,1.9,2.4s-0.7,2.4-1.9,2.4c-1.3,0-1.9-1.1-1.9-2.4C152.8,25.1,153.4,24.1,154.7,24.1z"/>
	<path class="st1" d="M163.3,29.4v-3.7c0-1.3-0.5-2.2-2-2.2c-1.2,0-1.6,0.7-1.9,1.2l0,0v-1h-0.7c0,0.5,0,0.9,0,1.4v4.4h0.7v-3.2
		c0-1,0.4-2.1,1.7-2.1c1,0,1.4,0.7,1.4,1.8v3.5L163.3,29.4L163.3,29.4z"/>
	<path class="st1" d="M170.9,24.1c0.9,0,1.2,0.6,1.2,1.5v3.9h0.7v-4c0-1.1-0.7-1.9-1.8-1.9c-0.9,0-1.6,0.5-1.9,1.2l0,0
		c-0.2-1-1-1.2-1.5-1.2c-1.2,0-1.6,0.7-1.8,1.1l0,0v-1H165c0,0.5,0,0.9,0,1.4v4.4h0.7v-3.2c0-1.4,0.8-2.1,1.6-2.1
		c0.9,0,1.2,0.6,1.2,1.5v3.9h0.7v-3.2C169.3,24.7,170.1,24.1,170.9,24.1z"/>
	<path class="st1" d="M176.6,23.4c-1.5,0-2.5,1.3-2.5,3s0.7,3,2.6,3c0.5,0,1.2-0.1,1.7-0.3v-0.7c-0.3,0.2-1.1,0.4-1.6,0.4
		c-1.3,0-1.9-1-1.9-2.2h4v-0.4C178.9,24.8,178.2,23.4,176.6,23.4z M174.9,26.1c0-1,0.6-2,1.7-2c1.1,0,1.5,1,1.5,2H174.9z"/>
	<path class="st1" d="M184.8,29.4v-3.7c0-1.3-0.5-2.2-2-2.2c-1.2,0-1.6,0.7-1.9,1.2l0,0v-1h-0.7c0,0.5,0,0.9,0,1.4v4.4h0.7v-3.2
		c0-1,0.4-2.1,1.7-2.1c1,0,1.4,0.7,1.4,1.8v3.5L184.8,29.4L184.8,29.4z"/>
	<path class="st1" d="M188.6,28.9c-0.6,0-0.8-0.4-0.8-1v-3.8h1.3v-0.6h-1.3v-1.7l-0.7,0.3v1.4H186v0.6h1.1v3.4c0,1.1,0,1.9,1.3,1.9
		c0.4,0,0.7-0.1,0.9-0.2v-0.6C189,28.9,188.9,28.9,188.6,28.9z"/>
	<polygon class="st1" points="191.8,28.4 190.8,28.4 190.1,30.9 190.9,30.9 	"/>
	<polygon class="st1" points="61.3,41.5 61.3,41.5 59.2,34.4 58.3,34.4 56.3,41.5 56.2,41.5 54.3,34.4 53.5,34.4 55.7,42.4 
		56.7,42.4 58.7,35.3 58.8,35.3 60.8,42.4 61.7,42.4 64,34.4 63.3,34.4 	"/>
	<path class="st1" d="M68.6,38.6c0-1.5-0.6-2.2-2-2.2c-0.5,0-1.3,0.2-1.7,0.4v0.7c0.5-0.3,1.1-0.5,1.7-0.5c1,0,1.3,0.5,1.3,1.5v0.3
		h-0.1c-1.5,0-3.6,0.1-3.6,2c0,0.5,0.3,1.6,1.9,1.6c0.7,0,1.5-0.4,1.8-1.1l0,0v0.9h0.7c-0.1-0.4-0.1-0.8-0.1-1.2L68.6,38.6
		L68.6,38.6z M67.9,39.8c0,0.6,0,2.1-1.7,2.1c-0.7,0-1.2-0.3-1.2-1c0-1.3,1.5-1.4,2.7-1.4h0.2V39.8z"/>
	<path class="st1" d="M72.3,41.9c-0.6,0-0.8-0.4-0.8-1v-3.8h1.3v-0.6h-1.3v-1.7l-0.7,0.3v1.4h-1.1v0.6h1.1v3.4c0,1.1,0,1.9,1.3,1.9
		c0.4,0,0.7-0.1,0.9-0.2v-0.6C72.7,41.9,72.5,41.9,72.3,41.9z"/>
	<path class="st1" d="M76.1,36.4c-1.5,0-2.5,1.3-2.5,3s0.7,3,2.6,3c0.5,0,1.2-0.1,1.7-0.3v-0.7c-0.3,0.2-1.1,0.4-1.6,0.4
		c-1.3,0-1.9-1-1.9-2.2h4v-0.4C78.4,37.8,77.8,36.4,76.1,36.4z M74.5,39.1c0-1,0.6-2,1.7-2s1.5,1,1.5,2H74.5z"/>
	<path class="st1" d="M80.5,37.7L80.5,37.7v-1.1h-0.7c0,0.4,0,0.7,0,1.3v4.5h0.7v-2.9c0-1,0.3-2.3,1.4-2.3c0.2,0,0.4,0,0.5,0.1v-0.8
		c-0.1,0-0.3-0.1-0.5-0.1C81.3,36.4,80.8,37,80.5,37.7z"/>
	<path class="st1" d="M90.8,38.6c0-1.5-0.6-2.2-2-2.2c-0.5,0-1.3,0.2-1.7,0.4v0.7c0.5-0.3,1.1-0.5,1.7-0.5c1,0,1.3,0.5,1.3,1.5v0.3
		H90c-1.5,0-3.6,0.1-3.6,2c0,0.5,0.3,1.6,1.9,1.6c0.7,0,1.5-0.4,1.8-1.1l0,0v0.9h0.7c-0.1-0.4-0.1-0.8-0.1-1.2L90.8,38.6L90.8,38.6z
		 M90,39.8c0,0.6,0,2.1-1.7,2.1c-0.7,0-1.2-0.3-1.2-1c0-1.3,1.5-1.4,2.7-1.4H90V39.8z"/>
	<path class="st1" d="M95,36.4c-1.2,0-1.6,0.7-1.9,1.2l0,0v-1h-0.7c0,0.5,0,0.9,0,1.4v4.4h0.7v-3.2c0-1,0.4-2.1,1.7-2.1
		c1,0,1.4,0.7,1.4,1.8v3.5H97v-3.7C97,37.4,96.5,36.4,95,36.4z"/>
	<path class="st1" d="M102.7,37.6L102.7,37.6c-0.1-0.3-0.7-1.1-1.8-1.1c-1.7,0-2.4,1.3-2.4,3s0.8,3,2.4,3c0.8,0,1.4-0.3,1.8-1.1l0,0
		v0.9h0.7v-8.5h-0.7V37.6z M101,41.9c-1.4,0-1.7-1.3-1.7-2.4c0-1.1,0.4-2.4,1.7-2.4c1.3,0,1.7,1.4,1.7,2.4S102.2,41.9,101,41.9z"/>
	<polygon class="st1" points="113.4,41.4 113.3,41.4 109.3,34.4 108.3,34.4 108.3,42.4 109.1,42.4 109.1,35.5 109.1,35.5 
		113.1,42.4 114.1,42.4 114.1,34.4 113.4,34.4 	"/>
	<path class="st1" d="M119.9,38.6c0-1.5-0.6-2.2-2-2.2c-0.5,0-1.3,0.2-1.7,0.4v0.7c0.5-0.3,1.1-0.5,1.7-0.5c1,0,1.3,0.5,1.3,1.5v0.3
		h-0.1c-1.5,0-3.6,0.1-3.6,2c0,0.5,0.3,1.6,1.9,1.6c0.7,0,1.5-0.4,1.8-1.1l0,0v0.9h0.7c-0.1-0.4-0.1-0.8-0.1-1.2L119.9,38.6
		L119.9,38.6z M119.2,39.8c0,0.6,0,2.1-1.7,2.1c-0.7,0-1.2-0.3-1.2-1c0-1.3,1.5-1.4,2.7-1.4h0.2V39.8z"/>
	<path class="st1" d="M123.6,41.9c-0.6,0-0.8-0.4-0.8-1v-3.8h1.3v-0.6h-1.3v-1.7l-0.7,0.3v1.4H121v0.6h1.1v3.4c0,1.1,0,1.9,1.3,1.9
		c0.4,0,0.7-0.1,0.9-0.2v-0.6C124,41.9,123.9,41.9,123.6,41.9z"/>
	<path class="st1" d="M130,36.6h-0.7v3.2c0,1-0.4,2.1-1.7,2.1c-1,0-1.4-0.7-1.4-1.8v-3.5h-0.7v3.7c0,1.3,0.5,2.2,2,2.2
		c1.2,0,1.6-0.6,1.9-1.2l0,0v1h0.7c0-0.5,0-0.9,0-1.4v-4.3H130z"/>
	<path class="st1" d="M132.4,37.7L132.4,37.7v-1.1h-0.7c0,0.4,0,0.7,0,1.3v4.5h0.7v-2.9c0-1,0.3-2.3,1.4-2.3c0.2,0,0.4,0,0.5,0.1
		v-0.8c-0.1,0-0.3-0.1-0.5-0.1C133.2,36.4,132.7,37,132.4,37.7z"/>
	<path class="st1" d="M139.5,38.6c0-1.5-0.6-2.2-2-2.2c-0.5,0-1.3,0.2-1.7,0.4v0.7c0.5-0.3,1.1-0.5,1.7-0.5c1,0,1.3,0.5,1.3,1.5v0.3
		h-0.1c-1.5,0-3.6,0.1-3.6,2c0,0.5,0.3,1.6,1.9,1.6c0.7,0,1.5-0.4,1.8-1.1l0,0v0.9h0.7c-0.1-0.4-0.1-0.8-0.1-1.2v-2.4H139.5z
		 M138.8,39.8c0,0.6,0,2.1-1.7,2.1c-0.7,0-1.2-0.3-1.2-1c0-1.3,1.5-1.4,2.7-1.4h0.2V39.8z"/>
	<rect x="141.2" y="33.8" class="st1" width="0.7" height="8.5"/>
	<path class="st1" d="M149.7,38.4L149.7,38.4c1-0.1,1.8-0.8,1.8-1.9c0-1.5-0.9-2.1-2.3-2.1h-2.1v8h0.8v-3.8h0.7c0.8,0,1.1,0,1.5,1.1
		l1.2,2.7h0.9l-1.4-3.1C150.4,38.8,150.3,38.4,149.7,38.4z M148.7,38h-0.8v-2.8h0.8c1.1,0,2,0.1,2,1.4C150.7,37.6,149.6,38,148.7,38
		z"/>
	<path class="st1" d="M155.3,36.4c-1.5,0-2.5,1.3-2.5,3s0.7,3,2.6,3c0.5,0,1.2-0.1,1.7-0.3v-0.7c-0.3,0.2-1.1,0.4-1.6,0.4
		c-1.3,0-1.9-1-1.9-2.2h4v-0.4C157.6,37.8,156.9,36.4,155.3,36.4z M153.6,39.1c0-1,0.6-2,1.7-2c1.1,0,1.5,1,1.5,2H153.6z"/>
	<path class="st1" d="M159.3,38c0-0.7,0.5-1,1.3-1c0.4,0,0.9,0.1,1.3,0.3l0.1-0.6c-0.5-0.2-1.1-0.3-1.4-0.3c-1,0-1.9,0.4-1.9,1.6
		c0,1.7,2.8,1.5,2.8,2.8c0,0.7-0.6,1-1.3,1c-0.6,0-1.1-0.1-1.5-0.4l-0.1,0.7c0.5,0.2,1.1,0.3,1.6,0.3c0.9,0,2-0.4,2-1.7
		C162.1,39,159.3,39.1,159.3,38z"/>
	<path class="st1" d="M165.7,36.4c-1.9,0-2.7,1.5-2.7,3c0,1.6,0.8,3,2.7,3s2.7-1.5,2.7-3S167.6,36.4,165.7,36.4z M165.7,41.9
		c-1.3,0-1.9-1.1-1.9-2.4c0-1.3,0.7-2.4,1.9-2.4s1.9,1.1,1.9,2.4C167.6,40.8,166.9,41.9,165.7,41.9z"/>
	<path class="st1" d="M174.3,36.6h-0.7v3.2c0,1-0.4,2.1-1.7,2.1c-1,0-1.4-0.7-1.4-1.8v-3.5h-0.7v3.7c0,1.3,0.5,2.2,2,2.2
		c1.2,0,1.6-0.6,1.9-1.2l0,0v1h0.7c0-0.5,0-0.9,0-1.4v-4.3H174.3z"/>
	<path class="st1" d="M176.8,37.7L176.8,37.7v-1.1h-0.7c0,0.4,0,0.7,0,1.3v4.5h0.7v-2.9c0-1,0.3-2.3,1.4-2.3c0.2,0,0.4,0,0.5,0.1
		v-0.8c-0.1,0-0.3-0.1-0.5-0.1C177.5,36.4,177.1,37,176.8,37.7z"/>
	<path class="st1" d="M182.4,37.1c0.4,0,0.9,0.1,1.2,0.3l0.1-0.7c-0.2-0.1-0.7-0.2-1.4-0.2c-1.7,0-2.9,1.3-2.9,3c0,1.6,0.9,3,2.8,3
		c0.5,0,1,0,1.5-0.2l-0.1-0.7c-0.4,0.2-0.9,0.3-1.3,0.3c-1.3,0-2.1-1.1-2.1-2.4C180.2,38.1,181,37.1,182.4,37.1z"/>
	<path class="st1" d="M187,36.4c-1.5,0-2.5,1.3-2.5,3s0.7,3,2.6,3c0.5,0,1.2-0.1,1.7-0.3v-0.7c-0.3,0.2-1.1,0.4-1.6,0.4
		c-1.3,0-1.9-1-1.9-2.2h4v-0.4C189.3,37.8,188.6,36.4,187,36.4z M185.3,39.1c0-1,0.6-2,1.7-2c1.1,0,1.5,1,1.5,2H185.3z"/>
	<path class="st1" d="M190.9,38c0-0.7,0.5-1,1.3-1c0.4,0,0.9,0.1,1.3,0.3l0.1-0.6c-0.5-0.2-1.1-0.3-1.4-0.3c-1,0-1.9,0.4-1.9,1.6
		c0,1.7,2.8,1.5,2.8,2.8c0,0.7-0.6,1-1.3,1c-0.6,0-1.1-0.1-1.5-0.4l-0.1,0.7c0.5,0.2,1.1,0.3,1.6,0.3c0.9,0,2-0.4,2-1.7
		C193.8,39,190.9,39.1,190.9,38z"/>
</g>
</svg>
