<?xml version="1.0" encoding="utf-8"?>
<!-- Generator: Adobe Illustrator 21.0.0, SVG Export Plug-In . SVG Version: 6.00 Build 0)  -->
<svg version="1.1" id="Layer_1" xmlns="http://www.w3.org/2000/svg" xmlns:xlink="http://www.w3.org/1999/xlink" x="0px" y="0px"
	 viewBox="0 0 314 265" style="enable-background:new 0 0 314 265;" xml:space="preserve">
<style type="text/css">
	.st0{opacity:0.19;}
	.st1{fill:none;}
	.st2{fill:#FFFFFF;}
</style>
<title>icons_training</title>
<g id="Layer_22">
	<g class="st0">
		<polygon class="st1" points="135.9,229.9 136.2,230 136.1,230 		"/>
		<path class="st2" d="M173.5,148.3c0,15.1,12.2,27.3,27.3,27.3c15.1,0,27.3-12.2,27.3-27.3c0-15.1-12.2-27.3-27.3-27.3
			C185.7,121,173.5,133.2,173.5,148.3z"/>
		<path class="st2" d="M245,185.4c2.7,0,4.8-2.1,4.8-4.8l0,0v-73.2c0-6.1-5-11-11.1-11.1H71.9c-6.1,0-11.1,5-11.1,11.1v100.8
			c0,6.1,5,11.1,11.1,11.1h28.4c2.7,0,4.8-2.1,4.8-4.8s-2.1-4.8-4.8-4.8H71.9c-0.8,0-1.4-0.6-1.5-1.4c0,0,0,0,0-0.1V107.4
			c0-0.8,0.7-1.4,1.4-1.4c0,0,0,0,0,0h166.9c0.8,0,1.4,0.6,1.5,1.4c0,0,0,0,0,0.1v73.2C240.2,183.3,242.4,185.4,245,185.4z"/>
		<path class="st2" d="M90.4,131.7h58.7c2.7,0,4.8-2.1,4.8-4.8c0-2.7-2.1-4.8-4.8-4.8c0,0,0,0,0,0H90.4c-2.7,0-4.8,2.2-4.8,4.8
			C85.6,129.6,87.8,131.7,90.4,131.7z"/>
		<path class="st2" d="M154.3,147.5c0-2.7-2.1-4.8-4.8-4.8l0,0H90c-2.7,0-4.8,2.1-4.8,4.8s2.1,4.8,4.8,4.8h59.5
			C152.2,152.3,154.3,150.2,154.3,147.5z"/>
		<path class="st2" d="M90,162.6c-2.7,0-4.8,2.1-4.8,4.8s2.1,4.8,4.8,4.8h33.6c2.7,0,4.8-2.1,4.8-4.8s-2.1-4.8-4.8-4.8H90z"/>
		<path class="st2" d="M219.7,183.5h-47.2c-7.7,0-14.7,4.3-18.2,11.1l0,0L141,220.1c-0.3,0.7-1.1,1-1.8,0.7l-14.2-4.7l0,0
			c-7.9-2.6-16.4,1.7-19,9.6c-2.6,7.9,1.7,16.4,9.6,19l0,0l0,0l16.8,5.5l0,0c2.9,0.9,5.9,1.4,8.9,1.4c9.4,0,18.1-4.7,23.4-12.4V265
			h63.5v-38.5c0.1-1.8,1.7-3.2,3.5-3.1c1.7,0.1,3,1.4,3.1,3.1V265H256v-45.3l0,0C256,199.7,239.8,183.5,219.7,183.5z M135.9,229.9
			l0.3,0.1l0,0L135.9,229.9z"/>
	</g>
</g>
</svg>
