<?xml version="1.0" encoding="utf-8"?>
<!-- Generator: Adobe Illustrator 20.0.0, SVG Export Plug-In . SVG Version: 6.00 Build 0)  -->
<svg version="1.1" xmlns="http://www.w3.org/2000/svg" xmlns:xlink="http://www.w3.org/1999/xlink" x="0px" y="0px"
	 viewBox="0 0 314 265" style="enable-background:new 0 0 314 265;" xml:space="preserve">
<style type="text/css">
	.st0{opacity:0.66;}
	.st1{fill:#FFFFFF;}
	.st2{fill:#FAFCF7;}
	.st3{opacity:0.86;}
	.st4{clip-path:url(#SVGID_2_);}
	.st5{opacity:0.26;clip-path:url(#SVGID_4_);}
	.st6{clip-path:url(#SVGID_6_);fill:#FFFFFF;}
	.st7{opacity:0.24;clip-path:url(#SVGID_8_);}
	.st8{opacity:0.19;clip-path:url(#SVGID_10_);}
	.st9{opacity:0.68;clip-path:url(#SVGID_12_);}
	.st10{opacity:0.68;}
	.st11{clip-path:url(#SVGID_14_);}
	.st12{opacity:0.21;clip-path:url(#SVGID_16_);}
	.st13{clip-path:url(#SVGID_18_);fill:#FFFFFF;}
	.st14{opacity:0.18;clip-path:url(#SVGID_20_);}
	.st15{opacity:0.18;clip-path:url(#SVGID_22_);}
	.st16{fill:none;}
	.st17{fill:none;stroke:#FAFCF7;stroke-width:0;stroke-linecap:round;stroke-linejoin:round;}
	.st18{opacity:0.16;clip-path:url(#SVGID_24_);}
	.st19{opacity:0.18;clip-path:url(#SVGID_26_);}
	.st20{clip-path:url(#SVGID_26_);}
	.st21{fill:none;stroke:#000000;stroke-width:6;stroke-linecap:round;stroke-miterlimit:10;}
	.st22{opacity:0.18;clip-path:url(#SVGID_28_);}
	.st23{clip-path:url(#SVGID_28_);}
	.st24{opacity:0.16;clip-path:url(#SVGID_30_);}
	.st25{opacity:0.18;clip-path:url(#SVGID_32_);}
	.st26{opacity:0.22;clip-path:url(#SVGID_34_);}
	.st27{opacity:0.13;clip-path:url(#SVGID_34_);}
	.st28{opacity:0.12;clip-path:url(#SVGID_34_);}
	.st29{clip-path:url(#SVGID_36_);}
	.st30{clip-path:url(#SVGID_38_);}
	.st31{opacity:0.26;clip-path:url(#SVGID_40_);}
	.st32{clip-path:url(#SVGID_42_);fill:#FFFFFF;}
	.st33{clip-path:url(#SVGID_44_);}
	.st34{clip-path:url(#SVGID_46_);}
	.st35{opacity:0.21;clip-path:url(#SVGID_48_);}
	.st36{clip-path:url(#SVGID_50_);fill:#FFFFFF;}
	.st37{opacity:0.24;clip-path:url(#SVGID_52_);}
	.st38{opacity:0.19;clip-path:url(#SVGID_54_);}
</style>
<g id="Layer_1">
</g>
<g id="social">
</g>
<g id="profile">
	<defs>
		<rect id="SVGID_7_" x="551.4" y="-463.7" width="148" height="191"/>
	</defs>
	<clipPath id="SVGID_2_">
		<use xlink:href="#SVGID_7_"  style="overflow:visible;"/>
	</clipPath>
</g>
<g id="need_to_know">
	<defs>
		<rect id="SVGID_9_" x="729.2" y="-463.7" width="148" height="189.5"/>
	</defs>
	<clipPath id="SVGID_4_">
		<use xlink:href="#SVGID_9_"  style="overflow:visible;"/>
	</clipPath>
</g>
<g id="Layer_10">
</g>
<g id="events">
	<defs>
		<rect id="SVGID_11_" x="378.9" y="-463.7" width="148" height="191"/>
	</defs>
	<clipPath id="SVGID_6_">
		<use xlink:href="#SVGID_11_"  style="overflow:visible;"/>
	</clipPath>
</g>
<g id="publications">
	<defs>
		<rect id="SVGID_19_" x="17.1" y="-463.7" width="147.8" height="191"/>
	</defs>
	<clipPath id="SVGID_8_">
		<use xlink:href="#SVGID_19_"  style="overflow:visible;"/>
	</clipPath>
</g>
<g id="comm_centre">
	<defs>
		<rect id="SVGID_21_" x="-156" y="-463.7" width="148" height="191"/>
	</defs>
	<clipPath id="SVGID_10_">
		<use xlink:href="#SVGID_21_"  style="overflow:visible;"/>
	</clipPath>
</g>
<g id="news">
	<defs>
		<rect id="SVGID_23_" x="-329" y="-463.7" width="148" height="191"/>
	</defs>
	<clipPath id="SVGID_12_">
		<use xlink:href="#SVGID_23_"  style="overflow:visible;"/>
	</clipPath>
</g>
<g id="Layer_2">
</g>
<g id="vacancies">
	<defs>
		<rect id="SVGID_25_" x="-509.9" y="-463.7" width="148" height="191"/>
	</defs>
	<clipPath id="SVGID_14_">
		<use xlink:href="#SVGID_25_"  style="overflow:visible;"/>
	</clipPath>
</g>
<g id="Layer_12">
</g>
<g id="Layer_14">
</g>
<g id="vacancies_wide">
	<defs>
		<rect id="SVGID_27_" x="-368" width="313.3" height="265"/>
	</defs>
	<clipPath id="SVGID_16_">
		<use xlink:href="#SVGID_27_"  style="overflow:visible;"/>
	</clipPath>
</g>
<g id="Layer_15">
	<defs>
		<rect id="SVGID_29_" x="0.4" width="313.3" height="265"/>
	</defs>
	<clipPath id="SVGID_18_">
		<use xlink:href="#SVGID_29_"  style="overflow:visible;"/>
	</clipPath>
	<g style="opacity:0.16;clip-path:url(#SVGID_18_);">
		<path class="st1" d="M170.2,107.8c-1.7-3.6-5.7-5.1-8.8-3.3c-3.1,1.8-4.2,6.3-2.5,9.9l2.7,5.7l25.4,52.8c0.9,1.9,0.5,4.2-0.8,5.4
			l-0.8,0.8L63.1,264.9l-6.3-12.5l-2.6-5.5c-1.6-3.4-5.3-4.8-8.3-3.1c-2.9,1.7-4,5.9-2.3,9.3l15.6,32.5c1.3,2.7,3.9,4.1,6.3,3.8
			c0.7-0.1,1.3-0.3,1.9-0.7c2.9-1.7,4-5.9,2.3-9.3l-2.6-5.5l46.7-7.2c-0.3,2.3-0.4,4.7,0,7.3c1.8,11.7,11.6,20.2,21.8,18.6l12.6-1.9
			c10.2-1.5,17.1-12.5,15.4-24.2c-0.4-2.5-1.2-4.9-2.2-7.1l62.2-9.7l5.9,12.4c1.4,2.9,4.1,4.4,6.7,4c0.7-0.1,1.4-0.3,2.1-0.7
			c3.1-1.8,4.2-6.2,2.5-9.9L170.2,107.8z M146.5,278.9l-12.6,1.9c-4.6,0.7-9.1-3.1-9.9-8.4c-0.4-2.8,0.3-5.5,1.6-7.5l23.9-3.7
			c2,1.5,3.5,3.9,3.9,6.8C154.3,273.3,151.2,278.2,146.5,278.9z"/>
		<polygon class="st1" points="67.5,252.5 168.9,155.3 156.4,129.2 63.5,244.1 67.5,252.4 		"/>
		<path class="st1" d="M270,164c-0.2-0.7-0.3-1.3-0.6-2.2l-0.5-1.8c-0.9-2.9-2-5.5-3.2-8.1c-4.9-10.3-12.8-18.8-22-23.5
			c-9.1-4.7-19.4-5.8-28-2.2c9.1,2.5,16.9,6.4,23.5,11.9c6.6,5.5,11.9,12.4,15.7,20.2c0.9,1.9,1.8,4,2.5,5.9l0.6,1.8
			c0.1,0.3,0.3,1,0.5,1.5c0.3,1.1,0.6,2.1,0.9,3.2c1.1,4.3,1.7,8.8,1.9,13.4c0.4,9.2-1,18.6-4.3,28.3c7.4-6,12.4-16.1,14-27.1
			c0.8-5.5,0.7-11.3-0.2-17C270.6,166.8,270.3,165.4,270,164z"/>
		<path class="st1" d="M248.2,170.1l-0.3-1.1c-0.5-1.7-1.1-3.3-1.9-4.8c-2.9-6.1-7.6-11.1-13-13.8c-5.4-2.8-11.4-3.4-16.5-1.3
			c5.3,1.5,9.9,3.8,13.9,7c3.9,3.2,7,7.3,9.2,11.9c0.6,1.1,1.1,2.4,1.5,3.5l0.6,1.9l0.5,1.9c0.6,2.5,1,5.2,1.1,7.9
			c0.2,5.4-0.6,11-2.5,16.7c4.4-3.5,7.3-9.5,8.2-16c0.5-3.3,0.4-6.7-0.1-10c-0.1-0.8-0.3-1.7-0.5-2.5L248.2,170.1z"/>
	</g>
</g>
<g id="Community">
	<defs>
		<rect id="SVGID_31_" x="363.5" width="313.3" height="265"/>
	</defs>
	<clipPath id="SVGID_20_">
		<use xlink:href="#SVGID_31_"  style="overflow:visible;"/>
	</clipPath>
</g>
<g id="Publications">
	<defs>
		<rect id="SVGID_33_" x="722.4" y="-1.3" width="313.3" height="265"/>
	</defs>
	<clipPath id="SVGID_22_">
		<use xlink:href="#SVGID_33_"  style="overflow:visible;"/>
	</clipPath>
</g>
<g id="Social">
	<defs>
		<rect id="SVGID_35_" x="1075.4" y="-0.1" width="313.3" height="265"/>
	</defs>
	<clipPath id="SVGID_24_">
		<use xlink:href="#SVGID_35_"  style="overflow:visible;"/>
	</clipPath>
</g>
<g id="Events">
	<defs>
		<rect id="SVGID_43_" x="1418.8" width="314" height="265"/>
	</defs>
	<clipPath id="SVGID_26_">
		<use xlink:href="#SVGID_43_"  style="overflow:visible;"/>
	</clipPath>
</g>
<g id="Profile">
	<defs>
		<rect id="SVGID_51_" x="1817.4" y="-0.6" width="313.3" height="265"/>
	</defs>
	<clipPath id="SVGID_28_">
		<use xlink:href="#SVGID_51_"  style="overflow:visible;"/>
	</clipPath>
</g>
<g id="Need_to_know">
	<defs>
		<rect id="SVGID_53_" x="2221.4" y="1.4" width="313.3" height="265"/>
	</defs>
	<clipPath id="SVGID_30_">
		<use xlink:href="#SVGID_53_"  style="overflow:visible;"/>
	</clipPath>
</g>
</svg>
