<?xml version="1.0" encoding="utf-8"?>
<!-- Generator: Adobe Illustrator 20.0.0, SVG Export Plug-In . SVG Version: 6.00 Build 0)  -->
<svg version="1.1" xmlns="http://www.w3.org/2000/svg" xmlns:xlink="http://www.w3.org/1999/xlink" x="0px" y="0px"
	 viewBox="0 0 314 265" style="enable-background:new 0 0 314 265;" xml:space="preserve">
<style type="text/css">
	.st0{opacity:0.66;}
	.st1{fill:#FFFFFF;}
	.st2{fill:#FAFCF7;}
	.st3{opacity:0.86;}
	.st4{clip-path:url(#SVGID_2_);}
	.st5{opacity:0.26;clip-path:url(#SVGID_4_);}
	.st6{clip-path:url(#SVGID_6_);fill:#FFFFFF;}
	.st7{opacity:0.24;clip-path:url(#SVGID_8_);}
	.st8{opacity:0.19;clip-path:url(#SVGID_10_);}
	.st9{opacity:0.68;clip-path:url(#SVGID_12_);}
	.st10{opacity:0.68;}
	.st11{clip-path:url(#SVGID_14_);}
	.st12{opacity:0.21;clip-path:url(#SVGID_16_);}
	.st13{clip-path:url(#SVGID_18_);fill:#FFFFFF;}
	.st14{opacity:0.18;clip-path:url(#SVGID_20_);}
	.st15{opacity:0.18;clip-path:url(#SVGID_22_);}
	.st16{fill:none;}
	.st17{fill:none;stroke:#FAFCF7;stroke-width:0;stroke-linecap:round;stroke-linejoin:round;}
	.st18{opacity:0.16;clip-path:url(#SVGID_24_);}
	.st19{opacity:0.18;clip-path:url(#SVGID_26_);}
	.st20{clip-path:url(#SVGID_26_);}
	.st21{fill:none;stroke:#000000;stroke-width:6;stroke-linecap:round;stroke-miterlimit:10;}
	.st22{opacity:0.18;clip-path:url(#SVGID_28_);}
	.st23{clip-path:url(#SVGID_28_);}
	.st24{opacity:0.16;clip-path:url(#SVGID_30_);}
	.st25{opacity:0.18;clip-path:url(#SVGID_32_);}
	.st26{opacity:0.22;clip-path:url(#SVGID_34_);}
	.st27{opacity:0.13;clip-path:url(#SVGID_34_);}
	.st28{opacity:0.12;clip-path:url(#SVGID_34_);}
	.st29{clip-path:url(#SVGID_36_);}
	.st30{clip-path:url(#SVGID_38_);}
	.st31{opacity:0.26;clip-path:url(#SVGID_40_);}
	.st32{clip-path:url(#SVGID_42_);fill:#FFFFFF;}
	.st33{clip-path:url(#SVGID_44_);}
	.st34{clip-path:url(#SVGID_46_);}
	.st35{opacity:0.21;clip-path:url(#SVGID_48_);}
	.st36{clip-path:url(#SVGID_50_);fill:#FFFFFF;}
	.st37{opacity:0.24;clip-path:url(#SVGID_52_);}
	.st38{opacity:0.19;clip-path:url(#SVGID_54_);}
</style>
<g id="Layer_1">
</g>
<g id="social">
</g>
<g id="profile">
	<defs>
		<rect id="SVGID_7_" x="-523.6" y="-463.7" width="148" height="191"/>
	</defs>
	<clipPath id="SVGID_2_">
		<use xlink:href="#SVGID_7_"  style="overflow:visible;"/>
	</clipPath>
</g>
<g id="need_to_know">
	<defs>
		<rect id="SVGID_9_" x="-345.8" y="-463.7" width="148" height="189.5"/>
	</defs>
	<clipPath id="SVGID_4_">
		<use xlink:href="#SVGID_9_"  style="overflow:visible;"/>
	</clipPath>
</g>
<g id="Layer_10">
</g>
<g id="events">
	<defs>
		<rect id="SVGID_11_" x="-696.1" y="-463.7" width="148" height="191"/>
	</defs>
	<clipPath id="SVGID_6_">
		<use xlink:href="#SVGID_11_"  style="overflow:visible;"/>
	</clipPath>
</g>
<g id="publications">
	<defs>
		<rect id="SVGID_19_" x="-1057.9" y="-463.7" width="147.8" height="191"/>
	</defs>
	<clipPath id="SVGID_8_">
		<use xlink:href="#SVGID_19_"  style="overflow:visible;"/>
	</clipPath>
</g>
<g id="comm_centre">
	<defs>
		<rect id="SVGID_21_" x="-1231" y="-463.7" width="148" height="191"/>
	</defs>
	<clipPath id="SVGID_10_">
		<use xlink:href="#SVGID_21_"  style="overflow:visible;"/>
	</clipPath>
</g>
<g id="news">
	<defs>
		<rect id="SVGID_23_" x="-1404" y="-463.7" width="148" height="191"/>
	</defs>
	<clipPath id="SVGID_12_">
		<use xlink:href="#SVGID_23_"  style="overflow:visible;"/>
	</clipPath>
</g>
<g id="Layer_2">
</g>
<g id="vacancies">
	<defs>
		<rect id="SVGID_25_" x="-1584.9" y="-463.7" width="148" height="191"/>
	</defs>
	<clipPath id="SVGID_14_">
		<use xlink:href="#SVGID_25_"  style="overflow:visible;"/>
	</clipPath>
</g>
<g id="Layer_12">
</g>
<g id="Layer_14">
</g>
<g id="vacancies_wide">
	<defs>
		<rect id="SVGID_27_" x="-1443" width="313.3" height="265"/>
	</defs>
	<clipPath id="SVGID_16_">
		<use xlink:href="#SVGID_27_"  style="overflow:visible;"/>
	</clipPath>
</g>
<g id="Layer_15">
	<defs>
		<rect id="SVGID_29_" x="-1074.6" width="313.3" height="265"/>
	</defs>
	<clipPath id="SVGID_18_">
		<use xlink:href="#SVGID_29_"  style="overflow:visible;"/>
	</clipPath>
</g>
<g id="Community">
	<defs>
		<rect id="SVGID_31_" x="-711.5" width="313.3" height="265"/>
	</defs>
	<clipPath id="SVGID_20_">
		<use xlink:href="#SVGID_31_"  style="overflow:visible;"/>
	</clipPath>
</g>
<g id="Publications">
	<defs>
		<rect id="SVGID_33_" x="-352.6" y="-1.3" width="313.3" height="265"/>
	</defs>
	<clipPath id="SVGID_22_">
		<use xlink:href="#SVGID_33_"  style="overflow:visible;"/>
	</clipPath>
</g>
<g id="Social">
	<defs>
		<rect id="SVGID_35_" x="0.4" y="-0.1" width="313.3" height="265"/>
	</defs>
	<clipPath id="SVGID_24_">
		<use xlink:href="#SVGID_35_"  style="overflow:visible;"/>
	</clipPath>
	<g style="clip-path:url(#SVGID_24_);">
		<defs>
			<rect id="SVGID_37_" x="37.3" y="97.2" width="239.4" height="253"/>
		</defs>
		<clipPath id="SVGID_26_">
			<use xlink:href="#SVGID_37_"  style="overflow:visible;"/>
		</clipPath>
		<g class="st20">
			<defs>
				<rect id="SVGID_39_" x="37.3" y="97.2" width="239.4" height="253"/>
			</defs>
			<clipPath id="SVGID_28_">
				<use xlink:href="#SVGID_39_"  style="overflow:visible;"/>
			</clipPath>
			<g style="opacity:0.26;clip-path:url(#SVGID_28_);">
				<g>
					<defs>
						<rect id="SVGID_41_" x="12.3" y="78.1" width="289.4" height="273.6"/>
					</defs>
					<clipPath id="SVGID_30_">
						<use xlink:href="#SVGID_41_"  style="overflow:visible;"/>
					</clipPath>
					<path style="clip-path:url(#SVGID_30_);fill:#FFFFFF;" d="M215.5,205.4c14.8-19.5,9.4-51.1-10.9-67c-2.7-2.1-5.4-4.1-7.5-5.6
						c-1.5-3.1,0-4.5,1.4-6.1c1,0.1,2.1,0,2.9,0.4c8.7,4,16.8,8.9,24.1,15.1c2.4,2,5.1,4,4.7,7.6c-0.8,7.8,1.6,13.9,8.6,17.9
						c7.7,4.4,14.4,2.4,20.7-3.9c5.5,4.5,8.4,10.3,11,16.2c6,13.8,7.8,28.2,4.9,43c-0.6,3.1-0.9,7.3-6.9,5.5
						c-0.7-10.4-1.1-21.1-4.5-32.9c-13.3,15.1-28.8,22.6-48.8,19.6"/>
					<path style="clip-path:url(#SVGID_30_);fill:#FFFFFF;" d="M235,301.6c-21.4-3.5-35.7-15.2-43.4-36.8c17.6,2.4,32.7-0.1,45.8-11
						c13-10.9,17.9-25.5,19.2-41.9c5.2-1.4,6.3,1.4,6.5,5.3c0.4,10.5-0.1,21-3.2,31.7c-8.4,2.6-14.2,8-13.9,17.8
						c0.2,8.9,5.1,14.3,13.5,16.6c-5.2,20.4-32,43.3-49.3,42.2c-2.6-4.5,2-5.5,4-7c6.8-5.3,14-10.1,21.1-15.1
						C235.2,302.7,235.1,302.1,235,301.6"/>
					<path style="clip-path:url(#SVGID_30_);fill:#FFFFFF;" d="M175.1,173c-6.2-17-17.2-28.2-33.2-33.9c-15.8-5.7-31.1-2.4-45.1,5.2
						c-4-3.9-2.1-6.3,0.4-8.1c9-6.4,18.8-11.2,29.6-13.8c7.1,4.6,14.1,7.7,23.3,2.5c6-4.2,9.2-11.1,7.8-19.6
						c21.5-6.2,61.8,9.7,59.8,24.1c-10.2-2.6-18.5-10.5-30.5-10.8C192.6,139,190.9,157.4,175.1,173"/>
					<path style="clip-path:url(#SVGID_30_);fill:#FFFFFF;" d="M103.2,120.2c4.2,5,0.7,7-2.6,8.6c-7.8,4-14.4,9.5-21,16.6
						c21.8,4.1,36.4,15.6,42.9,37.3c-7.9-0.2-15.2-1.4-22.6,0.3c-23.7,5.6-38.6,22.3-40.9,46.4c-0.4,4.7-0.4,4.7-4,7.9
						c-3.5-0.2-4.3-2.6-4.4-5.5c-0.5-11.3-0.4-22.5,3.2-33.6c8.2-3,14.2-8.2,13.8-17.6c-0.4-9.4-6.6-14.3-14.9-16.5
						C63.1,141.9,79.1,126.4,103.2,120.2"/>
					<path style="clip-path:url(#SVGID_30_);fill:#FFFFFF;" d="M45.9,219.6c-0.1,10.5,0.9,20.9,4,32.6c14.6-17.4,32.3-24.3,54.3-19
						c-10.8,13.3-16.2,28-13.1,45.3c3.1,16.9,13.1,28.8,27.2,37.3c-2,6.6-6,4.8-9,3.2c-9.2-4.8-17.5-11-25.3-17.9
						c1.2-9.4-0.2-17.6-9.4-22c-7.7-3.7-14.6-1.9-21,4.5c-13.8-18.6-18.7-38.7-13.9-61.1C40.3,219.7,41.5,217.8,45.9,219.6"/>
					<path style="clip-path:url(#SVGID_30_);fill:#FFFFFF;" d="M153.8,110.7c0,7.3-5.5,13-12.8,13c-7.9,0-13.8-5.6-13.8-13
						c0.1-7.6,5.8-13.4,13.4-13.6C148,97.1,153.7,103,153.8,110.7"/>
					<path style="clip-path:url(#SVGID_30_);fill:#FFFFFF;" d="M250.4,266.5c0-8,5.4-13.4,13.2-13.4c7.2,0,13,5.8,12.9,13
						c-0.1,7.2-6,13.1-12.9,13.1C254.7,279.1,250.4,275,250.4,266.5"/>
					<path style="clip-path:url(#SVGID_30_);fill:#FFFFFF;" d="M260.7,153.3c-0.2,7-7.5,14-14.4,13.8c-6.3-0.2-13.4-8-13.1-14.4
						c0.3-6.7,7.4-13.2,14.1-13.1C254.5,139.7,260.9,146.2,260.7,153.3"/>
					<path style="clip-path:url(#SVGID_30_);fill:#FFFFFF;" d="M51.3,195.1c-7.3,0.2-13.7-5.8-14-13.2c-0.3-7.9,5.5-13.8,13.3-14.5
						c6.3-0.5,14.4,7.2,14.1,13.8C64.4,188.7,58.6,194.9,51.3,195.1"/>
				</g>
			</g>
		</g>
	</g>
</g>
<g id="Events">
	<defs>
		<rect id="SVGID_43_" x="343.8" width="314" height="265"/>
	</defs>
	<clipPath id="SVGID_32_">
		<use xlink:href="#SVGID_43_"  style="overflow:visible;"/>
	</clipPath>
</g>
<g id="Profile">
	<defs>
		<rect id="SVGID_51_" x="742.4" y="-0.6" width="313.3" height="265"/>
	</defs>
	<clipPath id="SVGID_34_">
		<use xlink:href="#SVGID_51_"  style="overflow:visible;"/>
	</clipPath>
</g>
<g id="Need_to_know">
	<defs>
		<rect id="SVGID_53_" x="1146.4" y="1.4" width="313.3" height="265"/>
	</defs>
	<clipPath id="SVGID_36_">
		<use xlink:href="#SVGID_53_"  style="overflow:visible;"/>
	</clipPath>
</g>
</svg>
