<?xml version="1.0" encoding="utf-8"?>
<!-- Generator: Adobe Illustrator 20.0.0, SVG Export Plug-In . SVG Version: 6.00 Build 0)  -->
<svg version="1.1" xmlns="http://www.w3.org/2000/svg" xmlns:xlink="http://www.w3.org/1999/xlink" x="0px" y="0px"
	 viewBox="0 0 314 265" style="enable-background:new 0 0 314 265;" xml:space="preserve">
<style type="text/css">
	.st0{opacity:0.66;}
	.st1{fill:#FFFFFF;}
	.st2{fill:#FAFCF7;}
	.st3{opacity:0.86;}
	.st4{clip-path:url(#SVGID_2_);}
	.st5{opacity:0.26;clip-path:url(#SVGID_4_);}
	.st6{clip-path:url(#SVGID_6_);fill:#FFFFFF;}
	.st7{opacity:0.24;clip-path:url(#SVGID_8_);}
	.st8{opacity:0.19;clip-path:url(#SVGID_10_);}
	.st9{opacity:0.68;clip-path:url(#SVGID_12_);}
	.st10{opacity:0.68;}
	.st11{clip-path:url(#SVGID_14_);}
	.st12{opacity:0.21;clip-path:url(#SVGID_16_);}
	.st13{clip-path:url(#SVGID_18_);fill:#FFFFFF;}
	.st14{opacity:0.18;clip-path:url(#SVGID_20_);}
	.st15{opacity:0.18;clip-path:url(#SVGID_22_);}
	.st16{fill:none;}
	.st17{fill:none;stroke:#FAFCF7;stroke-width:0;stroke-linecap:round;stroke-linejoin:round;}
	.st18{opacity:0.16;clip-path:url(#SVGID_24_);}
	.st19{opacity:0.18;clip-path:url(#SVGID_26_);}
	.st20{clip-path:url(#SVGID_26_);}
	.st21{fill:none;stroke:#000000;stroke-width:6;stroke-linecap:round;stroke-miterlimit:10;}
	.st22{opacity:0.18;clip-path:url(#SVGID_28_);}
	.st23{clip-path:url(#SVGID_28_);}
	.st24{opacity:0.16;clip-path:url(#SVGID_30_);}
	.st25{opacity:0.18;clip-path:url(#SVGID_32_);}
	.st26{opacity:0.22;clip-path:url(#SVGID_34_);}
	.st27{opacity:0.13;clip-path:url(#SVGID_34_);}
	.st28{opacity:0.12;clip-path:url(#SVGID_34_);}
	.st29{clip-path:url(#SVGID_36_);}
	.st30{clip-path:url(#SVGID_38_);}
	.st31{opacity:0.26;clip-path:url(#SVGID_40_);}
	.st32{clip-path:url(#SVGID_42_);fill:#FFFFFF;}
	.st33{clip-path:url(#SVGID_44_);}
	.st34{clip-path:url(#SVGID_46_);}
	.st35{opacity:0.21;clip-path:url(#SVGID_48_);}
	.st36{clip-path:url(#SVGID_50_);fill:#FFFFFF;}
	.st37{opacity:0.24;clip-path:url(#SVGID_52_);}
	.st38{opacity:0.19;clip-path:url(#SVGID_54_);}
</style>
<g id="Layer_1">
</g>
<g id="social">
</g>
<g id="profile">
	<defs>
		<rect id="SVGID_7_" x="-170.6" y="-462.4" width="148" height="191"/>
	</defs>
	<clipPath id="SVGID_2_">
		<use xlink:href="#SVGID_7_"  style="overflow:visible;"/>
	</clipPath>
</g>
<g id="need_to_know">
	<defs>
		<rect id="SVGID_9_" x="7.2" y="-462.4" width="148" height="189.5"/>
	</defs>
	<clipPath id="SVGID_4_">
		<use xlink:href="#SVGID_9_"  style="overflow:visible;"/>
	</clipPath>
</g>
<g id="Layer_10">
</g>
<g id="events">
	<defs>
		<rect id="SVGID_11_" x="-343.1" y="-462.4" width="148" height="191"/>
	</defs>
	<clipPath id="SVGID_6_">
		<use xlink:href="#SVGID_11_"  style="overflow:visible;"/>
	</clipPath>
</g>
<g id="publications">
	<defs>
		<rect id="SVGID_19_" x="-704.9" y="-462.4" width="147.8" height="191"/>
	</defs>
	<clipPath id="SVGID_8_">
		<use xlink:href="#SVGID_19_"  style="overflow:visible;"/>
	</clipPath>
</g>
<g id="comm_centre">
	<defs>
		<rect id="SVGID_21_" x="-878" y="-462.4" width="148" height="191"/>
	</defs>
	<clipPath id="SVGID_10_">
		<use xlink:href="#SVGID_21_"  style="overflow:visible;"/>
	</clipPath>
</g>
<g id="news">
	<defs>
		<rect id="SVGID_23_" x="-1051" y="-462.4" width="148" height="191"/>
	</defs>
	<clipPath id="SVGID_12_">
		<use xlink:href="#SVGID_23_"  style="overflow:visible;"/>
	</clipPath>
</g>
<g id="Layer_2">
</g>
<g id="vacancies">
	<defs>
		<rect id="SVGID_25_" x="-1231.9" y="-462.4" width="148" height="191"/>
	</defs>
	<clipPath id="SVGID_14_">
		<use xlink:href="#SVGID_25_"  style="overflow:visible;"/>
	</clipPath>
</g>
<g id="Layer_12">
</g>
<g id="Layer_14">
</g>
<g id="vacancies_wide">
	<defs>
		<rect id="SVGID_27_" x="-1090" y="1.3" width="313.3" height="265"/>
	</defs>
	<clipPath id="SVGID_16_">
		<use xlink:href="#SVGID_27_"  style="overflow:visible;"/>
	</clipPath>
</g>
<g id="Layer_15">
	<defs>
		<rect id="SVGID_29_" x="-721.6" y="1.3" width="313.3" height="265"/>
	</defs>
	<clipPath id="SVGID_18_">
		<use xlink:href="#SVGID_29_"  style="overflow:visible;"/>
	</clipPath>
</g>
<g id="Community">
	<defs>
		<rect id="SVGID_31_" x="-358.5" y="1.3" width="313.3" height="265"/>
	</defs>
	<clipPath id="SVGID_20_">
		<use xlink:href="#SVGID_31_"  style="overflow:visible;"/>
	</clipPath>
</g>
<g id="Publications">
	<defs>
		<rect id="SVGID_33_" x="0.4" width="313.3" height="265"/>
	</defs>
	<clipPath id="SVGID_22_">
		<use xlink:href="#SVGID_33_"  style="overflow:visible;"/>
	</clipPath>
	<g style="opacity:0.22;clip-path:url(#SVGID_22_);">
		<path class="st2" d="M133.8,128.6c0-0.6,0.4-1,1-1H153c0.5,0,1,0.4,1,1v72.7c0,0.6-0.5,1-1,1h-18.2c-0.6,0-1-0.4-1-1V128.6z"/>
	</g>
	<g style="opacity:0.13;clip-path:url(#SVGID_22_);">
		<path class="st2" d="M133.8,95.4c0-0.6,0.4-1,1-1H153c0.5,0,1,0.4,1,1v22.2c0,0.6-0.5,1-1,1h-18.2c-0.6,0-1-0.4-1-1V95.4z"/>
	</g>
	<g style="opacity:0.22;clip-path:url(#SVGID_22_);">
		<path class="st2" d="M182.9,192.9c0,0.5-0.4,1-1,1h-18.2c-0.6,0-1-0.5-1-1v-44.1c0-0.6,0.4-1,1-1h18.2c0.6,0,1,0.4,1,1V192.9z"/>
	</g>
	<g style="opacity:0.22;clip-path:url(#SVGID_22_);">
		<path class="st2" d="M182.9,286.3c0,0.5-0.4,1-1,1h-18.2c-0.6,0-1-0.5-1-1v-58.9c0-0.6,0.4-1,1-1h18.2c0.6,0,1,0.4,1,1V286.3z"/>
	</g>
	<g style="opacity:0.13;clip-path:url(#SVGID_22_);">
		<path class="st2" d="M211.2,175.4c0,0.6-0.5,1-1,1h-17.5c-0.6,0-1-0.4-1-1v-42.6c0-0.6,0.4-1,1-1h17.5c0.5,0,1,0.4,1,1V175.4z"/>
	</g>
	<g style="opacity:0.22;clip-path:url(#SVGID_22_);">
		<path class="st2" d="M211.2,246c0,0.6-0.5,1-1,1h-17.5c-0.6,0-1-0.4-1-1v-59.3c0-0.6,0.4-1,1-1h17.5c0.5,0,1,0.4,1,1V246z"/>
	</g>
	<g style="opacity:0.22;clip-path:url(#SVGID_22_);">
		<path class="st2" d="M211.2,275.6c0,0.6-0.5,1-1,1h-17.5c-0.6,0-1-0.4-1-1v-16.2c0-0.5,0.4-1,1-1h17.5c0.5,0,1,0.5,1,1V275.6z"/>
	</g>
	<g style="opacity:0.22;clip-path:url(#SVGID_22_);">
		<path class="st2" d="M242.3,199.8c0,0.6-0.4,1-1,1h-18.2c-0.6,0-1-0.4-1-1v-28.2c0-0.5,0.4-1,1-1h18.2c0.6,0,1,0.5,1,1V199.8z"/>
	</g>
	<g style="opacity:0.22;clip-path:url(#SVGID_22_);">
		<path class="st2" d="M242.3,252.6c0,0.6-0.4,1-1,1h-18.2c-0.6,0-1-0.4-1-1v-28.2c0-0.6,0.4-1,1-1h18.2c0.6,0,1,0.4,1,1V252.6z"/>
	</g>
	<g style="opacity:0.12;clip-path:url(#SVGID_22_);">
		<path class="st2" d="M271.2,227.2c0,0.6-0.5,1-1,1h-18.2c-0.5,0-1-0.4-1-1v-21.8c0-0.6,0.5-1,1-1h18.2c0.5,0,1,0.4,1,1V227.2z"/>
	</g>
	<g style="opacity:0.22;clip-path:url(#SVGID_22_);">
		<path class="st2" d="M271.2,298.4c0,0.5-0.5,1-1,1h-18.2c-0.5,0-1-0.5-1-1v-58.9c0-0.5,0.5-1,1-1h18.2c0.5,0,1,0.5,1,1V298.4z"/>
	</g>
	<g style="opacity:0.22;clip-path:url(#SVGID_22_);">
		<path class="st2" d="M242,163.6c0,0.6-0.4,1-1,1h-17.5c-0.6,0-1-0.4-1-1V121c0-0.5,0.4-1,1-1H241c0.6,0,1,0.5,1,1V163.6z"/>
	</g>
	<g style="opacity:0.22;clip-path:url(#SVGID_22_);">
		<path class="st2" d="M182.6,120.8c0,0.6-0.5,1-1,1h-17.5c-0.6,0-1-0.4-1-1v-16.2c0-0.6,0.4-1,1-1h17.5c0.5,0,1,0.4,1,1V120.8z"/>
	</g>
	<g style="opacity:0.22;clip-path:url(#SVGID_22_);">
		<path class="st2" d="M299.8,294.9c0,0.5-0.5,1-1,1h-17.5c-0.6,0-1-0.5-1-1v-43.5c0-0.5,0.4-1,1-1h17.5c0.5,0,1,0.5,1,1V294.9z"/>
	</g>
	<g style="opacity:0.13;clip-path:url(#SVGID_22_);">
		<path class="st2" d="M104.9,156.4c0,0.6,0.4,1,1,1h17.5c0.6,0,1-0.4,1-1v-42.6c0-0.6-0.4-1-1-1h-17.5c-0.6,0-1,0.4-1,1V156.4z"/>
	</g>
	<g style="opacity:0.22;clip-path:url(#SVGID_22_);">
		<path class="st2" d="M104.9,227.1c0,0.6,0.4,1,1,1h17.5c0.6,0,1-0.4,1-1v-59.3c0-0.6-0.4-1-1-1h-17.5c-0.6,0-1,0.4-1,1V227.1z"/>
	</g>
	<g style="opacity:0.22;clip-path:url(#SVGID_22_);">
		<path class="st2" d="M104.9,256.7c0,0.6,0.4,1,1,1h17.5c0.6,0,1-0.4,1-1v-16.2c0-0.5-0.4-1-1-1h-17.5c-0.6,0-1,0.5-1,1V256.7z"/>
	</g>
	<g style="opacity:0.22;clip-path:url(#SVGID_22_);">
		<path class="st2" d="M73.8,180.9c0,0.6,0.4,1,1,1h18.2c0.5,0,1-0.4,1-1v-28.2c0-0.6-0.5-1-1-1H74.8c-0.6,0-1,0.4-1,1V180.9z"/>
	</g>
	<g style="opacity:0.13;clip-path:url(#SVGID_22_);">
		<path class="st2" d="M73.8,220.3c0,0.5,0.4,1,1,1h18.2c0.5,0,1-0.5,1-1v-28.2c0-0.6-0.5-1-1-1H74.8c-0.6,0-1,0.4-1,1V220.3z"/>
	</g>
	<g style="opacity:0.22;clip-path:url(#SVGID_22_);">
		<path class="st2" d="M73.8,272.5c0,0.5,0.4,1,1,1h18.2c0.5,0,1-0.5,1-1v-28.2c0-0.6-0.5-1-1-1H74.8c-0.6,0-1,0.4-1,1V272.5z"/>
	</g>
	<g style="opacity:0.12;clip-path:url(#SVGID_22_);">
		<path class="st2" d="M44.8,208.3c0,0.6,0.4,1,1,1H64c0.6,0,1-0.4,1-1v-21.8c0-0.5-0.4-1-1-1H45.8c-0.6,0-1,0.5-1,1V208.3z"/>
	</g>
	<g style="opacity:0.22;clip-path:url(#SVGID_22_);">
		<path class="st2" d="M44.8,279.5c0,0.5,0.4,1,1,1H64c0.6,0,1-0.5,1-1v-58.9c0-0.6-0.4-1-1-1H45.8c-0.6,0-1,0.4-1,1V279.5z"/>
	</g>
	<g style="opacity:0.22;clip-path:url(#SVGID_22_);">
		<path class="st2" d="M153.7,219.5c0-0.5-0.4-1-1-1h-17.8c-0.6,0-1,0.5-1,1v58.4c0,0.6,0.4,1,1,1h17.8c0.6,0,1-0.4,1-1V219.5z"/>
	</g>
	<g style="opacity:0.22;clip-path:url(#SVGID_22_);">
		<path class="st2" d="M16.6,256.7c0,0.6,0.5,1,1,1h17.5c0.5,0,1-0.4,1-1v-16.2c0-0.5-0.5-1-1-1H17.6c-0.5,0-1,0.5-1,1V256.7z"/>
	</g>
</g>
<g id="Social">
	<defs>
		<rect id="SVGID_35_" x="353.4" y="1.2" width="313.3" height="265"/>
	</defs>
	<clipPath id="SVGID_24_">
		<use xlink:href="#SVGID_35_"  style="overflow:visible;"/>
	</clipPath>
</g>
<g id="Events">
	<defs>
		<rect id="SVGID_43_" x="696.8" y="1.3" width="314" height="265"/>
	</defs>
	<clipPath id="SVGID_26_">
		<use xlink:href="#SVGID_43_"  style="overflow:visible;"/>
	</clipPath>
</g>
<g id="Profile">
	<defs>
		<rect id="SVGID_51_" x="1095.4" y="0.7" width="313.3" height="265"/>
	</defs>
	<clipPath id="SVGID_28_">
		<use xlink:href="#SVGID_51_"  style="overflow:visible;"/>
	</clipPath>
</g>
<g id="Need_to_know">
	<defs>
		<rect id="SVGID_53_" x="1499.4" y="2.7" width="313.3" height="265"/>
	</defs>
	<clipPath id="SVGID_30_">
		<use xlink:href="#SVGID_53_"  style="overflow:visible;"/>
	</clipPath>
</g>
</svg>
