<?xml version="1.0" encoding="utf-8"?>
<!-- Generator: Adobe Illustrator 21.0.0, SVG Export Plug-In . SVG Version: 6.00 Build 0)  -->
<svg version="1.1" id="Layer_1" xmlns="http://www.w3.org/2000/svg" xmlns:xlink="http://www.w3.org/1999/xlink" x="0px" y="0px"
	 viewBox="0 0 314 265" style="enable-background:new 0 0 314 265;" xml:space="preserve">
<style type="text/css">
	.st0{clip-path:url(#SVGID_2_);}
	.st1{clip-path:url(#SVGID_4_);}
	.st2{clip-path:url(#SVGID_6_);}
	.st3{opacity:0.21;}
	.st4{clip-path:url(#SVGID_24_);}
	.st5{clip-path:url(#SVGID_25_);}
	.st6{clip-path:url(#SVGID_26_);}
	.st7{clip-path:url(#SVGID_27_);}
	.st8{clip-path:url(#SVGID_28_);}
	.st9{clip-path:url(#SVGID_29_);}
	.st10{clip-path:url(#SVGID_30_);}
	.st11{clip-path:url(#SVGID_31_);}
	.st12{clip-path:url(#SVGID_32_);}
	.st13{clip-path:url(#SVGID_33_);}
	.st14{clip-path:url(#SVGID_34_);}
	.st15{clip-path:url(#SVGID_35_);}
	.st16{clip-path:url(#SVGID_36_);}
	.st17{clip-path:url(#SVGID_37_);}
	.st18{clip-path:url(#SVGID_38_);}
	.st19{clip-path:url(#SVGID_39_);}
	.st20{clip-path:url(#SVGID_40_);fill:#FFFFFF;}
</style>
<g id="Layer_1_1_">
</g>
<g id="social">
</g>
<g id="Layer_10">
</g>
<g id="Layer_2">
</g>
<g id="Layer_12">
</g>
<g id="Layer_14">
</g>
<g>
	<g>
		<defs>
			<rect id="SVGID_1_" y="-1.4" width="314" height="266.4"/>
		</defs>
		<clipPath id="SVGID_2_">
			<use xlink:href="#SVGID_1_"  style="overflow:visible;"/>
		</clipPath>
		<g class="st0">
			<g>
				<defs>
					<polygon id="SVGID_3_" points="31.4,124.4 249.9,93.7 274.6,271.5 56.1,302.1 					"/>
				</defs>
				<clipPath id="SVGID_4_">
					<use xlink:href="#SVGID_3_"  style="overflow:visible;"/>
				</clipPath>
				<g id="Events" class="st1">
					<g>
						<defs>
							<polygon id="SVGID_5_" points="31.4,124.4 249.9,93.7 274.6,271.5 56.1,302.1 							"/>
						</defs>
						<clipPath id="SVGID_6_">
							<use xlink:href="#SVGID_5_"  style="overflow:visible;"/>
						</clipPath>
						<g class="st2">
							<g class="st3">
								<g>
									<defs>
										<polygon id="SVGID_7_" points="7.7,111 269.1,74.3 296.2,269.9 34.8,306.5 										"/>
									</defs>
									<defs>
										<polygon id="SVGID_8_" points="7.7,111 269.1,74.3 296.2,269.9 34.8,306.5 										"/>
									</defs>
									<defs>
										<polygon id="SVGID_9_" points="7.7,111 269.1,74.3 296.2,269.9 34.8,306.5 										"/>
									</defs>
									<defs>
										<polygon id="SVGID_10_" points="7.7,111 269.1,74.3 296.2,269.9 34.8,306.5 										"/>
									</defs>
									<defs>
										<polygon id="SVGID_11_" points="7.7,111 269.1,74.3 296.2,269.9 34.8,306.5 										"/>
									</defs>
									<defs>
										<polygon id="SVGID_12_" points="7.7,111 269.1,74.3 296.2,269.9 34.8,306.5 										"/>
									</defs>
									<defs>
										<polygon id="SVGID_13_" points="7.7,111 269.1,74.3 296.2,269.9 34.8,306.5 										"/>
									</defs>
									<defs>
										<polygon id="SVGID_14_" points="7.7,111 269.1,74.3 296.2,269.9 34.8,306.5 										"/>
									</defs>
									<defs>
										<polygon id="SVGID_15_" points="7.7,111 269.1,74.3 296.2,269.9 34.8,306.5 										"/>
									</defs>
									<defs>
										<polygon id="SVGID_16_" points="7.7,111 269.1,74.3 296.2,269.9 34.8,306.5 										"/>
									</defs>
									<defs>
										<polygon id="SVGID_17_" points="7.7,111 269.1,74.3 296.2,269.9 34.8,306.5 										"/>
									</defs>
									<defs>
										<polygon id="SVGID_18_" points="7.7,111 269.1,74.3 296.2,269.9 34.8,306.5 										"/>
									</defs>
									<defs>
										<polygon id="SVGID_19_" points="7.7,111 269.1,74.3 296.2,269.9 34.8,306.5 										"/>
									</defs>
									<defs>
										<polygon id="SVGID_20_" points="7.7,111 269.1,74.3 296.2,269.9 34.8,306.5 										"/>
									</defs>
									<defs>
										<polygon id="SVGID_21_" points="7.7,111 269.1,74.3 296.2,269.9 34.8,306.5 										"/>
									</defs>
									<defs>
										<polygon id="SVGID_22_" points="7.7,111 269.1,74.3 296.2,269.9 34.8,306.5 										"/>
									</defs>
									<defs>
										<polygon id="SVGID_23_" points="7.7,111 269.1,74.3 296.2,269.9 34.8,306.5 										"/>
									</defs>
									<clipPath id="SVGID_24_">
										<use xlink:href="#SVGID_7_"  style="overflow:visible;"/>
									</clipPath>
									<clipPath id="SVGID_25_" class="st4">
										<use xlink:href="#SVGID_8_"  style="overflow:visible;"/>
									</clipPath>
									<clipPath id="SVGID_26_" class="st5">
										<use xlink:href="#SVGID_9_"  style="overflow:visible;"/>
									</clipPath>
									<clipPath id="SVGID_27_" class="st6">
										<use xlink:href="#SVGID_10_"  style="overflow:visible;"/>
									</clipPath>
									<clipPath id="SVGID_28_" class="st7">
										<use xlink:href="#SVGID_11_"  style="overflow:visible;"/>
									</clipPath>
									<clipPath id="SVGID_29_" class="st8">
										<use xlink:href="#SVGID_12_"  style="overflow:visible;"/>
									</clipPath>
									<clipPath id="SVGID_30_" class="st9">
										<use xlink:href="#SVGID_13_"  style="overflow:visible;"/>
									</clipPath>
									<clipPath id="SVGID_31_" class="st10">
										<use xlink:href="#SVGID_14_"  style="overflow:visible;"/>
									</clipPath>
									<clipPath id="SVGID_32_" class="st11">
										<use xlink:href="#SVGID_15_"  style="overflow:visible;"/>
									</clipPath>
									<clipPath id="SVGID_33_" class="st12">
										<use xlink:href="#SVGID_16_"  style="overflow:visible;"/>
									</clipPath>
									<clipPath id="SVGID_34_" class="st13">
										<use xlink:href="#SVGID_17_"  style="overflow:visible;"/>
									</clipPath>
									<clipPath id="SVGID_35_" class="st14">
										<use xlink:href="#SVGID_18_"  style="overflow:visible;"/>
									</clipPath>
									<clipPath id="SVGID_36_" class="st15">
										<use xlink:href="#SVGID_19_"  style="overflow:visible;"/>
									</clipPath>
									<clipPath id="SVGID_37_" class="st16">
										<use xlink:href="#SVGID_20_"  style="overflow:visible;"/>
									</clipPath>
									<clipPath id="SVGID_38_" class="st17">
										<use xlink:href="#SVGID_21_"  style="overflow:visible;"/>
									</clipPath>
									<clipPath id="SVGID_39_" class="st18">
										<use xlink:href="#SVGID_22_"  style="overflow:visible;"/>
									</clipPath>
									<clipPath id="SVGID_40_" class="st19">
										<use xlink:href="#SVGID_23_"  style="overflow:visible;"/>
									</clipPath>
									<path class="st20" d="M261.9,260.4c0.1,1-0.6,2-1.7,2.2L67.5,289.5c-1.1,0.1-2-0.6-2.2-1.6L47.6,160.6L244.2,133
										L261.9,260.4z M237.1,95.5l-52.7,7.3l3,21.5c0.6,4.4-2.6,8.5-7.1,9.2c-4.5,0.6-8.7-2.5-9.3-6.9l-3-21.5l-60.1,8.4l3,21.5
										c0.6,4.4-2.5,8.5-7.1,9.2c-4.5,0.6-8.7-2.5-9.3-6.9l-3-21.5l-47.2,6.6c-7.1,1-12.1,7.4-11.1,14.5l21.1,152.4
										c1,6.9,7.5,11.9,14.6,10.9l192.8-27c7.1-1,12.1-7.5,11.1-14.5l-21.1-152.4C250.7,99.4,244.2,94.6,237.1,95.5"/>
									<path class="st20" d="M73.9,190.7c4.2-0.6,7.2-4.4,6.6-8.6c-0.6-4.1-4.5-7-8.7-6.4c-4.2,0.6-7.2,4.4-6.6,8.6
										C65.8,188.4,69.7,191.3,73.9,190.7"/>
									<path class="st20" d="M77.6,216.8c-4.2,0.6-7.2,4.4-6.6,8.6c0.6,4.1,4.5,7,8.7,6.4s7.2-4.4,6.6-8.6
										C85.7,219.2,81.8,216.2,77.6,216.8"/>
									<path class="st20" d="M85.4,273.2c4.2-0.6,7.2-4.4,6.6-8.6c-0.6-4.1-4.5-7-8.7-6.4s-7.2,4.4-6.6,8.6
										C77.2,270.9,81.1,273.8,85.4,273.2"/>
									<path class="st20" d="M113.6,185.2c4.2-0.6,7.2-4.4,6.6-8.6c-0.6-4.1-4.5-7-8.7-6.4s-7.2,4.4-6.6,8.6
										C105.4,182.9,109.3,185.8,113.6,185.2"/>
									<path class="st20" d="M117.2,211.3c-4.2,0.6-7.2,4.4-6.6,8.6s4.5,7,8.7,6.4c4.2-0.6,7.2-4.4,6.6-8.6
										S121.4,210.7,117.2,211.3"/>
									<path class="st20" d="M125,267.7c4.2-0.6,7.2-4.4,6.6-8.6c-0.6-4.1-4.5-7-8.7-6.4s-7.2,4.4-6.6,8.6
										C116.9,265.4,120.8,268.2,125,267.7"/>
									<path class="st20" d="M150.5,180c4.2-0.6,7.2-4.4,6.6-8.6c-0.6-4.1-4.5-7-8.7-6.4c-4.2,0.6-7.2,4.4-6.6,8.6
										C142.4,177.6,146.3,180.6,150.5,180"/>
									<path class="st20" d="M154.2,206.1c-4.2,0.6-7.2,4.4-6.6,8.6c0.6,4.1,4.5,7,8.7,6.4c4.2-0.6,7.2-4.4,6.6-8.6
										C162.3,208.4,158.4,205.5,154.2,206.1"/>
									<path class="st20" d="M162,262.5c4.2-0.6,7.2-4.4,6.6-8.6c-0.6-4.1-4.5-7-8.7-6.4s-7.2,4.4-6.6,8.6
										C153.9,260.2,157.8,263.1,162,262.5"/>
									<path class="st20" d="M187.5,174.8c4.2-0.6,7.2-4.4,6.6-8.6c-0.6-4.1-4.5-7-8.7-6.4s-7.2,4.4-6.6,8.6
										C179.4,172.5,183.3,175.4,187.5,174.8"/>
									<path class="st20" d="M190.5,196.4c6.7-0.9,13,3.7,13.9,10.4s-3.8,12.9-10.5,13.8c-6.7,0.9-13-3.7-13.9-10.4
										C179.1,203.6,183.8,197.3,190.5,196.4 M194.7,226.3c10-1.4,17-10.5,15.6-20.3s-10.6-16.7-20.6-15.3
										c-10,1.4-17,10.5-15.6,20.3C175.5,220.9,184.7,227.7,194.7,226.3"/>
									<path class="st20" d="M193.2,216c4.2-0.6,7.2-4.4,6.6-8.6c-0.6-4.1-4.5-7-8.7-6.4s-7.2,4.4-6.6,8.6
										C185.1,213.7,189,216.6,193.2,216"/>
									<path class="st20" d="M196.9,242.2c-4.2,0.6-7.2,4.4-6.6,8.6c0.6,4.1,4.5,7,8.7,6.4s7.2-4.4,6.6-8.6
										C205,244.5,201.1,241.6,196.9,242.2"/>
									<path class="st20" d="M227.1,169.2c4.2-0.6,7.2-4.4,6.6-8.6c-0.6-4.1-4.5-7-8.7-6.4s-7.2,4.4-6.6,8.6
										C219,166.9,222.9,169.8,227.1,169.2"/>
									<path class="st20" d="M232.9,210.5c4.2-0.6,7.2-4.4,6.6-8.6c-0.6-4.1-4.5-7-8.7-6.4s-7.2,4.4-6.6,8.6
										C224.7,208.2,228.6,211.1,232.9,210.5"/>
									<path class="st20" d="M236.5,236.7c-4.2,0.6-7.2,4.4-6.6,8.6c0.6,4.1,4.5,7,8.7,6.4c4.2-0.6,7.2-4.4,6.6-8.6
										C244.6,239,240.7,236,236.5,236.7"/>
								</g>
							</g>
						</g>
					</g>
				</g>
			</g>
		</g>
	</g>
</g>
</svg>
