<?xml version="1.0" encoding="utf-8"?>
<!-- Generator: Adobe Illustrator 21.0.0, SVG Export Plug-In . SVG Version: 6.00 Build 0)  -->
<svg version="1.1" id="Layer_1" xmlns="http://www.w3.org/2000/svg" xmlns:xlink="http://www.w3.org/1999/xlink" x="0px" y="0px"
	 width="314px" height="265px" viewBox="0 0 314 265" style="enable-background:new 0 0 314 265;" xml:space="preserve">
<style type="text/css">
	.st0{opacity:0.18;clip-path:url(#SVGID_2_);}
	.st1{fill:#FFFFFF;}
	.st2{opacity:0.18;clip-path:url(#SVGID_4_);}
</style>
<g id="Layer_1_1_">
</g>
<g id="social">
</g>
<g id="Layer_10">
</g>
<g id="Layer_2">
</g>
<g id="vacancies">
	<g>
		<defs>
			<rect id="SVGID_1_" x="-141.9" y="-463.7" width="148" height="191"/>
		</defs>
		<clipPath id="SVGID_2_">
			<use xlink:href="#SVGID_1_"  style="overflow:visible;"/>
		</clipPath>
		<g class="st0">
			<path class="st1" d="M135.3,193.5c-0.3,0.2-0.7,0.3-1,0.5c-6.3,2.7-11.5,6.8-15.4,12.5c-4.7,6.8-6.3,14.4-4.6,22.5
				c1.7,7.9,6.3,14,12.7,18.7c7.1,5.3,15.2,7.6,24.8,7.7c10.8-0.2,20.9-4,28.8-12.8c6.6-7.4,9.2-16,7.1-25.8
				c-2-9.1-7.5-15.8-15.3-20.6c-1.9-1.2-3.9-2.1-5.9-3c-0.9-0.4-1.1-0.9-0.4-1.7c0.4-0.5,0.9-0.9,1.4-1.4c4-4.2,6.1-9.2,6.2-14.9
				c0.2-10-4.6-17.1-13.3-21.6c-5.9-3.1-12.1-2.7-18.1-0.4c-5.8,2.2-9.6,6.6-12.3,12c-4,8.4-1.6,18.9,4.3,24.8
				c0.5,0.5,0.9,0.9,1.4,1.4C136.5,192.5,136.2,193.1,135.3,193.5z"/>
			<path class="st1" d="M125.6,169.7c-0.2,0-0.4,0-0.5,0c-0.6,0.3-1.1,0.6-1.7,0.9c-17.1,11-26.1,26.5-26.2,46.8
				c-0.1,14.7,5.2,27.3,15.5,37.7c10.5,10.6,23.2,16.1,38.3,16.1c9,0,17.3-1.9,25.2-5.9c2.2-1.1,2.2-1.2,3.9,0.6
				c5.1,5.3,10.1,10.7,15.2,16c3.6,3.8,7.2,7.6,10.9,11.3c2.6,2.6,5.8,3.5,9.4,2.2c3.7-1.3,5.9-4,6.5-7.9c0.5-3.2-0.8-5.9-3-8.2
				c-8.1-8.5-16.2-17.1-24.3-25.6c-1.8-1.9-1.8-1.9-0.2-4.1c6.5-8.8,10.1-18.7,10.9-29.6c0.2-3.2-0.1-6.4-0.2-9.6
				c-0.2-3.3-1-6.4-2-9.5c-2.5-7.1-5.8-13.8-11-19.5c-3.6-4-7.6-7.5-12-10.4c-1.2-0.8-2.5-1.5-3.6-2.1c-0.7,0.7-0.4,1.2-0.4,1.7
				c0.2,2,0.5,4.1,0.1,6c-0.4,2,0.4,3.1,2,4.3c10.2,8,16.5,18.3,17.7,31.5c0.5,5.3,0.4,10.7-1,15.9c-2.4,8.7-6.9,16.3-13.7,22.2
				c-13.7,11.8-29.3,14.7-46.3,8.4c-9.8-3.7-17.3-10.3-22.5-19.4c-3.4-6-5.5-12.4-5.9-19.3c-0.3-5-0.1-9.9,1.3-14.8
				c2.9-9.8,8.3-18,16.3-24.3c0.3-0.2,0.6-0.5,0.9-0.7c0.9-0.6,1.1-1.3,0.9-2.4c-0.5-2.4-0.5-4.7-0.1-7.1
				C125.8,170.7,126.1,170.2,125.6,169.7z"/>
		</g>
	</g>
</g>
<g id="Layer_12">
</g>
<g id="Layer_14">
</g>
<g id="vacancies_wide">
	<g>
		<defs>
			<rect id="SVGID_3_" width="313.3" height="265"/>
		</defs>
		<clipPath id="SVGID_4_">
			<use xlink:href="#SVGID_3_"  style="overflow:visible;"/>
		</clipPath>
		<g class="st2">
			<path class="st1" d="M131,191.1c-0.5,0.3-1.1,0.5-1.6,0.7c-10.2,4.4-18.7,11-24.9,20.2c-7.5,11.1-10.2,23.3-7.4,36.5
				c2.8,12.8,10.3,22.6,20.6,30.3c11.4,8.6,24.5,12.3,40.2,12.5c17.4-0.3,33.8-6.4,46.6-20.7c10.7-11.9,14.9-25.9,11.5-41.7
				c-3.2-14.8-12.1-25.5-24.8-33.4c-3-1.9-6.3-3.4-9.5-4.8c-1.5-0.6-1.8-1.5-0.6-2.7c0.7-0.7,1.5-1.5,2.2-2.2
				c6.5-6.7,9.9-14.9,10.1-24.1c0.4-16.2-7.5-27.6-21.6-35c-9.6-5-19.6-4.3-29.3-0.7c-9.3,3.5-15.6,10.6-19.9,19.5
				c-6.5,13.6-2.6,30.6,7,40.1c0.7,0.7,1.5,1.5,2.2,2.2C133,189.4,132.5,190.4,131,191.1z"/>
			<path class="st1" d="M115.3,152.6c-0.3,0-0.6,0-0.9,0.1c-0.9,0.5-1.9,0.9-2.7,1.5C84.1,171.9,69.5,197,69.2,230
				c-0.2,23.8,8.5,44.2,25.1,61.1c16.9,17.1,37.5,26,61.9,26.1c14.5,0,28-3.1,40.8-9.6c3.6-1.8,3.6-1.9,6.4,1
				c8.2,8.6,16.4,17.3,24.5,25.9c5.8,6.1,11.6,12.4,17.6,18.3c4.2,4.2,9.4,5.7,15.2,3.6c6-2.2,9.6-6.4,10.5-12.7
				c0.8-5.2-1.2-9.6-4.8-13.3c-13.1-13.8-26.2-27.6-39.3-41.4c-2.9-3.1-2.9-3.1-0.4-6.6c10.5-14.2,16.4-30.2,17.6-47.9
				c0.4-5.2-0.1-10.4-0.4-15.6c-0.3-5.3-1.6-10.4-3.3-15.3c-4-11.5-9.4-22.3-17.9-31.5c-5.9-6.4-12.2-12.1-19.5-16.8
				c-1.9-1.3-4-2.4-5.9-3.4c-1.2,1.1-0.7,2-0.6,2.8c0.3,3.3,0.7,6.6,0.1,9.8c-0.6,3.2,0.7,5,3.2,7c16.5,13,26.7,29.7,28.6,50.9
				c0.8,8.6,0.7,17.3-1.6,25.7c-3.9,14.1-11.1,26.4-22.2,35.9c-22.2,19.1-47.4,23.8-74.9,13.5c-15.9-5.9-28-16.7-36.4-31.4
				c-5.6-9.6-8.9-20.1-9.6-31.3c-0.5-8-0.2-16.1,2.1-23.9c4.6-15.9,13.4-29.1,26.5-39.3c0.5-0.4,0.9-0.8,1.4-1.1
				c1.5-0.9,1.8-2.1,1.4-3.8c-0.8-3.8-0.8-7.7-0.1-11.5C115.6,154.2,116.2,153.3,115.3,152.6z"/>
		</g>
	</g>
	<g>
		<defs>
			<rect id="SVGID_5_" width="313.3" height="265"/>
		</defs>
		<clipPath id="SVGID_6_">
			<use xlink:href="#SVGID_5_"  style="overflow:visible;"/>
		</clipPath>
	</g>
</g>
</svg>
