<?xml version="1.0" encoding="utf-8"?>
<!-- Generator: Adobe Illustrator 20.0.0, SVG Export Plug-In . SVG Version: 6.00 Build 0)  -->
<svg version="1.1" xmlns="http://www.w3.org/2000/svg" xmlns:xlink="http://www.w3.org/1999/xlink" x="0px" y="0px"
	 viewBox="0 0 314 265" style="enable-background:new 0 0 314 265;" xml:space="preserve">
<style type="text/css">
	.st0{opacity:0.66;}
	.st1{fill:#FFFFFF;}
	.st2{fill:#FAFCF7;}
	.st3{opacity:0.86;}
	.st4{clip-path:url(#SVGID_2_);}
	.st5{opacity:0.26;clip-path:url(#SVGID_4_);}
	.st6{clip-path:url(#SVGID_6_);fill:#FFFFFF;}
	.st7{opacity:0.24;clip-path:url(#SVGID_8_);}
	.st8{opacity:0.19;clip-path:url(#SVGID_10_);}
	.st9{opacity:0.68;clip-path:url(#SVGID_12_);}
	.st10{opacity:0.68;}
	.st11{clip-path:url(#SVGID_14_);}
	.st12{opacity:0.21;clip-path:url(#SVGID_16_);}
	.st13{clip-path:url(#SVGID_18_);fill:#FFFFFF;}
	.st14{opacity:0.18;clip-path:url(#SVGID_20_);}
	.st15{opacity:0.18;clip-path:url(#SVGID_22_);}
	.st16{fill:none;}
	.st17{fill:none;stroke:#FAFCF7;stroke-width:0;stroke-linecap:round;stroke-linejoin:round;}
	.st18{opacity:0.16;clip-path:url(#SVGID_24_);}
	.st19{opacity:0.18;clip-path:url(#SVGID_26_);}
	.st20{clip-path:url(#SVGID_26_);}
	.st21{fill:none;stroke:#000000;stroke-width:6;stroke-linecap:round;stroke-miterlimit:10;}
	.st22{opacity:0.18;clip-path:url(#SVGID_28_);}
	.st23{clip-path:url(#SVGID_28_);}
	.st24{opacity:0.16;clip-path:url(#SVGID_30_);}
	.st25{opacity:0.18;clip-path:url(#SVGID_32_);}
	.st26{opacity:0.22;clip-path:url(#SVGID_34_);}
	.st27{opacity:0.13;clip-path:url(#SVGID_34_);}
	.st28{opacity:0.12;clip-path:url(#SVGID_34_);}
	.st29{clip-path:url(#SVGID_36_);}
	.st30{clip-path:url(#SVGID_38_);}
	.st31{opacity:0.26;clip-path:url(#SVGID_40_);}
	.st32{clip-path:url(#SVGID_42_);fill:#FFFFFF;}
	.st33{clip-path:url(#SVGID_44_);}
	.st34{clip-path:url(#SVGID_46_);}
	.st35{opacity:0.21;clip-path:url(#SVGID_48_);}
	.st36{clip-path:url(#SVGID_50_);fill:#FFFFFF;}
	.st37{opacity:0.24;clip-path:url(#SVGID_52_);}
	.st38{opacity:0.19;clip-path:url(#SVGID_54_);}
</style>
<g id="Layer_1">
</g>
<g id="social">
</g>
<g id="profile">
	<defs>
		<rect id="SVGID_7_" x="-867.4" y="-465.1" width="148" height="191"/>
	</defs>
	<clipPath id="SVGID_2_">
		<use xlink:href="#SVGID_7_"  style="overflow:visible;"/>
	</clipPath>
</g>
<g id="need_to_know">
	<defs>
		<rect id="SVGID_9_" x="-689.6" y="-465.1" width="148" height="189.5"/>
	</defs>
	<clipPath id="SVGID_4_">
		<use xlink:href="#SVGID_9_"  style="overflow:visible;"/>
	</clipPath>
</g>
<g id="Layer_10">
</g>
<g id="events">
	<defs>
		<rect id="SVGID_11_" x="-1039.9" y="-465.1" width="148" height="191"/>
	</defs>
	<clipPath id="SVGID_6_">
		<use xlink:href="#SVGID_11_"  style="overflow:visible;"/>
	</clipPath>
</g>
<g id="publications">
	<defs>
		<rect id="SVGID_19_" x="-1401.7" y="-465.1" width="147.8" height="191"/>
	</defs>
	<clipPath id="SVGID_8_">
		<use xlink:href="#SVGID_19_"  style="overflow:visible;"/>
	</clipPath>
</g>
<g id="comm_centre">
	<defs>
		<rect id="SVGID_21_" x="-1574.7" y="-465.1" width="148" height="191"/>
	</defs>
	<clipPath id="SVGID_10_">
		<use xlink:href="#SVGID_21_"  style="overflow:visible;"/>
	</clipPath>
</g>
<g id="news">
	<defs>
		<rect id="SVGID_23_" x="-1747.8" y="-465.1" width="148" height="191"/>
	</defs>
	<clipPath id="SVGID_12_">
		<use xlink:href="#SVGID_23_"  style="overflow:visible;"/>
	</clipPath>
</g>
<g id="Layer_2">
</g>
<g id="vacancies">
	<defs>
		<rect id="SVGID_25_" x="-1928.7" y="-465.1" width="148" height="191"/>
	</defs>
	<clipPath id="SVGID_14_">
		<use xlink:href="#SVGID_25_"  style="overflow:visible;"/>
	</clipPath>
</g>
<g id="Layer_12">
</g>
<g id="Layer_14">
</g>
<g id="vacancies_wide">
	<defs>
		<rect id="SVGID_27_" x="-1786.8" y="-1.4" width="313.3" height="265"/>
	</defs>
	<clipPath id="SVGID_16_">
		<use xlink:href="#SVGID_27_"  style="overflow:visible;"/>
	</clipPath>
</g>
<g id="Layer_15">
	<defs>
		<rect id="SVGID_29_" x="-1418.4" y="-1.4" width="313.3" height="265"/>
	</defs>
	<clipPath id="SVGID_18_">
		<use xlink:href="#SVGID_29_"  style="overflow:visible;"/>
	</clipPath>
</g>
<g id="Community">
	<defs>
		<rect id="SVGID_31_" x="-1055.3" y="-1.4" width="313.3" height="265"/>
	</defs>
	<clipPath id="SVGID_20_">
		<use xlink:href="#SVGID_31_"  style="overflow:visible;"/>
	</clipPath>
</g>
<g id="Publications">
	<defs>
		<rect id="SVGID_33_" x="-696.4" y="-2.7" width="313.3" height="265"/>
	</defs>
	<clipPath id="SVGID_22_">
		<use xlink:href="#SVGID_33_"  style="overflow:visible;"/>
	</clipPath>
</g>
<g id="Social">
	<defs>
		<rect id="SVGID_35_" x="-343.4" y="-1.5" width="313.3" height="265"/>
	</defs>
	<clipPath id="SVGID_24_">
		<use xlink:href="#SVGID_35_"  style="overflow:visible;"/>
	</clipPath>
</g>
<g id="Events">
	<defs>
		<rect id="SVGID_43_" y="-1.4" width="314" height="265"/>
	</defs>
	<clipPath id="SVGID_26_">
		<use xlink:href="#SVGID_43_"  style="overflow:visible;"/>
	</clipPath>
	<g class="st20">
		<defs>
			
				<rect id="SVGID_45_" x="42.7" y="107.6" transform="matrix(0.9904 -0.1381 0.1381 0.9904 -25.7326 23.0296)" width="220.6" height="178.5"/>
		</defs>
		<clipPath id="SVGID_28_">
			<use xlink:href="#SVGID_45_"  style="overflow:visible;"/>
		</clipPath>
		<g class="st23">
			<defs>
				
					<rect id="SVGID_47_" x="42.7" y="107.6" transform="matrix(0.9904 -0.1381 0.1381 0.9904 -25.7326 23.0296)" width="220.6" height="178.5"/>
			</defs>
			<clipPath id="SVGID_30_">
				<use xlink:href="#SVGID_47_"  style="overflow:visible;"/>
			</clipPath>
			<g style="opacity:0.21;clip-path:url(#SVGID_30_);">
				<g>
					<defs>
						
							<rect id="SVGID_49_" x="20" y="91.2" transform="matrix(0.9904 -0.1381 0.1381 0.9904 -24.6976 22.8113)" width="263.9" height="196.4"/>
					</defs>
					<clipPath id="SVGID_32_">
						<use xlink:href="#SVGID_49_"  style="overflow:visible;"/>
					</clipPath>
					<path style="clip-path:url(#SVGID_32_);fill:#FFFFFF;" d="M261.9,259c0.1,1-0.6,2-1.7,2.2L67.5,288c-1.1,0.1-2-0.6-2.2-1.6
						L47.6,159.7l196.6-27.4L261.9,259z M237.1,95l-52.7,7.3l3,21.4c0.6,4.4-2.6,8.5-7.1,9.2c-4.5,0.6-8.7-2.5-9.3-6.9l-3-21.4
						l-60.1,8.4l3,21.4c0.6,4.4-2.5,8.5-7.1,9.2c-4.5,0.6-8.7-2.5-9.3-6.9l-3-21.4l-47.2,6.6c-7.1,1-12.1,7.4-11.1,14.4l21.1,151.6
						c1,6.9,7.5,11.8,14.6,10.8l192.8-26.9c7.1-1,12.1-7.5,11.1-14.4l-21.1-151.6C250.7,98.9,244.2,94.1,237.1,95"/>
					<path style="clip-path:url(#SVGID_32_);fill:#FFFFFF;" d="M73.9,189.7c4.2-0.6,7.2-4.4,6.6-8.6c-0.6-4.1-4.5-7-8.7-6.4
						s-7.2,4.4-6.6,8.6C65.8,187.4,69.7,190.3,73.9,189.7"/>
					<path style="clip-path:url(#SVGID_32_);fill:#FFFFFF;" d="M77.6,215.7c-4.2,0.6-7.2,4.4-6.6,8.6c0.6,4.1,4.5,7,8.7,6.4
						c4.2-0.6,7.2-4.4,6.6-8.6C85.7,218,81.8,215.1,77.6,215.7"/>
					<path style="clip-path:url(#SVGID_32_);fill:#FFFFFF;" d="M85.4,271.8c4.2-0.6,7.2-4.4,6.6-8.6c-0.6-4.1-4.5-7-8.7-6.4
						c-4.2,0.6-7.2,4.4-6.6,8.6C77.2,269.5,81.1,272.4,85.4,271.8"/>
					<path style="clip-path:url(#SVGID_32_);fill:#FFFFFF;" d="M113.6,184.2c4.2-0.6,7.2-4.4,6.6-8.6c-0.6-4.1-4.5-7-8.7-6.4
						s-7.2,4.4-6.6,8.6C105.4,181.9,109.3,184.8,113.6,184.2"/>
					<path style="clip-path:url(#SVGID_32_);fill:#FFFFFF;" d="M117.2,210.2c-4.2,0.6-7.2,4.4-6.6,8.6s4.5,7,8.7,6.4
						c4.2-0.6,7.2-4.4,6.6-8.6S121.4,209.6,117.2,210.2"/>
					<path style="clip-path:url(#SVGID_32_);fill:#FFFFFF;" d="M125,266.3c4.2-0.6,7.2-4.4,6.6-8.6c-0.6-4.1-4.5-7-8.7-6.4
						s-7.2,4.4-6.6,8.6C116.9,264,120.8,266.8,125,266.3"/>
					<path style="clip-path:url(#SVGID_32_);fill:#FFFFFF;" d="M150.5,179c4.2-0.6,7.2-4.4,6.6-8.6c-0.6-4.1-4.5-7-8.7-6.4
						c-4.2,0.6-7.2,4.4-6.6,8.6C142.4,176.7,146.3,179.6,150.5,179"/>
					<path style="clip-path:url(#SVGID_32_);fill:#FFFFFF;" d="M154.2,205c-4.2,0.6-7.2,4.4-6.6,8.6c0.6,4.1,4.5,7,8.7,6.4
						s7.2-4.4,6.6-8.6C162.3,207.3,158.4,204.4,154.2,205"/>
					<path style="clip-path:url(#SVGID_32_);fill:#FFFFFF;" d="M162,261.1c4.2-0.6,7.2-4.4,6.6-8.6c-0.6-4.1-4.5-7-8.7-6.4
						c-4.2,0.6-7.2,4.4-6.6,8.6C153.9,258.8,157.8,261.7,162,261.1"/>
					<path style="clip-path:url(#SVGID_32_);fill:#FFFFFF;" d="M187.5,173.9c4.2-0.6,7.2-4.4,6.6-8.6c-0.6-4.1-4.5-7-8.7-6.4
						c-4.2,0.6-7.2,4.4-6.6,8.6C179.4,171.6,183.3,174.5,187.5,173.9"/>
					<path style="clip-path:url(#SVGID_32_);fill:#FFFFFF;" d="M190.5,195.4c6.7-0.9,13,3.7,13.9,10.3c0.9,6.6-3.8,12.8-10.5,13.7
						c-6.7,0.9-13-3.7-13.9-10.3C179.1,202.5,183.8,196.3,190.5,195.4 M194.7,225.1c10-1.4,17-10.4,15.6-20.2
						c-1.4-9.8-10.6-16.6-20.6-15.2c-10,1.4-17,10.4-15.6,20.2C175.5,219.7,184.7,226.5,194.7,225.1"/>
					<path style="clip-path:url(#SVGID_32_);fill:#FFFFFF;" d="M193.2,214.9c4.2-0.6,7.2-4.4,6.6-8.6c-0.6-4.1-4.5-7-8.7-6.4
						s-7.2,4.4-6.6,8.6C185.1,212.6,189,215.5,193.2,214.9"/>
					<path style="clip-path:url(#SVGID_32_);fill:#FFFFFF;" d="M196.9,240.9c-4.2,0.6-7.2,4.4-6.6,8.6c0.6,4.1,4.5,7,8.7,6.4
						c4.2-0.6,7.2-4.4,6.6-8.6C205,243.2,201.1,240.3,196.9,240.9"/>
					<path style="clip-path:url(#SVGID_32_);fill:#FFFFFF;" d="M227.1,168.3c4.2-0.6,7.2-4.4,6.6-8.6c-0.6-4.1-4.5-7-8.7-6.4
						c-4.2,0.6-7.2,4.4-6.6,8.6C219,166,222.9,168.9,227.1,168.3"/>
					<path style="clip-path:url(#SVGID_32_);fill:#FFFFFF;" d="M232.9,209.4c4.2-0.6,7.2-4.4,6.6-8.6c-0.6-4.1-4.5-7-8.7-6.4
						s-7.2,4.4-6.6,8.6C224.7,207.1,228.6,210,232.9,209.4"/>
					<path style="clip-path:url(#SVGID_32_);fill:#FFFFFF;" d="M236.5,235.4c-4.2,0.6-7.2,4.4-6.6,8.6c0.6,4.1,4.5,7,8.7,6.4
						c4.2-0.6,7.2-4.4,6.6-8.6C244.6,237.7,240.7,234.8,236.5,235.4"/>
				</g>
			</g>
		</g>
	</g>
</g>
<g id="Profile">
	<defs>
		<rect id="SVGID_51_" x="398.6" y="-2" width="313.3" height="265"/>
	</defs>
	<clipPath id="SVGID_34_">
		<use xlink:href="#SVGID_51_"  style="overflow:visible;"/>
	</clipPath>
</g>
<g id="Need_to_know">
	<defs>
		<rect id="SVGID_53_" x="802.6" width="313.3" height="265"/>
	</defs>
	<clipPath id="SVGID_36_">
		<use xlink:href="#SVGID_53_"  style="overflow:visible;"/>
	</clipPath>
</g>
</svg>
