<?xml version="1.0" encoding="utf-8"?>
<!-- Generator: Adobe Illustrator 20.0.0, SVG Export Plug-In . SVG Version: 6.00 Build 0)  -->
<svg version="1.1" xmlns="http://www.w3.org/2000/svg" xmlns:xlink="http://www.w3.org/1999/xlink" x="0px" y="0px"
	 viewBox="0 0 314 265" style="enable-background:new 0 0 314 265;" xml:space="preserve">
<style type="text/css">
	.st0{opacity:0.66;}
	.st1{fill:#FFFFFF;}
	.st2{fill:#FAFCF7;}
	.st3{opacity:0.86;}
	.st4{clip-path:url(#SVGID_2_);}
	.st5{opacity:0.26;clip-path:url(#SVGID_4_);}
	.st6{clip-path:url(#SVGID_6_);fill:#FFFFFF;}
	.st7{opacity:0.24;clip-path:url(#SVGID_8_);}
	.st8{opacity:0.19;clip-path:url(#SVGID_10_);}
	.st9{opacity:0.68;clip-path:url(#SVGID_12_);}
	.st10{opacity:0.68;}
	.st11{clip-path:url(#SVGID_14_);}
	.st12{opacity:0.21;clip-path:url(#SVGID_16_);}
	.st13{clip-path:url(#SVGID_18_);fill:#FFFFFF;}
	.st14{opacity:0.18;clip-path:url(#SVGID_20_);}
	.st15{opacity:0.18;clip-path:url(#SVGID_22_);}
	.st16{fill:none;}
	.st17{fill:none;stroke:#FAFCF7;stroke-width:0;stroke-linecap:round;stroke-linejoin:round;}
	.st18{opacity:0.16;clip-path:url(#SVGID_24_);}
	.st19{opacity:0.18;clip-path:url(#SVGID_26_);}
	.st20{clip-path:url(#SVGID_26_);}
	.st21{fill:none;stroke:#000000;stroke-width:6;stroke-linecap:round;stroke-miterlimit:10;}
	.st22{opacity:0.18;clip-path:url(#SVGID_28_);}
	.st23{clip-path:url(#SVGID_28_);}
	.st24{opacity:0.16;clip-path:url(#SVGID_30_);}
	.st25{opacity:0.18;clip-path:url(#SVGID_32_);}
	.st26{opacity:0.22;clip-path:url(#SVGID_34_);}
	.st27{opacity:0.13;clip-path:url(#SVGID_34_);}
	.st28{opacity:0.12;clip-path:url(#SVGID_34_);}
	.st29{clip-path:url(#SVGID_36_);}
	.st30{clip-path:url(#SVGID_38_);}
	.st31{opacity:0.26;clip-path:url(#SVGID_40_);}
	.st32{clip-path:url(#SVGID_42_);fill:#FFFFFF;}
	.st33{clip-path:url(#SVGID_44_);}
	.st34{clip-path:url(#SVGID_46_);}
	.st35{opacity:0.21;clip-path:url(#SVGID_48_);}
	.st36{clip-path:url(#SVGID_50_);fill:#FFFFFF;}
	.st37{opacity:0.24;clip-path:url(#SVGID_52_);}
	.st38{opacity:0.19;clip-path:url(#SVGID_54_);}
</style>
<g id="Layer_1">
</g>
<g id="social">
</g>
<g id="profile">
	<defs>
		<rect id="SVGID_7_" x="188.3" y="-463.7" width="148" height="191"/>
	</defs>
	<clipPath id="SVGID_2_">
		<use xlink:href="#SVGID_7_"  style="overflow:visible;"/>
	</clipPath>
</g>
<g id="need_to_know">
	<defs>
		<rect id="SVGID_9_" x="366" y="-463.7" width="148" height="189.5"/>
	</defs>
	<clipPath id="SVGID_4_">
		<use xlink:href="#SVGID_9_"  style="overflow:visible;"/>
	</clipPath>
</g>
<g id="Layer_10">
</g>
<g id="events">
	<defs>
		<rect id="SVGID_11_" x="15.7" y="-463.7" width="148" height="191"/>
	</defs>
	<clipPath id="SVGID_6_">
		<use xlink:href="#SVGID_11_"  style="overflow:visible;"/>
	</clipPath>
</g>
<g id="publications">
	<defs>
		<rect id="SVGID_19_" x="-346.1" y="-463.7" width="147.8" height="191"/>
	</defs>
	<clipPath id="SVGID_8_">
		<use xlink:href="#SVGID_19_"  style="overflow:visible;"/>
	</clipPath>
</g>
<g id="comm_centre">
	<defs>
		<rect id="SVGID_21_" x="-519.1" y="-463.7" width="148" height="191"/>
	</defs>
	<clipPath id="SVGID_10_">
		<use xlink:href="#SVGID_21_"  style="overflow:visible;"/>
	</clipPath>
</g>
<g id="news">
	<defs>
		<rect id="SVGID_23_" x="-692.1" y="-463.7" width="148" height="191"/>
	</defs>
	<clipPath id="SVGID_12_">
		<use xlink:href="#SVGID_23_"  style="overflow:visible;"/>
	</clipPath>
</g>
<g id="Layer_2">
</g>
<g id="vacancies">
	<defs>
		<rect id="SVGID_25_" x="-873.1" y="-463.7" width="148" height="191"/>
	</defs>
	<clipPath id="SVGID_14_">
		<use xlink:href="#SVGID_25_"  style="overflow:visible;"/>
	</clipPath>
</g>
<g id="Layer_12">
</g>
<g id="Layer_14">
</g>
<g id="vacancies_wide">
	<defs>
		<rect id="SVGID_27_" x="-731.1" width="313.3" height="265"/>
	</defs>
	<clipPath id="SVGID_16_">
		<use xlink:href="#SVGID_27_"  style="overflow:visible;"/>
	</clipPath>
</g>
<g id="Layer_15">
	<defs>
		<rect id="SVGID_29_" x="-362.8" width="313.3" height="265"/>
	</defs>
	<clipPath id="SVGID_18_">
		<use xlink:href="#SVGID_29_"  style="overflow:visible;"/>
	</clipPath>
</g>
<g id="Community">
	<defs>
		<rect id="SVGID_31_" x="0.4" width="313.3" height="265"/>
	</defs>
	<clipPath id="SVGID_20_">
		<use xlink:href="#SVGID_31_"  style="overflow:visible;"/>
	</clipPath>
	<g class="st14">
		<path class="st16" d="M122.5,140.3c-19.6,4.4-38,15.1-51.7,31.9c-15.3,18.7-22.1,41.6-20.9,64c0.8-22.1,8.5-44.1,23.6-62.5
			C86.8,157.5,104,146.3,122.5,140.3z"/>
		<path class="st16" d="M127.3,341.1c39.6,16.5,87,6,115.6-28.9c28.6-34.9,29.5-83.4,5.5-118.9c17.8,35.8,14.2,80.1-12.7,113
			C208.7,339.3,165.8,351.5,127.3,341.1z"/>
		<path class="st16" d="M99.5,307.3c8.9,7.3,18.8,12.5,29.2,15.7c31.4,4.8,64.6-6.6,86.2-33c23.2-28.3,26.9-66.1,12.8-97.3
			c-4.8-7.4-10.8-14.1-17.9-20c-25.2-20.6-58.4-24.7-86.7-13.8c-13,6.1-24.8,15.1-34.5,27c-9.7,11.8-16.2,25.2-19.6,39.1
			C63.7,255,74.3,286.7,99.5,307.3z M212.9,265.8c-5,4.9-15.4,5.8-21.7,0.8c-1.7-1.3-6.6-38.9-4.8-42.1c9.5-17.8,19.6-3.2,26.6,13.1
			V265.8z M133.1,273.7c-4.8-6.1-1.2-27.3,1.7-34.3c6-14.9,10.9-25.1,29.3-20.6c21.2,5.2,20.3,20,22.2,41.6
			c-1.8,3.2-2.9,5.7-3.5,7.6c0,0,0,0,0,0c0,0,0,0,0-0.1c-0.2,0.8-0.4,1.5-0.4,2.1c0.2-0.2,0.3-0.5,0.5-0.8c-0.2,0.6-0.3,1.1-0.5,1.6
			c0.1,1.3,1,2.5,2.7,2.3c-0.1,1.3-0.9,0.9-2.2,3.9H138C135.6,274,133.8,274.7,133.1,273.7z M121.6,215.3c-7.7,0-13.9-6.4-13.8-14.2
			c0.1-7.8,6.1-13.9,13.7-13.9c7.7,0,13.8,6.2,13.8,14.2C135.3,209,129.2,215.3,121.6,215.3z M138.7,196.4
			c0.1-9.9,7.5-17.4,17.1-17.4c9.4,0,16.9,7.9,16.8,17.8c-0.1,9.5-7.8,17.1-17.2,17C146,213.7,138.6,206,138.7,196.4z M182.8,268.6
			c0,0,0,0.1,0,0.2C182.8,268.7,182.8,268.6,182.8,268.6z M182.8,268.9c0,0.2-0.1,0.3-0.1,0.3S182.8,269.1,182.8,268.9z
			 M182.8,268.2c0,0,0,0,0,0.1C182.8,268.3,182.8,268.2,182.8,268.2z M189.4,215.9c-7.6-0.1-13.9-6.7-13.7-14.4
			c0.2-7.6,6.5-13.8,14-13.7c7.5,0.1,13.7,6.5,13.7,14C203.3,209.6,197,216,189.4,215.9z M107.7,220.4c5-4.3,17.5-2.3,23.6-2.2
			c-1.9,0-2,77.2-29.9,44.3c-0.9-1.1-1.5-2.7-1.5-4.8v-13.6C99.9,234.2,104,223.6,107.7,220.4z"/>
		<path class="st1" d="M94.6,335.9c48,39.3,118.7,32.2,157.9-15.8c39.3-48,32.2-118.7-15.8-157.9c-12.2-10-26-17-40.3-21.1
			C152.7,115,95.1,124.1,61.8,164.8c-34.1,41.7-30.7,101.9,6.1,139.5C74.6,316.1,83.5,326.8,94.6,335.9z M248.3,193.3
			c24,35.6,23.1,84-5.5,118.9c-28.6,34.9-75.9,45.4-115.6,28.9c38.6,10.4,81.4-1.9,108.4-34.8C262.6,273.4,266.1,229.1,248.3,193.3z
			 M70.8,172.2c13.7-16.8,32.1-27.5,51.7-31.9c-18.6,6-35.7,17.2-49,33.4c-15.1,18.4-22.8,40.4-23.6,62.5
			C48.7,213.8,55.5,190.9,70.8,172.2z M68.9,225.1c3.4-13.9,9.9-27.3,19.6-39.1c9.7-11.8,21.5-20.9,34.5-27
			c28.3-11,61.5-6.8,86.7,13.8c7.2,5.9,13.1,12.6,17.9,20c14.1,31.2,10.4,69-12.8,97.3c-21.6,26.4-54.7,37.8-86.2,33
			c-10.4-3.2-20.3-8.5-29.2-15.7C74.3,286.7,63.7,255,68.9,225.1z"/>
		<path class="st2" d="M186.2,224.4c-1.7,3.2,3.4,40.8,5.1,42.1c6.4,5,16.6,4.1,21.6-0.8v-28.3C205.9,221.2,195.7,206.6,186.2,224.4
			z"/>
		<path class="st2" d="M99.9,257.8c0,2,0.5,3.7,1.4,4.8c27.8,32.9,28.1-44.4,30-44.3c-6.2-0.1-18.4-2.2-23.5,2.2
			c-3.7,3.2-7.9,13.8-7.9,23.8V257.8z"/>
		<path class="st2" d="M172.5,196.8c0.1-9.8-7.3-17.7-16.8-17.8c-9.6,0-17,7.5-17.1,17.4c-0.1,9.6,7.4,17.3,16.7,17.4
			C164.7,213.9,172.4,206.3,172.5,196.8z"/>
		<path class="st2" d="M121.5,187.2c-7.6,0-13.6,6.2-13.7,13.9c-0.1,7.8,6.2,14.2,13.8,14.2c7.6,0,13.7-6.3,13.7-14
			C135.3,193.4,129.2,187.1,121.5,187.2z"/>
		<path class="st2" d="M189.7,187.8c-7.5-0.1-13.8,6.1-14,13.7c-0.2,7.7,6.1,14.3,13.7,14.4c7.6,0.1,14-6.3,14-14.1
			C203.4,194.3,197.2,188,189.7,187.8z"/>
		<path class="st2" d="M184.9,273.1c-1.6,0.3-2.5-0.6-2.7-1.9c0.2-0.5,0.3-1.1,0.5-1.8c-0.2,0.3-0.3,0.4-0.5,0.7
			c0.1-0.6,0.2-1.3,0.4-2.1c0.6-1.9,1.8-4.5,3.5-7.6c-1.9-21.6-1-36.4-22.2-41.7c-18.4-4.5-23.3,5.5-29.3,20.4
			c-2.8,7-6.4,28.5-1.7,34.7c0.7,0.9,2.5,0.3,4.9,3.3h44.8C184.1,274,184.9,274.4,184.9,273.1z M181.5,272.7
			c0.1,0.3,0.4,0.4,0.7,0.5C180.6,273.4,180.8,273.9,181.5,272.7z"/>
	</g>
</g>
<g id="Publications">
	<defs>
		<rect id="SVGID_33_" x="359.2" y="-1.3" width="313.3" height="265"/>
	</defs>
	<clipPath id="SVGID_22_">
		<use xlink:href="#SVGID_33_"  style="overflow:visible;"/>
	</clipPath>
</g>
<g id="Social">
	<defs>
		<rect id="SVGID_35_" x="712.2" y="-0.1" width="313.3" height="265"/>
	</defs>
	<clipPath id="SVGID_24_">
		<use xlink:href="#SVGID_35_"  style="overflow:visible;"/>
	</clipPath>
</g>
<g id="Events">
	<defs>
		<rect id="SVGID_43_" x="1055.6" width="314" height="265"/>
	</defs>
	<clipPath id="SVGID_26_">
		<use xlink:href="#SVGID_43_"  style="overflow:visible;"/>
	</clipPath>
</g>
<g id="Profile">
	<defs>
		<rect id="SVGID_51_" x="1454.2" y="-0.6" width="313.3" height="265"/>
	</defs>
	<clipPath id="SVGID_28_">
		<use xlink:href="#SVGID_51_"  style="overflow:visible;"/>
	</clipPath>
</g>
<g id="Need_to_know">
	<defs>
		<rect id="SVGID_53_" x="1858.2" y="1.4" width="313.3" height="265"/>
	</defs>
	<clipPath id="SVGID_30_">
		<use xlink:href="#SVGID_53_"  style="overflow:visible;"/>
	</clipPath>
</g>
</svg>
