<?xml version="1.0" encoding="utf-8"?>
<!-- Generator: Adobe Illustrator 20.0.0, SVG Export Plug-In . SVG Version: 6.00 Build 0)  -->
<svg version="1.1" xmlns="http://www.w3.org/2000/svg" xmlns:xlink="http://www.w3.org/1999/xlink" x="0px" y="0px"
	 viewBox="0 0 314 265" style="enable-background:new 0 0 314 265;" xml:space="preserve">
<style type="text/css">
	.st0{opacity:0.66;}
	.st1{fill:#FFFFFF;}
	.st2{fill:#FAFCF7;}
	.st3{opacity:0.86;}
	.st4{clip-path:url(#SVGID_2_);}
	.st5{opacity:0.26;clip-path:url(#SVGID_4_);}
	.st6{clip-path:url(#SVGID_6_);fill:#FFFFFF;}
	.st7{opacity:0.24;clip-path:url(#SVGID_8_);}
	.st8{opacity:0.19;clip-path:url(#SVGID_10_);}
	.st9{opacity:0.68;clip-path:url(#SVGID_12_);}
	.st10{opacity:0.68;}
	.st11{clip-path:url(#SVGID_14_);}
	.st12{opacity:0.21;clip-path:url(#SVGID_16_);}
	.st13{clip-path:url(#SVGID_18_);fill:#FFFFFF;}
	.st14{opacity:0.18;clip-path:url(#SVGID_20_);}
	.st15{opacity:0.18;clip-path:url(#SVGID_22_);}
	.st16{fill:none;}
	.st17{fill:none;stroke:#FAFCF7;stroke-width:0;stroke-linecap:round;stroke-linejoin:round;}
	.st18{opacity:0.16;clip-path:url(#SVGID_24_);}
	.st19{opacity:0.18;clip-path:url(#SVGID_26_);}
	.st20{clip-path:url(#SVGID_26_);}
	.st21{fill:none;stroke:#000000;stroke-width:6;stroke-linecap:round;stroke-miterlimit:10;}
	.st22{opacity:0.18;clip-path:url(#SVGID_28_);}
	.st23{clip-path:url(#SVGID_28_);}
	.st24{opacity:0.16;clip-path:url(#SVGID_30_);}
	.st25{opacity:0.18;clip-path:url(#SVGID_32_);}
	.st26{opacity:0.22;clip-path:url(#SVGID_34_);}
	.st27{opacity:0.13;clip-path:url(#SVGID_34_);}
	.st28{opacity:0.12;clip-path:url(#SVGID_34_);}
	.st29{clip-path:url(#SVGID_36_);}
	.st30{clip-path:url(#SVGID_38_);}
	.st31{opacity:0.26;clip-path:url(#SVGID_40_);}
	.st32{clip-path:url(#SVGID_42_);fill:#FFFFFF;}
	.st33{clip-path:url(#SVGID_44_);}
	.st34{clip-path:url(#SVGID_46_);}
	.st35{opacity:0.21;clip-path:url(#SVGID_48_);}
	.st36{clip-path:url(#SVGID_50_);fill:#FFFFFF;}
	.st37{opacity:0.24;clip-path:url(#SVGID_52_);}
	.st38{opacity:0.19;clip-path:url(#SVGID_54_);}
</style>
<g id="Layer_1">
</g>
<g id="social">
</g>
<g id="profile">
	<defs>
		<rect id="SVGID_7_" x="-1265.6" y="-462.7" width="148" height="191"/>
	</defs>
	<clipPath id="SVGID_2_">
		<use xlink:href="#SVGID_7_"  style="overflow:visible;"/>
	</clipPath>
</g>
<g id="need_to_know">
	<defs>
		<rect id="SVGID_9_" x="-1087.8" y="-462.7" width="148" height="189.5"/>
	</defs>
	<clipPath id="SVGID_4_">
		<use xlink:href="#SVGID_9_"  style="overflow:visible;"/>
	</clipPath>
</g>
<g id="Layer_10">
</g>
<g id="events">
	<defs>
		<rect id="SVGID_11_" x="-1438.1" y="-462.7" width="148" height="191"/>
	</defs>
	<clipPath id="SVGID_6_">
		<use xlink:href="#SVGID_11_"  style="overflow:visible;"/>
	</clipPath>
</g>
<g id="publications">
	<defs>
		<rect id="SVGID_19_" x="-1799.9" y="-462.7" width="147.8" height="191"/>
	</defs>
	<clipPath id="SVGID_8_">
		<use xlink:href="#SVGID_19_"  style="overflow:visible;"/>
	</clipPath>
</g>
<g id="comm_centre">
	<defs>
		<rect id="SVGID_21_" x="-1973" y="-462.7" width="148" height="191"/>
	</defs>
	<clipPath id="SVGID_10_">
		<use xlink:href="#SVGID_21_"  style="overflow:visible;"/>
	</clipPath>
</g>
<g id="news">
	<defs>
		<rect id="SVGID_23_" x="-2146" y="-462.7" width="148" height="191"/>
	</defs>
	<clipPath id="SVGID_12_">
		<use xlink:href="#SVGID_23_"  style="overflow:visible;"/>
	</clipPath>
</g>
<g id="Layer_2">
</g>
<g id="vacancies">
	<defs>
		<rect id="SVGID_25_" x="-2326.9" y="-462.7" width="148" height="191"/>
	</defs>
	<clipPath id="SVGID_14_">
		<use xlink:href="#SVGID_25_"  style="overflow:visible;"/>
	</clipPath>
</g>
<g id="Layer_12">
</g>
<g id="Layer_14">
</g>
<g id="vacancies_wide">
	<defs>
		<rect id="SVGID_27_" x="-2185" y="1" width="313.3" height="265"/>
	</defs>
	<clipPath id="SVGID_16_">
		<use xlink:href="#SVGID_27_"  style="overflow:visible;"/>
	</clipPath>
</g>
<g id="Layer_15">
	<defs>
		<rect id="SVGID_29_" x="-1816.6" y="1" width="313.3" height="265"/>
	</defs>
	<clipPath id="SVGID_18_">
		<use xlink:href="#SVGID_29_"  style="overflow:visible;"/>
	</clipPath>
</g>
<g id="Community">
	<defs>
		<rect id="SVGID_31_" x="-1453.5" y="1" width="313.3" height="265"/>
	</defs>
	<clipPath id="SVGID_20_">
		<use xlink:href="#SVGID_31_"  style="overflow:visible;"/>
	</clipPath>
</g>
<g id="Publications">
	<defs>
		<rect id="SVGID_33_" x="-1094.6" y="-0.3" width="313.3" height="265"/>
	</defs>
	<clipPath id="SVGID_22_">
		<use xlink:href="#SVGID_33_"  style="overflow:visible;"/>
	</clipPath>
</g>
<g id="Social">
	<defs>
		<rect id="SVGID_35_" x="-741.6" y="0.9" width="313.3" height="265"/>
	</defs>
	<clipPath id="SVGID_24_">
		<use xlink:href="#SVGID_35_"  style="overflow:visible;"/>
	</clipPath>
</g>
<g id="Events">
	<defs>
		<rect id="SVGID_43_" x="-398.2" y="1" width="314" height="265"/>
	</defs>
	<clipPath id="SVGID_26_">
		<use xlink:href="#SVGID_43_"  style="overflow:visible;"/>
	</clipPath>
</g>
<g id="Profile">
	<defs>
		<rect id="SVGID_51_" x="0.4" y="0.4" width="313.3" height="265"/>
	</defs>
	<clipPath id="SVGID_28_">
		<use xlink:href="#SVGID_51_"  style="overflow:visible;"/>
	</clipPath>
	<g style="opacity:0.24;clip-path:url(#SVGID_28_);">
		<path class="st1" d="M157,184c-53.1,0-96.2,37.3-96.2,83.4h192.4C253.2,221.4,210.1,184,157,184z M207.5,230.3
			c-3.6,12.2-12,20-23.7,24.5c-1.5,0.6-3.7,0.4-5.1-0.2c-12-5.2-20.6-13.4-23.1-26.8c-1.2-6.5,1.9-13,7.2-15.5
			c6.3-2.9,13.5-1.4,17.9,3.7c0.3,0.3,0.6,0.6,1,1.1c4.2-5,9.3-7.3,15.7-5.9C205.9,213.2,210.2,221,207.5,230.3z"/>
		<g>
			<path class="st1" d="M154.7,176.5c24.4,0,44.1-19.8,44.1-44.1s-19.8-44.1-44.1-44.1c-24.4,0-44.1,19.8-44.1,44.1
				S130.4,176.5,154.7,176.5z M134.6,126.7c1-0.2,2-0.4,3-0.6c0.2-0.1,0.5-0.3,1-0.5c-1.4-2.1-2.6-4.1-4-6c-1.1-1.6-1-2.8,0.4-4.1
				c5.4-5.2,4-5.1,9.9-1.1c3.4,2.3,3.4,2.3,4.2-1.8c1.3-6.7,0.3-6,7.2-6.1c2.2,0,3.4,0.6,3.6,2.9c0.3,2.2,0.8,4.5,1.3,7
				c1-0.6,1.9-1.1,2.7-1.6c1.3-0.8,2.6-1.6,3.8-2.5c1.4-1,2.6-1,3.9,0.3c5.3,5.5,5.3,4.1,1.1,10.2c-0.6,0.9-1.2,1.8-2.1,3.2
				c2.6,0.5,4.7,0.9,6.9,1.3c2.7,0.5,3.3,1.1,3.3,3.8c0.1,6,0.1,6-5.6,7c-1.3,0.2-2.7,0.6-4.5,1c1.3,2,2.4,3.8,3.6,5.5
				c2,3,2,3.1-0.5,5.6c-4.1,4.1-3.7,4.3-8.6,0.8c-0.5-0.3-0.9-0.6-1.4-0.9c-2.5-1.7-2.7-1.6-3.2,1.5c-0.3,1.6-0.6,3.1-0.8,4.7
				c-0.2,1.5-1,2.2-2.5,2.2c-1.7,0-3.5,0.2-5.2-0.1c-0.8-0.1-1.9-1.1-2.2-1.9c-0.6-1.9-1-3.9-1.2-5.9c-0.2-2.1-1.1-1.9-2.4-0.9
				c-1.5,1.1-3.1,2.1-4.6,3.1c-1.3,0.9-2.5,0.8-3.7-0.4c-5.9-5.8-5.1-4.1-1.2-10.1c0.6-0.9,1.2-1.8,2.1-3.2c-2.5-0.5-4.6-1-6.8-1.4
				c-3-0.6-3.3-0.9-3.3-3.9C128.6,127.4,128.1,127.8,134.6,126.7z"/>
			<path class="st1" d="M154.7,141.3c4.9,0,9.1-4.1,9.1-8.8c0-4.8-4.2-9-9-9.1c-4.9,0-9.3,4.3-9.2,9
				C145.7,137.4,149.8,141.3,154.7,141.3z"/>
		</g>
	</g>
</g>
<g id="Need_to_know">
	<defs>
		<rect id="SVGID_53_" x="404.4" y="2.4" width="313.3" height="265"/>
	</defs>
	<clipPath id="SVGID_30_">
		<use xlink:href="#SVGID_53_"  style="overflow:visible;"/>
	</clipPath>
</g>
</svg>
