<svg id="Layer_1" data-name="Layer 1" xmlns="http://www.w3.org/2000/svg" viewBox="0 0 123.7 42.3"><defs><style>.cls-1,.cls-2{fill:#fff;}.cls-2{opacity:0.85;isolation:isolate;}</style></defs><title>south-australia-logotype--reversed</title><path class="cls-1" d="M115,33.4V27.6h4.8v5.8h3.9V18.7h-3.9v5.4H115V18.7h-4V33.4Zm-4.6-14.7H98.9V22h3.7V33.4h3.9V22h3.8V18.7Zm-32.8-.3c-4.5,0-7.3,3.4-7.3,7.7,0,4.1,2.5,7.5,7.1,7.5h0c4.5,0,7.3-3,7.3-7.7.1-4-2.3-7.5-7.1-7.5m0,12.1h0c-1.9,0-3.1-1.8-3.1-4.5,0-2.5,1.2-4.5,3.1-4.5s3,1.9,3,4.4c0,2.8-1.1,4.6-3,4.6M94.3,27c0,2.3-.8,3.5-2.3,3.5s-2.3-1.2-2.3-3.5V18.7H85.8v8c0,4.7,2.1,6.9,6.1,6.9s6.4-2.3,6.4-6.8V18.7H94.4V27ZM63.7,30.4a9.65,9.65,0,0,1-3.8-.9l-.7,3.2a10.65,10.65,0,0,0,4.3.9c4.3,0,6.3-2.2,6.3-4.7,0-2-1.2-3.4-3.8-4.4-1.9-.7-2.6-1-2.6-1.7s.7-1.1,1.9-1.1a7.59,7.59,0,0,1,3.2.7l.8-3.2a10.25,10.25,0,0,0-4-.7c-3.7,0-5.9,2-5.9,4.6,0,2.2,1.6,3.5,4.1,4.4,1.7.6,2.3,1,2.3,1.7s-.8,1.2-2.1,1.2M61.9,36l-2.1,6.2h.8l.6-2h2.2l.7,2H65L62.9,36Zm-.4,3.6.6-1.8c.1-.4.2-.8.3-1.1h0c.1.4.2.7.3,1.1l.6,1.8Zm10.5.1c0,1.4-.6,2-1.5,2s-1.4-.6-1.4-2V36h-.8v3.6c0,1.9,1,2.6,2.2,2.6s2.3-.8,2.3-2.7V36H72Zm6.7-1c-.9-.3-1.2-.6-1.2-1.2,0-.4.3-.9,1.2-.9a2.54,2.54,0,0,1,1.2.3l.2-.7a3.66,3.66,0,0,0-1.4-.3,1.77,1.77,0,0,0-2,1.7c0,.9.6,1.4,1.6,1.7.8.3,1.2.6,1.2,1.2a1.17,1.17,0,0,1-1.3,1.1,2.59,2.59,0,0,1-1.4-.4l-.2.7a3.41,3.41,0,0,0,1.6.4c1.5,0,2.2-.8,2.2-1.8a2.38,2.38,0,0,0-1.7-1.8m15.4.6h0a1.74,1.74,0,0,0,1.2-1.6,1.66,1.66,0,0,0-.5-1.2A2.29,2.29,0,0,0,93,36c-.5,0-1.1.1-1.5.1v6.1h.8V39.5H93q1,0,1.2,1.2a12.68,12.68,0,0,0,.4,1.5h.8a9.42,9.42,0,0,1-.5-1.7,1.13,1.13,0,0,0-.8-1.2m-1-.4h-.8V36.6a5.38,5.38,0,0,1,.8-.1c.8,0,1.4.3,1.4,1.1a1.24,1.24,0,0,1-1.4,1.3m7.6-2.9-2.1,6.2h.8l.6-2h2.2l.7,2h.9L101.7,36Zm-.4,3.6.6-1.8c.1-.4.2-.8.3-1.1h0c.1.4.2.7.3,1.1l.6,1.8Zm7.8-3.6h-.8v6.2h3.5v-.7h-2.6V36Zm-24.7.7h1.9v5.5h.8V36.7H88V36H83.4Zm38.2-.7h-1l-2.1,6.2h.8l.6-2h2.2l.7,2h.9Zm-1.5,3.6.6-1.8c.1-.4.2-.8.3-1.1h0c.1.4.2.7.3,1.1l.6,1.8Zm-6,2.6h.8V36h-.8Z"/><polygon class="cls-1" points="56.9 20.6 25.3 0.9 0 16.7 7.5 39.9 20.2 32 20.2 18.7 36.7 18.7 36.7 38.3 46.8 42.2 56.9 20.6"/><polygon class="cls-1" points="35.4 20 21.5 20 21.5 32.5 22.3 32.8 22.3 21.8 32.4 21.8 32.4 36.7 35.4 37.8 35.4 20"/><polygon class="cls-1" points="23.6 23.1 23.6 25 28.7 25 28.7 35.3 31.1 36.2 31.1 23.1 23.6 23.1"/><polygon class="cls-2" points="46.8 0 41 10.7 56.9 20.6 46.8 0"/></svg>