<?xml version="1.0" encoding="utf-8"?>
<!-- Generator: Adobe Illustrator 20.0.0, SVG Export Plug-In . SVG Version: 6.00 Build 0)  -->
<svg version="1.1" id="Layer_1" xmlns="http://www.w3.org/2000/svg" xmlns:xlink="http://www.w3.org/1999/xlink" x="0px" y="0px"
	 viewBox="0 0 123.7 44.6" style="enable-background:new 0 0 123.7 44.6;" xml:space="preserve">
<style type="text/css">
	.Arched_x0020_Green{fill:url(#SVGID_1_);stroke:#FFFFFF;stroke-width:0.25;stroke-miterlimit:1;}
	.st0{fill:none;}
	.st1{fill:#FFFFFF;}
	.st2{opacity:0.85;fill:#FFFFFF;}
	.st3{fill:#104480;}
	.st4{fill:#888688;}
	.st5{fill:#E40F43;}
	.st6{fill:#F9B006;}
	.st7{fill:#666666;}
	.st8{fill:#E30613;}
	.st9{fill:#EF7900;}
	.st10{fill:#FCBF00;}
	.st11{fill:#B51F1F;}
</style>
<linearGradient id="SVGID_1_" gradientUnits="userSpaceOnUse" x1="-12.2803" y1="-0.8081" x2="-11.5732" y2="-1.5152">
	<stop  offset="0" style="stop-color:#1DA238"/>
	<stop  offset="0.9831" style="stop-color:#24391D"/>
</linearGradient>
<g>
	<path class="st0" d="M101.2,36.9L101.2,36.9c-0.1,0.4-0.2,0.7-0.3,1.1l-0.6,1.8h1.9l-0.6-1.8C101.4,37.6,101.3,37.2,101.2,36.9z"/>
	<path class="st0" d="M77.6,21.7c-1.9,0-3.1,1.9-3.1,4.5c0,2.6,1.2,4.5,3.1,4.5h0c1.9,0,3-1.8,3-4.5C80.6,23.6,79.5,21.7,77.6,21.7z
		"/>
	<path class="st0" d="M62.4,36.9L62.4,36.9c-0.1,0.4-0.2,0.7-0.3,1.1l-0.6,1.8h1.9L62.7,38C62.6,37.6,62.5,37.2,62.4,36.9z"/>
	<path class="st0" d="M93.1,36.7c-0.4,0-0.7,0-0.8,0.1v2.3h0.8c0.9,0,1.4-0.5,1.4-1.2C94.5,37.1,93.9,36.7,93.1,36.7z"/>
	<path class="st0" d="M121.1,36.9L121.1,36.9c-0.1,0.4-0.2,0.7-0.3,1.1l-0.6,1.8h1.9l-0.6-1.8C121.2,37.6,121.1,37.2,121.1,36.9z"/>
	<path class="st7" d="M94.1,39.4L94.1,39.4c0.6-0.2,1.2-0.8,1.2-1.6c0-0.5-0.2-0.9-0.5-1.2c-0.4-0.4-0.9-0.5-1.8-0.5
		c-0.5,0-1.1,0.1-1.5,0.1v6.1h0.8v-2.7H93c0.7,0,1.1,0.4,1.2,1.2c0.2,0.8,0.3,1.3,0.4,1.5h0.8c-0.1-0.2-0.3-0.8-0.5-1.7
		C94.9,40,94.6,39.6,94.1,39.4z M93.1,39.1h-0.8v-2.3c0.1,0,0.4-0.1,0.8-0.1c0.8,0,1.4,0.3,1.4,1.1C94.5,38.6,93.9,39.1,93.1,39.1z"
		/>
	<path class="st7" d="M94.3,27.2c0,2.3-0.8,3.5-2.3,3.5c-1.5,0-2.3-1.2-2.3-3.5v-8.3h-3.9v8c0,4.7,2.1,6.9,6.1,6.9
		c4.1,0,6.4-2.3,6.4-6.8v-8.1h-3.9V27.2z"/>
	<path class="st7" d="M78.7,38.8c-0.9-0.3-1.2-0.6-1.2-1.2c0-0.4,0.3-0.9,1.2-0.9c0.6,0,1,0.2,1.2,0.3l0.2-0.7
		c-0.3-0.1-0.7-0.3-1.4-0.3c-1.2,0-2,0.7-2,1.7c0,0.9,0.6,1.4,1.6,1.7c0.8,0.3,1.2,0.6,1.2,1.2c0,0.6-0.5,1.1-1.3,1.1
		c-0.6,0-1.1-0.2-1.4-0.4L76.5,42c0.3,0.2,1,0.4,1.6,0.4c1.5,0,2.2-0.8,2.2-1.8C80.2,39.7,79.7,39.3,78.7,38.8z"/>
	<polygon class="st7" points="83.4,36.8 85.3,36.8 85.3,42.4 86.1,42.4 86.1,36.8 88,36.8 88,36.2 83.4,36.2 	"/>
	<path class="st7" d="M100.7,36.2l-2.1,6.2h0.8l0.6-2h2.2l0.7,2h0.9l-2.1-6.2H100.7z M100.3,39.8l0.6-1.8c0.1-0.4,0.2-0.8,0.3-1.1h0
		c0.1,0.4,0.2,0.7,0.3,1.1l0.6,1.8H100.3z"/>
	<path class="st7" d="M77.6,18.6c-4.5,0-7.3,3.4-7.3,7.7c0,4.1,2.5,7.5,7.1,7.5h0c4.5,0,7.3-3,7.3-7.7
		C84.8,22.1,82.4,18.6,77.6,18.6z M77.6,30.6L77.6,30.6c-1.9,0-3.1-1.8-3.1-4.5c0-2.5,1.2-4.5,3.1-4.5c1.9,0,3,1.9,3,4.4
		C80.6,28.8,79.5,30.6,77.6,30.6z"/>
	<path class="st7" d="M120.6,36.2l-2.1,6.2h0.8l0.6-2h2.2l0.7,2h0.9l-2.1-6.2H120.6z M120.1,39.8l0.6-1.8c0.1-0.4,0.2-0.8,0.3-1.1h0
		c0.1,0.4,0.2,0.7,0.3,1.1l0.6,1.8H120.1z"/>
	<polygon class="st7" points="119.7,18.8 119.7,24.3 115,24.3 115,18.8 111,18.8 111,33.5 115,33.5 115,27.7 119.7,27.7 119.7,33.5 
		123.7,33.5 123.7,18.8 	"/>
	<rect x="114.1" y="36.2" class="st7" width="0.8" height="6.2"/>
	<polygon class="st7" points="108.1,36.2 107.3,36.2 107.3,42.4 110.8,42.4 110.8,41.7 108.1,41.7 	"/>
	<polygon class="st7" points="110.4,18.8 98.9,18.8 98.9,22.1 102.6,22.1 102.6,33.5 106.6,33.5 106.6,22.1 110.4,22.1 	"/>
	<path class="st7" d="M72,39.8c0,1.4-0.6,2-1.5,2c-0.8,0-1.4-0.6-1.4-2v-3.7h-0.8v3.6c0,1.9,1,2.6,2.2,2.6c1.3,0,2.3-0.8,2.3-2.7
		v-3.6H72V39.8z"/>
	<path class="st7" d="M61.9,36.2l-2.1,6.2h0.8l0.6-2h2.2l0.7,2H65l-2.1-6.2H61.9z M61.5,39.8l0.6-1.8c0.1-0.4,0.2-0.8,0.3-1.1h0
		c0.1,0.4,0.2,0.7,0.3,1.1l0.6,1.8H61.5z"/>
	<path class="st7" d="M65.9,24.6c-1.9-0.7-2.6-1-2.6-1.7c0-0.7,0.7-1.1,1.9-1.1c1.5,0,2.5,0.4,3.2,0.7l0.8-3.2c-1-0.4-2.2-0.7-4-0.7
		c-3.7,0-5.9,2-5.9,4.6c0,2.2,1.6,3.5,4.1,4.4c1.7,0.6,2.3,1,2.3,1.7c0,0.7-0.6,1.2-2,1.2c-1.5,0-2.9-0.5-3.8-0.9l-0.7,3.2
		c0.8,0.4,2.5,0.9,4.3,0.9c4.3,0,6.3-2.2,6.3-4.7C69.7,27,68.5,25.6,65.9,24.6z"/>
	<polygon class="st8" points="41,10.8 25.3,1 0,16.9 7.5,40 20.2,32.1 20.2,18.8 36.7,18.8 36.7,38.5 46.8,42.4 56.9,20.8 41,10.9 	
		"/>
	<polygon class="st9" points="21.5,32.6 22.3,33 22.3,22 32.4,22 32.4,36.8 35.4,38 35.4,20.1 21.5,20.1 	"/>
	<polygon class="st10" points="23.6,25.1 28.7,25.1 28.7,35.4 31.1,36.3 31.1,23.3 23.6,23.3 	"/>
	<polygon class="st11" points="41,10.8 41,10.9 56.9,20.8 46.8,0.1 	"/>
</g>
</svg>
