<?xml version="1.0" encoding="utf-8"?>
<!-- Generator: Adobe Illustrator 16.0.0, SVG Export Plug-In . SVG Version: 6.00 Build 0)  -->
<!DOCTYPE svg PUBLIC "-//W3C//DTD SVG 1.1//EN" "http://www.w3.org/Graphics/SVG/1.1/DTD/svg11.dtd">
<svg version="1.1" id="Layer_1" xmlns="http://www.w3.org/2000/svg" xmlns:xlink="http://www.w3.org/1999/xlink" x="0px" y="0px"
	 width="175px" height="60px" viewBox="-241.5 84.5 175 60" enable-background="new -241.5 84.5 175 60" xml:space="preserve">
<path fill="#878787" d="M-78.835,131.798v-8.215h6.752v8.215h5.58v-20.816h-5.58v7.721h-6.752v-7.721h-5.578v20.816
	 M-85.321,110.981h-16.276v4.696h5.303v16.12h5.58v-16.12h5.394V110.981z M-131.63,110.642c-6.379,0-10.328,4.818-10.328,10.871
	c0,5.776,3.549,10.625,9.991,10.625h0.029c6.381,0,10.39-4.262,10.39-10.965C-121.548,115.614-124.939,110.642-131.63,110.642
	 M-131.691,127.723h-0.061c-2.683,0-4.344-2.597-4.313-6.333c0-3.611,1.634-6.33,4.313-6.33c2.715,0,4.315,2.719,4.315,6.299
	C-127.437,125.126-129.009,127.723-131.691,127.723 M-108.085,122.812c0,3.303-1.08,4.911-3.298,4.911
	c-2.19,0-3.27-1.762-3.27-4.911v-11.828h-5.578v11.366c0,6.67,3.022,9.79,8.693,9.79c5.827,0,9.031-3.244,9.031-9.67v-11.486h-5.579
	V122.812z M-151.425,127.535c-2.097,0-4.131-0.649-5.396-1.299l-1.049,4.606c1.176,0.616,3.609,1.263,6.104,1.263
	c6.072,0,8.847-3.057,8.847-6.641c0-2.902-1.664-4.879-5.394-6.27c-2.62-0.986-3.73-1.389-3.73-2.438
	c0-0.926,0.925-1.543,2.621-1.543c2.063,0,3.604,0.586,4.501,0.988l1.169-4.479c-1.357-0.586-3.143-1.05-5.61-1.05
	c-5.24,0-8.352,2.842-8.352,6.516c0,3.09,2.343,5.003,5.856,6.27c2.344,0.804,3.267,1.36,3.267,2.378
	C-148.59,126.886-149.512,127.535-151.425,127.535 M-153.839,135.568l-2.981,8.789h1.173l0.911-2.764h3.109l0.938,2.764h1.208
	l-2.99-8.789H-153.839z M-154.503,140.705l0.859-2.542c0.168-0.534,0.312-1.084,0.429-1.591h0.04
	c0.129,0.507,0.259,1.029,0.441,1.601l0.873,2.53h-2.643V140.705z M-139.601,140.785c0,1.927-0.847,2.791-2.136,2.791
	c-1.172,0-2.044-0.835-2.044-2.791v-5.22h-1.145v5.18c0,2.738,1.353,3.755,3.149,3.755c1.897,0,3.317-1.098,3.317-3.797v-5.138
	h-1.145v5.22H-139.601z M-130.193,139.377c-1.211-0.472-1.744-0.876-1.744-1.683c0-0.602,0.456-1.318,1.652-1.318
	c0.794,0,1.379,0.247,1.653,0.418l0.312-0.941c-0.377-0.208-1.041-0.416-1.927-0.416c-1.703,0-2.836,1.016-2.836,2.386
	c0,1.228,0.887,1.981,2.316,2.479c1.186,0.443,1.652,0.926,1.652,1.747c0,0.888-0.677,1.485-1.836,1.485
	c-0.781,0-1.508-0.246-2.016-0.562l-0.3,0.942c0.468,0.311,1.392,0.572,2.237,0.572c2.068,0,3.059-1.187,3.059-2.53
	C-127.969,140.666-128.71,139.961-130.193,139.377 M-108.316,140.171v-0.04c0.913-0.314,1.652-1.081,1.652-2.229
	c0-0.693-0.26-1.292-0.69-1.672c-0.546-0.496-1.339-0.729-2.552-0.729c-0.766,0-1.598,0.077-2.17,0.196v8.658h1.133v-3.807h1.065
	c1.029,0.037,1.508,0.495,1.771,1.707c0.235,1.097,0.431,1.839,0.571,2.1h1.17c-0.166-0.34-0.376-1.188-0.661-2.412
	C-107.25,141.032-107.651,140.407-108.316,140.171 M-109.788,139.689h-1.155v-3.197c0.195-0.053,0.571-0.104,1.118-0.104
	c1.197,0,2.018,0.495,2.018,1.628C-107.808,139.022-108.576,139.689-109.788,139.689 M-98.957,135.568l-2.982,8.789h1.173
	l0.909-2.764h3.111l0.936,2.764h1.213l-2.992-8.789H-98.957z M-99.62,140.705l0.856-2.542c0.17-0.534,0.312-1.084,0.43-1.591h0.039
	c0.131,0.507,0.259,1.029,0.441,1.601l0.872,2.53h-2.639V140.705z M-88.508,135.568h-1.146v8.789h4.895v-0.954h-3.748V135.568z
	 M-123.479,136.533h2.668v7.824h1.146v-7.824h2.681v-0.965h-6.495V136.533z M-69.493,135.568h-1.365l-2.981,8.789h1.173l0.91-2.764
	h3.11l0.938,2.764h1.209L-69.493,135.568z M-71.524,140.705l0.859-2.542c0.171-0.534,0.312-1.084,0.43-1.591h0.04
	c0.131,0.507,0.26,1.029,0.443,1.601l0.871,2.53h-2.644V140.705z M-79.97,144.357h1.145v-8.789h-1.145V144.357z"/>
<polyline fill="#E30613" points="-161.024,113.755 -205.684,85.801 -241.5,108.222 -230.846,141.068 -212.948,129.867
	-212.948,129.868 -212.948,110.983 -189.574,110.983 -189.574,138.854 -175.268,144.357 "/>
<polyline fill="#EF7900" points="-191.412,112.822 -211.113,112.822 -211.113,130.572 -209.941,131.021 -209.941,115.453
	-195.611,115.453 -195.611,136.533 -191.408,138.149 "/>
<polyline fill="#FCBF00" points="-208.104,117.294 -208.104,119.924 -200.864,119.924 -200.864,134.514 -197.45,135.827
	-197.45,117.294 "/>
<polyline fill="#B51F1F" points="-175.268,84.5 -183.478,99.701 -161.023,113.755 "/>
</svg>
