<?xml version="1.0" encoding="utf-8"?>
<!-- Generator: Adobe Illustrator 21.0.0, SVG Export Plug-In . SVG Version: 6.00 Build 0)  -->
<svg version="1.1" id="Layer_1" xmlns="http://www.w3.org/2000/svg" xmlns:xlink="http://www.w3.org/1999/xlink" x="0px" y="0px"
	 width="36px" height="181.53px" viewBox="0 0 36 181.53" enable-background="new 0 0 36 181.53" xml:space="preserve">
<path fill="#FFFFFF" d="M26.75,13.48c0.01,0.19,0.01,0.39,0.01,0.59c0,6.01-4.54,12.93-12.84,12.93C11.37,27,9,26.25,7,24.96
	c0.35,0.04,0.71,0.06,1.08,0.06c2.11,0,4.06-0.73,5.61-1.94c-1.98-0.04-3.64-1.35-4.22-3.16c0.28,0.06,0.56,0.09,0.85,0.09
	c0.41,0,0.81-0.05,1.19-0.16c-2.07-0.42-3.62-2.25-3.62-4.45v-0.06c0.61,0.34,1.31,0.55,2.04,0.57c-1.21-0.82-2.01-2.21-2.01-3.78
	c0-0.84,0.22-1.62,0.61-2.29c2.23,2.75,5.55,4.56,9.3,4.75c-0.07-0.33-0.11-0.68-0.11-1.03c0-2.51,2.02-4.55,4.51-4.55
	c1.3,0,2.47,0.55,3.29,1.44c1.03-0.2,2-0.58,2.87-1.1c-0.34,1.06-1.05,1.95-1.98,2.52c0.91-0.11,1.78-0.35,2.59-0.72
	c-0.6,0.91-1.37,1.71-2.25,2.35 M21.6,54.01h-3.08V65h-4.57V54.01h-2.17v-3.88h2.17v-2.51c0-1.8,0.85-4.61,4.61-4.61l3.38,0.01v3.77
	h-2.46c-0.4,0-0.97,0.2-0.97,1.06v2.28H22L21.6,54.01L21.6,54.01z M29,100H7V87.07c0-0.09,0.06-0.21,0.13-0.26l1.31-1.01
	c0.04-0.03,0.08-0.05,0.11-0.06v-5.63h7.29c0.02-0.02,0.03-0.04,0.06-0.06l2.1-1.62l2.1,1.62c0.03,0.02,0.04,0.04,0.06,0.06h7.31
	v5.64c0.03,0.01,0.06,0.03,0.1,0.05l1.31,1.01c0.07,0.05,0.13,0.17,0.13,0.26L29,100L29,100z M11.41,83.01h4.4v4.4h-4.4
	C11.42,87.41,11.42,83.01,11.41,83.01z M17.09,86.31h3.04v0.81h-3.04V86.31z M17.09,84.66h7.44v0.81h-7.45L17.09,84.66L17.09,84.66z
	 M17.09,83.01h7.44v0.81h-7.45L17.09,83.01L17.09,83.01z M10.06,89.47L18,93.74l7.7-4.14c0.14-0.07,0.25-0.26,0.25-0.42v-7.85H10.06
	L10.06,89.47L10.06,89.47z M29,129.65c-0.02,0.1-0.05,0.19-0.07,0.29c-0.29,1.19-1.26,1.96-2.51,1.98c-0.27,0-0.54,0-0.83,0
	c0,0.11,0,0.19,0,0.28c-0.01,0.86,0.01,1.71-0.04,2.57c-0.05,0.81-0.47,1.44-1.17,1.84c-0.33,0.19-0.72,0.27-1.09,0.4H12.72
	c-0.23-0.05-0.46-0.1-0.68-0.17c-0.85-0.27-1.59-1.19-1.63-2.08c-0.03-0.85-0.02-1.7-0.03-2.55v-0.27c-0.28,0-0.53,0-0.79,0
	c-1.24-0.02-2.22-0.79-2.51-1.98c-0.02-0.1-0.05-0.19-0.07-0.29v-5.63c0.01-0.03,0.03-0.06,0.04-0.09c0.19-1.12,0.97-1.92,2.09-2.11
	c0.33-0.06,0.67-0.04,1.01-0.04c0.19,0,0.25-0.04,0.24-0.24c-0.01-1.29-0.01-2.59,0-3.89c0.01-1.03,0.41-1.84,1.34-2.33
	c0.31-0.16,0.67-0.22,1.01-0.33h10.57c0.04,0.01,0.08,0.04,0.12,0.04c0.63,0.08,1.15,0.37,1.56,0.85c0.47,0.53,0.63,1.17,0.63,1.86
	c-0.01,1.25,0,2.5,0,3.75v0.28c0.34,0,0.65-0.01,0.96,0c1.14,0.04,2.08,0.81,2.35,1.91c0.03,0.11,0.06,0.22,0.09,0.33L29,129.65
	L29,129.65z M23.9,121.75c0.01-0.06,0.02-0.11,0.02-0.16v-3.93c0-0.12-0.01-0.25-0.05-0.36c-0.11-0.41-0.45-0.62-0.97-0.62h-9.82
	c-0.7,0-1.02,0.33-1.02,1.03v3.82c0,0.07,0.01,0.13,0.01,0.21L23.9,121.75L23.9,121.75z M22.21,131.05h-8.42v-1.64h8.42
	C22.21,129.41,22.21,131.05,22.21,131.05z M19.67,133.59H13.8v-1.64h5.87L19.67,133.59L19.67,133.59z M23.89,127.71H12.07
	c-0.01,0.06-0.02,0.1-0.02,0.14c0,2.18,0,4.35,0,6.53c0,0.6,0.35,0.94,0.96,0.94c3.31,0,6.61,0,9.92,0c0.29,0,0.56-0.07,0.76-0.3
	c0.18-0.2,0.22-0.45,0.22-0.7v-6.44C23.92,127.82,23.91,127.77,23.89,127.71 M25.19,123.46c-0.7,0-1.26,0.57-1.26,1.28
	c0,0.7,0.58,1.27,1.27,1.27c0.69,0,1.27-0.57,1.27-1.27C26.48,124.03,25.9,123.45,25.19,123.46 M7.79,155.04
	C7.26,154.51,7,153.89,7,153.17c0-0.72,0.26-1.34,0.79-1.87c0.52-0.52,1.15-0.79,1.87-0.79s1.34,0.26,1.87,0.79
	c0.52,0.52,0.79,1.15,0.79,1.87c0,0.72-0.26,1.34-0.79,1.87c-0.52,0.52-1.15,0.79-1.87,0.79S8.31,155.56,7.79,155.04z M7.35,172.52
	v-14.68h4.57v14.68H7.35z M24.44,172.52v-7.17c0-1.18-0.1-2.03-0.29-2.55c-0.36-0.88-1.06-1.33-2.11-1.33s-1.78,0.39-2.21,1.18
	c-0.33,0.59-0.49,1.46-0.49,2.6v7.27h-4.52v-14.68h4.37v2.01h0.05c0.33-0.65,0.85-1.19,1.57-1.62c0.79-0.52,1.7-0.79,2.75-0.79
	c2.13,0,3.62,0.67,4.47,2.01c0.65,1.08,0.98,2.75,0.98,5.01v8.05H24.44z"/>
</svg>
