<?xml version="1.0" encoding="utf-8"?>
<!-- Generator: Adobe Illustrator 23.0.4, SVG Export Plug-In . SVG Version: 6.00 Build 0)  -->
<svg version="1.1" id="Layer_1" xmlns="http://www.w3.org/2000/svg" xmlns:xlink="http://www.w3.org/1999/xlink" x="0px" y="0px"
	 viewBox="0 0 394.3 60" style="enable-background:new 0 0 394.3 60;" xml:space="preserve">
<style type="text/css">
	.st0{fill:#383838;}
</style>
<title>descriptor</title>
<g>
	<path class="st0" d="M7.3,8.1H2.5L2.9,6H15l-0.4,2.1H9.7l-3,13.6H4.3L7.3,8.1z"/>
	<path class="st0" d="M22.6,14.4c0-0.2,0.1-0.6,0.1-0.8c0-1.2-1-1.7-2.2-1.7c-1.2,0-2.4,0.8-3.3,1.7l-1.8,8.1h-2.1L16.8,6h2.1
		l-1.3,5.9c1-0.9,2.3-1.9,3.9-1.9c2.1,0,3.4,1,3.4,2.8c0,0.2-0.1,0.7-0.1,0.9l-1.7,7.8H21L22.6,14.4z"/>
	<path class="st0" d="M32.9,10.1c3,0,5,2,5,5c0,0.6-0.1,1.3-0.2,1.6h-9c0,0.1,0,0.3,0,0.5c0,1.5,1.2,3.1,3.7,3.1
		c1.1,0,2.3-0.4,3.1-1l0.7,1.5c-1,0.8-2.5,1.3-4,1.3c-3.5,0-5.6-2-5.6-5.1C26.5,13.2,29.3,10.1,32.9,10.1z M36,14.8
		c0-1.7-1.1-3-3.2-3c-2,0-3.5,1.6-3.9,3.4h7.1C36,15.1,36,14.9,36,14.8z"/>
	<path class="st0" d="M45.6,18.5c0.6,0.9,2.1,1.8,3.8,1.8c1.5,0,2.3-0.8,2.3-1.8c0-0.9-1.1-1.3-2.4-1.8c-1.6-0.6-3.5-1.3-3.5-3.1
		c0-1.9,1.6-3.6,4.4-3.6c1.9,0,3.6,0.8,4.5,1.9l-1.2,1.4c-0.5-0.8-2-1.5-3.4-1.5c-1.4,0-2.2,0.7-2.2,1.5c0,0.8,1.1,1.2,2.3,1.6
		c1.7,0.6,3.6,1.3,3.6,3.2c0,2-1.7,3.8-4.6,3.8c-2.1,0-3.9-0.7-5-2L45.6,18.5z"/>
	<path class="st0" d="M56.5,19.1l1.5-6.9h-1.9l0.4-1.8h1.9l0.7-3.1h2.1l-0.7,3.1h2.3l-0.4,1.8h-2.3l-1.4,6.4c0,0.1,0,0.3,0,0.4
		c0,0.7,0.4,1,1.1,1c0.4,0,0.8-0.2,1-0.3l0.2,1.7c-0.4,0.3-1.1,0.5-1.7,0.5c-1.7,0-2.8-0.7-2.8-2.2C56.4,19.6,56.4,19.3,56.5,19.1z"
		/>
	<path class="st0" d="M72.8,10.3h2.1l-2.5,11.3h-2.1l0.4-1.6C69.7,21.3,68.5,22,67,22c-2.6,0-4.4-1.7-4.4-4.7c0-3.6,2.2-7.2,6-7.2
		c1.7,0,3.1,0.8,3.9,2L72.8,10.3z M67.8,20.1c1.3,0,2.5-0.8,3.2-1.8l1.1-4.7c-0.5-0.9-1.7-1.7-3.2-1.7c-2.4,0-4,2.4-4,5
		C64.8,18.9,66,20.1,67.8,20.1z"/>
	<path class="st0" d="M78,12.2h-1.9l0.4-1.9h1.9l0.2-0.8c0.5-2.4,1.8-3.8,3.9-3.8c0.8,0,1.5,0.1,2.2,0.6l-0.8,1.5
		c-0.3-0.2-0.8-0.3-1.2-0.3c-1.1,0-1.7,0.7-2,2.1l-0.2,0.8h2.3l-0.4,1.9h-2.3L78,21.7h-2.1L78,12.2z M85,12.2h-1.9l0.4-1.9h1.9
		l0.2-0.8c0.5-2.4,1.8-3.8,3.9-3.8c0.8,0,1.5,0.1,2.2,0.6l-0.8,1.5c-0.3-0.2-0.8-0.3-1.2-0.3c-1.1,0-1.7,0.7-2,2.1l-0.2,0.8h2.3
		l-0.4,1.9h-2.3L85,21.7h-2.1L85,12.2z"/>
	<path class="st0" d="M104.2,14.4c0-0.2,0.1-0.5,0.1-0.8c0-1.2-1-1.7-2-1.7c-1.4,0-2.6,0.8-3.5,1.6L97,21.7h-2.1l2.5-11.3h2.1
		l-0.4,1.6c1-0.9,2.3-1.9,3.9-1.9c2.1,0,3.4,1,3.4,2.8c0,0.2-0.1,0.7-0.1,0.9l-1.7,7.8h-2.1L104.2,14.4z"/>
	<path class="st0" d="M114.5,10.1c3,0,5,2,5,5c0,0.6-0.1,1.3-0.2,1.6h-9c0,0.1,0,0.3,0,0.5c0,1.5,1.2,3.1,3.7,3.1
		c1.1,0,2.3-0.4,3.1-1l0.7,1.5c-1,0.8-2.5,1.3-4,1.3c-3.5,0-5.6-2-5.6-5.1C108.1,13.2,110.8,10.1,114.5,10.1z M117.5,14.8
		c0-1.7-1.1-3-3.2-3c-2,0-3.5,1.6-3.9,3.4h7.1C117.5,15.1,117.5,14.9,117.5,14.8z"/>
	<path class="st0" d="M129.2,13l-4.7,8.7h-2.2l-1.1-11.3h2.1L124,19l4.8-8.6h1.9l0.9,8.6l4.5-8.6h2.3l-6.1,11.3H130L129.2,13z"/>
	<path class="st0" d="M138.3,18.5c0.6,0.9,2.1,1.8,3.8,1.8c1.5,0,2.3-0.8,2.3-1.8c0-0.9-1.1-1.3-2.4-1.8c-1.6-0.6-3.5-1.3-3.5-3.1
		c0-1.9,1.6-3.6,4.4-3.6c1.9,0,3.6,0.8,4.5,1.9l-1.2,1.4c-0.5-0.8-2-1.5-3.4-1.5c-1.4,0-2.2,0.7-2.2,1.5c0,0.8,1.1,1.2,2.3,1.6
		c1.7,0.6,3.6,1.3,3.6,3.2c0,2-1.7,3.8-4.6,3.8c-2.1,0-3.9-0.7-5-2L138.3,18.5z"/>
	<path class="st0" d="M151.5,6h2.1l-3.5,15.7H148L151.5,6z"/>
	<path class="st0" d="M159.9,10.1c3,0,5,2,5,5c0,0.6-0.1,1.3-0.2,1.6h-9c0,0.1,0,0.3,0,0.5c0,1.5,1.2,3.1,3.7,3.1
		c1.1,0,2.3-0.4,3.1-1l0.7,1.5c-1,0.8-2.5,1.3-4,1.3c-3.5,0-5.6-2-5.6-5.1C153.5,13.2,156.3,10.1,159.9,10.1z M163,14.8
		c0-1.7-1.1-3-3.2-3c-2,0-3.5,1.6-3.9,3.4h7.1C163,15.1,163,14.9,163,14.8z"/>
	<path class="st0" d="M166.6,19.1l1.5-6.9h-1.9l0.4-1.8h1.9l0.7-3.1h2.1l-0.7,3.1h2.3l-0.4,1.8h-2.3l-1.4,6.4c0,0.1,0,0.3,0,0.4
		c0,0.7,0.4,1,1.1,1c0.4,0,0.8-0.2,1-0.3l0.2,1.7c-0.4,0.3-1.1,0.5-1.7,0.5c-1.7,0-2.8-0.7-2.8-2.2
		C166.6,19.6,166.6,19.3,166.6,19.1z"/>
	<path class="st0" d="M174,19.1l1.5-6.9h-1.9l0.4-1.8h1.9l0.7-3.1h2.1l-0.7,3.1h2.3l-0.4,1.8h-2.3l-1.4,6.4c0,0.1,0,0.3,0,0.4
		c0,0.7,0.4,1,1.1,1c0.4,0,0.8-0.2,1-0.3l0.2,1.7c-0.4,0.3-1.1,0.5-1.7,0.5c-1.7,0-2.8-0.7-2.8-2.2C173.9,19.6,173.9,19.3,174,19.1z
		"/>
	<path class="st0" d="M186.5,10.1c3,0,5,2,5,5c0,0.6-0.1,1.3-0.2,1.6h-9c0,0.1,0,0.3,0,0.5c0,1.5,1.2,3.1,3.7,3.1
		c1.1,0,2.3-0.4,3.1-1l0.7,1.5c-1,0.8-2.5,1.3-4,1.3c-3.5,0-5.6-2-5.6-5.1C180.1,13.2,182.9,10.1,186.5,10.1z M189.6,14.8
		c0-1.7-1.1-3-3.2-3c-2,0-3.5,1.6-3.9,3.4h7.1C189.6,15.1,189.6,14.9,189.6,14.8z"/>
	<path class="st0" d="M194.9,10.3h2.1l-0.4,1.7c1.1-1.2,2.3-1.9,4.2-1.9l-0.5,2.1c-0.1,0-0.5-0.1-0.9-0.1c-1.2,0-2.4,0.8-3.1,1.7
		l-1.7,7.8h-2.1L194.9,10.3z"/>
	<path class="st0" d="M212.7,10.1c3.3,0,5.3,2.1,5.3,5.1c0,3.6-2.7,6.8-6.4,6.8c-3.3,0-5.3-2.1-5.3-5.1
		C206.3,13.3,209,10.1,212.7,10.1z M212.6,11.9c-2.4,0-4.1,2.4-4.1,4.9c0,2,1.2,3.3,3.2,3.3c2.4,0,4.1-2.4,4.1-4.9
		C215.8,13.2,214.6,11.9,212.6,11.9z"/>
	<path class="st0" d="M221.5,12.2h-1.9l0.4-1.9h1.9l0.2-0.8c0.5-2.4,1.8-3.8,3.9-3.8c0.8,0,1.5,0.1,2.2,0.6l-0.8,1.5
		c-0.3-0.2-0.8-0.3-1.2-0.3c-1.1,0-1.7,0.7-2,2.1l-0.2,0.8h2.3l-0.4,1.9h-2.3l-2.1,9.5h-2.1L221.5,12.2z"/>
	<path class="st0" d="M232.4,19.1l1.5-6.9H232l0.4-1.8h1.9l0.7-3.1h2.1l-0.7,3.1h2.3l-0.4,1.8H236l-1.4,6.4c0,0.1,0,0.3,0,0.4
		c0,0.7,0.4,1,1.1,1c0.4,0,0.8-0.2,1-0.3l0.2,1.7c-0.4,0.3-1.1,0.5-1.7,0.5c-1.7,0-2.8-0.7-2.8-2.2
		C232.3,19.6,232.3,19.3,232.4,19.1z"/>
	<path class="st0" d="M247.5,14.4c0-0.2,0.1-0.6,0.1-0.8c0-1.2-1-1.7-2.2-1.7c-1.2,0-2.4,0.8-3.3,1.7l-1.8,8.1h-2.1L241.7,6h2.1
		l-1.3,5.9c1-0.9,2.3-1.9,3.9-1.9c2.1,0,3.4,1,3.4,2.8c0,0.2-0.1,0.7-0.1,0.9l-1.7,7.8h-2.1L247.5,14.4z"/>
	<path class="st0" d="M257.8,10.1c3,0,5,2,5,5c0,0.6-0.1,1.3-0.2,1.6h-9c0,0.1,0,0.3,0,0.5c0,1.5,1.2,3.1,3.7,3.1
		c1.1,0,2.3-0.4,3.1-1l0.7,1.5c-1,0.8-2.5,1.3-4,1.3c-3.5,0-5.6-2-5.6-5.1C251.4,13.2,254.2,10.1,257.8,10.1z M260.9,14.8
		c0-1.7-1.1-3-3.2-3c-2,0-3.5,1.6-3.9,3.4h7.1C260.9,15.1,260.9,14.9,260.9,14.8z"/>
	<path class="st0" d="M285.3,12.7c0,4.2-3,9-10,9h-5.6L273.2,6h5.5C282.2,6,285.3,8.8,285.3,12.7z M282.8,12.8
		c0-2.7-1.9-4.8-4.6-4.8h-3.1l-2.6,11.5h3.2C280.1,19.6,282.8,16.5,282.8,12.8z"/>
	<path class="st0" d="M292.9,10.1c3,0,5,2,5,5c0,0.6-0.1,1.3-0.2,1.6h-9c0,0.1,0,0.3,0,0.5c0,1.5,1.2,3.1,3.7,3.1
		c1.1,0,2.3-0.4,3.1-1l0.7,1.5c-1,0.8-2.5,1.3-4,1.3c-3.5,0-5.6-2-5.6-5.1C286.5,13.2,289.3,10.1,292.9,10.1z M295.9,14.8
		c0-1.7-1.1-3-3.2-3c-2,0-3.5,1.6-3.9,3.4h7.1C295.9,15.1,295.9,14.9,295.9,14.8z"/>
	<path class="st0" d="M299.9,26h-2.1l3.5-15.7h2.1l-0.4,1.6c1-1.2,2.2-1.9,3.7-1.9c2.6,0,4.4,1.7,4.4,4.7c0,3.6-2.3,7.2-6,7.2
		c-1.7,0-3.1-0.8-3.9-2L299.9,26z M305.9,11.9c-1.3,0-2.5,0.8-3.2,1.8l-1,4.7c0.5,0.9,1.7,1.7,3.2,1.7c2.4,0,4-2.4,4-4.9
		C308.8,13.2,307.6,11.9,305.9,11.9z"/>
	<path class="st0" d="M322.7,10.3h2.1l-2.5,11.3h-2.1l0.4-1.6c-0.9,1.2-2.2,1.9-3.6,1.9c-2.6,0-4.4-1.7-4.4-4.7c0-3.6,2.2-7.2,6-7.2
		c1.7,0,3.1,0.8,3.9,2L322.7,10.3z M317.7,20.1c1.3,0,2.5-0.8,3.2-1.8l1.1-4.7c-0.5-0.9-1.7-1.7-3.2-1.7c-2.4,0-4,2.4-4,5
		C314.7,18.9,315.9,20.1,317.7,20.1z"/>
	<path class="st0" d="M327.8,10.3h2.1l-0.4,1.7c1.1-1.2,2.3-1.9,4.2-1.9l-0.5,2.1c-0.1,0-0.5-0.1-0.9-0.1c-1.2,0-2.4,0.8-3.1,1.7
		l-1.7,7.8h-2.1L327.8,10.3z"/>
	<path class="st0" d="M334.5,19.1l1.5-6.9h-1.9l0.4-1.8h1.9l0.7-3.1h2.1l-0.7,3.1h2.3l-0.4,1.8h-2.3l-1.4,6.4c0,0.1,0,0.3,0,0.4
		c0,0.7,0.4,1,1.1,1c0.4,0,0.8-0.2,1-0.3l0.2,1.7c-0.4,0.3-1.1,0.5-1.7,0.5c-1.7,0-2.8-0.7-2.8-2.2
		C334.4,19.6,334.4,19.3,334.5,19.1z"/>
	<path class="st0" d="M355.8,14.3c0-0.1,0.1-0.4,0.1-0.7c0-1-0.9-1.6-1.9-1.6c-1.1,0-2.2,0.8-2.9,1.6l-1.8,8.1h-2.1l1.6-7.4
		c0-0.3,0.1-0.4,0.1-0.8c0-0.8-0.7-1.5-1.9-1.5c-1,0-2.1,0.8-2.9,1.6l-1.8,8.1h-2.1l2.5-11.3h2.1l-0.4,1.6c0.6-0.7,1.9-1.9,3.5-1.9
		c2.1,0,3,1.5,3,2v0.1c0.9-1.1,2.3-2.1,3.9-2.1c1.6,0,3.1,1,3.1,2.8c0,0.3-0.1,0.7-0.1,0.9l-1.7,7.8h-2.1L355.8,14.3z"/>
	<path class="st0" d="M366.1,10.1c3,0,5,2,5,5c0,0.6-0.1,1.3-0.2,1.6h-9c0,0.1,0,0.3,0,0.5c0,1.5,1.2,3.1,3.7,3.1
		c1.1,0,2.3-0.4,3.1-1l0.7,1.5c-1,0.8-2.5,1.3-4,1.3c-3.5,0-5.6-2-5.6-5.1C359.6,13.2,362.4,10.1,366.1,10.1z M369.1,14.8
		c0-1.7-1.1-3-3.2-3c-2,0-3.5,1.6-3.9,3.4h7.1C369.1,15.1,369.1,14.9,369.1,14.8z"/>
	<path class="st0" d="M381.2,14.4c0-0.2,0.1-0.5,0.1-0.8c0-1.2-1-1.7-2-1.7c-1.4,0-2.6,0.8-3.5,1.6l-1.8,8.1h-2.1l2.5-11.3h2.1
		l-0.4,1.6c1-0.9,2.3-1.9,3.9-1.9c2.1,0,3.4,1,3.4,2.8c0,0.2-0.1,0.7-0.1,0.9l-1.7,7.8h-2.1L381.2,14.4z"/>
	<path class="st0" d="M385.6,19.1l1.5-6.9h-1.9l0.4-1.8h1.9l0.7-3.1h2.1l-0.7,3.1h2.3l-0.4,1.8h-2.3l-1.4,6.4c0,0.1,0,0.3,0,0.4
		c0,0.7,0.4,1,1.1,1c0.4,0,0.8-0.2,1-0.3l0.2,1.7c-0.4,0.3-1.1,0.5-1.7,0.5c-1.7,0-2.8-0.7-2.8-2.2
		C385.5,19.6,385.5,19.3,385.6,19.1z"/>
	<path class="st0" d="M3.1,40.4H1.2l0.4-1.9h1.9l0.2-0.8C4.2,35.4,5.5,34,7.5,34c0.8,0,1.5,0.1,2.2,0.6L8.9,36
		c-0.3-0.2-0.8-0.3-1.2-0.3c-1.1,0-1.7,0.7-2,2.1l-0.2,0.8h2.3l-0.4,1.9H5.2l-2.1,9.5H1L3.1,40.4z"/>
	<path class="st0" d="M13.9,38.2c3.3,0,5.3,2.1,5.3,5.1c0,3.6-2.7,6.8-6.4,6.8c-3.3,0-5.3-2.1-5.3-5.1C7.5,41.5,10.2,38.2,13.9,38.2
		z M13.8,40.1c-2.4,0-4.1,2.4-4.1,4.9c0,2,1.2,3.3,3.2,3.3c2.4,0,4.1-2.4,4.1-4.9C17,41.4,15.8,40.1,13.8,40.1z"/>
	<path class="st0" d="M22.7,38.5h2.1l-0.4,1.7c1.1-1.2,2.3-1.9,4.2-1.9l-0.5,2.1c-0.1,0-0.5-0.1-0.9-0.1c-1.2,0-2.4,0.8-3.1,1.7
		l-1.7,7.8h-2.1L22.7,38.5z"/>
	<path class="st0" d="M37.2,34.2h10.5l-0.5,2.1h-8.2l-1,4.6h8l-0.5,2.1h-8l-1.1,4.9h8.2l-0.4,2.1H33.7L37.2,34.2z"/>
	<path class="st0" d="M56,42.6c0-0.2,0.1-0.5,0.1-0.8c0-1.2-1-1.7-2-1.7c-1.4,0-2.6,0.8-3.5,1.6l-1.8,8.1h-2.1l2.5-11.3h2.1L51,40.1
		c1-0.9,2.3-1.9,3.9-1.9c2.1,0,3.4,1,3.4,2.8c0,0.2-0.1,0.7-0.1,0.9l-1.7,7.8h-2.1L56,42.6z"/>
	<path class="st0" d="M60,38.5h2.2l1.6,8.9l5.5-8.9h2.4l-7.2,11.3h-2.3L60,38.5z"/>
	<path class="st0" d="M73.1,38.5h2.1l-2.5,11.3h-2.1L73.1,38.5z M75,33.9c0.7,0,1.2,0.5,1.2,1.2c0,1-0.8,1.5-1.5,1.5
		c-0.7,0-1.2-0.5-1.2-1.2C73.5,34.5,74.3,33.9,75,33.9z"/>
	<path class="st0" d="M78.2,38.5h2.1l-0.4,1.7c1.1-1.2,2.3-1.9,4.2-1.9l-0.5,2.1c-0.1,0-0.5-0.1-0.9-0.1c-1.2,0-2.4,0.8-3.1,1.7
		l-1.7,7.8h-2.1L78.2,38.5z"/>
	<path class="st0" d="M90.1,38.2c3.3,0,5.3,2.1,5.3,5.1c0,3.6-2.7,6.8-6.4,6.8c-3.3,0-5.3-2.1-5.3-5.1
		C83.7,41.5,86.4,38.2,90.1,38.2z M90,40.1c-2.4,0-4.1,2.4-4.1,4.9c0,2,1.2,3.3,3.2,3.3c2.4,0,4.1-2.4,4.1-4.9
		C93.2,41.4,92,40.1,90,40.1z"/>
	<path class="st0" d="M105.6,42.6c0-0.2,0.1-0.5,0.1-0.8c0-1.2-1-1.7-2-1.7c-1.4,0-2.6,0.8-3.5,1.6l-1.8,8.1h-2.1l2.5-11.3h2.1
		l-0.4,1.6c1-0.9,2.3-1.9,3.9-1.9c2.1,0,3.4,1,3.4,2.8c0,0.2-0.1,0.7-0.1,0.9l-1.7,7.8H104L105.6,42.6z"/>
	<path class="st0" d="M124.4,42.5c0-0.1,0.1-0.4,0.1-0.7c0-1-0.9-1.6-1.9-1.6c-1.1,0-2.2,0.8-2.9,1.6l-1.8,8.1h-2.1l1.6-7.4
		c0-0.3,0.1-0.4,0.1-0.8c0-0.8-0.7-1.5-1.9-1.5c-1,0-2.1,0.8-2.9,1.6l-1.8,8.1H109l2.5-11.3h2.1l-0.4,1.6c0.6-0.7,1.9-1.9,3.5-1.9
		c2.1,0,3,1.5,3,2v0.1c0.9-1.1,2.3-2.1,3.9-2.1c1.6,0,3.1,1,3.1,2.8c0,0.3-0.1,0.7-0.1,0.9l-1.7,7.8h-2.1L124.4,42.5z"/>
	<path class="st0" d="M134.7,38.2c3,0,5,2,5,5c0,0.6-0.1,1.3-0.2,1.6h-9c0,0.1,0,0.3,0,0.5c0,1.5,1.2,3.1,3.7,3.1
		c1.1,0,2.3-0.4,3.1-1l0.7,1.5c-1,0.8-2.5,1.3-4,1.3c-3.5,0-5.6-2-5.6-5.1C128.3,41.4,131.1,38.2,134.7,38.2z M137.8,43
		c0-1.7-1.1-3-3.2-3c-2,0-3.5,1.6-3.9,3.4h7.1C137.8,43.3,137.8,43.1,137.8,43z"/>
	<path class="st0" d="M149.8,42.6c0-0.2,0.1-0.5,0.1-0.8c0-1.2-1-1.7-2-1.7c-1.4,0-2.6,0.8-3.5,1.6l-1.8,8.1h-2.1l2.5-11.3h2.1
		l-0.4,1.6c1-0.9,2.3-1.9,3.9-1.9c2.1,0,3.4,1,3.4,2.8c0,0.2-0.1,0.7-0.1,0.9l-1.7,7.8h-2.1L149.8,42.6z"/>
	<path class="st0" d="M154.2,47.3l1.5-6.9h-1.9l0.4-1.8h1.9l0.7-3.1h2.1l-0.7,3.1h2.3l-0.4,1.8h-2.3l-1.4,6.4c0,0.1,0,0.3,0,0.4
		c0,0.7,0.4,1,1.1,1c0.4,0,0.8-0.2,1-0.3l0.2,1.7c-0.4,0.3-1.1,0.5-1.7,0.5c-1.7,0-2.8-0.7-2.8-2.2
		C154.1,47.8,154.2,47.5,154.2,47.3z"/>
	<path class="st0" d="M176.6,38.5h2.1l-2.5,11.3h-2.1l0.4-1.6c-0.9,1.2-2.2,1.9-3.6,1.9c-2.6,0-4.4-1.7-4.4-4.7c0-3.6,2.2-7.2,6-7.2
		c1.7,0,3.1,0.8,3.9,2L176.6,38.5z M171.6,48.3c1.3,0,2.5-0.8,3.2-1.8l1.1-4.7c-0.5-0.9-1.7-1.7-3.2-1.7c-2.4,0-4,2.4-4,5
		C168.7,47.1,169.9,48.3,171.6,48.3z"/>
	<path class="st0" d="M188.5,42.6c0-0.2,0.1-0.5,0.1-0.8c0-1.2-1-1.7-2-1.7c-1.4,0-2.6,0.8-3.5,1.6l-1.8,8.1h-2.1l2.5-11.3h2.1
		l-0.4,1.6c1-0.9,2.3-1.9,3.9-1.9c2.1,0,3.4,1,3.4,2.8c0,0.2-0.1,0.7-0.1,0.9l-1.7,7.8h-2.1L188.5,42.6z"/>
	<path class="st0" d="M203.5,34.2h2.1l-3.5,15.7H200l0.4-1.6c-0.9,1.2-2.2,1.9-3.6,1.9c-2.6,0-4.4-1.7-4.4-4.7c0-3.6,2.2-7.2,6-7.2
		c1.7,0,3.1,0.8,3.9,2L203.5,34.2z M197.6,48.3c1.3,0,2.5-0.8,3.2-1.8l1.1-4.7c-0.5-0.9-1.7-1.7-3.2-1.7c-2.4,0-4,2.4-4,5
		C194.6,47.1,195.8,48.3,197.6,48.3z"/>
	<path class="st0" d="M222.6,37.8l-5.9,12.1h-2.5l-1-15.7h2.6l0.5,12.6l6.2-12.6h1.9l0.6,12.6l6-12.6h2.7l-7.9,15.7h-2.5L222.6,37.8
		z"/>
	<path class="st0" d="M241.8,38.5h2.1l-2.5,11.3h-2.1l0.4-1.6c-0.9,1.2-2.2,1.9-3.6,1.9c-2.6,0-4.4-1.7-4.4-4.7c0-3.6,2.2-7.2,6-7.2
		c1.7,0,3.1,0.8,3.9,2L241.8,38.5z M236.9,48.3c1.3,0,2.5-0.8,3.2-1.8l1.1-4.7c-0.5-0.9-1.7-1.7-3.2-1.7c-2.4,0-4,2.4-4,5
		C233.9,47.1,235.1,48.3,236.9,48.3z"/>
	<path class="st0" d="M245.5,47.3l1.5-6.9h-1.9l0.4-1.8h1.9l0.7-3.1h2.1l-0.7,3.1h2.3l-0.4,1.8h-2.3l-1.4,6.4c0,0.1,0,0.3,0,0.4
		c0,0.7,0.4,1,1.1,1c0.4,0,0.8-0.2,1-0.3l0.2,1.7c-0.4,0.3-1.1,0.5-1.7,0.5c-1.7,0-2.8-0.7-2.8-2.2
		C245.4,47.8,245.4,47.5,245.5,47.3z"/>
	<path class="st0" d="M258,38.2c3,0,5,2,5,5c0,0.6-0.1,1.3-0.2,1.6h-9c0,0.1,0,0.3,0,0.5c0,1.5,1.2,3.1,3.7,3.1c1.1,0,2.3-0.4,3.1-1
		l0.7,1.5c-1,0.8-2.5,1.3-4,1.3c-3.5,0-5.6-2-5.6-5.1C251.6,41.4,254.3,38.2,258,38.2z M261,43c0-1.7-1.1-3-3.2-3
		c-2,0-3.5,1.6-3.9,3.4h7.1C261,43.3,261,43.1,261,43z"/>
	<path class="st0" d="M266.3,38.5h2.1l-0.4,1.7c1.1-1.2,2.3-1.9,4.2-1.9l-0.5,2.1c-0.1,0-0.5-0.1-0.9-0.1c-1.2,0-2.4,0.8-3.1,1.7
		l-1.7,7.8h-2.1L266.3,38.5z"/>
</g>
</svg>
