<?xml version="1.0" encoding="utf-8"?>
<!-- Generator: Adobe Illustrator 21.0.0, SVG Export Plug-In . SVG Version: 6.00 Build 0)  -->
<svg version="1.1" id="Layer_1" xmlns="http://www.w3.org/2000/svg" xmlns:xlink="http://www.w3.org/1999/xlink" x="0px" y="0px"
	 viewBox="0 0 400 60" style="enable-background:new 0 0 400 60;" xml:space="preserve">
<style type="text/css">
	.st0{fill:#002856;}
</style>
<title>descriptor</title>
<g>
	<path class="st0" d="M12.3,7.9H8.6l-3,14.3h-2l3-14.3H2.9l0.4-1.7h9.4L12.3,7.9z"/>
	<path class="st0" d="M20.7,13.1c0,0.2,0,0.5,0,0.7s-0.1,0.5-0.1,0.7L19,22.2h-2l1.6-7.7c0.1-0.4,0.1-0.7,0.1-1.1
		c0-0.4-0.1-0.7-0.3-1c-0.2-0.3-0.6-0.5-1.2-0.5c-0.4,0-0.7,0.1-1.1,0.3c-0.3,0.2-0.6,0.4-0.9,0.7c-0.3,0.3-0.5,0.6-0.7,1
		s-0.3,0.8-0.4,1.2l-1.5,7.2h-1.9L14.3,5h1.9l-1.5,7.1l0,0c0.4-0.6,0.9-1,1.4-1.3s1.1-0.4,1.8-0.4c0.9,0,1.6,0.3,2,0.8
		C20.5,11.6,20.7,12.3,20.7,13.1z"/>
	<path class="st0" d="M31.9,14c0,0.5,0,1-0.1,1.5s-0.2,1-0.3,1.5h-6.7c-0.1,0.4-0.1,0.8-0.1,1.2c0,0.9,0.2,1.6,0.7,2.1
		c0.4,0.5,1.1,0.7,1.8,0.7c0.5,0,1-0.1,1.5-0.2c0.5-0.2,1-0.4,1.5-0.7L30,21.7c-0.4,0.2-0.9,0.3-1.4,0.5c-0.5,0.1-1.1,0.2-1.7,0.2
		c-1.3,0-2.3-0.4-3.1-1.1c-0.7-0.7-1.1-1.8-1.1-3.2c0-0.9,0.1-1.8,0.4-2.8c0.3-0.9,0.6-1.8,1.1-2.5c0.5-0.8,1.1-1.4,1.7-1.8
		s1.5-0.7,2.3-0.7c1.1,0,2,0.3,2.6,1C31.6,12,31.9,12.9,31.9,14z M30.1,13.9c0-0.6-0.2-1.2-0.5-1.5c-0.3-0.4-0.8-0.6-1.3-0.6
		c-0.4,0-0.8,0.1-1.2,0.3c-0.4,0.2-0.7,0.5-0.9,0.9c-0.3,0.3-0.5,0.7-0.7,1.2c-0.2,0.4-0.3,0.9-0.4,1.3h4.8c0.1-0.3,0.1-0.6,0.2-0.8
		C30.1,14.5,30.1,14.2,30.1,13.9z"/>
	<path class="st0" d="M46.3,12.5c-0.3-0.2-0.6-0.3-1-0.4C45,12,44.6,12,44.2,12c-0.6,0-1.1,0.2-1.5,0.5s-0.6,0.7-0.6,1.2
		c0,0.3,0.1,0.6,0.3,0.9c0.2,0.3,0.5,0.6,1,0.9l1.2,0.8c0.4,0.3,0.7,0.6,0.9,1s0.3,0.9,0.3,1.5s-0.1,1.1-0.3,1.6s-0.5,0.8-0.9,1.1
		c-0.4,0.3-0.8,0.6-1.4,0.7c-0.5,0.2-1.1,0.3-1.7,0.3c-0.7,0-1.3-0.1-1.9-0.2c-0.5-0.1-0.9-0.2-1.3-0.4l0.6-1.7
		c0.4,0.2,0.8,0.4,1.2,0.5s0.8,0.2,1.4,0.2c0.7,0,1.2-0.2,1.6-0.5c0.4-0.3,0.6-0.8,0.6-1.4c0-0.4-0.1-0.7-0.3-1s-0.5-0.6-1-0.9
		l-1-0.7c-0.4-0.3-0.8-0.7-1-1.1S40,14.4,40,13.9c0-0.6,0.1-1.1,0.3-1.6s0.5-0.8,0.9-1.1s0.8-0.5,1.3-0.7s1.1-0.2,1.7-0.2
		c0.4,0,0.9,0,1.4,0.1s0.8,0.2,1.1,0.3L46.3,12.5z"/>
	<path class="st0" d="M55.2,12.1h-2.4L51.3,19c0,0.2-0.1,0.3-0.1,0.5s0,0.3,0,0.4c0,0.3,0.1,0.5,0.3,0.6c0.2,0.2,0.4,0.2,0.7,0.2
		c0.2,0,0.4,0,0.6-0.1c0.2-0.1,0.4-0.1,0.6-0.2L53.1,22c-0.3,0.1-0.5,0.2-0.8,0.2c-0.3,0.1-0.5,0.1-0.8,0.1c-0.7,0-1.2-0.2-1.7-0.5
		c-0.4-0.3-0.6-0.8-0.6-1.5c0-0.2,0-0.3,0-0.5s0-0.3,0.1-0.5l1.5-7.3h-1.9l0.3-1.6h1.9L51.6,8l2-0.6l-0.6,3h2.4L55.2,12.1z"/>
	<path class="st0" d="M64.8,13.4c0,0.2,0,0.5-0.1,0.7c0,0.3-0.1,0.5-0.1,0.6l-1,4.9c-0.1,0.5-0.2,0.9-0.3,1.4
		c-0.1,0.4-0.2,0.9-0.2,1.3h-1.7l0.2-1.6l0,0c-0.5,0.6-1,1-1.5,1.3s-1.1,0.4-1.7,0.4c-1,0-1.7-0.3-2.3-0.8c-0.6-0.6-0.9-1.3-0.9-2.3
		c0-1.5,0.5-2.5,1.5-3.2c1-0.7,2.6-1,4.8-1h1.2c0.1-0.3,0.1-0.6,0.2-0.9c0-0.3,0.1-0.5,0.1-0.7c0-0.5-0.2-0.8-0.5-1.2
		c-0.3-0.3-0.8-0.5-1.4-0.5c-0.6,0-1.2,0.1-1.8,0.3s-1.1,0.5-1.6,0.8v-1.8c0.5-0.3,1.1-0.5,1.6-0.6c0.6-0.2,1.2-0.2,1.9-0.2
		c0.6,0,1.2,0.1,1.6,0.3s0.8,0.4,1.1,0.7c0.3,0.3,0.5,0.6,0.6,1C64.7,12.7,64.8,13.1,64.8,13.4z M59.8,16.6
		c-0.7,0.1-1.2,0.3-1.6,0.5c-0.4,0.2-0.7,0.5-0.8,0.8c-0.2,0.3-0.2,0.7-0.2,1.2c0,0.6,0.2,1,0.5,1.3s0.8,0.5,1.2,0.5
		c0.3,0,0.7-0.1,1-0.2s0.7-0.3,0.9-0.6c0.3-0.3,0.5-0.6,0.8-1c0.2-0.4,0.4-0.8,0.5-1.3l0.3-1.4C61.4,16.5,60.5,16.5,59.8,16.6z"/>
	<path class="st0" d="M74.8,6.6c-0.3-0.2-0.7-0.3-1.1-0.3c-0.5,0-0.9,0.1-1.1,0.4C72.3,7,72.1,7.5,72,8.1l-0.5,2.5h2.1l-0.3,1.6
		h-2.1l-2.2,10h-2L69.1,12h-1.9l0.3-1.6h1.9L70,7.7c0.2-1,0.6-1.7,1.1-2.3c0.5-0.5,1.3-0.8,2.4-0.8c0.5,0,1,0.1,1.5,0.2L74.8,6.6z"
		/>
	<path class="st0" d="M81.6,6.6c-0.3-0.2-0.7-0.3-1.1-0.3c-0.5,0-0.9,0.1-1.1,0.4C79.2,7,79,7.5,78.8,8.1l-0.5,2.5h2.1l-0.3,1.6H78
		l-2.1,10.2H74l2-10.3h-1.9l0.3-1.6h1.9L77,7.8c0.2-1,0.6-1.7,1.1-2.3c0.5-0.5,1.3-0.8,2.4-0.8c0.5,0,1,0.1,1.5,0.2L81.6,6.6z"/>
	<path class="st0" d="M96,13.1c0,0.2,0,0.5,0,0.7s-0.1,0.5-0.1,0.7l-1.6,7.7h-1.9l1.6-7.7c0.1-0.4,0.1-0.7,0.1-1.1
		c0-0.4-0.1-0.7-0.3-1C93.4,12.2,93,12,92.4,12c-0.4,0-0.7,0.1-1.1,0.3c-0.3,0.2-0.6,0.4-0.9,0.7s-0.5,0.6-0.7,1s-0.3,0.8-0.4,1.2
		l-1.5,7.2h-1.9l2-9.2c0.1-0.4,0.2-0.9,0.2-1.3c0.1-0.4,0.1-0.8,0.2-1.3h1.9l-0.3,1.7l0,0c0.4-0.7,0.9-1.2,1.4-1.5s1.1-0.4,1.9-0.4
		c0.9,0,1.6,0.3,2,0.8C95.7,11.6,96,12.3,96,13.1z"/>
	<path class="st0" d="M107.1,14c0,0.5,0,1-0.1,1.5s-0.2,1-0.3,1.5H100c-0.1,0.4-0.1,0.8-0.1,1.2c0,0.9,0.2,1.6,0.7,2.1
		c0.4,0.5,1.1,0.7,1.8,0.7c0.5,0,1-0.1,1.5-0.2c0.5-0.2,1-0.4,1.5-0.7l-0.2,1.7c-0.4,0.2-0.9,0.3-1.4,0.5c-0.5,0.1-1.1,0.2-1.7,0.2
		c-1.3,0-2.3-0.4-3.1-1.1c-0.7-0.7-1.1-1.8-1.1-3.2c0-0.9,0.1-1.8,0.4-2.8c0.3-0.9,0.6-1.8,1.1-2.5c0.5-0.8,1.1-1.4,1.7-1.8
		s1.5-0.7,2.3-0.7c1.1,0,2,0.3,2.6,1C106.8,12,107.1,12.9,107.1,14z M105.3,13.9c0-0.6-0.2-1.2-0.5-1.5c-0.3-0.4-0.8-0.6-1.3-0.6
		c-0.4,0-0.8,0.1-1.2,0.3c-0.4,0.2-0.7,0.5-0.9,0.9c-0.3,0.3-0.5,0.7-0.7,1.2c-0.2,0.4-0.3,0.9-0.4,1.3h4.8c0.1-0.3,0.1-0.6,0.2-0.8
		C105.3,14.5,105.3,14.2,105.3,13.9z"/>
	<path class="st0" d="M119.3,22.2h-2.2l-0.5-9.9l0,0l-4.2,9.9h-2.3l-0.7-11.7h1.9l0.3,9.8l0,0l4.1-9.8h2.3l0.4,9.8l0,0l4.1-9.8h2
		L119.3,22.2z"/>
	<path class="st0" d="M131.7,12.5c-0.3-0.2-0.6-0.3-1-0.4c-0.3-0.1-0.7-0.1-1.1-0.1c-0.6,0-1.1,0.2-1.5,0.5
		c-0.4,0.3-0.6,0.7-0.6,1.2c0,0.3,0.1,0.6,0.3,0.9c0.2,0.3,0.5,0.6,1,0.9l1.2,0.8c0.4,0.3,0.7,0.6,0.9,1s0.3,0.9,0.3,1.5
		s-0.1,1.1-0.3,1.6s-0.5,0.8-0.9,1.1c-0.4,0.3-0.8,0.6-1.4,0.7c-0.5,0.2-1.1,0.3-1.7,0.3c-0.7,0-1.3-0.1-1.9-0.2
		c-0.5-0.1-0.9-0.2-1.3-0.4l0.6-1.7c0.4,0.2,0.8,0.4,1.2,0.5c0.4,0.1,0.8,0.2,1.4,0.2c0.7,0,1.2-0.2,1.6-0.5s0.6-0.8,0.6-1.4
		c0-0.4-0.1-0.7-0.3-1s-0.5-0.6-1-0.9l-1-0.7c-0.4-0.3-0.8-0.7-1-1.1s-0.4-0.9-0.4-1.4c0-0.6,0.1-1.1,0.3-1.6
		c0.2-0.5,0.5-0.8,0.9-1.1s0.8-0.5,1.3-0.7s1.1-0.2,1.7-0.2c0.4,0,0.9,0,1.4,0.1s0.8,0.2,1.1,0.3L131.7,12.5z"/>
	<path class="st0" d="M135.4,22.2h-1.9L137.1,5h1.9L135.4,22.2z"/>
	<path class="st0" d="M148.5,14c0,0.5,0,1-0.1,1.5s-0.2,1-0.3,1.5h-6.7c-0.1,0.4-0.1,0.8-0.1,1.2c0,0.9,0.2,1.6,0.7,2.1
		c0.4,0.5,1.1,0.7,1.8,0.7c0.5,0,1-0.1,1.5-0.2c0.5-0.2,1-0.4,1.5-0.7l-0.2,1.7c-0.4,0.2-0.9,0.3-1.4,0.5c-0.5,0.1-1.1,0.2-1.7,0.2
		c-1.3,0-2.3-0.4-3.1-1.1c-0.7-0.7-1.1-1.8-1.1-3.2c0-0.9,0.1-1.8,0.4-2.8c0.3-0.9,0.6-1.8,1.1-2.5s1.1-1.4,1.7-1.8s1.5-0.7,2.3-0.7
		c1.1,0,2,0.3,2.6,1C148.2,12,148.5,12.9,148.5,14z M146.7,13.9c0-0.6-0.2-1.2-0.5-1.5c-0.3-0.4-0.8-0.6-1.3-0.6
		c-0.4,0-0.8,0.1-1.2,0.3s-0.7,0.5-0.9,0.9c-0.3,0.3-0.5,0.7-0.7,1.2c-0.2,0.4-0.3,0.9-0.4,1.3h4.8c0.1-0.3,0.1-0.6,0.2-0.8
		C146.7,14.5,146.7,14.2,146.7,13.9z"/>
	<path class="st0" d="M156.9,12.1h-2.4L153,19c0,0.2-0.1,0.3-0.1,0.5s0,0.3,0,0.4c0,0.3,0.1,0.5,0.3,0.6c0.2,0.2,0.4,0.2,0.7,0.2
		c0.2,0,0.4,0,0.6-0.1c0.2-0.1,0.4-0.1,0.6-0.2l-0.3,1.6c-0.3,0.1-0.5,0.2-0.8,0.2c-0.3,0.1-0.5,0.1-0.8,0.1c-0.7,0-1.2-0.2-1.7-0.5
		c-0.4-0.3-0.6-0.8-0.6-1.5c0-0.2,0-0.3,0-0.5s0-0.3,0.1-0.5l1.5-7.3h-1.9l0.3-1.6h1.9l0.5-2.4l2-0.6l-0.6,3h2.4L156.9,12.1z"/>
	<path class="st0" d="M164.1,12.1h-2.4l-1.5,6.9c0,0.2-0.1,0.3-0.1,0.5s0,0.3,0,0.4c0,0.3,0.1,0.5,0.3,0.6c0.2,0.2,0.4,0.2,0.7,0.2
		c0.2,0,0.4,0,0.6-0.1c0.2-0.1,0.4-0.1,0.6-0.2L162,22c-0.3,0.1-0.5,0.2-0.8,0.2c-0.3,0.1-0.5,0.1-0.8,0.1c-0.7,0-1.2-0.2-1.7-0.5
		c-0.4-0.3-0.6-0.8-0.6-1.5c0-0.2,0-0.3,0-0.5s0-0.3,0.1-0.5l1.5-7.3h-1.9l0.3-1.6h1.9l0.5-2.4l2-0.6l-0.6,3h2.4L164.1,12.1z"/>
	<path class="st0" d="M173.7,14c0,0.5,0,1-0.1,1.5s-0.2,1-0.3,1.5h-6.7c-0.1,0.4-0.1,0.8-0.1,1.2c0,0.9,0.2,1.6,0.7,2.1
		c0.4,0.5,1.1,0.7,1.8,0.7c0.5,0,1-0.1,1.5-0.2c0.5-0.2,1-0.4,1.5-0.7l-0.2,1.7c-0.4,0.2-0.9,0.3-1.4,0.5c-0.5,0.1-1.1,0.2-1.7,0.2
		c-1.3,0-2.3-0.4-3.1-1.1c-0.7-0.7-1.1-1.8-1.1-3.2c0-0.9,0.1-1.8,0.4-2.8s0.6-1.8,1.1-2.5c0.5-0.8,1.1-1.4,1.7-1.8s1.5-0.7,2.3-0.7
		c1.1,0,2,0.3,2.6,1C173.4,12,173.7,12.9,173.7,14z M171.9,13.9c0-0.6-0.2-1.2-0.5-1.5c-0.3-0.4-0.8-0.6-1.3-0.6
		c-0.4,0-0.8,0.1-1.2,0.3s-0.7,0.5-0.9,0.9c-0.3,0.3-0.5,0.7-0.7,1.2c-0.2,0.4-0.3,0.9-0.4,1.3h4.8c0.1-0.3,0.1-0.6,0.2-0.8
		C171.9,14.5,171.9,14.2,171.9,13.9z"/>
	<path class="st0" d="M182.1,12.3c-0.2,0-0.5-0.1-0.7-0.1c-0.4,0-0.7,0.1-1,0.2c-0.3,0.1-0.7,0.4-1,0.6c-0.3,0.3-0.6,0.7-0.8,1.1
		c-0.2,0.5-0.4,1-0.6,1.6l-1.4,6.4h-1.9l2-9.2c0.1-0.4,0.2-0.9,0.2-1.3c0.1-0.4,0.1-0.8,0.2-1.3h1.9l-0.3,1.8l0,0
		c0.3-0.4,0.5-0.7,0.8-1c0.2-0.3,0.5-0.5,0.7-0.6s0.6-0.3,0.9-0.3s0.8-0.1,1.3-0.1L182.1,12.3z"/>
	<path class="st0" d="M196.6,6.6c-0.3-0.2-0.7-0.3-1.1-0.3c-0.5,0-0.9,0.1-1.1,0.4c-0.3,0.3-0.5,0.7-0.6,1.3l-0.5,2.5h2.1l-0.3,1.6
		H193l-2.1,10.2H189l2.1-10.2h-1.9l0.3-1.6h1.9l0.6-2.7c0.2-1,0.6-1.7,1.1-2.3c0.5-0.5,1.3-0.8,2.4-0.8c0.5,0,1,0.1,1.5,0.2
		L196.6,6.6z"/>
	<path class="st0" d="M205.2,14.6c0,0.9-0.1,1.7-0.4,2.7c-0.2,0.9-0.6,1.7-1.1,2.5s-1.1,1.4-1.8,1.9s-1.6,0.7-2.5,0.7
		c-1.3,0-2.3-0.4-3-1.1s-1.1-1.8-1.1-3.2c0-0.8,0.1-1.7,0.4-2.6c0.2-0.9,0.6-1.8,1.1-2.5c0.5-0.8,1.1-1.4,1.8-1.9s1.6-0.7,2.5-0.7
		c1.2,0,2.2,0.4,2.9,1.1C204.8,12.3,205.2,13.3,205.2,14.6z M203.2,14.6c0-0.9-0.2-1.5-0.5-2c-0.4-0.4-0.9-0.7-1.5-0.7
		c-0.7,0-1.2,0.2-1.7,0.6c-0.5,0.4-0.9,0.9-1.2,1.6c-0.3,0.6-0.5,1.3-0.7,2c-0.2,0.7-0.2,1.4-0.2,2.1c0,0.9,0.2,1.5,0.6,2
		c0.4,0.4,0.9,0.7,1.5,0.7c0.7,0,1.2-0.2,1.7-0.6s0.9-0.9,1.2-1.6c0.3-0.6,0.5-1.3,0.7-2C203.1,15.9,203.2,15.2,203.2,14.6z"/>
	<path class="st0" d="M213.7,12.3c-0.2,0-0.5-0.1-0.7-0.1c-0.4,0-0.7,0.1-1,0.2c-0.3,0.1-0.7,0.4-1,0.6c-0.3,0.3-0.6,0.7-0.8,1.1
		c-0.2,0.5-0.4,1-0.6,1.6l-1.4,6.4h-1.9l2-9.2c0.1-0.4,0.2-0.9,0.2-1.3c0.1-0.4,0.1-0.8,0.2-1.3h1.9l-0.3,1.8l0,0
		c0.3-0.4,0.5-0.7,0.8-1c0.2-0.3,0.5-0.5,0.7-0.6s0.6-0.3,0.9-0.3s0.8-0.1,1.3-0.1L213.7,12.3z"/>
	<path class="st0" d="M227,12.1h-2.4l-1.5,6.9c0,0.2-0.1,0.3-0.1,0.5s0,0.3,0,0.4c0,0.3,0.1,0.5,0.3,0.6c0.2,0.2,0.4,0.2,0.7,0.2
		c0.2,0,0.4,0,0.6-0.1c0.2-0.1,0.4-0.1,0.6-0.2l-0.3,1.6c-0.3,0.1-0.5,0.2-0.8,0.2c-0.3,0.1-0.5,0.1-0.8,0.1c-0.7,0-1.2-0.2-1.7-0.5
		c-0.4-0.3-0.6-0.8-0.6-1.5c0-0.2,0-0.3,0-0.5s0-0.3,0.1-0.5l1.5-7.3h-1.9l0.3-1.6h1.9l0.5-2.4l2-0.6l-0.6,3h2.4L227,12.1z"/>
	<path class="st0" d="M237,13.1c0,0.2,0,0.5,0,0.7c0,0.3-0.1,0.5-0.1,0.7l-1.6,7.7h-1.9l1.6-7.7c0.1-0.4,0.1-0.7,0.1-1.1
		c0-0.4-0.1-0.7-0.3-1s-0.6-0.5-1.2-0.5c-0.4,0-0.7,0.1-1.1,0.3c-0.3,0.2-0.6,0.4-0.9,0.7c-0.3,0.3-0.5,0.6-0.7,1s-0.3,0.8-0.4,1.2
		l-1.5,7.2h-1.9L230.6,5h1.9l-1.5,7.1l0,0c0.4-0.6,0.9-1,1.4-1.3s1.1-0.4,1.8-0.4c0.9,0,1.6,0.3,2,0.8C236.8,11.6,237,12.3,237,13.1
		z"/>
	<path class="st0" d="M248.1,14c0,0.5,0,1-0.1,1.5s-0.2,1-0.3,1.5H241c-0.1,0.4-0.1,0.8-0.1,1.2c0,0.9,0.2,1.6,0.7,2.1
		c0.4,0.5,1.1,0.7,1.8,0.7c0.5,0,1-0.1,1.5-0.2c0.5-0.2,1-0.4,1.5-0.7l-0.2,1.7c-0.4,0.2-0.9,0.3-1.4,0.5c-0.5,0.1-1.1,0.2-1.7,0.2
		c-1.3,0-2.3-0.4-3.1-1.1c-0.7-0.7-1.1-1.8-1.1-3.2c0-0.9,0.1-1.8,0.4-2.8s0.6-1.8,1.1-2.5c0.5-0.8,1.1-1.4,1.7-1.8s1.5-0.7,2.3-0.7
		c1.1,0,2,0.3,2.6,1C247.8,12,248.1,12.9,248.1,14z M246.3,13.9c0-0.6-0.2-1.2-0.5-1.5c-0.3-0.4-0.8-0.6-1.3-0.6
		c-0.4,0-0.8,0.1-1.2,0.3s-0.7,0.5-0.9,0.9c-0.3,0.3-0.5,0.7-0.7,1.2c-0.2,0.4-0.3,0.9-0.4,1.3h4.8c0.1-0.3,0.1-0.6,0.2-0.8
		C246.3,14.5,246.3,14.2,246.3,13.9z"/>
	<path class="st0" d="M266.5,11.8c0,1.4-0.2,2.7-0.5,3.9c-0.4,1.2-0.9,2.3-1.6,3.3s-1.6,1.7-2.7,2.2c-1.1,0.6-2.3,0.8-3.7,0.8h-4.2
		l3.4-16.1h3.1c2.1,0,3.7,0.5,4.7,1.5C266,8.5,266.5,10,266.5,11.8z M264.4,11.9c0-0.5-0.1-1-0.2-1.5s-0.4-0.9-0.7-1.3
		c-0.3-0.4-0.8-0.7-1.3-0.9c-0.6-0.2-1.2-0.4-2.1-0.4h-1.3l-2.6,12.5h1.7c1.1,0,2.1-0.2,2.9-0.7s1.5-1.1,2-1.8
		c0.5-0.8,0.9-1.7,1.2-2.7C264.2,14.1,264.4,13,264.4,11.9z"/>
	<path class="st0" d="M277,13.8c0,0.5,0,1-0.1,1.5s-0.2,1-0.3,1.5h-6.7c-0.1,0.3-0.1,0.7-0.1,1.1c0,0.9,0.2,1.6,0.7,2.1
		c0.4,0.5,1.1,0.7,1.8,0.7c0.5,0,1-0.1,1.5-0.2c0.5-0.2,1-0.4,1.5-0.7l-0.2,1.7c-0.4,0.2-0.9,0.3-1.4,0.5c-0.5,0.1-1.1,0.2-1.7,0.2
		c-1.3,0-2.3-0.4-3.1-1.1c-0.7-0.7-1.1-1.8-1.1-3.2c0-0.9,0.1-1.8,0.4-2.8c0.3-0.9,0.6-1.8,1.1-2.5c0.5-0.8,1.1-1.4,1.7-1.8
		c0.6-0.4,1.5-0.7,2.3-0.7c1.1,0,2,0.3,2.6,1C276.7,11.8,277,12.7,277,13.8z M275.2,13.7c0-0.6-0.2-1.2-0.5-1.5
		c-0.3-0.4-0.8-0.6-1.3-0.6c-0.4,0-0.8,0.1-1.2,0.3s-0.7,0.5-0.9,0.9c-0.3,0.3-0.5,0.7-0.7,1.2c-0.2,0.4-0.3,0.9-0.4,1.3h4.8
		c0.1-0.3,0.1-0.6,0.2-0.8C275.2,14.3,275.2,14,275.2,13.7z"/>
	<path class="st0" d="M288.3,14.2c0,0.9-0.1,1.8-0.4,2.8c-0.2,1-0.6,1.8-1.1,2.6s-1,1.4-1.7,1.9s-1.4,0.7-2.2,0.7
		c-1.4,0-2.4-0.6-2.9-1.8l0,0l-1.4,6.6h-1.9l3.1-14.5c0.1-0.4,0.1-0.7,0.2-1.1c0.1-0.4,0.1-0.7,0.2-1.1h1.9l-0.3,1.7l0,0
		c0.5-0.7,0.9-1.2,1.4-1.5s1.1-0.4,1.8-0.4c0.6,0,1,0.1,1.4,0.3s0.8,0.5,1,0.8c0.3,0.4,0.5,0.8,0.6,1.3
		C288.2,13,288.3,13.6,288.3,14.2z M286.3,14.1c0-0.7-0.2-1.3-0.5-1.7s-0.8-0.7-1.4-0.7c-0.7,0-1.3,0.2-1.8,0.7
		c-0.5,0.4-0.9,1-1.2,1.7c-0.3,0.7-0.5,1.4-0.7,2.1c-0.1,0.8-0.2,1.4-0.2,2c0,0.7,0.2,1.2,0.5,1.7s0.8,0.7,1.6,0.7
		c0.6,0,1.2-0.2,1.6-0.7c0.5-0.4,0.8-1,1.1-1.6c0.3-0.7,0.5-1.4,0.7-2.1C286.2,15.5,286.3,14.8,286.3,14.1z"/>
	<path class="st0" d="M299.2,13.2c0,0.2,0,0.5-0.1,0.7c0,0.3-0.1,0.5-0.1,0.6l-1,4.9c-0.1,0.5-0.2,0.9-0.3,1.4
		c-0.1,0.4-0.2,0.9-0.2,1.3h-1.7l0.2-1.6l0,0c-0.5,0.6-1,1-1.5,1.3s-1.1,0.4-1.7,0.4c-1,0-1.7-0.3-2.3-0.8c-0.6-0.6-0.9-1.3-0.9-2.3
		c0-1.5,0.5-2.5,1.5-3.2c1-0.7,2.6-1,4.8-1h1.2c0.1-0.3,0.1-0.6,0.2-0.9c0-0.3,0.1-0.5,0.1-0.7c0-0.5-0.2-0.8-0.5-1.2
		c-0.3-0.3-0.8-0.5-1.4-0.5s-1.2,0.1-1.8,0.3s-1.1,0.5-1.6,0.8v-1.8c0.5-0.3,1.1-0.5,1.6-0.6c0.6-0.2,1.2-0.2,1.9-0.2
		c0.6,0,1.2,0.1,1.6,0.3s0.8,0.4,1.1,0.7s0.5,0.6,0.6,1C299.1,12.5,299.2,12.9,299.2,13.2z M294.2,16.4c-0.7,0.1-1.2,0.3-1.6,0.5
		s-0.7,0.5-0.8,0.8c-0.2,0.3-0.2,0.7-0.2,1.2c0,0.6,0.2,1,0.5,1.3s0.8,0.5,1.2,0.5c0.3,0,0.7-0.1,1-0.2s0.7-0.3,0.9-0.6
		c0.3-0.3,0.5-0.6,0.8-1c0.2-0.4,0.4-0.8,0.5-1.3l0.3-1.4C295.8,16.3,294.9,16.3,294.2,16.4z"/>
	<path class="st0" d="M308,12.1c-0.2,0-0.5-0.1-0.7-0.1c-0.4,0-0.7,0.1-1,0.2c-0.3,0.1-0.7,0.4-1,0.6c-0.3,0.3-0.6,0.7-0.8,1.1
		c-0.2,0.5-0.4,1-0.6,1.6l-1.4,6.4h-1.9l2-9.2c0.1-0.4,0.2-0.9,0.2-1.3c0.1-0.4,0.1-0.8,0.2-1.3h1.9l-0.3,1.8l0,0
		c0.3-0.4,0.5-0.7,0.8-1s0.5-0.5,0.7-0.6s0.6-0.3,0.9-0.3c0.4-0.1,0.8-0.1,1.3-0.1L308,12.1z"/>
	<path class="st0" d="M315.2,11.9h-2.4l-1.5,6.9c0,0.2-0.1,0.3-0.1,0.5s0,0.3,0,0.4c0,0.3,0.1,0.5,0.3,0.6c0.2,0.2,0.4,0.2,0.7,0.2
		c0.2,0,0.4,0,0.6-0.1s0.4-0.1,0.6-0.2l-0.3,1.6c-0.3,0.1-0.5,0.2-0.8,0.2c-0.3,0.1-0.5,0.1-0.8,0.1c-0.7,0-1.2-0.2-1.7-0.5
		c-0.4-0.3-0.6-0.8-0.6-1.5c0-0.2,0-0.3,0-0.5s0-0.3,0.1-0.5l1.5-7.3h-1.9l0.3-1.6h1.9l0.5-2.4l2-0.6l-0.6,3h2.4L315.2,11.9z"/>
	<path class="st0" d="M330.7,12.9c0,0.2,0,0.5,0,0.7s-0.1,0.5-0.1,0.7L329,22h-1.9l1.6-7.7c0.1-0.4,0.1-0.7,0.1-1.1
		c0-0.2,0-0.4,0-0.5c0-0.2-0.1-0.3-0.2-0.5c-0.1-0.1-0.3-0.3-0.4-0.3c-0.2-0.1-0.4-0.1-0.7-0.1c-0.3,0-0.6,0.1-0.9,0.3
		s-0.6,0.4-0.8,0.7c-0.3,0.3-0.5,0.6-0.7,1s-0.3,0.8-0.4,1.2l-1.5,7.2h-1.9l1.6-7.7c0.1-0.4,0.1-0.7,0.1-1.1c0-0.2,0-0.4,0-0.5
		s-0.1-0.3-0.2-0.5c-0.1-0.1-0.3-0.3-0.4-0.3c-0.2-0.1-0.4-0.1-0.7-0.1c-0.3,0-0.6,0.1-0.9,0.2c-0.3,0.2-0.6,0.4-0.8,0.7
		c-0.3,0.3-0.5,0.6-0.7,1s-0.3,0.8-0.4,1.2l-1.5,7.1h-1.9l2-9.2c0.1-0.4,0.2-0.9,0.2-1.3c0.1-0.4,0.1-0.8,0.2-1.3h1.9l-0.3,1.7l0,0
		c0.4-0.7,0.9-1.2,1.4-1.5s1.1-0.4,1.7-0.4s1.1,0.2,1.6,0.5c0.4,0.3,0.7,0.8,0.9,1.4l0,0c0.4-0.7,0.9-1.2,1.4-1.5s1.1-0.4,1.7-0.4
		c0.9,0,1.6,0.3,2,0.8C330.5,11.4,330.7,12.1,330.7,12.9z"/>
	<path class="st0" d="M341.9,13.8c0,0.5,0,1-0.1,1.5s-0.2,1-0.3,1.5h-6.7c-0.1,0.4-0.1,0.8-0.1,1.2c0,0.9,0.2,1.6,0.7,2.1
		c0.4,0.5,1.1,0.7,1.8,0.7c0.5,0,1-0.1,1.5-0.2c0.5-0.2,1-0.4,1.5-0.7l-0.2,1.7c-0.4,0.2-0.9,0.3-1.4,0.5c-0.5,0.1-1.1,0.2-1.7,0.2
		c-1.3,0-2.3-0.4-3.1-1.1c-0.7-0.7-1.1-1.8-1.1-3.2c0-0.9,0.1-1.8,0.4-2.8c0.3-0.9,0.6-1.8,1.1-2.5c0.5-0.8,1.1-1.4,1.7-1.8
		s1.5-0.7,2.3-0.7c1.1,0,2,0.3,2.6,1C341.6,11.8,341.9,12.7,341.9,13.8z M340.1,13.7c0-0.6-0.2-1.2-0.5-1.5
		c-0.3-0.4-0.8-0.6-1.3-0.6c-0.4,0-0.8,0.1-1.2,0.3c-0.4,0.2-0.7,0.5-0.9,0.9c-0.3,0.3-0.5,0.7-0.7,1.2c-0.2,0.4-0.3,0.9-0.4,1.3
		h4.8c0.1-0.3,0.1-0.6,0.2-0.8C340.1,14.3,340.1,14,340.1,13.7z"/>
	<path class="st0" d="M353,12.9c0,0.2,0,0.5,0,0.7s-0.1,0.5-0.1,0.7l-1.6,7.7h-1.9l1.6-7.7c0.1-0.4,0.1-0.7,0.1-1.1
		c0-0.4-0.1-0.7-0.3-1s-0.6-0.5-1.2-0.5c-0.4,0-0.7,0.1-1.1,0.3c-0.3,0.2-0.6,0.4-0.9,0.7s-0.5,0.6-0.7,1s-0.3,0.8-0.4,1.2l-1.7,7.1
		h-1.9l2-9.2c0.1-0.4,0.2-0.9,0.2-1.3c0.1-0.4,0.1-0.8,0.2-1.3h1.9l-0.4,1.9l0,0c0.4-0.7,0.9-1.2,1.4-1.5s1.1-0.4,1.9-0.4
		c0.9,0,1.6,0.3,2,0.8C352.7,11.4,353,12.1,353,12.9z"/>
	<path class="st0" d="M361.7,11.9h-2.4l-1.5,6.9c0,0.2-0.1,0.3-0.1,0.5s0,0.3,0,0.4c0,0.3,0.1,0.5,0.3,0.6c0.2,0.2,0.4,0.2,0.7,0.2
		c0.2,0,0.4,0,0.6-0.1s0.4-0.1,0.6-0.2l-0.3,1.6c-0.3,0.1-0.5,0.2-0.8,0.2c-0.3,0.1-0.5,0.1-0.8,0.1c-0.7,0-1.2-0.2-1.7-0.5
		c-0.4-0.3-0.6-0.8-0.6-1.5c0-0.2,0-0.3,0-0.5s0-0.3,0.1-0.5l1.5-7.3h-1.9l0.3-1.6h1.9l0.5-2.4l2-0.6l-0.6,3h2.4L361.7,11.9z"/>
	<path class="st0" d="M378,14.4c0,0.9-0.1,1.7-0.4,2.7c-0.2,0.9-0.6,1.7-1.1,2.5s-1.1,1.4-1.8,1.9c-0.7,0.5-1.6,0.7-2.5,0.7
		c-1.3,0-2.3-0.4-3-1.1s-1.1-1.8-1.1-3.2c0-0.8,0.1-1.7,0.4-2.6c0.2-0.9,0.6-1.8,1.1-2.5c0.5-0.8,1.1-1.4,1.8-1.9
		c0.7-0.5,1.6-0.7,2.5-0.7c1.2,0,2.2,0.4,2.9,1.1C377.7,12.1,378,13.1,378,14.4z M376,14.4c0-0.9-0.2-1.5-0.5-2
		c-0.4-0.4-0.9-0.7-1.5-0.7c-0.7,0-1.2,0.2-1.7,0.6s-0.9,0.9-1.2,1.6c-0.3,0.6-0.5,1.3-0.7,2c-0.2,0.7-0.2,1.4-0.2,2.1
		c0,0.9,0.2,1.5,0.6,2c0.4,0.4,0.9,0.7,1.5,0.7c0.7,0,1.2-0.2,1.7-0.6s0.9-0.9,1.2-1.6c0.3-0.7,0.5-1.3,0.7-2
		C375.9,15.7,376,15,376,14.4z"/>
	<path class="st0" d="M387.8,6.4c-0.3-0.2-0.7-0.3-1.1-0.3c-0.5,0-0.9,0.1-1.1,0.4c-0.3,0.3-0.5,0.7-0.6,1.3l-0.5,2.5h2.1l-0.3,1.6
		h-2.1l-2.1,10.2h-1.9l2.1-10.2h-1.9l0.3-1.6h1.9l0.6-2.7c0.2-1,0.6-1.7,1.1-2.3c0.5-0.5,1.3-0.8,2.4-0.8c0.5,0,1,0.1,1.5,0.2
		L387.8,6.4z"/>
	<path class="st0" d="M13.6,35.9H8.1L7,41h5.2l-0.4,1.7H6.6l-1.2,5.7h5.8l-0.4,1.7H3L6.4,34h7.5L13.6,35.9z"/>
	<path class="st0" d="M23.9,41.1c0,0.2,0,0.5,0,0.7c0,0.3-0.1,0.5-0.1,0.7l-1.6,7.7h-1.9l1.6-7.7c0.1-0.4,0.1-0.7,0.1-1.1
		c0-0.4-0.1-0.7-0.3-1s-0.6-0.5-1.2-0.5c-0.4,0-0.7,0.1-1.1,0.3c-0.3,0.2-0.6,0.4-0.9,0.7s-0.5,0.6-0.7,1s-0.3,0.8-0.4,1.2l-1.5,7.2
		H14l2-9.2c0.1-0.4,0.2-0.9,0.2-1.3c0.1-0.4,0.1-0.8,0.2-1.3h1.9L18,40.2l0,0c0.4-0.7,0.9-1.2,1.4-1.5s1.1-0.4,1.9-0.4
		c0.9,0,1.6,0.3,2,0.8C23.7,39.6,23.9,40.3,23.9,41.1z"/>
	<path class="st0" d="M30.1,50.2h-2.3l-1.2-11.7h2l0.7,9.8l0,0l4.5-9.8h2.1L30.1,50.2z"/>
	<path class="st0" d="M37.8,50.2h-1.9l2.5-11.7h1.9L37.8,50.2z M40.8,36h-2.1l0.5-2.3h2.1L40.8,36z"/>
	<path class="st0" d="M48.6,40.3c-0.2,0-0.5-0.1-0.7-0.1c-0.4,0-0.7,0.1-1,0.2c-0.3,0.1-0.7,0.4-1,0.6c-0.3,0.3-0.6,0.7-0.8,1.1
		c-0.2,0.5-0.4,1-0.6,1.6l-1.4,6.4h-1.9l2-9.2c0.1-0.4,0.2-0.9,0.2-1.3c0.1-0.4,0.1-0.8,0.2-1.3h1.9l-0.3,1.8l0,0
		c0.3-0.4,0.5-0.7,0.8-1c0.2-0.3,0.5-0.5,0.7-0.6s0.6-0.3,0.9-0.3s0.8-0.1,1.3-0.1L48.6,40.3z"/>
	<path class="st0" d="M58.8,42.6c0,0.9-0.1,1.7-0.4,2.7c-0.2,0.9-0.6,1.7-1.1,2.5s-1.1,1.4-1.8,1.9s-1.6,0.7-2.5,0.7
		c-1.3,0-2.3-0.4-3-1.1s-1.1-1.8-1.1-3.2c0-0.8,0.1-1.7,0.4-2.6c0.2-0.9,0.6-1.8,1.1-2.5c0.5-0.8,1.1-1.4,1.8-1.9s1.6-0.7,2.5-0.7
		c1.2,0,2.2,0.4,2.9,1.1C58.5,40.3,58.8,41.3,58.8,42.6z M56.8,42.6c0-0.9-0.2-1.5-0.5-2c-0.4-0.4-0.9-0.7-1.5-0.7
		c-0.7,0-1.2,0.2-1.7,0.6c-0.5,0.4-0.9,0.9-1.2,1.6c-0.3,0.6-0.5,1.3-0.7,2S51,45.5,51,46.2c0,0.9,0.2,1.5,0.6,2
		c0.4,0.4,0.9,0.7,1.5,0.7c0.7,0,1.2-0.2,1.7-0.6c0.5-0.4,0.9-0.9,1.2-1.6c0.3-0.6,0.5-1.3,0.7-2C56.8,43.9,56.8,43.2,56.8,42.6z"/>
	<path class="st0" d="M70.1,41.1c0,0.2,0,0.5,0,0.7c0,0.3-0.1,0.5-0.1,0.7l-1.6,7.7h-1.9l1.6-7.7c0.1-0.4,0.1-0.7,0.1-1.1
		c0-0.4-0.1-0.7-0.3-1s-0.6-0.5-1.2-0.5c-0.4,0-0.7,0.1-1.1,0.3c-0.3,0.2-0.6,0.4-0.9,0.7s-0.5,0.6-0.7,1s-0.3,0.8-0.4,1.2l-1.5,7.2
		h-1.9l2-9.2c0.1-0.4,0.2-0.9,0.2-1.3c0.1-0.4,0.1-0.8,0.2-1.3h1.9l-0.3,1.7l0,0c0.4-0.7,0.9-1.2,1.4-1.5s1.1-0.4,1.9-0.4
		c0.9,0,1.6,0.3,2,0.8C69.9,39.6,70.1,40.3,70.1,41.1z"/>
	<path class="st0" d="M87.2,41.1c0,0.2,0,0.5,0,0.7c0,0.3-0.1,0.5-0.1,0.7l-1.6,7.7h-2l1.6-7.7c0.1-0.4,0.1-0.7,0.1-1.1
		c0-0.2,0-0.4,0-0.5c0-0.2-0.1-0.3-0.2-0.5c-0.1-0.1-0.3-0.3-0.4-0.3C84.4,40,84.2,40,83.9,40s-0.6,0.1-0.9,0.3s-0.6,0.4-0.8,0.7
		c-0.3,0.3-0.5,0.6-0.7,1s-0.3,0.8-0.4,1.2l-1.5,7.2h-2.1l1.6-7.7c0.1-0.4,0.1-0.7,0.1-1.1c0-0.2,0-0.4,0-0.5c0-0.2-0.1-0.3-0.2-0.5
		c-0.1-0.1-0.3-0.3-0.4-0.3c-0.2-0.1-0.4-0.1-0.7-0.1s-0.6,0.1-0.9,0.2c-0.3,0.2-0.6,0.4-0.8,0.7s-0.5,0.6-0.7,1s-0.3,0.8-0.4,1.2
		l-1.5,7.1h-1.9l2-9.2c0.1-0.4,0.2-0.9,0.2-1.3s0.1-0.8,0.2-1.3H76l-0.3,1.7l0,0c0.4-0.7,0.9-1.2,1.4-1.5s1.1-0.4,1.7-0.4
		s1.1,0.2,1.6,0.5c0.4,0.3,0.7,0.8,0.9,1.4l0,0c0.4-0.7,0.9-1.2,1.4-1.5s1.1-0.4,1.7-0.4c0.9,0,1.6,0.3,2,0.8
		C87,39.6,87.2,40.3,87.2,41.1z"/>
	<path class="st0" d="M98.3,42c0,0.5,0,1-0.1,1.5s-0.2,1-0.3,1.5h-6.7c-0.1,0.4-0.1,0.8-0.1,1.2c0,0.9,0.2,1.6,0.7,2.1
		c0.4,0.5,1.1,0.7,1.8,0.7c0.5,0,1-0.1,1.5-0.2c0.5-0.2,1-0.4,1.5-0.7l-0.2,1.7C96,50,95.5,50.1,95,50.3c-0.5,0.1-1.1,0.2-1.7,0.2
		c-1.3,0-2.3-0.4-3.1-1.1c-0.7-0.7-1.1-1.8-1.1-3.2c0-0.9,0.1-1.8,0.4-2.8c0.3-0.9,0.6-1.8,1.1-2.5c0.5-0.8,1.1-1.4,1.7-1.8
		s1.5-0.7,2.3-0.7c1.1,0,2,0.3,2.6,1C98,40,98.3,40.9,98.3,42z M96.5,41.9c0-0.6-0.2-1.2-0.5-1.5c-0.3-0.4-0.8-0.6-1.3-0.6
		c-0.4,0-0.8,0.1-1.2,0.3s-0.7,0.5-0.9,0.9c-0.3,0.3-0.5,0.7-0.7,1.2c-0.2,0.4-0.3,0.9-0.4,1.3h4.8c0.1-0.3,0.1-0.6,0.2-0.8
		C96.5,42.5,96.5,42.2,96.5,41.9z"/>
	<path class="st0" d="M109.4,41.1c0,0.2,0,0.5,0,0.7c0,0.3-0.1,0.5-0.1,0.7l-1.6,7.7h-1.9l1.6-7.7c0.1-0.4,0.1-0.7,0.1-1.1
		c0-0.4-0.1-0.7-0.3-1s-0.6-0.5-1.2-0.5c-0.4,0-0.7,0.1-1.1,0.3c-0.3,0.2-0.6,0.4-0.9,0.7s-0.5,0.6-0.7,1s-0.3,0.8-0.4,1.2l-1.5,7.2
		h-1.9l2-9.2c0.1-0.4,0.2-0.9,0.2-1.3c0.1-0.4,0.1-0.8,0.2-1.3h1.9l-0.3,1.7l0,0c0.4-0.7,0.9-1.2,1.4-1.5s1.1-0.4,1.9-0.4
		c0.9,0,1.6,0.3,2,0.8C109.2,39.6,109.4,40.3,109.4,41.1z"/>
	<path class="st0" d="M118.2,40.1h-2.4l-1.5,6.9c0,0.2-0.1,0.3-0.1,0.5s0,0.3,0,0.4c0,0.3,0.1,0.5,0.3,0.6c0.2,0.2,0.4,0.2,0.7,0.2
		c0.2,0,0.4,0,0.6-0.1s0.4-0.1,0.6-0.2l-0.3,1.6c-0.3,0.1-0.5,0.2-0.8,0.2c-0.3,0.1-0.5,0.1-0.8,0.1c-0.7,0-1.2-0.2-1.7-0.5
		c-0.4-0.3-0.6-0.8-0.6-1.5c0-0.2,0-0.3,0-0.5s0-0.3,0.1-0.5l1.5-7.3h-1.9l0.3-1.6h1.9l0.5-2.4l2-0.6l-0.6,3h2.4L118.2,40.1z"/>
	<path class="st0" d="M118.9,53h-1.6l1.8-5.3h2.1L118.9,53z"/>
	<path class="st0" d="M141.1,50.3h-2.4l-0.2-13.8l0,0l-5.9,13.8h-2.4l-0.2-16h2.1v13l0,0l5.5-13h2.6l0.2,13l0,0l5.5-13h2L141.1,50.3
		z"/>
	<path class="st0" d="M155.4,41.5c0,0.2,0,0.5-0.1,0.7c0,0.3-0.1,0.5-0.1,0.6l-1,4.9c-0.1,0.5-0.2,0.9-0.2,1.4
		c-0.1,0.4-0.2,0.9-0.2,1.3H152l0.2-1.6l0,0c-0.5,0.6-1,1-1.5,1.3s-1.1,0.4-1.7,0.4c-1,0-1.7-0.3-2.3-0.8c-0.6-0.6-0.9-1.3-0.9-2.3
		c0-1.5,0.5-2.5,1.5-3.2s2.6-1,4.8-1h1.2c0.1-0.3,0.1-0.6,0.2-0.9c0-0.3,0.1-0.5,0.1-0.7c0-0.5-0.2-0.8-0.5-1.2s-0.8-0.5-1.4-0.5
		c-0.6,0-1.2,0.1-1.8,0.3s-1.1,0.5-1.6,0.8v-1.8c0.5-0.3,1.1-0.5,1.6-0.6c0.6-0.2,1.2-0.2,1.9-0.2c0.6,0,1.2,0.1,1.6,0.3
		s0.8,0.4,1.1,0.7s0.5,0.6,0.6,1C155.4,40.8,155.4,41.2,155.4,41.5z M150.5,44.7c-0.7,0.1-1.2,0.3-1.6,0.5c-0.4,0.2-0.7,0.5-0.8,0.8
		c-0.2,0.3-0.2,0.7-0.2,1.2c0,0.6,0.2,1,0.5,1.3s0.8,0.5,1.2,0.5c0.3,0,0.7-0.1,1-0.2s0.7-0.3,0.9-0.6c0.3-0.3,0.5-0.6,0.8-1
		c0.2-0.4,0.4-0.8,0.5-1.3l0.3-1.4C152,44.6,151.2,44.6,150.5,44.7z"/>
	<path class="st0" d="M164.2,40.2h-2.4l-1.5,6.9c0,0.2-0.1,0.3-0.1,0.5s0,0.3,0,0.4c0,0.3,0.1,0.5,0.3,0.6c0.2,0.2,0.4,0.2,0.7,0.2
		c0.2,0,0.4,0,0.6-0.1s0.4-0.1,0.6-0.2l-0.3,1.6c-0.3,0.1-0.5,0.2-0.8,0.2c-0.3,0.1-0.5,0.1-0.8,0.1c-0.7,0-1.2-0.2-1.7-0.5
		c-0.4-0.3-0.6-0.8-0.6-1.5c0-0.2,0-0.3,0-0.5s0-0.3,0.1-0.5l1.5-7.3H158l0.3-1.6h1.9l0.5-2.4l2-0.6l-0.6,3h2.4L164.2,40.2z"/>
	<path class="st0" d="M173.8,42.1c0,0.5,0,1-0.1,1.5s-0.2,1-0.3,1.5h-6.7c-0.1,0.4-0.1,0.8-0.1,1.2c0,0.9,0.2,1.6,0.7,2.1
		c0.4,0.5,1.1,0.7,1.8,0.7c0.5,0,1-0.1,1.5-0.2c0.5-0.2,1-0.4,1.5-0.7l-0.2,1.7c-0.4,0.2-0.9,0.3-1.4,0.5c-0.5,0.1-1.1,0.2-1.7,0.2
		c-1.3,0-2.3-0.4-3.1-1.1c-0.7-0.7-1.1-1.8-1.1-3.2c0-0.9,0.1-1.8,0.4-2.8c0.3-0.9,0.6-1.8,1.1-2.5c0.5-0.8,1.1-1.4,1.7-1.8
		s1.5-0.7,2.3-0.7c1.1,0,2,0.3,2.6,1C173.5,40.1,173.8,41,173.8,42.1z M172,42c0-0.6-0.2-1.2-0.5-1.5c-0.3-0.4-0.8-0.6-1.3-0.6
		c-0.4,0-0.8,0.1-1.2,0.3s-0.7,0.5-0.9,0.9c-0.3,0.3-0.5,0.7-0.7,1.2c-0.2,0.4-0.3,0.9-0.4,1.3h4.8c0.1-0.3,0.1-0.6,0.2-0.8
		C172,42.6,172,42.3,172,42z"/>
	<path class="st0" d="M182.2,40.4c-0.2,0-0.5-0.1-0.7-0.1c-0.4,0-0.7,0.1-1,0.2s-0.7,0.4-1,0.6c-0.3,0.3-0.6,0.7-0.8,1.1
		c-0.2,0.4-0.4,1-0.6,1.6l-1.4,6.4h-1.9l2-9.2c0.1-0.4,0.2-0.9,0.2-1.3c0.1-0.4,0.1-0.8,0.2-1.3h1.9l-0.3,1.8l0,0
		c0.3-0.4,0.5-0.7,0.8-1s0.5-0.5,0.7-0.6s0.6-0.3,0.9-0.3c0.4-0.1,0.8-0.1,1.3-0.1L182.2,40.4z"/>
	<path class="st0" d="M197.7,41.5c0,0.2,0,0.5-0.1,0.7c0,0.3-0.1,0.5-0.1,0.6l-1,4.9c-0.1,0.5-0.2,0.9-0.3,1.4
		c-0.1,0.4-0.2,0.9-0.2,1.3h-1.7l0.2-1.6l0,0c-0.5,0.6-1,1-1.5,1.3s-1.1,0.4-1.7,0.4c-1,0-1.7-0.3-2.3-0.8c-0.6-0.6-0.9-1.3-0.9-2.3
		c0-1.5,0.5-2.5,1.5-3.2s2.6-1,4.8-1h1.2c0.1-0.3,0.1-0.6,0.2-0.9c0-0.3,0.1-0.5,0.1-0.7c0-0.5-0.2-0.8-0.5-1.2s-0.8-0.5-1.4-0.5
		c-0.6,0-1.2,0.1-1.8,0.3s-1.1,0.5-1.6,0.8v-1.8c0.5-0.3,1.1-0.5,1.6-0.6c0.6-0.2,1.2-0.2,1.9-0.2c0.6,0,1.2,0.1,1.6,0.3
		c0.4,0.2,0.8,0.4,1.1,0.7s0.5,0.6,0.6,1C197.7,40.8,197.7,41.2,197.7,41.5z M192.8,44.7c-0.7,0.1-1.2,0.3-1.6,0.5
		c-0.4,0.2-0.7,0.5-0.8,0.8c-0.2,0.3-0.2,0.7-0.2,1.2c0,0.6,0.2,1,0.5,1.3s0.8,0.5,1.2,0.5c0.3,0,0.7-0.1,1-0.2s0.7-0.3,0.9-0.6
		c0.3-0.3,0.5-0.6,0.8-1c0.2-0.4,0.4-0.8,0.5-1.3l0.3-1.4C194.3,44.6,193.5,44.6,192.8,44.7z"/>
	<path class="st0" d="M209.2,41.2c0,0.2,0,0.5,0,0.7c0,0.3-0.1,0.5-0.1,0.7l-1.6,7.7h-1.9l1.6-7.7c0.1-0.4,0.1-0.7,0.1-1.1
		s-0.1-0.7-0.3-1s-0.7-0.4-1.3-0.4c-0.4,0-0.7,0.1-1.1,0.3c-0.3,0.2-0.6,0.4-0.9,0.7c-0.3,0.3-0.5,0.6-0.7,1s-0.3,0.8-0.4,1.2
		l-1.5,7.2h-1.9l2-9.2c0.1-0.4,0.2-0.9,0.2-1.3c0.1-0.4,0.1-0.8,0.2-1.3h1.9l-0.3,1.7l0,0c0.4-0.7,0.9-1.2,1.4-1.5s1.1-0.4,1.9-0.4
		c0.9,0,1.6,0.3,2,0.8C209,39.7,209.2,40.4,209.2,41.2z"/>
	<path class="st0" d="M219.6,48.2c-0.2,0.7-0.3,1.4-0.3,2.2h-1.9l0.3-1.7l0,0c-0.9,1.3-2,1.9-3.2,1.9c-0.6,0-1-0.1-1.4-0.3
		s-0.8-0.5-1-0.8s-0.5-0.8-0.6-1.3s-0.2-1-0.2-1.6c0-0.9,0.1-1.8,0.4-2.8c0.2-1,0.6-1.8,1.1-2.6s1-1.4,1.7-1.9s1.4-0.7,2.2-0.7
		c0.7,0,1.3,0.1,1.8,0.4s0.8,0.7,1.1,1.4l0,0l1.5-7.1h1.9L219.6,48.2z M218.7,42.5c0-0.7-0.2-1.2-0.5-1.7s-0.8-0.7-1.6-0.7
		c-0.6,0-1.2,0.2-1.6,0.7c-0.5,0.4-0.8,1-1.1,1.6c-0.3,0.7-0.5,1.4-0.7,2.1c-0.1,0.8-0.2,1.4-0.2,2.1s0.2,1.3,0.5,1.7
		s0.8,0.7,1.4,0.7c0.7,0,1.3-0.2,1.8-0.7c0.5-0.4,0.9-1,1.2-1.7s0.5-1.4,0.7-2.1S218.7,43.1,218.7,42.5z"/>
	<path class="st0" d="M239.1,50.3h-2.4l-3.3-13.2l0,0l-2.8,13.2h-1.9l3.4-16.1h2.4l3.3,13.2l0,0l2.8-13.2h1.9L239.1,50.3z"/>
	<path class="st0" d="M252.4,41.5c0,0.2,0,0.5-0.1,0.7c0,0.3-0.1,0.5-0.1,0.6l-1,4.9c-0.1,0.5-0.2,0.9-0.3,1.4
		c-0.1,0.4-0.2,0.9-0.2,1.3H249l0.2-1.6l0,0c-0.5,0.6-1,1-1.5,1.3s-1.1,0.4-1.7,0.4c-1,0-1.7-0.3-2.3-0.8c-0.6-0.6-0.9-1.3-0.9-2.3
		c0-1.5,0.5-2.5,1.5-3.2s2.6-1,4.8-1h1.2c0.1-0.3,0.1-0.6,0.2-0.9c0-0.3,0.1-0.5,0.1-0.7c0-0.5-0.2-0.8-0.5-1.2s-0.8-0.5-1.4-0.5
		c-0.6,0-1.2,0.1-1.8,0.3s-1.1,0.5-1.6,0.8v-1.8c0.5-0.3,1.1-0.5,1.6-0.6c0.6-0.2,1.2-0.2,1.9-0.2c0.6,0,1.2,0.1,1.6,0.3
		c0.4,0.2,0.8,0.4,1.1,0.7s0.5,0.6,0.6,1C252.4,40.8,252.4,41.2,252.4,41.5z M247.5,44.7c-0.7,0.1-1.2,0.3-1.6,0.5
		c-0.4,0.2-0.7,0.5-0.8,0.8c-0.2,0.3-0.2,0.7-0.2,1.2c0,0.6,0.2,1,0.5,1.3s0.8,0.5,1.2,0.5c0.3,0,0.7-0.1,1-0.2s0.7-0.3,0.9-0.6
		c0.3-0.3,0.5-0.6,0.8-1c0.2-0.4,0.4-0.8,0.5-1.3l0.3-1.4C249,44.6,248.2,44.6,247.5,44.7z"/>
	<path class="st0" d="M261.2,40.2h-2.4l-1.5,6.9c0,0.2-0.1,0.3-0.1,0.5s0,0.3,0,0.4c0,0.3,0.1,0.5,0.3,0.6c0.2,0.2,0.4,0.2,0.7,0.2
		c0.2,0,0.4,0,0.6-0.1s0.4-0.1,0.6-0.2l-0.3,1.6c-0.3,0.1-0.5,0.2-0.8,0.2c-0.3,0.1-0.5,0.1-0.8,0.1c-0.7,0-1.2-0.2-1.7-0.5
		c-0.4-0.3-0.6-0.8-0.6-1.5c0-0.2,0-0.3,0-0.5s0-0.3,0.1-0.5l1.5-7.3H255l0.3-1.6h1.9l0.5-2.4l2-0.6l-0.6,3h2.4L261.2,40.2z"/>
	<path class="st0" d="M269.9,47.8c-0.1,0.4-0.2,0.9-0.2,1.3c-0.1,0.4-0.1,0.8-0.2,1.3h-1.9l0.3-1.7l0,0c-0.4,0.7-0.9,1.2-1.4,1.5
		s-1.1,0.4-1.9,0.4c-0.9,0-1.6-0.3-2-0.8s-0.7-1.2-0.7-1.9c0-0.2,0-0.5,0-0.7c0-0.3,0.1-0.5,0.1-0.7l1.6-7.7h1.9l-1.6,7.7
		c-0.1,0.4-0.1,0.7-0.1,1.1s0.1,0.7,0.3,1c0.2,0.3,0.6,0.5,1.2,0.5c0.4,0,0.7-0.1,1.1-0.2c0.3-0.2,0.6-0.4,0.9-0.6
		c0.3-0.3,0.5-0.6,0.7-0.9c0.2-0.4,0.3-0.7,0.4-1.1l1.5-7.3h1.9L269.9,47.8z"/>
	<path class="st0" d="M280,40.4c-0.2,0-0.5-0.1-0.7-0.1c-0.4,0-0.7,0.1-1,0.2c-0.3,0.1-0.7,0.4-1,0.6c-0.3,0.3-0.6,0.7-0.8,1.1
		c-0.2,0.4-0.4,1-0.6,1.6l-1.4,6.4h-1.9l2-9.2c0.1-0.4,0.2-0.9,0.2-1.3s0.1-0.8,0.2-1.3h1.9l-0.3,1.8l0,0c0.3-0.4,0.5-0.7,0.8-1
		c0.2-0.3,0.5-0.5,0.7-0.6s0.6-0.3,0.9-0.3s0.8-0.1,1.3-0.1L280,40.4z"/>
	<path class="st0" d="M289.6,41.5c0,0.2,0,0.5-0.1,0.7c0,0.3-0.1,0.5-0.1,0.6l-1,4.9c-0.1,0.5-0.2,0.9-0.3,1.4
		c-0.1,0.4-0.2,0.9-0.2,1.3h-1.7l0.2-1.6l0,0c-0.5,0.6-1,1-1.5,1.3s-1.1,0.4-1.7,0.4c-1,0-1.7-0.3-2.3-0.8s-0.9-1.3-0.9-2.3
		c0-1.5,0.5-2.5,1.5-3.2s2.6-1,4.8-1h1.2c0.1-0.3,0.1-0.6,0.2-0.9c0-0.3,0.1-0.5,0.1-0.7c0-0.5-0.2-0.8-0.5-1.2s-0.8-0.5-1.4-0.5
		s-1.2,0.1-1.8,0.3c-0.6,0.2-1.1,0.5-1.6,0.8v-1.8c0.5-0.3,1.1-0.5,1.6-0.6c0.6-0.2,1.2-0.2,1.9-0.2c0.6,0,1.2,0.1,1.6,0.3
		c0.5,0.2,0.8,0.4,1.1,0.7c0.3,0.3,0.5,0.6,0.6,1C289.5,40.8,289.6,41.2,289.6,41.5z M284.7,44.7c-0.7,0.1-1.2,0.3-1.6,0.5
		s-0.7,0.5-0.8,0.8c-0.2,0.3-0.2,0.7-0.2,1.2c0,0.6,0.2,1,0.5,1.3s0.8,0.5,1.2,0.5c0.3,0,0.7-0.1,1-0.2c0.3-0.1,0.7-0.3,0.9-0.6
		c0.3-0.3,0.5-0.6,0.8-1c0.2-0.4,0.4-0.8,0.5-1.3l0.3-1.4C286.2,44.6,285.4,44.6,284.7,44.7z"/>
	<path class="st0" d="M293.2,50.3h-1.9l3.7-17.2h1.9L293.2,50.3z"/>
	<path class="st0" d="M314.1,37.8c0,1.2-0.3,2.3-1,3.1s-1.6,1.3-2.8,1.6l0,0c0.3,0.1,0.6,0.3,0.8,0.6c0.2,0.3,0.3,0.7,0.4,1.2
		l1.1,6.2h-2.1l-0.8-5.2c-0.1-0.8-0.3-1.3-0.6-1.6c-0.3-0.3-0.6-0.4-1.1-0.4h-1.5l-1.5,7.3h-2l3.4-16.1h3.6c0.7,0,1.2,0.1,1.8,0.3
		c0.5,0.2,1,0.4,1.3,0.7c0.4,0.3,0.6,0.7,0.8,1.1C314.1,36.8,314.1,37.3,314.1,37.8z M312,38c0-0.6-0.2-1.1-0.7-1.5
		c-0.4-0.3-1-0.5-1.8-0.5H308l-1.2,5.5h1.8c0.5,0,1-0.1,1.4-0.3s0.8-0.4,1.1-0.7c0.3-0.3,0.5-0.7,0.7-1.1C312,39,312,38.4,312,38z"
		/>
	<path class="st0" d="M324.7,42.1c0,0.5,0,1-0.1,1.5s-0.2,1-0.3,1.5h-6.7c-0.1,0.4-0.1,0.8-0.1,1.2c0,0.9,0.2,1.6,0.7,2.1
		c0.4,0.5,1.1,0.7,1.8,0.7c0.5,0,1-0.1,1.5-0.2c0.5-0.2,1-0.4,1.5-0.7l-0.2,1.7c-0.4,0.2-0.9,0.3-1.4,0.5c-0.5,0.1-1.1,0.2-1.7,0.2
		c-1.3,0-2.3-0.4-3.1-1.1c-0.7-0.7-1.1-1.8-1.1-3.2c0-0.9,0.1-1.8,0.4-2.8s0.6-1.8,1.1-2.5c0.5-0.8,1.1-1.4,1.7-1.8
		c0.6-0.4,1.5-0.7,2.3-0.7c1.1,0,2,0.3,2.6,1C324.3,40.1,324.7,41,324.7,42.1z M322.9,42c0-0.6-0.2-1.2-0.5-1.5
		c-0.3-0.4-0.8-0.6-1.3-0.6c-0.4,0-0.8,0.1-1.2,0.3c-0.4,0.2-0.7,0.5-0.9,0.9c-0.3,0.3-0.5,0.7-0.7,1.2c-0.2,0.4-0.3,0.9-0.4,1.3
		h4.8c0.1-0.3,0.1-0.6,0.2-0.8C322.8,42.6,322.9,42.3,322.9,42z"/>
	<path class="st0" d="M333.1,40.6c-0.3-0.2-0.6-0.3-1-0.4s-0.7-0.1-1.1-0.1c-0.6,0-1.1,0.2-1.5,0.5s-0.6,0.7-0.6,1.2
		c0,0.3,0.1,0.6,0.3,0.9c0.2,0.3,0.5,0.6,1,0.9l1.2,0.8c0.4,0.3,0.7,0.6,0.9,1c0.2,0.4,0.3,0.9,0.3,1.5s-0.1,1.1-0.3,1.6
		c-0.2,0.5-0.5,0.8-0.9,1.2s-0.8,0.6-1.4,0.7c-0.5,0.2-1.1,0.3-1.7,0.3c-0.7,0-1.3-0.1-1.9-0.2c-0.6-0.1-0.9-0.2-1.3-0.4l0.6-1.7
		c0.4,0.2,0.8,0.4,1.2,0.5s0.8,0.2,1.4,0.2c0.7,0,1.2-0.2,1.6-0.5s0.6-0.8,0.6-1.4c0-0.4-0.1-0.7-0.3-1c-0.2-0.3-0.5-0.6-1-0.9
		l-1-0.7c-0.4-0.3-0.8-0.7-1-1.1c-0.2-0.4-0.4-0.9-0.4-1.4c0-0.6,0.1-1.1,0.3-1.6c0.2-0.5,0.5-0.8,0.9-1.1s0.8-0.5,1.3-0.7
		s1.1-0.2,1.7-0.2c0.4,0,0.9,0,1.4,0.1s0.8,0.2,1.1,0.3L333.1,40.6z"/>
	<path class="st0" d="M345,42.7c0,0.9-0.1,1.7-0.4,2.7c-0.2,0.9-0.6,1.7-1.1,2.5s-1.1,1.4-1.8,1.9c-0.7,0.5-1.6,0.7-2.5,0.7
		c-1.3,0-2.3-0.4-3-1.1c-0.7-0.7-1.1-1.8-1.1-3.2c0-0.8,0.1-1.7,0.4-2.6c0.2-0.9,0.6-1.8,1.1-2.5s1.1-1.4,1.8-1.9
		c0.7-0.5,1.6-0.7,2.5-0.7c1.2,0,2.2,0.4,2.9,1.1C344.6,40.4,345,41.4,345,42.7z M343,42.7c0-0.9-0.2-1.5-0.5-2
		c-0.4-0.4-0.9-0.7-1.5-0.7c-0.7,0-1.2,0.2-1.7,0.6s-0.9,0.9-1.2,1.6c-0.3,0.6-0.5,1.3-0.7,2s-0.2,1.4-0.2,2.1c0,0.9,0.2,1.5,0.6,2
		c0.4,0.4,0.9,0.7,1.5,0.7c0.7,0,1.2-0.2,1.7-0.6s0.9-0.9,1.2-1.6c0.3-0.6,0.5-1.3,0.7-2C342.9,44,343,43.3,343,42.7z"/>
	<path class="st0" d="M355,47.8c-0.1,0.4-0.2,0.9-0.2,1.3c-0.1,0.4-0.1,0.8-0.2,1.3h-1.9l0.3-1.7l0,0c-0.4,0.7-0.9,1.2-1.4,1.5
		s-1.1,0.4-1.9,0.4c-0.9,0-1.6-0.3-2-0.8s-0.7-1.2-0.7-1.9c0-0.2,0-0.5,0-0.7c0-0.3,0.1-0.5,0.1-0.7l1.6-7.7h1.9l-1.6,7.7
		c-0.1,0.4-0.1,0.7-0.1,1.1s0.1,0.7,0.3,1c0.2,0.3,0.6,0.5,1.2,0.5c0.4,0,0.7-0.1,1.1-0.2c0.3-0.2,0.6-0.4,0.9-0.6
		c0.3-0.3,0.5-0.6,0.7-0.9c0.2-0.4,0.3-0.7,0.4-1.1L355,39h1.9L355,47.8z"/>
	<path class="st0" d="M365.1,40.4c-0.2,0-0.5-0.1-0.7-0.1c-0.4,0-0.7,0.1-1,0.2c-0.3,0.1-0.7,0.4-1,0.6c-0.3,0.3-0.6,0.7-0.8,1.1
		c-0.2,0.4-0.4,1-0.6,1.6l-1.4,6.4h-1.9l2-9.2c0.1-0.4,0.2-0.9,0.2-1.3s0.1-0.8,0.2-1.3h1.9l-0.3,1.8l0,0c0.3-0.4,0.5-0.7,0.8-1
		c0.2-0.3,0.5-0.5,0.7-0.6s0.6-0.3,0.9-0.3s0.8-0.1,1.3-0.1L365.1,40.4z"/>
	<path class="st0" d="M373.8,40.7c-0.5-0.4-1.2-0.6-2-0.6c-0.7,0-1.4,0.2-1.9,0.5s-1,0.8-1.3,1.4c-0.4,0.6-0.6,1.2-0.8,1.8
		c-0.2,0.6-0.3,1.3-0.3,2c0,0.6,0.1,1.1,0.3,1.5c0.2,0.4,0.4,0.7,0.6,0.9c0.3,0.2,0.5,0.4,0.8,0.5s0.6,0.1,0.9,0.1
		c0.5,0,0.9-0.1,1.3-0.2s0.7-0.3,1-0.4l-0.3,1.8c-0.4,0.1-0.7,0.2-1.1,0.3s-0.8,0.1-1.2,0.1c-0.6,0-1.2-0.1-1.7-0.3s-1-0.5-1.4-0.9
		s-0.7-0.8-1-1.4c-0.2-0.6-0.4-1.2-0.4-2c0-0.9,0.1-1.8,0.4-2.7s0.7-1.7,1.2-2.4s1.2-1.3,2-1.7c0.8-0.5,1.7-0.7,2.7-0.7
		c0.5,0,1,0,1.4,0.1s0.8,0.2,1.1,0.3L373.8,40.7z"/>
	<path class="st0" d="M384.1,42.1c0,0.5,0,1-0.1,1.5s-0.2,1-0.3,1.5H377c-0.1,0.4-0.1,0.8-0.1,1.2c0,0.9,0.2,1.6,0.7,2.1
		c0.4,0.5,1.1,0.7,1.8,0.7c0.5,0,1-0.1,1.5-0.2c0.5-0.2,1-0.4,1.5-0.7l-0.2,1.7c-0.4,0.2-0.9,0.3-1.4,0.5c-0.5,0.1-1.1,0.2-1.7,0.2
		c-1.3,0-2.3-0.4-3.1-1.1c-0.7-0.7-1.1-1.8-1.1-3.2c0-0.9,0.1-1.8,0.4-2.8s0.6-1.8,1.1-2.5c0.5-0.8,1.1-1.4,1.7-1.8
		c0.6-0.4,1.5-0.7,2.3-0.7c1.1,0,2,0.3,2.6,1C383.8,40.1,384.1,41,384.1,42.1z M382.3,42c0-0.6-0.2-1.2-0.5-1.5
		c-0.3-0.4-0.8-0.6-1.3-0.6c-0.4,0-0.8,0.1-1.2,0.3c-0.4,0.2-0.7,0.5-0.9,0.9c-0.3,0.3-0.5,0.7-0.7,1.2c-0.2,0.4-0.3,0.9-0.4,1.3
		h4.8c0.1-0.3,0.1-0.6,0.2-0.8C382.3,42.6,382.3,42.3,382.3,42z"/>
	<path class="st0" d="M392.5,40.6c-0.3-0.2-0.6-0.3-1-0.4s-0.7-0.1-1.1-0.1c-0.6,0-1.1,0.2-1.5,0.5s-0.6,0.7-0.6,1.2
		c0,0.3,0.1,0.6,0.3,0.9c0.2,0.3,0.5,0.6,1,0.9l1.2,0.8c0.4,0.3,0.7,0.6,0.9,1c0.2,0.4,0.3,0.9,0.3,1.5s-0.1,1.1-0.3,1.6
		c-0.2,0.5-0.5,0.8-0.9,1.2s-0.8,0.6-1.4,0.7c-0.5,0.2-1.1,0.3-1.7,0.3c-0.7,0-1.3-0.1-1.9-0.2s-0.9-0.2-1.3-0.4l0.6-1.7
		c0.4,0.2,0.8,0.4,1.2,0.5c0.4,0.1,0.8,0.2,1.4,0.2c0.7,0,1.2-0.2,1.6-0.5s0.6-0.8,0.6-1.4c0-0.4-0.1-0.7-0.3-1s-0.5-0.6-1-0.9
		l-1-0.7c-0.4-0.3-0.8-0.7-1-1.1s-0.4-0.9-0.4-1.4c0-0.6,0.1-1.1,0.3-1.6c0.2-0.5,0.5-0.8,0.9-1.1s0.8-0.5,1.3-0.7s1.1-0.2,1.7-0.2
		c0.4,0,0.9,0,1.4,0.1s0.8,0.2,1.1,0.3L392.5,40.6z"/>
</g>
</svg>
