<svg xmlns="http://www.w3.org/2000/svg" width="36" height="144" viewBox="0 0 36 144"><path fill="#FFF" d="M26.748 13.482c.01.195.01.392.01.588C26.76 20.077 22.222 27 13.92 27 11.372 27 9 26.248 7 24.96c.354.04.712.062 1.077.062 2.115 0 4.06-.727 5.606-1.944-1.975-.037-3.64-1.35-4.217-3.157.276.06.56.09.85.09.412 0 .81-.054 1.19-.16-2.066-.42-3.622-2.254-3.622-4.454v-.057c.61.34 1.305.545 2.044.57-1.21-.817-2.008-2.207-2.008-3.78 0-.835.223-1.617.612-2.287 2.226 2.75 5.552 4.557 9.3 4.748-.073-.33-.114-.677-.114-1.034 0-2.51 2.02-4.546 4.512-4.546 1.3 0 2.472.552 3.294 1.436 1.028-.203 1.995-.58 2.866-1.103-.337 1.064-1.05 1.954-1.984 2.516.914-.11 1.783-.354 2.592-.716-.602.91-1.37 1.71-2.25 2.35M21.6 54.008h-3.082V65h-4.57V54.007h-2.17v-3.882h2.17V47.61c0-1.798.855-4.61 4.612-4.61l3.384.013v3.77h-2.457c-.4 0-.97.2-.97 1.057v2.284H22l-.4 3.883zM29 100H7V87.074c0-.09.06-.21.13-.265l1.305-1.01c.04-.03.076-.05.112-.06v-5.63h7.293c.017-.02.03-.04.06-.06l2.098-1.62 2.102 1.62c.027.02.04.04.06.06h7.306v5.635c.033.014.064.026.098.053l1.305 1.01c.07.053.13.173.13.264V100zM11.415 83.007h4.4v4.4h-4.4v-4.4zm5.674 3.3h3.04v.81h-3.04v-.81zm0-1.65h7.44v.812h-7.45v-.82zm0-1.65h7.44v.81h-7.45v-.81zm-7.03 6.462L18 93.74l7.7-4.14c.14-.072.25-.26.25-.415V81.33H10.06v8.138zM29 129.65c-.023.096-.048.192-.07.288-.29 1.187-1.265 1.958-2.506 1.98-.27.003-.538 0-.83 0 0 .11.002.192 0 .278-.01.856.013 1.715-.043 2.57-.05.806-.47 1.436-1.17 1.835-.33.19-.72.27-1.09.4H12.718c-.226-.05-.458-.1-.68-.17-.85-.27-1.593-1.19-1.63-2.08-.034-.85-.023-1.7-.032-2.55v-.275c-.28 0-.533.003-.79 0-1.24-.02-2.22-.79-2.51-1.977-.02-.096-.05-.192-.07-.29v-5.63c.015-.03.035-.06.04-.093.19-1.12.97-1.92 2.088-2.11.33-.057.67-.04 1.007-.038.185.004.246-.044.244-.24-.01-1.293-.01-2.59-.004-3.886.005-1.027.414-1.84 1.335-2.33.306-.162.67-.22 1.006-.33h10.57c.04.014.08.036.12.04.63.08 1.146.37 1.564.845.47.534.63 1.168.63 1.864-.008 1.25-.004 2.502-.004 3.754v.284c.337 0 .65-.01.962 0 1.14.044 2.075.808 2.354 1.91.028.11.06.218.087.326v5.63zm-5.104-7.904c.007-.062.018-.11.018-.16v-3.93c0-.122-.015-.245-.048-.36-.113-.406-.446-.617-.968-.617H13.08c-.7 0-1.022.33-1.024 1.03v3.82c0 .07.007.134.01.21h11.83zm-1.69 9.306H13.79v-1.64h8.416v1.64zm-2.533 2.534H13.8v-1.64h5.872v1.64zm4.22-5.878h-11.82c-.007.056-.015.097-.015.14 0 2.177-.004 4.353 0 6.53.002.6.345.937.96.94 3.307.003 6.615.002 9.923 0 .29 0 .56-.068.76-.298.18-.202.22-.445.22-.7v-6.443c0-.057-.01-.11-.02-.17m1.29-4.25c-.7.003-1.262.574-1.26 1.275.004.7.575 1.268 1.273 1.268.694 0 1.27-.574 1.275-1.268.004-.705-.576-1.28-1.286-1.276"/></svg>