<?xml version="1.0" encoding="utf-8"?>
<!-- Generator: Adobe Illustrator 23.0.4, SVG Export Plug-In . SVG Version: 6.00 Build 0)  -->
<svg version="1.1" id="Layer_1" xmlns="http://www.w3.org/2000/svg" xmlns:xlink="http://www.w3.org/1999/xlink" x="0px" y="0px"
	 viewBox="0 0 304.5 93.9" style="enable-background:new 0 0 304.5 93.9;" xml:space="preserve">
<style type="text/css">
	.st0{fill:#FFFFFF;}
</style>
<title>weekly-descriptor--reversed[1]</title>
<g>
	<path class="st0" d="M9,3.4H2.8l0.6-2.6h15.4l-0.6,2.6H12L8.2,20.7h-3L9,3.4z"/>
	<path class="st0" d="M28.4,11.4c0.1-0.2,0.1-0.7,0.1-1c0-1.6-1.2-2.2-2.8-2.2c-1.6,0-3.1,1-4.2,2.1l-2.2,10.3h-2.7l4.4-20h2.7
		L22,8.3c1.2-1.2,2.9-2.4,5-2.4c2.6,0,4.4,1.3,4.4,3.6c0,0.3-0.1,0.9-0.1,1.2l-2.2,10h-2.7L28.4,11.4z"/>
	<path class="st0" d="M41.5,5.9c3.8,0,6.3,2.6,6.3,6.4c0,0.7-0.1,1.7-0.3,2.1H36.1c0,0.1-0.1,0.4-0.1,0.6c0,1.9,1.6,3.9,4.7,3.9
		c1.3,0,2.9-0.4,4-1.3l0.9,1.9c-1.3,1-3.2,1.6-5.1,1.6c-4.5,0-7.2-2.5-7.2-6.4C33.3,9.9,36.9,5.9,41.5,5.9z M45.4,11.9
		c0-2.1-1.4-3.8-4.1-3.8c-2.5,0-4.5,2-4.9,4.3h9C45.4,12.3,45.4,12.1,45.4,11.9z"/>
	<path class="st0" d="M57.8,16.6c0.8,1.1,2.7,2.3,4.9,2.3c1.9,0,3-1.1,3-2.2c0-1.1-1.4-1.6-3.1-2.2c-2.1-0.8-4.5-1.7-4.5-4
		c0-2.4,2-4.6,5.6-4.6c2.5,0,4.6,1,5.7,2.4L67.9,10c-0.7-1-2.5-1.9-4.3-1.9c-1.8,0-2.8,0.8-2.8,1.9c0,1,1.4,1.5,2.9,2.1
		c2.1,0.8,4.6,1.7,4.6,4.1c0,2.5-2.1,4.8-5.8,4.8c-2.6,0-4.9-0.9-6.4-2.6L57.8,16.6z"/>
	<path class="st0" d="M71.6,17.4l1.9-8.8h-2.4l0.5-2.3H74l0.9-4h2.7l-0.9,4h2.9l-0.5,2.3h-2.9l-1.8,8.2c0,0.1-0.1,0.4-0.1,0.6
		c0,0.8,0.5,1.3,1.4,1.3c0.5,0,1-0.2,1.3-0.4l0.2,2.2c-0.5,0.4-1.3,0.7-2.2,0.7c-2.2,0-3.6-0.9-3.6-2.8
		C71.5,18.1,71.5,17.7,71.6,17.4z"/>
	<path class="st0" d="M92.3,6.2H95l-3.2,14.5h-2.7l0.4-2c-1.2,1.5-2.8,2.4-4.6,2.4c-3.3,0-5.6-2.2-5.6-6c0-4.6,2.8-9.2,7.6-9.2
		c2.2,0,3.9,1,4.9,2.5L92.3,6.2z M85.9,18.7c1.7,0,3.2-1,4.1-2.2l1.3-6c-0.7-1.2-2.2-2.2-4.1-2.2c-3.1,0-5.1,3.1-5.1,6.3
		C82.2,17.1,83.7,18.7,85.9,18.7z"/>
	<path class="st0" d="M99,8.6h-2.4l0.5-2.4h2.4l0.2-1c0.7-3.1,2.3-4.9,4.9-4.9c1,0,1.9,0.2,2.8,0.7l-1,1.9c-0.4-0.3-1-0.4-1.5-0.4
		c-1.4,0-2.1,0.9-2.5,2.6l-0.2,1h2.9l-0.5,2.4h-2.9L99,20.7h-2.7L99,8.6z M107.8,8.6h-2.4l0.5-2.4h2.4l0.2-1
		c0.7-3.1,2.3-4.9,4.9-4.9c1,0,1.9,0.2,2.8,0.7l-1,1.9c-0.4-0.3-1-0.4-1.5-0.4c-1.4,0-2.1,0.9-2.5,2.6l-0.2,1h2.9l-0.5,2.4h-2.9
		l-2.7,12.1h-2.7L107.8,8.6z"/>
	<path class="st0" d="M132.3,11.4c0.1-0.3,0.1-0.6,0.1-1c0-1.6-1.2-2.2-2.6-2.2c-1.8,0-3.4,1-4.4,2.1l-2.2,10.3h-2.7l3.2-14.5h2.7
		l-0.5,2c1.2-1.2,2.9-2.4,5-2.4c2.6,0,4.4,1.3,4.4,3.6c0,0.3-0.1,0.9-0.2,1.2l-2.2,10h-2.7L132.3,11.4z"/>
	<path class="st0" d="M145.4,5.9c3.8,0,6.3,2.6,6.3,6.4c0,0.7-0.1,1.7-0.3,2.1H140c0,0.1-0.1,0.4-0.1,0.6c0,1.9,1.6,3.9,4.7,3.9
		c1.3,0,2.9-0.4,4-1.3l0.9,1.9c-1.3,1-3.2,1.6-5.1,1.6c-4.5,0-7.2-2.5-7.2-6.4C137.2,9.9,140.8,5.9,145.4,5.9z M149.3,11.9
		c0-2.1-1.4-3.8-4.1-3.8c-2.5,0-4.5,2-4.9,4.3h9C149.3,12.3,149.3,12.1,149.3,11.9z"/>
	<path class="st0" d="M164.1,9.6l-6,11.1h-2.8l-1.3-14.5h2.7l0.8,11l6.1-11h2.4l1.2,11l5.7-11h2.9L168,20.7h-2.8L164.1,9.6z"/>
	<path class="st0" d="M175.7,16.6c0.8,1.1,2.7,2.3,4.9,2.3c1.9,0,3-1.1,3-2.2c0-1.1-1.4-1.6-3.1-2.2c-2.1-0.8-4.5-1.7-4.5-4
		c0-2.4,2-4.6,5.6-4.6c2.5,0,4.6,1,5.7,2.4l-1.5,1.8c-0.7-1-2.5-1.9-4.3-1.9c-1.8,0-2.8,0.8-2.8,1.9c0,1,1.4,1.5,2.9,2.1
		c2.1,0.8,4.6,1.7,4.6,4.1c0,2.5-2.1,4.8-5.8,4.8c-2.6,0-4.9-0.9-6.4-2.6L175.7,16.6z"/>
	<path class="st0" d="M192.5,0.7h2.7l-4.4,20h-2.7L192.5,0.7z"/>
	<path class="st0" d="M203.2,5.9c3.8,0,6.3,2.6,6.3,6.4c0,0.7-0.1,1.7-0.3,2.1h-11.5c0,0.1-0.1,0.4-0.1,0.6c0,1.9,1.6,3.9,4.7,3.9
		c1.3,0,2.9-0.4,4-1.3l0.9,1.9c-1.3,1-3.2,1.6-5.1,1.6c-4.5,0-7.2-2.5-7.2-6.4C195,9.9,198.5,5.9,203.2,5.9z M207.1,11.9
		c0-2.1-1.4-3.8-4.1-3.8c-2.5,0-4.5,2-4.9,4.3h9C207.1,12.3,207.1,12.1,207.1,11.9z"/>
	<path class="st0" d="M211.7,17.4l1.9-8.8h-2.4l0.5-2.3h2.4l0.9-4h2.7l-0.9,4h2.9l-0.5,2.3h-2.9l-1.8,8.2c0,0.1-0.1,0.4-0.1,0.6
		c0,0.8,0.5,1.3,1.4,1.3c0.5,0,1-0.2,1.3-0.4l0.2,2.2c-0.5,0.4-1.3,0.7-2.2,0.7c-2.2,0-3.6-0.9-3.6-2.8
		C211.6,18.1,211.6,17.7,211.7,17.4z"/>
	<path class="st0" d="M221,17.4l1.9-8.8h-2.4l0.5-2.3h2.4l0.9-4h2.7l-0.9,4h2.9l-0.5,2.3h-2.9l-1.8,8.2c0,0.1-0.1,0.4-0.1,0.6
		c0,0.8,0.5,1.3,1.4,1.3c0.5,0,1-0.2,1.3-0.4l0.2,2.2c-0.5,0.4-1.3,0.7-2.2,0.7c-2.2,0-3.6-0.9-3.6-2.8
		C220.9,18.1,221,17.7,221,17.4z"/>
	<path class="st0" d="M236.9,5.9c3.8,0,6.3,2.6,6.3,6.4c0,0.7-0.1,1.7-0.3,2.1h-11.5c0,0.1-0.1,0.4-0.1,0.6c0,1.9,1.6,3.9,4.7,3.9
		c1.3,0,2.9-0.4,4-1.3l0.9,1.9c-1.3,1-3.2,1.6-5.1,1.6c-4.5,0-7.2-2.5-7.2-6.4C228.7,9.9,232.3,5.9,236.9,5.9z M240.8,11.9
		c0-2.1-1.4-3.8-4.1-3.8c-2.5,0-4.5,2-4.9,4.3h9C240.8,12.3,240.8,12.1,240.8,11.9z"/>
	<path class="st0" d="M247.5,6.2h2.7l-0.5,2.1c1.4-1.6,2.9-2.5,5.3-2.5l-0.6,2.7c-0.2,0-0.7-0.1-1.2-0.1c-1.6,0-3.1,1-4,2.2l-2.2,10
		h-2.7L247.5,6.2z"/>
	<path class="st0" d="M8.9,41.9c4.3,0,6.8,2.7,6.8,6.5c0,4.6-3.4,8.7-8.2,8.7c-4.3,0-6.8-2.6-6.8-6.5C0.8,46.1,4.2,41.9,8.9,41.9z
		 M8.9,44.3c-3.1,0-5.3,3.1-5.3,6.2c0,2.6,1.5,4.2,4,4.2c3.1,0,5.3-3,5.3-6.2C12.9,45.9,11.4,44.3,8.9,44.3z"/>
	<path class="st0" d="M20.1,44.6h-2.4l0.5-2.4h2.4l0.2-1c0.7-3.1,2.3-4.9,4.9-4.9c1,0,1.9,0.2,2.8,0.7l-1,1.9
		c-0.4-0.3-1-0.4-1.5-0.4c-1.4,0-2.1,0.9-2.5,2.6l-0.2,1h2.9l-0.5,2.4h-2.9l-2.7,12.1h-2.7L20.1,44.6z"/>
	<path class="st0" d="M34,53.4l1.9-8.8h-2.4l0.5-2.3h2.4l0.9-4H40l-0.9,4h2.9l-0.5,2.3h-2.9l-1.8,8.2c0,0.1-0.1,0.4-0.1,0.6
		c0,0.8,0.5,1.3,1.4,1.3c0.5,0,1-0.2,1.3-0.4l0.2,2.2c-0.5,0.4-1.3,0.7-2.2,0.7c-2.2,0-3.6-0.9-3.6-2.8C33.9,54.1,33.9,53.7,34,53.4
		z"/>
	<path class="st0" d="M53.2,47.4c0.1-0.2,0.1-0.7,0.1-1c0-1.6-1.2-2.2-2.8-2.2c-1.6,0-3.1,1-4.2,2.1l-2.2,10.3h-2.7l4.4-20h2.7
		l-1.7,7.6c1.2-1.2,2.9-2.4,5-2.4c2.6,0,4.4,1.3,4.4,3.6c0,0.3-0.1,0.9-0.1,1.2l-2.2,10h-2.7L53.2,47.4z"/>
	<path class="st0" d="M66.3,41.9c3.8,0,6.3,2.6,6.3,6.4c0,0.7-0.1,1.7-0.3,2.1H60.9c0,0.1-0.1,0.4-0.1,0.6c0,1.9,1.6,3.9,4.7,3.9
		c1.3,0,2.9-0.4,4-1.3l0.9,1.9c-1.3,1-3.2,1.6-5.1,1.6c-4.5,0-7.2-2.5-7.2-6.4C58.1,45.8,61.7,41.9,66.3,41.9z M70.2,47.9
		c0-2.1-1.4-3.8-4.1-3.8c-2.5,0-4.5,2-4.9,4.3h9C70.2,48.3,70.2,48.1,70.2,47.9z"/>
	<path class="st0" d="M101.4,45.2c0,5.4-3.8,11.5-12.7,11.5h-7.1l4.4-20h7C97.4,36.7,101.4,40.2,101.4,45.2z M98.2,45.4
		c0-3.5-2.5-6.1-5.8-6.1h-4l-3.3,14.7h4.1C94.8,54.1,98.2,50.1,98.2,45.4z"/>
	<path class="st0" d="M111.1,41.9c3.8,0,6.3,2.6,6.3,6.4c0,0.7-0.1,1.7-0.3,2.1h-11.5c0,0.1-0.1,0.4-0.1,0.6c0,1.9,1.6,3.9,4.7,3.9
		c1.3,0,2.9-0.4,4-1.3l0.9,1.9c-1.3,1-3.2,1.6-5.1,1.6c-4.5,0-7.2-2.5-7.2-6.4C102.9,45.8,106.4,41.9,111.1,41.9z M115,47.9
		c0-2.1-1.4-3.8-4.1-3.8c-2.5,0-4.5,2-4.9,4.3h9C115,48.3,115,48.1,115,47.9z"/>
	<path class="st0" d="M120,62.2h-2.7l4.4-20h2.7l-0.5,2c1.2-1.5,2.8-2.4,4.7-2.4c3.3,0,5.6,2.2,5.6,6c0,4.6-2.9,9.2-7.6,9.2
		c-2.2,0-3.9-1-4.9-2.5L120,62.2z M127.5,44.3c-1.7,0-3.2,1-4.1,2.3l-1.3,6c0.7,1.2,2.2,2.1,4.1,2.1c3.1,0,5.1-3.1,5.1-6.3
		C131.3,45.8,129.8,44.3,127.5,44.3z"/>
	<path class="st0" d="M148.9,42.2h2.7l-3.2,14.5h-2.7l0.4-2c-1.2,1.5-2.8,2.4-4.6,2.4c-3.3,0-5.6-2.2-5.6-6c0-4.6,2.8-9.2,7.6-9.2
		c2.2,0,3.9,1,4.9,2.5L148.9,42.2z M142.6,54.7c1.7,0,3.2-1,4.1-2.2l1.3-6c-0.7-1.2-2.2-2.2-4.1-2.2c-3.1,0-5.1,3.1-5.1,6.3
		C138.8,53.1,140.3,54.7,142.6,54.7z"/>
	<path class="st0" d="M155.4,42.2h2.7l-0.5,2.1c1.4-1.6,2.9-2.5,5.3-2.5l-0.6,2.7c-0.2,0-0.7-0.1-1.2-0.1c-1.6,0-3.1,1-4,2.2
		l-2.2,10h-2.7L155.4,42.2z"/>
	<path class="st0" d="M163.9,53.4l1.9-8.8h-2.4l0.5-2.3h2.4l0.9-4h2.7l-0.9,4h2.9l-0.5,2.3h-2.9l-1.8,8.2c0,0.1-0.1,0.4-0.1,0.6
		c0,0.8,0.5,1.3,1.4,1.3c0.5,0,1-0.2,1.3-0.4l0.2,2.2c-0.5,0.4-1.3,0.7-2.2,0.7c-2.2,0-3.6-0.9-3.6-2.8
		C163.8,54.1,163.9,53.7,163.9,53.4z"/>
	<path class="st0" d="M191,47.2c0-0.1,0.1-0.5,0.1-0.9c0-1.3-1.1-2.1-2.4-2.1c-1.3,0-2.8,1-3.7,2.1l-2.3,10.3h-2.7l2.1-9.5
		c0.1-0.4,0.1-0.6,0.1-1c0-1-0.8-1.9-2.4-1.9c-1.3,0-2.7,1-3.7,2.1L174,56.7h-2.7l3.2-14.5h2.7l-0.5,2c0.8-0.9,2.4-2.4,4.5-2.4
		c2.6,0,3.8,1.9,3.8,2.6v0.1c1.1-1.4,2.9-2.7,5-2.7c2.1,0,3.9,1.3,3.9,3.6c0,0.3-0.1,0.9-0.1,1.2l-2.2,10h-2.7L191,47.2z"/>
	<path class="st0" d="M204.1,41.9c3.8,0,6.3,2.6,6.3,6.4c0,0.7-0.1,1.7-0.3,2.1h-11.5c0,0.1-0.1,0.4-0.1,0.6c0,1.9,1.6,3.9,4.7,3.9
		c1.3,0,2.9-0.4,4-1.3l0.9,1.9c-1.3,1-3.2,1.6-5.1,1.6c-4.5,0-7.2-2.5-7.2-6.4C195.9,45.8,199.5,41.9,204.1,41.9z M208,47.9
		c0-2.1-1.4-3.8-4.1-3.8c-2.5,0-4.5,2-4.9,4.3h9C208,48.3,208,48.1,208,47.9z"/>
	<path class="st0" d="M223.3,47.4c0.1-0.3,0.1-0.6,0.1-1c0-1.6-1.2-2.2-2.6-2.2c-1.8,0-3.4,1-4.4,2.1l-2.2,10.3h-2.7l3.2-14.5h2.7
		l-0.5,2c1.2-1.2,2.9-2.4,5-2.4c2.6,0,4.4,1.3,4.4,3.6c0,0.3-0.1,0.9-0.2,1.2l-2.2,10h-2.7L223.3,47.4z"/>
	<path class="st0" d="M228.9,53.4l1.9-8.8h-2.4l0.5-2.3h2.4l0.9-4h2.7l-0.9,4h2.9l-0.5,2.3h-2.9l-1.8,8.2c0,0.1-0.1,0.4-0.1,0.6
		c0,0.8,0.5,1.3,1.4,1.3c0.5,0,1-0.2,1.3-0.4l0.2,2.2c-0.5,0.4-1.3,0.7-2.2,0.7c-2.2,0-3.6-0.9-3.6-2.8
		C228.8,54.1,228.8,53.7,228.9,53.4z"/>
	<path class="st0" d="M247.3,44.6h-2.4l0.5-2.4h2.4l0.2-1c0.7-3.1,2.3-4.9,4.9-4.9c1,0,1.9,0.2,2.8,0.7l-1,1.9
		c-0.4-0.3-1-0.4-1.5-0.4c-1.4,0-2.1,0.9-2.5,2.6l-0.2,1h2.9l-0.5,2.4H250l-2.7,12.1h-2.7L247.3,44.6z"/>
	<path class="st0" d="M261,41.9c4.3,0,6.8,2.7,6.8,6.5c0,4.6-3.4,8.7-8.2,8.7c-4.3,0-6.8-2.6-6.8-6.5
		C252.8,46.1,256.3,41.9,261,41.9z M260.9,44.3c-3.1,0-5.3,3.1-5.3,6.2c0,2.6,1.5,4.2,4,4.2c3.1,0,5.3-3,5.3-6.2
		C265,45.9,263.5,44.3,260.9,44.3z"/>
	<path class="st0" d="M272.2,42.2h2.7l-0.5,2.1c1.4-1.6,2.9-2.5,5.3-2.5l-0.6,2.7c-0.2,0-0.7-0.1-1.2-0.1c-1.6,0-3.1,1-4,2.2
		l-2.2,10h-2.7L272.2,42.2z"/>
	<path class="st0" d="M4.7,72.7h13.4l-0.6,2.6H7.1l-1.3,5.8H16l-0.6,2.6H5.2L3.9,90h10.4l-0.5,2.6H0.3L4.7,72.7z"/>
	<path class="st0" d="M28.7,83.4c0.1-0.3,0.1-0.6,0.1-1c0-1.6-1.2-2.2-2.6-2.2c-1.8,0-3.4,1-4.4,2.1l-2.2,10.3h-2.7l3.2-14.5h2.7
		l-0.5,2c1.2-1.2,2.9-2.4,5-2.4c2.6,0,4.4,1.3,4.4,3.6c0,0.3-0.1,0.9-0.1,1.2l-2.2,10h-2.7L28.7,83.4z"/>
	<path class="st0" d="M33.8,78.2h2.8l2,11.4l7.1-11.4h3l-9.2,14.5h-2.9L33.8,78.2z"/>
	<path class="st0" d="M50.4,78.2h2.7l-3.2,14.5h-2.7L50.4,78.2z M52.8,72.3c0.9,0,1.6,0.7,1.6,1.5c0,1.2-1.1,1.9-1.9,1.9
		c-0.9,0-1.6-0.7-1.6-1.5C50.8,73,51.9,72.3,52.8,72.3z"/>
	<path class="st0" d="M56.8,78.2h2.7L59,80.3c1.4-1.6,2.9-2.5,5.3-2.5l-0.6,2.7c-0.2,0-0.7-0.1-1.2-0.1c-1.6,0-3.1,1-4,2.2l-2.2,10
		h-2.7L56.8,78.2z"/>
	<path class="st0" d="M71.9,77.8c4.3,0,6.8,2.7,6.8,6.5c0,4.6-3.4,8.7-8.2,8.7c-4.3,0-6.8-2.6-6.8-6.5C63.8,82,67.2,77.8,71.9,77.8z
		 M71.8,80.2c-3.1,0-5.3,3.1-5.3,6.2c0,2.6,1.5,4.2,4,4.2c3.1,0,5.3-3,5.3-6.2C75.9,81.9,74.4,80.2,71.8,80.2z"/>
	<path class="st0" d="M91.7,83.4c0.1-0.3,0.1-0.6,0.1-1c0-1.6-1.2-2.2-2.6-2.2c-1.8,0-3.4,1-4.4,2.1l-2.2,10.3h-2.7l3.2-14.5h2.7
		l-0.5,2c1.2-1.2,2.9-2.4,5-2.4c2.6,0,4.4,1.3,4.4,3.6c0,0.3-0.1,0.9-0.1,1.2l-2.2,10h-2.7L91.7,83.4z"/>
	<path class="st0" d="M115.7,83.2c0-0.2,0.1-0.5,0.1-0.9c0-1.3-1.1-2.1-2.4-2.1c-1.3,0-2.8,1-3.7,2.1l-2.3,10.3h-2.7l2.1-9.5
		c0.1-0.4,0.1-0.6,0.1-1c0-1-0.8-1.9-2.4-1.9c-1.3,0-2.7,1-3.7,2.1l-2.2,10.3H96l3.2-14.5h2.7l-0.5,2c0.8-0.9,2.4-2.4,4.5-2.4
		c2.6,0,3.8,1.9,3.8,2.6v0.1c1.1-1.4,2.9-2.7,5-2.7c2.1,0,3.9,1.3,3.9,3.6c0,0.3-0.1,0.9-0.1,1.2l-2.2,10h-2.7L115.7,83.2z"/>
	<path class="st0" d="M128.7,77.8c3.8,0,6.3,2.6,6.3,6.4c0,0.7-0.2,1.7-0.3,2.1h-11.5c0,0.1-0.1,0.4-0.1,0.6c0,1.9,1.6,3.9,4.7,3.9
		c1.3,0,2.9-0.4,4-1.3l0.9,1.9c-1.3,1-3.2,1.6-5.1,1.6c-4.5,0-7.2-2.5-7.2-6.4C120.5,81.8,124.1,77.8,128.7,77.8z M132.6,83.9
		c0-2.1-1.4-3.8-4.1-3.8c-2.5,0-4.5,2-4.9,4.3h9C132.6,84.3,132.6,84,132.6,83.9z"/>
	<path class="st0" d="M147.9,83.4c0.1-0.3,0.1-0.6,0.1-1c0-1.6-1.2-2.2-2.6-2.2c-1.8,0-3.4,1-4.4,2.1l-2.2,10.3h-2.7l3.2-14.5h2.7
		l-0.5,2c1.2-1.2,2.9-2.4,5-2.4c2.6,0,4.4,1.3,4.4,3.6c0,0.3-0.1,0.9-0.2,1.2l-2.2,10h-2.7L147.9,83.4z"/>
	<path class="st0" d="M153.5,89.4l1.9-8.8H153l0.5-2.3h2.4l0.9-4h2.7l-0.9,4h2.9l-0.5,2.3h-2.9l-1.8,8.2c0,0.1-0.1,0.4-0.1,0.6
		c0,0.8,0.5,1.3,1.4,1.3c0.5,0,1-0.2,1.3-0.4l0.2,2.2c-0.5,0.4-1.3,0.7-2.2,0.7c-2.2,0-3.6-0.9-3.6-2.8
		C153.4,90.1,153.4,89.7,153.5,89.4z"/>
	<path class="st0" d="M182.1,78.2h2.7l-3.2,14.5h-2.7l0.4-2c-1.2,1.5-2.8,2.4-4.6,2.4c-3.3,0-5.6-2.2-5.6-6c0-4.6,2.8-9.2,7.6-9.2
		c2.2,0,3.9,1,4.9,2.5L182.1,78.2z M175.7,90.6c1.7,0,3.2-1,4.1-2.2l1.3-6c-0.7-1.2-2.2-2.2-4.1-2.2c-3.1,0-5.1,3.1-5.1,6.3
		C171.9,89.1,173.5,90.6,175.7,90.6z"/>
	<path class="st0" d="M197.2,83.4c0.1-0.3,0.1-0.6,0.1-1c0-1.6-1.2-2.2-2.6-2.2c-1.8,0-3.4,1-4.4,2.1l-2.2,10.3h-2.7l3.2-14.5h2.7
		l-0.5,2c1.2-1.2,2.9-2.4,5-2.4c2.6,0,4.4,1.3,4.4,3.6c0,0.3-0.1,0.9-0.2,1.2l-2.2,10h-2.7L197.2,83.4z"/>
	<path class="st0" d="M216.3,72.7h2.7l-4.4,20h-2.7l0.4-2c-1.2,1.5-2.8,2.4-4.6,2.4c-3.3,0-5.6-2.2-5.6-6c0-4.6,2.8-9.2,7.6-9.2
		c2.2,0,3.9,1,4.9,2.5L216.3,72.7z M208.7,90.6c1.7,0,3.2-1,4.1-2.2l1.3-6c-0.7-1.2-2.2-2.2-4.1-2.2c-3.1,0-5.1,3.1-5.1,6.3
		C204.9,89.1,206.4,90.6,208.7,90.6z"/>
	<path class="st0" d="M240.6,77.2l-7.6,15.4h-3.2l-1.3-20h3.3l0.6,16l7.9-16h2.4l0.8,16l7.7-16h3.4l-10.1,20h-3.2L240.6,77.2z"/>
	<path class="st0" d="M265.1,78.2h2.7l-3.2,14.5h-2.7l0.4-2c-1.2,1.5-2.8,2.4-4.6,2.4c-3.3,0-5.6-2.2-5.6-6c0-4.6,2.8-9.2,7.6-9.2
		c2.2,0,3.9,1,4.9,2.5L265.1,78.2z M258.8,90.6c1.7,0,3.2-1,4.1-2.2l1.3-6c-0.7-1.2-2.2-2.2-4.1-2.2c-3.1,0-5.1,3.1-5.1,6.3
		C255,89.1,256.5,90.6,258.8,90.6z"/>
	<path class="st0" d="M269.7,89.4l1.9-8.8h-2.4l0.5-2.3h2.4l0.9-4h2.7l-0.9,4h2.9l-0.5,2.3h-2.9l-1.8,8.2c0,0.1-0.1,0.4-0.1,0.6
		c0,0.8,0.5,1.3,1.4,1.3c0.5,0,1-0.2,1.3-0.4l0.2,2.2c-0.5,0.4-1.3,0.7-2.2,0.7c-2.2,0-3.6-0.9-3.6-2.8
		C269.6,90.1,269.6,89.7,269.7,89.4z"/>
	<path class="st0" d="M285.6,77.8c3.8,0,6.3,2.6,6.3,6.4c0,0.7-0.1,1.7-0.3,2.1h-11.5c0,0.1-0.1,0.4-0.1,0.6c0,1.9,1.6,3.9,4.7,3.9
		c1.3,0,2.9-0.4,4-1.3l0.9,1.9c-1.3,1-3.2,1.6-5.1,1.6c-4.5,0-7.2-2.5-7.2-6.4C277.4,81.8,281,77.8,285.6,77.8z M289.5,83.9
		c0-2.1-1.4-3.8-4.1-3.8c-2.5,0-4.5,2-4.9,4.3h9C289.5,84.3,289.5,84,289.5,83.9z"/>
	<path class="st0" d="M296.2,78.2h2.7l-0.5,2.1c1.4-1.6,2.9-2.5,5.3-2.5l-0.6,2.7c-0.2,0-0.7-0.1-1.2-0.1c-1.6,0-3.1,1-4,2.2
		l-2.2,10H293L296.2,78.2z"/>
</g>
</svg>
