<svg id="Layer_1" data-name="Layer 1" xmlns="http://www.w3.org/2000/svg" viewBox="0 0 266.64 104.45"><defs><style>.cls-1{fill:#002856;}</style></defs><title>Artboard 1</title><path class="cls-1" d="M14.63,5.68H10L7.15,20.59H5L7.79,5.68H3.13l.41-2.15H15Z"/><path class="cls-1" d="M16,2.26h2L16.63,9.69h0A3.58,3.58,0,0,1,18.17,8.3a4.37,4.37,0,0,1,2-.46,4.32,4.32,0,0,1,1.47.24,3.16,3.16,0,0,1,1.16.72A3.23,3.23,0,0,1,23.52,10a5.08,5.08,0,0,1,.27,1.72,9.08,9.08,0,0,1-.08,1.15q-.08.59-.18,1.12l-1.2,6.57h-2l1.35-7.45c0-.21.05-.43.08-.65s0-.39,0-.53a2.49,2.49,0,0,0-.53-1.62,1.79,1.79,0,0,0-1.47-.65,2.75,2.75,0,0,0-1.65.5,4.74,4.74,0,0,0-1.18,1.22,7,7,0,0,0-.77,1.51,8.71,8.71,0,0,0-.4,1.38l-1.16,6.28h-2Z"/><path class="cls-1" d="M33,20.37q-.8.22-1.61.37a9.24,9.24,0,0,1-1.63.15,7.09,7.09,0,0,1-1.92-.26,3.8,3.8,0,0,1-1.6-.9A4.63,4.63,0,0,1,25.13,18a7.62,7.62,0,0,1-.42-2.74,9,9,0,0,1,.4-2.61,8.35,8.35,0,0,1,1.15-2.39,6.1,6.1,0,0,1,1.87-1.75,4.91,4.91,0,0,1,2.58-.67A3.77,3.77,0,0,1,33.77,9.1a5.28,5.28,0,0,1,1.06,3.49q0,.64-.05,1.17t-.14,1.1H26.93a5.12,5.12,0,0,0-.06.78,4.59,4.59,0,0,0,.25,1.62,2.54,2.54,0,0,0,.7,1,2.59,2.59,0,0,0,1.08.55,5.47,5.47,0,0,0,1.35.16,6.13,6.13,0,0,0,1.55-.21,9.59,9.59,0,0,0,1.55-.55Zm-.26-7.21a8.1,8.1,0,0,0,.06-1,2.76,2.76,0,0,0-.58-1.81,2.12,2.12,0,0,0-1.74-.71,2.47,2.47,0,0,0-1.16.28,3.59,3.59,0,0,0-1,.76,4.61,4.61,0,0,0-.75,1.11,5.82,5.82,0,0,0-.46,1.32Z"/><path class="cls-1" d="M46.85,10.33a5.63,5.63,0,0,0-1-.44,3.75,3.75,0,0,0-1.16-.2,4.2,4.2,0,0,0-.69.06,2,2,0,0,0-.67.23,1.43,1.43,0,0,0-.49.46,1.35,1.35,0,0,0-.19.76,1.5,1.5,0,0,0,.28.92,4.54,4.54,0,0,0,.69.73,10.38,10.38,0,0,0,.9.7,5.21,5.21,0,0,1,.9.79,4.07,4.07,0,0,1,.69,1.07,3.59,3.59,0,0,1,.28,1.48A4,4,0,0,1,46,18.79a3.69,3.69,0,0,1-1,1.23,3.85,3.85,0,0,1-1.34.66,5.33,5.33,0,0,1-1.38.2,11,11,0,0,1-1.12,0q-.47,0-.83-.12a4.63,4.63,0,0,1-.66-.18l-.6-.23.39-2q.6.27,1.23.49a3.85,3.85,0,0,0,1.29.22,3.51,3.51,0,0,0,.82-.1,2.16,2.16,0,0,0,.74-.33A1.77,1.77,0,0,0,44,18a1.84,1.84,0,0,0,.2-.9,1.61,1.61,0,0,0-.28-.94,4.1,4.1,0,0,0-.69-.76q-.41-.35-.9-.71a5.59,5.59,0,0,1-.9-.81,4.36,4.36,0,0,1-.69-1,3.06,3.06,0,0,1-.28-1.36,3.3,3.3,0,0,1,1.39-2.81A4.33,4.33,0,0,1,43.19,8a5.08,5.08,0,0,1,1.41-.21A5.87,5.87,0,0,1,46,8a8.18,8.18,0,0,1,1.41.5Z"/><path class="cls-1" d="M47.78,8.13h2.45l.54-2.88,2.17-.86-.69,3.74h3L54.94,10h-3l-1,5.35q0,.22-.1.55l-.11.67q-.05.34-.09.65t0,.48a1.35,1.35,0,0,0,.34,1A1.54,1.54,0,0,0,52,19a3.45,3.45,0,0,0,.72-.09,3.06,3.06,0,0,0,.7-.23l-.3,1.91a2.15,2.15,0,0,1-.42.12l-.53.09-.55,0h-.48A2.77,2.77,0,0,1,50,20.63a2.3,2.3,0,0,1-.82-.64,2.48,2.48,0,0,1-.45-.89,3.66,3.66,0,0,1-.14-1,6.65,6.65,0,0,1,0-.7q0-.4.11-.82t.13-.78l.11-.64.95-5.2H47.48Z"/><path class="cls-1" d="M56.4,8.47A11.63,11.63,0,0,1,58,8a7.21,7.21,0,0,1,1.46-.18,6.58,6.58,0,0,1,1.61.2,3.83,3.83,0,0,1,1.39.66,3.3,3.3,0,0,1,1,1.22,4.32,4.32,0,0,1,.37,1.88q0,.42-.05,1t-.14,1q-.3,1.76-.61,3.47t-.53,3.37H60.59L61,18.51h0a4,4,0,0,1-1.49,1.75,3.8,3.8,0,0,1-2.07.62A4.23,4.23,0,0,1,56,20.67,3.14,3.14,0,0,1,54.91,20,3.1,3.1,0,0,1,54.13,19a3.71,3.71,0,0,1-.29-1.53,4.44,4.44,0,0,1,.49-2.2,3.78,3.78,0,0,1,1.37-1.4,5.94,5.94,0,0,1,2.06-.73,15,15,0,0,1,2.57-.21l.71,0,.75,0c0-.13.05-.26.08-.39a2.49,2.49,0,0,0,0-.42,2.32,2.32,0,0,0-.7-1.91,2.81,2.81,0,0,0-1.82-.56A5.62,5.62,0,0,0,57.6,10a6.4,6.4,0,0,0-1.57.76Zm3.42,6.13a7.69,7.69,0,0,0-1.25.11,4.15,4.15,0,0,0-1.24.4,2.68,2.68,0,0,0-1,.83A2.33,2.33,0,0,0,56,17.34a1.51,1.51,0,0,0,.54,1.26A2,2,0,0,0,57.8,19a2.52,2.52,0,0,0,1.39-.39,4,4,0,0,0,1.07-1A5.54,5.54,0,0,0,61,16.18a7.09,7.09,0,0,0,.37-1.58Z"/><path class="cls-1" d="M67.88,10H65.26l.3-1.86h2.67l.26-1.22q.15-.78.41-1.65a6,6,0,0,1,.74-1.6,4,4,0,0,1,1.26-1.21,3.67,3.67,0,0,1,2-.48,5,5,0,0,1,1.55.27L74,4.07a1.88,1.88,0,0,0-.48-.17A2.28,2.28,0,0,0,73,3.83a2,2,0,0,0-1.11.28,2.28,2.28,0,0,0-.72.73,4,4,0,0,0-.44,1q-.16.56-.27,1.12l-.22,1.15h2.9L72.85,10H69.9l-2,10.6h-2Z"/><path class="cls-1" d="M74.59,10H72l.3-1.86h2.67l.26-1.22q.15-.78.41-1.65a6,6,0,0,1,.74-1.6A4,4,0,0,1,77.6,2.45a3.67,3.67,0,0,1,2-.48,5,5,0,0,1,1.55.27l-.41,1.83a1.88,1.88,0,0,0-.48-.17,2.28,2.28,0,0,0-.48-.07,2,2,0,0,0-1.11.28,2.28,2.28,0,0,0-.72.73,4,4,0,0,0-.44,1q-.16.56-.27,1.12L77,8.13h2.9L79.55,10H76.61l-2,10.6h-2Z"/><path class="cls-1" d="M85.14,10q.06-.39.15-.87t.15-1h1.89l-.34,2h0a5.21,5.21,0,0,1,.58-.85,3.64,3.64,0,0,1,.81-.72A4.43,4.43,0,0,1,89.48,8a4.14,4.14,0,0,1,1.3-.2,4.32,4.32,0,0,1,1.47.24,3.16,3.16,0,0,1,1.16.72A3.23,3.23,0,0,1,94.16,10a5.08,5.08,0,0,1,.27,1.72,9.08,9.08,0,0,1-.08,1.15q-.08.59-.18,1.12L93,20.59h-2l1.35-7.45c0-.21.05-.43.08-.65s0-.39,0-.53a2.49,2.49,0,0,0-.53-1.62,1.79,1.79,0,0,0-1.47-.65,2.75,2.75,0,0,0-1.65.5,4.74,4.74,0,0,0-1.18,1.22,7,7,0,0,0-.77,1.51,8.71,8.71,0,0,0-.4,1.38l-1.16,6.28h-2Z"/><path class="cls-1" d="M103.65,20.37q-.8.22-1.61.37a9.24,9.24,0,0,1-1.63.15,7.09,7.09,0,0,1-1.92-.26,3.8,3.8,0,0,1-1.6-.9A4.63,4.63,0,0,1,95.77,18a7.62,7.62,0,0,1-.42-2.74,9,9,0,0,1,.4-2.61,8.35,8.35,0,0,1,1.15-2.39,6.1,6.1,0,0,1,1.87-1.75,4.91,4.91,0,0,1,2.58-.67,3.77,3.77,0,0,1,3.06,1.27,5.28,5.28,0,0,1,1.06,3.49q0,.64-.05,1.17t-.14,1.1H97.57a5.12,5.12,0,0,0-.06.78,4.59,4.59,0,0,0,.25,1.62,2.54,2.54,0,0,0,.7,1,2.59,2.59,0,0,0,1.08.55,5.47,5.47,0,0,0,1.35.16,6.13,6.13,0,0,0,1.55-.21,9.59,9.59,0,0,0,1.55-.55Zm-.26-7.21a8.1,8.1,0,0,0,.06-1,2.76,2.76,0,0,0-.58-1.81,2.12,2.12,0,0,0-1.74-.71A2.47,2.47,0,0,0,100,10a3.59,3.59,0,0,0-1,.76,4.61,4.61,0,0,0-.75,1.11,5.82,5.82,0,0,0-.46,1.32Z"/><path class="cls-1" d="M106.51,8.13h2l.75,10h0l4.69-10h2.45l.75,10h0l4.56-10h2.24l-6,12.46h-2.32l-.86-10h0l-4.73,10h-2.39Z"/><path class="cls-1" d="M129.43,10.33a5.63,5.63,0,0,0-1-.44,3.75,3.75,0,0,0-1.16-.2,4.2,4.2,0,0,0-.69.06,2,2,0,0,0-.67.23,1.43,1.43,0,0,0-.49.46,1.35,1.35,0,0,0-.19.76,1.5,1.5,0,0,0,.28.92,4.54,4.54,0,0,0,.69.73,10.38,10.38,0,0,0,.9.7,5.21,5.21,0,0,1,.9.79,4.07,4.07,0,0,1,.69,1.07,3.59,3.59,0,0,1,.28,1.48,4,4,0,0,1-.41,1.89,3.69,3.69,0,0,1-1,1.23,3.85,3.85,0,0,1-1.34.66,5.33,5.33,0,0,1-1.38.2,11,11,0,0,1-1.12,0q-.47,0-.83-.12a4.63,4.63,0,0,1-.66-.18l-.6-.23.39-2q.6.27,1.23.49a3.85,3.85,0,0,0,1.29.22,3.51,3.51,0,0,0,.82-.1,2.16,2.16,0,0,0,.74-.33,1.77,1.77,0,0,0,.54-.6,1.84,1.84,0,0,0,.2-.9,1.61,1.61,0,0,0-.28-.94,4.1,4.1,0,0,0-.69-.76q-.41-.35-.9-.71a5.59,5.59,0,0,1-.9-.81,4.36,4.36,0,0,1-.69-1A3.06,3.06,0,0,1,123,11.5a3.3,3.3,0,0,1,1.39-2.81A4.33,4.33,0,0,1,125.76,8a5.08,5.08,0,0,1,1.41-.21,5.87,5.87,0,0,1,1.45.18,8.18,8.18,0,0,1,1.41.5Z"/><path class="cls-1" d="M133.06,2.26h2l-3.42,18.32h-2Z"/><path class="cls-1" d="M142.78,20.37q-.8.22-1.61.37a9.25,9.25,0,0,1-1.63.15,7.08,7.08,0,0,1-1.92-.26,3.81,3.81,0,0,1-1.6-.9A4.63,4.63,0,0,1,134.9,18a7.61,7.61,0,0,1-.42-2.74,9,9,0,0,1,.4-2.61A8.35,8.35,0,0,1,136,10.25a6.09,6.09,0,0,1,1.87-1.75,4.91,4.91,0,0,1,2.58-.67,3.77,3.77,0,0,1,3.06,1.27,5.27,5.27,0,0,1,1.06,3.49,11.74,11.74,0,0,1-.05,1.17q-.05.54-.14,1.1H136.7a5.12,5.12,0,0,0-.06.78,4.59,4.59,0,0,0,.25,1.62,2.54,2.54,0,0,0,.7,1,2.6,2.6,0,0,0,1.08.55A5.48,5.48,0,0,0,140,19a6.13,6.13,0,0,0,1.55-.21,9.57,9.57,0,0,0,1.55-.55Zm-.26-7.21a8.1,8.1,0,0,0,.06-1A2.76,2.76,0,0,0,142,10.4a2.12,2.12,0,0,0-1.74-.71,2.47,2.47,0,0,0-1.16.28,3.58,3.58,0,0,0-1,.76,4.62,4.62,0,0,0-.75,1.11,5.84,5.84,0,0,0-.46,1.32Z"/><path class="cls-1" d="M145.75,8.13h2.45l.54-2.88,2.17-.86-.69,3.74h3L152.91,10h-3l-1,5.35c0,.15-.06.33-.1.55l-.11.67c0,.23-.06.44-.09.65s0,.36,0,.48a1.35,1.35,0,0,0,.34,1A1.54,1.54,0,0,0,150,19a3.46,3.46,0,0,0,.72-.09,3.06,3.06,0,0,0,.7-.23l-.3,1.91a2.18,2.18,0,0,1-.42.12l-.53.09-.55,0h-.48a2.77,2.77,0,0,1-1.21-.24,2.32,2.32,0,0,1-.82-.64,2.47,2.47,0,0,1-.45-.89,3.64,3.64,0,0,1-.14-1,6.51,6.51,0,0,1,0-.7q0-.4.11-.82t.13-.78q.06-.37.11-.64l.95-5.2h-2.41Z"/><path class="cls-1" d="M152.84,8.13h2.45l.54-2.88L158,4.39l-.69,3.74h3L160,10h-3l-1,5.35q0,.22-.1.55l-.11.67q-.05.34-.09.65t0,.48a1.35,1.35,0,0,0,.34,1,1.54,1.54,0,0,0,1.12.34,3.44,3.44,0,0,0,.72-.09,3.06,3.06,0,0,0,.7-.23l-.3,1.91a2.16,2.16,0,0,1-.42.12l-.53.09-.55,0h-.48a2.77,2.77,0,0,1-1.21-.24,2.31,2.31,0,0,1-.82-.64,2.47,2.47,0,0,1-.45-.89,3.64,3.64,0,0,1-.14-1,6.51,6.51,0,0,1,0-.7q0-.4.11-.82t.13-.78l.11-.64.95-5.2h-2.41Z"/><path class="cls-1" d="M167.65,20.37q-.8.22-1.61.37a9.24,9.24,0,0,1-1.63.15,7.08,7.08,0,0,1-1.92-.26,3.8,3.8,0,0,1-1.6-.9A4.62,4.62,0,0,1,159.77,18a7.62,7.62,0,0,1-.42-2.74,9,9,0,0,1,.4-2.61,8.32,8.32,0,0,1,1.15-2.39,6.09,6.09,0,0,1,1.87-1.75,4.91,4.91,0,0,1,2.58-.67,3.77,3.77,0,0,1,3.06,1.27,5.28,5.28,0,0,1,1.06,3.49,11.74,11.74,0,0,1-.05,1.17q-.05.54-.14,1.1h-7.72a5.12,5.12,0,0,0-.06.78,4.59,4.59,0,0,0,.25,1.62,2.54,2.54,0,0,0,.7,1,2.59,2.59,0,0,0,1.07.55,5.48,5.48,0,0,0,1.35.16,6.13,6.13,0,0,0,1.55-.21,9.54,9.54,0,0,0,1.55-.55Zm-.26-7.21a8.1,8.1,0,0,0,.06-1,2.76,2.76,0,0,0-.58-1.81,2.12,2.12,0,0,0-1.74-.71A2.47,2.47,0,0,0,164,10a3.61,3.61,0,0,0-1,.76,4.59,4.59,0,0,0-.75,1.11,5.85,5.85,0,0,0-.46,1.32Z"/><path class="cls-1" d="M171.7,10q.06-.39.15-.87t.15-1h1.89l-.34,2h0a5.18,5.18,0,0,1,.58-.85,3.65,3.65,0,0,1,.81-.72A4.42,4.42,0,0,1,176,8a4.13,4.13,0,0,1,1.3-.2,2,2,0,0,1,.39,0,3.22,3.22,0,0,1,.54.17l-.45,2a4.67,4.67,0,0,0-.53-.18,1.45,1.45,0,0,0-.33-.06,2.75,2.75,0,0,0-1.64.5,4.75,4.75,0,0,0-1.18,1.22,7.06,7.06,0,0,0-.77,1.51,8.65,8.65,0,0,0-.4,1.38l-1.14,6.13h-2Z"/><path class="cls-1" d="M184.74,10h-2.62l.3-1.86h2.67l.26-1.22q.15-.78.41-1.65a6,6,0,0,1,.74-1.6,4,4,0,0,1,1.26-1.21,3.67,3.67,0,0,1,2-.48,5,5,0,0,1,1.55.27l-.41,1.83a1.89,1.89,0,0,0-.48-.17,2.28,2.28,0,0,0-.48-.07,2,2,0,0,0-1.11.28,2.27,2.27,0,0,0-.72.73,4,4,0,0,0-.44,1c-.11.38-.2.75-.27,1.12l-.21,1.15H190L189.71,10h-2.95l-2,10.6h-2Z"/><path class="cls-1" d="M188.94,15.33a10.2,10.2,0,0,1,.41-2.93,7.11,7.11,0,0,1,1.2-2.38,5.72,5.72,0,0,1,2-1.6,5.9,5.9,0,0,1,2.68-.59,5.27,5.27,0,0,1,2,.37,4.11,4.11,0,0,1,1.54,1.08,4.92,4.92,0,0,1,1,1.72,7.11,7.11,0,0,1,.34,2.28,10.44,10.44,0,0,1-.41,3,7.48,7.48,0,0,1-1.18,2.41,5.67,5.67,0,0,1-1.91,1.63,5.56,5.56,0,0,1-2.62.6,4.84,4.84,0,0,1-3.62-1.39A5.7,5.7,0,0,1,188.94,15.33Zm2.15.17a5.37,5.37,0,0,0,.17,1.38,3.4,3.4,0,0,0,.52,1.12,2.38,2.38,0,0,0,.88.75,2.88,2.88,0,0,0,2.84-.23,4.69,4.69,0,0,0,1.27-1.32,6.83,6.83,0,0,0,.84-1.84,7.32,7.32,0,0,0,.3-2.08,5,5,0,0,0-.18-1.34,3.56,3.56,0,0,0-.54-1.15,2.88,2.88,0,0,0-.87-.79,2.32,2.32,0,0,0-1.2-.31,2.91,2.91,0,0,0-1.76.55,4.67,4.67,0,0,0-1.26,1.39,6.64,6.64,0,0,0-.75,1.87A8.52,8.52,0,0,0,191.08,15.5Z"/><path class="cls-1" d="M202.46,10q.06-.39.15-.87t.15-1h1.89l-.34,2h0a5.18,5.18,0,0,1,.58-.85,3.65,3.65,0,0,1,.81-.72,4.42,4.42,0,0,1,1.05-.5,4.13,4.13,0,0,1,1.3-.2,2,2,0,0,1,.39,0,3.22,3.22,0,0,1,.54.17l-.45,2A4.67,4.67,0,0,0,208,9.9a1.45,1.45,0,0,0-.33-.06,2.75,2.75,0,0,0-1.64.5,4.75,4.75,0,0,0-1.18,1.22,7.06,7.06,0,0,0-.77,1.51,8.65,8.65,0,0,0-.4,1.38l-1.14,6.13h-2Z"/><path class="cls-1" d="M213.19,8.13h2.45l.54-2.88,2.17-.86-.69,3.74h3L220.34,10h-3l-1,5.35q0,.22-.1.55l-.11.67q-.05.34-.09.65t0,.48a1.35,1.35,0,0,0,.34,1,1.54,1.54,0,0,0,1.12.34,3.44,3.44,0,0,0,.72-.09,3.06,3.06,0,0,0,.7-.23l-.3,1.91a2.16,2.16,0,0,1-.42.12l-.53.09-.55,0h-.48a2.77,2.77,0,0,1-1.21-.24,2.31,2.31,0,0,1-.82-.64,2.47,2.47,0,0,1-.45-.89,3.64,3.64,0,0,1-.14-1,6.51,6.51,0,0,1,0-.7q0-.4.11-.82t.13-.78l.11-.64.95-5.2h-2.41Z"/><path class="cls-1" d="M222.82,2.26h2l-1.35,7.43h0A3.58,3.58,0,0,1,225,8.3a4.37,4.37,0,0,1,2-.46,4.32,4.32,0,0,1,1.47.24,3.16,3.16,0,0,1,1.16.72,3.21,3.21,0,0,1,.75,1.22,5.08,5.08,0,0,1,.27,1.72,9.08,9.08,0,0,1-.08,1.15q-.08.59-.18,1.12l-1.2,6.57h-2l1.35-7.45c0-.21.05-.43.08-.65s0-.39,0-.53a2.49,2.49,0,0,0-.53-1.62,1.79,1.79,0,0,0-1.47-.65,2.75,2.75,0,0,0-1.64.5,4.75,4.75,0,0,0-1.18,1.22,7.06,7.06,0,0,0-.77,1.51,8.65,8.65,0,0,0-.4,1.38l-1.16,6.28h-2Z"/><path class="cls-1" d="M239.86,20.37q-.8.22-1.61.37a9.24,9.24,0,0,1-1.63.15,7.08,7.08,0,0,1-1.92-.26,3.8,3.8,0,0,1-1.6-.9A4.62,4.62,0,0,1,232,18a7.62,7.62,0,0,1-.42-2.74,9,9,0,0,1,.4-2.61,8.32,8.32,0,0,1,1.15-2.39A6.09,6.09,0,0,1,235,8.51a4.91,4.91,0,0,1,2.58-.67,3.77,3.77,0,0,1,3.06,1.27,5.28,5.28,0,0,1,1.06,3.49,11.74,11.74,0,0,1-.05,1.17q-.05.54-.14,1.1h-7.72a5.12,5.12,0,0,0-.06.78,4.59,4.59,0,0,0,.25,1.62,2.54,2.54,0,0,0,.7,1,2.59,2.59,0,0,0,1.07.55,5.48,5.48,0,0,0,1.35.16,6.13,6.13,0,0,0,1.55-.21,9.54,9.54,0,0,0,1.55-.55Zm-.26-7.21a8.1,8.1,0,0,0,.06-1,2.76,2.76,0,0,0-.58-1.81,2.12,2.12,0,0,0-1.74-.71,2.47,2.47,0,0,0-1.16.28,3.61,3.61,0,0,0-1,.76,4.59,4.59,0,0,0-.75,1.11,5.85,5.85,0,0,0-.46,1.32Z"/><path class="cls-1" d="M5.23,42.53H8.55a9.7,9.7,0,0,1,3.41.54,6.39,6.39,0,0,1,2.34,1.47,5.82,5.82,0,0,1,1.35,2.19,8.11,8.11,0,0,1,.44,2.7,13.23,13.23,0,0,1-.61,4.14,8.9,8.9,0,0,1-1.82,3.21,8,8,0,0,1-3,2.08,10.89,10.89,0,0,1-4.14.73H2.05Zm-.6,14.9H6.91a7.06,7.06,0,0,0,2.87-.56A6.13,6.13,0,0,0,12,55.3a7.08,7.08,0,0,0,1.38-2.44,9.81,9.81,0,0,0,.48-3.16,7.43,7.43,0,0,0-.26-2,3.83,3.83,0,0,0-.88-1.59,4,4,0,0,0-1.7-1,8.5,8.5,0,0,0-2.71-.37H7Z"/><path class="cls-1" d="M24.71,59.37q-.8.22-1.61.37a9.24,9.24,0,0,1-1.63.15,7.09,7.09,0,0,1-1.92-.26,3.8,3.8,0,0,1-1.6-.9A4.62,4.62,0,0,1,16.83,57a7.62,7.62,0,0,1-.42-2.74,9,9,0,0,1,.4-2.61A8.35,8.35,0,0,1,18,49.25a6.1,6.1,0,0,1,1.87-1.75,4.91,4.91,0,0,1,2.58-.67,3.77,3.77,0,0,1,3.06,1.27,5.28,5.28,0,0,1,1.06,3.49q0,.64-.05,1.17t-.14,1.1H18.63a5.12,5.12,0,0,0-.06.78,4.59,4.59,0,0,0,.25,1.63,2.54,2.54,0,0,0,.7,1,2.6,2.6,0,0,0,1.08.55,5.5,5.5,0,0,0,1.35.16,6.15,6.15,0,0,0,1.55-.21A9.68,9.68,0,0,0,25,57.27Zm-.26-7.21a8.1,8.1,0,0,0,.06-1,2.76,2.76,0,0,0-.58-1.81,2.12,2.12,0,0,0-1.74-.71A2.47,2.47,0,0,0,21,49a3.59,3.59,0,0,0-1,.76,4.61,4.61,0,0,0-.75,1.11,5.82,5.82,0,0,0-.46,1.32Z"/><path class="cls-1" d="M28.26,51.26q.17-1.05.32-2.08t.26-2.05h1.89L30.37,49h0a3.64,3.64,0,0,1,1.67-1.69,5.06,5.06,0,0,1,2.23-.51A3.64,3.64,0,0,1,36,47.2a3.56,3.56,0,0,1,1.23,1,4.68,4.68,0,0,1,.76,1.5,6.28,6.28,0,0,1,.27,1.87,14.12,14.12,0,0,1-.35,3.22,8.93,8.93,0,0,1-1,2.64,5.45,5.45,0,0,1-1.72,1.78,5,5,0,0,1-4.72.12,3,3,0,0,1-1.26-1.61h0l-1.31,7h-2Zm1.42,3.49A4.59,4.59,0,0,0,29.84,56,3.15,3.15,0,0,0,30.34,57a2.47,2.47,0,0,0,.86.73,2.56,2.56,0,0,0,1.2.27,2.41,2.41,0,0,0,1.54-.54,4.5,4.5,0,0,0,1.15-1.42,7.72,7.72,0,0,0,.72-2,10.67,10.67,0,0,0,.25-2.3,3.32,3.32,0,0,0-.7-2.33,2.3,2.3,0,0,0-1.75-.75A2.74,2.74,0,0,0,32,49.2a4.5,4.5,0,0,0-1.25,1.36A7,7,0,0,0,30,52.5,9.07,9.07,0,0,0,29.68,54.75Z"/><path class="cls-1" d="M41.07,47.47A11.63,11.63,0,0,1,42.66,47a7.21,7.21,0,0,1,1.46-.18,6.58,6.58,0,0,1,1.61.2,3.83,3.83,0,0,1,1.39.66,3.3,3.3,0,0,1,1,1.22,4.32,4.32,0,0,1,.37,1.88q0,.42-.05,1t-.14,1q-.3,1.76-.61,3.47t-.53,3.37H45.26l.37-2.08h0a4,4,0,0,1-1.49,1.75,3.8,3.8,0,0,1-2.07.62,4.24,4.24,0,0,1-1.32-.21A3.15,3.15,0,0,1,39.58,59,3.1,3.1,0,0,1,38.8,58a3.71,3.71,0,0,1-.29-1.53,4.44,4.44,0,0,1,.49-2.2,3.77,3.77,0,0,1,1.37-1.4,5.94,5.94,0,0,1,2.06-.73A15,15,0,0,1,45,51.89l.71,0,.75,0c0-.13.05-.26.08-.39a2.49,2.49,0,0,0,0-.42,2.32,2.32,0,0,0-.7-1.91,2.81,2.81,0,0,0-1.82-.56,5.62,5.62,0,0,0-1.78.29,6.4,6.4,0,0,0-1.57.76Zm3.42,6.13a7.69,7.69,0,0,0-1.25.11,4.14,4.14,0,0,0-1.24.4,2.68,2.68,0,0,0-1,.83,2.33,2.33,0,0,0-.39,1.39,1.51,1.51,0,0,0,.54,1.26,2,2,0,0,0,1.27.43,2.52,2.52,0,0,0,1.39-.39,4,4,0,0,0,1.07-1,5.53,5.53,0,0,0,.74-1.43A7.1,7.1,0,0,0,46,53.6Z"/><path class="cls-1" d="M51.31,49q.06-.39.15-.87t.15-1H53.5l-.34,2h0a5.21,5.21,0,0,1,.58-.85,3.64,3.64,0,0,1,.81-.72,4.43,4.43,0,0,1,1.05-.5,4.14,4.14,0,0,1,1.3-.2,2,2,0,0,1,.39,0,3.21,3.21,0,0,1,.54.17l-.45,2a4.67,4.67,0,0,0-.53-.18,1.44,1.44,0,0,0-.33-.06,2.75,2.75,0,0,0-1.65.5,4.74,4.74,0,0,0-1.18,1.22,7,7,0,0,0-.77,1.51,8.72,8.72,0,0,0-.4,1.38l-1.14,6.13h-2Z"/><path class="cls-1" d="M57.32,47.13h2.45l.54-2.88,2.17-.86-.69,3.74h3L64.48,49h-3l-1,5.35c0,.15-.06.33-.1.55l-.11.67q-.05.34-.09.65c0,.2,0,.36,0,.48a1.35,1.35,0,0,0,.34,1,1.54,1.54,0,0,0,1.12.34,3.48,3.48,0,0,0,.72-.08,3.11,3.11,0,0,0,.7-.23l-.3,1.91a2.12,2.12,0,0,1-.42.12l-.53.09-.55,0h-.48a2.76,2.76,0,0,1-1.21-.24,2.3,2.3,0,0,1-.82-.63,2.48,2.48,0,0,1-.45-.89,3.67,3.67,0,0,1-.14-1,6.64,6.64,0,0,1,0-.7q0-.4.11-.82t.13-.78l.11-.63.95-5.2H57Z"/><path class="cls-1" d="M65.6,48.54q.06-.34.11-.67t.11-.75h1.89l-.26,1.71h0A3.9,3.9,0,0,1,69,47.33a4.05,4.05,0,0,1,2-.5,3.29,3.29,0,0,1,1.79.53A2.6,2.6,0,0,1,73.88,49a6.37,6.37,0,0,1,1.72-1.62,4.1,4.1,0,0,1,2.17-.55,3,3,0,0,1,1.23.24,2.93,2.93,0,0,1,1.6,1.7,3.68,3.68,0,0,1,.23,1.31,9.23,9.23,0,0,1-.1,1.26q-.1.7-.23,1.36l-1.27,6.89h-2l1.46-7.89a7.13,7.13,0,0,0,.13-1.17,2,2,0,0,0-.42-1.31,1.44,1.44,0,0,0-1.19-.53,2.19,2.19,0,0,0-1.37.45,4.36,4.36,0,0,0-1,1.15,7.61,7.61,0,0,0-.73,1.5,9.39,9.39,0,0,0-.42,1.54l-1.23,6.25h-2l1.46-7.89A7.13,7.13,0,0,0,72,50.52a2,2,0,0,0-.42-1.31,1.44,1.44,0,0,0-1.19-.53,2.19,2.19,0,0,0-1.37.45,4.36,4.36,0,0,0-1,1.15,7.61,7.61,0,0,0-.73,1.5,9.34,9.34,0,0,0-.42,1.54L65.6,59.59h-2Z"/><path class="cls-1" d="M90,59.37q-.8.22-1.61.37a9.24,9.24,0,0,1-1.63.15,7.09,7.09,0,0,1-1.92-.26,3.8,3.8,0,0,1-1.6-.9A4.62,4.62,0,0,1,82.1,57a7.62,7.62,0,0,1-.42-2.74,9,9,0,0,1,.4-2.61,8.35,8.35,0,0,1,1.15-2.39,6.1,6.1,0,0,1,1.87-1.75,4.91,4.91,0,0,1,2.58-.67,3.77,3.77,0,0,1,3.06,1.27,5.28,5.28,0,0,1,1.06,3.49q0,.64-.05,1.17t-.14,1.1H83.9a5.12,5.12,0,0,0-.06.78,4.59,4.59,0,0,0,.25,1.63,2.54,2.54,0,0,0,.7,1,2.6,2.6,0,0,0,1.08.55,5.5,5.5,0,0,0,1.35.16,6.15,6.15,0,0,0,1.55-.21,9.68,9.68,0,0,0,1.55-.55Zm-.26-7.21a8.1,8.1,0,0,0,.06-1,2.76,2.76,0,0,0-.58-1.81,2.12,2.12,0,0,0-1.74-.71A2.47,2.47,0,0,0,86.3,49a3.59,3.59,0,0,0-1,.76,4.61,4.61,0,0,0-.75,1.11,5.82,5.82,0,0,0-.46,1.32Z"/><path class="cls-1" d="M94,49q.06-.39.15-.87t.15-1h1.89l-.34,2h0a5.21,5.21,0,0,1,.58-.85,3.64,3.64,0,0,1,.81-.72,4.43,4.43,0,0,1,1.05-.5,4.14,4.14,0,0,1,1.3-.2,4.32,4.32,0,0,1,1.47.24,3.16,3.16,0,0,1,1.16.72A3.23,3.23,0,0,1,103,49a5.08,5.08,0,0,1,.27,1.72,9.08,9.08,0,0,1-.08,1.15q-.08.59-.18,1.12l-1.2,6.57h-2l1.35-7.45c0-.21.05-.43.08-.65s0-.39,0-.53a2.49,2.49,0,0,0-.53-1.62,1.79,1.79,0,0,0-1.47-.65,2.75,2.75,0,0,0-1.65.5,4.74,4.74,0,0,0-1.18,1.22,7,7,0,0,0-.77,1.51,8.72,8.72,0,0,0-.4,1.38l-1.16,6.28h-2Z"/><path class="cls-1" d="M104.81,47.13h2.45l.54-2.88,2.17-.86-.69,3.74h3L112,49h-3l-1,5.35c0,.15-.06.33-.1.55l-.11.67q-.05.34-.09.65c0,.2,0,.36,0,.48a1.35,1.35,0,0,0,.34,1,1.54,1.54,0,0,0,1.12.34,3.48,3.48,0,0,0,.72-.08,3.11,3.11,0,0,0,.7-.23l-.3,1.91a2.12,2.12,0,0,1-.42.12l-.53.09-.55,0h-.48a2.76,2.76,0,0,1-1.21-.24,2.3,2.3,0,0,1-.82-.63,2.48,2.48,0,0,1-.45-.89,3.67,3.67,0,0,1-.14-1,6.64,6.64,0,0,1,0-.7q0-.4.11-.82t.13-.78l.11-.63.95-5.2h-2.41Z"/><path class="cls-1" d="M116,54.33a10.2,10.2,0,0,1,.41-2.93,7.09,7.09,0,0,1,1.2-2.38,5.71,5.71,0,0,1,2-1.6,5.9,5.9,0,0,1,2.68-.59,5.27,5.27,0,0,1,2,.37,4.11,4.11,0,0,1,1.54,1.08,4.92,4.92,0,0,1,1,1.72,7.1,7.1,0,0,1,.34,2.28,10.42,10.42,0,0,1-.41,3,7.47,7.47,0,0,1-1.18,2.41,5.69,5.69,0,0,1-1.91,1.63,5.57,5.57,0,0,1-2.62.6,4.85,4.85,0,0,1-3.62-1.39A5.71,5.71,0,0,1,116,54.33Zm2.15.17a5.35,5.35,0,0,0,.17,1.38,3.38,3.38,0,0,0,.52,1.12,2.38,2.38,0,0,0,.88.75,2.88,2.88,0,0,0,2.84-.23,4.69,4.69,0,0,0,1.27-1.32,6.85,6.85,0,0,0,.84-1.84,7.34,7.34,0,0,0,.3-2.08,5,5,0,0,0-.18-1.34,3.55,3.55,0,0,0-.54-1.15,2.87,2.87,0,0,0-.87-.79,2.32,2.32,0,0,0-1.2-.31,2.91,2.91,0,0,0-1.76.55,4.67,4.67,0,0,0-1.26,1.39,6.62,6.62,0,0,0-.75,1.87A8.52,8.52,0,0,0,118.19,54.5Z"/><path class="cls-1" d="M130.81,49h-2.62l.3-1.86h2.67l.26-1.22q.15-.78.41-1.65a6,6,0,0,1,.74-1.6,4,4,0,0,1,1.26-1.21,3.67,3.67,0,0,1,2-.48,5,5,0,0,1,1.55.27l-.41,1.83a1.9,1.9,0,0,0-.48-.17,2.28,2.28,0,0,0-.48-.07,2,2,0,0,0-1.11.28,2.28,2.28,0,0,0-.72.73,4,4,0,0,0-.44,1q-.16.56-.27,1.12l-.22,1.15h2.9L135.77,49h-2.95l-2,10.6h-2Z"/><path class="cls-1" d="M142.89,42.53H151l-.43,2.15h-5.93l-1,5h5.57l-.37,2.15h-5.63l-1.1,5.62h6.3l-.41,2.15H139.6Z"/><path class="cls-1" d="M152,49q.06-.39.15-.87t.15-1h1.89l-.34,2h0a5.18,5.18,0,0,1,.58-.85,3.65,3.65,0,0,1,.81-.72,4.42,4.42,0,0,1,1.05-.5,4.13,4.13,0,0,1,1.3-.2,4.32,4.32,0,0,1,1.47.24,3.16,3.16,0,0,1,1.16.72,3.21,3.21,0,0,1,.75,1.22,5.08,5.08,0,0,1,.27,1.72,9.08,9.08,0,0,1-.08,1.15q-.08.59-.18,1.12l-1.2,6.57h-2l1.35-7.45c0-.21.05-.43.08-.65s0-.39,0-.53a2.49,2.49,0,0,0-.53-1.62,1.79,1.79,0,0,0-1.47-.65,2.75,2.75,0,0,0-1.64.5,4.75,4.75,0,0,0-1.18,1.22,7.06,7.06,0,0,0-.77,1.51,8.66,8.66,0,0,0-.4,1.38l-1.16,6.28h-2Z"/><path class="cls-1" d="M162.73,47.13h2.15L166,57.19h0l4.88-10.07h2.15l-6.26,12.46h-2.37Z"/><path class="cls-1" d="M173.93,47.13h2l-2.32,12.46h-2Zm2.69-2.78h-2.28l.47-2.59h2.28Z"/><path class="cls-1" d="M178.1,49q.06-.39.15-.87t.15-1h1.89l-.34,2h0a5.18,5.18,0,0,1,.58-.85,3.65,3.65,0,0,1,.81-.72,4.42,4.42,0,0,1,1.05-.5,4.13,4.13,0,0,1,1.3-.2,2,2,0,0,1,.39,0,3.22,3.22,0,0,1,.54.17l-.45,2a4.67,4.67,0,0,0-.53-.18,1.45,1.45,0,0,0-.33-.06,2.75,2.75,0,0,0-1.64.5,4.75,4.75,0,0,0-1.18,1.22,7.06,7.06,0,0,0-.77,1.51,8.66,8.66,0,0,0-.4,1.38l-1.14,6.13h-2Z"/><path class="cls-1" d="M183.54,54.33a10.2,10.2,0,0,1,.41-2.93,7.11,7.11,0,0,1,1.2-2.38,5.72,5.72,0,0,1,2-1.6,5.9,5.9,0,0,1,2.68-.59,5.27,5.27,0,0,1,2,.37,4.11,4.11,0,0,1,1.54,1.08,4.92,4.92,0,0,1,1,1.72,7.11,7.11,0,0,1,.34,2.28,10.44,10.44,0,0,1-.41,3,7.48,7.48,0,0,1-1.18,2.41,5.69,5.69,0,0,1-1.91,1.63,5.56,5.56,0,0,1-2.62.6,4.84,4.84,0,0,1-3.62-1.39A5.7,5.7,0,0,1,183.54,54.33Zm2.15.17a5.37,5.37,0,0,0,.17,1.38,3.39,3.39,0,0,0,.52,1.12,2.37,2.37,0,0,0,.88.75,2.88,2.88,0,0,0,2.84-.23,4.69,4.69,0,0,0,1.27-1.32,6.82,6.82,0,0,0,.84-1.84,7.33,7.33,0,0,0,.3-2.08,5,5,0,0,0-.18-1.34,3.56,3.56,0,0,0-.54-1.15,2.88,2.88,0,0,0-.87-.79,2.32,2.32,0,0,0-1.2-.31,2.91,2.91,0,0,0-1.76.55,4.67,4.67,0,0,0-1.26,1.39,6.64,6.64,0,0,0-.75,1.87A8.52,8.52,0,0,0,185.69,54.5Z"/><path class="cls-1" d="M197.06,49q.06-.39.15-.87t.15-1h1.89l-.34,2h0a5.18,5.18,0,0,1,.58-.85,3.65,3.65,0,0,1,.81-.72,4.42,4.42,0,0,1,1.05-.5,4.13,4.13,0,0,1,1.3-.2,4.32,4.32,0,0,1,1.47.24,3.16,3.16,0,0,1,1.16.72,3.21,3.21,0,0,1,.75,1.22,5.08,5.08,0,0,1,.27,1.72,9.08,9.08,0,0,1-.08,1.15q-.08.59-.18,1.12l-1.2,6.57h-2l1.35-7.45c0-.21.05-.43.08-.65s0-.39,0-.53a2.49,2.49,0,0,0-.53-1.62,1.79,1.79,0,0,0-1.47-.65,2.75,2.75,0,0,0-1.64.5,4.75,4.75,0,0,0-1.18,1.22,7.06,7.06,0,0,0-.77,1.51,8.66,8.66,0,0,0-.4,1.38l-1.16,6.28h-2Z"/><path class="cls-1" d="M209,48.54c0-.23.08-.45.11-.67s.06-.47.11-.75h1.89l-.26,1.71h0a3.9,3.9,0,0,1,1.48-1.5,4.05,4.05,0,0,1,2-.5,3.29,3.29,0,0,1,1.8.53A2.6,2.6,0,0,1,217.31,49,6.38,6.38,0,0,1,219,47.38a4.09,4.09,0,0,1,2.17-.55,3,3,0,0,1,1.23.24,2.93,2.93,0,0,1,1.6,1.7,3.68,3.68,0,0,1,.23,1.31,9.23,9.23,0,0,1-.1,1.26q-.1.7-.23,1.36l-1.27,6.89h-2l1.46-7.89a7.13,7.13,0,0,0,.13-1.17,2,2,0,0,0-.42-1.31,1.44,1.44,0,0,0-1.19-.53,2.18,2.18,0,0,0-1.37.45,4.36,4.36,0,0,0-1,1.15,7.6,7.6,0,0,0-.73,1.5,9.25,9.25,0,0,0-.42,1.54l-1.23,6.25h-2l1.46-7.89a7.13,7.13,0,0,0,.13-1.17,2,2,0,0,0-.42-1.31,1.44,1.44,0,0,0-1.19-.53,2.19,2.19,0,0,0-1.37.45,4.36,4.36,0,0,0-1,1.15,7.6,7.6,0,0,0-.73,1.5,9.34,9.34,0,0,0-.42,1.54L209,59.59h-2Z"/><path class="cls-1" d="M233.42,59.37q-.8.22-1.61.37a9.24,9.24,0,0,1-1.63.15,7.08,7.08,0,0,1-1.92-.26,3.8,3.8,0,0,1-1.6-.9A4.62,4.62,0,0,1,225.54,57a7.62,7.62,0,0,1-.42-2.74,9,9,0,0,1,.4-2.61,8.32,8.32,0,0,1,1.15-2.39,6.09,6.09,0,0,1,1.87-1.75,4.91,4.91,0,0,1,2.58-.67,3.77,3.77,0,0,1,3.06,1.27,5.28,5.28,0,0,1,1.06,3.49,11.74,11.74,0,0,1-.05,1.17q-.05.54-.14,1.1h-7.72a5.12,5.12,0,0,0-.06.78,4.59,4.59,0,0,0,.25,1.63,2.54,2.54,0,0,0,.7,1,2.6,2.6,0,0,0,1.07.55,5.5,5.5,0,0,0,1.35.16,6.15,6.15,0,0,0,1.55-.21,9.63,9.63,0,0,0,1.55-.55Zm-.26-7.21a8.1,8.1,0,0,0,.06-1,2.76,2.76,0,0,0-.58-1.81,2.12,2.12,0,0,0-1.74-.71,2.47,2.47,0,0,0-1.16.28,3.61,3.61,0,0,0-1,.76,4.59,4.59,0,0,0-.75,1.11,5.85,5.85,0,0,0-.46,1.32Z"/><path class="cls-1" d="M237.46,49q.06-.39.15-.87t.15-1h1.89l-.34,2h0a5.18,5.18,0,0,1,.58-.85,3.65,3.65,0,0,1,.81-.72,4.42,4.42,0,0,1,1.05-.5,4.13,4.13,0,0,1,1.3-.2,4.32,4.32,0,0,1,1.47.24,3.16,3.16,0,0,1,1.16.72,3.21,3.21,0,0,1,.75,1.22,5.08,5.08,0,0,1,.27,1.72,9.08,9.08,0,0,1-.08,1.15q-.08.59-.18,1.12l-1.2,6.57h-2l1.35-7.45c0-.21.05-.43.08-.65s0-.39,0-.53a2.49,2.49,0,0,0-.53-1.62,1.79,1.79,0,0,0-1.47-.65,2.75,2.75,0,0,0-1.64.5,4.75,4.75,0,0,0-1.18,1.22,7.06,7.06,0,0,0-.77,1.51,8.66,8.66,0,0,0-.4,1.38l-1.16,6.28h-2Z"/><path class="cls-1" d="M248.25,47.13h2.45l.54-2.88,2.17-.86-.69,3.74h3L255.41,49h-3l-1,5.35c0,.15-.06.33-.1.55l-.11.67q-.05.34-.09.65c0,.2,0,.36,0,.48a1.35,1.35,0,0,0,.34,1,1.54,1.54,0,0,0,1.12.34,3.47,3.47,0,0,0,.72-.08,3.11,3.11,0,0,0,.7-.23l-.3,1.91a2.13,2.13,0,0,1-.42.12l-.53.09-.55,0h-.48a2.76,2.76,0,0,1-1.21-.24,2.3,2.3,0,0,1-.82-.63,2.47,2.47,0,0,1-.45-.89,3.65,3.65,0,0,1-.14-1,6.51,6.51,0,0,1,0-.7q0-.4.11-.82t.13-.78l.11-.63.95-5.2H248Z"/><path class="cls-1" d="M255,56.85h2.58l-3,6h-2Z"/><path class="cls-1" d="M3.56,81.53H5.71l.82,14.58h0l6-14.58h2.84l.39,14.61h0L22.3,81.53h2.3L16.76,98.59H14l-.32-14.76h0l-6,14.76H4.78Z"/><path class="cls-1" d="M24.11,86.47A11.7,11.7,0,0,1,25.7,86a7.2,7.2,0,0,1,1.46-.18,6.58,6.58,0,0,1,1.61.2,3.84,3.84,0,0,1,1.39.66,3.3,3.3,0,0,1,1,1.22,4.32,4.32,0,0,1,.37,1.88c0,.28,0,.6-.05,1s-.08.7-.14,1q-.3,1.76-.61,3.47t-.53,3.37H28.3l.37-2.08h0a4,4,0,0,1-1.49,1.75,3.8,3.8,0,0,1-2.07.62,4.24,4.24,0,0,1-1.32-.21A3.15,3.15,0,0,1,22.62,98,3.1,3.1,0,0,1,21.84,97a3.71,3.71,0,0,1-.29-1.53,4.44,4.44,0,0,1,.49-2.2,3.78,3.78,0,0,1,1.37-1.41,6,6,0,0,1,2.06-.73A15,15,0,0,1,28,90.89l.71,0,.75,0c0-.13.05-.26.08-.39a2.49,2.49,0,0,0,0-.42,2.32,2.32,0,0,0-.7-1.91,2.81,2.81,0,0,0-1.82-.56,5.62,5.62,0,0,0-1.78.29,6.39,6.39,0,0,0-1.57.76Zm3.42,6.13a7.69,7.69,0,0,0-1.25.11,4.14,4.14,0,0,0-1.24.4,2.68,2.68,0,0,0-1,.83,2.33,2.33,0,0,0-.39,1.39,1.51,1.51,0,0,0,.54,1.26,2,2,0,0,0,1.27.43,2.52,2.52,0,0,0,1.39-.39,4,4,0,0,0,1.07-1,5.53,5.53,0,0,0,.74-1.43,7.1,7.1,0,0,0,.37-1.58Z"/><path class="cls-1" d="M33.27,86.13h2.45l.54-2.88,2.17-.86-.69,3.74h3L40.43,88h-3l-1,5.35c0,.15-.06.33-.1.55l-.11.67q-.05.34-.09.65c0,.2,0,.36,0,.48a1.35,1.35,0,0,0,.34,1,1.54,1.54,0,0,0,1.12.34,3.48,3.48,0,0,0,.72-.08,3.11,3.11,0,0,0,.7-.23l-.3,1.91a2.12,2.12,0,0,1-.42.12l-.53.09-.55,0h-.48a2.76,2.76,0,0,1-1.21-.24,2.3,2.3,0,0,1-.82-.63,2.48,2.48,0,0,1-.45-.89,3.67,3.67,0,0,1-.14-1,6.64,6.64,0,0,1,0-.7q0-.4.11-.82t.13-.78l.11-.63.95-5.2H33Z"/><path class="cls-1" d="M48.08,98.37q-.8.22-1.61.37a9.24,9.24,0,0,1-1.63.15,7.09,7.09,0,0,1-1.92-.26,3.8,3.8,0,0,1-1.6-.9A4.62,4.62,0,0,1,40.2,96a7.62,7.62,0,0,1-.42-2.74,9,9,0,0,1,.4-2.61,8.34,8.34,0,0,1,1.15-2.39,6.1,6.1,0,0,1,1.87-1.75,4.91,4.91,0,0,1,2.58-.67,3.77,3.77,0,0,1,3.06,1.27,5.28,5.28,0,0,1,1.06,3.49q0,.64-.05,1.17t-.14,1.1H42a5.12,5.12,0,0,0-.06.78,4.59,4.59,0,0,0,.25,1.63,2.54,2.54,0,0,0,.7,1,2.6,2.6,0,0,0,1.08.55,5.5,5.5,0,0,0,1.35.16,6.15,6.15,0,0,0,1.55-.21,9.68,9.68,0,0,0,1.55-.55Zm-.26-7.21a8.09,8.09,0,0,0,.06-1,2.76,2.76,0,0,0-.58-1.81,2.12,2.12,0,0,0-1.74-.71,2.46,2.46,0,0,0-1.16.28,3.6,3.6,0,0,0-1,.76,4.62,4.62,0,0,0-.75,1.11,5.83,5.83,0,0,0-.46,1.32Z"/><path class="cls-1" d="M52.12,88c0-.26.09-.55.15-.87s.11-.66.15-1h1.89l-.34,2h0a5.19,5.19,0,0,1,.58-.85,3.62,3.62,0,0,1,.81-.72,4.42,4.42,0,0,1,1.05-.5,4.14,4.14,0,0,1,1.3-.2,2,2,0,0,1,.39,0,3.16,3.16,0,0,1,.54.17l-.45,2a4.66,4.66,0,0,0-.53-.18,1.43,1.43,0,0,0-.33-.06,2.75,2.75,0,0,0-1.65.5,4.74,4.74,0,0,0-1.18,1.22,7,7,0,0,0-.77,1.51,8.72,8.72,0,0,0-.4,1.38l-1.14,6.13h-2Z"/><path class="cls-1" d="M64.38,86.47A11.7,11.7,0,0,1,66,86a7.2,7.2,0,0,1,1.46-.18A6.58,6.58,0,0,1,69,86a3.84,3.84,0,0,1,1.39.66,3.3,3.3,0,0,1,1,1.22,4.32,4.32,0,0,1,.37,1.88c0,.28,0,.6-.05,1s-.08.7-.14,1q-.3,1.76-.61,3.47t-.53,3.37H68.57l.37-2.08h0a4,4,0,0,1-1.49,1.75,3.8,3.8,0,0,1-2.07.62A4.24,4.24,0,0,1,64,98.67,3.15,3.15,0,0,1,62.88,98,3.1,3.1,0,0,1,62.11,97a3.71,3.71,0,0,1-.29-1.53,4.44,4.44,0,0,1,.49-2.2,3.78,3.78,0,0,1,1.37-1.41,6,6,0,0,1,2.06-.73,15,15,0,0,1,2.57-.21l.71,0,.75,0c0-.13.05-.26.08-.39a2.49,2.49,0,0,0,0-.42,2.32,2.32,0,0,0-.7-1.91,2.81,2.81,0,0,0-1.82-.56,5.62,5.62,0,0,0-1.78.29,6.39,6.39,0,0,0-1.57.76ZM67.8,92.6a7.69,7.69,0,0,0-1.25.11,4.14,4.14,0,0,0-1.24.4,2.68,2.68,0,0,0-1,.83A2.33,2.33,0,0,0,64,95.34a1.51,1.51,0,0,0,.54,1.26,2,2,0,0,0,1.27.43,2.52,2.52,0,0,0,1.39-.39,4,4,0,0,0,1.07-1A5.53,5.53,0,0,0,69,94.18a7.1,7.1,0,0,0,.37-1.58Z"/><path class="cls-1" d="M74.61,88c0-.26.09-.55.15-.87s.11-.66.15-1H76.8l-.34,2h0a5.19,5.19,0,0,1,.58-.85,3.62,3.62,0,0,1,.81-.72,4.42,4.42,0,0,1,1.05-.5,4.14,4.14,0,0,1,1.3-.2,4.3,4.3,0,0,1,1.47.24,3.16,3.16,0,0,1,1.16.72A3.22,3.22,0,0,1,83.63,88a5.07,5.07,0,0,1,.27,1.72,9.08,9.08,0,0,1-.08,1.15q-.08.59-.18,1.12l-1.2,6.57h-2l1.35-7.45c0-.21.05-.43.08-.65s0-.39,0-.53a2.49,2.49,0,0,0-.53-1.62,1.79,1.79,0,0,0-1.47-.65,2.75,2.75,0,0,0-1.65.5,4.74,4.74,0,0,0-1.18,1.22,7,7,0,0,0-.77,1.51,8.72,8.72,0,0,0-.4,1.38l-1.16,6.28h-2Z"/><path class="cls-1" d="M94.82,94.46q-.19,1.05-.35,2.08t-.27,2.05H92.3q.09-.44.16-.93a9.4,9.4,0,0,1,.2-1h0A3.34,3.34,0,0,1,91.1,98.4a5,5,0,0,1-2.21.48,3.6,3.6,0,0,1-1.75-.42,3.77,3.77,0,0,1-1.28-1.14,5.17,5.17,0,0,1-.77-1.66,7.58,7.58,0,0,1-.26-2,11.33,11.33,0,0,1,.37-2.87,8.57,8.57,0,0,1,1.07-2.5A5.76,5.76,0,0,1,88,86.51a4.51,4.51,0,0,1,2.46-.67,4.09,4.09,0,0,1,2.09.56A3.39,3.39,0,0,1,94,88.18h0l1.44-7.92h2Zm-7.85-1a5.69,5.69,0,0,0,.16,1.38A3.5,3.5,0,0,0,87.62,96a2.39,2.39,0,0,0,.83.76,2.61,2.61,0,0,0,2.84-.32,4.77,4.77,0,0,0,1.15-1.49A8,8,0,0,0,93.11,93a9,9,0,0,0,.23-1.92,4.61,4.61,0,0,0-.18-1.31,3.43,3.43,0,0,0-.53-1.09,2.53,2.53,0,0,0-.85-.73,2.46,2.46,0,0,0-1.17-.27,2.37,2.37,0,0,0-1.58.57,4.72,4.72,0,0,0-1.13,1.44,8,8,0,0,0-.69,1.88A8.33,8.33,0,0,0,87,93.48Z"/><path class="cls-1" d="M104.41,81.53h2.84l4.24,14.29h0l2.67-14.29h2L113,98.59h-2.77L106,84.42h0l-2.56,14.17h-2.06Z"/><path class="cls-1" d="M117.76,86.47a11.7,11.7,0,0,1,1.59-.45,7.2,7.2,0,0,1,1.46-.18,6.58,6.58,0,0,1,1.61.2,3.84,3.84,0,0,1,1.39.66,3.3,3.3,0,0,1,1,1.22,4.32,4.32,0,0,1,.37,1.88c0,.28,0,.6-.05,1s-.08.7-.14,1q-.3,1.76-.61,3.47t-.53,3.37h-1.87l.37-2.08h0a4,4,0,0,1-1.49,1.75,3.8,3.8,0,0,1-2.07.62,4.24,4.24,0,0,1-1.32-.21,3.15,3.15,0,0,1-1.12-.64,3.1,3.1,0,0,1-.77-1.07,3.71,3.71,0,0,1-.29-1.53,4.44,4.44,0,0,1,.49-2.2,3.78,3.78,0,0,1,1.37-1.41,6,6,0,0,1,2.06-.73,15,15,0,0,1,2.57-.21l.71,0,.75,0c0-.13.05-.26.08-.39a2.49,2.49,0,0,0,0-.42,2.32,2.32,0,0,0-.7-1.91,2.81,2.81,0,0,0-1.82-.56A5.62,5.62,0,0,0,119,88a6.39,6.39,0,0,0-1.57.76Zm3.42,6.13a7.69,7.69,0,0,0-1.25.11,4.14,4.14,0,0,0-1.24.4,2.68,2.68,0,0,0-1,.83,2.33,2.33,0,0,0-.39,1.39,1.51,1.51,0,0,0,.54,1.26,2,2,0,0,0,1.27.43,2.52,2.52,0,0,0,1.39-.39,4,4,0,0,0,1.07-1,5.53,5.53,0,0,0,.74-1.43,7.1,7.1,0,0,0,.37-1.58Z"/><path class="cls-1" d="M126.92,86.13h2.45l.54-2.88,2.17-.86-.69,3.74h3L134.07,88h-3l-1,5.35c0,.15-.06.33-.1.55l-.11.67q-.05.34-.09.65c0,.2,0,.36,0,.48a1.35,1.35,0,0,0,.34,1,1.54,1.54,0,0,0,1.12.34,3.48,3.48,0,0,0,.72-.08,3.11,3.11,0,0,0,.7-.23l-.3,1.91a2.12,2.12,0,0,1-.42.12l-.53.09-.55,0h-.48a2.76,2.76,0,0,1-1.21-.24,2.3,2.3,0,0,1-.82-.63,2.48,2.48,0,0,1-.45-.89,3.67,3.67,0,0,1-.14-1,6.64,6.64,0,0,1,0-.7q0-.4.11-.82t.13-.78l.11-.63L129,88h-2.41Z"/><path class="cls-1" d="M143.06,96.68c0,.26-.09.55-.15.87s-.11.66-.15,1h-1.89l.34-2h0a5.22,5.22,0,0,1-.58.85,3.65,3.65,0,0,1-.81.72,4.4,4.4,0,0,1-1.05.5,4.11,4.11,0,0,1-1.3.2,4.3,4.3,0,0,1-1.47-.24,3.15,3.15,0,0,1-1.16-.72A3.22,3.22,0,0,1,134,96.7a5,5,0,0,1-.27-1.73,9,9,0,0,1,.08-1.15q.07-.59.18-1.12l1.2-6.57h2l-1.35,7.45c0,.21-.05.43-.08.65s0,.39,0,.53a2.49,2.49,0,0,0,.53,1.62,1.79,1.79,0,0,0,1.47.65,2.76,2.76,0,0,0,1.63-.5,4.64,4.64,0,0,0,1.19-1.22,7.07,7.07,0,0,0,.77-1.51,8.77,8.77,0,0,0,.4-1.38L143,86.13h2Z"/><path class="cls-1" d="M147,88c0-.26.09-.55.15-.87s.11-.66.15-1h1.89l-.34,2h0a5.16,5.16,0,0,1,.58-.85,3.63,3.63,0,0,1,.81-.72,4.4,4.4,0,0,1,1.05-.5,4.13,4.13,0,0,1,1.3-.2,2,2,0,0,1,.39,0,3.18,3.18,0,0,1,.54.17l-.45,2a4.65,4.65,0,0,0-.53-.18,1.43,1.43,0,0,0-.33-.06,2.75,2.75,0,0,0-1.64.5,4.75,4.75,0,0,0-1.18,1.22,7.06,7.06,0,0,0-.77,1.51,8.66,8.66,0,0,0-.4,1.38l-1.14,6.13h-2Z"/><path class="cls-1" d="M154.5,86.47a11.7,11.7,0,0,1,1.59-.45,7.2,7.2,0,0,1,1.46-.18,6.58,6.58,0,0,1,1.61.2,3.83,3.83,0,0,1,1.39.66,3.31,3.31,0,0,1,1,1.22,4.32,4.32,0,0,1,.37,1.88c0,.28,0,.6-.05,1s-.08.7-.14,1q-.3,1.76-.61,3.47t-.53,3.37h-1.87l.37-2.08h0a4,4,0,0,1-1.49,1.75,3.8,3.8,0,0,1-2.07.62,4.24,4.24,0,0,1-1.32-.21A3.15,3.15,0,0,1,153,98a3.1,3.1,0,0,1-.77-1.07,3.69,3.69,0,0,1-.29-1.53,4.43,4.43,0,0,1,.5-2.2,3.77,3.77,0,0,1,1.37-1.41,5.94,5.94,0,0,1,2.06-.73,15,15,0,0,1,2.57-.21l.71,0,.75,0c0-.13.05-.26.08-.39a2.55,2.55,0,0,0,0-.42,2.31,2.31,0,0,0-.7-1.91,2.81,2.81,0,0,0-1.82-.56,5.62,5.62,0,0,0-1.78.29,6.38,6.38,0,0,0-1.57.76Zm3.42,6.13a7.68,7.68,0,0,0-1.25.11,4.12,4.12,0,0,0-1.24.4,2.68,2.68,0,0,0-1,.83,2.33,2.33,0,0,0-.39,1.39,1.51,1.51,0,0,0,.54,1.26,2,2,0,0,0,1.27.43,2.52,2.52,0,0,0,1.39-.39,4,4,0,0,0,1.08-1,5.55,5.55,0,0,0,.74-1.43,7,7,0,0,0,.37-1.58Z"/><path class="cls-1" d="M166.36,80.26h2L165,98.59h-2Z"/><path class="cls-1" d="M175.59,81.53h2.95q.8,0,1.76.06a5.19,5.19,0,0,1,1.83.45,3.49,3.49,0,0,1,1.44,1.23,4.22,4.22,0,0,1,.58,2.41,4.74,4.74,0,0,1-.29,1.66,4.92,4.92,0,0,1-.78,1.39,4.64,4.64,0,0,1-1.16,1,3.82,3.82,0,0,1-1.42.54,2.23,2.23,0,0,1,.72.88,7.34,7.34,0,0,1,.48,1.27q.19.68.32,1.37t.24,1.17l.82,3.59h-2.28l-.9-4.47q-.22-1-.4-1.64a3.45,3.45,0,0,0-.41-.94,1,1,0,0,0-.53-.43,2.33,2.33,0,0,0-.71-.1h-1.91l-1.4,7.57h-2.15Zm.77,7.33h1.7a7,7,0,0,0,1.25-.12,4,4,0,0,0,1.24-.44,2.75,2.75,0,0,0,.95-.87,2.44,2.44,0,0,0,.38-1.4,2.22,2.22,0,0,0-.64-1.84,3,3,0,0,0-1.89-.5h-2Z"/><path class="cls-1" d="M192.66,98.37q-.8.22-1.61.37a9.24,9.24,0,0,1-1.63.15,7.08,7.08,0,0,1-1.92-.26,3.8,3.8,0,0,1-1.6-.9A4.62,4.62,0,0,1,184.78,96a7.62,7.62,0,0,1-.42-2.74,9,9,0,0,1,.4-2.61,8.32,8.32,0,0,1,1.15-2.39,6.09,6.09,0,0,1,1.87-1.75,4.91,4.91,0,0,1,2.58-.67,3.77,3.77,0,0,1,3.06,1.27,5.28,5.28,0,0,1,1.06,3.49q0,.64-.05,1.17t-.14,1.1h-7.72a5.12,5.12,0,0,0-.06.78,4.59,4.59,0,0,0,.25,1.63,2.54,2.54,0,0,0,.7,1,2.6,2.6,0,0,0,1.07.55,5.5,5.5,0,0,0,1.35.16,6.15,6.15,0,0,0,1.55-.21,9.63,9.63,0,0,0,1.55-.55Zm-.26-7.21a8.09,8.09,0,0,0,.06-1,2.76,2.76,0,0,0-.58-1.81,2.12,2.12,0,0,0-1.74-.71A2.46,2.46,0,0,0,189,88a3.61,3.61,0,0,0-1,.76,4.6,4.6,0,0,0-.75,1.11,5.85,5.85,0,0,0-.46,1.32Z"/><path class="cls-1" d="M201.79,88.32a5.7,5.7,0,0,0-1-.44,3.76,3.76,0,0,0-1.16-.2,4.17,4.17,0,0,0-.69.06,2,2,0,0,0-.67.23,1.44,1.44,0,0,0-.5.46,1.35,1.35,0,0,0-.19.76,1.5,1.5,0,0,0,.28.92,4.51,4.51,0,0,0,.69.73,10.48,10.48,0,0,0,.9.7,5.19,5.19,0,0,1,.9.79,4.07,4.07,0,0,1,.69,1.07,3.6,3.6,0,0,1,.28,1.48,4,4,0,0,1-.41,1.89,3.69,3.69,0,0,1-1,1.23,3.84,3.84,0,0,1-1.34.66,5.31,5.31,0,0,1-1.38.2,10.89,10.89,0,0,1-1.12,0,8.3,8.3,0,0,1-.83-.12,4.7,4.7,0,0,1-.66-.18l-.6-.23.39-2q.6.27,1.23.49a3.85,3.85,0,0,0,1.29.22,3.48,3.48,0,0,0,.82-.1,2.15,2.15,0,0,0,.74-.33,1.76,1.76,0,0,0,.54-.6,1.83,1.83,0,0,0,.2-.9,1.61,1.61,0,0,0-.28-.94,4.14,4.14,0,0,0-.69-.76q-.41-.35-.9-.71a5.58,5.58,0,0,1-.9-.81,4.36,4.36,0,0,1-.69-1,3.07,3.07,0,0,1-.28-1.36,3.3,3.3,0,0,1,1.39-2.81,4.33,4.33,0,0,1,1.33-.65,5.09,5.09,0,0,1,1.41-.21A5.88,5.88,0,0,1,201,86a8.24,8.24,0,0,1,1.41.5Z"/><path class="cls-1" d="M202.14,93.33a10.2,10.2,0,0,1,.41-2.93,7.11,7.11,0,0,1,1.2-2.38,5.72,5.72,0,0,1,2-1.6,5.9,5.9,0,0,1,2.68-.59,5.27,5.27,0,0,1,2,.37,4.1,4.1,0,0,1,1.54,1.08,4.91,4.91,0,0,1,1,1.72,7.11,7.11,0,0,1,.34,2.28,10.44,10.44,0,0,1-.41,3,7.48,7.48,0,0,1-1.18,2.41,5.69,5.69,0,0,1-1.91,1.63,5.56,5.56,0,0,1-2.62.6,4.84,4.84,0,0,1-3.62-1.39A5.7,5.7,0,0,1,202.14,93.33Zm2.15.17a5.37,5.37,0,0,0,.17,1.38A3.39,3.39,0,0,0,205,96a2.37,2.37,0,0,0,.88.75,2.88,2.88,0,0,0,2.84-.23A4.69,4.69,0,0,0,210,95.2a6.82,6.82,0,0,0,.84-1.84,7.33,7.33,0,0,0,.3-2.08,5,5,0,0,0-.18-1.34,3.56,3.56,0,0,0-.54-1.15,2.86,2.86,0,0,0-.87-.79,2.32,2.32,0,0,0-1.2-.31,2.91,2.91,0,0,0-1.76.55,4.65,4.65,0,0,0-1.26,1.39,6.63,6.63,0,0,0-.75,1.87A8.52,8.52,0,0,0,204.29,93.5Z"/><path class="cls-1" d="M223.64,96.68c0,.26-.09.55-.15.87s-.11.66-.15,1h-1.89l.34-2h0a5.22,5.22,0,0,1-.58.85,3.62,3.62,0,0,1-.81.72,4.38,4.38,0,0,1-1.05.5,4.11,4.11,0,0,1-1.3.2,4.31,4.31,0,0,1-1.47-.24,3.13,3.13,0,0,1-1.16-.72,3.21,3.21,0,0,1-.75-1.21,5,5,0,0,1-.27-1.73,8.9,8.9,0,0,1,.08-1.15q.07-.59.18-1.12l1.2-6.57h2l-1.35,7.45q0,.32-.08.65c0,.22,0,.39,0,.53a2.49,2.49,0,0,0,.53,1.62,1.79,1.79,0,0,0,1.47.65,2.76,2.76,0,0,0,1.63-.5,4.65,4.65,0,0,0,1.19-1.22,7,7,0,0,0,.77-1.51,8.67,8.67,0,0,0,.4-1.38l1.16-6.28h2Z"/><path class="cls-1" d="M227.53,88c0-.26.09-.55.15-.87s.11-.66.15-1h1.89l-.34,2h0a5.16,5.16,0,0,1,.58-.85,3.63,3.63,0,0,1,.81-.72,4.4,4.4,0,0,1,1.05-.5,4.13,4.13,0,0,1,1.3-.2,2,2,0,0,1,.39,0,3.18,3.18,0,0,1,.54.17l-.45,2a4.65,4.65,0,0,0-.53-.18,1.43,1.43,0,0,0-.33-.06,2.75,2.75,0,0,0-1.64.5,4.75,4.75,0,0,0-1.18,1.22,7.06,7.06,0,0,0-.77,1.51,8.66,8.66,0,0,0-.4,1.38l-1.14,6.13h-2Z"/><path class="cls-1" d="M241.29,88.3a3.79,3.79,0,0,0-1-.48,3.53,3.53,0,0,0-.92-.13,3.44,3.44,0,0,0-1.75.45,4.15,4.15,0,0,0-1.33,1.23,5.94,5.94,0,0,0-.84,1.81,7.87,7.87,0,0,0-.29,2.15,4.34,4.34,0,0,0,.75,2.72,2.63,2.63,0,0,0,2.21,1,4.1,4.1,0,0,0,1.12-.17,8.18,8.18,0,0,0,1.1-.39l-.37,2.13a4.81,4.81,0,0,1-1,.23,9.68,9.68,0,0,1-1.08.06,5.7,5.7,0,0,1-2-.33,4.07,4.07,0,0,1-1.53-1,4.45,4.45,0,0,1-1-1.62,6.64,6.64,0,0,1-.35-2.27,11.05,11.05,0,0,1,.4-3,8,8,0,0,1,1.16-2.49,5.8,5.8,0,0,1,1.88-1.71,5,5,0,0,1,2.54-.63,8.71,8.71,0,0,1,1.55.12,7,7,0,0,1,1.29.37Z"/><path class="cls-1" d="M249.54,98.37q-.8.22-1.61.37a9.24,9.24,0,0,1-1.63.15,7.08,7.08,0,0,1-1.92-.26,3.8,3.8,0,0,1-1.6-.9A4.62,4.62,0,0,1,241.66,96a7.62,7.62,0,0,1-.42-2.74,9,9,0,0,1,.4-2.61,8.32,8.32,0,0,1,1.15-2.39,6.09,6.09,0,0,1,1.87-1.75,4.91,4.91,0,0,1,2.58-.67,3.77,3.77,0,0,1,3.06,1.27,5.28,5.28,0,0,1,1.06,3.49q0,.64-.05,1.17t-.14,1.1h-7.72a5.12,5.12,0,0,0-.06.78,4.59,4.59,0,0,0,.25,1.63,2.54,2.54,0,0,0,.7,1,2.6,2.6,0,0,0,1.07.55,5.5,5.5,0,0,0,1.35.16,6.15,6.15,0,0,0,1.55-.21,9.63,9.63,0,0,0,1.55-.55Zm-.26-7.21a8.09,8.09,0,0,0,.06-1,2.76,2.76,0,0,0-.58-1.81,2.12,2.12,0,0,0-1.74-.71,2.46,2.46,0,0,0-1.16.28,3.61,3.61,0,0,0-1,.76,4.6,4.6,0,0,0-.75,1.11,5.85,5.85,0,0,0-.46,1.32Z"/><path class="cls-1" d="M258.68,88.32a5.7,5.7,0,0,0-1-.44,3.76,3.76,0,0,0-1.16-.2,4.17,4.17,0,0,0-.69.06,2,2,0,0,0-.67.23,1.44,1.44,0,0,0-.5.46,1.35,1.35,0,0,0-.19.76,1.5,1.5,0,0,0,.28.92,4.51,4.51,0,0,0,.69.73,10.48,10.48,0,0,0,.9.7,5.19,5.19,0,0,1,.9.79,4.07,4.07,0,0,1,.69,1.07,3.6,3.6,0,0,1,.28,1.48,4,4,0,0,1-.41,1.89,3.69,3.69,0,0,1-1,1.23,3.84,3.84,0,0,1-1.34.66,5.31,5.31,0,0,1-1.38.2,10.89,10.89,0,0,1-1.12,0,8.3,8.3,0,0,1-.83-.12,4.7,4.7,0,0,1-.66-.18l-.6-.23.39-2q.6.27,1.23.49a3.85,3.85,0,0,0,1.29.22,3.48,3.48,0,0,0,.82-.1,2.15,2.15,0,0,0,.74-.33,1.76,1.76,0,0,0,.54-.6,1.83,1.83,0,0,0,.2-.9,1.61,1.61,0,0,0-.28-.94,4.14,4.14,0,0,0-.69-.76q-.41-.35-.9-.71a5.58,5.58,0,0,1-.9-.81,4.36,4.36,0,0,1-.69-1,3.07,3.07,0,0,1-.28-1.36,3.3,3.3,0,0,1,1.39-2.81A4.33,4.33,0,0,1,255,86a5.09,5.09,0,0,1,1.41-.21,5.88,5.88,0,0,1,1.45.18,8.24,8.24,0,0,1,1.41.5Z"/></svg>