<?xml version="1.0" encoding="utf-8"?>
<!-- Generator: Adobe Illustrator 20.0.0, SVG Export Plug-In . SVG Version: 6.00 Build 0)  -->
<svg version="1.1" id="Layer_1" xmlns="http://www.w3.org/2000/svg" xmlns:xlink="http://www.w3.org/1999/xlink" x="0px" y="0px"
	 viewBox="0 0 266.6 104.4" style="enable-background:new 0 0 266.6 104.4;" xml:space="preserve">
<style type="text/css">
	.st0{fill:#002856;}
</style>
<title>descriptor</title>
<g>
	<path class="st0" d="M12.3,7.9H8.6l-3,14.3h-2l3-14.3H2.9l0.4-1.7h9.4L12.3,7.9z"/>
	<path class="st0" d="M20.7,13.1c0,0.2,0,0.5,0,0.7s-0.1,0.5-0.1,0.7L19,22.2H17l1.6-7.7c0.1-0.4,0.1-0.7,0.1-1.1
		c0-0.4-0.1-0.7-0.3-1c-0.2-0.3-0.6-0.5-1.2-0.5c-0.4,0-0.7,0.1-1.1,0.3c-0.3,0.2-0.6,0.4-0.9,0.7c-0.3,0.3-0.5,0.6-0.7,1
		c-0.2,0.4-0.3,0.8-0.4,1.2l-1.5,7.2h-1.9L14.3,5h1.9l-1.5,7.1h0c0.4-0.6,0.9-1,1.4-1.3c0.5-0.3,1.1-0.4,1.8-0.4
		c0.9,0,1.6,0.3,2,0.8C20.5,11.6,20.7,12.3,20.7,13.1z"/>
	<path class="st0" d="M31.9,14c0,0.5,0,1-0.1,1.5c-0.1,0.5-0.2,1-0.3,1.5h-6.7c-0.1,0.4-0.1,0.8-0.1,1.2c0,0.9,0.2,1.6,0.7,2.1
		c0.4,0.5,1.1,0.7,1.8,0.7c0.5,0,1-0.1,1.5-0.2c0.5-0.2,1-0.4,1.5-0.7L30,21.7c-0.4,0.2-0.9,0.3-1.4,0.5c-0.5,0.1-1.1,0.2-1.7,0.2
		c-1.3,0-2.3-0.4-3.1-1.1c-0.7-0.7-1.1-1.8-1.1-3.2c0-0.9,0.1-1.8,0.4-2.8c0.3-0.9,0.6-1.8,1.1-2.5c0.5-0.8,1.1-1.4,1.7-1.8
		s1.5-0.7,2.3-0.7c1.1,0,2,0.3,2.6,1C31.6,12,31.9,12.9,31.9,14z M30.1,13.9c0-0.6-0.2-1.2-0.5-1.5c-0.3-0.4-0.8-0.6-1.3-0.6
		c-0.4,0-0.8,0.1-1.2,0.3c-0.4,0.2-0.7,0.5-0.9,0.9c-0.3,0.3-0.5,0.7-0.7,1.2c-0.2,0.4-0.3,0.9-0.4,1.3h4.8c0.1-0.3,0.1-0.6,0.2-0.8
		C30.1,14.5,30.1,14.2,30.1,13.9z"/>
	<path class="st0" d="M46.3,12.5c-0.3-0.2-0.6-0.3-1-0.4c-0.3-0.1-0.7-0.1-1.1-0.1c-0.6,0-1.1,0.2-1.5,0.5c-0.4,0.3-0.6,0.7-0.6,1.2
		c0,0.3,0.1,0.6,0.3,0.9c0.2,0.3,0.5,0.6,1,0.9l1.2,0.8c0.4,0.3,0.7,0.6,0.9,1c0.2,0.4,0.3,0.9,0.3,1.5c0,0.6-0.1,1.1-0.3,1.6
		c-0.2,0.5-0.5,0.8-0.9,1.1c-0.4,0.3-0.8,0.6-1.4,0.7c-0.5,0.2-1.1,0.3-1.7,0.3c-0.7,0-1.3-0.1-1.9-0.2c-0.5-0.1-0.9-0.2-1.3-0.4
		l0.6-1.7c0.4,0.2,0.8,0.4,1.2,0.5c0.4,0.1,0.8,0.2,1.4,0.2c0.7,0,1.2-0.2,1.6-0.5c0.4-0.3,0.6-0.8,0.6-1.4c0-0.4-0.1-0.7-0.3-1
		c-0.2-0.3-0.5-0.6-1-0.9l-1-0.7c-0.4-0.3-0.8-0.7-1-1.1s-0.4-0.9-0.4-1.4c0-0.6,0.1-1.1,0.3-1.6c0.2-0.5,0.5-0.8,0.9-1.1
		c0.4-0.3,0.8-0.5,1.3-0.7c0.5-0.2,1.1-0.2,1.7-0.2c0.4,0,0.9,0,1.4,0.1c0.5,0.1,0.8,0.2,1.1,0.3L46.3,12.5z"/>
	<path class="st0" d="M55.2,12.1h-2.4L51.3,19c0,0.2-0.1,0.3-0.1,0.5c0,0.2,0,0.3,0,0.4c0,0.3,0.1,0.5,0.3,0.6
		c0.2,0.2,0.4,0.2,0.7,0.2c0.2,0,0.4,0,0.6-0.1c0.2-0.1,0.4-0.1,0.6-0.2l-0.3,1.6c-0.3,0.1-0.5,0.2-0.8,0.2
		c-0.3,0.1-0.5,0.1-0.8,0.1c-0.7,0-1.2-0.2-1.7-0.5c-0.4-0.3-0.6-0.8-0.6-1.5c0-0.2,0-0.3,0-0.5c0-0.2,0-0.3,0.1-0.5l1.5-7.3h-1.9
		l0.3-1.6h1.9l0.5-2.4l2-0.6l-0.6,3h2.4L55.2,12.1z"/>
	<path class="st0" d="M64.8,13.4c0,0.2,0,0.5-0.1,0.7c0,0.3-0.1,0.5-0.1,0.6l-1,4.9c-0.1,0.5-0.2,0.9-0.3,1.4
		c-0.1,0.4-0.2,0.9-0.2,1.3h-1.7l0.2-1.6h0c-0.5,0.6-1,1-1.5,1.3c-0.5,0.3-1.1,0.4-1.7,0.4c-1,0-1.7-0.3-2.3-0.8
		c-0.6-0.6-0.9-1.3-0.9-2.3c0-1.5,0.5-2.5,1.5-3.2s2.6-1,4.8-1h1.2c0.1-0.3,0.1-0.6,0.2-0.9c0-0.3,0.1-0.5,0.1-0.7
		c0-0.5-0.2-0.8-0.5-1.2c-0.3-0.3-0.8-0.5-1.4-0.5c-0.6,0-1.2,0.1-1.8,0.3c-0.6,0.2-1.1,0.5-1.6,0.8l0-1.8c0.5-0.3,1.1-0.5,1.6-0.6
		c0.6-0.2,1.2-0.2,1.9-0.2c0.6,0,1.2,0.1,1.6,0.3s0.8,0.4,1.1,0.7c0.3,0.3,0.5,0.6,0.6,1C64.7,12.7,64.8,13.1,64.8,13.4z M59.8,16.6
		c-0.7,0.1-1.2,0.3-1.6,0.5c-0.4,0.2-0.7,0.5-0.8,0.8c-0.2,0.3-0.2,0.7-0.2,1.2c0,0.6,0.2,1,0.5,1.3c0.3,0.3,0.8,0.5,1.2,0.5
		c0.3,0,0.7-0.1,1-0.2c0.3-0.1,0.7-0.3,0.9-0.6c0.3-0.3,0.5-0.6,0.8-1c0.2-0.4,0.4-0.8,0.5-1.3l0.3-1.4
		C61.4,16.5,60.5,16.5,59.8,16.6z"/>
	<path class="st0" d="M74.8,6.6c-0.3-0.2-0.7-0.3-1.1-0.3c-0.5,0-0.9,0.1-1.1,0.4C72.3,7,72.1,7.5,72,8.1l-0.5,2.5h2.1l-0.3,1.6
		h-2.1L69,22.2H67l2.1-10.2h-1.9l0.3-1.6h1.9l0.6-2.7c0.2-1,0.6-1.7,1.1-2.3c0.5-0.5,1.3-0.8,2.4-0.8c0.5,0,1,0.1,1.5,0.2L74.8,6.6z
		"/>
	<path class="st0" d="M81.6,6.6c-0.3-0.2-0.7-0.3-1.1-0.3c-0.5,0-0.9,0.1-1.1,0.4C79.2,7,79,7.5,78.8,8.1l-0.5,2.5h2.1l-0.3,1.6H78
		l-2.1,10.2h-1.9L76,12.1h-1.9l0.3-1.6h1.9L77,7.8c0.2-1,0.6-1.7,1.1-2.3c0.5-0.5,1.3-0.8,2.4-0.8c0.5,0,1,0.1,1.5,0.2L81.6,6.6z"/>
	<path class="st0" d="M96,13.1c0,0.2,0,0.5,0,0.7s-0.1,0.5-0.1,0.7l-1.6,7.7h-1.9l1.6-7.7c0.1-0.4,0.1-0.7,0.1-1.1
		c0-0.4-0.1-0.7-0.3-1C93.4,12.2,93,12,92.4,12c-0.4,0-0.7,0.1-1.1,0.3c-0.3,0.2-0.6,0.4-0.9,0.7c-0.3,0.3-0.5,0.6-0.7,1
		c-0.2,0.4-0.3,0.8-0.4,1.2l-1.5,7.2h-1.9l2-9.2c0.1-0.4,0.2-0.9,0.2-1.3c0.1-0.4,0.1-0.8,0.2-1.3h1.9l-0.3,1.7h0
		c0.4-0.7,0.9-1.2,1.4-1.5c0.5-0.3,1.1-0.4,1.9-0.4c0.9,0,1.6,0.3,2,0.8C95.7,11.6,96,12.3,96,13.1z"/>
	<path class="st0" d="M107.1,14c0,0.5,0,1-0.1,1.5c-0.1,0.5-0.2,1-0.3,1.5H100c-0.1,0.4-0.1,0.8-0.1,1.2c0,0.9,0.2,1.6,0.7,2.1
		c0.4,0.5,1.1,0.7,1.8,0.7c0.5,0,1-0.1,1.5-0.2c0.5-0.2,1-0.4,1.5-0.7l-0.2,1.7c-0.4,0.2-0.9,0.3-1.4,0.5c-0.5,0.1-1.1,0.2-1.7,0.2
		c-1.3,0-2.3-0.4-3.1-1.1c-0.7-0.7-1.1-1.8-1.1-3.2c0-0.9,0.1-1.8,0.4-2.8c0.3-0.9,0.6-1.8,1.1-2.5c0.5-0.8,1.1-1.4,1.7-1.8
		s1.5-0.7,2.3-0.7c1.1,0,2,0.3,2.6,1C106.8,12,107.1,12.9,107.1,14z M105.3,13.9c0-0.6-0.2-1.2-0.5-1.5c-0.3-0.4-0.8-0.6-1.3-0.6
		c-0.4,0-0.8,0.1-1.2,0.3c-0.4,0.2-0.7,0.5-0.9,0.9c-0.3,0.3-0.5,0.7-0.7,1.2c-0.2,0.4-0.3,0.9-0.4,1.3h4.8c0.1-0.3,0.1-0.6,0.2-0.8
		C105.3,14.5,105.3,14.2,105.3,13.9z"/>
	<path class="st0" d="M119.3,22.2h-2.2l-0.5-9.9h0l-4.2,9.9h-2.3l-0.7-11.7h1.9l0.3,9.8h0l4.1-9.8h2.3l0.4,9.8h0l4.1-9.8h2
		L119.3,22.2z"/>
	<path class="st0" d="M131.7,12.5c-0.3-0.2-0.6-0.3-1-0.4c-0.3-0.1-0.7-0.1-1.1-0.1c-0.6,0-1.1,0.2-1.5,0.5
		c-0.4,0.3-0.6,0.7-0.6,1.2c0,0.3,0.1,0.6,0.3,0.9c0.2,0.3,0.5,0.6,1,0.9l1.2,0.8c0.4,0.3,0.7,0.6,0.9,1c0.2,0.4,0.3,0.9,0.3,1.5
		c0,0.6-0.1,1.1-0.3,1.6c-0.2,0.5-0.5,0.8-0.9,1.1c-0.4,0.3-0.8,0.6-1.4,0.7c-0.5,0.2-1.1,0.3-1.7,0.3c-0.7,0-1.3-0.1-1.9-0.2
		c-0.5-0.1-0.9-0.2-1.3-0.4l0.6-1.7c0.4,0.2,0.8,0.4,1.2,0.5c0.4,0.1,0.8,0.2,1.4,0.2c0.7,0,1.2-0.2,1.6-0.5
		c0.4-0.3,0.6-0.8,0.6-1.4c0-0.4-0.1-0.7-0.3-1c-0.2-0.3-0.5-0.6-1-0.9l-1-0.7c-0.4-0.3-0.8-0.7-1-1.1s-0.4-0.9-0.4-1.4
		c0-0.6,0.1-1.1,0.3-1.6c0.2-0.5,0.5-0.8,0.9-1.1c0.4-0.3,0.8-0.5,1.3-0.7c0.5-0.2,1.1-0.2,1.7-0.2c0.4,0,0.9,0,1.4,0.1
		c0.5,0.1,0.8,0.2,1.1,0.3L131.7,12.5z"/>
	<path class="st0" d="M135.4,22.2h-1.9L137.1,5h1.9L135.4,22.2z"/>
	<path class="st0" d="M148.5,14c0,0.5,0,1-0.1,1.5c-0.1,0.5-0.2,1-0.3,1.5h-6.7c-0.1,0.4-0.1,0.8-0.1,1.2c0,0.9,0.2,1.6,0.7,2.1
		c0.4,0.5,1.1,0.7,1.8,0.7c0.5,0,1-0.1,1.5-0.2c0.5-0.2,1-0.4,1.5-0.7l-0.2,1.7c-0.4,0.2-0.9,0.3-1.4,0.5c-0.5,0.1-1.1,0.2-1.7,0.2
		c-1.3,0-2.3-0.4-3.1-1.1c-0.7-0.7-1.1-1.8-1.1-3.2c0-0.9,0.1-1.8,0.4-2.8c0.3-0.9,0.6-1.8,1.1-2.5s1.1-1.4,1.7-1.8s1.5-0.7,2.3-0.7
		c1.1,0,2,0.3,2.6,1C148.2,12,148.5,12.9,148.5,14z M146.7,13.9c0-0.6-0.2-1.2-0.5-1.5c-0.3-0.4-0.8-0.6-1.3-0.6
		c-0.4,0-0.8,0.1-1.2,0.3c-0.4,0.2-0.7,0.5-0.9,0.9c-0.3,0.3-0.5,0.7-0.7,1.2c-0.2,0.4-0.3,0.9-0.4,1.3h4.8c0.1-0.3,0.1-0.6,0.2-0.8
		C146.7,14.5,146.7,14.2,146.7,13.9z"/>
	<path class="st0" d="M156.9,12.1h-2.4L153,19c0,0.2-0.1,0.3-0.1,0.5c0,0.2,0,0.3,0,0.4c0,0.3,0.1,0.5,0.3,0.6
		c0.2,0.2,0.4,0.2,0.7,0.2c0.2,0,0.4,0,0.6-0.1c0.2-0.1,0.4-0.1,0.6-0.2l-0.3,1.6c-0.3,0.1-0.5,0.2-0.8,0.2
		c-0.3,0.1-0.5,0.1-0.8,0.1c-0.7,0-1.2-0.2-1.7-0.5c-0.4-0.3-0.6-0.8-0.6-1.5c0-0.2,0-0.3,0-0.5c0-0.2,0-0.3,0.1-0.5l1.5-7.3h-1.9
		l0.3-1.6h1.9l0.5-2.4l2-0.6l-0.6,3h2.4L156.9,12.1z"/>
	<path class="st0" d="M164.1,12.1h-2.4l-1.5,6.9c0,0.2-0.1,0.3-0.1,0.5c0,0.2,0,0.3,0,0.4c0,0.3,0.1,0.5,0.3,0.6
		c0.2,0.2,0.4,0.2,0.7,0.2c0.2,0,0.4,0,0.6-0.1c0.2-0.1,0.4-0.1,0.6-0.2l-0.3,1.6c-0.3,0.1-0.5,0.2-0.8,0.2
		c-0.3,0.1-0.5,0.1-0.8,0.1c-0.7,0-1.2-0.2-1.7-0.5c-0.4-0.3-0.6-0.8-0.6-1.5c0-0.2,0-0.3,0-0.5c0-0.2,0-0.3,0.1-0.5l1.5-7.3h-1.9
		l0.3-1.6h1.9l0.5-2.4l2-0.6l-0.6,3h2.4L164.1,12.1z"/>
	<path class="st0" d="M173.7,14c0,0.5,0,1-0.1,1.5c-0.1,0.5-0.2,1-0.3,1.5h-6.7c-0.1,0.4-0.1,0.8-0.1,1.2c0,0.9,0.2,1.6,0.7,2.1
		c0.4,0.5,1.1,0.7,1.8,0.7c0.5,0,1-0.1,1.5-0.2c0.5-0.2,1-0.4,1.5-0.7l-0.2,1.7c-0.4,0.2-0.9,0.3-1.4,0.5c-0.5,0.1-1.1,0.2-1.7,0.2
		c-1.3,0-2.3-0.4-3.1-1.1c-0.7-0.7-1.1-1.8-1.1-3.2c0-0.9,0.1-1.8,0.4-2.8s0.6-1.8,1.1-2.5c0.5-0.8,1.1-1.4,1.7-1.8s1.5-0.7,2.3-0.7
		c1.1,0,2,0.3,2.6,1C173.4,12,173.7,12.9,173.7,14z M171.9,13.9c0-0.6-0.2-1.2-0.5-1.5c-0.3-0.4-0.8-0.6-1.3-0.6
		c-0.4,0-0.8,0.1-1.2,0.3c-0.4,0.2-0.7,0.5-0.9,0.9c-0.3,0.3-0.5,0.7-0.7,1.2c-0.2,0.4-0.3,0.9-0.4,1.3h4.8c0.1-0.3,0.1-0.6,0.2-0.8
		C171.9,14.5,171.9,14.2,171.9,13.9z"/>
	<path class="st0" d="M182.1,12.3c-0.2,0-0.5-0.1-0.7-0.1c-0.4,0-0.7,0.1-1,0.2c-0.3,0.1-0.7,0.4-1,0.6c-0.3,0.3-0.6,0.7-0.8,1.1
		c-0.2,0.5-0.4,1-0.6,1.6l-1.4,6.4h-1.9l2-9.2c0.1-0.4,0.2-0.9,0.2-1.3c0.1-0.4,0.1-0.8,0.2-1.3h1.9l-0.3,1.8h0
		c0.3-0.4,0.5-0.7,0.8-1c0.2-0.3,0.5-0.5,0.7-0.6s0.6-0.3,0.9-0.3s0.8-0.1,1.3-0.1L182.1,12.3z"/>
	<path class="st0" d="M196.6,6.6c-0.3-0.2-0.7-0.3-1.1-0.3c-0.5,0-0.9,0.1-1.1,0.4c-0.3,0.3-0.5,0.7-0.6,1.3l-0.5,2.5h2.1l-0.3,1.6
		h-2.1l-2.1,10.2h-1.9l2.1-10.2h-1.9l0.3-1.6h1.9l0.6-2.7c0.2-1,0.6-1.7,1.1-2.3c0.5-0.5,1.3-0.8,2.4-0.8c0.5,0,1,0.1,1.5,0.2
		L196.6,6.6z"/>
	<path class="st0" d="M205.2,14.6c0,0.9-0.1,1.7-0.4,2.7c-0.2,0.9-0.6,1.7-1.1,2.5c-0.5,0.8-1.1,1.4-1.8,1.9
		c-0.7,0.5-1.6,0.7-2.5,0.7c-1.3,0-2.3-0.4-3-1.1s-1.1-1.8-1.1-3.2c0-0.8,0.1-1.7,0.4-2.6c0.2-0.9,0.6-1.8,1.1-2.5
		c0.5-0.8,1.1-1.4,1.8-1.9s1.6-0.7,2.5-0.7c1.2,0,2.2,0.4,2.9,1.1C204.8,12.3,205.2,13.3,205.2,14.6z M203.2,14.6
		c0-0.9-0.2-1.5-0.5-2c-0.4-0.4-0.9-0.7-1.5-0.7c-0.7,0-1.2,0.2-1.7,0.6c-0.5,0.4-0.9,0.9-1.2,1.6c-0.3,0.6-0.5,1.3-0.7,2
		c-0.2,0.7-0.2,1.4-0.2,2.1c0,0.9,0.2,1.5,0.6,2c0.4,0.4,0.9,0.7,1.5,0.7c0.7,0,1.2-0.2,1.7-0.6c0.5-0.4,0.9-0.9,1.2-1.6
		c0.3-0.6,0.5-1.3,0.7-2C203.1,15.9,203.2,15.2,203.2,14.6z"/>
	<path class="st0" d="M213.7,12.3c-0.2,0-0.5-0.1-0.7-0.1c-0.4,0-0.7,0.1-1,0.2c-0.3,0.1-0.7,0.4-1,0.6c-0.3,0.3-0.6,0.7-0.8,1.1
		c-0.2,0.5-0.4,1-0.6,1.6l-1.4,6.4h-1.9l2-9.2c0.1-0.4,0.2-0.9,0.2-1.3c0.1-0.4,0.1-0.8,0.2-1.3h1.9l-0.3,1.8h0
		c0.3-0.4,0.5-0.7,0.8-1c0.2-0.3,0.5-0.5,0.7-0.6s0.6-0.3,0.9-0.3s0.8-0.1,1.3-0.1L213.7,12.3z"/>
	<path class="st0" d="M227,12.1h-2.4l-1.5,6.9c0,0.2-0.1,0.3-0.1,0.5c0,0.2,0,0.3,0,0.4c0,0.3,0.1,0.5,0.3,0.6
		c0.2,0.2,0.4,0.2,0.7,0.2c0.2,0,0.4,0,0.6-0.1c0.2-0.1,0.4-0.1,0.6-0.2l-0.3,1.6c-0.3,0.1-0.5,0.2-0.8,0.2
		c-0.3,0.1-0.5,0.1-0.8,0.1c-0.7,0-1.2-0.2-1.7-0.5c-0.4-0.3-0.6-0.8-0.6-1.5c0-0.2,0-0.3,0-0.5c0-0.2,0-0.3,0.1-0.5l1.5-7.3h-1.9
		l0.3-1.6h1.9l0.5-2.4l2-0.6l-0.6,3h2.4L227,12.1z"/>
	<path class="st0" d="M237,13.1c0,0.2,0,0.5,0,0.7c0,0.3-0.1,0.5-0.1,0.7l-1.6,7.7h-1.9l1.6-7.7c0.1-0.4,0.1-0.7,0.1-1.1
		c0-0.4-0.1-0.7-0.3-1c-0.2-0.3-0.6-0.5-1.2-0.5c-0.4,0-0.7,0.1-1.1,0.3c-0.3,0.2-0.6,0.4-0.9,0.7c-0.3,0.3-0.5,0.6-0.7,1
		c-0.2,0.4-0.3,0.8-0.4,1.2l-1.5,7.2h-1.9L230.6,5h1.9l-1.5,7.1h0c0.4-0.6,0.9-1,1.4-1.3c0.5-0.3,1.1-0.4,1.8-0.4
		c0.9,0,1.6,0.3,2,0.8C236.8,11.6,237,12.3,237,13.1z"/>
	<path class="st0" d="M248.1,14c0,0.5,0,1-0.1,1.5c-0.1,0.5-0.2,1-0.3,1.5H241c-0.1,0.4-0.1,0.8-0.1,1.2c0,0.9,0.2,1.6,0.7,2.1
		c0.4,0.5,1.1,0.7,1.8,0.7c0.5,0,1-0.1,1.5-0.2c0.5-0.2,1-0.4,1.5-0.7l-0.2,1.7c-0.4,0.2-0.9,0.3-1.4,0.5c-0.5,0.1-1.1,0.2-1.7,0.2
		c-1.3,0-2.3-0.4-3.1-1.1c-0.7-0.7-1.1-1.8-1.1-3.2c0-0.9,0.1-1.8,0.4-2.8s0.6-1.8,1.1-2.5c0.5-0.8,1.1-1.4,1.7-1.8s1.5-0.7,2.3-0.7
		c1.1,0,2,0.3,2.6,1C247.8,12,248.1,12.9,248.1,14z M246.3,13.9c0-0.6-0.2-1.2-0.5-1.5c-0.3-0.4-0.8-0.6-1.3-0.6
		c-0.4,0-0.8,0.1-1.2,0.3c-0.4,0.2-0.7,0.5-0.9,0.9c-0.3,0.3-0.5,0.7-0.7,1.2c-0.2,0.4-0.3,0.9-0.4,1.3h4.8c0.1-0.3,0.1-0.6,0.2-0.8
		C246.3,14.5,246.3,14.2,246.3,13.9z"/>
	<path class="st0" d="M13.7,50c0,1.4-0.2,2.7-0.5,3.9c-0.4,1.2-0.9,2.3-1.6,3.3s-1.6,1.7-2.7,2.2c-1.1,0.6-2.3,0.8-3.7,0.8H1
		l3.4-16.1h3.1c2.1,0,3.7,0.5,4.7,1.5C13.2,46.7,13.7,48.2,13.7,50z M11.6,50.1c0-0.5-0.1-1-0.2-1.5c-0.1-0.5-0.4-0.9-0.7-1.3
		c-0.3-0.4-0.8-0.7-1.3-0.9c-0.6-0.2-1.2-0.4-2.1-0.4H6L3.4,58.5h1.7c1.1,0,2.1-0.2,2.9-0.7c0.8-0.5,1.5-1.1,2-1.8
		c0.5-0.8,0.9-1.7,1.2-2.7C11.4,52.3,11.6,51.2,11.6,50.1z"/>
	<path class="st0" d="M24.2,52c0,0.5,0,1-0.1,1.5c-0.1,0.5-0.2,1-0.3,1.5h-6.7C17,55.3,17,55.7,17,56.1c0,0.9,0.2,1.6,0.7,2.1
		c0.4,0.5,1.1,0.7,1.8,0.7c0.5,0,1-0.1,1.5-0.2c0.5-0.2,1-0.4,1.5-0.7l-0.2,1.7c-0.4,0.2-0.9,0.3-1.4,0.5c-0.5,0.1-1.1,0.2-1.7,0.2
		c-1.3,0-2.3-0.4-3.1-1.1c-0.7-0.7-1.1-1.8-1.1-3.2c0-0.9,0.1-1.8,0.4-2.8c0.3-0.9,0.6-1.8,1.1-2.5c0.5-0.8,1.1-1.4,1.7-1.8
		s1.5-0.7,2.3-0.7c1.1,0,2,0.3,2.6,1C23.9,50,24.2,50.9,24.2,52z M22.4,51.9c0-0.6-0.2-1.2-0.5-1.5c-0.3-0.4-0.8-0.6-1.3-0.6
		c-0.4,0-0.8,0.1-1.2,0.3c-0.4,0.2-0.7,0.5-0.9,0.9c-0.3,0.3-0.5,0.7-0.7,1.2c-0.2,0.4-0.3,0.9-0.4,1.3h4.8c0.1-0.3,0.1-0.6,0.2-0.8
		C22.4,52.5,22.4,52.2,22.4,51.9z"/>
	<path class="st0" d="M35.5,52.4c0,0.9-0.1,1.8-0.4,2.8c-0.2,1-0.6,1.8-1.1,2.6c-0.5,0.8-1,1.4-1.7,1.9s-1.4,0.7-2.2,0.7
		c-1.4,0-2.4-0.6-2.9-1.8h0l-1.4,6.6h-1.9L27,50.7c0.1-0.4,0.1-0.7,0.2-1.1s0.1-0.7,0.2-1.1h1.9L29,50.2h0c0.5-0.7,0.9-1.2,1.4-1.5
		s1.1-0.4,1.8-0.4c0.6,0,1,0.1,1.4,0.3s0.8,0.5,1,0.8c0.3,0.4,0.5,0.8,0.6,1.3C35.4,51.2,35.5,51.8,35.5,52.4z M33.5,52.3
		c0-0.7-0.2-1.3-0.5-1.7c-0.3-0.4-0.8-0.7-1.4-0.7c-0.7,0-1.3,0.2-1.8,0.7c-0.5,0.4-0.9,1-1.2,1.7c-0.3,0.7-0.5,1.4-0.7,2.1
		c-0.1,0.8-0.2,1.4-0.2,2c0,0.7,0.2,1.2,0.5,1.7c0.3,0.5,0.8,0.7,1.6,0.7c0.6,0,1.2-0.2,1.6-0.7c0.5-0.4,0.8-1,1.1-1.6
		c0.3-0.7,0.5-1.4,0.7-2.1C33.4,53.7,33.5,53,33.5,52.3z"/>
	<path class="st0" d="M46.4,51.4c0,0.2,0,0.5-0.1,0.7c0,0.3-0.1,0.5-0.1,0.6l-1,4.9c-0.1,0.5-0.2,0.9-0.3,1.4
		c-0.1,0.4-0.2,0.9-0.2,1.3H43l0.2-1.6h0c-0.5,0.6-1,1-1.5,1.3s-1.1,0.4-1.7,0.4c-1,0-1.7-0.3-2.3-0.8c-0.6-0.6-0.9-1.3-0.9-2.3
		c0-1.5,0.5-2.5,1.5-3.2c1-0.7,2.6-1,4.8-1h1.2c0.1-0.3,0.1-0.6,0.2-0.9c0-0.3,0.1-0.5,0.1-0.7c0-0.5-0.2-0.8-0.5-1.2
		c-0.3-0.3-0.8-0.5-1.4-0.5c-0.6,0-1.2,0.1-1.8,0.3c-0.6,0.2-1.1,0.5-1.6,0.8l0-1.8c0.5-0.3,1.1-0.5,1.6-0.6
		c0.6-0.2,1.2-0.2,1.9-0.2c0.6,0,1.2,0.1,1.6,0.3s0.8,0.4,1.1,0.7c0.3,0.3,0.5,0.6,0.6,1C46.3,50.7,46.4,51.1,46.4,51.4z M41.4,54.6
		c-0.7,0.1-1.2,0.3-1.6,0.5c-0.4,0.2-0.7,0.5-0.8,0.8c-0.2,0.3-0.2,0.7-0.2,1.2c0,0.6,0.2,1,0.5,1.3c0.3,0.3,0.8,0.5,1.2,0.5
		c0.3,0,0.7-0.1,1-0.2c0.3-0.1,0.7-0.3,0.9-0.6c0.3-0.3,0.5-0.6,0.8-1c0.2-0.4,0.4-0.8,0.5-1.3l0.3-1.4C43,54.5,42.1,54.5,41.4,54.6
		z"/>
	<path class="st0" d="M55.2,50.3c-0.2,0-0.5-0.1-0.7-0.1c-0.4,0-0.7,0.1-1,0.2c-0.3,0.1-0.7,0.4-1,0.6c-0.3,0.3-0.6,0.7-0.8,1.1
		c-0.2,0.5-0.4,1-0.6,1.6l-1.4,6.4h-1.9l2-9.2c0.1-0.4,0.2-0.9,0.2-1.3c0.1-0.4,0.1-0.8,0.2-1.3h1.9l-0.3,1.8h0
		c0.3-0.4,0.5-0.7,0.8-1s0.5-0.5,0.7-0.6s0.6-0.3,0.9-0.3c0.4-0.1,0.8-0.1,1.3-0.1L55.2,50.3z"/>
	<path class="st0" d="M62.4,50.1H60L58.5,57c0,0.2-0.1,0.3-0.1,0.5c0,0.2,0,0.3,0,0.4c0,0.3,0.1,0.5,0.3,0.6
		c0.2,0.2,0.4,0.2,0.7,0.2c0.2,0,0.4,0,0.6-0.1c0.2-0.1,0.4-0.1,0.6-0.2l-0.3,1.6c-0.3,0.1-0.5,0.2-0.8,0.2
		c-0.3,0.1-0.5,0.1-0.8,0.1c-0.7,0-1.2-0.2-1.7-0.5c-0.4-0.3-0.6-0.8-0.6-1.5c0-0.2,0-0.3,0-0.5c0-0.2,0-0.3,0.1-0.5l1.5-7.3h-1.9
		l0.3-1.6h1.9l0.5-2.4l2-0.6l-0.6,3h2.4L62.4,50.1z"/>
	<path class="st0" d="M77.9,51.1c0,0.2,0,0.5,0,0.7s-0.1,0.5-0.1,0.7l-1.6,7.7h-1.9l1.6-7.7c0.1-0.4,0.1-0.7,0.1-1.1
		c0-0.2,0-0.4,0-0.5c0-0.2-0.1-0.3-0.2-0.5c-0.1-0.1-0.3-0.3-0.4-0.3c-0.2-0.1-0.4-0.1-0.7-0.1c-0.3,0-0.6,0.1-0.9,0.3
		c-0.3,0.2-0.6,0.4-0.8,0.7c-0.3,0.3-0.5,0.6-0.7,1c-0.2,0.4-0.3,0.8-0.4,1.2l-1.5,7.2h-1.9l1.6-7.7c0.1-0.4,0.1-0.7,0.1-1.1
		c0-0.2,0-0.4,0-0.5s-0.1-0.3-0.2-0.5c-0.1-0.1-0.3-0.3-0.4-0.3c-0.2-0.1-0.4-0.1-0.7-0.1c-0.3,0-0.6,0.1-0.9,0.2
		c-0.3,0.2-0.6,0.4-0.8,0.7c-0.3,0.3-0.5,0.6-0.7,1c-0.2,0.4-0.3,0.8-0.4,1.2l-1.5,7.1h-1.9l2-9.2c0.1-0.4,0.2-0.9,0.2-1.3
		c0.1-0.4,0.1-0.8,0.2-1.3h1.9l-0.3,1.7h0c0.4-0.7,0.9-1.2,1.4-1.5c0.5-0.3,1.1-0.4,1.7-0.4c0.6,0,1.1,0.2,1.6,0.5
		c0.4,0.3,0.7,0.8,0.9,1.4h0c0.4-0.7,0.9-1.2,1.4-1.5c0.5-0.3,1.1-0.4,1.7-0.4c0.9,0,1.6,0.3,2,0.8C77.7,49.6,77.9,50.3,77.9,51.1z"
		/>
	<path class="st0" d="M89.1,52c0,0.5,0,1-0.1,1.5c-0.1,0.5-0.2,1-0.3,1.5H82c-0.1,0.4-0.1,0.8-0.1,1.2c0,0.9,0.2,1.6,0.7,2.1
		c0.4,0.5,1.1,0.7,1.8,0.7c0.5,0,1-0.1,1.5-0.2c0.5-0.2,1-0.4,1.5-0.7l-0.2,1.7c-0.4,0.2-0.9,0.3-1.4,0.5c-0.5,0.1-1.1,0.2-1.7,0.2
		c-1.3,0-2.3-0.4-3.1-1.1c-0.7-0.7-1.1-1.8-1.1-3.2c0-0.9,0.1-1.8,0.4-2.8c0.3-0.9,0.6-1.8,1.1-2.5c0.5-0.8,1.1-1.4,1.7-1.8
		s1.5-0.7,2.3-0.7c1.1,0,2,0.3,2.6,1C88.8,50,89.1,50.9,89.1,52z M87.3,51.9c0-0.6-0.2-1.2-0.5-1.5c-0.3-0.4-0.8-0.6-1.3-0.6
		c-0.4,0-0.8,0.1-1.2,0.3c-0.4,0.2-0.7,0.5-0.9,0.9c-0.3,0.3-0.5,0.7-0.7,1.2c-0.2,0.4-0.3,0.9-0.4,1.3h4.8c0.1-0.3,0.1-0.6,0.2-0.8
		C87.3,52.5,87.3,52.2,87.3,51.9z"/>
	<path class="st0" d="M100.2,51.1c0,0.2,0,0.5,0,0.7s-0.1,0.5-0.1,0.7l-1.6,7.7h-1.9l1.6-7.7c0.1-0.4,0.1-0.7,0.1-1.1
		c0-0.4-0.1-0.7-0.3-1c-0.2-0.3-0.6-0.5-1.2-0.5c-0.4,0-0.7,0.1-1.1,0.3c-0.3,0.2-0.6,0.4-0.9,0.7c-0.3,0.3-0.5,0.6-0.7,1
		c-0.2,0.4-0.3,0.8-0.4,1.2L92,60.2h-1.9l2-9.2c0.1-0.4,0.2-0.9,0.2-1.3c0.1-0.4,0.1-0.8,0.2-1.3h1.9L94,50.3h0
		c0.4-0.7,0.9-1.2,1.4-1.5c0.5-0.3,1.1-0.4,1.9-0.4c0.9,0,1.6,0.3,2,0.8C99.9,49.6,100.2,50.3,100.2,51.1z"/>
	<path class="st0" d="M108.9,50.1h-2.4l-1.5,6.9c0,0.2-0.1,0.3-0.1,0.5c0,0.2,0,0.3,0,0.4c0,0.3,0.1,0.5,0.3,0.6
		c0.2,0.2,0.4,0.2,0.7,0.2c0.2,0,0.4,0,0.6-0.1c0.2-0.1,0.4-0.1,0.6-0.2l-0.3,1.6c-0.3,0.1-0.5,0.2-0.8,0.2
		c-0.3,0.1-0.5,0.1-0.8,0.1c-0.7,0-1.2-0.2-1.7-0.5c-0.4-0.3-0.6-0.8-0.6-1.5c0-0.2,0-0.3,0-0.5c0-0.2,0-0.3,0.1-0.5l1.5-7.3h-1.9
		l0.3-1.6h1.9l0.5-2.4l2-0.6l-0.6,3h2.4L108.9,50.1z"/>
	<path class="st0" d="M125.2,52.6c0,0.9-0.1,1.7-0.4,2.7c-0.2,0.9-0.6,1.7-1.1,2.5c-0.5,0.8-1.1,1.4-1.8,1.9
		c-0.7,0.5-1.6,0.7-2.5,0.7c-1.3,0-2.3-0.4-3-1.1s-1.1-1.8-1.1-3.2c0-0.8,0.1-1.7,0.4-2.6c0.2-0.9,0.6-1.8,1.1-2.5
		c0.5-0.8,1.1-1.4,1.8-1.9c0.7-0.5,1.6-0.7,2.5-0.7c1.2,0,2.2,0.4,2.9,1.1C124.9,50.3,125.2,51.3,125.2,52.6z M123.2,52.6
		c0-0.9-0.2-1.5-0.5-2c-0.4-0.4-0.9-0.7-1.5-0.7c-0.7,0-1.2,0.2-1.7,0.6s-0.9,0.9-1.2,1.6c-0.3,0.6-0.5,1.3-0.7,2
		c-0.2,0.7-0.2,1.4-0.2,2.1c0,0.9,0.2,1.5,0.6,2c0.4,0.4,0.9,0.7,1.5,0.7c0.7,0,1.2-0.2,1.7-0.6c0.5-0.4,0.9-0.9,1.2-1.6
		s0.5-1.3,0.7-2C123.1,53.9,123.2,53.2,123.2,52.6z"/>
	<path class="st0" d="M135,44.6c-0.3-0.2-0.7-0.3-1.1-0.3c-0.5,0-0.9,0.1-1.1,0.4c-0.3,0.3-0.5,0.7-0.6,1.3l-0.5,2.5h2.1l-0.3,1.6
		h-2.1l-2.1,10.2h-1.9l2.1-10.2h-1.9l0.3-1.6h1.9l0.6-2.7c0.2-1,0.6-1.7,1.1-2.3c0.5-0.5,1.3-0.8,2.4-0.8c0.5,0,1,0.1,1.5,0.2
		L135,44.6z"/>
	<path class="st0" d="M150.1,45.9h-5.5l-1.1,5.1h5.2l-0.4,1.7h-5.2l-1.2,5.7h5.8l-0.4,1.7h-7.8l3.4-16.1h7.5L150.1,45.9z"/>
	<path class="st0" d="M160.4,51.1c0,0.2,0,0.5,0,0.7c0,0.3-0.1,0.5-0.1,0.7l-1.6,7.7h-1.9l1.6-7.7c0.1-0.4,0.1-0.7,0.1-1.1
		c0-0.4-0.1-0.7-0.3-1c-0.2-0.3-0.6-0.5-1.2-0.5c-0.4,0-0.7,0.1-1.1,0.3c-0.3,0.2-0.6,0.4-0.9,0.7c-0.3,0.3-0.5,0.6-0.7,1
		c-0.2,0.4-0.3,0.8-0.4,1.2l-1.5,7.2h-1.9l2-9.2c0.1-0.4,0.2-0.9,0.2-1.3c0.1-0.4,0.1-0.8,0.2-1.3h1.9l-0.3,1.7h0
		c0.4-0.7,0.9-1.2,1.4-1.5c0.5-0.3,1.1-0.4,1.9-0.4c0.9,0,1.6,0.3,2,0.8C160.2,49.6,160.4,50.3,160.4,51.1z"/>
	<path class="st0" d="M166.6,60.2h-2.3l-1.2-11.7h2l0.7,9.8h0l4.5-9.8h2.1L166.6,60.2z"/>
	<path class="st0" d="M174.3,60.2h-1.9l2.5-11.7h1.9L174.3,60.2z M177.3,46h-2.1l0.5-2.3h2.1L177.3,46z"/>
	<path class="st0" d="M185.1,50.3c-0.2,0-0.5-0.1-0.7-0.1c-0.4,0-0.7,0.1-1,0.2c-0.3,0.1-0.7,0.4-1,0.6c-0.3,0.3-0.6,0.7-0.8,1.1
		c-0.2,0.5-0.4,1-0.6,1.6l-1.4,6.4h-1.9l2-9.2c0.1-0.4,0.2-0.9,0.2-1.3c0.1-0.4,0.1-0.8,0.2-1.3h1.9l-0.3,1.8h0
		c0.3-0.4,0.5-0.7,0.8-1c0.2-0.3,0.5-0.5,0.7-0.6s0.6-0.3,0.9-0.3s0.8-0.1,1.3-0.1L185.1,50.3z"/>
	<path class="st0" d="M195.3,52.6c0,0.9-0.1,1.7-0.4,2.7c-0.2,0.9-0.6,1.7-1.1,2.5c-0.5,0.8-1.1,1.4-1.8,1.9
		c-0.7,0.5-1.6,0.7-2.5,0.7c-1.3,0-2.3-0.4-3-1.1s-1.1-1.8-1.1-3.2c0-0.8,0.1-1.7,0.4-2.6c0.2-0.9,0.6-1.8,1.1-2.5
		c0.5-0.8,1.1-1.4,1.8-1.9s1.6-0.7,2.5-0.7c1.2,0,2.2,0.4,2.9,1.1C195,50.3,195.3,51.3,195.3,52.6z M193.3,52.6c0-0.9-0.2-1.5-0.5-2
		c-0.4-0.4-0.9-0.7-1.5-0.7c-0.7,0-1.2,0.2-1.7,0.6c-0.5,0.4-0.9,0.9-1.2,1.6c-0.3,0.6-0.5,1.3-0.7,2c-0.2,0.7-0.2,1.4-0.2,2.1
		c0,0.9,0.2,1.5,0.6,2c0.4,0.4,0.9,0.7,1.5,0.7c0.7,0,1.2-0.2,1.7-0.6c0.5-0.4,0.9-0.9,1.2-1.6c0.3-0.6,0.5-1.3,0.7-2
		C193.3,53.9,193.3,53.2,193.3,52.6z"/>
	<path class="st0" d="M206.6,51.1c0,0.2,0,0.5,0,0.7c0,0.3-0.1,0.5-0.1,0.7l-1.6,7.7h-1.9l1.6-7.7c0.1-0.4,0.1-0.7,0.1-1.1
		c0-0.4-0.1-0.7-0.3-1c-0.2-0.3-0.6-0.5-1.2-0.5c-0.4,0-0.7,0.1-1.1,0.3c-0.3,0.2-0.6,0.4-0.9,0.7c-0.3,0.3-0.5,0.6-0.7,1
		c-0.2,0.4-0.3,0.8-0.4,1.2l-1.5,7.2h-1.9l2-9.2c0.1-0.4,0.2-0.9,0.2-1.3c0.1-0.4,0.1-0.8,0.2-1.3h1.9l-0.3,1.7h0
		c0.4-0.7,0.9-1.2,1.4-1.5c0.5-0.3,1.1-0.4,1.9-0.4c0.9,0,1.6,0.3,2,0.8C206.4,49.6,206.6,50.3,206.6,51.1z"/>
	<path class="st0" d="M223.7,51.1c0,0.2,0,0.5,0,0.7c0,0.3-0.1,0.5-0.1,0.7l-1.6,7.7H220l1.6-7.7c0.1-0.4,0.1-0.7,0.1-1.1
		c0-0.2,0-0.4,0-0.5c0-0.2-0.1-0.3-0.2-0.5c-0.1-0.1-0.3-0.3-0.4-0.3c-0.2-0.1-0.4-0.1-0.7-0.1s-0.6,0.1-0.9,0.3
		c-0.3,0.2-0.6,0.4-0.8,0.7c-0.3,0.3-0.5,0.6-0.7,1c-0.2,0.4-0.3,0.8-0.4,1.2l-1.5,7.2H214l1.6-7.7c0.1-0.4,0.1-0.7,0.1-1.1
		c0-0.2,0-0.4,0-0.5c0-0.2-0.1-0.3-0.2-0.5c-0.1-0.1-0.3-0.3-0.4-0.3c-0.2-0.1-0.4-0.1-0.7-0.1c-0.3,0-0.6,0.1-0.9,0.2
		c-0.3,0.2-0.6,0.4-0.8,0.7s-0.5,0.6-0.7,1c-0.2,0.4-0.3,0.8-0.4,1.2l-1.5,7.1h-1.9l2-9.2c0.1-0.4,0.2-0.9,0.2-1.3s0.1-0.8,0.2-1.3
		h1.9l-0.3,1.7h0c0.4-0.7,0.9-1.2,1.4-1.5c0.5-0.3,1.1-0.4,1.7-0.4c0.6,0,1.1,0.2,1.6,0.5c0.4,0.3,0.7,0.8,0.9,1.4h0
		c0.4-0.7,0.9-1.2,1.4-1.5c0.5-0.3,1.1-0.4,1.7-0.4c0.9,0,1.6,0.3,2,0.8C223.5,49.6,223.7,50.3,223.7,51.1z"/>
	<path class="st0" d="M234.8,52c0,0.5,0,1-0.1,1.5c-0.1,0.5-0.2,1-0.3,1.5h-6.7c-0.1,0.4-0.1,0.8-0.1,1.2c0,0.9,0.2,1.6,0.7,2.1
		c0.4,0.5,1.1,0.7,1.8,0.7c0.5,0,1-0.1,1.5-0.2c0.5-0.2,1-0.4,1.5-0.7l-0.2,1.7c-0.4,0.2-0.9,0.3-1.4,0.5c-0.5,0.1-1.1,0.2-1.7,0.2
		c-1.3,0-2.3-0.4-3.1-1.1c-0.7-0.7-1.1-1.8-1.1-3.2c0-0.9,0.1-1.8,0.4-2.8c0.3-0.9,0.6-1.8,1.1-2.5c0.5-0.8,1.1-1.4,1.7-1.8
		s1.5-0.7,2.3-0.7c1.1,0,2,0.3,2.6,1C234.5,50,234.8,50.9,234.8,52z M233,51.9c0-0.6-0.2-1.2-0.5-1.5c-0.3-0.4-0.8-0.6-1.3-0.6
		c-0.4,0-0.8,0.1-1.2,0.3c-0.4,0.2-0.7,0.5-0.9,0.9c-0.3,0.3-0.5,0.7-0.7,1.2c-0.2,0.4-0.3,0.9-0.4,1.3h4.8c0.1-0.3,0.1-0.6,0.2-0.8
		C233,52.5,233,52.2,233,51.9z"/>
	<path class="st0" d="M245.9,51.1c0,0.2,0,0.5,0,0.7c0,0.3-0.1,0.5-0.1,0.7l-1.6,7.7h-1.9l1.6-7.7c0.1-0.4,0.1-0.7,0.1-1.1
		c0-0.4-0.1-0.7-0.3-1c-0.2-0.3-0.6-0.5-1.2-0.5c-0.4,0-0.7,0.1-1.1,0.3c-0.3,0.2-0.6,0.4-0.9,0.7c-0.3,0.3-0.5,0.6-0.7,1
		c-0.2,0.4-0.3,0.8-0.4,1.2l-1.5,7.2h-1.9l2-9.2c0.1-0.4,0.2-0.9,0.2-1.3c0.1-0.4,0.1-0.8,0.2-1.3h1.9l-0.3,1.7h0
		c0.4-0.7,0.9-1.2,1.4-1.5c0.5-0.3,1.1-0.4,1.9-0.4c0.9,0,1.6,0.3,2,0.8C245.7,49.6,245.9,50.3,245.9,51.1z"/>
	<path class="st0" d="M254.7,50.1h-2.4l-1.5,6.9c0,0.2-0.1,0.3-0.1,0.5c0,0.2,0,0.3,0,0.4c0,0.3,0.1,0.5,0.3,0.6
		c0.2,0.2,0.4,0.2,0.7,0.2c0.2,0,0.4,0,0.6-0.1s0.4-0.1,0.6-0.2l-0.3,1.6c-0.3,0.1-0.5,0.2-0.8,0.2c-0.3,0.1-0.5,0.1-0.8,0.1
		c-0.7,0-1.2-0.2-1.7-0.5c-0.4-0.3-0.6-0.8-0.6-1.5c0-0.2,0-0.3,0-0.5c0-0.2,0-0.3,0.1-0.5l1.5-7.3h-1.9l0.3-1.6h1.9l0.5-2.4l2-0.6
		l-0.6,3h2.4L254.7,50.1z"/>
	<path class="st0" d="M255.4,63h-1.6l1.8-5.3h2.1L255.4,63z"/>
	<path class="st0" d="M14.1,98.2h-2.4l-0.2-13.8h0L5.6,98.2H3.2L3,82.2h2.1l0,13h0l5.5-13h2.6l0.2,13h0l5.5-13h2L14.1,98.2z"/>
	<path class="st0" d="M28.4,89.4c0,0.2,0,0.5-0.1,0.7c0,0.3-0.1,0.5-0.1,0.6l-1,4.9C27.1,96.1,27,96.5,27,97
		c-0.1,0.4-0.2,0.9-0.2,1.3H25l0.2-1.6h0c-0.5,0.6-1,1-1.5,1.3s-1.1,0.4-1.7,0.4c-1,0-1.7-0.3-2.3-0.8c-0.6-0.6-0.9-1.3-0.9-2.3
		c0-1.5,0.5-2.5,1.5-3.2c1-0.7,2.6-1,4.8-1h1.2c0.1-0.3,0.1-0.6,0.2-0.9c0-0.3,0.1-0.5,0.1-0.7c0-0.5-0.2-0.8-0.5-1.2
		s-0.8-0.5-1.4-0.5c-0.6,0-1.2,0.1-1.8,0.3c-0.6,0.2-1.1,0.5-1.6,0.8l0-1.8c0.5-0.3,1.1-0.5,1.6-0.6c0.6-0.2,1.2-0.2,1.9-0.2
		c0.6,0,1.2,0.1,1.6,0.3s0.8,0.4,1.1,0.7c0.3,0.3,0.5,0.6,0.6,1C28.4,88.7,28.4,89.1,28.4,89.4z M23.5,92.6
		c-0.7,0.1-1.2,0.3-1.6,0.5c-0.4,0.2-0.7,0.5-0.8,0.8c-0.2,0.3-0.2,0.7-0.2,1.2c0,0.6,0.2,1,0.5,1.3c0.3,0.3,0.8,0.5,1.2,0.5
		c0.3,0,0.7-0.1,1-0.2c0.3-0.1,0.7-0.3,0.9-0.6c0.3-0.3,0.5-0.6,0.8-1c0.2-0.4,0.4-0.8,0.5-1.3l0.3-1.4C25,92.5,24.2,92.5,23.5,92.6
		z"/>
	<path class="st0" d="M37.2,88.1h-2.4L33.3,95c0,0.2-0.1,0.3-0.1,0.5c0,0.2,0,0.3,0,0.4c0,0.3,0.1,0.5,0.3,0.6
		c0.2,0.2,0.4,0.2,0.7,0.2c0.2,0,0.4,0,0.6-0.1c0.2-0.1,0.4-0.1,0.6-0.2l-0.3,1.6c-0.3,0.1-0.5,0.2-0.8,0.2
		c-0.3,0.1-0.5,0.1-0.8,0.1c-0.7,0-1.2-0.2-1.7-0.5c-0.4-0.3-0.6-0.8-0.6-1.5c0-0.2,0-0.3,0-0.5c0-0.2,0-0.3,0.1-0.5l1.5-7.3H31
		l0.3-1.6h1.9l0.5-2.4l2-0.6l-0.6,3h2.4L37.2,88.1z"/>
	<path class="st0" d="M46.8,90c0,0.5,0,1-0.1,1.5c-0.1,0.5-0.2,1-0.3,1.5h-6.7c-0.1,0.4-0.1,0.8-0.1,1.2c0,0.9,0.2,1.6,0.7,2.1
		c0.4,0.5,1.1,0.7,1.8,0.7c0.5,0,1-0.1,1.5-0.2c0.5-0.2,1-0.4,1.5-0.7l-0.2,1.7c-0.4,0.2-0.9,0.3-1.4,0.5c-0.5,0.1-1.1,0.2-1.7,0.2
		c-1.3,0-2.3-0.4-3.1-1.1c-0.7-0.7-1.1-1.8-1.1-3.2c0-0.9,0.1-1.8,0.4-2.8c0.3-0.9,0.6-1.8,1.1-2.5c0.5-0.8,1.1-1.4,1.7-1.8
		s1.5-0.7,2.3-0.7c1.1,0,2,0.3,2.6,1C46.5,88,46.8,88.9,46.8,90z M45,89.9c0-0.6-0.2-1.2-0.5-1.5c-0.3-0.4-0.8-0.6-1.3-0.6
		c-0.4,0-0.8,0.1-1.2,0.3c-0.4,0.2-0.7,0.5-0.9,0.9c-0.3,0.3-0.5,0.7-0.7,1.2c-0.2,0.4-0.3,0.9-0.4,1.3h4.8c0.1-0.3,0.1-0.6,0.2-0.8
		C45,90.5,45,90.2,45,89.9z"/>
	<path class="st0" d="M55.2,88.3c-0.2,0-0.5-0.1-0.7-0.1c-0.4,0-0.7,0.1-1,0.2c-0.3,0.1-0.7,0.4-1,0.6c-0.3,0.3-0.6,0.7-0.8,1.1
		s-0.4,1-0.6,1.6l-1.4,6.4h-1.9l2-9.2c0.1-0.4,0.2-0.9,0.2-1.3c0.1-0.4,0.1-0.8,0.2-1.3h1.9l-0.3,1.8h0c0.3-0.4,0.5-0.7,0.8-1
		s0.5-0.5,0.7-0.6s0.6-0.3,0.9-0.3c0.4-0.1,0.8-0.1,1.3-0.1L55.2,88.3z"/>
	<path class="st0" d="M70.7,89.4c0,0.2,0,0.5-0.1,0.7c0,0.3-0.1,0.5-0.1,0.6l-1,4.9c-0.1,0.5-0.2,0.9-0.3,1.4
		c-0.1,0.4-0.2,0.9-0.2,1.3h-1.7l0.2-1.6h0c-0.5,0.6-1,1-1.5,1.3s-1.1,0.4-1.7,0.4c-1,0-1.7-0.3-2.3-0.8c-0.6-0.6-0.9-1.3-0.9-2.3
		c0-1.5,0.5-2.5,1.5-3.2c1-0.7,2.6-1,4.8-1h1.2c0.1-0.3,0.1-0.6,0.2-0.9c0-0.3,0.1-0.5,0.1-0.7c0-0.5-0.2-0.8-0.5-1.2
		s-0.8-0.5-1.4-0.5c-0.6,0-1.2,0.1-1.8,0.3c-0.6,0.2-1.1,0.5-1.6,0.8l0-1.8c0.5-0.3,1.1-0.5,1.6-0.6c0.6-0.2,1.2-0.2,1.9-0.2
		c0.6,0,1.2,0.1,1.6,0.3s0.8,0.4,1.1,0.7c0.3,0.3,0.5,0.6,0.6,1C70.7,88.7,70.7,89.1,70.7,89.4z M65.8,92.6
		c-0.7,0.1-1.2,0.3-1.6,0.5c-0.4,0.2-0.7,0.5-0.8,0.8c-0.2,0.3-0.2,0.7-0.2,1.2c0,0.6,0.2,1,0.5,1.3c0.3,0.3,0.8,0.5,1.2,0.5
		c0.3,0,0.7-0.1,1-0.2c0.3-0.1,0.7-0.3,0.9-0.6c0.3-0.3,0.5-0.6,0.8-1c0.2-0.4,0.4-0.8,0.5-1.3l0.3-1.4
		C67.3,92.5,66.5,92.5,65.8,92.6z"/>
	<path class="st0" d="M82.2,89.1c0,0.2,0,0.5,0,0.7c0,0.3-0.1,0.5-0.1,0.7l-1.6,7.7h-1.9l1.6-7.7c0.1-0.4,0.1-0.7,0.1-1.1
		c0-0.4-0.1-0.7-0.3-1S79.3,88,78.7,88c-0.4,0-0.7,0.1-1.1,0.3c-0.3,0.2-0.6,0.4-0.9,0.7c-0.3,0.3-0.5,0.6-0.7,1
		c-0.2,0.4-0.3,0.8-0.4,1.2l-1.5,7.2h-1.9l2-9.2c0.1-0.4,0.2-0.9,0.2-1.3c0.1-0.4,0.1-0.8,0.2-1.3h1.9l-0.3,1.7h0
		c0.4-0.7,0.9-1.2,1.4-1.5c0.5-0.3,1.1-0.4,1.9-0.4c0.9,0,1.6,0.3,2,0.8C82,87.6,82.2,88.3,82.2,89.1z"/>
	<path class="st0" d="M92.6,96.1c-0.2,0.7-0.3,1.4-0.3,2.2h-1.9l0.3-1.7h0c-0.9,1.3-2,1.9-3.2,1.9c-0.6,0-1-0.1-1.4-0.3
		c-0.4-0.2-0.8-0.5-1-0.8s-0.5-0.8-0.6-1.3c-0.1-0.5-0.2-1-0.2-1.6c0-0.9,0.1-1.8,0.4-2.8c0.2-1,0.6-1.8,1.1-2.6s1-1.4,1.7-1.9
		c0.7-0.5,1.4-0.7,2.2-0.7c0.7,0,1.3,0.1,1.8,0.4c0.5,0.3,0.8,0.7,1.1,1.4h0l1.5-7.1h1.9L92.6,96.1z M91.7,90.4
		c0-0.7-0.2-1.2-0.5-1.7c-0.3-0.5-0.8-0.7-1.6-0.7c-0.6,0-1.2,0.2-1.6,0.7c-0.5,0.4-0.8,1-1.1,1.6c-0.3,0.7-0.5,1.4-0.7,2.1
		c-0.1,0.8-0.2,1.4-0.2,2.1c0,0.7,0.2,1.3,0.5,1.7c0.3,0.4,0.8,0.7,1.4,0.7c0.7,0,1.3-0.2,1.8-0.7c0.5-0.4,0.9-1,1.2-1.7
		c0.3-0.7,0.5-1.4,0.7-2.1S91.7,91,91.7,90.4z"/>
	<path class="st0" d="M112.1,98.2h-2.4l-3.3-13.2h0l-2.8,13.2h-1.9l3.4-16.1h2.4l3.3,13.2h0l2.8-13.2h1.9L112.1,98.2z"/>
	<path class="st0" d="M125.4,89.4c0,0.2,0,0.5-0.1,0.7c0,0.3-0.1,0.5-0.1,0.6l-1,4.9c-0.1,0.5-0.2,0.9-0.3,1.4
		c-0.1,0.4-0.2,0.9-0.2,1.3H122l0.2-1.6h0c-0.5,0.6-1,1-1.5,1.3s-1.1,0.4-1.7,0.4c-1,0-1.7-0.3-2.3-0.8c-0.6-0.6-0.9-1.3-0.9-2.3
		c0-1.5,0.5-2.5,1.5-3.2c1-0.7,2.6-1,4.8-1h1.2c0.1-0.3,0.1-0.6,0.2-0.9c0-0.3,0.1-0.5,0.1-0.7c0-0.5-0.2-0.8-0.5-1.2
		s-0.8-0.5-1.4-0.5c-0.6,0-1.2,0.1-1.8,0.3c-0.6,0.2-1.1,0.5-1.6,0.8l0-1.8c0.5-0.3,1.1-0.5,1.6-0.6c0.6-0.2,1.2-0.2,1.9-0.2
		c0.6,0,1.2,0.1,1.6,0.3s0.8,0.4,1.1,0.7c0.3,0.3,0.5,0.6,0.6,1C125.4,88.7,125.4,89.1,125.4,89.4z M120.5,92.6
		c-0.7,0.1-1.2,0.3-1.6,0.5c-0.4,0.2-0.7,0.5-0.8,0.8c-0.2,0.3-0.2,0.7-0.2,1.2c0,0.6,0.2,1,0.5,1.3c0.3,0.3,0.8,0.5,1.2,0.5
		c0.3,0,0.7-0.1,1-0.2c0.3-0.1,0.7-0.3,0.9-0.6c0.3-0.3,0.5-0.6,0.8-1c0.2-0.4,0.4-0.8,0.5-1.3l0.3-1.4
		C122,92.5,121.2,92.5,120.5,92.6z"/>
	<path class="st0" d="M134.2,88.1h-2.4l-1.5,6.9c0,0.2-0.1,0.3-0.1,0.5c0,0.2,0,0.3,0,0.4c0,0.3,0.1,0.5,0.3,0.6
		c0.2,0.2,0.4,0.2,0.7,0.2c0.2,0,0.4,0,0.6-0.1c0.2-0.1,0.4-0.1,0.6-0.2l-0.3,1.6c-0.3,0.1-0.5,0.2-0.8,0.2
		c-0.3,0.1-0.5,0.1-0.8,0.1c-0.7,0-1.2-0.2-1.7-0.5c-0.4-0.3-0.6-0.8-0.6-1.5c0-0.2,0-0.3,0-0.5c0-0.2,0-0.3,0.1-0.5l1.5-7.3H128
		l0.3-1.6h1.9l0.5-2.4l2-0.6l-0.6,3h2.4L134.2,88.1z"/>
	<path class="st0" d="M142.9,95.7c-0.1,0.4-0.2,0.9-0.2,1.3c-0.1,0.4-0.1,0.8-0.2,1.3h-1.9l0.3-1.7h0c-0.4,0.7-0.9,1.2-1.4,1.5
		s-1.1,0.4-1.9,0.4c-0.9,0-1.6-0.3-2-0.8s-0.7-1.2-0.7-1.9c0-0.2,0-0.5,0-0.7c0-0.3,0.1-0.5,0.1-0.7l1.6-7.7h1.9l-1.6,7.7
		c-0.1,0.4-0.1,0.7-0.1,1.1c0,0.4,0.1,0.7,0.3,1s0.6,0.5,1.2,0.5c0.4,0,0.7-0.1,1.1-0.2c0.3-0.2,0.6-0.4,0.9-0.6
		c0.3-0.3,0.5-0.6,0.7-0.9c0.2-0.4,0.3-0.7,0.4-1.1l1.5-7.3h1.9L142.9,95.7z"/>
	<path class="st0" d="M153,88.3c-0.2,0-0.5-0.1-0.7-0.1c-0.4,0-0.7,0.1-1,0.2c-0.3,0.1-0.7,0.4-1,0.6c-0.3,0.3-0.6,0.7-0.8,1.1
		s-0.4,1-0.6,1.6l-1.4,6.4h-1.9l2-9.2c0.1-0.4,0.2-0.9,0.2-1.3s0.1-0.8,0.2-1.3h1.9l-0.3,1.8h0c0.3-0.4,0.5-0.7,0.8-1
		c0.2-0.3,0.5-0.5,0.7-0.6s0.6-0.3,0.9-0.3s0.8-0.1,1.3-0.1L153,88.3z"/>
	<path class="st0" d="M162.6,89.4c0,0.2,0,0.5-0.1,0.7c0,0.3-0.1,0.5-0.1,0.6l-1,4.9c-0.1,0.5-0.2,0.9-0.3,1.4
		c-0.1,0.4-0.2,0.9-0.2,1.3h-1.7l0.2-1.6h0c-0.5,0.6-1,1-1.5,1.3s-1.1,0.4-1.7,0.4c-1,0-1.7-0.3-2.3-0.8s-0.9-1.3-0.9-2.3
		c0-1.5,0.5-2.5,1.5-3.2c1-0.7,2.6-1,4.8-1h1.2c0.1-0.3,0.1-0.6,0.2-0.9c0-0.3,0.1-0.5,0.1-0.7c0-0.5-0.2-0.8-0.5-1.2
		s-0.8-0.5-1.4-0.5c-0.6,0-1.2,0.1-1.8,0.3c-0.6,0.2-1.1,0.5-1.6,0.8l0-1.8c0.5-0.3,1.1-0.5,1.6-0.6c0.6-0.2,1.2-0.2,1.9-0.2
		c0.6,0,1.2,0.1,1.6,0.3c0.5,0.2,0.8,0.4,1.1,0.7c0.3,0.3,0.5,0.6,0.6,1C162.5,88.7,162.6,89.1,162.6,89.4z M157.7,92.6
		c-0.7,0.1-1.2,0.3-1.6,0.5s-0.7,0.5-0.8,0.8c-0.2,0.3-0.2,0.7-0.2,1.2c0,0.6,0.2,1,0.5,1.3c0.3,0.3,0.8,0.5,1.2,0.5
		c0.3,0,0.7-0.1,1-0.2c0.3-0.1,0.7-0.3,0.9-0.6c0.3-0.3,0.5-0.6,0.8-1c0.2-0.4,0.4-0.8,0.5-1.3l0.3-1.4
		C159.2,92.5,158.4,92.5,157.7,92.6z"/>
	<path class="st0" d="M166.2,98.2h-1.9l3.7-17.2h1.9L166.2,98.2z"/>
	<path class="st0" d="M187.1,85.7c0,1.2-0.3,2.3-1,3.1c-0.7,0.8-1.6,1.3-2.8,1.6v0c0.3,0.1,0.6,0.3,0.8,0.6c0.2,0.3,0.3,0.7,0.4,1.2
		l1.1,6.2h-2.1l-0.8-5.2c-0.1-0.8-0.3-1.3-0.6-1.6c-0.3-0.3-0.6-0.4-1.1-0.4h-1.5l-1.5,7.3h-2l3.4-16.1h3.6c0.7,0,1.2,0.1,1.8,0.3
		c0.5,0.2,1,0.4,1.3,0.7c0.4,0.3,0.6,0.7,0.8,1.1C187.1,84.7,187.1,85.2,187.1,85.7z M185,85.9c0-0.6-0.2-1.1-0.7-1.5
		c-0.4-0.3-1-0.5-1.8-0.5h-1.5l-1.2,5.5h1.8c0.5,0,1-0.1,1.4-0.3s0.8-0.4,1.1-0.7c0.3-0.3,0.5-0.7,0.7-1.1S185,86.3,185,85.9z"/>
	<path class="st0" d="M197.7,90c0,0.5,0,1-0.1,1.5c-0.1,0.5-0.2,1-0.3,1.5h-6.7c-0.1,0.4-0.1,0.8-0.1,1.2c0,0.9,0.2,1.6,0.7,2.1
		c0.4,0.5,1.1,0.7,1.8,0.7c0.5,0,1-0.1,1.5-0.2c0.5-0.2,1-0.4,1.5-0.7l-0.2,1.7c-0.4,0.2-0.9,0.3-1.4,0.5c-0.5,0.1-1.1,0.2-1.7,0.2
		c-1.3,0-2.3-0.4-3.1-1.1c-0.7-0.7-1.1-1.8-1.1-3.2c0-0.9,0.1-1.8,0.4-2.8s0.6-1.8,1.1-2.5c0.5-0.8,1.1-1.4,1.7-1.8s1.5-0.7,2.3-0.7
		c1.1,0,2,0.3,2.6,1C197.3,88,197.7,88.9,197.7,90z M195.9,89.9c0-0.6-0.2-1.2-0.5-1.5c-0.3-0.4-0.8-0.6-1.3-0.6
		c-0.4,0-0.8,0.1-1.2,0.3c-0.4,0.2-0.7,0.5-0.9,0.9c-0.3,0.3-0.5,0.7-0.7,1.2c-0.2,0.4-0.3,0.9-0.4,1.3h4.8c0.1-0.3,0.1-0.6,0.2-0.8
		C195.8,90.5,195.9,90.2,195.9,89.9z"/>
	<path class="st0" d="M206.1,88.5c-0.3-0.2-0.6-0.3-1-0.4s-0.7-0.1-1.1-0.1c-0.6,0-1.1,0.2-1.5,0.5c-0.4,0.3-0.6,0.7-0.6,1.2
		c0,0.3,0.1,0.6,0.3,0.9c0.2,0.3,0.5,0.6,1,0.9l1.2,0.8c0.4,0.3,0.7,0.6,0.9,1c0.2,0.4,0.3,0.9,0.3,1.5c0,0.6-0.1,1.1-0.3,1.6
		c-0.2,0.5-0.5,0.8-0.9,1.2s-0.8,0.6-1.4,0.7c-0.5,0.2-1.1,0.3-1.7,0.3c-0.7,0-1.3-0.1-1.9-0.2s-0.9-0.2-1.3-0.4l0.6-1.7
		c0.4,0.2,0.8,0.4,1.2,0.5c0.4,0.1,0.8,0.2,1.4,0.2c0.7,0,1.2-0.2,1.6-0.5c0.4-0.3,0.6-0.8,0.6-1.4c0-0.4-0.1-0.7-0.3-1
		s-0.5-0.6-1-0.9l-1-0.7c-0.4-0.3-0.8-0.7-1-1.1s-0.4-0.9-0.4-1.4c0-0.6,0.1-1.1,0.3-1.6c0.2-0.5,0.5-0.8,0.9-1.1
		c0.4-0.3,0.8-0.5,1.3-0.7s1.1-0.2,1.7-0.2c0.4,0,0.9,0,1.4,0.1c0.5,0.1,0.8,0.2,1.1,0.3L206.1,88.5z"/>
	<path class="st0" d="M218,90.6c0,0.9-0.1,1.7-0.4,2.7c-0.2,0.9-0.6,1.7-1.1,2.5c-0.5,0.8-1.1,1.4-1.8,1.9c-0.7,0.5-1.6,0.7-2.5,0.7
		c-1.3,0-2.3-0.4-3-1.1s-1.1-1.8-1.1-3.2c0-0.8,0.1-1.7,0.4-2.6c0.2-0.9,0.6-1.8,1.1-2.5s1.1-1.4,1.8-1.9c0.7-0.5,1.6-0.7,2.5-0.7
		c1.2,0,2.2,0.4,2.9,1.1C217.6,88.3,218,89.3,218,90.6z M216,90.6c0-0.9-0.2-1.5-0.5-2c-0.4-0.4-0.9-0.7-1.5-0.7
		c-0.7,0-1.2,0.2-1.7,0.6c-0.5,0.4-0.9,0.9-1.2,1.6c-0.3,0.6-0.5,1.3-0.7,2c-0.2,0.7-0.2,1.4-0.2,2.1c0,0.9,0.2,1.5,0.6,2
		c0.4,0.4,0.9,0.7,1.5,0.7c0.7,0,1.2-0.2,1.7-0.6c0.5-0.4,0.9-0.9,1.2-1.6c0.3-0.6,0.5-1.3,0.7-2C215.9,91.9,216,91.2,216,90.6z"/>
	<path class="st0" d="M228,95.7c-0.1,0.4-0.2,0.9-0.2,1.3c-0.1,0.4-0.1,0.8-0.2,1.3h-1.9l0.3-1.7h0c-0.4,0.7-0.9,1.2-1.4,1.5
		s-1.1,0.4-1.9,0.4c-0.9,0-1.6-0.3-2-0.8s-0.7-1.2-0.7-1.9c0-0.2,0-0.5,0-0.7c0-0.3,0.1-0.5,0.1-0.7l1.6-7.7h1.9l-1.6,7.7
		c-0.1,0.4-0.1,0.7-0.1,1.1c0,0.4,0.1,0.7,0.3,1c0.2,0.3,0.6,0.5,1.2,0.5c0.4,0,0.7-0.1,1.1-0.2c0.3-0.2,0.6-0.4,0.9-0.6
		c0.3-0.3,0.5-0.6,0.7-0.9c0.2-0.4,0.3-0.7,0.4-1.1l1.5-7.3h1.9L228,95.7z"/>
	<path class="st0" d="M238.1,88.3c-0.2,0-0.5-0.1-0.7-0.1c-0.4,0-0.7,0.1-1,0.2c-0.3,0.1-0.7,0.4-1,0.6c-0.3,0.3-0.6,0.7-0.8,1.1
		s-0.4,1-0.6,1.6l-1.4,6.4h-1.9l2-9.2c0.1-0.4,0.2-0.9,0.2-1.3s0.1-0.8,0.2-1.3h1.9l-0.3,1.8h0c0.3-0.4,0.5-0.7,0.8-1
		c0.2-0.3,0.5-0.5,0.7-0.6s0.6-0.3,0.9-0.3s0.8-0.1,1.3-0.1L238.1,88.3z"/>
	<path class="st0" d="M246.8,88.6c-0.5-0.4-1.2-0.6-2-0.6c-0.7,0-1.4,0.2-1.9,0.5s-1,0.8-1.3,1.4c-0.4,0.6-0.6,1.2-0.8,1.8
		s-0.3,1.3-0.3,2c0,0.6,0.1,1.1,0.3,1.5s0.4,0.7,0.6,0.9c0.3,0.2,0.5,0.4,0.8,0.5s0.6,0.1,0.9,0.1c0.5,0,0.9-0.1,1.3-0.2
		c0.4-0.1,0.7-0.3,1-0.4l-0.3,1.8c-0.4,0.1-0.7,0.2-1.1,0.3c-0.4,0.1-0.8,0.1-1.2,0.1c-0.6,0-1.2-0.1-1.7-0.3
		c-0.5-0.2-1-0.5-1.4-0.9c-0.4-0.4-0.7-0.8-1-1.4c-0.2-0.6-0.4-1.2-0.4-2c0-0.9,0.1-1.8,0.4-2.7c0.3-0.9,0.7-1.7,1.2-2.4
		s1.2-1.3,2-1.7c0.8-0.5,1.7-0.7,2.7-0.7c0.5,0,1,0,1.4,0.1c0.4,0.1,0.8,0.2,1.1,0.3L246.8,88.6z"/>
	<path class="st0" d="M257.1,90c0,0.5,0,1-0.1,1.5c-0.1,0.5-0.2,1-0.3,1.5H250c-0.1,0.4-0.1,0.8-0.1,1.2c0,0.9,0.2,1.6,0.7,2.1
		c0.4,0.5,1.1,0.7,1.8,0.7c0.5,0,1-0.1,1.5-0.2c0.5-0.2,1-0.4,1.5-0.7l-0.2,1.7c-0.4,0.2-0.9,0.3-1.4,0.5c-0.5,0.1-1.1,0.2-1.7,0.2
		c-1.3,0-2.3-0.4-3.1-1.1c-0.7-0.7-1.1-1.8-1.1-3.2c0-0.9,0.1-1.8,0.4-2.8s0.6-1.8,1.1-2.5c0.5-0.8,1.1-1.4,1.7-1.8s1.5-0.7,2.3-0.7
		c1.1,0,2,0.3,2.6,1C256.7,88,257.1,88.9,257.1,90z M255.3,89.9c0-0.6-0.2-1.2-0.5-1.5c-0.3-0.4-0.8-0.6-1.3-0.6
		c-0.4,0-0.8,0.1-1.2,0.3c-0.4,0.2-0.7,0.5-0.9,0.9c-0.3,0.3-0.5,0.7-0.7,1.2c-0.2,0.4-0.3,0.9-0.4,1.3h4.8c0.1-0.3,0.1-0.6,0.2-0.8
		C255.3,90.5,255.3,90.2,255.3,89.9z"/>
	<path class="st0" d="M265.5,88.5c-0.3-0.2-0.6-0.3-1-0.4s-0.7-0.1-1.1-0.1c-0.6,0-1.1,0.2-1.5,0.5c-0.4,0.3-0.6,0.7-0.6,1.2
		c0,0.3,0.1,0.6,0.3,0.9c0.2,0.3,0.5,0.6,1,0.9l1.2,0.8c0.4,0.3,0.7,0.6,0.9,1c0.2,0.4,0.3,0.9,0.3,1.5c0,0.6-0.1,1.1-0.3,1.6
		c-0.2,0.5-0.5,0.8-0.9,1.2s-0.8,0.6-1.4,0.7c-0.5,0.2-1.1,0.3-1.7,0.3c-0.7,0-1.3-0.1-1.9-0.2s-0.9-0.2-1.3-0.4l0.6-1.7
		c0.4,0.2,0.8,0.4,1.2,0.5c0.4,0.1,0.8,0.2,1.4,0.2c0.7,0,1.2-0.2,1.6-0.5c0.4-0.3,0.6-0.8,0.6-1.4c0-0.4-0.1-0.7-0.3-1
		s-0.5-0.6-1-0.9l-1-0.7c-0.4-0.3-0.8-0.7-1-1.1s-0.4-0.9-0.4-1.4c0-0.6,0.1-1.1,0.3-1.6c0.2-0.5,0.5-0.8,0.9-1.1
		c0.4-0.3,0.8-0.5,1.3-0.7s1.1-0.2,1.7-0.2c0.4,0,0.9,0,1.4,0.1c0.5,0.1,0.8,0.2,1.1,0.3L265.5,88.5z"/>
</g>
</svg>
