<?xml version="1.0" encoding="utf-8"?>
<!-- Generator: Adobe Illustrator 22.0.1, SVG Export Plug-In . SVG Version: 6.00 Build 0)  -->
<svg version="1.1" id="Layer_1" xmlns="http://www.w3.org/2000/svg" xmlns:xlink="http://www.w3.org/1999/xlink" x="0px" y="0px"
	 viewBox="0 0 357.4 60" style="enable-background:new 0 0 357.4 60;" xml:space="preserve">
<style type="text/css">
	.st0{fill:#002856;}
</style>
<title>descriptor</title>
<g>
	<path class="st0" d="M12.3,7.9H8.6l-3,14.3h-2l3-14.3H2.9l0.4-1.7h9.4L12.3,7.9z"/>
	<path class="st0" d="M20.7,13.1c0,0.2,0,0.5,0,0.7s-0.1,0.5-0.1,0.7L19,22.2h-2l1.6-7.7c0.1-0.4,0.1-0.7,0.1-1.1
		c0-0.4-0.1-0.7-0.3-1c-0.2-0.3-0.6-0.5-1.2-0.5c-0.4,0-0.7,0.1-1.1,0.3c-0.3,0.2-0.6,0.4-0.9,0.7c-0.3,0.3-0.5,0.6-0.7,1
		s-0.3,0.8-0.4,1.2l-1.5,7.2h-1.9L14.3,5h1.9l-1.5,7.1l0,0c0.4-0.6,0.9-1,1.4-1.3s1.1-0.4,1.8-0.4c0.9,0,1.6,0.3,2,0.8
		C20.5,11.6,20.7,12.3,20.7,13.1z"/>
	<path class="st0" d="M31.9,14c0,0.5,0,1-0.1,1.5s-0.2,1-0.3,1.5h-6.7c-0.1,0.4-0.1,0.8-0.1,1.2c0,0.9,0.2,1.6,0.7,2.1
		c0.4,0.5,1.1,0.7,1.8,0.7c0.5,0,1-0.1,1.5-0.2c0.5-0.2,1-0.4,1.5-0.7L30,21.7c-0.4,0.2-0.9,0.3-1.4,0.5c-0.5,0.1-1.1,0.2-1.7,0.2
		c-1.3,0-2.3-0.4-3.1-1.1c-0.7-0.7-1.1-1.8-1.1-3.2c0-0.9,0.1-1.8,0.4-2.8c0.3-0.9,0.6-1.8,1.1-2.5c0.5-0.8,1.1-1.4,1.7-1.8
		s1.5-0.7,2.3-0.7c1.1,0,2,0.3,2.6,1C31.6,12,31.9,12.9,31.9,14z M30.1,13.9c0-0.6-0.2-1.2-0.5-1.5c-0.3-0.4-0.8-0.6-1.3-0.6
		c-0.4,0-0.8,0.1-1.2,0.3c-0.4,0.2-0.7,0.5-0.9,0.9c-0.3,0.3-0.5,0.7-0.7,1.2c-0.2,0.4-0.3,0.9-0.4,1.3h4.8c0.1-0.3,0.1-0.6,0.2-0.8
		C30.1,14.5,30.1,14.2,30.1,13.9z"/>
	<path class="st0" d="M46.3,12.5c-0.3-0.2-0.6-0.3-1-0.4C45,12,44.6,12,44.2,12c-0.6,0-1.1,0.2-1.5,0.5s-0.6,0.7-0.6,1.2
		c0,0.3,0.1,0.6,0.3,0.9c0.2,0.3,0.5,0.6,1,0.9l1.2,0.8c0.4,0.3,0.7,0.6,0.9,1s0.3,0.9,0.3,1.5s-0.1,1.1-0.3,1.6s-0.5,0.8-0.9,1.1
		c-0.4,0.3-0.8,0.6-1.4,0.7c-0.5,0.2-1.1,0.3-1.7,0.3c-0.7,0-1.3-0.1-1.9-0.2c-0.5-0.1-0.9-0.2-1.3-0.4l0.6-1.7
		c0.4,0.2,0.8,0.4,1.2,0.5s0.8,0.2,1.4,0.2c0.7,0,1.2-0.2,1.6-0.5c0.4-0.3,0.6-0.8,0.6-1.4c0-0.4-0.1-0.7-0.3-1s-0.5-0.6-1-0.9
		l-1-0.7c-0.4-0.3-0.8-0.7-1-1.1S40,14.4,40,13.9c0-0.6,0.1-1.1,0.3-1.6s0.5-0.8,0.9-1.1s0.8-0.5,1.3-0.7s1.1-0.2,1.7-0.2
		c0.4,0,0.9,0,1.4,0.1s0.8,0.2,1.1,0.3L46.3,12.5z"/>
	<path class="st0" d="M55.2,12.1h-2.4L51.3,19c0,0.2-0.1,0.3-0.1,0.5s0,0.3,0,0.4c0,0.3,0.1,0.5,0.3,0.6c0.2,0.2,0.4,0.2,0.7,0.2
		c0.2,0,0.4,0,0.6-0.1c0.2-0.1,0.4-0.1,0.6-0.2L53.1,22c-0.3,0.1-0.5,0.2-0.8,0.2c-0.3,0.1-0.5,0.1-0.8,0.1c-0.7,0-1.2-0.2-1.7-0.5
		c-0.4-0.3-0.6-0.8-0.6-1.5c0-0.2,0-0.3,0-0.5s0-0.3,0.1-0.5l1.5-7.3h-1.9l0.3-1.6h1.9L51.6,8l2-0.6l-0.6,3h2.4L55.2,12.1z"/>
	<path class="st0" d="M64.8,13.4c0,0.2,0,0.5-0.1,0.7c0,0.3-0.1,0.5-0.1,0.6l-1,4.9c-0.1,0.5-0.2,0.9-0.3,1.4
		c-0.1,0.4-0.2,0.9-0.2,1.3h-1.7l0.2-1.6l0,0c-0.5,0.6-1,1-1.5,1.3s-1.1,0.4-1.7,0.4c-1,0-1.7-0.3-2.3-0.8c-0.6-0.6-0.9-1.3-0.9-2.3
		c0-1.5,0.5-2.5,1.5-3.2c1-0.7,2.6-1,4.8-1h1.2c0.1-0.3,0.1-0.6,0.2-0.9c0-0.3,0.1-0.5,0.1-0.7c0-0.5-0.2-0.8-0.5-1.2
		c-0.3-0.3-0.8-0.5-1.4-0.5c-0.6,0-1.2,0.1-1.8,0.3s-1.1,0.5-1.6,0.8v-1.8c0.5-0.3,1.1-0.5,1.6-0.6c0.6-0.2,1.2-0.2,1.9-0.2
		c0.6,0,1.2,0.1,1.6,0.3s0.8,0.4,1.1,0.7c0.3,0.3,0.5,0.6,0.6,1C64.7,12.7,64.8,13.1,64.8,13.4z M59.8,16.6
		c-0.7,0.1-1.2,0.3-1.6,0.5c-0.4,0.2-0.7,0.5-0.8,0.8c-0.2,0.3-0.2,0.7-0.2,1.2c0,0.6,0.2,1,0.5,1.3s0.8,0.5,1.2,0.5
		c0.3,0,0.7-0.1,1-0.2s0.7-0.3,0.9-0.6c0.3-0.3,0.5-0.6,0.8-1c0.2-0.4,0.4-0.8,0.5-1.3l0.3-1.4C61.4,16.5,60.5,16.5,59.8,16.6z"/>
	<path class="st0" d="M74.8,6.6c-0.3-0.2-0.7-0.3-1.1-0.3c-0.5,0-0.9,0.1-1.1,0.4C72.3,7,72.1,7.5,72,8.1l-0.5,2.5h2.1l-0.3,1.6
		h-2.1l-2.2,10h-2L69.1,12h-1.9l0.3-1.6h1.9L70,7.7c0.2-1,0.6-1.7,1.1-2.3c0.5-0.5,1.3-0.8,2.4-0.8c0.5,0,1,0.1,1.5,0.2L74.8,6.6z"
		/>
	<path class="st0" d="M81.6,6.6c-0.3-0.2-0.7-0.3-1.1-0.3c-0.5,0-0.9,0.1-1.1,0.4C79.2,7,79,7.5,78.8,8.1l-0.5,2.5h2.1l-0.3,1.6H78
		l-2.1,10.2H74l2-10.3h-1.9l0.3-1.6h1.9L77,7.8c0.2-1,0.6-1.7,1.1-2.3c0.5-0.5,1.3-0.8,2.4-0.8c0.5,0,1,0.1,1.5,0.2L81.6,6.6z"/>
	<path class="st0" d="M96,13.1c0,0.2,0,0.5,0,0.7s-0.1,0.5-0.1,0.7l-1.6,7.7h-1.9l1.6-7.7c0.1-0.4,0.1-0.7,0.1-1.1
		c0-0.4-0.1-0.7-0.3-1C93.4,12.2,93,12,92.4,12c-0.4,0-0.7,0.1-1.1,0.3c-0.3,0.2-0.6,0.4-0.9,0.7s-0.5,0.6-0.7,1s-0.3,0.8-0.4,1.2
		l-1.5,7.2h-1.9l2-9.2c0.1-0.4,0.2-0.9,0.2-1.3c0.1-0.4,0.1-0.8,0.2-1.3h1.9l-0.3,1.7l0,0c0.4-0.7,0.9-1.2,1.4-1.5s1.1-0.4,1.9-0.4
		c0.9,0,1.6,0.3,2,0.8C95.7,11.6,96,12.3,96,13.1z"/>
	<path class="st0" d="M107.1,14c0,0.5,0,1-0.1,1.5s-0.2,1-0.3,1.5H100c-0.1,0.4-0.1,0.8-0.1,1.2c0,0.9,0.2,1.6,0.7,2.1
		c0.4,0.5,1.1,0.7,1.8,0.7c0.5,0,1-0.1,1.5-0.2c0.5-0.2,1-0.4,1.5-0.7l-0.2,1.7c-0.4,0.2-0.9,0.3-1.4,0.5c-0.5,0.1-1.1,0.2-1.7,0.2
		c-1.3,0-2.3-0.4-3.1-1.1c-0.7-0.7-1.1-1.8-1.1-3.2c0-0.9,0.1-1.8,0.4-2.8c0.3-0.9,0.6-1.8,1.1-2.5c0.5-0.8,1.1-1.4,1.7-1.8
		s1.5-0.7,2.3-0.7c1.1,0,2,0.3,2.6,1C106.8,12,107.1,12.9,107.1,14z M105.3,13.9c0-0.6-0.2-1.2-0.5-1.5c-0.3-0.4-0.8-0.6-1.3-0.6
		c-0.4,0-0.8,0.1-1.2,0.3c-0.4,0.2-0.7,0.5-0.9,0.9c-0.3,0.3-0.5,0.7-0.7,1.2c-0.2,0.4-0.3,0.9-0.4,1.3h4.8c0.1-0.3,0.1-0.6,0.2-0.8
		C105.3,14.5,105.3,14.2,105.3,13.9z"/>
	<path class="st0" d="M119.3,22.2h-2.2l-0.5-9.9l0,0l-4.2,9.9h-2.3l-0.7-11.7h1.9l0.3,9.8l0,0l4.1-9.8h2.3l0.4,9.8l0,0l4.1-9.8h2
		L119.3,22.2z"/>
	<path class="st0" d="M131.7,12.5c-0.3-0.2-0.6-0.3-1-0.4c-0.3-0.1-0.7-0.1-1.1-0.1c-0.6,0-1.1,0.2-1.5,0.5
		c-0.4,0.3-0.6,0.7-0.6,1.2c0,0.3,0.1,0.6,0.3,0.9c0.2,0.3,0.5,0.6,1,0.9l1.2,0.8c0.4,0.3,0.7,0.6,0.9,1s0.3,0.9,0.3,1.5
		s-0.1,1.1-0.3,1.6s-0.5,0.8-0.9,1.1c-0.4,0.3-0.8,0.6-1.4,0.7c-0.5,0.2-1.1,0.3-1.7,0.3c-0.7,0-1.3-0.1-1.9-0.2
		c-0.5-0.1-0.9-0.2-1.3-0.4l0.6-1.7c0.4,0.2,0.8,0.4,1.2,0.5c0.4,0.1,0.8,0.2,1.4,0.2c0.7,0,1.2-0.2,1.6-0.5s0.6-0.8,0.6-1.4
		c0-0.4-0.1-0.7-0.3-1s-0.5-0.6-1-0.9l-1-0.7c-0.4-0.3-0.8-0.7-1-1.1s-0.4-0.9-0.4-1.4c0-0.6,0.1-1.1,0.3-1.6
		c0.2-0.5,0.5-0.8,0.9-1.1s0.8-0.5,1.3-0.7s1.1-0.2,1.7-0.2c0.4,0,0.9,0,1.4,0.1s0.8,0.2,1.1,0.3L131.7,12.5z"/>
	<path class="st0" d="M135.4,22.2h-1.9L137.1,5h1.9L135.4,22.2z"/>
	<path class="st0" d="M148.5,14c0,0.5,0,1-0.1,1.5s-0.2,1-0.3,1.5h-6.7c-0.1,0.4-0.1,0.8-0.1,1.2c0,0.9,0.2,1.6,0.7,2.1
		c0.4,0.5,1.1,0.7,1.8,0.7c0.5,0,1-0.1,1.5-0.2c0.5-0.2,1-0.4,1.5-0.7l-0.2,1.7c-0.4,0.2-0.9,0.3-1.4,0.5c-0.5,0.1-1.1,0.2-1.7,0.2
		c-1.3,0-2.3-0.4-3.1-1.1c-0.7-0.7-1.1-1.8-1.1-3.2c0-0.9,0.1-1.8,0.4-2.8c0.3-0.9,0.6-1.8,1.1-2.5s1.1-1.4,1.7-1.8s1.5-0.7,2.3-0.7
		c1.1,0,2,0.3,2.6,1C148.2,12,148.5,12.9,148.5,14z M146.7,13.9c0-0.6-0.2-1.2-0.5-1.5c-0.3-0.4-0.8-0.6-1.3-0.6
		c-0.4,0-0.8,0.1-1.2,0.3s-0.7,0.5-0.9,0.9c-0.3,0.3-0.5,0.7-0.7,1.2c-0.2,0.4-0.3,0.9-0.4,1.3h4.8c0.1-0.3,0.1-0.6,0.2-0.8
		C146.7,14.5,146.7,14.2,146.7,13.9z"/>
	<path class="st0" d="M156.9,12.1h-2.4L153,19c0,0.2-0.1,0.3-0.1,0.5s0,0.3,0,0.4c0,0.3,0.1,0.5,0.3,0.6c0.2,0.2,0.4,0.2,0.7,0.2
		c0.2,0,0.4,0,0.6-0.1c0.2-0.1,0.4-0.1,0.6-0.2l-0.3,1.6c-0.3,0.1-0.5,0.2-0.8,0.2c-0.3,0.1-0.5,0.1-0.8,0.1c-0.7,0-1.2-0.2-1.7-0.5
		c-0.4-0.3-0.6-0.8-0.6-1.5c0-0.2,0-0.3,0-0.5s0-0.3,0.1-0.5l1.5-7.3h-1.9l0.3-1.6h1.9l0.5-2.4l2-0.6l-0.6,3h2.4L156.9,12.1z"/>
	<path class="st0" d="M164.1,12.1h-2.4l-1.5,6.9c0,0.2-0.1,0.3-0.1,0.5s0,0.3,0,0.4c0,0.3,0.1,0.5,0.3,0.6c0.2,0.2,0.4,0.2,0.7,0.2
		c0.2,0,0.4,0,0.6-0.1c0.2-0.1,0.4-0.1,0.6-0.2L162,22c-0.3,0.1-0.5,0.2-0.8,0.2c-0.3,0.1-0.5,0.1-0.8,0.1c-0.7,0-1.2-0.2-1.7-0.5
		c-0.4-0.3-0.6-0.8-0.6-1.5c0-0.2,0-0.3,0-0.5s0-0.3,0.1-0.5l1.5-7.3h-1.9l0.3-1.6h1.9l0.5-2.4l2-0.6l-0.6,3h2.4L164.1,12.1z"/>
	<path class="st0" d="M173.7,14c0,0.5,0,1-0.1,1.5s-0.2,1-0.3,1.5h-6.7c-0.1,0.4-0.1,0.8-0.1,1.2c0,0.9,0.2,1.6,0.7,2.1
		c0.4,0.5,1.1,0.7,1.8,0.7c0.5,0,1-0.1,1.5-0.2c0.5-0.2,1-0.4,1.5-0.7l-0.2,1.7c-0.4,0.2-0.9,0.3-1.4,0.5c-0.5,0.1-1.1,0.2-1.7,0.2
		c-1.3,0-2.3-0.4-3.1-1.1c-0.7-0.7-1.1-1.8-1.1-3.2c0-0.9,0.1-1.8,0.4-2.8s0.6-1.8,1.1-2.5c0.5-0.8,1.1-1.4,1.7-1.8s1.5-0.7,2.3-0.7
		c1.1,0,2,0.3,2.6,1C173.4,12,173.7,12.9,173.7,14z M171.9,13.9c0-0.6-0.2-1.2-0.5-1.5c-0.3-0.4-0.8-0.6-1.3-0.6
		c-0.4,0-0.8,0.1-1.2,0.3s-0.7,0.5-0.9,0.9c-0.3,0.3-0.5,0.7-0.7,1.2c-0.2,0.4-0.3,0.9-0.4,1.3h4.8c0.1-0.3,0.1-0.6,0.2-0.8
		C171.9,14.5,171.9,14.2,171.9,13.9z"/>
	<path class="st0" d="M182.1,12.3c-0.2,0-0.5-0.1-0.7-0.1c-0.4,0-0.7,0.1-1,0.2c-0.3,0.1-0.7,0.4-1,0.6c-0.3,0.3-0.6,0.7-0.8,1.1
		c-0.2,0.5-0.4,1-0.6,1.6l-1.4,6.4h-1.9l2-9.2c0.1-0.4,0.2-0.9,0.2-1.3c0.1-0.4,0.1-0.8,0.2-1.3h1.9l-0.3,1.8l0,0
		c0.3-0.4,0.5-0.7,0.8-1c0.2-0.3,0.5-0.5,0.7-0.6s0.6-0.3,0.9-0.3s0.8-0.1,1.3-0.1L182.1,12.3z"/>
	<path class="st0" d="M208.4,6.6c-0.3-0.2-0.7-0.3-1.1-0.3c-0.5,0-0.9,0.1-1.1,0.4c-0.3,0.3-0.5,0.7-0.6,1.3l-0.5,2.5h2.1l-0.3,1.6
		h-2.1l-2.1,10.2h-1.9l2.1-10.2H201l0.3-1.6h1.9l0.6-2.7c0.2-1,0.6-1.7,1.1-2.3c0.5-0.5,1.3-0.8,2.4-0.8c0.5,0,1,0.1,1.5,0.2
		L208.4,6.6z"/>
	<path class="st0" d="M198.9,14.6c0,0.9-0.1,1.7-0.4,2.7c-0.2,0.9-0.6,1.7-1.1,2.5s-1.1,1.4-1.8,1.9s-1.6,0.7-2.5,0.7
		c-1.3,0-2.3-0.4-3-1.1s-1.1-1.8-1.1-3.2c0-0.8,0.1-1.7,0.4-2.6c0.2-0.9,0.6-1.8,1.1-2.5c0.5-0.8,1.1-1.4,1.8-1.9s1.6-0.7,2.5-0.7
		c1.2,0,2.2,0.4,2.9,1.1C198.5,12.3,198.9,13.3,198.9,14.6z M196.9,14.6c0-0.9-0.2-1.5-0.5-2c-0.4-0.4-0.9-0.7-1.5-0.7
		c-0.7,0-1.2,0.2-1.7,0.6c-0.5,0.4-0.9,0.9-1.2,1.6c-0.3,0.6-0.5,1.3-0.7,2c-0.2,0.7-0.2,1.4-0.2,2.1c0,0.9,0.2,1.5,0.6,2
		c0.4,0.4,0.9,0.7,1.5,0.7c0.7,0,1.2-0.2,1.7-0.6s0.9-0.9,1.2-1.6c0.3-0.6,0.5-1.3,0.7-2C196.8,15.9,196.9,15.2,196.9,14.6z"/>
	<path class="st0" d="M200,22.1"/>
	<path class="st0" d="M11,34c-0.3-0.2-0.7-0.3-1.1-0.3c-0.5,0-0.9,0.1-1.1,0.4c-0.3,0.3-0.5,0.7-0.6,1.3l-0.5,2.5h2.1l-0.3,1.6H7.4
		L5.3,49.7H3.4l2.1-10.2H3.6l0.3-1.6h1.9l0.6-2.7c0.2-1,0.6-1.7,1.1-2.3c0.5-0.5,1.3-0.8,2.4-0.8c0.5,0,1,0.1,1.5,0.2L11,34z"/>
	<path class="st0" d="M19.6,42c0,0.9-0.1,1.7-0.4,2.7c-0.2,0.9-0.6,1.7-1.1,2.5s-1.1,1.4-1.8,1.9c-0.7,0.5-1.6,0.7-2.5,0.7
		c-1.3,0-2.3-0.4-3-1.1s-1.1-1.8-1.1-3.2c0-0.8,0.1-1.7,0.4-2.6c0.2-0.9,0.6-1.8,1.1-2.5c0.5-0.8,1.1-1.4,1.8-1.9s1.6-0.7,2.5-0.7
		c1.2,0,2.2,0.4,2.9,1.1C19.2,39.7,19.6,40.7,19.6,42z M17.6,42c0-0.9-0.2-1.5-0.5-2c-0.4-0.4-0.9-0.7-1.5-0.7
		c-0.7,0-1.2,0.2-1.7,0.6c-0.5,0.4-0.9,0.9-1.2,1.6c-0.3,0.6-0.5,1.3-0.7,2s-0.2,1.4-0.2,2.1c0,0.9,0.2,1.5,0.6,2
		c0.4,0.4,0.9,0.7,1.5,0.7c0.7,0,1.2-0.2,1.7-0.6c0.5-0.4,0.9-0.9,1.2-1.6c0.3-0.6,0.5-1.3,0.7-2C17.5,43.3,17.6,42.6,17.6,42z"/>
	<path class="st0" d="M28.1,39.7c-0.2,0-0.5-0.1-0.7-0.1c-0.4,0-0.7,0.1-1,0.2s-0.7,0.4-1,0.6c-0.3,0.3-0.6,0.7-0.8,1.1
		c-0.2,0.5-0.4,1-0.6,1.6l-1.4,6.4h-1.9l2-9.2c0.1-0.4,0.2-0.9,0.2-1.3c0.1-0.4,0.1-0.8,0.2-1.3H25l-0.3,1.8l0,0
		c0.3-0.4,0.5-0.7,0.8-1c0.2-0.3,0.5-0.5,0.7-0.6c0.2-0.1,0.6-0.3,0.9-0.3s0.8-0.1,1.3-0.1L28.1,39.7z"/>
	<path class="st0" d="M220.1,12.1h-2.4l-1.5,6.9c0,0.2-0.1,0.3-0.1,0.5s0,0.3,0,0.4c0,0.3,0.1,0.5,0.3,0.6c0.2,0.2,0.4,0.2,0.7,0.2
		c0.2,0,0.4,0,0.6-0.1c0.2-0.1,0.4-0.1,0.6-0.2L218,22c-0.3,0.1-0.5,0.2-0.8,0.2c-0.3,0.1-0.5,0.1-0.8,0.1c-0.7,0-1.2-0.2-1.7-0.5
		c-0.4-0.3-0.6-0.8-0.6-1.5c0-0.2,0-0.3,0-0.5s0-0.3,0.1-0.5l1.5-7.3h-1.9l0.3-1.6h1.9l0.5-2.4l2-0.6l-0.6,3h2.4L220.1,12.1z"/>
	<path class="st0" d="M230.1,13.1c0,0.2,0,0.5,0,0.7c0,0.3-0.1,0.5-0.1,0.7l-1.6,7.7h-1.9l1.6-7.7c0.1-0.4,0.1-0.7,0.1-1.1
		c0-0.4-0.1-0.7-0.3-1s-0.6-0.5-1.2-0.5c-0.4,0-0.7,0.1-1.1,0.3c-0.3,0.2-0.6,0.4-0.9,0.7c-0.3,0.3-0.5,0.6-0.7,1s-0.3,0.8-0.4,1.2
		l-1.5,7.2h-1.9L223.7,5h1.9l-1.5,7.1l0,0c0.4-0.6,0.9-1,1.4-1.3s1.1-0.4,1.8-0.4c0.9,0,1.6,0.3,2,0.8
		C229.9,11.6,230.1,12.3,230.1,13.1z"/>
	<path class="st0" d="M241.2,14c0,0.5,0,1-0.1,1.5s-0.2,1-0.3,1.5h-6.7c-0.1,0.4-0.1,0.8-0.1,1.2c0,0.9,0.2,1.6,0.7,2.1
		c0.4,0.5,1.1,0.7,1.8,0.7c0.5,0,1-0.1,1.5-0.2c0.5-0.2,1-0.4,1.5-0.7l-0.2,1.7c-0.4,0.2-0.9,0.3-1.4,0.5c-0.5,0.1-1.1,0.2-1.7,0.2
		c-1.3,0-2.3-0.4-3.1-1.1c-0.7-0.7-1.1-1.8-1.1-3.2c0-0.9,0.1-1.8,0.4-2.8s0.6-1.8,1.1-2.5c0.5-0.8,1.1-1.4,1.7-1.8s1.5-0.7,2.3-0.7
		c1.1,0,2,0.3,2.6,1C240.9,12,241.2,12.9,241.2,14z M239.4,13.9c0-0.6-0.2-1.2-0.5-1.5c-0.3-0.4-0.8-0.6-1.3-0.6
		c-0.4,0-0.8,0.1-1.2,0.3s-0.7,0.5-0.9,0.9c-0.3,0.3-0.5,0.7-0.7,1.2c-0.2,0.4-0.3,0.9-0.4,1.3h4.8c0.1-0.3,0.1-0.6,0.2-0.8
		C239.4,14.5,239.4,14.2,239.4,13.9z"/>
	<path class="st0" d="M259.6,11.8c0,1.4-0.2,2.7-0.5,3.9c-0.4,1.2-0.9,2.3-1.6,3.3s-1.6,1.7-2.7,2.2c-1.1,0.6-2.3,0.8-3.7,0.8h-4.2
		l3.4-16.1h3.1c2.1,0,3.7,0.5,4.7,1.5C259.1,8.5,259.6,10,259.6,11.8z M257.5,11.9c0-0.5-0.1-1-0.2-1.5s-0.4-0.9-0.7-1.3
		c-0.3-0.4-0.8-0.7-1.3-0.9c-0.6-0.2-1.2-0.4-2.1-0.4h-1.3l-2.6,12.5h1.7c1.1,0,2.1-0.2,2.9-0.7s1.5-1.1,2-1.8
		c0.5-0.8,0.9-1.7,1.2-2.7C257.3,14.1,257.5,13,257.5,11.9z"/>
	<path class="st0" d="M270.1,13.8c0,0.5,0,1-0.1,1.5s-0.2,1-0.3,1.5H263c-0.1,0.3-0.1,0.7-0.1,1.1c0,0.9,0.2,1.6,0.7,2.1
		c0.4,0.5,1.1,0.7,1.8,0.7c0.5,0,1-0.1,1.5-0.2c0.5-0.2,1-0.4,1.5-0.7l-0.2,1.7c-0.4,0.2-0.9,0.3-1.4,0.5c-0.5,0.1-1.1,0.2-1.7,0.2
		c-1.3,0-2.3-0.4-3.1-1.1c-0.7-0.7-1.1-1.8-1.1-3.2c0-0.9,0.1-1.8,0.4-2.8c0.3-0.9,0.6-1.8,1.1-2.5c0.5-0.8,1.1-1.4,1.7-1.8
		c0.6-0.4,1.5-0.7,2.3-0.7c1.1,0,2,0.3,2.6,1C269.8,11.8,270.1,12.7,270.1,13.8z M268.3,13.7c0-0.6-0.2-1.2-0.5-1.5
		c-0.3-0.4-0.8-0.6-1.3-0.6c-0.4,0-0.8,0.1-1.2,0.3s-0.7,0.5-0.9,0.9c-0.3,0.3-0.5,0.7-0.7,1.2c-0.2,0.4-0.3,0.9-0.4,1.3h4.8
		c0.1-0.3,0.1-0.6,0.2-0.8C268.3,14.3,268.3,14,268.3,13.7z"/>
	<path class="st0" d="M281.4,14.2c0,0.9-0.1,1.8-0.4,2.8c-0.2,1-0.6,1.8-1.1,2.6s-1,1.4-1.7,1.9s-1.4,0.7-2.2,0.7
		c-1.4,0-2.4-0.6-2.9-1.8l0,0l-1.4,6.6h-1.9l3.1-14.5c0.1-0.4,0.1-0.7,0.2-1.1c0.1-0.4,0.1-0.7,0.2-1.1h1.9l-0.3,1.7l0,0
		c0.5-0.7,0.9-1.2,1.4-1.5s1.1-0.4,1.8-0.4c0.6,0,1,0.1,1.4,0.3s0.8,0.5,1,0.8c0.3,0.4,0.5,0.8,0.6,1.3
		C281.3,13,281.4,13.6,281.4,14.2z M279.4,14.1c0-0.7-0.2-1.3-0.5-1.7s-0.8-0.7-1.4-0.7c-0.7,0-1.3,0.2-1.8,0.7
		c-0.5,0.4-0.9,1-1.2,1.7c-0.3,0.7-0.5,1.4-0.7,2.1c-0.1,0.8-0.2,1.4-0.2,2c0,0.7,0.2,1.2,0.5,1.7s0.8,0.7,1.6,0.7
		c0.6,0,1.2-0.2,1.6-0.7c0.5-0.4,0.8-1,1.1-1.6c0.3-0.7,0.5-1.4,0.7-2.1C279.3,15.5,279.4,14.8,279.4,14.1z"/>
	<path class="st0" d="M292.3,13.2c0,0.2,0,0.5-0.1,0.7c0,0.3-0.1,0.5-0.1,0.6l-1,4.9c-0.1,0.5-0.2,0.9-0.3,1.4
		c-0.1,0.4-0.2,0.9-0.2,1.3h-1.7l0.2-1.6l0,0c-0.5,0.6-1,1-1.5,1.3s-1.1,0.4-1.7,0.4c-1,0-1.7-0.3-2.3-0.8c-0.6-0.6-0.9-1.3-0.9-2.3
		c0-1.5,0.5-2.5,1.5-3.2c1-0.7,2.6-1,4.8-1h1.2c0.1-0.3,0.1-0.6,0.2-0.9c0-0.3,0.1-0.5,0.1-0.7c0-0.5-0.2-0.8-0.5-1.2
		c-0.3-0.3-0.8-0.5-1.4-0.5s-1.2,0.1-1.8,0.3s-1.1,0.5-1.6,0.8v-1.8c0.5-0.3,1.1-0.5,1.6-0.6c0.6-0.2,1.2-0.2,1.9-0.2
		c0.6,0,1.2,0.1,1.6,0.3s0.8,0.4,1.1,0.7s0.5,0.6,0.6,1C292.2,12.5,292.3,12.9,292.3,13.2z M287.3,16.4c-0.7,0.1-1.2,0.3-1.6,0.5
		s-0.7,0.5-0.8,0.8c-0.2,0.3-0.2,0.7-0.2,1.2c0,0.6,0.2,1,0.5,1.3s0.8,0.5,1.2,0.5c0.3,0,0.7-0.1,1-0.2s0.7-0.3,0.9-0.6
		c0.3-0.3,0.5-0.6,0.8-1c0.2-0.4,0.4-0.8,0.5-1.3l0.3-1.4C288.9,16.3,288,16.3,287.3,16.4z"/>
	<path class="st0" d="M301.1,12.1c-0.2,0-0.5-0.1-0.7-0.1c-0.4,0-0.7,0.1-1,0.2c-0.3,0.1-0.7,0.4-1,0.6c-0.3,0.3-0.6,0.7-0.8,1.1
		c-0.2,0.5-0.4,1-0.6,1.6l-1.4,6.4h-1.9l2-9.2c0.1-0.4,0.2-0.9,0.2-1.3c0.1-0.4,0.1-0.8,0.2-1.3h1.9l-0.3,1.8l0,0
		c0.3-0.4,0.5-0.7,0.8-1s0.5-0.5,0.7-0.6s0.6-0.3,0.9-0.3c0.4-0.1,0.8-0.1,1.3-0.1L301.1,12.1z"/>
	<path class="st0" d="M308.3,11.9h-2.4l-1.5,6.9c0,0.2-0.1,0.3-0.1,0.5s0,0.3,0,0.4c0,0.3,0.1,0.5,0.3,0.6c0.2,0.2,0.4,0.2,0.7,0.2
		c0.2,0,0.4,0,0.6-0.1s0.4-0.1,0.6-0.2l-0.3,1.6c-0.3,0.1-0.5,0.2-0.8,0.2c-0.3,0.1-0.5,0.1-0.8,0.1c-0.7,0-1.2-0.2-1.7-0.5
		c-0.4-0.3-0.6-0.8-0.6-1.5c0-0.2,0-0.3,0-0.5s0-0.3,0.1-0.5l1.5-7.3H302l0.3-1.6h1.9l0.5-2.4l2-0.6l-0.6,3h2.4L308.3,11.9z"/>
	<path class="st0" d="M323.8,12.9c0,0.2,0,0.5,0,0.7s-0.1,0.5-0.1,0.7l-1.6,7.7h-1.9l1.6-7.7c0.1-0.4,0.1-0.7,0.1-1.1
		c0-0.2,0-0.4,0-0.5c0-0.2-0.1-0.3-0.2-0.5c-0.1-0.1-0.3-0.3-0.4-0.3c-0.2-0.1-0.4-0.1-0.7-0.1c-0.3,0-0.6,0.1-0.9,0.3
		s-0.6,0.4-0.8,0.7c-0.3,0.3-0.5,0.6-0.7,1s-0.3,0.8-0.4,1.2l-1.5,7.2h-1.9l1.6-7.7c0.1-0.4,0.1-0.7,0.1-1.1c0-0.2,0-0.4,0-0.5
		s-0.1-0.3-0.2-0.5c-0.1-0.1-0.3-0.3-0.4-0.3c-0.2-0.1-0.4-0.1-0.7-0.1c-0.3,0-0.6,0.1-0.9,0.2c-0.3,0.2-0.6,0.4-0.8,0.7
		c-0.3,0.3-0.5,0.6-0.7,1s-0.3,0.8-0.4,1.2l-1.5,7.1h-1.9l2-9.2c0.1-0.4,0.2-0.9,0.2-1.3c0.1-0.4,0.1-0.8,0.2-1.3h1.9l-0.3,1.7l0,0
		c0.4-0.7,0.9-1.2,1.4-1.5s1.1-0.4,1.7-0.4s1.1,0.2,1.6,0.5c0.4,0.3,0.7,0.8,0.9,1.4l0,0c0.4-0.7,0.9-1.2,1.4-1.5s1.1-0.4,1.7-0.4
		c0.9,0,1.6,0.3,2,0.8C323.6,11.4,323.8,12.1,323.8,12.9z"/>
	<path class="st0" d="M335,13.8c0,0.5,0,1-0.1,1.5s-0.2,1-0.3,1.5h-6.7c-0.1,0.4-0.1,0.8-0.1,1.2c0,0.9,0.2,1.6,0.7,2.1
		c0.4,0.5,1.1,0.7,1.8,0.7c0.5,0,1-0.1,1.5-0.2c0.5-0.2,1-0.4,1.5-0.7l-0.2,1.7c-0.4,0.2-0.9,0.3-1.4,0.5c-0.5,0.1-1.1,0.2-1.7,0.2
		c-1.3,0-2.3-0.4-3.1-1.1c-0.7-0.7-1.1-1.8-1.1-3.2c0-0.9,0.1-1.8,0.4-2.8c0.3-0.9,0.6-1.8,1.1-2.5c0.5-0.8,1.1-1.4,1.7-1.8
		s1.5-0.7,2.3-0.7c1.1,0,2,0.3,2.6,1C334.7,11.8,335,12.7,335,13.8z M333.2,13.7c0-0.6-0.2-1.2-0.5-1.5c-0.3-0.4-0.8-0.6-1.3-0.6
		c-0.4,0-0.8,0.1-1.2,0.3c-0.4,0.2-0.7,0.5-0.9,0.9c-0.3,0.3-0.5,0.7-0.7,1.2c-0.2,0.4-0.3,0.9-0.4,1.3h4.8c0.1-0.3,0.1-0.6,0.2-0.8
		C333.2,14.3,333.2,14,333.2,13.7z"/>
	<path class="st0" d="M346.1,12.9c0,0.2,0,0.5,0,0.7s-0.1,0.5-0.1,0.7l-1.6,7.7h-1.9l1.6-7.7c0.1-0.4,0.1-0.7,0.1-1.1
		c0-0.4-0.1-0.7-0.3-1s-0.6-0.5-1.2-0.5c-0.4,0-0.7,0.1-1.1,0.3c-0.3,0.2-0.6,0.4-0.9,0.7s-0.5,0.6-0.7,1s-0.3,0.8-0.4,1.2l-1.7,7.1
		H336l2-9.2c0.1-0.4,0.2-0.9,0.2-1.3c0.1-0.4,0.1-0.8,0.2-1.3h1.9l-0.4,1.9l0,0c0.4-0.7,0.9-1.2,1.4-1.5s1.1-0.4,1.9-0.4
		c0.9,0,1.6,0.3,2,0.8C345.8,11.4,346.1,12.1,346.1,12.9z"/>
	<path class="st0" d="M354.8,11.9h-2.4l-1.5,6.9c0,0.2-0.1,0.3-0.1,0.5s0,0.3,0,0.4c0,0.3,0.1,0.5,0.3,0.6c0.2,0.2,0.4,0.2,0.7,0.2
		c0.2,0,0.4,0,0.6-0.1s0.4-0.1,0.6-0.2l-0.3,1.6c-0.3,0.1-0.5,0.2-0.8,0.2c-0.3,0.1-0.5,0.1-0.8,0.1c-0.7,0-1.2-0.2-1.7-0.5
		c-0.4-0.3-0.6-0.8-0.6-1.5c0-0.2,0-0.3,0-0.5s0-0.3,0.1-0.5l1.5-7.3h-1.9l0.3-1.6h1.9l0.5-2.4l2-0.6l-0.6,3h2.4L354.8,11.9z"/>
	<path class="st0" d="M45.2,35.9h-5.5L38.6,41h5.2l-0.4,1.7h-5.2L37,48.4h5.8l-0.4,1.7h-7.8L38,34h7.5L45.2,35.9z"/>
	<path class="st0" d="M55.5,41.1c0,0.2,0,0.5,0,0.7c0,0.3-0.1,0.5-0.1,0.7l-1.6,7.7h-1.9l1.6-7.7c0.1-0.4,0.1-0.7,0.1-1.1
		c0-0.4-0.1-0.7-0.3-1c-0.2-0.3-0.6-0.5-1.2-0.5c-0.4,0-0.7,0.1-1.1,0.3c-0.3,0.2-0.6,0.4-0.9,0.7s-0.5,0.6-0.7,1s-0.3,0.8-0.4,1.2
		l-1.5,7.2h-1.9l2-9.2c0.1-0.4,0.2-0.9,0.2-1.3c0.1-0.4,0.1-0.8,0.2-1.3h1.9l-0.3,1.7l0,0c0.4-0.7,0.9-1.2,1.4-1.5s1.1-0.4,1.9-0.4
		c0.9,0,1.6,0.3,2,0.8S55.5,40.3,55.5,41.1z"/>
	<path class="st0" d="M61.7,50.2h-2.3l-1.2-11.7h2l0.7,9.8l0,0l4.5-9.8h2.1L61.7,50.2z"/>
	<path class="st0" d="M69.4,50.2h-1.9L70,38.5h1.9L69.4,50.2z M72.4,36h-2.1l0.5-2.3h2.1L72.4,36z"/>
	<path class="st0" d="M80.2,40.3c-0.2,0-0.5-0.1-0.7-0.1c-0.4,0-0.7,0.1-1,0.2c-0.3,0.1-0.7,0.4-1,0.6c-0.3,0.3-0.6,0.7-0.8,1.1
		c-0.2,0.5-0.4,1-0.6,1.6l-1.4,6.4h-1.9l2-9.2c0.1-0.4,0.2-0.9,0.2-1.3c0.1-0.4,0.1-0.8,0.2-1.3h1.9l-0.3,1.8l0,0
		c0.3-0.4,0.5-0.7,0.8-1c0.2-0.3,0.5-0.5,0.7-0.6c0.2-0.1,0.6-0.3,0.9-0.3s0.8-0.1,1.3-0.1L80.2,40.3z"/>
	<path class="st0" d="M90.4,42.6c0,0.9-0.1,1.7-0.4,2.7c-0.2,0.9-0.6,1.7-1.1,2.5s-1.1,1.4-1.8,1.9c-0.7,0.5-1.6,0.7-2.5,0.7
		c-1.3,0-2.3-0.4-3-1.1c-0.7-0.7-1.1-1.8-1.1-3.2c0-0.8,0.1-1.7,0.4-2.6c0.2-0.9,0.6-1.8,1.1-2.5c0.5-0.8,1.1-1.4,1.8-1.9
		c0.7-0.5,1.6-0.7,2.5-0.7c1.2,0,2.2,0.4,2.9,1.1C90.1,40.3,90.4,41.3,90.4,42.6z M88.4,42.6c0-0.9-0.2-1.5-0.5-2
		c-0.4-0.4-0.9-0.7-1.5-0.7c-0.7,0-1.2,0.2-1.7,0.6c-0.5,0.4-0.9,0.9-1.2,1.6c-0.3,0.6-0.5,1.3-0.7,2c-0.2,0.7-0.2,1.4-0.2,2.1
		c0,0.9,0.2,1.5,0.6,2c0.4,0.4,0.9,0.7,1.5,0.7c0.7,0,1.2-0.2,1.7-0.6c0.5-0.4,0.9-0.9,1.2-1.6c0.3-0.6,0.5-1.3,0.7-2
		C88.4,43.9,88.4,43.2,88.4,42.6z"/>
	<path class="st0" d="M101.7,41.1c0,0.2,0,0.5,0,0.7c0,0.3-0.1,0.5-0.1,0.7l-1.6,7.7h-1.9l1.6-7.7c0.1-0.4,0.1-0.7,0.1-1.1
		c0-0.4-0.1-0.7-0.3-1s-0.6-0.5-1.2-0.5c-0.4,0-0.7,0.1-1.1,0.3c-0.3,0.2-0.6,0.4-0.9,0.7s-0.5,0.6-0.7,1c-0.2,0.4-0.3,0.8-0.4,1.2
		l-1.5,7.2h-1.9l2-9.2c0.1-0.4,0.2-0.9,0.2-1.3c0.1-0.4,0.1-0.8,0.2-1.3h1.9l-0.3,1.7l0,0c0.4-0.7,0.9-1.2,1.4-1.5s1.1-0.4,1.9-0.4
		c0.9,0,1.6,0.3,2,0.8C101.5,39.6,101.7,40.3,101.7,41.1z"/>
	<path class="st0" d="M118.8,41.1c0,0.2,0,0.5,0,0.7c0,0.3-0.1,0.5-0.1,0.7l-1.6,7.7h-2l1.6-7.7c0.1-0.4,0.1-0.7,0.1-1.1
		c0-0.2,0-0.4,0-0.5c0-0.2-0.1-0.3-0.2-0.5c-0.1-0.1-0.3-0.3-0.4-0.3c-0.2-0.1-0.4-0.1-0.7-0.1s-0.6,0.1-0.9,0.3s-0.6,0.4-0.8,0.7
		c-0.3,0.3-0.5,0.6-0.7,1s-0.3,0.8-0.4,1.2l-1.5,7.2h-2.1l1.6-7.7c0.1-0.4,0.1-0.7,0.1-1.1c0-0.2,0-0.4,0-0.5c0-0.2-0.1-0.3-0.2-0.5
		c-0.1-0.1-0.3-0.3-0.4-0.3c-0.2-0.1-0.4-0.1-0.7-0.1s-0.6,0.1-0.9,0.2c-0.3,0.2-0.6,0.4-0.8,0.7s-0.5,0.6-0.7,1s-0.3,0.8-0.4,1.2
		l-1.5,7.1h-1.9l2-9.2c0.1-0.4,0.2-0.9,0.2-1.3s0.1-0.8,0.2-1.3h1.9l-0.3,1.7l0,0c0.4-0.7,0.9-1.2,1.4-1.5s1.1-0.4,1.7-0.4
		s1.1,0.2,1.6,0.5c0.4,0.3,0.7,0.8,0.9,1.4l0,0c0.4-0.7,0.9-1.2,1.4-1.5s1.1-0.4,1.7-0.4c0.9,0,1.6,0.3,2,0.8
		C118.6,39.6,118.8,40.3,118.8,41.1z"/>
	<path class="st0" d="M129.9,42c0,0.5,0,1-0.1,1.5c-0.1,0.5-0.2,1-0.3,1.5h-6.7c-0.1,0.4-0.1,0.8-0.1,1.2c0,0.9,0.2,1.6,0.7,2.1
		c0.4,0.5,1.1,0.7,1.8,0.7c0.5,0,1-0.1,1.5-0.2c0.5-0.2,1-0.4,1.5-0.7l-0.2,1.7c-0.4,0.2-0.9,0.3-1.4,0.5c-0.5,0.1-1.1,0.2-1.7,0.2
		c-1.3,0-2.3-0.4-3.1-1.1c-0.7-0.7-1.1-1.8-1.1-3.2c0-0.9,0.1-1.8,0.4-2.8c0.3-0.9,0.6-1.8,1.1-2.5c0.5-0.8,1.1-1.4,1.7-1.8
		s1.5-0.7,2.3-0.7c1.1,0,2,0.3,2.6,1C129.6,40,129.9,40.9,129.9,42z M128.1,41.9c0-0.6-0.2-1.2-0.5-1.5c-0.3-0.4-0.8-0.6-1.3-0.6
		c-0.4,0-0.8,0.1-1.2,0.3s-0.7,0.5-0.9,0.9c-0.3,0.3-0.5,0.7-0.7,1.2c-0.2,0.4-0.3,0.9-0.4,1.3h4.8c0.1-0.3,0.1-0.6,0.2-0.8
		C128.1,42.5,128.1,42.2,128.1,41.9z"/>
	<path class="st0" d="M141,41.1c0,0.2,0,0.5,0,0.7c0,0.3-0.1,0.5-0.1,0.7l-1.6,7.7h-1.9l1.6-7.7c0.1-0.4,0.1-0.7,0.1-1.1
		c0-0.4-0.1-0.7-0.3-1c-0.2-0.3-0.6-0.5-1.2-0.5c-0.4,0-0.7,0.1-1.1,0.3c-0.3,0.2-0.6,0.4-0.9,0.7s-0.5,0.6-0.7,1s-0.3,0.8-0.4,1.2
		l-1.5,7.2h-1.9l2-9.2c0.1-0.4,0.2-0.9,0.2-1.3c0.1-0.4,0.1-0.8,0.2-1.3h1.9l-0.3,1.7l0,0c0.4-0.7,0.9-1.2,1.4-1.5s1.1-0.4,1.9-0.4
		c0.9,0,1.6,0.3,2,0.8C140.8,39.6,141,40.3,141,41.1z"/>
	<path class="st0" d="M149.8,40.1h-2.4l-1.5,6.9c0,0.2-0.1,0.3-0.1,0.5s0,0.3,0,0.4c0,0.3,0.1,0.5,0.3,0.6c0.2,0.2,0.4,0.2,0.7,0.2
		c0.2,0,0.4,0,0.6-0.1s0.4-0.1,0.6-0.2l-0.3,1.6c-0.3,0.1-0.5,0.2-0.8,0.2c-0.3,0.1-0.5,0.1-0.8,0.1c-0.7,0-1.2-0.2-1.7-0.5
		c-0.4-0.3-0.6-0.8-0.6-1.5c0-0.2,0-0.3,0-0.5s0-0.3,0.1-0.5l1.5-7.3h-1.9l0.3-1.6h1.9l0.5-2.4l2-0.6l-0.6,3h2.4L149.8,40.1z"/>
	<path class="st0" d="M212.8,50.3h-2.4l-0.2-13.8l0,0l-5.9,13.8h-2.4l-0.2-16h2.1v13l0,0l5.5-13h2.6l0.2,13l0,0l5.5-13h2L212.8,50.3
		z"/>
	<path class="st0" d="M227.1,41.5c0,0.2,0,0.5-0.1,0.7c0,0.3-0.1,0.5-0.1,0.6l-1,4.9c-0.1,0.5-0.2,0.9-0.2,1.4
		c-0.1,0.4-0.2,0.9-0.2,1.3h-1.8l0.2-1.6l0,0c-0.5,0.6-1,1-1.5,1.3s-1.1,0.4-1.7,0.4c-1,0-1.7-0.3-2.3-0.8c-0.6-0.6-0.9-1.3-0.9-2.3
		c0-1.5,0.5-2.5,1.5-3.2s2.6-1,4.8-1h1.2c0.1-0.3,0.1-0.6,0.2-0.9c0-0.3,0.1-0.5,0.1-0.7c0-0.5-0.2-0.8-0.5-1.2s-0.8-0.5-1.4-0.5
		c-0.6,0-1.2,0.1-1.8,0.3s-1.1,0.5-1.6,0.8v-1.8c0.5-0.3,1.1-0.5,1.6-0.6c0.6-0.2,1.2-0.2,1.9-0.2c0.6,0,1.2,0.1,1.6,0.3
		s0.8,0.4,1.1,0.7s0.5,0.6,0.6,1C227.1,40.8,227.1,41.2,227.1,41.5z M222.2,44.7c-0.7,0.1-1.2,0.3-1.6,0.5c-0.4,0.2-0.7,0.5-0.8,0.8
		c-0.2,0.3-0.2,0.7-0.2,1.2c0,0.6,0.2,1,0.5,1.3s0.8,0.5,1.2,0.5c0.3,0,0.7-0.1,1-0.2s0.7-0.3,0.9-0.6c0.3-0.3,0.5-0.6,0.8-1
		c0.2-0.4,0.4-0.8,0.5-1.3l0.3-1.4C223.7,44.6,222.9,44.6,222.2,44.7z"/>
	<path class="st0" d="M235.9,40.2h-2.4l-1.5,6.9c0,0.2-0.1,0.3-0.1,0.5s0,0.3,0,0.4c0,0.3,0.1,0.5,0.3,0.6c0.2,0.2,0.4,0.2,0.7,0.2
		c0.2,0,0.4,0,0.6-0.1s0.4-0.1,0.6-0.2l-0.3,1.6c-0.3,0.1-0.5,0.2-0.8,0.2c-0.3,0.1-0.5,0.1-0.8,0.1c-0.7,0-1.2-0.2-1.7-0.5
		c-0.4-0.3-0.6-0.8-0.6-1.5c0-0.2,0-0.3,0-0.5s0-0.3,0.1-0.5l1.5-7.3h-1.8l0.3-1.6h1.9l0.5-2.4l2-0.6l-0.6,3h2.4L235.9,40.2z"/>
	<path class="st0" d="M245.5,42.1c0,0.5,0,1-0.1,1.5s-0.2,1-0.3,1.5h-6.7c-0.1,0.4-0.1,0.8-0.1,1.2c0,0.9,0.2,1.6,0.7,2.1
		c0.4,0.5,1.1,0.7,1.8,0.7c0.5,0,1-0.1,1.5-0.2c0.5-0.2,1-0.4,1.5-0.7l-0.2,1.7c-0.4,0.2-0.9,0.3-1.4,0.5c-0.5,0.1-1.1,0.2-1.7,0.2
		c-1.3,0-2.3-0.4-3.1-1.1c-0.7-0.7-1.1-1.8-1.1-3.2c0-0.9,0.1-1.8,0.4-2.8c0.3-0.9,0.6-1.8,1.1-2.5c0.5-0.8,1.1-1.4,1.7-1.8
		s1.5-0.7,2.3-0.7c1.1,0,2,0.3,2.6,1C245.2,40.1,245.5,41,245.5,42.1z M243.7,42c0-0.6-0.2-1.2-0.5-1.5c-0.3-0.4-0.8-0.6-1.3-0.6
		c-0.4,0-0.8,0.1-1.2,0.3s-0.7,0.5-0.9,0.9c-0.3,0.3-0.5,0.7-0.7,1.2c-0.2,0.4-0.3,0.9-0.4,1.3h4.8c0.1-0.3,0.1-0.6,0.2-0.8
		C243.7,42.6,243.7,42.3,243.7,42z"/>
	<path class="st0" d="M253.9,40.4c-0.2,0-0.5-0.1-0.7-0.1c-0.4,0-0.7,0.1-1,0.2s-0.7,0.4-1,0.6c-0.3,0.3-0.6,0.7-0.8,1.1
		c-0.2,0.4-0.4,1-0.6,1.6l-1.4,6.4h-1.9l2-9.2c0.1-0.4,0.2-0.9,0.2-1.3c0.1-0.4,0.1-0.8,0.2-1.3h1.9l-0.3,1.8l0,0
		c0.3-0.4,0.5-0.7,0.8-1s0.5-0.5,0.7-0.6s0.6-0.3,0.9-0.3c0.4-0.1,0.8-0.1,1.3-0.1L253.9,40.4z"/>
	<path class="st0" d="M167.7,41.5c0,0.2,0,0.5-0.1,0.7c0,0.3-0.1,0.5-0.1,0.6l-1,4.9c-0.1,0.5-0.2,0.9-0.3,1.4
		c-0.1,0.4-0.2,0.9-0.2,1.3h-1.7l0.2-1.6l0,0c-0.5,0.6-1,1-1.5,1.3s-1.1,0.4-1.7,0.4c-1,0-1.7-0.3-2.3-0.8c-0.6-0.6-0.9-1.3-0.9-2.3
		c0-1.5,0.5-2.5,1.5-3.2s2.6-1,4.8-1h1.2c0.1-0.3,0.1-0.6,0.2-0.9c0-0.3,0.1-0.5,0.1-0.7c0-0.5-0.2-0.8-0.5-1.2s-0.8-0.5-1.4-0.5
		c-0.6,0-1.2,0.1-1.8,0.3s-1.1,0.5-1.6,0.8v-1.8c0.5-0.3,1.1-0.5,1.6-0.6c0.6-0.2,1.2-0.2,1.9-0.2c0.6,0,1.2,0.1,1.6,0.3
		c0.4,0.2,0.8,0.4,1.1,0.7s0.5,0.6,0.6,1C167.7,40.8,167.7,41.2,167.7,41.5z M162.8,44.7c-0.7,0.1-1.2,0.3-1.6,0.5
		c-0.4,0.2-0.7,0.5-0.8,0.8c-0.2,0.3-0.2,0.7-0.2,1.2c0,0.6,0.2,1,0.5,1.3s0.8,0.5,1.2,0.5c0.3,0,0.7-0.1,1-0.2s0.7-0.3,0.9-0.6
		c0.3-0.3,0.5-0.6,0.8-1c0.2-0.4,0.4-0.8,0.5-1.3l0.3-1.4C164.3,44.6,163.5,44.6,162.8,44.7z"/>
	<path class="st0" d="M179.2,41.2c0,0.2,0,0.5,0,0.7c0,0.3-0.1,0.5-0.1,0.7l-1.6,7.7h-1.9l1.6-7.7c0.1-0.4,0.1-0.7,0.1-1.1
		s-0.1-0.7-0.3-1s-0.7-0.4-1.3-0.4c-0.4,0-0.7,0.1-1.1,0.3c-0.3,0.2-0.6,0.4-0.9,0.7c-0.3,0.3-0.5,0.6-0.7,1s-0.3,0.8-0.4,1.2
		l-1.5,7.2h-1.9l2-9.2c0.1-0.4,0.2-0.9,0.2-1.3c0.1-0.4,0.1-0.8,0.2-1.3h1.9l-0.3,1.7l0,0c0.4-0.7,0.9-1.2,1.4-1.5s1.1-0.4,1.9-0.4
		c0.9,0,1.6,0.3,2,0.8C179,39.7,179.2,40.4,179.2,41.2z"/>
	<path class="st0" d="M189.6,48.2c-0.2,0.7-0.3,1.4-0.3,2.2h-1.9l0.3-1.7l0,0c-0.9,1.3-2,1.9-3.2,1.9c-0.6,0-1-0.1-1.4-0.3
		s-0.8-0.5-1-0.8s-0.5-0.8-0.6-1.3s-0.2-1-0.2-1.6c0-0.9,0.1-1.8,0.4-2.8c0.2-1,0.6-1.8,1.1-2.6s1-1.4,1.7-1.9s1.4-0.7,2.2-0.7
		c0.7,0,1.3,0.1,1.8,0.4s0.8,0.7,1.1,1.4l0,0l1.5-7.1h1.9L189.6,48.2z M188.7,42.5c0-0.7-0.2-1.2-0.5-1.7s-0.8-0.7-1.6-0.7
		c-0.6,0-1.2,0.2-1.6,0.7c-0.5,0.4-0.8,1-1.1,1.6c-0.3,0.7-0.5,1.4-0.7,2.1c-0.1,0.8-0.2,1.4-0.2,2.1s0.2,1.3,0.5,1.7
		s0.8,0.7,1.4,0.7c0.7,0,1.3-0.2,1.8-0.7c0.5-0.4,0.9-1,1.2-1.7s0.5-1.4,0.7-2.1S188.7,43.1,188.7,42.5z"/>
</g>
</svg>
