<svg xmlns="http://www.w3.org/2000/svg" viewBox="0 0 261.8 93.9">
  <defs>
    <style>
      .a {
        fill: #fff;
      }
    </style>
  </defs>
  <title>weekly-descriptor--reversed</title>
  <path class="a" d="M12.3,7.9H8.6l-3,14.3h-2l3-14.3H2.9l.4-1.7h9.4Z" transform="translate(-1 -4.6)"/>
  <path class="a" d="M20.7,13.1v.7c0,.2-.1.5-.1.7L19,22.2H17l1.6-7.7a4.1,4.1,0,0,0,.1-1.1,1.69,1.69,0,0,0-.3-1,1.36,1.36,0,0,0-1.2-.5,2.28,2.28,0,0,0-1.1.3,5.5,5.5,0,0,0-.9.7,3.59,3.59,0,0,0-.7,1,5.64,5.64,0,0,0-.4,1.2l-1.5,7.2H10.7L14.3,5h1.9l-1.5,7.1h0a4.27,4.27,0,0,1,1.4-1.3,3.42,3.42,0,0,1,1.8-.4,2.48,2.48,0,0,1,2,.8A2.13,2.13,0,0,1,20.7,13.1Z" transform="translate(-1 -4.6)"/>
  <path class="a" d="M31.9,14a7.57,7.57,0,0,1-.1,1.5L31.5,17H24.8a4.87,4.87,0,0,0-.1,1.2,2.82,2.82,0,0,0,.7,2.1,2.27,2.27,0,0,0,1.8.7,7.72,7.72,0,0,0,1.5-.2,10.09,10.09,0,0,0,1.5-.7L30,21.7c-.4.2-.9.3-1.4.5a8.81,8.81,0,0,1-1.7.2,4.5,4.5,0,0,1-3.1-1.1,4.42,4.42,0,0,1-1.1-3.2,9.47,9.47,0,0,1,.4-2.8,9.48,9.48,0,0,1,1.1-2.5A5.92,5.92,0,0,1,25.9,11a4.45,4.45,0,0,1,2.3-.7,3.25,3.25,0,0,1,2.6,1A3.34,3.34,0,0,1,31.9,14Zm-1.8-.1a2.25,2.25,0,0,0-.5-1.5,1.61,1.61,0,0,0-1.3-.6,2.66,2.66,0,0,0-1.2.3,2,2,0,0,0-.9.9,3.46,3.46,0,0,0-.7,1.2,6.47,6.47,0,0,0-.4,1.3h4.8c.1-.3.1-.6.2-.8Z" transform="translate(-1 -4.6)"/>
  <path class="a" d="M46.3,12.5a3,3,0,0,0-1-.4,3.75,3.75,0,0,0-1.1-.1,2.46,2.46,0,0,0-1.5.5,1.43,1.43,0,0,0-.6,1.2,1.61,1.61,0,0,0,.3.9,3,3,0,0,0,1,.9l1.2.8a2.84,2.84,0,0,1,.9,1,3.34,3.34,0,0,1,.3,1.5,4.15,4.15,0,0,1-.3,1.6,2.44,2.44,0,0,1-.9,1.1,3.09,3.09,0,0,1-1.4.7,4.67,4.67,0,0,1-1.7.3,11.08,11.08,0,0,1-1.9-.2,5,5,0,0,1-1.3-.4l.6-1.7a6.12,6.12,0,0,0,1.2.5,5.21,5.21,0,0,0,1.4.2,2.54,2.54,0,0,0,1.6-.5,1.89,1.89,0,0,0,.3-2.4,3,3,0,0,0-1-.9l-1-.7a3.46,3.46,0,0,1-1-1.1,3.26,3.26,0,0,1-.4-1.4,4.15,4.15,0,0,1,.3-1.6,2.44,2.44,0,0,1,.9-1.1,5.39,5.39,0,0,1,1.3-.7,4.68,4.68,0,0,1,1.7-.2,7.08,7.08,0,0,1,1.4.1,8.11,8.11,0,0,1,1.1.3Z" transform="translate(-1 -4.6)"/>
  <path class="a" d="M55.2,12.1H52.8L51.3,19c0,.2-.1.3-.1.5v.4a.6.6,0,0,0,.3.6.84.84,0,0,0,.7.2,1.27,1.27,0,0,0,.6-.1c.2-.1.4-.1.6-.2L53.1,22a2.35,2.35,0,0,1-.8.2,2.2,2.2,0,0,1-.8.1,3.1,3.1,0,0,1-1.7-.5,1.75,1.75,0,0,1-.6-1.5v-.5a.9.9,0,0,1,.1-.5L50.8,12H48.9l.3-1.6h1.9L51.6,8l2-.6-.6,3h2.4Z" transform="translate(-1 -4.6)"/>
  <path class="a" d="M64.8,13.4a1.7,1.7,0,0,1-.1.7,3.54,3.54,0,0,1-.1.6l-1,4.9c-.1.5-.2.9-.3,1.4a5.85,5.85,0,0,0-.2,1.3H61.4l.2-1.6h0A5.8,5.8,0,0,1,60.1,22a3.29,3.29,0,0,1-1.7.4,3.37,3.37,0,0,1-2.3-.8,3,3,0,0,1-.9-2.3,3.57,3.57,0,0,1,1.5-3.2c1-.7,2.6-1,4.8-1h1.2c.1-.3.1-.6.2-.9s.1-.5.1-.7a1.85,1.85,0,0,0-.5-1.2,2,2,0,0,0-1.4-.5,5.66,5.66,0,0,0-1.8.3,8,8,0,0,0-1.6.8V11.1a5.23,5.23,0,0,1,1.6-.6,5.84,5.84,0,0,1,1.9-.2,3.81,3.81,0,0,1,1.6.3,4.13,4.13,0,0,1,1.1.7,2.07,2.07,0,0,1,.6,1A2.61,2.61,0,0,1,64.8,13.4Zm-5,3.2a5,5,0,0,0-1.6.5,1.55,1.55,0,0,0-.8.8,2.17,2.17,0,0,0-.2,1.2,1.73,1.73,0,0,0,.5,1.3,1.85,1.85,0,0,0,1.2.5,3.55,3.55,0,0,0,1-.2,1.8,1.8,0,0,0,.9-.6,8.74,8.74,0,0,0,.8-1,5,5,0,0,0,.5-1.3l.3-1.4C61.4,16.5,60.5,16.5,59.8,16.6Z" transform="translate(-1 -4.6)"/>
  <path class="a" d="M74.8,6.6a2,2,0,0,0-1.1-.3,1.25,1.25,0,0,0-1.1.4A2.59,2.59,0,0,0,72,8.1l-.5,2.5h2.1l-.3,1.6H71.2L69,22.2H67L69.1,12H67.2l.3-1.6h1.9L70,7.7a5,5,0,0,1,1.1-2.3,3.29,3.29,0,0,1,2.4-.8,7.72,7.72,0,0,1,1.5.2Z" transform="translate(-1 -4.6)"/>
  <path class="a" d="M81.6,6.6a2,2,0,0,0-1.1-.3,1.25,1.25,0,0,0-1.1.4,6.45,6.45,0,0,0-.6,1.4l-.5,2.5h2.1l-.3,1.6H78L75.9,22.4H74l2-10.3H74.1l.3-1.6h1.9L77,7.8a5,5,0,0,1,1.1-2.3,3.29,3.29,0,0,1,2.4-.8,7.72,7.72,0,0,1,1.5.2Z" transform="translate(-1 -4.6)"/>
  <path class="a" d="M96,13.1v.7c0,.2-.1.5-.1.7l-1.6,7.7H92.4L94,14.5a4.1,4.1,0,0,0,.1-1.1,1.69,1.69,0,0,0-.3-1,2.89,2.89,0,0,0-1.4-.4,2.28,2.28,0,0,0-1.1.3,5.5,5.5,0,0,0-.9.7,3.59,3.59,0,0,0-.7,1,5.64,5.64,0,0,0-.4,1.2l-1.5,7.2H85.9l2-9.2a5.85,5.85,0,0,0,.2-1.3c.1-.4.1-.8.2-1.3h1.9l-.3,1.7h0a4.09,4.09,0,0,1,1.4-1.5,3.58,3.58,0,0,1,1.9-.4,2.48,2.48,0,0,1,2,.8A2.41,2.41,0,0,1,96,13.1Z" transform="translate(-1 -4.6)"/>
  <path class="a" d="M107.1,14a7.57,7.57,0,0,1-.1,1.5l-.3,1.5H100a4.87,4.87,0,0,0-.1,1.2,2.82,2.82,0,0,0,.7,2.1,2.27,2.27,0,0,0,1.8.7,7.72,7.72,0,0,0,1.5-.2,10.09,10.09,0,0,0,1.5-.7l-.2,1.7c-.4.2-.9.3-1.4.5a8.81,8.81,0,0,1-1.7.2A4.5,4.5,0,0,1,99,21.4a4.42,4.42,0,0,1-1.1-3.2,9.47,9.47,0,0,1,.4-2.8,9.48,9.48,0,0,1,1.1-2.5,5.92,5.92,0,0,1,1.7-1.8,4.45,4.45,0,0,1,2.3-.7,3.25,3.25,0,0,1,2.6,1A3,3,0,0,1,107.1,14Zm-1.8-.1a2.25,2.25,0,0,0-.5-1.5,1.61,1.61,0,0,0-1.3-.6,2.66,2.66,0,0,0-1.2.3,2,2,0,0,0-.9.9,3.46,3.46,0,0,0-.7,1.2,6.47,6.47,0,0,0-.4,1.3h4.8c.1-.3.1-.6.2-.8Z" transform="translate(-1 -4.6)"/>
  <path class="a" d="M119.3,22.2h-2.2l-.5-9.9h0l-4.2,9.9h-2.3l-.7-11.7h1.9l.3,9.8h0l4.1-9.8H118l.4,9.8h0l4.1-9.8h2Z" transform="translate(-1 -4.6)"/>
  <path class="a" d="M131.7,12.5a3,3,0,0,0-1-.4,3.75,3.75,0,0,0-1.1-.1,2.46,2.46,0,0,0-1.5.5,1.43,1.43,0,0,0-.6,1.2,1.61,1.61,0,0,0,.3.9,3,3,0,0,0,1,.9l1.2.8a2.84,2.84,0,0,1,.9,1,3.34,3.34,0,0,1,.3,1.5,4.15,4.15,0,0,1-.3,1.6,2.44,2.44,0,0,1-.9,1.1,3.09,3.09,0,0,1-1.4.7,4.67,4.67,0,0,1-1.7.3,11.08,11.08,0,0,1-1.9-.2,5,5,0,0,1-1.3-.4l.6-1.7a6.12,6.12,0,0,0,1.2.5,5.21,5.21,0,0,0,1.4.2,2.54,2.54,0,0,0,1.6-.5,1.89,1.89,0,0,0,.3-2.4,3,3,0,0,0-1-.9l-1-.7a3.46,3.46,0,0,1-1-1.1,3.26,3.26,0,0,1-.4-1.4,4.15,4.15,0,0,1,.3-1.6,2.44,2.44,0,0,1,.9-1.1,5.39,5.39,0,0,1,1.3-.7,4.68,4.68,0,0,1,1.7-.2,7.08,7.08,0,0,1,1.4.1,8.11,8.11,0,0,1,1.1.3Z" transform="translate(-1 -4.6)"/>
  <path class="a" d="M135.4,22.2h-1.9L137.1,5H139Z" transform="translate(-1 -4.6)"/>
  <path class="a" d="M148.5,14a7.57,7.57,0,0,1-.1,1.5l-.3,1.5h-6.7a4.87,4.87,0,0,0-.1,1.2,2.82,2.82,0,0,0,.7,2.1,2.27,2.27,0,0,0,1.8.7,7.72,7.72,0,0,0,1.5-.2,10.09,10.09,0,0,0,1.5-.7l-.2,1.7c-.4.2-.9.3-1.4.5a8.81,8.81,0,0,1-1.7.2,4.5,4.5,0,0,1-3.1-1.1,4.42,4.42,0,0,1-1.1-3.2,9.47,9.47,0,0,1,.4-2.8,9.48,9.48,0,0,1,1.1-2.5,7.37,7.37,0,0,1,1.7-1.8,4.45,4.45,0,0,1,2.3-.7,3.25,3.25,0,0,1,2.6,1A3,3,0,0,1,148.5,14Zm-1.8-.1a2.25,2.25,0,0,0-.5-1.5,1.61,1.61,0,0,0-1.3-.6,2.66,2.66,0,0,0-1.2.3,2,2,0,0,0-.9.9,3.46,3.46,0,0,0-.7,1.2,6.47,6.47,0,0,0-.4,1.3h4.8c.1-.3.1-.6.2-.8Z" transform="translate(-1 -4.6)"/>
  <path class="a" d="M156.9,12.1h-2.4L153,19c0,.2-.1.3-.1.5v.4a.6.6,0,0,0,.3.6.84.84,0,0,0,.7.2,1.27,1.27,0,0,0,.6-.1c.2-.1.4-.1.6-.2l-.3,1.6a2.35,2.35,0,0,1-.8.2,2.2,2.2,0,0,1-.8.1,3.1,3.1,0,0,1-1.7-.5,1.75,1.75,0,0,1-.6-1.5v-.5a.9.9,0,0,1,.1-.5l1.5-7.3h-1.9l.3-1.6h1.9l.5-2.4,2-.6-.6,3h2.4Z" transform="translate(-1 -4.6)"/>
  <path class="a" d="M164.1,12.1h-2.4L160.2,19c0,.2-.1.3-.1.5v.4a.6.6,0,0,0,.3.6.84.84,0,0,0,.7.2,1.27,1.27,0,0,0,.6-.1c.2-.1.4-.1.6-.2L162,22a2.35,2.35,0,0,1-.8.2,2.2,2.2,0,0,1-.8.1,3.1,3.1,0,0,1-1.7-.5,1.75,1.75,0,0,1-.6-1.5v-.5a.9.9,0,0,1,.1-.5l1.5-7.3h-1.9l.3-1.6H160l.5-2.4,2-.6-.6,3h2.4Z" transform="translate(-1 -4.6)"/>
  <path class="a" d="M173.7,14a7.57,7.57,0,0,1-.1,1.5l-.3,1.5h-6.7a4.87,4.87,0,0,0-.1,1.2,2.82,2.82,0,0,0,.7,2.1,2.27,2.27,0,0,0,1.8.7,7.72,7.72,0,0,0,1.5-.2,10.09,10.09,0,0,0,1.5-.7l-.2,1.7c-.4.2-.9.3-1.4.5a8.81,8.81,0,0,1-1.7.2,4.5,4.5,0,0,1-3.1-1.1,4.42,4.42,0,0,1-1.1-3.2,9.47,9.47,0,0,1,.4-2.8,8.22,8.22,0,0,1,1.1-2.5,5.92,5.92,0,0,1,1.7-1.8,4.45,4.45,0,0,1,2.3-.7,3.25,3.25,0,0,1,2.6,1A3,3,0,0,1,173.7,14Zm-1.8-.1a2.25,2.25,0,0,0-.5-1.5,1.61,1.61,0,0,0-1.3-.6,2.66,2.66,0,0,0-1.2.3,2,2,0,0,0-.9.9,3.46,3.46,0,0,0-.7,1.2,6.47,6.47,0,0,0-.4,1.3h4.8c.1-.3.1-.6.2-.8Z" transform="translate(-1 -4.6)"/>
  <path class="a" d="M182.1,12.3c-.2,0-.5-.1-.7-.1a3,3,0,0,0-1,.2,5.3,5.3,0,0,0-1,.6,4.44,4.44,0,0,0-.8,1.1c-.2.5-.4,1-.6,1.6l-1.4,6.4h-1.9l2-9.2a5.85,5.85,0,0,0,.2-1.3c.1-.4.1-.8.2-1.3H179l-.3,1.8h0a8.74,8.74,0,0,1,.8-1,1.87,1.87,0,0,1,.7-.6,2.39,2.39,0,0,1,.9-.3c.3,0,.8-.1,1.3-.1Z" transform="translate(-1 -4.6)"/>
  <g>
    <path class="a" d="M225.1,12.1h-2.4L221.2,19c0,.2-.1.3-.1.5v.4a.6.6,0,0,0,.3.6.84.84,0,0,0,.7.2,1.27,1.27,0,0,0,.6-.1c.2-.1.4-.1.6-.2L223,22a2.35,2.35,0,0,1-.8.2,2.2,2.2,0,0,1-.8.1,3.1,3.1,0,0,1-1.7-.5,1.75,1.75,0,0,1-.6-1.5v-.5a.9.9,0,0,1,.1-.5l1.5-7.3h-1.9l.3-1.6H221l.5-2.4,2-.6-.6,3h2.4Z" transform="translate(-1 -4.6)"/>
    <path class="a" d="M235.1,13.1v.7c0,.3-.1.5-.1.7l-1.6,7.7h-1.9l1.6-7.7a4.1,4.1,0,0,0,.1-1.1,1.69,1.69,0,0,0-.3-1,1.36,1.36,0,0,0-1.2-.5,2.28,2.28,0,0,0-1.1.3,5.49,5.49,0,0,0-.9.7,3.59,3.59,0,0,0-.7,1,5.64,5.64,0,0,0-.4,1.2l-1.5,7.2h-1.9L228.7,5h1.9l-1.5,7.1h0a4.27,4.27,0,0,1,1.4-1.3,3.42,3.42,0,0,1,1.8-.4,2.48,2.48,0,0,1,2,.8A2.13,2.13,0,0,1,235.1,13.1Z" transform="translate(-1 -4.6)"/>
    <path class="a" d="M246.2,14a7.57,7.57,0,0,1-.1,1.5l-.3,1.5h-6.7a4.87,4.87,0,0,0-.1,1.2,2.82,2.82,0,0,0,.7,2.1,2.27,2.27,0,0,0,1.8.7,7.72,7.72,0,0,0,1.5-.2,10.09,10.09,0,0,0,1.5-.7l-.2,1.7c-.4.2-.9.3-1.4.5a8.81,8.81,0,0,1-1.7.2,4.5,4.5,0,0,1-3.1-1.1,4.42,4.42,0,0,1-1.1-3.2,9.47,9.47,0,0,1,.4-2.8,8.22,8.22,0,0,1,1.1-2.5,5.92,5.92,0,0,1,1.7-1.8,4.45,4.45,0,0,1,2.3-.7,3.25,3.25,0,0,1,2.6,1A3,3,0,0,1,246.2,14Zm-1.8-.1a2.25,2.25,0,0,0-.5-1.5,1.61,1.61,0,0,0-1.3-.6,2.66,2.66,0,0,0-1.2.3,2,2,0,0,0-.9.9,3.46,3.46,0,0,0-.7,1.2,6.47,6.47,0,0,0-.4,1.3h4.8c.1-.3.1-.6.2-.8Z" transform="translate(-1 -4.6)"/>
  </g>
  <path class="a" d="M13.7,50a16,16,0,0,1-.5,3.9,12.62,12.62,0,0,1-1.6,3.3,6.43,6.43,0,0,1-2.7,2.2,7.46,7.46,0,0,1-3.7.8H1L4.4,44.1H7.5a6.47,6.47,0,0,1,4.7,1.5A6.35,6.35,0,0,1,13.7,50Zm-2.1.1a7.72,7.72,0,0,0-.2-1.5,3.29,3.29,0,0,0-.7-1.3,3,3,0,0,0-1.3-.9A6,6,0,0,0,7.3,46H6L3.4,58.5H5.1A5.43,5.43,0,0,0,8,57.8,7,7,0,0,0,10,56a11.07,11.07,0,0,0,1.2-2.7A16.48,16.48,0,0,0,11.6,50.1Z" transform="translate(-1 -4.6)"/>
  <path class="a" d="M24.2,52a7.57,7.57,0,0,1-.1,1.5L23.8,55H17.1a3.75,3.75,0,0,0-.1,1.1,2.82,2.82,0,0,0,.7,2.1,2.27,2.27,0,0,0,1.8.7,7.72,7.72,0,0,0,1.5-.2,10.09,10.09,0,0,0,1.5-.7l-.2,1.7c-.4.2-.9.3-1.4.5a8.81,8.81,0,0,1-1.7.2,4.5,4.5,0,0,1-3.1-1.1A4.42,4.42,0,0,1,15,56.1a10.23,10.23,0,0,1,1.5-5.3A5.92,5.92,0,0,1,18.2,49a4.45,4.45,0,0,1,2.3-.7,3.25,3.25,0,0,1,2.6,1A3.34,3.34,0,0,1,24.2,52Zm-1.8-.1a2.25,2.25,0,0,0-.5-1.5,1.61,1.61,0,0,0-1.3-.6,2.66,2.66,0,0,0-1.2.3,2,2,0,0,0-.9.9,3.46,3.46,0,0,0-.7,1.2,6.47,6.47,0,0,0-.4,1.3h4.8c.1-.3.1-.6.2-.8Z" transform="translate(-1 -4.6)"/>
  <path class="a" d="M35.5,52.4a9.47,9.47,0,0,1-.4,2.8A7.56,7.56,0,0,1,34,57.8a6.27,6.27,0,0,1-1.7,1.9,3.6,3.6,0,0,1-2.2.7,2.88,2.88,0,0,1-2.9-1.8h0l-1.4,6.6H23.9L27,50.7c.1-.4.1-.7.2-1.1s.1-.7.2-1.1h1.9L29,50.2h0a5.14,5.14,0,0,1,1.4-1.5,3.42,3.42,0,0,1,1.8-.4,2.9,2.9,0,0,1,1.4.3,2.72,2.72,0,0,1,1,.8,3.1,3.1,0,0,1,.6,1.3A4.67,4.67,0,0,1,35.5,52.4Zm-2-.1a2.86,2.86,0,0,0-.5-1.7,1.75,1.75,0,0,0-1.4-.7,2.41,2.41,0,0,0-1.8.7,4.34,4.34,0,0,0-1.2,1.7,17.23,17.23,0,0,0-.7,2.1,16.83,16.83,0,0,0-.2,2,3.1,3.1,0,0,0,.5,1.7,1.65,1.65,0,0,0,1.6.7,2,2,0,0,0,1.6-.7,4.57,4.57,0,0,0,1.1-1.6,17.23,17.23,0,0,0,.7-2.1A7.61,7.61,0,0,0,33.5,52.3Z" transform="translate(-1 -4.6)"/>
  <path class="a" d="M46.4,51.4a1.7,1.7,0,0,1-.1.7,3.54,3.54,0,0,1-.1.6l-1,4.9c-.1.5-.2.9-.3,1.4a5.85,5.85,0,0,0-.2,1.3H43l.2-1.6h0A5.8,5.8,0,0,1,41.7,60a3.29,3.29,0,0,1-1.7.4,3.37,3.37,0,0,1-2.3-.8,3,3,0,0,1-.9-2.3,3.57,3.57,0,0,1,1.5-3.2c1-.7,2.6-1,4.8-1h1.2c.1-.3.1-.6.2-.9s.1-.5.1-.7a1.85,1.85,0,0,0-.5-1.2,2,2,0,0,0-1.4-.5,5.66,5.66,0,0,0-1.8.3,8,8,0,0,0-1.6.8V49.1a5.23,5.23,0,0,1,1.6-.6,5.84,5.84,0,0,1,1.9-.2,3.81,3.81,0,0,1,1.6.3,4.13,4.13,0,0,1,1.1.7,2.07,2.07,0,0,1,.6,1A2.61,2.61,0,0,1,46.4,51.4Zm-5,3.2a5,5,0,0,0-1.6.5,1.55,1.55,0,0,0-.8.8,2.17,2.17,0,0,0-.2,1.2,1.73,1.73,0,0,0,.5,1.3,1.85,1.85,0,0,0,1.2.5,3.55,3.55,0,0,0,1-.2,1.8,1.8,0,0,0,.9-.6,8.74,8.74,0,0,0,.8-1,5,5,0,0,0,.5-1.3l.3-1.4C43,54.5,42.1,54.5,41.4,54.6Z" transform="translate(-1 -4.6)"/>
  <path class="a" d="M55.2,50.3c-.2,0-.5-.1-.7-.1a3,3,0,0,0-1,.2,5.3,5.3,0,0,0-1,.6,4.44,4.44,0,0,0-.8,1.1c-.2.5-.4,1-.6,1.6l-1.4,6.4H47.8l2-9.2a5.85,5.85,0,0,0,.2-1.3c.1-.4.1-.8.2-1.3h1.9l-.3,1.8h0a8.74,8.74,0,0,1,.8-1,3.19,3.19,0,0,1,.7-.6,2.39,2.39,0,0,1,.9-.3,5.28,5.28,0,0,1,1.3-.1Z" transform="translate(-1 -4.6)"/>
  <path class="a" d="M62.4,50.1H60L58.5,57c0,.2-.1.3-.1.5v.4a.6.6,0,0,0,.3.6.84.84,0,0,0,.7.2,1.27,1.27,0,0,0,.6-.1c.2-.1.4-.1.6-.2L60.3,60a2.35,2.35,0,0,1-.8.2,2.2,2.2,0,0,1-.8.1,3.1,3.1,0,0,1-1.7-.5,1.75,1.75,0,0,1-.6-1.5v-.5a.9.9,0,0,1,.1-.5L58,50H56.1l.3-1.6h1.9l.5-2.4,2-.6-.6,3h2.4Z" transform="translate(-1 -4.6)"/>
  <path class="a" d="M77.9,51.1v.7c0,.2-.1.5-.1.7l-1.6,7.7H74.3l1.6-7.7a4.1,4.1,0,0,0,.1-1.1v-.5c0-.2-.1-.3-.2-.5s-.3-.3-.4-.3a1.48,1.48,0,0,0-.7-.1,1.61,1.61,0,0,0-.9.3,2.7,2.7,0,0,0-.8.7,3.59,3.59,0,0,0-.7,1,5.64,5.64,0,0,0-.4,1.2l-1.5,7.2H68.5l1.6-7.7a4.1,4.1,0,0,0,.1-1.1v-.5a1.69,1.69,0,0,0-.2-.5c-.1-.1-.3-.3-.4-.3a1.48,1.48,0,0,0-.7-.1,2.92,2.92,0,0,0-.9.2,2.7,2.7,0,0,0-.8.7,3.59,3.59,0,0,0-.7,1,5.64,5.64,0,0,0-.4,1.2l-1.5,7.1H62.7l2-9.2a5.85,5.85,0,0,0,.2-1.3c.1-.4.1-.8.2-1.3H67l-.3,1.7h0a4.09,4.09,0,0,1,1.4-1.5,3.29,3.29,0,0,1,1.7-.4,3,3,0,0,1,1.6.5,2.84,2.84,0,0,1,.9,1.4h0a4.09,4.09,0,0,1,1.4-1.5,3.29,3.29,0,0,1,1.7-.4,2.48,2.48,0,0,1,2,.8A3.31,3.31,0,0,1,77.9,51.1Z" transform="translate(-1 -4.6)"/>
  <path class="a" d="M89.1,52a7.57,7.57,0,0,1-.1,1.5L88.7,55H82a4.87,4.87,0,0,0-.1,1.2,2.82,2.82,0,0,0,.7,2.1,2.27,2.27,0,0,0,1.8.7,7.72,7.72,0,0,0,1.5-.2,10.09,10.09,0,0,0,1.5-.7l-.2,1.7c-.4.2-.9.3-1.4.5a8.81,8.81,0,0,1-1.7.2A4.5,4.5,0,0,1,81,59.4a4.42,4.42,0,0,1-1.1-3.2,10.23,10.23,0,0,1,1.5-5.3,5.92,5.92,0,0,1,1.7-1.8,4.45,4.45,0,0,1,2.3-.7,3.25,3.25,0,0,1,2.6,1A3,3,0,0,1,89.1,52Zm-1.8-.1a2.25,2.25,0,0,0-.5-1.5,1.61,1.61,0,0,0-1.3-.6,2.66,2.66,0,0,0-1.2.3,2,2,0,0,0-.9.9,3.46,3.46,0,0,0-.7,1.2,6.47,6.47,0,0,0-.4,1.3h4.8c.1-.3.1-.6.2-.8Z" transform="translate(-1 -4.6)"/>
  <path class="a" d="M100.2,51.1v.7c0,.2-.1.5-.1.7l-1.6,7.7H96.6l1.6-7.7a4.1,4.1,0,0,0,.1-1.1,1.69,1.69,0,0,0-.3-1,1.36,1.36,0,0,0-1.2-.5,2.28,2.28,0,0,0-1.1.3,5.5,5.5,0,0,0-.9.7,3.59,3.59,0,0,0-.7,1,5.64,5.64,0,0,0-.4,1.2L92,60.2H90.1l2-9.2a5.85,5.85,0,0,0,.2-1.3c.1-.4.1-.8.2-1.3h1.9L94,50.3h0a4.09,4.09,0,0,1,1.4-1.5,3.58,3.58,0,0,1,1.9-.4,2.48,2.48,0,0,1,2,.8A2.2,2.2,0,0,1,100.2,51.1Z" transform="translate(-1 -4.6)"/>
  <path class="a" d="M108.9,50.1h-2.4L105,57c0,.2-.1.3-.1.5v.4a.6.6,0,0,0,.3.6.84.84,0,0,0,.7.2,1.27,1.27,0,0,0,.6-.1c.2-.1.4-.1.6-.2l-.3,1.6a2.35,2.35,0,0,1-.8.2,2.2,2.2,0,0,1-.8.1,3.1,3.1,0,0,1-1.7-.5,1.75,1.75,0,0,1-.6-1.5v-.5a.9.9,0,0,1,.1-.5l1.5-7.3h-1.9l.3-1.6h1.9l.5-2.4,2-.6-.6,3h2.4Z" transform="translate(-1 -4.6)"/>
  <path class="a" d="M158,45.9h-5.5L151.4,51h5.2l-.4,1.7H151l-1.2,5.7h5.8l-.4,1.7h-7.8L150.8,44h7.5Z" transform="translate(-1 -4.6)"/>
  <path class="a" d="M168.3,51.1v.7c0,.3-.1.5-.1.7l-1.6,7.7h-1.9l1.6-7.7a4.1,4.1,0,0,0,.1-1.1,1.69,1.69,0,0,0-.3-1,1.36,1.36,0,0,0-1.2-.5,2.28,2.28,0,0,0-1.1.3,5.5,5.5,0,0,0-.9.7,3.59,3.59,0,0,0-.7,1,5.64,5.64,0,0,0-.4,1.2l-1.5,7.2h-1.9l2-9.2a5.85,5.85,0,0,0,.2-1.3c.1-.4.1-.8.2-1.3h1.9l-.3,1.7h0a4.09,4.09,0,0,1,1.4-1.5,3.58,3.58,0,0,1,1.9-.4,2.48,2.48,0,0,1,2,.8A3.17,3.17,0,0,1,168.3,51.1Z" transform="translate(-1 -4.6)"/>
  <path class="a" d="M174.5,60.2h-2.3L171,48.5h2l.7,9.8h0l4.5-9.8h2.1Z" transform="translate(-1 -4.6)"/>
  <path class="a" d="M182.2,60.2h-1.9l2.5-11.7h1.9Zm3-14.2h-2.1l.5-2.3h2.1Z" transform="translate(-1 -4.6)"/>
  <path class="a" d="M193,50.3c-.2,0-.5-.1-.7-.1a3,3,0,0,0-1,.2,5.3,5.3,0,0,0-1,.6,4.44,4.44,0,0,0-.8,1.1c-.2.5-.4,1-.6,1.6l-1.4,6.4h-1.9l2-9.2a5.85,5.85,0,0,0,.2-1.3c.1-.4.1-.8.2-1.3h1.9l-.3,1.8h0a8.74,8.74,0,0,1,.8-1,1.87,1.87,0,0,1,.7-.6,2.39,2.39,0,0,1,.9-.3c.3,0,.8-.1,1.3-.1Z" transform="translate(-1 -4.6)"/>
  <path class="a" d="M203.2,52.6a8.84,8.84,0,0,1-.4,2.7,8,8,0,0,1-1.1,2.5,6.56,6.56,0,0,1-1.8,1.9,4.3,4.3,0,0,1-2.5.7,4.08,4.08,0,0,1-3-1.1,4.42,4.42,0,0,1-1.1-3.2,8.24,8.24,0,0,1,.4-2.6,7.07,7.07,0,0,1,1.1-2.5,6.56,6.56,0,0,1,1.8-1.9,4.3,4.3,0,0,1,2.5-.7,4,4,0,0,1,2.9,1.1A3.8,3.8,0,0,1,203.2,52.6Zm-2,0a3.68,3.68,0,0,0-.5-2,2.13,2.13,0,0,0-1.5-.7,2.52,2.52,0,0,0-1.7.6,4,4,0,0,0-1.2,1.6,11.76,11.76,0,0,0-.7,2,7.49,7.49,0,0,0-.2,2.1,3,3,0,0,0,.6,2,2.13,2.13,0,0,0,1.5.7,2.52,2.52,0,0,0,1.7-.6,4,4,0,0,0,1.2-1.6,11.76,11.76,0,0,0,.7-2A16.23,16.23,0,0,0,201.2,52.6Z" transform="translate(-1 -4.6)"/>
  <path class="a" d="M214.5,51.1v.7c0,.3-.1.5-.1.7l-1.6,7.7h-1.9l1.6-7.7a4.1,4.1,0,0,0,.1-1.1,1.69,1.69,0,0,0-.3-1,1.36,1.36,0,0,0-1.2-.5,2.28,2.28,0,0,0-1.1.3,5.5,5.5,0,0,0-.9.7,3.59,3.59,0,0,0-.7,1,5.64,5.64,0,0,0-.4,1.2l-1.5,7.2h-1.9l2-9.2a5.85,5.85,0,0,0,.2-1.3c.1-.4.1-.8.2-1.3h1.9l-.3,1.7h0a4.09,4.09,0,0,1,1.4-1.5,3.58,3.58,0,0,1,1.9-.4,2.48,2.48,0,0,1,2,.8A3.17,3.17,0,0,1,214.5,51.1Z" transform="translate(-1 -4.6)"/>
  <path class="a" d="M231.6,51.1v.7c0,.3-.1.5-.1.7l-1.6,7.7h-2l1.6-7.7a4.1,4.1,0,0,0,.1-1.1v-.5c0-.2-.1-.3-.2-.5s-.3-.3-.4-.3a1.48,1.48,0,0,0-.7-.1,1.61,1.61,0,0,0-.9.3,2.7,2.7,0,0,0-.8.7,3.59,3.59,0,0,0-.7,1,5.64,5.64,0,0,0-.4,1.2L224,60.4h-2.1l1.6-7.7a4.1,4.1,0,0,0,.1-1.1v-.5c0-.2-.1-.3-.2-.5s-.3-.3-.4-.3a1.48,1.48,0,0,0-.7-.1,2.92,2.92,0,0,0-.9.2,2.7,2.7,0,0,0-.8.7,8.65,8.65,0,0,0-.7,1,5.64,5.64,0,0,0-.4,1.2L218,60.4h-1.9l2-9.2a5.85,5.85,0,0,0,.2-1.3,6.88,6.88,0,0,1,.2-1.3h1.9l-.3,1.7h0a4.09,4.09,0,0,1,1.4-1.5,3.29,3.29,0,0,1,1.7-.4,3,3,0,0,1,1.6.5,2.84,2.84,0,0,1,.9,1.4h0a4.09,4.09,0,0,1,1.4-1.5,3.29,3.29,0,0,1,1.7-.4,2.48,2.48,0,0,1,2,.8A2.13,2.13,0,0,1,231.6,51.1Z" transform="translate(-1 -4.6)"/>
  <path class="a" d="M242.7,52a7.57,7.57,0,0,1-.1,1.5l-.3,1.5h-6.7a4.87,4.87,0,0,0-.1,1.2,2.82,2.82,0,0,0,.7,2.1,2.27,2.27,0,0,0,1.8.7,7.72,7.72,0,0,0,1.5-.2,10.09,10.09,0,0,0,1.5-.7l-.2,1.7c-.4.2-.9.3-1.4.5a8.81,8.81,0,0,1-1.7.2,4.5,4.5,0,0,1-3.1-1.1,4.42,4.42,0,0,1-1.1-3.2,10.23,10.23,0,0,1,1.5-5.3,5.92,5.92,0,0,1,1.7-1.8,4.45,4.45,0,0,1,2.3-.7,3.25,3.25,0,0,1,2.6,1A3,3,0,0,1,242.7,52Zm-1.8-.1a2.25,2.25,0,0,0-.5-1.5,1.61,1.61,0,0,0-1.3-.6,2.66,2.66,0,0,0-1.2.3,2,2,0,0,0-.9.9,3.46,3.46,0,0,0-.7,1.2,6.47,6.47,0,0,0-.4,1.3h4.8c.1-.3.1-.6.2-.8Z" transform="translate(-1 -4.6)"/>
  <path class="a" d="M253.8,51.1v.7c0,.3-.1.5-.1.7l-1.6,7.7h-1.9l1.6-7.7a4.1,4.1,0,0,0,.1-1.1,1.69,1.69,0,0,0-.3-1,1.36,1.36,0,0,0-1.2-.5,2.28,2.28,0,0,0-1.1.3,5.5,5.5,0,0,0-.9.7,3.59,3.59,0,0,0-.7,1,5.64,5.64,0,0,0-.4,1.2l-1.5,7.2h-1.9l2-9.2a5.85,5.85,0,0,0,.2-1.3c.1-.4.1-.8.2-1.3h1.9l-.3,1.7h0a4.09,4.09,0,0,1,1.4-1.5,3.58,3.58,0,0,1,1.9-.4,2.48,2.48,0,0,1,2,.8A3.17,3.17,0,0,1,253.8,51.1Z" transform="translate(-1 -4.6)"/>
  <path class="a" d="M262.6,50.1h-2.4L258.7,57c0,.2-.1.3-.1.5v.4a.6.6,0,0,0,.3.6.84.84,0,0,0,.7.2,1.27,1.27,0,0,0,.6-.1c.2-.1.4-.1.6-.2l-.3,1.6a2.35,2.35,0,0,1-.8.2,2.2,2.2,0,0,1-.8.1,3.1,3.1,0,0,1-1.7-.5,1.75,1.75,0,0,1-.6-1.5v-.5a.9.9,0,0,1,.1-.5l1.5-7.3h-1.9l.3-1.6h1.9L259,46l2-.6-.6,3h2.4Z" transform="translate(-1 -4.6)"/>
  <g>
    <path class="a" d="M54.85,98.2h-2.4l-.2-13.8h0l-5.9,13.8h-2.4l-.2-16h2.1v13h0l5.5-13h2.6l.2,13h0l5.5-13h2Z" transform="translate(-1 -4.6)"/>
    <path class="a" d="M69.15,89.4a1.7,1.7,0,0,1-.1.7,3.54,3.54,0,0,1-.1.6l-1,4.9a6.75,6.75,0,0,0-.2,1.4,5.85,5.85,0,0,0-.2,1.3h-1.8l.2-1.6h0a5.8,5.8,0,0,1-1.5,1.3,3.29,3.29,0,0,1-1.7.4,3.37,3.37,0,0,1-2.3-.8,3,3,0,0,1-.9-2.3A3.57,3.57,0,0,1,61,92.1c1-.7,2.6-1,4.8-1h1.2c.1-.3.1-.6.2-.9s.1-.5.1-.7a1.85,1.85,0,0,0-.5-1.2,1.62,1.62,0,0,0-1.4-.5,5.66,5.66,0,0,0-1.8.3,8,8,0,0,0-1.6.8V87.1a5.23,5.23,0,0,1,1.6-.6,5.84,5.84,0,0,1,1.9-.2,3.81,3.81,0,0,1,1.6.3,4.13,4.13,0,0,1,1.1.7,2.07,2.07,0,0,1,.6,1A1.68,1.68,0,0,1,69.15,89.4Zm-4.9,3.2a5,5,0,0,0-1.6.5,1.55,1.55,0,0,0-.8.8,2.17,2.17,0,0,0-.2,1.2,1.73,1.73,0,0,0,.5,1.3,1.84,1.84,0,0,0,1.2.5,3.55,3.55,0,0,0,1-.2,1.8,1.8,0,0,0,.9-.6,8.74,8.74,0,0,0,.8-1,5,5,0,0,0,.5-1.3l.3-1.4C65.75,92.5,64.95,92.5,64.25,92.6Z" transform="translate(-1 -4.6)"/>
    <path class="a" d="M77.95,88.1h-2.4L74,95c0,.2-.1.3-.1.5v.4a.6.6,0,0,0,.3.6.84.84,0,0,0,.7.2,1.27,1.27,0,0,0,.6-.1c.2-.1.4-.1.6-.2l-.3,1.6a2.35,2.35,0,0,1-.8.2,2.2,2.2,0,0,1-.8.1,3.1,3.1,0,0,1-1.7-.5,1.75,1.75,0,0,1-.6-1.5v-.5a.9.9,0,0,1,.1-.5l1.5-7.3h-1.8l.3-1.6h1.9l.5-2.4,2-.6-.6,3h2.4Z" transform="translate(-1 -4.6)"/>
    <path class="a" d="M87.55,90a7.57,7.57,0,0,1-.1,1.5l-.3,1.5h-6.7a4.87,4.87,0,0,0-.1,1.2,2.82,2.82,0,0,0,.7,2.1,2.27,2.27,0,0,0,1.8.7,7.72,7.72,0,0,0,1.5-.2,10.09,10.09,0,0,0,1.5-.7l-.2,1.7c-.4.2-.9.3-1.4.5a8.81,8.81,0,0,1-1.7.2,4.5,4.5,0,0,1-3.1-1.1,4.42,4.42,0,0,1-1.1-3.2,10.23,10.23,0,0,1,1.5-5.3,5.92,5.92,0,0,1,1.7-1.8,4.45,4.45,0,0,1,2.3-.7,3.25,3.25,0,0,1,2.6,1A3,3,0,0,1,87.55,90Zm-1.8-.1a2.25,2.25,0,0,0-.5-1.5,1.61,1.61,0,0,0-1.3-.6,2.66,2.66,0,0,0-1.2.3,2,2,0,0,0-.9.9,3.46,3.46,0,0,0-.7,1.2,6.47,6.47,0,0,0-.4,1.3h4.8c.1-.3.1-.6.2-.8Z" transform="translate(-1 -4.6)"/>
    <path class="a" d="M95.95,88.3c-.2,0-.5-.1-.7-.1a3,3,0,0,0-1,.2,5.3,5.3,0,0,0-1,.6,4.44,4.44,0,0,0-.8,1.1,13.78,13.78,0,0,0-.6,1.6l-1.4,6.4h-1.9l2-9.2a5.85,5.85,0,0,0,.2-1.3c.1-.4.1-.8.2-1.3h1.9l-.3,1.8h0a8.74,8.74,0,0,1,.8-1,3.19,3.19,0,0,1,.7-.6,2.39,2.39,0,0,1,.9-.3,5.28,5.28,0,0,1,1.3-.1Z" transform="translate(-1 -4.6)"/>
  </g>
  <g>
    <path class="a" d="M10.6,89.4a1.7,1.7,0,0,1-.1.7,3.54,3.54,0,0,1-.1.6l-1,4.9c-.1.5-.2.9-.3,1.4a5.85,5.85,0,0,0-.2,1.3H7.2l.2-1.6h0A5.8,5.8,0,0,1,5.9,98a3.29,3.29,0,0,1-1.7.4,3.37,3.37,0,0,1-2.3-.8A3,3,0,0,1,1,95.3a3.57,3.57,0,0,1,1.5-3.2c1-.7,2.6-1,4.8-1H8.5c.1-.3.1-.6.2-.9s.1-.5.1-.7a1.84,1.84,0,0,0-.5-1.2,1.62,1.62,0,0,0-1.4-.5,5.66,5.66,0,0,0-1.8.3,8,8,0,0,0-1.6.8V87.1a5.23,5.23,0,0,1,1.6-.6A5.84,5.84,0,0,1,7,86.3a3.81,3.81,0,0,1,1.6.3,4.13,4.13,0,0,1,1.1.7,2.07,2.07,0,0,1,.6,1A1.68,1.68,0,0,1,10.6,89.4ZM5.7,92.6a5,5,0,0,0-1.6.5,1.55,1.55,0,0,0-.8.8,2.17,2.17,0,0,0-.2,1.2,1.73,1.73,0,0,0,.5,1.3,1.85,1.85,0,0,0,1.2.5,3.55,3.55,0,0,0,1-.2,1.8,1.8,0,0,0,.9-.6,8.74,8.74,0,0,0,.8-1A5,5,0,0,0,8,93.8l.3-1.4C7.2,92.5,6.4,92.5,5.7,92.6Z" transform="translate(-1 -4.6)"/>
    <path class="a" d="M22.1,89.1v.7c0,.3-.1.5-.1.7l-1.6,7.7H18.5l1.6-7.7a4.1,4.1,0,0,0,.1-1.1,1.69,1.69,0,0,0-.3-1c-.2-.3-.7-.4-1.3-.4a2.28,2.28,0,0,0-1.1.3,5.5,5.5,0,0,0-.9.7,3.59,3.59,0,0,0-.7,1,5.64,5.64,0,0,0-.4,1.2L14,98.4H12.1l2-9.2a5.85,5.85,0,0,0,.2-1.3c.1-.4.1-.8.2-1.3h1.9l-.3,1.7h0a4.09,4.09,0,0,1,1.4-1.5,3.58,3.58,0,0,1,1.9-.4,2.48,2.48,0,0,1,2,.8A2.35,2.35,0,0,1,22.1,89.1Z" transform="translate(-1 -4.6)"/>
    <path class="a" d="M32.5,96.1a7.8,7.8,0,0,0-.3,2.2H30.3l.3-1.7h0a3.85,3.85,0,0,1-3.2,1.9,2.9,2.9,0,0,1-1.4-.3,2.72,2.72,0,0,1-1-.8,3.93,3.93,0,0,1-.6-1.3,7.77,7.77,0,0,1-.2-1.6,9.47,9.47,0,0,1,.4-2.8,7.56,7.56,0,0,1,1.1-2.6,6.27,6.27,0,0,1,1.7-1.9,3.6,3.6,0,0,1,2.2-.7,3.42,3.42,0,0,1,1.8.4,2.67,2.67,0,0,1,1.1,1.4h0L34,81.2h1.9Zm-.9-5.7a3.1,3.1,0,0,0-.5-1.7,1.65,1.65,0,0,0-1.6-.7,2,2,0,0,0-1.6.7,4.57,4.57,0,0,0-1.1,1.6,17.23,17.23,0,0,0-.7,2.1,16.46,16.46,0,0,0-.2,2.1,2.86,2.86,0,0,0,.5,1.7,1.75,1.75,0,0,0,1.4.7,2.41,2.41,0,0,0,1.8-.7,4.34,4.34,0,0,0,1.2-1.7,17.23,17.23,0,0,0,.7-2.1A6.89,6.89,0,0,0,31.6,90.4Z" transform="translate(-1 -4.6)"/>
  </g>
  <g>
    <path class="a" d="M124.7,44.7a2,2,0,0,0-1.1-.3,1.25,1.25,0,0,0-1.1.4,2.26,2.26,0,0,0-.6,1.3l-.5,2.5h2.1l-.3,1.6h-2.1L119,60.4h-1.9l2.1-10.2h-1.9l.3-1.6h1.9l.6-2.7a5,5,0,0,1,1.1-2.3,3.29,3.29,0,0,1,2.4-.8,7.72,7.72,0,0,1,1.5.2Z" transform="translate(-1 -4.6)"/>
    <path class="a" d="M133.3,52.7a8.84,8.84,0,0,1-.4,2.7,8,8,0,0,1-1.1,2.5,6.56,6.56,0,0,1-1.8,1.9,4.3,4.3,0,0,1-2.5.7,4.08,4.08,0,0,1-3-1.1,4.42,4.42,0,0,1-1.1-3.2,8.24,8.24,0,0,1,.4-2.6,7.07,7.07,0,0,1,1.1-2.5,6.56,6.56,0,0,1,1.8-1.9,4.3,4.3,0,0,1,2.5-.7,4,4,0,0,1,2.9,1.1A4.14,4.14,0,0,1,133.3,52.7Zm-2,0a3.68,3.68,0,0,0-.5-2,2.13,2.13,0,0,0-1.5-.7,2.52,2.52,0,0,0-1.7.6,4,4,0,0,0-1.2,1.6,11.76,11.76,0,0,0-.7,2,7.49,7.49,0,0,0-.2,2.1,3,3,0,0,0,.6,2,2.13,2.13,0,0,0,1.5.7,2.52,2.52,0,0,0,1.7-.6,4,4,0,0,0,1.2-1.6,11.76,11.76,0,0,0,.7-2C131.2,54,131.3,53.3,131.3,52.7Z" transform="translate(-1 -4.6)"/>
    <path class="a" d="M141.8,50.4c-.2,0-.5-.1-.7-.1a3,3,0,0,0-1,.2,5.3,5.3,0,0,0-1,.6,4.44,4.44,0,0,0-.8,1.1c-.2.5-.4,1-.6,1.6l-1.4,6.4h-1.9l2-9.2a5.85,5.85,0,0,0,.2-1.3c.1-.4.1-.8.2-1.3h1.9l-.3,1.8h0a8.74,8.74,0,0,1,.8-1,1.87,1.87,0,0,1,.7-.6,2.39,2.39,0,0,1,.9-.3c.3,0,.8-.1,1.3-.1Z" transform="translate(-1 -4.6)"/>
  </g>
  <g>
    <path class="a" d="M196.15,6.7a2,2,0,0,0-1.1-.3,1.25,1.25,0,0,0-1.1.4,2.26,2.26,0,0,0-.6,1.3l-.5,2.5h2.1l-.3,1.6h-2.1l-2.1,10.2h-1.9l2.1-10.2h-1.9l.3-1.6h1.9l.6-2.7a5,5,0,0,1,1.1-2.3,3.29,3.29,0,0,1,2.4-.8,7.72,7.72,0,0,1,1.5.2Z" transform="translate(-1 -4.6)"/>
    <path class="a" d="M204.75,14.7a8.84,8.84,0,0,1-.4,2.7,8,8,0,0,1-1.1,2.5,6.56,6.56,0,0,1-1.8,1.9,4.3,4.3,0,0,1-2.5.7,4.08,4.08,0,0,1-3-1.1,4.42,4.42,0,0,1-1.1-3.2,8.24,8.24,0,0,1,.4-2.6,7.07,7.07,0,0,1,1.1-2.5,6.56,6.56,0,0,1,1.8-1.9,4.3,4.3,0,0,1,2.5-.7,4,4,0,0,1,2.9,1.1A4.14,4.14,0,0,1,204.75,14.7Zm-2,0a3.68,3.68,0,0,0-.5-2,2.13,2.13,0,0,0-1.5-.7,2.52,2.52,0,0,0-1.7.6,4,4,0,0,0-1.2,1.6,11.76,11.76,0,0,0-.7,2,7.49,7.49,0,0,0-.2,2.1,3,3,0,0,0,.6,2,2.13,2.13,0,0,0,1.5.7,2.52,2.52,0,0,0,1.7-.6,4,4,0,0,0,1.2-1.6,11.76,11.76,0,0,0,.7-2C202.65,16,202.75,15.3,202.75,14.7Z" transform="translate(-1 -4.6)"/>
    <path class="a" d="M213.25,12.4c-.2,0-.5-.1-.7-.1a3,3,0,0,0-1,.2,5.3,5.3,0,0,0-1,.6,4.44,4.44,0,0,0-.8,1.1c-.2.5-.4,1-.6,1.6l-1.4,6.4h-1.9l2-9.2a5.85,5.85,0,0,0,.2-1.3c.1-.4.1-.8.2-1.3h1.9l-.3,1.8h0a8.74,8.74,0,0,1,.8-1,1.87,1.87,0,0,1,.7-.6,2.39,2.39,0,0,1,.9-.3c.3,0,.8-.1,1.3-.1Z" transform="translate(-1 -4.6)"/>
  </g>
</svg>
